<svg xmlns="http://www.w3.org/2000/svg" width="490.734" height="92.749" viewBox="0 0 490.734 92.749">
  <path id="Path_5" data-name="Path 5" d="M7.672-91.516V0h26.3V-91.516ZM67.13-63.157c-13.152,0-22.742,7.809-22.742,19.317,0,20.824,22.742,19.728,22.742,26.578,0,2.329-2.74,3.014-4.521,3.014-6.028,0-10.96-2.055-17.125-6.439V-3.973a42.721,42.721,0,0,0,21.1,5.206c13.7,0,23.016-8.22,23.016-20.413,0-19.591-23.564-19.317-23.564-25.756,0-1.37.959-2.74,4.384-2.74,5.891,0,11.782,2.466,16.714,6.028V-57.54A37.046,37.046,0,0,0,67.13-63.157ZM99.188-91.516V0H122.2V-91.516ZM163.3-63.157c-8.22,0-20.55,2.329-26.989,7.124v17.125c6.165-5.754,14.522-8.083,19.454-8.083,4.795,0,6.987,1.644,6.987,5.48v2.055c-7.261,2.877-10.823,3.7-16.3,6.439C134.26-26.715,132.068-20,132.068-14.385c0,8.9,6.987,15.618,16.029,15.618,6.713,0,10.138-1.233,16.577-7.4,1.1,4.521,4.795,7.261,12.467,7.261a28.223,28.223,0,0,0,16.166-4.521V-18.769a13.5,13.5,0,0,1-4.384,1.1c-2.466,0-3.151-1.1-3.151-4.521V-43.429C185.772-56.855,178.374-63.157,163.3-63.157Zm-8.768,45.21c0-4.932,2.329-8.357,8.22-11.1v13.015a5.8,5.8,0,0,1-4.658,2.6C155.358-13.426,154.536-15.07,154.536-17.947Zm85.625-45.21c-6.576,0-11.645,3.425-15.618,10h-.274v-8.768H201.253V0h23.016V-36.579c1.233-5.206,3.7-7.124,6.165-7.124,2.6,0,4.384,1.918,4.384,6.576V0h23.016V-41.237C257.834-55.348,250.71-63.157,240.161-63.157Zm63.7-28.359v30a43.9,43.9,0,0,0-10.823-1.507c-17.4,0-25.619,14.659-25.619,32.469C267.424-11.371,278.11,0,301.948,0h24.934V-91.516ZM291.4-30.414c0-10.275,2.74-15.618,7.4-15.618a14.571,14.571,0,0,1,5.069.822v27.674h-3.425C293.591-17.536,291.4-21.646,291.4-30.414Zm74.665-32.743c-16.988,0-29.044,14.522-29.044,33.291,0,13.289,6.439,31.1,30.277,31.1a48.114,48.114,0,0,0,23.975-6.165V-18.769c-5.754,3.562-10.549,4.932-18.084,4.932-7.809,0-11.234-4.521-12.193-12.193h31.647v-3.014C392.642-52.608,382.367-63.157,366.064-63.157Zm-5.069,26.852v-.274c0-8.9,1.781-12.33,4.932-12.33,3.425,0,4.8,3.288,4.8,12.6Zm88.091-22.6c-3.425-2.466-6.576-3.7-9.727-3.7-6.85,0-11.234,6.165-14.8,19.317h-.274V-61.924H402.78V0H425.8V-15.207c.822-16.3,3.425-26.578,12.33-26.578,2.055,0,4.247.959,6.85,3.151Zm26.852-4.247c-13.152,0-22.742,7.809-22.742,19.317,0,20.824,22.742,19.728,22.742,26.578,0,2.329-2.74,3.014-4.521,3.014-6.028,0-10.96-2.055-17.125-6.439V-3.973a42.721,42.721,0,0,0,21.1,5.206c13.7,0,23.016-8.22,23.016-20.413,0-19.591-23.564-19.317-23.564-25.756,0-1.37.959-2.74,4.384-2.74,5.891,0,11.782,2.466,16.714,6.028V-57.54A37.046,37.046,0,0,0,475.938-63.157Z" transform="translate(-7.672 91.516)"/>
</svg>
