<svg width="700" height="700" viewBox="0 0 700 700" fill="none" xmlns="http://www.w3.org/2000/svg">
<rect width="700" height="700" fill="white"/>
<path d="M346.055 118.125L63.9046 120.305C44.7946 120.445 31.3347 136.185 33.8347 155.445L50.8946 286.955C53.3946 306.215 70.8947 321.705 90.0147 321.565L314.295 319.835L376.085 371.835L374.625 319.295C392.415 317.875 404.625 302.685 402.235 284.295L385.175 152.785C382.675 133.515 365.165 117.985 346.055 118.125Z" fill="white"/>
<path d="M376.085 373.315C375.718 373.323 375.362 373.194 375.085 372.955L313.725 321.335L89.9947 323.055H89.7147C70.0147 323.055 51.9546 306.995 49.3746 287.135L32.3148 155.625C31.0348 145.765 33.6847 136.495 39.7847 129.505C42.7946 126.096 46.503 123.375 50.658 121.527C54.8131 119.679 59.3173 118.747 63.8646 118.795L346.015 116.615H346.295C365.995 116.615 384.055 132.675 386.635 152.535L403.695 284.045C404.351 288.494 404.091 293.031 402.93 297.377C401.77 301.723 399.733 305.785 396.945 309.315C391.753 315.659 384.282 319.716 376.135 320.615L377.555 371.765C377.559 371.965 377.523 372.163 377.449 372.349C377.376 372.535 377.266 372.705 377.127 372.848C376.987 372.992 376.821 373.106 376.637 373.184C376.453 373.262 376.255 373.303 376.055 373.305L376.085 373.315ZM314.295 318.315C314.66 318.306 315.015 318.43 315.295 318.665L374.465 368.515L373.105 319.315C373.091 318.929 373.227 318.554 373.484 318.266C373.741 317.979 374.1 317.803 374.485 317.775C378.368 317.518 382.158 316.468 385.62 314.689C389.083 312.911 392.143 310.442 394.615 307.435C397.148 304.22 398.997 300.522 400.048 296.566C401.099 292.611 401.329 288.482 400.725 284.435L383.655 152.925C381.275 134.505 364.545 119.615 346.295 119.615H346.045L63.8846 121.795C59.7628 121.746 55.679 122.586 51.9105 124.256C48.142 125.926 44.7772 128.388 42.0448 131.475C36.5248 137.805 34.1248 146.245 35.2948 155.235L52.3546 286.755C54.7446 305.165 71.4747 320.045 89.7147 320.055H89.9747L314.255 318.335L314.295 318.315Z" fill="black"/>
<path d="M110.465 157.015H121.315L127.375 194.235H127.615C128.911 191.054 131.197 188.376 134.135 186.595C137.299 184.58 140.973 183.512 144.725 183.515C152.725 183.515 166.355 188.445 169.725 209.025L175.465 244.515H164.615L159.035 210.255C157.475 200.645 152.574 192.505 142.344 192.505C140.39 192.531 138.467 192.993 136.713 193.856C134.96 194.719 133.421 195.962 132.207 197.494C130.994 199.026 130.137 200.809 129.699 202.714C129.261 204.618 129.253 206.596 129.675 208.505L135.535 244.505H124.685L110.465 157.015Z" fill="#CB93EE"/>
<path d="M226.155 244.515L224.065 236.995H223.695C221.135 241.675 215.405 245.865 206.905 245.865C194.825 245.865 187.275 237.365 185.905 228.735C183.555 214.325 195.085 206.435 218.155 206.555L217.955 205.325C217.155 200.395 214.355 191.525 202.155 191.525C196.884 191.474 191.721 193.018 187.344 195.955L183.715 188.805C188.125 185.605 194.935 183.515 202.445 183.515C220.685 183.515 227.154 195.955 229.094 207.915L232.735 230.215C233.448 235.063 234.555 239.846 236.045 244.515H226.155ZM219.594 214.075C207.724 213.825 194.595 215.925 196.525 227.505C197.665 234.505 202.885 237.855 208.435 237.855C216.195 237.855 220.325 232.925 221.225 227.855C221.429 226.715 221.45 225.55 221.285 224.405L219.594 214.075Z" fill="#CB93EE"/>
<path d="M238.285 157.015H249.125L263.375 244.515H252.535L238.285 157.015Z" fill="#CB93EE"/>
<path d="M330.655 214.195C334.245 236.255 320.535 245.865 306.115 245.865C289.975 245.865 275.595 234.035 272.525 215.185C269.275 195.185 280.435 183.515 296.945 183.515C314.075 183.515 327.685 195.955 330.655 214.195ZM283.435 214.815C285.565 227.875 294.685 237.735 305.285 237.735C315.635 237.735 321.815 227.995 319.625 214.565C317.975 204.465 310.835 191.645 298.025 191.645C285.215 191.645 281.585 203.515 283.465 214.815H283.435Z" fill="#CB93EE"/>
<path d="M577.465 271.515C571.828 271.515 566.318 269.843 561.631 266.711C556.944 263.58 553.291 259.129 551.134 253.921C548.977 248.713 548.413 242.983 549.512 237.455C550.612 231.926 553.326 226.848 557.312 222.862C561.298 218.876 566.376 216.162 571.905 215.062C577.433 213.963 583.163 214.527 588.371 216.684C593.579 218.841 598.03 222.494 601.161 227.181C604.293 231.868 605.965 237.378 605.965 243.015C605.954 250.57 602.948 257.813 597.605 263.156C592.263 268.498 585.02 271.504 577.465 271.515ZM577.465 217.515C572.421 217.515 567.491 219.01 563.298 221.812C559.104 224.614 555.836 228.597 553.906 233.256C551.976 237.916 551.471 243.043 552.455 247.99C553.439 252.936 555.867 257.48 559.433 261.046C563 264.612 567.543 267.041 572.49 268.025C577.436 269.009 582.564 268.504 587.223 266.574C591.883 264.643 595.865 261.375 598.667 257.182C601.469 252.988 602.965 248.058 602.965 243.015C602.957 236.254 600.268 229.773 595.487 224.992C590.707 220.212 584.225 217.523 577.465 217.515Z" fill="#FCE054"/>
<path d="M550.125 176.515C549.734 176.513 549.352 176.397 549.026 176.181C548.701 175.965 548.446 175.658 548.292 175.299C548.139 174.939 548.095 174.542 548.164 174.158C548.234 173.773 548.415 173.418 548.685 173.135L603.025 116.635C603.207 116.446 603.425 116.294 603.666 116.19C603.907 116.085 604.167 116.028 604.429 116.024C604.692 116.019 604.953 116.066 605.198 116.162C605.442 116.259 605.666 116.402 605.855 116.585C606.044 116.767 606.195 116.985 606.3 117.226C606.405 117.467 606.461 117.727 606.466 117.989C606.471 118.252 606.423 118.513 606.327 118.758C606.231 119.002 606.087 119.226 605.905 119.415L551.565 175.905C551.378 176.098 551.154 176.251 550.907 176.356C550.659 176.461 550.393 176.515 550.125 176.515Z" fill="#47CEC0"/>
<path d="M544.125 218.515C543.734 218.513 543.352 218.397 543.026 218.181C542.701 217.965 542.446 217.658 542.292 217.299C542.139 216.939 542.095 216.542 542.164 216.158C542.234 215.773 542.415 215.418 542.685 215.135L597.025 158.635C597.207 158.446 597.425 158.294 597.666 158.19C597.907 158.085 598.167 158.028 598.429 158.024C598.692 158.019 598.953 158.066 599.198 158.162C599.442 158.259 599.666 158.402 599.855 158.585C600.044 158.767 600.195 158.985 600.3 159.226C600.405 159.467 600.461 159.727 600.466 159.989C600.471 160.252 600.423 160.513 600.327 160.758C600.231 161.002 600.087 161.226 599.905 161.415L545.565 217.905C545.378 218.098 545.154 218.251 544.907 218.356C544.659 218.461 544.393 218.515 544.125 218.515Z" fill="#47CEC0"/>
<path d="M667.465 297.015H667.395L586.065 291.455C585.799 291.436 585.552 291.313 585.378 291.112C585.204 290.912 585.116 290.65 585.135 290.385C585.153 290.12 585.276 289.872 585.477 289.698C585.678 289.524 585.939 289.436 586.205 289.455L667.535 295.005C667.8 295.014 668.05 295.128 668.231 295.322C668.412 295.516 668.509 295.774 668.5 296.04C668.49 296.305 668.376 296.556 668.182 296.737C667.988 296.918 667.73 297.014 667.465 297.005V297.015Z" fill="black"/>
<path d="M667.465 319.015H667.395L586.065 313.455C585.799 313.436 585.552 313.313 585.378 313.112C585.204 312.912 585.116 312.65 585.135 312.385C585.153 312.12 585.276 311.872 585.477 311.698C585.678 311.524 585.939 311.436 586.205 311.455L667.535 317.005C667.8 317.014 668.05 317.128 668.231 317.322C668.412 317.516 668.509 317.774 668.5 318.04C668.49 318.305 668.376 318.556 668.182 318.737C667.988 318.918 667.73 319.014 667.465 319.005V319.015Z" fill="black"/>
<path d="M645.465 336.015H645.395L564.065 330.455C563.799 330.436 563.552 330.313 563.378 330.112C563.204 329.912 563.116 329.65 563.135 329.385C563.153 329.12 563.276 328.872 563.477 328.698C563.678 328.524 563.939 328.436 564.205 328.455L645.535 334.005C645.8 334.014 646.05 334.128 646.231 334.322C646.412 334.516 646.509 334.774 646.5 335.04C646.49 335.305 646.376 335.556 646.182 335.737C645.988 335.918 645.73 336.014 645.465 336.005V336.015Z" fill="black"/>
<path d="M651.965 253.015C660.525 253.015 667.465 246.075 667.465 237.515C667.465 228.954 660.525 222.015 651.965 222.015C643.404 222.015 636.465 228.954 636.465 237.515C636.465 246.075 643.404 253.015 651.965 253.015Z" fill="#47CEC0"/>
<path d="M629.965 176.015C629.795 176.012 629.627 175.985 629.465 175.935C629.089 175.801 628.781 175.524 628.609 175.164C628.436 174.805 628.413 174.391 628.545 174.015L635.545 154.015C635.598 153.813 635.693 153.626 635.823 153.463C635.953 153.3 636.115 153.166 636.299 153.069C636.483 152.972 636.685 152.914 636.893 152.898C637.1 152.883 637.309 152.911 637.505 152.98C637.701 153.049 637.881 153.158 638.033 153.3C638.186 153.442 638.307 153.614 638.389 153.805C638.472 153.996 638.514 154.202 638.513 154.41C638.513 154.618 638.469 154.824 638.385 155.015L631.385 175.015C631.278 175.306 631.085 175.559 630.832 175.737C630.578 175.916 630.275 176.013 629.965 176.015Z" fill="#ED5564"/>
<path d="M411.965 167.015C411.603 167.014 411.254 166.883 410.98 166.646C410.707 166.409 410.527 166.082 410.475 165.725L397.475 74.7246C397.419 74.3268 397.523 73.9232 397.765 73.6025C398.007 73.2818 398.367 73.0703 398.765 73.0146C399.162 72.9589 399.566 73.0635 399.887 73.3054C400.207 73.5473 400.419 73.9069 400.475 74.3047L413.475 165.305C413.526 165.699 413.421 166.098 413.182 166.416C412.942 166.734 412.588 166.945 412.195 167.005L411.965 167.015Z" fill="#ED5564"/>
<path d="M551.965 438.515C551.698 438.514 551.434 438.459 551.188 438.354C550.942 438.249 550.72 438.096 550.535 437.904C550.279 437.647 550.099 437.325 550.013 436.973C549.926 436.62 549.937 436.251 550.045 435.904L556.045 415.904C556.133 415.607 556.29 415.334 556.502 415.108C556.714 414.882 556.976 414.708 557.267 414.6C557.558 414.492 557.871 414.454 558.179 414.488C558.487 414.521 558.784 414.627 559.045 414.795L579.045 427.795C579.369 428.005 579.626 428.305 579.783 428.658C579.941 429.011 579.993 429.403 579.932 429.785C579.872 430.167 579.702 430.523 579.443 430.811C579.185 431.098 578.848 431.304 578.475 431.404L552.475 438.404C552.311 438.465 552.139 438.502 551.965 438.515ZM559.115 419.644L554.915 433.644L573.115 428.745L559.115 419.644Z" fill="#47CEC0"/>
<path d="M661.465 239.515H642.465C642.067 239.515 641.685 239.356 641.404 239.075C641.123 238.794 640.965 238.412 640.965 238.015C640.965 237.617 641.123 237.235 641.404 236.954C641.685 236.673 642.067 236.515 642.465 236.515H661.465C661.862 236.515 662.244 236.673 662.525 236.954C662.806 237.235 662.965 237.617 662.965 238.015C662.965 238.412 662.806 238.794 662.525 239.075C662.244 239.356 661.862 239.515 661.465 239.515Z" fill="white"/>
<path d="M651.965 247.015C651.567 247.015 651.185 246.857 650.904 246.575C650.623 246.294 650.465 245.912 650.465 245.515V229.515C650.465 229.117 650.623 228.735 650.904 228.454C651.185 228.173 651.567 228.015 651.965 228.015C652.362 228.015 652.744 228.173 653.025 228.454C653.306 228.735 653.465 229.117 653.465 229.515V245.515C653.465 245.912 653.306 246.294 653.025 246.575C652.744 246.857 652.362 247.015 651.965 247.015Z" fill="white"/>
<path d="M414.965 191.515C418.278 191.515 420.965 188.828 420.965 185.515C420.965 182.201 418.278 179.515 414.965 179.515C411.651 179.515 408.965 182.201 408.965 185.515C408.965 188.828 411.651 191.515 414.965 191.515Z" fill="#47CEC0"/>
<path d="M286.725 621.045L144.205 624.775L132.325 534.265L274.844 530.535L286.725 621.045Z" fill="#CB93EE"/>
<path d="M209.525 579.155C209.266 579.156 209.011 579.09 208.785 578.965L131.594 535.575C131.247 535.38 130.991 535.055 130.883 534.671C130.776 534.288 130.825 533.877 131.019 533.53C131.214 533.182 131.54 532.926 131.923 532.819C132.307 532.711 132.717 532.76 133.065 532.955L209.424 575.885L273.965 529.325C274.287 529.091 274.689 528.996 275.081 529.058C275.474 529.121 275.826 529.337 276.06 529.66C276.293 529.982 276.389 530.384 276.326 530.777C276.263 531.17 276.047 531.521 275.725 531.755L210.404 578.875C210.148 579.059 209.84 579.157 209.525 579.155Z" fill="white"/>
<path d="M144.205 626.275C143.837 626.277 143.482 626.145 143.205 625.905C143.056 625.776 142.935 625.619 142.847 625.443C142.76 625.267 142.708 625.075 142.695 624.879C142.682 624.683 142.708 624.486 142.772 624.3C142.835 624.114 142.935 623.942 143.065 623.795L192.065 567.515C192.33 567.214 192.704 567.03 193.104 567.005C193.505 566.98 193.899 567.115 194.2 567.38C194.501 567.645 194.684 568.019 194.709 568.419C194.735 568.82 194.6 569.214 194.335 569.515L145.335 625.795C145.191 625.95 145.016 626.074 144.821 626.157C144.627 626.239 144.416 626.28 144.205 626.275Z" fill="white"/>
<path d="M286.715 622.515C286.35 622.523 285.995 622.398 285.715 622.165L222.975 568.815C222.824 568.687 222.7 568.531 222.61 568.356C222.52 568.181 222.465 567.99 222.449 567.793C222.433 567.597 222.455 567.399 222.516 567.212C222.576 567.024 222.672 566.85 222.8 566.7C222.927 566.549 223.083 566.425 223.258 566.335C223.433 566.245 223.624 566.19 223.821 566.174C224.017 566.158 224.215 566.181 224.403 566.241C224.59 566.301 224.764 566.397 224.915 566.525L287.665 619.875C287.899 620.075 288.066 620.344 288.143 620.643C288.22 620.942 288.202 621.257 288.093 621.546C287.983 621.835 287.787 622.083 287.532 622.256C287.276 622.43 286.973 622.52 286.665 622.515H286.715Z" fill="white"/>
<path d="M249.565 268.795C249.299 268.795 249.045 268.689 248.857 268.502C248.67 268.314 248.565 268.06 248.565 267.795C248.565 267.529 248.67 267.275 248.857 267.088C249.045 266.9 249.299 266.795 249.565 266.795L347.265 263.405C347.53 263.405 347.784 263.51 347.972 263.698C348.159 263.885 348.265 264.139 348.265 264.405C348.265 264.67 348.159 264.924 347.972 265.112C347.784 265.299 347.53 265.405 347.265 265.405L249.565 268.795Z" fill="black"/>
<path d="M375.015 262.515L332.175 263.675L327.175 270.385C325.948 271.938 324.395 273.203 322.625 274.089C320.856 274.976 318.913 275.462 316.935 275.515L277.354 276.895C275.649 277.01 273.939 276.737 272.354 276.096C270.769 275.456 269.351 274.463 268.205 273.195L261.865 265.595L189.475 267.595L248.085 571.595L433.655 566.545L375.015 262.515Z" fill="#FCE054"/>
<path d="M237.545 583.015C237.309 583.019 237.08 582.94 236.897 582.792C236.714 582.644 236.589 582.436 236.545 582.204L179.204 281.924C179.155 281.659 179.214 281.385 179.367 281.163C179.519 280.941 179.754 280.789 180.019 280.74C180.285 280.691 180.559 280.749 180.781 280.902C181.003 281.054 181.155 281.289 181.204 281.555L238.384 581.005L419.094 578.305C419.36 578.305 419.614 578.41 419.802 578.598C419.989 578.785 420.094 579.039 420.094 579.305C420.094 579.57 419.989 579.824 419.802 580.012C419.614 580.199 419.36 580.305 419.094 580.305L237.535 583.015H237.545Z" fill="black"/>
<path d="M323.295 517.635C323.105 517.633 322.917 517.606 322.735 517.555C313.135 514.745 306.085 509.265 301.735 501.255C292.295 483.715 299.304 460.385 299.604 459.405C299.76 458.897 300.11 458.471 300.579 458.222C301.048 457.972 301.597 457.92 302.104 458.075C302.612 458.23 303.038 458.58 303.287 459.049C303.537 459.518 303.59 460.067 303.435 460.575C303.365 460.805 296.615 483.325 305.265 499.375C309.055 506.375 315.265 511.225 323.815 513.715C324.277 513.849 324.675 514.146 324.936 514.551C325.196 514.956 325.303 515.441 325.235 515.917C325.167 516.394 324.929 516.83 324.565 517.145C324.201 517.461 323.736 517.635 323.255 517.635H323.295Z" fill="white"/>
<path d="M355.005 524.095C352.997 524.111 350.992 523.977 349.005 523.695C348.481 523.607 348.013 523.315 347.705 522.883C347.396 522.451 347.272 521.914 347.36 521.39C347.447 520.866 347.739 520.398 348.171 520.09C348.604 519.781 349.141 519.657 349.665 519.745C349.935 519.795 369.665 522.815 382.665 509.045C383.033 508.683 383.528 508.477 384.045 508.472C384.562 508.466 385.061 508.661 385.437 509.015C385.814 509.37 386.038 509.856 386.064 510.372C386.089 510.889 385.914 511.395 385.575 511.785C375.655 522.365 362.525 524.095 355.005 524.095Z" fill="white"/>
<path d="M338.125 542.875C324.835 542.875 313.415 539.715 303.985 533.405C284.085 520.085 280.595 497.745 280.455 496.795C280.416 496.535 280.43 496.27 280.494 496.015C280.558 495.76 280.672 495.52 280.829 495.309C280.986 495.099 281.183 494.921 281.409 494.786C281.634 494.652 281.885 494.563 282.145 494.525C282.405 494.486 282.67 494.5 282.925 494.564C283.179 494.628 283.419 494.742 283.63 494.899C283.841 495.056 284.018 495.253 284.153 495.479C284.288 495.705 284.377 495.955 284.415 496.215C284.415 496.425 287.825 517.805 306.255 530.115C320.475 539.605 339.795 541.395 363.675 535.425C364.189 535.292 364.735 535.369 365.193 535.639C365.651 535.91 365.982 536.35 366.115 536.865C366.247 537.379 366.17 537.925 365.9 538.383C365.63 538.84 365.189 539.172 364.675 539.305C356.003 541.573 347.087 542.772 338.125 542.875Z" fill="white"/>
<path d="M414.668 276.439L353.812 294.292L375.035 366.633L435.89 348.78L414.668 276.439Z" fill="#ED5564"/>
<path d="M616.844 364.595L435.844 348.825L414.635 276.515L550.635 152.165C551.13 151.73 551.726 151.425 552.368 151.276C553.01 151.127 553.68 151.14 554.316 151.312C554.952 151.484 555.536 151.811 556.016 152.263C556.495 152.716 556.856 153.279 557.065 153.904L620.955 359.515C621.129 360.131 621.153 360.78 621.024 361.407C620.895 362.034 620.618 362.621 620.215 363.119C619.813 363.617 619.296 364.011 618.71 364.267C618.123 364.524 617.483 364.636 616.844 364.595Z" fill="#ED5564"/>
<path d="M390.506 347.122L423.803 337.354L465.069 478.016C466.364 482.431 465.852 487.181 463.646 491.219C461.44 495.257 457.72 498.253 453.304 499.548C448.889 500.844 444.14 500.332 440.102 498.126C436.064 495.92 433.067 492.2 431.772 487.784L390.506 347.122Z" fill="#ED5564"/>
<path d="M362.575 357.115C361.925 357.115 361.294 356.904 360.775 356.515C360.255 356.125 359.876 355.578 359.694 354.955L347.575 313.615C347.352 312.851 347.442 312.03 347.824 311.332C348.207 310.634 348.851 310.117 349.614 309.895C350.378 309.672 351.199 309.762 351.897 310.144C352.595 310.527 353.112 311.171 353.335 311.935L365.454 353.265C365.682 354.025 365.599 354.844 365.224 355.543C364.849 356.242 364.213 356.764 363.454 356.995C363.168 357.076 362.872 357.117 362.575 357.115Z" fill="#ED5564"/>
<path d="M474.075 456.655L463.075 411.885L457.895 403.885L433.465 380.035L410.385 388.435L384.735 421.605C368.645 416.025 347.295 434.185 327.805 440.365C296.055 450.445 314.995 526.235 376.315 504.365C412.845 491.295 462.035 464.915 474.075 456.655Z" fill="white"/>
<path d="M355.335 509.745C344.395 509.745 334.615 506.285 326.775 499.465C315.015 489.225 308.885 471.975 311.885 457.515C313.885 448.085 319.335 441.515 327.365 438.935C333.945 436.845 340.884 433.295 347.594 429.865C360.794 423.105 373.285 416.715 384.205 419.865L409.205 387.535C409.374 387.306 409.607 387.132 409.875 387.035L432.955 378.635C433.22 378.539 433.508 378.52 433.784 378.58C434.06 378.64 434.313 378.777 434.515 378.975L458.965 402.825C459.048 402.902 459.122 402.989 459.185 403.085L464.365 411.085C464.457 411.225 464.525 411.381 464.565 411.545L475.565 456.305C475.638 456.602 475.619 456.914 475.51 457.2C475.401 457.486 475.207 457.732 474.955 457.904C463.055 466.064 413.645 492.615 376.865 505.755C369.969 508.307 362.687 509.656 355.335 509.745ZM378.165 422.045C369.465 422.045 359.445 427.165 348.965 432.535C342.145 436.025 335.085 439.635 328.275 441.795C321.465 443.955 316.545 449.795 314.825 458.125C312.035 471.575 317.765 487.645 328.745 497.205C337.125 504.485 352.085 511.394 375.825 502.914C411.555 490.154 459.215 464.705 472.375 455.995L461.715 412.515L456.765 404.875L433.104 381.795L411.315 389.725L385.935 422.515C385.742 422.764 385.477 422.946 385.175 423.036C384.874 423.125 384.552 423.118 384.255 423.015C382.293 422.354 380.234 422.026 378.165 422.045Z" fill="black"/>
<path d="M374.745 368.375C374.259 368.376 373.79 368.201 373.425 367.882C373.059 367.564 372.822 367.123 372.757 366.642C372.692 366.161 372.804 365.673 373.072 365.269C373.341 364.865 373.746 364.572 374.214 364.445L433.835 347.755L412.474 276.755C412.336 276.251 412.4 275.713 412.653 275.256C412.906 274.799 413.327 274.459 413.828 274.309C414.328 274.158 414.867 274.21 415.33 274.452C415.793 274.694 416.143 275.108 416.305 275.605L438.255 348.525C438.331 348.779 438.355 349.047 438.327 349.311C438.299 349.575 438.218 349.832 438.089 350.065C437.961 350.297 437.787 350.502 437.578 350.667C437.37 350.832 437.131 350.953 436.874 351.025L375.285 368.265C375.11 368.326 374.929 368.363 374.745 368.375Z" fill="white"/>
<path d="M446.805 458.245C462.155 458.435 469.745 456.025 476.805 455.835C483.865 455.645 486.345 443.835 479.575 439.215C476.075 436.845 454.955 437.905 443.175 441.915C434.925 444.735 435.555 458.105 446.805 458.245Z" fill="white"/>
<path d="M448.465 459.755H446.755C439.915 459.665 436.755 455.235 436.185 451.465C435.791 449.157 436.229 446.785 437.421 444.77C438.613 442.756 440.482 441.23 442.695 440.465C454.295 436.515 476.155 435.065 480.425 437.945C484.955 441.015 485.775 446.525 484.575 450.625C483.375 454.725 480.435 457.205 476.845 457.305C474.078 457.44 471.32 457.727 468.585 458.165C461.928 459.199 455.202 459.731 448.465 459.755ZM446.785 456.755C453.944 456.832 461.098 456.324 468.175 455.235C471.016 454.779 473.88 454.482 476.755 454.345C479.045 454.285 480.885 452.595 481.695 449.825C482.565 446.825 482.005 442.685 478.695 440.475C476.115 438.715 455.825 439.185 443.625 443.345C442.081 443.869 440.777 444.929 439.948 446.333C439.119 447.736 438.819 449.39 439.105 450.995C439.545 453.735 441.775 456.695 446.745 456.755H446.785Z" fill="black"/>
<path d="M442.795 443.365C457.625 443.365 473.265 440.445 482.505 439.365C491.745 438.285 493.405 422.715 484.045 417.605C479.195 414.965 451.045 417.375 436.895 425.295C429.175 429.605 427.975 443.425 442.795 443.365Z" fill="white"/>
<path d="M442.705 444.865C433.155 444.865 430.704 439.545 430.124 437.245C428.834 432.325 431.434 426.625 436.124 423.985C450.064 416.185 478.895 413.105 484.715 416.285C490.775 419.585 492.465 426.585 491.485 431.695C490.505 436.805 487.104 440.325 482.645 440.845C480.395 441.115 477.695 441.495 474.835 441.895C465.575 443.205 454.055 444.825 442.765 444.895H442.665L442.705 444.865ZM476.435 418.065C466.325 418.065 448.254 420.665 437.634 426.595C434.114 428.595 432.085 432.905 433.025 436.485C433.965 440.065 437.375 441.865 442.715 441.865H442.795C453.885 441.865 465.295 440.215 474.455 438.925C477.335 438.515 480.045 438.135 482.335 437.865C485.495 437.495 487.835 434.975 488.575 431.125C489.365 427.055 488.055 421.495 483.325 418.915C482.305 418.365 479.815 418.065 476.465 418.065H476.435Z" fill="black"/>
<path d="M444.255 424.815C458.735 423.435 473.704 419.295 482.594 417.425C491.484 415.555 491.595 400.475 482.085 396.425C477.085 394.305 449.935 399.055 436.795 407.945C429.635 412.745 429.745 426.185 444.255 424.815Z" fill="white"/>
<path d="M442.215 426.415C434.435 426.415 431.945 421.985 431.215 419.955C429.555 415.325 431.595 409.605 435.955 406.655C448.855 397.925 476.705 392.435 482.675 394.995C488.885 397.655 491.175 404.275 490.675 409.295C490.175 414.315 487.205 417.995 482.905 418.895C480.745 419.345 478.145 419.955 475.405 420.595C466.505 422.675 455.405 425.255 444.405 426.305C443.625 426.375 442.905 426.415 442.215 426.415ZM478.215 397.365C469.675 397.365 448.745 401.595 437.585 409.135C434.375 411.315 432.795 415.615 433.995 418.945C435.195 422.275 438.765 423.815 444.065 423.315C454.895 422.315 465.865 419.735 474.675 417.675C477.435 417.025 480.045 416.425 482.235 415.965C485.235 415.325 487.235 412.725 487.645 408.965C488.035 404.965 486.265 399.795 481.445 397.725C480.413 397.425 479.337 397.303 478.265 397.365H478.215Z" fill="black"/>
<path d="M442.535 406.255C457.115 403.805 471.955 398.545 480.795 396.025C489.635 393.505 488.605 378.465 478.625 375.025C473.455 373.275 446.285 380.025 433.625 389.845C426.725 395.265 427.885 408.725 442.535 406.255Z" fill="white"/>
<path d="M439.135 408.065C432.255 408.065 429.705 404.165 428.885 402.275C426.885 397.785 428.555 391.945 432.715 388.705C445.115 379.045 472.884 371.535 479.104 373.645C485.604 375.855 488.425 382.305 488.305 387.365C488.185 392.425 485.455 396.255 481.205 397.475C479.055 398.085 476.485 398.875 473.755 399.725C464.905 402.465 453.895 405.865 442.755 407.725C441.56 407.94 440.349 408.053 439.135 408.065ZM476.255 376.255C468.725 376.255 445.935 382.195 434.555 391.055C431.495 393.435 430.215 397.825 431.625 401.055C433.035 404.285 436.945 405.655 442.285 404.755C453.195 402.925 464.105 399.545 472.875 396.835C475.615 395.985 478.205 395.185 480.385 394.565C483.385 393.715 485.205 390.985 485.305 387.265C485.405 383.265 483.205 378.185 478.145 376.465C477.527 376.309 476.891 376.245 476.255 376.275V376.255Z" fill="black"/>
<path d="M333.725 438.255C360.495 423.255 362.415 373.925 412.365 370.905C444.954 368.905 455.705 368.725 454.575 380.005C453.705 388.705 425.885 390.435 408.495 394.785C414.585 425.215 400.675 443.475 374.585 447.785" fill="white"/>
<path d="M374.585 449.325C374.187 449.356 373.793 449.229 373.489 448.97C373.185 448.711 372.996 448.342 372.965 447.945C372.933 447.547 373.06 447.153 373.319 446.849C373.578 446.545 373.947 446.356 374.344 446.325C386.844 444.235 396.454 438.795 402.124 430.575C408.294 421.625 409.945 409.675 407.025 395.065C406.946 394.686 407.018 394.292 407.226 393.965C407.433 393.638 407.759 393.405 408.134 393.315C412.964 392.105 418.674 391.075 424.134 390.095C436.784 387.825 452.515 385.005 453.035 379.835C453.285 377.295 452.875 375.565 451.735 374.385C447.935 370.435 434.984 371.015 412.404 372.385C381.994 374.225 370.035 393.385 358.465 411.875C351.465 423.125 344.804 433.735 334.414 439.555C334.067 439.75 333.656 439.798 333.273 439.691C332.889 439.583 332.565 439.327 332.37 438.98C332.175 438.632 332.126 438.222 332.234 437.838C332.341 437.455 332.597 437.129 332.945 436.935C342.665 431.495 349.105 421.195 355.945 410.285C367.355 392.025 380.295 371.284 412.245 369.394C437.055 367.894 449.184 367.395 453.914 372.315C455.684 374.155 456.385 376.714 456.035 380.144C455.295 387.574 440.425 390.235 424.685 393.055C419.745 393.945 414.685 394.854 410.205 395.894C412.915 410.704 411.015 422.945 404.565 432.295C398.415 441.195 388.125 447.065 374.805 449.295L374.585 449.325Z" fill="black"/>
<path d="M293.035 456.825L288.785 433.375C288.775 432.872 288.732 432.371 288.654 431.875L282.245 391.505C282.144 390.856 281.991 390.217 281.785 389.595C280.9 386.935 279.195 384.624 276.915 382.992C274.636 381.361 271.898 380.494 269.094 380.515L184.965 383.515C183.518 383.54 182.094 383.882 180.793 384.517C179.493 385.153 178.348 386.066 177.439 387.192C176.531 388.319 175.88 389.631 175.534 391.036C175.187 392.441 175.153 393.905 175.435 395.325L181.835 435.684C182.042 436.947 182.44 438.171 183.015 439.315C184.118 441.547 185.83 443.422 187.953 444.724C190.076 446.027 192.524 446.703 195.015 446.674L274.525 443.815L293.035 456.825Z" fill="#47CEC0"/>
<path d="M225.985 382.075L221.065 382.245L179.175 418.915L179.745 422.535L225.985 382.075Z" fill="white"/>
<path d="M197.245 383.105L192.335 383.285L175.815 397.745L176.385 401.365L197.245 383.105Z" fill="white"/>
<path d="M248.465 381.265L182.735 438.795C182.815 438.985 182.895 439.165 182.985 439.345C183.366 440.107 183.822 440.831 184.344 441.505L253.344 381.085L248.465 381.265Z" fill="white"/>
<path d="M274.945 381.815C273.859 381.274 272.7 380.896 271.505 380.695L196.135 446.695L201.045 446.515L274.945 381.815Z" fill="white"/>
<path d="M283.365 398.545L282.795 394.925L224.865 445.635L229.775 445.455L283.365 398.545Z" fill="white"/>
<path d="M290.185 441.065L289.535 437.515L278.835 446.875L281.455 448.715L290.185 441.065Z" fill="white"/>
<path d="M286.575 418.755L285.995 415.145L252.285 444.645L257.205 444.465L286.575 418.755Z" fill="white"/>
<path d="M275.104 381.885L279.575 385.555C278.363 384.027 276.839 382.776 275.104 381.885Z" fill="white"/>
</svg>
