<svg width="700" height="700" viewBox="0 0 700 700" fill="none" xmlns="http://www.w3.org/2000/svg">
<rect width="700" height="700" fill="white"/>
<path d="M56.3621 560.09L52.6421 558.63L118.062 390.97L184.712 494.98L300.422 356.33L440.302 507.2L635.872 234.2L639.132 236.52L440.702 513.52L300.582 362.39L184.292 501.74L118.942 399.75L56.3621 560.09Z" fill="#47CEC0"/>
<path d="M127.852 112.07H90.9721V279.13H127.852V112.07Z" fill="#FCE054"/>
<path d="M224.402 129.42H187.522V279.13H224.402V129.42Z" fill="#FCE054"/>
<path d="M175.582 183.66H138.702V279.12H175.582V183.66Z" fill="#47CEC0"/>
<path d="M275.382 236.82H238.502V279.13H275.382V236.82Z" fill="#47CEC0"/>
<path d="M71.4421 300.74C71.1769 300.74 70.9225 300.635 70.735 300.447C70.5475 300.26 70.4421 300.005 70.4421 299.74V88.6402L64.7621 101.64C64.6473 101.869 64.449 102.045 64.2082 102.132C63.9674 102.219 63.7023 102.211 63.4676 102.108C63.233 102.006 63.0466 101.817 62.947 101.581C62.8473 101.345 62.842 101.08 62.9321 100.84L70.5321 83.4802C70.6262 83.2735 70.7879 83.1048 70.9906 83.0022C71.1933 82.8996 71.4248 82.8692 71.6472 82.9158C71.8695 82.9624 72.0694 83.0833 72.2138 83.2586C72.3583 83.4338 72.4388 83.653 72.4421 83.8801V299.76C72.4369 300.022 72.3292 300.271 72.1422 300.454C71.9553 300.638 71.7039 300.74 71.4421 300.74Z" fill="black"/>
<path d="M278.642 287.72C278.449 287.719 278.26 287.661 278.098 287.555C277.937 287.448 277.809 287.297 277.732 287.12C277.628 286.879 277.623 286.606 277.718 286.36C277.814 286.115 278.002 285.917 278.242 285.81L291.242 280.13H53.0021C52.7369 280.13 52.4825 280.025 52.295 279.837C52.1075 279.65 52.0021 279.395 52.0021 279.13C52.0021 278.865 52.1075 278.611 52.295 278.423C52.4825 278.236 52.7369 278.13 53.0021 278.13H296.002C296.229 278.133 296.449 278.214 296.624 278.358C296.799 278.503 296.92 278.703 296.966 278.925C297.013 279.147 296.983 279.379 296.88 279.582C296.777 279.784 296.609 279.946 296.402 280.04L279.042 287.64C278.915 287.692 278.779 287.719 278.642 287.72Z" fill="black"/>
<path d="M296.002 280.13C295.827 280.131 295.655 280.086 295.502 280L280.322 271.36C280.208 271.294 280.108 271.207 280.027 271.103C279.947 270.998 279.888 270.879 279.853 270.752C279.819 270.624 279.81 270.492 279.827 270.361C279.844 270.23 279.886 270.104 279.952 269.99C280.018 269.876 280.105 269.776 280.21 269.695C280.314 269.615 280.433 269.556 280.56 269.521C280.688 269.487 280.82 269.478 280.951 269.495C281.082 269.512 281.208 269.554 281.322 269.62L296.512 278.3C296.705 278.409 296.856 278.579 296.941 278.783C297.027 278.988 297.042 279.215 296.985 279.428C296.928 279.642 296.801 279.831 296.625 279.965C296.449 280.1 296.234 280.172 296.012 280.17L296.002 280.13Z" fill="black"/>
<path d="M78.0021 100.05C77.8058 100.05 77.6139 99.992 77.4503 99.8835C77.2867 99.775 77.1586 99.6209 77.0821 99.4401L70.5721 84.25C70.4689 84.0059 70.4667 83.7309 70.5661 83.4853C70.6654 83.2397 70.8582 83.0437 71.1021 82.9401C71.3461 82.8369 71.6211 82.8347 71.8667 82.934C72.1124 83.0334 72.3085 83.2263 72.4121 83.4702L78.9221 98.6501C78.9748 98.7715 79.0028 98.9021 79.0046 99.0344C79.0065 99.1667 78.982 99.2981 78.9327 99.4209C78.8834 99.5436 78.8103 99.6552 78.7175 99.7495C78.6247 99.8438 78.5141 99.9189 78.3921 99.9702C78.2688 100.023 78.1361 100.05 78.0021 100.05Z" fill="black"/>
<path d="M224.402 156.93V152.19L187.522 168.44V173.18L224.402 156.93Z" fill="white"/>
<path d="M187.522 151.49L224.402 135.23V130.49L187.522 146.74V151.49Z" fill="white"/>
<path d="M224.402 260.67L187.522 276.92V279.13H193.272L224.402 265.41V260.67Z" fill="white"/>
<path d="M224.402 243.71V238.97L187.522 255.23V259.97L224.402 243.71Z" fill="white"/>
<path d="M224.402 222.02V217.28L187.522 233.53V238.27L224.402 222.02Z" fill="white"/>
<path d="M224.402 178.62V173.88L187.522 190.14V194.88L224.402 178.62Z" fill="white"/>
<path d="M224.402 200.32V195.58L187.522 211.83V216.58L224.402 200.32Z" fill="white"/>
<path d="M147.922 198.27C147.072 198.27 146.24 198.018 145.533 197.545C144.826 197.073 144.275 196.401 143.949 195.616C143.624 194.83 143.539 193.965 143.705 193.131C143.871 192.297 144.28 191.531 144.882 190.929C145.483 190.328 146.249 189.918 147.083 189.753C147.917 189.587 148.782 189.672 149.568 189.997C150.353 190.323 151.025 190.874 151.497 191.581C151.97 192.288 152.222 193.12 152.222 193.97C152.222 195.111 151.769 196.204 150.963 197.011C150.156 197.817 149.063 198.27 147.922 198.27ZM147.922 190.67C147.269 190.67 146.631 190.864 146.089 191.226C145.546 191.589 145.123 192.104 144.873 192.707C144.624 193.31 144.558 193.974 144.686 194.614C144.813 195.254 145.127 195.842 145.589 196.303C146.05 196.765 146.638 197.079 147.278 197.207C147.918 197.334 148.582 197.268 149.185 197.019C149.788 196.769 150.303 196.346 150.666 195.803C151.029 195.261 151.222 194.623 151.222 193.97C151.223 193.536 151.139 193.107 150.974 192.706C150.808 192.305 150.565 191.94 150.258 191.634C149.952 191.327 149.587 191.084 149.187 190.919C148.786 190.753 148.356 190.669 147.922 190.67Z" fill="white"/>
<path d="M164.742 210.74C163.891 210.742 163.059 210.492 162.35 210.02C161.642 209.549 161.089 208.878 160.762 208.093C160.435 207.307 160.349 206.442 160.514 205.607C160.678 204.773 161.087 204.006 161.688 203.403C162.289 202.801 163.055 202.39 163.89 202.223C164.724 202.057 165.589 202.141 166.375 202.467C167.162 202.792 167.834 203.343 168.307 204.05C168.78 204.757 169.032 205.589 169.032 206.44C169.029 207.578 168.577 208.669 167.773 209.474C166.97 210.28 165.88 210.735 164.742 210.74ZM164.742 203.15C164.089 203.148 163.449 203.34 162.905 203.702C162.361 204.064 161.936 204.579 161.685 205.183C161.434 205.786 161.368 206.451 161.495 207.092C161.622 207.733 161.937 208.321 162.399 208.784C162.861 209.246 163.45 209.56 164.091 209.687C164.732 209.814 165.396 209.748 166 209.497C166.603 209.246 167.118 208.822 167.48 208.277C167.842 207.733 168.034 207.094 168.032 206.44C168.029 205.569 167.682 204.733 167.066 204.117C166.449 203.5 165.614 203.153 164.742 203.15Z" fill="white"/>
<path d="M147.382 227.01C146.531 227.01 145.699 226.758 144.992 226.285C144.285 225.812 143.734 225.14 143.408 224.353C143.083 223.567 142.999 222.702 143.165 221.868C143.332 221.033 143.743 220.267 144.345 219.666C144.947 219.065 145.715 218.656 146.549 218.492C147.384 218.327 148.249 218.413 149.035 218.74C149.82 219.067 150.491 219.62 150.962 220.328C151.434 221.037 151.684 221.869 151.682 222.72C151.679 223.859 151.225 224.95 150.419 225.754C149.613 226.559 148.521 227.01 147.382 227.01ZM147.382 219.42C146.729 219.42 146.091 219.614 145.549 219.976C145.006 220.339 144.583 220.854 144.333 221.457C144.084 222.06 144.018 222.724 144.146 223.364C144.273 224.004 144.587 224.592 145.049 225.054C145.51 225.515 146.098 225.83 146.738 225.957C147.378 226.084 148.042 226.019 148.645 225.769C149.248 225.519 149.763 225.096 150.126 224.554C150.489 224.011 150.682 223.373 150.682 222.72C150.682 221.845 150.334 221.006 149.716 220.387C149.097 219.768 148.257 219.42 147.382 219.42Z" fill="white"/>
<path d="M166.912 236.78C166.061 236.782 165.229 236.532 164.52 236.06C163.812 235.589 163.259 234.918 162.932 234.133C162.605 233.347 162.519 232.482 162.684 231.648C162.848 230.813 163.257 230.046 163.858 229.443C164.459 228.841 165.225 228.43 166.06 228.263C166.894 228.097 167.759 228.181 168.545 228.507C169.332 228.832 170.004 229.383 170.477 230.09C170.95 230.797 171.202 231.629 171.202 232.48C171.199 233.618 170.747 234.709 169.943 235.514C169.14 236.32 168.05 236.775 166.912 236.78ZM166.912 229.18C166.259 229.178 165.62 229.37 165.076 229.732C164.532 230.093 164.107 230.607 163.856 231.21C163.605 231.813 163.538 232.477 163.664 233.118C163.791 233.759 164.104 234.348 164.565 234.81C165.026 235.273 165.614 235.588 166.255 235.716C166.895 235.844 167.559 235.779 168.163 235.53C168.766 235.28 169.282 234.857 169.645 234.315C170.008 233.772 170.202 233.133 170.202 232.48C170.202 231.607 169.856 230.769 169.239 230.15C168.622 229.532 167.786 229.183 166.912 229.18Z" fill="white"/>
<path d="M149.552 253.05C148.702 253.05 147.87 252.798 147.163 252.325C146.456 251.853 145.905 251.181 145.579 250.396C145.254 249.61 145.169 248.745 145.335 247.911C145.501 247.077 145.91 246.311 146.512 245.709C147.113 245.108 147.879 244.699 148.713 244.533C149.547 244.367 150.412 244.452 151.198 244.777C151.983 245.103 152.655 245.654 153.127 246.361C153.6 247.068 153.852 247.899 153.852 248.75C153.849 249.889 153.396 250.982 152.59 251.788C151.784 252.594 150.692 253.047 149.552 253.05ZM149.552 245.46C148.899 245.46 148.261 245.654 147.718 246.017C147.175 246.38 146.752 246.896 146.502 247.499C146.253 248.103 146.188 248.767 146.316 249.407C146.444 250.048 146.76 250.636 147.222 251.097C147.685 251.558 148.274 251.871 148.914 251.998C149.555 252.124 150.219 252.057 150.822 251.806C151.425 251.555 151.939 251.13 152.301 250.586C152.662 250.042 152.854 249.403 152.852 248.75C152.852 248.317 152.767 247.888 152.601 247.489C152.435 247.089 152.192 246.726 151.885 246.42C151.578 246.114 151.215 245.872 150.814 245.708C150.414 245.543 149.985 245.459 149.552 245.46Z" fill="white"/>
<path d="M164.742 268.24C163.891 268.242 163.059 267.992 162.35 267.52C161.642 267.049 161.089 266.378 160.762 265.593C160.435 264.807 160.349 263.942 160.514 263.107C160.678 262.273 161.087 261.506 161.688 260.903C162.289 260.301 163.055 259.89 163.89 259.723C164.724 259.557 165.589 259.641 166.375 259.967C167.162 260.292 167.834 260.843 168.307 261.55C168.78 262.257 169.032 263.089 169.032 263.94C169.029 265.078 168.577 266.169 167.773 266.974C166.97 267.78 165.88 268.235 164.742 268.24ZM164.742 260.64C164.089 260.638 163.45 260.83 162.906 261.191C162.362 261.553 161.937 262.068 161.686 262.67C161.435 263.273 161.368 263.937 161.494 264.578C161.62 265.218 161.934 265.808 162.395 266.27C162.856 266.733 163.444 267.048 164.085 267.176C164.725 267.304 165.389 267.239 165.993 266.99C166.596 266.74 167.112 266.317 167.475 265.774C167.838 265.232 168.032 264.593 168.032 263.94C168.032 263.067 167.686 262.229 167.069 261.61C166.452 260.992 165.616 260.643 164.742 260.64Z" fill="white"/>
<path d="M301.502 364.86C306.749 364.86 311.002 360.383 311.002 354.86C311.002 349.337 306.749 344.86 301.502 344.86C296.255 344.86 292.002 349.337 292.002 354.86C292.002 360.383 296.255 364.86 301.502 364.86Z" fill="#FCE054"/>
<path d="M572.502 334.86C577.749 334.86 582.002 330.383 582.002 324.86C582.002 319.337 577.749 314.86 572.502 314.86C567.255 314.86 563.002 319.337 563.002 324.86C563.002 330.383 567.255 334.86 572.502 334.86Z" fill="#FCE054"/>
<path d="M501.002 64.0801C478.57 64.2501 457.104 73.237 441.242 89.0996C425.379 104.962 416.392 126.428 416.222 148.86H501.002V64.0801Z" fill="#47CEC0"/>
<path d="M616.002 142.51C615.796 114.722 604.614 88.1432 584.892 68.5662C565.171 48.9891 538.51 38.0019 510.722 38H509.922V142.49L616.002 142.51Z" fill="#EC87BF"/>
<path d="M509.922 79.4502L537.922 41.5701C536.632 41.2301 535.332 40.9201 534.022 40.6201L509.922 73.2302V79.4502Z" fill="white"/>
<path d="M524.512 142.51L581.512 65.3801C580.602 64.5501 579.662 63.7402 578.712 62.9502L519.902 142.51H524.512Z" fill="white"/>
<path d="M561.512 51.0601C560.422 50.4601 559.312 49.8801 558.192 49.3201L509.922 114.63V120.85L561.512 51.0601Z" fill="white"/>
<path d="M598.002 84.4502C597.272 83.3702 596.512 82.32 595.752 81.27L550.482 142.51H555.082L598.002 84.4502Z" fill="white"/>
<path d="M610.332 109.21C609.852 107.81 609.332 106.42 608.812 105.04L581.112 142.51H585.712L610.332 109.21Z" fill="white"/>
<path d="M500.792 238.84V152.78H416.002C416.002 153 416.002 153.21 416.002 153.43C416.004 175.975 424.918 197.604 440.801 213.603C456.684 229.602 478.248 238.674 500.792 238.84Z" fill="#CB93EE"/>
<path d="M505.002 238.92H505.642C528.302 238.92 550.034 229.918 566.057 213.895C582.08 197.872 591.082 176.14 591.082 153.48C591.082 153.27 591.082 153.06 591.082 152.84H505.002V238.92Z" fill="#FCE054"/>
<path d="M61.0021 207.86C60.7903 207.861 60.5837 207.794 60.4121 207.67L45.4121 196.67C45.3057 196.593 45.2157 196.495 45.147 196.382C45.0784 196.27 45.0326 196.146 45.0121 196.016C44.9917 195.886 44.9971 195.753 45.028 195.625C45.0588 195.497 45.1146 195.376 45.1921 195.27C45.2696 195.164 45.3672 195.074 45.4795 195.005C45.5918 194.936 45.7165 194.89 45.8465 194.87C45.9765 194.85 46.1093 194.855 46.2372 194.886C46.3651 194.917 46.4857 194.972 46.5921 195.05L61.5921 206.05C61.7635 206.174 61.8911 206.349 61.9566 206.551C62.0221 206.752 62.022 206.969 61.9564 207.17C61.8909 207.371 61.7631 207.546 61.5916 207.67C61.4201 207.794 61.2137 207.861 61.0021 207.86Z" fill="black"/>
<path d="M61.0021 185.86C60.8108 185.861 60.6234 185.806 60.4621 185.703C60.3009 185.601 60.1724 185.454 60.0921 185.28L49.0921 161.28C48.9807 161.039 48.9697 160.763 49.0616 160.514C49.1535 160.264 49.3408 160.062 49.5821 159.95C49.8234 159.839 50.0992 159.828 50.3486 159.92C50.598 160.012 50.8007 160.199 50.9121 160.44L61.9121 184.44C61.9676 184.56 61.9989 184.689 62.0042 184.82C62.0096 184.952 61.989 185.083 61.9434 185.207C61.8979 185.331 61.8284 185.444 61.7389 185.541C61.6495 185.637 61.5418 185.715 61.4221 185.77C61.2897 185.828 61.1468 185.859 61.0021 185.86Z" fill="black"/>
<path d="M325.002 612.86L484.002 605.86L482.002 554.86" fill="white"/>
<path d="M324.822 613.05L321.822 575.05C321.822 575.05 313.822 608.05 290.822 613.05C267.822 618.05 250.822 607.05 235.822 575.05C222.972 547.65 194.712 468.15 176.822 438.36C176.822 438.36 226.232 411.6 226.372 411.88C241.252 441.4 278.822 524.05 278.822 524.05C278.822 524.05 292.822 416.05 305.822 402.05C318.822 388.05 341.822 382.05 357.822 384.05C373.822 386.05 443.822 393.05 468.822 400.05C493.822 407.05 606.822 446.05 634.822 465.05C662.822 484.05 657.822 518.05 639.822 532.05C621.822 546.05 545.822 605.05 521.822 618.05C497.822 631.05 493.822 637.05 475.822 625.05C457.822 613.05 463.822 610.05 447.822 611.05C431.822 612.05 432.822 600.05 436.822 598.05C436.822 598.05 430.822 594.05 435.822 587.05C434.668 585.482 433.964 583.628 433.788 581.689C433.612 579.75 433.969 577.8 434.822 576.05C434.822 576.05 425.822 567.05 435.822 562.05C445.822 557.05 482.822 572.05 482.822 572.05L481.822 554.05C481.822 554.05 487.822 552.05 493.822 567.05L574.822 506.05L472.822 473.05L481.822 559.05" fill="white"/>
<path d="M492.002 632.56C487.212 632.56 482.232 630.56 475.232 625.89C470.889 623.047 466.806 619.824 463.032 616.26C458.702 612.26 457.802 611.44 447.852 612.05C436.852 612.75 434.182 607.47 433.562 605.17C433.21 603.934 433.174 602.63 433.459 601.376C433.744 600.123 434.34 598.962 435.192 598C434.028 596.849 433.238 595.376 432.922 593.77C432.575 591.404 433.167 588.996 434.572 587.06C433.526 585.479 432.888 583.663 432.714 581.776C432.539 579.888 432.834 577.986 433.572 576.24C432.382 574.89 429.492 571.12 430.132 567.24C430.532 564.74 432.282 562.7 435.312 561.18C444.552 556.56 474.582 567.8 481.672 570.57L481.042 559.15H480.762L471.602 471.62L577.002 505.7L493.412 568.64L492.932 567.43C488.672 556.78 484.562 555.17 482.932 554.99L483.932 573.57L482.472 572.98C482.102 572.83 445.782 558.21 436.292 562.98C433.872 564.19 432.492 565.73 432.192 567.57C431.582 571.33 435.512 575.34 435.552 575.38L436.062 575.89L435.742 576.53C434.963 578.107 434.633 579.868 434.79 581.62C434.947 583.372 435.585 585.047 436.632 586.46L437.092 587.05L436.662 587.67C435.202 589.67 434.662 591.67 434.942 593.42C435.276 594.953 436.149 596.316 437.402 597.26L438.822 598.26L437.292 599.03C435.932 599.71 434.882 602.22 435.552 604.73C436.552 608.59 441.052 610.55 447.782 610.14C458.202 609.48 459.712 610.49 464.452 614.87C468.149 618.36 472.148 621.516 476.402 624.3C491.302 634.24 496.132 631.49 512.142 622.4C514.852 620.87 517.912 619.13 521.372 617.26C542.602 605.76 604.372 558.49 639.232 531.35C648.492 524.15 653.982 511.83 653.572 499.2C653.142 485.91 646.292 474.11 634.282 465.96C605.902 446.7 492.472 407.79 468.582 401.1C448.092 395.36 397.802 389.69 370.792 386.64C365.082 385.99 360.572 385.48 357.722 385.13C342.642 383.24 319.592 388.8 306.582 402.82C293.942 416.42 279.982 523.19 279.842 524.26L279.392 527.74L277.942 524.55C277.562 523.73 240.942 443.15 225.942 413.27C221.132 415.67 195.862 429.27 178.242 438.82C189.652 458.21 204.722 496.03 218.032 529.46C225.592 548.46 232.122 564.84 236.752 574.71C251.212 605.57 267.832 617.12 290.632 612.16C312.772 607.35 320.802 575.22 320.872 574.9L322.352 568.81L325.842 613.06L323.842 613.21L321.262 580.52C317.952 590.16 309.022 610.2 291.052 614.11C267.172 619.3 249.862 607.41 234.932 575.56C230.282 565.63 223.742 549.21 216.162 530.2C203.332 498 187.372 457.91 175.982 438.96L175.442 438.06L176.362 437.56C225.882 410.74 226.152 410.84 226.692 411.01L227.092 411.13L227.282 411.51C240.342 437.43 271.282 505.09 278.282 520.51C280.832 501.61 293.192 414.23 305.082 401.41C318.552 386.91 342.372 381.16 357.942 383.1C360.772 383.46 365.282 383.97 370.942 384.61C398.012 387.66 448.402 393.35 469.052 399.13C493.052 405.84 606.792 444.89 635.342 464.27C647.892 472.79 655.052 485.15 655.502 499.09C655.932 512.35 650.142 525.3 640.392 532.88C605.442 560.07 543.612 607.41 522.252 618.97C518.812 620.84 515.762 622.57 513.062 624.1C503.912 629.28 498.132 632.56 492.002 632.56ZM482.502 552.97C484.582 552.97 489.502 554.32 494.222 565.48L572.652 506.41L474.002 474.48L482.222 552.99L482.502 552.97Z" fill="black"/>
<path d="M448.002 610.86C432.002 611.86 433.002 599.86 437.002 597.86C437.002 597.86 431.002 593.86 436.002 586.86C434.848 585.292 434.144 583.438 433.968 581.5C433.792 579.561 434.149 577.61 435.002 575.86C435.002 575.86 426.002 566.86 436.002 561.86C446.002 556.86 483.002 571.86 483.002 571.86L481.002 553.86C481.002 553.86 488.002 551.86 494.002 566.86L504.002 559.86L537.002 607.86L522.002 617.86C498.002 630.86 494.002 636.86 476.002 624.86C458.002 612.86 464.002 609.86 448.002 610.86Z" fill="white"/>
<path d="M492.172 632.36C487.382 632.36 482.402 630.36 475.402 625.69C471.063 622.842 466.98 619.619 463.202 616.06C458.872 612.06 457.972 611.24 448.022 611.86C437.022 612.54 434.352 607.27 433.732 604.97C433.38 603.734 433.344 602.43 433.629 601.176C433.914 599.923 434.51 598.762 435.362 597.8C434.201 596.652 433.41 595.182 433.092 593.58C432.749 591.211 433.34 588.801 434.742 586.86C433.696 585.279 433.058 583.463 432.884 581.576C432.709 579.688 433.004 577.786 433.742 576.04C432.552 574.69 429.672 570.93 430.302 567.04C430.702 564.54 432.452 562.5 435.482 560.98C444.692 556.38 474.482 567.51 481.752 570.34L479.892 553.15L480.692 552.92C481.012 552.83 488.212 550.92 494.382 565.35L504.222 558.48L538.372 608.15L522.482 618.71C518.962 620.62 515.912 622.36 513.212 623.89C504.052 629.08 498.282 632.36 492.172 632.36ZM452.712 609.68C458.952 609.68 460.712 611 464.562 614.59C468.26 618.082 472.259 621.241 476.512 624.03C491.412 633.96 496.252 631.22 512.262 622.13C514.962 620.59 518.022 618.85 521.482 616.98L535.602 607.59L503.752 561.26L493.502 568.36L493.032 567.19C488.712 556.4 484.032 554.89 482.112 554.75L484.112 573.37L482.562 572.74C482.202 572.6 445.872 557.97 436.392 562.74C433.962 563.95 432.582 565.5 432.282 567.33C431.672 571.09 435.612 575.1 435.652 575.14L436.152 575.65L435.832 576.3C435.056 577.878 434.728 579.639 434.885 581.39C435.042 583.141 435.678 584.816 436.722 586.23L437.192 586.82L436.752 587.43C435.292 589.48 434.752 591.43 435.042 593.21C435.37 594.735 436.241 596.089 437.492 597.02L438.932 597.97L437.392 598.74C436.022 599.43 434.972 601.93 435.652 604.44C436.652 608.3 441.142 610.27 447.882 609.85C449.762 609.74 451.352 609.68 452.712 609.68Z" fill="black"/>
<path d="M317.759 463.017L315.761 463.105L320.759 577.105L322.757 577.018L317.759 463.017Z" fill="black"/>
<path d="M590.705 499.001L572.472 504.274L573.027 506.195L591.26 500.922L590.705 499.001Z" fill="black"/>
<path d="M481.322 582.55C481.322 582.55 450.322 567.55 435.322 575.55L481.322 582.55Z" fill="white"/>
<path d="M481.312 583.56C481.164 583.556 481.017 583.522 480.882 583.46C480.582 583.31 450.162 568.77 435.792 576.46C435.676 576.522 435.549 576.56 435.418 576.573C435.287 576.585 435.154 576.572 435.029 576.533C434.903 576.495 434.786 576.432 434.684 576.348C434.583 576.264 434.499 576.161 434.437 576.045C434.375 575.929 434.337 575.802 434.325 575.671C434.312 575.54 434.325 575.408 434.364 575.282C434.402 575.156 434.465 575.039 434.549 574.937C434.633 574.836 434.736 574.752 434.852 574.69C450.122 566.55 480.472 581.05 481.752 581.69C481.962 581.786 482.133 581.951 482.235 582.157C482.337 582.364 482.364 582.6 482.313 582.825C482.261 583.05 482.133 583.25 481.951 583.391C481.768 583.532 481.543 583.606 481.312 583.6V583.56Z" fill="black"/>
<path d="M479.322 593.55C479.322 593.55 449.322 578.55 435.322 586.55L479.322 593.55Z" fill="white"/>
<path d="M479.312 594.56C479.159 594.558 479.008 594.52 478.872 594.45C478.572 594.3 449.192 579.78 435.812 587.45C435.584 587.57 435.318 587.596 435.07 587.524C434.822 587.452 434.612 587.288 434.483 587.064C434.354 586.841 434.316 586.577 434.377 586.326C434.439 586.076 434.594 585.859 434.812 585.72C449.112 577.55 478.512 592.07 479.752 592.72C479.989 592.838 480.17 593.046 480.254 593.297C480.339 593.548 480.32 593.823 480.202 594.06C480.112 594.216 479.982 594.344 479.826 594.432C479.669 594.52 479.492 594.564 479.312 594.56Z" fill="black"/>
<path d="M476.322 604.55C476.322 604.55 458.322 591.55 437.322 597.55L476.322 604.55Z" fill="white"/>
<path d="M476.312 605.56C476.104 605.556 475.902 605.49 475.732 605.37C475.552 605.24 457.862 592.72 437.592 598.52C437.336 598.593 437.062 598.561 436.829 598.432C436.597 598.303 436.425 598.086 436.352 597.83C436.279 597.574 436.311 597.3 436.44 597.067C436.57 596.835 436.786 596.663 437.042 596.59C458.262 590.53 476.722 603.59 476.902 603.74C477.078 603.863 477.21 604.039 477.278 604.242C477.346 604.445 477.347 604.665 477.281 604.869C477.215 605.073 477.085 605.25 476.911 605.374C476.736 605.499 476.526 605.564 476.312 605.56Z" fill="black"/>
<path d="M386.322 430.66L376.572 403.35L360.712 429.13L339.392 385.13L341.192 384.26L360.922 424.98L377.062 398.76L387.312 427.46L434.542 392.83L435.732 394.44L386.322 430.66Z" fill="black"/>
<path d="M504.787 558.841L503.134 559.966L536.452 608.936L538.105 607.811L504.787 558.841Z" fill="black"/>
<path d="M521.571 547.479L519.949 548.65L554.42 596.409L556.041 595.239L521.571 547.479Z" fill="black"/>
<path d="M236.336 435.27L186.893 459.61L187.776 461.404L237.22 437.064L236.336 435.27Z" fill="black"/>
<path d="M379.614 407.066L377.615 407.125L383.598 611.127L385.597 611.068L379.614 407.066Z" fill="black"/>
<path d="M372.958 408.836L370.958 408.864L373.746 611.075L375.746 611.047L372.958 408.836Z" fill="black"/>
<path d="M541.822 598.05C544.031 598.05 545.822 596.259 545.822 594.05C545.822 591.841 544.031 590.05 541.822 590.05C539.613 590.05 537.822 591.841 537.822 594.05C537.822 596.259 539.613 598.05 541.822 598.05Z" fill="white"/>
<path d="M541.822 599.06C540.833 599.06 539.866 598.767 539.044 598.217C538.222 597.668 537.581 596.887 537.203 595.974C536.824 595.06 536.725 594.055 536.918 593.085C537.111 592.115 537.587 591.224 538.287 590.525C538.986 589.825 539.877 589.349 540.847 589.156C541.817 588.963 542.822 589.062 543.735 589.441C544.649 589.819 545.43 590.46 545.979 591.282C546.529 592.104 546.822 593.071 546.822 594.06C546.822 595.386 546.295 596.658 545.358 597.596C544.42 598.533 543.148 599.06 541.822 599.06ZM541.822 591.06C541.229 591.06 540.649 591.236 540.155 591.566C539.662 591.895 539.277 592.364 539.05 592.912C538.823 593.46 538.764 594.063 538.88 594.645C538.995 595.227 539.281 595.762 539.701 596.181C540.12 596.601 540.655 596.887 541.237 597.002C541.819 597.118 542.422 597.059 542.97 596.832C543.518 596.605 543.987 596.22 544.316 595.727C544.646 595.233 544.822 594.653 544.822 594.06C544.822 593.264 544.506 592.501 543.943 591.939C543.381 591.376 542.618 591.06 541.822 591.06Z" fill="black"/>
<path d="M193.322 453.05C195.807 453.05 197.822 451.035 197.822 448.55C197.822 446.065 195.807 444.05 193.322 444.05C190.837 444.05 188.822 446.065 188.822 448.55C188.822 451.035 190.837 453.05 193.322 453.05Z" fill="white"/>
<path d="M193.322 454.06C192.234 454.06 191.171 453.738 190.266 453.133C189.362 452.529 188.657 451.67 188.241 450.665C187.824 449.66 187.716 448.554 187.928 447.487C188.14 446.42 188.664 445.44 189.433 444.671C190.202 443.902 191.182 443.378 192.249 443.166C193.316 442.954 194.422 443.062 195.427 443.479C196.432 443.895 197.291 444.6 197.895 445.504C198.5 446.409 198.822 447.472 198.822 448.56C198.822 450.019 198.243 451.418 197.211 452.449C196.18 453.481 194.781 454.06 193.322 454.06ZM193.322 445.06C192.63 445.06 191.953 445.265 191.378 445.65C190.802 446.034 190.353 446.581 190.089 447.221C189.824 447.86 189.754 448.564 189.889 449.243C190.024 449.922 190.358 450.545 190.847 451.035C191.337 451.524 191.96 451.858 192.639 451.993C193.318 452.128 194.022 452.059 194.661 451.794C195.301 451.529 195.848 451.08 196.232 450.505C196.617 449.929 196.822 449.252 196.822 448.56C196.822 447.632 196.453 446.742 195.797 446.085C195.141 445.429 194.25 445.06 193.322 445.06Z" fill="black"/>
<path d="M424.342 273.77C424.342 273.77 377.432 216.6 353.972 232.77C330.512 248.94 348.112 278.21 348.112 278.21L406.752 363.21C406.752 363.21 403.232 376.8 433.232 392.21C473.632 413.02 512.802 382.42 512.802 360.39C512.802 338.36 486.312 331.18 494.702 317.73C508.072 296.29 494.442 258.8 424.342 273.77Z" fill="#201000"/>
<path d="M406.752 388.11V363.19C406.752 363.19 424.342 348.53 424.342 335.34C424.342 335.34 459.522 338.27 463.912 316.28C468.302 294.29 450.722 282.57 437.532 289.89L424.342 297.22C424.342 297.22 399.422 294.29 400.882 267.91C400.882 267.91 359.882 241.52 343.712 278.17C327.542 314.82 321.712 347.06 330.522 358.79C339.332 370.52 358.372 371.98 358.372 371.98V388.11C358.372 388.11 374.502 427.69 406.752 388.11Z" fill="white"/>
<path d="M379.892 406.7C378.985 406.699 378.079 406.632 377.182 406.5C364.132 404.55 357.712 389.14 357.452 388.5C357.402 388.383 357.375 388.257 357.372 388.13V372.91C353.372 372.45 337.672 370.01 329.722 359.41C320.842 347.57 325.852 316.3 342.802 277.79C347.142 267.92 353.672 261.62 362.202 259.05C380.202 253.63 400.562 266.53 401.422 267.05C401.57 267.145 401.691 267.277 401.772 267.433C401.852 267.59 401.89 267.764 401.882 267.94C400.562 291.78 421.212 295.73 424.142 296.17L437.042 289C440.093 287.295 443.572 286.511 447.06 286.742C450.547 286.973 453.892 288.208 456.692 290.3C464.032 295.65 467.102 305.43 464.892 316.46C460.762 337.15 431.382 336.7 425.302 336.38C424.502 348.66 410.302 361.45 407.752 363.63V388.09C407.75 388.32 407.669 388.543 407.522 388.72C397.802 400.67 388.522 406.7 379.892 406.7ZM359.372 387.9C360.112 389.58 366.262 402.85 377.492 404.52C386.062 405.8 395.572 400.16 405.752 387.75V363.19C405.751 363.044 405.781 362.899 405.842 362.766C405.902 362.633 405.991 362.515 406.102 362.42C406.282 362.28 423.342 347.9 423.342 335.34C423.341 335.201 423.369 335.064 423.424 334.936C423.479 334.809 423.56 334.694 423.662 334.6C423.764 334.506 423.884 334.435 424.015 334.39C424.146 334.346 424.284 334.328 424.422 334.34C424.762 334.34 458.762 336.94 462.932 316.08C464.982 305.85 462.212 296.82 455.512 291.93C453.018 290.068 450.039 288.968 446.934 288.762C443.828 288.556 440.73 289.253 438.012 290.77L424.822 298.1C424.64 298.202 424.43 298.244 424.222 298.22C423.962 298.22 398.762 294.91 399.852 268.45C396.662 266.54 378.392 256.24 362.772 260.95C354.822 263.34 348.772 269.27 344.632 278.57C328.232 315.85 323.002 347.1 331.322 358.19C339.642 369.28 358.262 370.97 358.452 370.99C358.703 371.01 358.937 371.124 359.108 371.31C359.279 371.495 359.373 371.738 359.372 371.99V387.9Z" fill="black"/>
<path d="M362.002 322.61C361.811 322.61 361.623 322.554 361.462 322.45C356.762 319.39 354.262 315.55 354.012 311.06C353.412 300.06 366.672 289.06 367.232 288.59C367.334 288.506 367.451 288.444 367.577 288.406C367.703 288.367 367.835 288.354 367.966 288.367C368.097 288.38 368.224 288.419 368.34 288.481C368.456 288.543 368.559 288.628 368.642 288.73C368.808 288.935 368.886 289.197 368.86 289.459C368.834 289.721 368.705 289.962 368.502 290.13C368.372 290.24 355.502 300.94 356.012 310.95C356.222 314.78 358.422 318.08 362.552 320.77C362.734 320.887 362.873 321.061 362.948 321.264C363.023 321.467 363.03 321.689 362.968 321.896C362.906 322.104 362.778 322.286 362.604 322.414C362.43 322.543 362.219 322.612 362.002 322.61Z" fill="black"/>
<path d="M379.092 348.16C378.512 348.16 377.922 348.16 377.322 348.06C377.191 348.046 377.064 348.006 376.948 347.942C376.832 347.878 376.73 347.793 376.647 347.69C376.565 347.586 376.503 347.468 376.466 347.341C376.429 347.214 376.418 347.082 376.432 346.95C376.447 346.819 376.487 346.692 376.55 346.576C376.614 346.46 376.7 346.358 376.803 346.275C376.906 346.193 377.024 346.131 377.151 346.094C377.278 346.057 377.411 346.046 377.542 346.06C378.95 346.269 380.386 346.188 381.762 345.822C383.138 345.456 384.424 344.812 385.542 343.93C390.292 340.06 391.052 332.38 391.062 332.3C391.075 332.169 391.113 332.041 391.175 331.925C391.236 331.808 391.32 331.705 391.422 331.621C391.524 331.537 391.641 331.474 391.767 331.435C391.893 331.396 392.026 331.383 392.157 331.395C392.288 331.408 392.416 331.446 392.533 331.508C392.649 331.569 392.752 331.654 392.836 331.755C392.92 331.857 392.984 331.974 393.022 332.1C393.061 332.226 393.075 332.359 393.062 332.49C393.062 332.83 392.222 341.07 386.832 345.49C384.647 347.265 381.906 348.21 379.092 348.16Z" fill="black"/>
<path d="M445.592 315.08C445.327 315.08 445.073 314.975 444.885 314.787C444.697 314.6 444.592 314.345 444.592 314.08C444.592 314.01 444.532 310.78 442.392 309.46C440.682 308.4 437.882 308.79 434.312 310.58C434.194 310.643 434.065 310.682 433.931 310.695C433.798 310.707 433.663 310.692 433.536 310.652C433.408 310.611 433.29 310.545 433.188 310.458C433.087 310.371 433.004 310.264 432.944 310.144C432.884 310.024 432.85 309.894 432.841 309.76C432.833 309.626 432.852 309.492 432.897 309.366C432.941 309.24 433.011 309.124 433.101 309.025C433.191 308.926 433.3 308.846 433.422 308.79C437.712 306.65 441.082 306.3 443.422 307.79C446.522 309.71 446.562 313.93 446.562 314.11C446.555 314.365 446.45 314.607 446.27 314.788C446.089 314.968 445.847 315.073 445.592 315.08Z" fill="black"/>
<path d="M399.392 274.3C399.26 274.301 399.13 274.276 399.008 274.226C398.886 274.176 398.776 274.103 398.682 274.01C396.862 272.367 394.513 271.431 392.062 271.37C391.797 271.37 391.543 271.265 391.355 271.077C391.167 270.89 391.062 270.635 391.062 270.37C391.062 270.105 391.167 269.851 391.355 269.663C391.543 269.476 391.797 269.37 392.062 269.37C395.032 269.433 397.877 270.578 400.062 272.59C400.156 272.683 400.23 272.794 400.281 272.916C400.332 273.037 400.358 273.168 400.358 273.3C400.358 273.432 400.332 273.563 400.281 273.685C400.23 273.806 400.156 273.917 400.062 274.01C399.883 274.188 399.644 274.291 399.392 274.3Z" fill="black"/>
<path d="M391.352 295.76C392.567 295.76 393.552 294.775 393.552 293.56C393.552 292.345 392.567 291.36 391.352 291.36C390.137 291.36 389.152 292.345 389.152 293.56C389.152 294.775 390.137 295.76 391.352 295.76Z" fill="#201000"/>
<path d="M356.172 285.5C357.387 285.5 358.372 284.515 358.372 283.3C358.372 282.085 357.387 281.1 356.172 281.1C354.957 281.1 353.972 282.085 353.972 283.3C353.972 284.515 354.957 285.5 356.172 285.5Z" fill="#201000"/>
<path d="M372.502 265.11C372.238 265.106 371.987 264.998 371.802 264.81C371.632 264.65 367.912 261.04 364.262 263.47C364.042 263.6 363.781 263.641 363.531 263.584C363.282 263.528 363.064 263.377 362.922 263.165C362.78 262.952 362.724 262.694 362.767 262.442C362.81 262.19 362.948 261.964 363.152 261.81C367.152 259.13 371.492 261.68 373.212 263.4C373.353 263.54 373.449 263.718 373.488 263.913C373.527 264.108 373.508 264.31 373.431 264.494C373.355 264.677 373.226 264.833 373.061 264.943C372.895 265.053 372.701 265.111 372.502 265.11Z" fill="black"/>
<path d="M428.332 319.78C428.213 319.779 428.095 319.759 427.982 319.72C427.859 319.673 427.747 319.603 427.651 319.513C427.556 319.423 427.479 319.315 427.425 319.195C427.371 319.075 427.341 318.946 427.337 318.815C427.333 318.684 427.355 318.553 427.402 318.43C434.942 298.32 451.572 300.63 451.742 300.66C452.007 300.7 452.246 300.843 452.405 301.059C452.565 301.275 452.632 301.545 452.592 301.81C452.552 302.075 452.409 302.314 452.193 302.473C451.977 302.633 451.707 302.7 451.442 302.66C450.822 302.57 436.222 300.61 429.272 319.16C429.196 319.346 429.065 319.504 428.898 319.615C428.73 319.725 428.533 319.783 428.332 319.78Z" fill="black"/>
<path d="M425.452 273.54C425.452 273.54 435.682 282.06 425.882 301.65C416.082 321.24 425.882 302.87 425.882 302.87H421.002C421.002 302.87 429.572 287.25 421.002 269.82L425.452 273.54Z" fill="white"/>
<path d="M352.002 299.86C342.072 299.86 334.002 291.34 334.002 280.86C334.002 270.38 342.072 261.86 352.002 261.86C361.932 261.86 370.002 270.38 370.002 280.86C370.002 291.34 361.932 299.86 352.002 299.86ZM352.002 263.86C343.182 263.86 336.002 271.49 336.002 280.86C336.002 290.23 343.182 297.86 352.002 297.86C360.822 297.86 368.002 290.23 368.002 280.86C368.002 271.49 360.822 263.86 352.002 263.86Z" fill="black"/>
<path d="M388.002 311.86C378.072 311.86 370.002 303.34 370.002 292.86C370.002 282.38 378.072 273.86 388.002 273.86C397.932 273.86 406.002 282.38 406.002 292.86C406.002 303.34 397.932 311.86 388.002 311.86ZM388.002 275.86C379.182 275.86 372.002 283.49 372.002 292.86C372.002 302.23 379.182 309.86 388.002 309.86C396.822 309.86 404.002 302.23 404.002 292.86C404.002 283.49 396.822 275.86 388.002 275.86Z" fill="black"/>
<path d="M427.002 298.86L404.462 298.36C404.197 298.36 403.943 298.255 403.755 298.067C403.567 297.88 403.462 297.625 403.462 297.36C403.462 297.095 403.567 296.841 403.755 296.653C403.943 296.466 404.197 296.36 404.462 296.36L426.992 296.86C427.257 296.86 427.512 296.966 427.699 297.153C427.887 297.341 427.992 297.595 427.992 297.86C427.992 298.125 427.887 298.38 427.699 298.567C427.512 298.755 427.257 298.86 426.992 298.86H427.002Z" fill="black"/>
<path d="M201.132 461.99C202.285 464.999 202.22 468.339 200.949 471.301C199.679 474.262 197.304 476.612 194.329 477.85C191.354 479.088 188.013 479.118 185.017 477.932C182.02 476.746 179.604 474.439 178.282 471.5C176.502 467.23 117.432 313.97 79.4621 215.5C79.1465 214.759 79.1383 213.923 79.4393 213.175C79.7403 212.428 80.3258 211.831 81.0671 211.515C81.8084 211.199 82.6447 211.191 83.392 211.492C84.1393 211.793 84.7365 212.379 85.0521 213.12C129.772 308.78 199.352 457.72 201.132 461.99Z" fill="#CB93EE"/>
<path d="M120.902 359.13C114.902 360.01 111.572 373.28 120.592 374.96C129.612 376.64 155.432 368.11 150.262 362.72C145.092 357.33 130.002 357.8 120.902 359.13Z" fill="white"/>
<path d="M123.262 376.17C122.307 376.181 121.354 376.108 120.412 375.95C116.332 375.18 113.942 372.14 114.032 367.8C114.112 363.61 116.712 358.73 120.762 358.14C123.132 357.79 144.162 354.94 150.982 362.03C151.494 362.515 151.824 363.161 151.916 363.86C152.009 364.559 151.859 365.268 151.492 365.87C148.762 370.93 132.292 376.17 123.262 376.17ZM132.732 359.26C128.824 359.273 124.921 359.557 121.052 360.11C118.452 360.5 116.052 364.11 116.052 367.84C116.052 369.41 116.422 373.16 120.792 373.98C128.362 375.4 147.302 369.47 149.792 364.92C149.956 364.692 150.027 364.411 149.992 364.133C149.957 363.854 149.817 363.6 149.602 363.42C146.482 360.24 139.542 359.26 132.732 359.26Z" fill="black"/>
<path d="M225.002 411.81C209.362 366.63 172.382 350.33 166.382 348.71C160.382 347.09 129.672 335.16 129.512 343.45C129.352 351.74 156.002 360.86 156.002 360.86C156.054 366.004 157.072 371.092 159.002 375.86C160.692 379.86 163.582 382.04 166.002 386.86C172.852 400.51 181.002 418.92 187.002 431.86" fill="white"/>
<path d="M224.062 412.14C209.222 369.29 174.582 351.97 166.112 349.67C165.052 349.38 163.282 348.79 161.032 348.05C152.612 345.26 135.102 339.45 131.132 342.26C130.933 342.391 130.771 342.571 130.663 342.783C130.554 342.995 130.502 343.232 130.512 343.47C130.392 349.68 149.342 357.79 156.652 360.39L157.522 360.7L157.292 361.58C157.102 362.32 152.912 379.64 174.292 388.67L173.512 390.51C153.372 381.99 154.572 365.95 155.212 361.98C150.092 360.1 128.382 351.63 128.542 343.43C128.539 342.877 128.671 342.332 128.927 341.842C129.183 341.352 129.556 340.932 130.012 340.62C134.432 337.49 148.682 341.84 161.692 346.15C163.912 346.89 165.692 347.47 166.692 347.74C175.372 350.09 210.882 367.81 225.992 411.48L224.062 412.14Z" fill="black"/>
<path d="M127.452 371.36C121.452 372.24 118.122 385.51 127.142 387.19C136.162 388.87 161.982 380.34 156.812 374.95C151.642 369.56 136.532 370 127.452 371.36Z" fill="white"/>
<path d="M129.802 388.36C128.851 388.371 127.9 388.297 126.962 388.14C122.882 387.37 120.492 384.33 120.582 379.99C120.662 375.8 123.262 370.92 127.312 370.33C129.682 369.98 150.712 367.13 157.532 374.22C158.044 374.705 158.374 375.351 158.466 376.05C158.559 376.749 158.409 377.458 158.042 378.06C155.312 383.14 138.842 388.36 129.802 388.36ZM127.602 372.36C125.002 372.74 122.652 376.36 122.602 380.08C122.602 381.65 122.972 385.4 127.342 386.22C134.902 387.64 153.852 381.71 156.342 377.16C156.505 376.931 156.574 376.649 156.537 376.371C156.5 376.093 156.359 375.839 156.142 375.66C151.792 371.13 138.702 370.74 127.662 372.36H127.602Z" fill="black"/>
<path d="M134.742 384.3C128.742 385.18 125.412 398.45 134.432 400.13C143.452 401.81 169.272 393.28 164.092 387.89C158.912 382.5 143.822 382.97 134.742 384.3Z" fill="white"/>
<path d="M137.092 401.36C136.141 401.371 135.19 401.297 134.252 401.14C130.172 400.37 127.782 397.33 127.872 392.99C127.962 388.65 130.552 383.92 134.602 383.33C136.972 382.98 158.002 380.13 164.822 387.22C165.332 387.706 165.661 388.352 165.754 389.05C165.846 389.749 165.698 390.458 165.332 391.06C162.602 396.1 146.132 401.36 137.092 401.36ZM146.472 384.44C142.597 384.451 138.727 384.738 134.892 385.3C132.292 385.69 129.942 389.3 129.892 393.03C129.892 394.6 130.262 398.35 134.632 399.17C142.202 400.59 161.142 394.66 163.632 390.11C163.795 389.881 163.864 389.599 163.827 389.321C163.79 389.042 163.649 388.788 163.432 388.61C160.512 385.6 153.842 384.42 146.472 384.42V384.44Z" fill="black"/>
<path d="M157.452 418.69C157.452 418.69 136.362 416.77 137.302 407.69C138.242 398.61 164.062 389.36 167.692 396.98C171.322 404.6 152.352 409.5 152.352 409.5L157.452 418.69Z" fill="white"/>
<path d="M159.252 419.86L157.362 419.69C156.762 419.69 142.592 418.28 137.852 412.52C137.274 411.854 136.837 411.077 136.571 410.236C136.304 409.395 136.213 408.508 136.302 407.63C137.012 400.78 149.102 394.97 157.192 393.58C163.132 392.58 167.192 393.58 168.592 396.58C168.95 397.299 169.136 398.092 169.136 398.895C169.136 399.698 168.95 400.491 168.592 401.21C166.352 406 157.192 409.14 153.812 410.15L159.252 419.86ZM161.192 395.21C159.965 395.22 158.74 395.333 157.532 395.55C149.072 397 138.822 402.69 138.292 407.84C138.231 408.454 138.298 409.075 138.489 409.662C138.68 410.249 138.991 410.789 139.402 411.25C142.652 415.25 151.652 416.89 155.622 417.46L150.852 408.9L152.102 408.57C155.542 407.68 164.902 404.47 166.812 400.37C167.044 399.918 167.165 399.418 167.165 398.91C167.165 398.402 167.044 397.902 166.812 397.45C166.092 395.98 164.082 395.21 161.192 395.21Z" fill="black"/>
<path d="M329.002 162.86C326.629 162.86 324.309 162.156 322.335 160.838C320.362 159.519 318.824 157.645 317.916 155.453C317.007 153.26 316.77 150.847 317.233 148.519C317.696 146.191 318.839 144.053 320.517 142.375C322.195 140.697 324.333 139.554 326.661 139.091C328.989 138.628 331.402 138.865 333.594 139.774C335.787 140.682 337.661 142.22 338.98 144.193C340.298 146.167 341.002 148.487 341.002 150.86C341.002 154.043 339.738 157.095 337.487 159.346C335.237 161.596 332.185 162.86 329.002 162.86ZM329.002 142.86C327.42 142.86 325.873 143.329 324.558 144.208C323.242 145.087 322.217 146.337 321.611 147.799C321.006 149.261 320.847 150.869 321.156 152.421C321.464 153.973 322.226 155.398 323.345 156.517C324.464 157.636 325.89 158.398 327.441 158.706C328.993 159.015 330.602 158.857 332.064 158.251C333.525 157.646 334.775 156.62 335.654 155.305C336.533 153.989 337.002 152.442 337.002 150.86C337.002 148.738 336.159 146.704 334.659 145.203C333.159 143.703 331.124 142.86 329.002 142.86Z" fill="#CB93EE"/>
<path d="M625.002 393.86C624.588 393.86 624.184 393.731 623.847 393.492C623.509 393.252 623.254 392.913 623.117 392.523C622.979 392.132 622.967 391.709 623.081 391.31C623.195 390.912 623.429 390.559 623.752 390.3L643.752 374.3C644.168 373.988 644.688 373.85 645.204 373.915C645.719 373.98 646.189 374.243 646.514 374.649C646.839 375.054 646.993 375.57 646.944 376.088C646.896 376.605 646.647 377.083 646.252 377.42L626.252 393.42C625.898 393.705 625.457 393.86 625.002 393.86Z" fill="#CB93EE"/>
<path d="M128.002 604.86C127.674 604.859 127.35 604.778 127.061 604.623C126.771 604.467 126.524 604.243 126.342 603.97L116.342 588.97C116.082 588.53 116 588.007 116.114 587.508C116.227 587.01 116.527 586.574 116.952 586.29C117.377 586.006 117.895 585.895 118.399 585.98C118.903 586.066 119.355 586.341 119.662 586.75L129.662 601.75C129.863 602.051 129.978 602.401 129.996 602.762C130.014 603.123 129.933 603.483 129.763 603.802C129.592 604.121 129.339 604.388 129.029 604.574C128.719 604.76 128.364 604.859 128.002 604.86Z" fill="#FCE054"/>
<path d="M180.502 661.86C187.958 661.86 194.002 655.816 194.002 648.36C194.002 640.904 187.958 634.86 180.502 634.86C173.046 634.86 167.002 640.904 167.002 648.36C167.002 655.816 173.046 661.86 180.502 661.86Z" fill="#EC87BF"/>
<path d="M286.002 649.86H210.002C209.737 649.86 209.483 649.755 209.295 649.567C209.107 649.38 209.002 649.125 209.002 648.86C209.002 648.595 209.107 648.341 209.295 648.153C209.483 647.966 209.737 647.86 210.002 647.86H286.002C286.267 647.86 286.522 647.966 286.709 648.153C286.897 648.341 287.002 648.595 287.002 648.86C287.002 649.125 286.897 649.38 286.709 649.567C286.522 649.755 286.267 649.86 286.002 649.86Z" fill="black"/>
</svg>
