<svg width="700" height="700" viewBox="0 0 700 700" fill="none" xmlns="http://www.w3.org/2000/svg">
<rect width="700" height="700" fill="white"/>
<path d="M469.381 513.75H507.381V475.75H469.381V513.75Z" fill="white"/>
<path d="M505.381 477.75V511.75H471.381V477.75H505.381ZM507.381 475.75H469.381V513.75H507.381V475.75Z" fill="black"/>
<path d="M314.381 564.75H596.381V530.75H314.381V564.75Z" fill="black"/>
<path d="M530.381 539.75H503.381V541.75H530.381V539.75Z" fill="white"/>
<path d="M579.381 554.75H566.381V556.75H579.381V554.75Z" fill="white"/>
<path d="M485.381 554.75H463.381V556.75H485.381V554.75Z" fill="white"/>
<path d="M361.091 486.75L617.671 486.75C629.109 486.75 638.381 477.478 638.381 466.04V261.46C638.381 250.022 629.109 240.75 617.671 240.75L361.091 240.75C349.653 240.75 340.381 250.022 340.381 261.46V466.04C340.381 477.478 349.653 486.75 361.091 486.75Z" fill="white"/>
<path d="M617.671 242.75C622.631 242.755 627.387 244.728 630.895 248.236C634.403 251.744 636.376 256.499 636.381 261.46V466.04C636.376 471.001 634.403 475.757 630.895 479.264C627.387 482.772 622.631 484.745 617.671 484.75H361.091C356.13 484.745 351.374 482.772 347.867 479.264C344.359 475.757 342.386 471.001 342.381 466.04V261.46C342.386 256.499 344.359 251.744 347.867 248.236C351.374 244.728 356.13 242.755 361.091 242.75H617.671ZM617.671 240.75H361.091C355.598 240.75 350.331 242.932 346.447 246.816C342.563 250.7 340.381 255.967 340.381 261.46V466.04C340.381 471.533 342.563 476.8 346.447 480.684C350.331 484.568 355.598 486.75 361.091 486.75H617.671C623.164 486.75 628.431 484.568 632.315 480.684C636.199 476.8 638.381 471.533 638.381 466.04V261.46C638.381 255.967 636.199 250.7 632.315 246.816C628.431 242.932 623.164 240.75 617.671 240.75Z" fill="black"/>
<path d="M550.381 521.75H427.381V521.06C427.381 517.795 428.678 514.664 430.986 512.355C433.295 510.047 436.426 508.75 439.691 508.75H538.071C541.336 508.75 544.467 510.047 546.775 512.355C549.084 514.664 550.381 517.795 550.381 521.06V521.75Z" fill="white"/>
<path d="M538.071 510.75C540.578 510.753 542.998 511.668 544.88 513.324C546.762 514.98 547.978 517.264 548.301 519.75H429.461C429.784 517.264 430.999 514.98 432.882 513.324C434.764 511.668 437.184 510.753 439.691 510.75H538.071ZM538.071 508.75H439.691C436.426 508.75 433.295 510.047 430.986 512.355C428.678 514.664 427.381 517.795 427.381 521.06V521.75H550.381V521.06C550.381 517.795 549.084 514.664 546.775 512.355C544.467 510.047 541.336 508.75 538.071 508.75Z" fill="black"/>
<path d="M358.881 456.25L615.881 456.25V263.25H358.881V456.25Z" fill="white"/>
<path d="M613.881 265.25V454.25H360.881V265.25H613.881ZM615.881 263.25H358.881V456.25H615.881V263.25Z" fill="black"/>
<path d="M607.181 476.25C610.66 476.25 613.481 473.116 613.481 469.25C613.481 465.384 610.66 462.25 607.181 462.25C603.702 462.25 600.881 465.384 600.881 469.25C600.881 473.116 603.702 476.25 607.181 476.25Z" fill="#47CEC0"/>
<path d="M454.881 168.25H313.881V310.25H454.881V168.25Z" fill="#47CEC0"/>
<path d="M382.381 242.25C395.36 242.25 405.881 231.729 405.881 218.75C405.881 205.771 395.36 195.25 382.381 195.25C369.402 195.25 358.881 205.771 358.881 218.75C358.881 231.729 369.402 242.25 382.381 242.25Z" fill="white"/>
<path d="M379.621 241.25H387.141C393.968 241.25 400.515 243.962 405.342 248.789C410.169 253.616 412.881 260.163 412.881 266.99V300.25H353.881V266.99C353.881 260.163 356.593 253.616 361.42 248.789C366.247 243.962 372.794 241.25 379.621 241.25Z" fill="white"/>
<path d="M444.881 301.75H299.881C299.483 301.75 299.101 301.592 298.82 301.311C298.539 301.029 298.381 300.648 298.381 300.25V157.25C298.381 156.852 298.539 156.471 298.82 156.189C299.101 155.908 299.483 155.75 299.881 155.75H444.881C445.279 155.75 445.66 155.908 445.942 156.189C446.223 156.471 446.381 156.852 446.381 157.25V300.25C446.381 300.648 446.223 301.029 445.942 301.311C445.66 301.592 445.279 301.75 444.881 301.75ZM301.381 298.75H443.381V158.75H301.381V298.75Z" fill="#FCE054"/>
<path d="M653.381 312.75H523.381V325.75H653.381V312.75Z" fill="#FCE054"/>
<path d="M651.881 341.25H521.881V364.25H651.881V341.25Z" fill="#FCE054"/>
<path d="M518.501 456.49C504.981 400.68 462.961 378.85 430.081 370.36C394.331 361.12 361.341 365.2 361.011 365.24L360.751 363.24C361.081 363.24 394.411 359.07 430.521 368.39C451.771 373.87 469.831 382.86 484.201 395.11C502.201 410.44 514.371 430.92 520.441 455.99L518.501 456.49Z" fill="#CB93EE"/>
<path d="M462.881 414.25H375.881V436.25H462.881V414.25Z" fill="#CB93EE"/>
<path d="M451.881 426.25H385.881C385.616 426.25 385.361 426.145 385.174 425.957C384.986 425.77 384.881 425.515 384.881 425.25C384.881 424.985 384.986 424.73 385.174 424.543C385.361 424.355 385.616 424.25 385.881 424.25H451.881C452.146 424.25 452.4 424.355 452.588 424.543C452.776 424.73 452.881 424.985 452.881 425.25C452.881 425.515 452.776 425.77 452.588 425.957C452.4 426.145 452.146 426.25 451.881 426.25Z" fill="white"/>
<path d="M293.881 164.25C302.165 164.25 308.881 157.534 308.881 149.25C308.881 140.966 302.165 134.25 293.881 134.25C285.597 134.25 278.881 140.966 278.881 149.25C278.881 157.534 285.597 164.25 293.881 164.25Z" fill="#47CEC0"/>
<path d="M301.881 150.25H283.881C283.616 150.25 283.361 150.145 283.174 149.957C282.986 149.77 282.881 149.515 282.881 149.25C282.881 148.985 282.986 148.73 283.174 148.543C283.361 148.355 283.616 148.25 283.881 148.25H301.881C302.146 148.25 302.4 148.355 302.588 148.543C302.776 148.73 302.881 148.985 302.881 149.25C302.881 149.515 302.776 149.77 302.588 149.957C302.4 150.145 302.146 150.25 301.881 150.25Z" fill="white"/>
<path d="M293.881 158.25C293.616 158.25 293.361 158.145 293.174 157.957C292.986 157.77 292.881 157.515 292.881 157.25V141.25C292.881 140.985 292.986 140.73 293.174 140.543C293.361 140.355 293.616 140.25 293.881 140.25C294.146 140.25 294.4 140.355 294.588 140.543C294.776 140.73 294.881 140.985 294.881 141.25V157.25C294.881 157.515 294.776 157.77 294.588 157.957C294.4 158.145 294.146 158.25 293.881 158.25Z" fill="white"/>
<path d="M170.881 218.29C170.881 218.29 217.551 161.41 240.881 177.45C264.211 193.49 246.721 222.67 246.721 222.67L188.371 307.27C188.371 307.27 191.871 320.79 162.021 336.17C121.821 356.88 82.8408 326.43 82.8408 304.5C82.8408 282.57 109.201 275.44 100.841 262.05C87.5908 240.75 101.151 203.4 170.881 218.29Z" fill="black"/>
<path d="M169.801 218.06C169.801 218.06 158.881 232.25 174.371 259.06C174.99 259.694 175.773 260.144 176.633 260.359C177.493 260.575 178.396 260.547 179.241 260.28C179.241 260.28 165.711 231.74 174.241 214.39L169.801 218.06Z" fill="white"/>
<path d="M198.881 388.25L217.881 339.25C217.881 339.25 254.881 356.25 251.881 301.25C251.881 301.25 268.881 296.25 258.881 276.25C248.881 256.25 250.881 241.25 249.881 232.25C248.881 223.25 238.881 212.25 238.881 212.25C238.881 212.25 214.881 214.25 214.881 228.25C214.881 228.25 228.881 259.25 202.881 265.25C202.881 265.25 186.881 250.25 173.881 258.25C160.881 266.25 162.881 284.25 170.881 289.25C178.881 294.25 189.381 295.75 189.381 295.75C189.381 295.75 190.381 312.75 172.381 319.75L156.381 368.75L198.881 388.25Z" fill="white"/>
<path d="M238.061 214.35C240.241 216.92 247.121 225.5 247.891 232.47C248.101 234.32 248.171 236.47 248.261 238.89C248.581 248.23 249.031 261.02 257.091 277.14C260.161 283.28 260.831 288.43 259.091 292.47C256.891 297.59 251.361 299.32 251.321 299.33C250.892 299.455 250.517 299.719 250.256 300.082C249.995 300.444 249.863 300.884 249.881 301.33C250.761 317.33 248.301 328.5 242.571 334.55C240.923 336.259 238.933 337.602 236.731 338.489C234.528 339.377 232.164 339.789 229.791 339.7C225.985 339.64 222.226 338.859 218.711 337.4C218.461 337.293 218.193 337.237 217.921 337.237C217.649 337.237 217.38 337.293 217.131 337.4C216.876 337.499 216.646 337.651 216.455 337.846C216.263 338.041 216.115 338.274 216.021 338.53L197.781 385.53L158.781 367.66L173.941 321.24C179.081 319.212 183.49 315.682 186.592 311.11C189.695 306.537 191.346 301.135 191.331 295.61C191.303 295.149 191.116 294.712 190.803 294.373C190.489 294.034 190.068 293.814 189.611 293.75C189.511 293.75 179.421 292.24 171.891 287.53C168.621 285.53 166.431 280.53 166.451 275.23C166.405 272.167 167.158 269.145 168.636 266.462C170.115 263.779 172.267 261.527 174.881 259.93C177.1 258.568 179.657 257.858 182.261 257.88C191.921 257.88 201.371 266.6 201.461 266.69C201.832 267.038 202.322 267.231 202.831 267.23C202.98 267.245 203.131 267.245 203.281 267.23C210.501 265.56 215.541 261.92 218.281 256.4C223.741 245.4 218.001 230.63 216.841 227.88C217.261 217.69 233.761 214.88 238.011 214.38L238.061 214.35ZM238.831 212.28C238.831 212.28 214.831 214.28 214.831 228.28C214.831 228.28 228.831 259.28 202.831 265.28C202.831 265.28 192.831 255.93 182.261 255.93C179.286 255.907 176.365 256.722 173.831 258.28C160.831 266.28 162.831 284.28 170.831 289.28C178.831 294.28 189.331 295.78 189.331 295.78C189.331 295.78 190.331 312.78 172.331 319.78L156.331 368.78L198.831 388.28L217.831 339.28C221.604 340.866 225.648 341.708 229.741 341.76C240.261 341.76 253.681 335.27 251.831 301.28C251.831 301.28 268.831 296.28 258.831 276.28C248.831 256.28 250.831 241.28 249.831 232.28C248.831 223.28 238.831 212.28 238.831 212.28Z" fill="black"/>
<path d="M198.881 279.75C198.881 279.75 190.881 260.22 174.881 269.98L198.881 279.75Z" fill="white"/>
<path d="M198.881 280.75C198.682 280.751 198.487 280.693 198.321 280.582C198.155 280.472 198.026 280.314 197.951 280.13C197.951 280.04 194.191 271.13 187.061 268.81C183.461 267.64 179.551 268.32 175.431 270.81C175.319 270.879 175.194 270.926 175.064 270.947C174.934 270.968 174.801 270.963 174.672 270.932C174.544 270.901 174.423 270.846 174.316 270.768C174.21 270.691 174.12 270.593 174.051 270.48C173.982 270.368 173.935 270.243 173.914 270.113C173.893 269.983 173.898 269.85 173.929 269.721C173.959 269.593 174.015 269.472 174.093 269.365C174.17 269.259 174.268 269.169 174.381 269.1C179.031 266.26 183.511 265.51 187.691 266.88C195.691 269.51 199.691 278.94 199.801 279.34C199.9 279.585 199.898 279.86 199.794 280.104C199.691 280.347 199.496 280.54 199.251 280.64C199.138 280.705 199.011 280.743 198.881 280.75Z" fill="black"/>
<path d="M181.111 276.2C181.111 276.2 183.451 268.99 192.931 271.26L181.111 276.2Z" fill="white"/>
<path d="M181.111 277.2C181.006 277.198 180.901 277.181 180.801 277.15C180.549 277.068 180.34 276.889 180.22 276.652C180.1 276.416 180.079 276.142 180.161 275.89C180.161 275.81 182.911 267.83 193.161 270.29C193.289 270.321 193.41 270.376 193.517 270.454C193.623 270.531 193.714 270.629 193.783 270.741C193.851 270.854 193.897 270.979 193.918 271.109C193.938 271.239 193.932 271.372 193.901 271.5C193.837 271.757 193.674 271.979 193.447 272.115C193.22 272.252 192.948 272.293 192.691 272.23C184.261 270.23 182.141 276.23 182.051 276.51C181.986 276.709 181.861 276.882 181.692 277.006C181.523 277.13 181.32 277.198 181.111 277.2Z" fill="black"/>
<path d="M238.381 249.75C237.905 249.751 237.444 249.583 237.081 249.275C236.718 248.966 236.477 248.539 236.401 248.069C236.325 247.599 236.419 247.117 236.667 246.71C236.914 246.304 237.299 245.999 237.751 245.85L243.751 243.85C244.255 243.683 244.804 243.723 245.279 243.961C245.753 244.199 246.114 244.616 246.281 245.12C246.448 245.624 246.408 246.174 246.17 246.648C245.932 247.122 245.515 247.483 245.011 247.65L239.011 249.65C238.808 249.717 238.595 249.751 238.381 249.75Z" fill="black"/>
<path d="M238.381 312.75C238.381 312.75 229.381 314.75 228.381 304.75L238.381 312.75Z" fill="white"/>
<path d="M236.571 313.91C234.618 313.954 232.702 313.384 231.091 312.28C228.971 310.74 227.721 308.28 227.381 304.85C227.368 304.719 227.381 304.586 227.419 304.46C227.457 304.333 227.519 304.216 227.603 304.114C227.687 304.011 227.789 303.927 227.906 303.864C228.022 303.802 228.15 303.763 228.281 303.75C228.412 303.737 228.545 303.75 228.671 303.788C228.797 303.826 228.915 303.889 229.017 303.972C229.119 304.056 229.204 304.159 229.266 304.275C229.329 304.391 229.368 304.519 229.381 304.65C229.651 307.44 230.621 309.46 232.251 310.65C234.012 311.758 236.127 312.158 238.171 311.77C238.436 311.713 238.713 311.764 238.941 311.911C239.169 312.058 239.329 312.29 239.386 312.555C239.443 312.82 239.392 313.097 239.245 313.325C239.098 313.553 238.866 313.713 238.601 313.77C237.93 313.878 237.25 313.925 236.571 313.91Z" fill="black"/>
<path d="M199.381 295.75H189.381C189.116 295.75 188.861 295.645 188.674 295.457C188.486 295.27 188.381 295.015 188.381 294.75C188.381 294.485 188.486 294.23 188.674 294.043C188.861 293.855 189.116 293.75 189.381 293.75H199.381C199.646 293.75 199.9 293.855 200.088 294.043C200.276 294.23 200.381 294.485 200.381 294.75C200.381 295.015 200.276 295.27 200.088 295.457C199.9 295.645 199.646 295.75 199.381 295.75Z" fill="black"/>
<path d="M269.381 470.75C272.381 466.75 278.381 456.75 292.381 459.75C296.195 460.408 299.668 462.356 302.216 465.269C304.765 468.182 306.235 471.882 306.381 475.75L269.381 470.75Z" fill="white"/>
<path d="M287.421 459.2V461.2C288.948 461.209 290.47 461.38 291.961 461.71C300.841 463.61 303.371 469.94 304.091 473.42L273.001 469.22C275.751 465.64 280.061 461.22 287.421 461.22V459.22V459.2ZM287.421 459.22C276.901 459.22 272.001 467.28 269.421 470.77L306.421 475.77C306.275 471.902 304.805 468.202 302.256 465.289C299.707 462.376 296.235 460.428 292.421 459.77C290.778 459.41 289.102 459.226 287.421 459.22Z" fill="black"/>
<path d="M323.381 512.75C323.381 512.75 320.381 480.75 291.381 479.75C262.381 478.75 251.381 500.75 248.381 512.75H323.381Z" fill="black"/>
<path d="M299.381 486.75H297.381V508.75H299.381V486.75Z" fill="white"/>
<path d="M313.381 484.75C316.381 481.75 307.381 470.75 295.381 467.75C283.381 464.75 256.381 467.75 238.381 479.75C220.381 491.75 252.381 494.75 263.381 499.75C274.381 504.75 294.381 510.75 284.381 501.75C274.381 492.75 260.381 488.75 271.381 479.75C282.381 470.75 298.621 477.48 305.001 483.12C311.381 488.76 313.381 484.75 313.381 484.75Z" fill="white"/>
<path d="M284.691 468.67C288.118 468.601 291.542 468.937 294.891 469.67C303.261 471.76 309.591 477.81 311.421 481.43C311.772 481.999 311.962 482.652 311.971 483.32C311.809 483.444 311.684 483.61 311.611 483.8C311.511 483.905 311.39 483.987 311.255 484.041C311.12 484.094 310.975 484.118 310.831 484.11C310.211 484.11 308.831 483.78 306.331 481.6C300.121 476.475 292.379 473.569 284.331 473.34C279.174 473.226 274.144 474.941 270.131 478.18C266.841 480.88 265.281 483.48 265.381 486.18C265.551 490.52 270.031 493.66 275.231 497.29C277.963 499.125 280.578 501.129 283.061 503.29C283.551 503.73 283.931 504.09 284.211 504.4C279.821 504.01 270.651 500.9 264.211 497.98C260.431 496.466 256.547 495.223 252.591 494.26C245.791 492.39 235.511 489.57 235.011 486.51C234.821 485.34 236.501 483.51 239.491 481.51C253.601 472.11 272.661 468.77 284.691 468.77V468.67ZM284.691 466.77C271.131 466.77 252.131 470.68 238.381 479.85C220.381 491.85 252.381 494.85 263.381 499.85C270.261 502.98 280.651 506.49 285.031 506.49C287.661 506.49 288.131 505.23 284.381 501.85C274.381 492.85 260.381 488.85 271.381 479.85C275.042 476.915 279.619 475.361 284.311 475.46C291.879 475.671 299.161 478.402 305.001 483.22C307.641 485.54 309.531 486.22 310.831 486.22C311.341 486.241 311.847 486.124 312.296 485.881C312.745 485.638 313.12 485.279 313.381 484.84C316.381 481.84 307.381 470.84 295.381 467.84C291.873 467.058 288.284 466.696 284.691 466.76V466.77Z" fill="black"/>
<path d="M69.3809 575.75C69.3809 575.75 87.3809 431.75 118.381 394.75C149.381 357.75 191.381 354.75 214.381 406.75C237.381 458.75 278.381 555.75 278.381 555.75C278.381 555.75 337.381 550.75 360.381 533.75C383.381 516.75 394.381 511.75 390.381 523.75C390.381 523.75 407.381 515.75 415.381 516.75C423.381 517.75 430.381 523.75 420.381 525.75C410.381 527.75 401.381 529.75 398.381 536.75C398.381 536.75 425.381 520.75 434.381 532.75C434.381 532.75 443.381 534.75 441.381 540.75C441.381 540.75 455.381 549.75 452.381 555.75C449.381 561.75 440.381 548.75 435.381 551.75C430.381 554.75 409.381 566.75 396.381 572.75C383.381 578.75 276.381 621.75 255.381 619.75C234.381 617.75 221.381 596.75 211.381 573.75L209.381 598.75" fill="white"/>
<path d="M256.881 620.81C256.311 620.81 255.781 620.81 255.301 620.75C233.901 618.75 220.971 597.4 212.071 577.75L210.391 598.82C210.37 599.085 210.244 599.331 210.041 599.504C209.839 599.676 209.576 599.761 209.311 599.74C209.046 599.719 208.8 599.593 208.627 599.391C208.455 599.188 208.37 598.925 208.391 598.66L210.391 573.66C210.406 573.435 210.496 573.222 210.648 573.055C210.799 572.888 211.002 572.777 211.224 572.74C211.446 572.703 211.675 572.742 211.872 572.851C212.069 572.96 212.224 573.132 212.311 573.34C221.031 593.4 233.811 616.68 255.481 618.74C276.481 620.74 384.391 577.18 395.971 571.83C409.121 565.77 430.111 553.74 434.881 550.88C437.771 549.15 441.401 551.54 444.611 553.65C446.741 555.05 449.171 556.65 450.471 556.29C450.731 556.22 451.121 556.04 451.471 555.29C453.601 551.03 444.471 543.95 440.821 541.58C440.633 541.46 440.491 541.281 440.416 541.071C440.342 540.86 440.34 540.631 440.411 540.42C440.599 539.935 440.678 539.415 440.641 538.896C440.605 538.378 440.455 537.874 440.201 537.42C438.731 534.8 434.201 533.76 434.141 533.75C433.908 533.697 433.703 533.562 433.561 533.37C425.201 522.23 399.131 537.48 398.871 537.63C398.69 537.737 398.479 537.784 398.27 537.765C398.06 537.746 397.862 537.66 397.704 537.522C397.545 537.384 397.435 537.199 397.388 536.994C397.34 536.788 397.359 536.574 397.441 536.38C400.741 528.67 410.621 526.7 420.161 524.79C423.251 524.17 424.321 523.22 424.301 522.53C424.241 521.06 420.421 518.41 415.241 517.76C407.611 516.76 390.951 524.6 390.791 524.67C390.614 524.755 390.415 524.786 390.221 524.759C390.026 524.731 389.844 524.648 389.697 524.517C389.549 524.387 389.444 524.217 389.393 524.027C389.342 523.837 389.348 523.636 389.411 523.45C390.681 519.64 390.041 518.66 389.711 518.45C388.121 517.31 381.851 519.17 360.951 534.61C337.951 551.61 280.861 556.61 278.441 556.81C278.231 556.826 278.022 556.776 277.842 556.667C277.663 556.557 277.522 556.394 277.441 556.2C277.031 555.2 236.181 458.61 213.441 407.2C203.361 384.42 189.101 371.11 172.191 368.72C154.761 366.25 135.411 376 119.121 395.44C88.6608 431.79 70.5208 574.44 70.3408 575.92C70.309 576.185 70.1731 576.427 69.9631 576.592C69.7531 576.757 69.486 576.832 69.2208 576.8C68.9556 576.768 68.714 576.632 68.5489 576.422C68.3839 576.212 68.309 575.945 68.3408 575.68C69.0708 569.78 86.7309 430.96 117.561 394.16C134.311 374.16 154.321 364.16 172.451 366.74C190.081 369.23 204.871 382.95 215.241 406.4C236.981 455.54 275.241 546.01 278.971 554.74C285.771 554.09 338.591 548.63 359.741 533C382.991 515.81 388.431 515.07 390.851 516.83C392.091 517.72 392.431 519.43 391.851 522.01C396.621 519.92 408.851 515.01 415.431 515.81C420.561 516.45 426.131 519.28 426.251 522.48C426.251 523.91 425.351 525.81 420.511 526.78C411.811 528.52 405.031 530.16 401.331 534.02C409.061 530.09 427.251 522.35 434.891 531.91C436.141 532.25 440.241 533.54 441.891 536.46C442.566 537.641 442.773 539.033 442.471 540.36C445.471 542.36 456.231 550.19 453.201 556.25C452.989 556.731 452.674 557.16 452.279 557.505C451.883 557.851 451.416 558.105 450.911 558.25C448.741 558.84 446.161 557.14 443.431 555.35C440.701 553.56 437.641 551.54 435.821 552.63C431.041 555.5 409.951 567.63 396.731 573.68C385.431 578.91 281.531 620.81 256.881 620.81Z" fill="black"/>
<path d="M211.381 574.75C211.183 574.749 210.991 574.689 210.827 574.579C210.663 574.469 210.536 574.313 210.461 574.13L167.461 470.13C167.388 469.892 167.407 469.636 167.513 469.411C167.62 469.186 167.806 469.009 168.036 468.914C168.266 468.819 168.522 468.814 168.756 468.898C168.99 468.982 169.184 469.15 169.301 469.37L212.301 573.37C212.4 573.614 212.4 573.888 212.298 574.131C212.197 574.374 212.004 574.568 211.761 574.67C211.642 574.726 211.512 574.753 211.381 574.75Z" fill="black"/>
<path d="M251.931 493.55C251.931 493.55 232.381 515.75 189.381 516.75L251.931 493.55Z" fill="white"/>
<path d="M189.381 517.75C189.116 517.75 188.861 517.645 188.674 517.457C188.486 517.27 188.381 517.015 188.381 516.75C188.381 516.485 188.486 516.23 188.674 516.043C188.861 515.855 189.116 515.75 189.381 515.75C231.381 514.75 251.011 493.11 251.201 492.89C251.376 492.691 251.623 492.57 251.887 492.553C252.152 492.536 252.412 492.625 252.611 492.8C252.81 492.975 252.931 493.222 252.948 493.486C252.964 493.751 252.876 494.011 252.701 494.21C252.501 494.44 232.361 516.75 189.421 517.75H189.381Z" fill="black"/>
<path d="M375.381 535.75C375.169 535.751 374.963 535.684 374.791 535.56C374.62 535.436 374.492 535.261 374.427 535.06C374.361 534.859 374.361 534.642 374.426 534.441C374.492 534.239 374.619 534.064 374.791 533.94L389.791 522.94C389.897 522.863 390.018 522.807 390.146 522.776C390.274 522.745 390.406 522.74 390.536 522.76C390.666 522.78 390.791 522.826 390.903 522.895C391.016 522.964 391.113 523.054 391.191 523.16C391.268 523.266 391.324 523.387 391.355 523.515C391.386 523.643 391.391 523.776 391.371 523.906C391.35 524.036 391.305 524.16 391.236 524.273C391.167 524.385 391.077 524.483 390.971 524.56L375.971 535.56C375.799 535.684 375.593 535.751 375.381 535.75Z" fill="black"/>
<path d="M408.381 542.75C408.381 542.75 415.381 533.75 434.381 532.75L408.381 542.75Z" fill="white"/>
<path d="M408.381 543.75C408.16 543.749 407.945 543.676 407.771 543.54C407.562 543.378 407.425 543.14 407.392 542.877C407.358 542.615 407.43 542.35 407.591 542.14C407.891 541.75 415.091 532.76 434.331 531.75C434.462 531.743 434.594 531.763 434.717 531.807C434.841 531.851 434.955 531.919 435.053 532.008C435.15 532.096 435.229 532.202 435.286 532.321C435.342 532.44 435.374 532.569 435.381 532.7C435.387 532.831 435.368 532.963 435.324 533.087C435.28 533.21 435.212 533.324 435.123 533.422C435.035 533.519 434.928 533.598 434.81 533.655C434.691 533.711 434.562 533.743 434.431 533.75C416.101 534.75 409.241 543.28 409.171 543.36C409.078 543.481 408.958 543.579 408.821 543.647C408.684 543.714 408.534 543.75 408.381 543.75Z" fill="black"/>
<path d="M423.381 545.75C423.381 545.75 432.381 537.75 441.381 540.75L423.381 545.75Z" fill="white"/>
<path d="M423.381 546.75C423.239 546.75 423.099 546.719 422.969 546.661C422.84 546.602 422.725 546.517 422.631 546.41C422.456 546.211 422.367 545.951 422.384 545.686C422.401 545.422 422.522 545.175 422.721 545C423.101 544.66 432.261 536.65 441.721 539.8C441.973 539.885 442.181 540.066 442.299 540.305C442.417 540.543 442.436 540.818 442.351 541.07C442.266 541.322 442.084 541.53 441.846 541.648C441.608 541.766 441.333 541.785 441.081 541.7C432.751 538.92 424.151 546.42 424.081 546.5C423.888 546.67 423.638 546.76 423.381 546.75Z" fill="black"/>
<path d="M244.381 266.25C245.762 266.25 246.881 264.759 246.881 262.92C246.881 261.081 245.762 259.59 244.381 259.59C243 259.59 241.881 261.081 241.881 262.92C241.881 264.759 243 266.25 244.381 266.25Z" fill="black"/>
<path d="M192.881 509.68C190.158 509.709 187.435 509.562 184.731 509.24C184.599 509.222 184.473 509.178 184.359 509.11C184.245 509.043 184.145 508.954 184.065 508.848C183.985 508.742 183.927 508.622 183.893 508.493C183.86 508.365 183.852 508.231 183.871 508.1C183.889 507.969 183.933 507.842 184.001 507.728C184.068 507.614 184.157 507.514 184.263 507.434C184.369 507.354 184.489 507.296 184.618 507.263C184.746 507.229 184.88 507.222 185.011 507.24C185.391 507.3 222.771 512.39 246.121 485.85C246.299 485.664 246.543 485.554 246.8 485.544C247.058 485.533 247.309 485.622 247.503 485.792C247.696 485.962 247.816 486.201 247.838 486.457C247.86 486.714 247.782 486.969 247.621 487.17C230.311 506.88 205.551 509.68 192.881 509.68Z" fill="black"/>
<path d="M277.881 445.25C277.65 445.256 277.424 445.181 277.241 445.039C277.059 444.897 276.932 444.696 276.881 444.47L272.881 426.47C272.852 426.339 272.849 426.203 272.873 426.071C272.896 425.938 272.946 425.812 273.018 425.698C273.091 425.585 273.185 425.487 273.295 425.41C273.405 425.333 273.53 425.279 273.661 425.25C273.792 425.221 273.928 425.218 274.06 425.242C274.193 425.265 274.319 425.315 274.432 425.387C274.546 425.46 274.644 425.554 274.721 425.664C274.798 425.774 274.852 425.899 274.881 426.03L278.881 444.03C278.91 444.159 278.914 444.292 278.892 444.422C278.869 444.552 278.822 444.677 278.751 444.788C278.68 444.9 278.588 444.996 278.48 445.072C278.372 445.148 278.25 445.202 278.121 445.23L277.881 445.25Z" fill="black"/>
<path d="M293.881 441.25C293.805 441.26 293.727 441.26 293.651 441.25C293.394 441.188 293.172 441.027 293.033 440.803C292.895 440.578 292.851 440.307 292.911 440.05L296.911 423.05C296.932 422.914 296.981 422.783 297.055 422.667C297.129 422.55 297.227 422.451 297.341 422.374C297.456 422.297 297.585 422.244 297.72 422.219C297.856 422.195 297.996 422.199 298.13 422.23C298.264 422.262 298.39 422.321 298.5 422.404C298.611 422.487 298.703 422.592 298.77 422.712C298.838 422.833 298.88 422.966 298.894 423.103C298.908 423.24 298.893 423.379 298.851 423.51L294.851 440.51C294.793 440.723 294.667 440.911 294.492 441.045C294.316 441.179 294.102 441.251 293.881 441.25Z" fill="black"/>
<path d="M281.381 565.75C281.163 565.761 280.947 565.701 280.766 565.578C280.586 565.455 280.45 565.277 280.381 565.07L277.381 556.07C277.296 555.818 277.315 555.543 277.433 555.305C277.551 555.066 277.759 554.885 278.011 554.8C278.263 554.715 278.538 554.734 278.776 554.852C279.014 554.97 279.196 555.178 279.281 555.43L282.281 564.43C282.323 564.555 282.34 564.687 282.332 564.818C282.323 564.95 282.288 565.078 282.23 565.196C282.171 565.314 282.09 565.419 281.991 565.506C281.891 565.592 281.776 565.658 281.651 565.7C281.563 565.726 281.472 565.743 281.381 565.75Z" fill="black"/>
<path d="M48.7888 173.658L47 174.553L55.9995 192.548L57.7883 191.653L48.7888 173.658Z" fill="#CB93EE"/>
<path d="M462.881 136.25H422.881V138.25H462.881V136.25Z" fill="#CB93EE"/>
<path d="M622.381 202.25C620.781 202.35 619.188 201.967 617.808 201.152C616.429 200.336 615.326 199.124 614.643 197.674C613.96 196.224 613.729 194.602 613.979 193.018C614.229 191.435 614.948 189.963 616.045 188.794C617.141 187.625 618.563 186.812 620.127 186.46C621.691 186.109 623.324 186.235 624.815 186.823C626.307 187.411 627.587 188.434 628.49 189.758C629.393 191.082 629.878 192.647 629.881 194.25C629.943 196.304 629.189 198.299 627.783 199.799C626.377 201.298 624.435 202.18 622.381 202.25ZM622.381 188.25C621.178 188.149 619.972 188.414 618.922 189.009C617.872 189.604 617.026 190.503 616.494 191.586C615.963 192.67 615.77 193.889 615.942 195.084C616.114 196.278 616.642 197.394 617.458 198.283C618.274 199.173 619.339 199.796 620.514 200.071C621.689 200.346 622.921 200.26 624.046 199.825C625.172 199.389 626.14 198.624 626.824 197.629C627.509 196.635 627.877 195.457 627.881 194.25C627.943 192.726 627.4 191.239 626.369 190.115C625.338 188.991 623.904 188.32 622.381 188.25Z" fill="#CB93EE"/>
<path d="M552.381 103.17L536.251 99.17L552.381 79V103.17ZM541.511 97.36L549.381 99.36V87.56L541.511 97.36Z" fill="#47CEC0"/>
</svg>
