<svg width="700" height="700" viewBox="0 0 700 700" fill="none" xmlns="http://www.w3.org/2000/svg">
<rect width="700" height="700" fill="white"/>
<path d="M190.018 196.023C187.693 194.186 184.91 193.02 181.971 192.65C179.031 192.28 176.046 192.72 173.338 193.923C172.656 191.747 171.436 189.78 169.79 188.201C168.144 186.623 166.127 185.487 163.925 184.896C161.723 184.306 159.407 184.281 157.193 184.824C154.978 185.367 152.937 186.461 151.258 188.003C148.745 184.963 145.481 182.633 141.79 181.243C138.099 179.853 134.109 179.451 130.214 180.078C126.32 180.704 122.658 182.337 119.589 184.815C116.52 187.292 114.151 190.528 112.718 194.203C109.96 192.842 106.873 192.291 103.815 192.613C100.756 192.935 97.852 194.118 95.4381 196.023C94.2813 196.956 93.4423 198.224 93.0368 199.653C92.6312 201.083 92.6791 202.603 93.174 204.004C93.6688 205.405 94.5861 206.618 95.7994 207.476C97.0128 208.334 98.4623 208.794 99.9481 208.793H185.508C192.288 208.793 195.348 200.213 190.018 196.023Z" fill="#47CEC0"/>
<path d="M466.138 186.583H593.018C603.018 186.583 607.588 173.873 599.708 167.643C596.257 164.923 592.13 163.196 587.77 162.65C583.41 162.104 578.983 162.758 574.968 164.543C573.956 161.318 572.146 158.4 569.706 156.06C567.266 153.72 564.275 152.035 561.01 151.159C557.745 150.284 554.312 150.247 551.028 151.051C547.745 151.856 544.718 153.477 542.228 155.763C538.503 151.255 533.664 147.798 528.192 145.736C522.719 143.673 516.802 143.077 511.028 144.006C505.254 144.934 499.823 147.356 495.273 151.03C490.723 154.704 487.212 159.504 485.088 164.953C480.998 162.937 476.42 162.119 471.885 162.596C467.349 163.072 463.041 164.821 459.458 167.643C451.558 173.873 456.088 186.583 466.138 186.583Z" fill="#47CEC0"/>
<path d="M393.738 122.683C388.616 118.646 382.49 116.084 376.019 115.272C369.549 114.459 362.979 115.428 357.018 118.073C355.515 113.288 352.827 108.961 349.205 105.492C345.583 102.022 341.144 99.5237 336.3 98.2272C331.455 96.9308 326.361 96.8784 321.49 98.0751C316.62 99.2719 312.131 101.679 308.438 105.073C302.908 98.3837 295.726 93.2555 287.604 90.1965C279.482 87.1375 270.701 86.2537 262.133 87.633C253.564 89.0123 245.504 92.6067 238.752 98.06C232 103.513 226.79 110.636 223.638 118.723C223.638 118.723 213.418 148.103 249.268 150.823H383.798C398.708 150.793 405.428 131.923 393.738 122.683Z" fill="#47CEC0"/>
<path d="M187.348 298.463L68.4482 516.053L178.358 562.513L298.428 590.373L388.888 373.173L296.398 325.533L187.348 298.463Z" fill="#FCE054"/>
<path d="M321.348 340.663C321.348 340.663 326.048 314.663 330.658 317.483C335.268 320.303 368.268 324.963 378.658 337.683C389.048 350.403 388.298 373.593 388.298 373.593L367.398 365.083C367.398 365.083 371.468 346.503 366.198 341.573C360.928 336.643 341.118 329.853 341.118 329.853L338.228 347.413L321.348 340.663Z" fill="#FCE054"/>
<path d="M181.408 567.043C181.187 567.046 180.968 566.998 180.768 566.903C180.409 566.732 180.132 566.426 179.997 566.051C179.862 565.676 179.88 565.264 180.048 564.903L293.288 324.453C293.458 324.092 293.764 323.814 294.139 323.679C294.514 323.544 294.928 323.563 295.288 323.733C295.649 323.903 295.927 324.209 296.062 324.584C296.197 324.959 296.178 325.372 296.008 325.733L182.768 566.183C182.646 566.44 182.453 566.657 182.212 566.809C181.972 566.961 181.693 567.042 181.408 567.043Z" fill="white"/>
<path d="M142.318 348.803C141.95 348.799 141.596 348.664 141.318 348.423C141.172 348.29 141.054 348.131 140.97 347.952C140.886 347.774 140.838 347.581 140.829 347.384C140.82 347.187 140.849 346.99 140.916 346.805C140.983 346.619 141.085 346.449 141.218 346.303L185.828 296.883C186.1 296.612 186.465 296.455 186.848 296.445C187.232 296.435 187.604 296.572 187.89 296.828C188.175 297.084 188.352 297.44 188.383 297.822C188.415 298.204 188.298 298.584 188.058 298.883L143.428 348.293C143.289 348.451 143.119 348.578 142.927 348.666C142.736 348.754 142.529 348.801 142.318 348.803Z" fill="#FCE054"/>
<path d="M415.188 480.373C477.468 560.463 500.008 609.073 542.928 560.163C585.848 511.253 615.758 453.353 642.828 414.363C669.898 375.373 671.088 366.363 666.148 365.583C657.458 364.153 638.148 395.213 638.148 395.213C638.148 395.213 661.908 350.933 653.318 348.963C644.728 346.993 626.248 387.963 626.248 387.963C626.248 387.963 646.708 338.403 638.118 336.423C629.528 334.443 614.358 380.693 614.358 380.693C614.358 380.693 634.818 331.143 626.228 329.163C617.638 327.183 595.228 385.333 595.228 385.333C595.228 385.333 600.228 346.433 594.558 348.993C581.768 354.763 541.098 463.313 523.268 481.813L447.718 399.593" fill="white"/>
<path d="M510.728 580.763H509.728C488.728 579.943 469.219 553.813 439.639 514.253C432.139 504.253 423.638 492.843 414.428 481.003C414.348 480.899 414.288 480.78 414.253 480.654C414.218 480.527 414.209 480.395 414.225 480.264C414.241 480.134 414.283 480.008 414.348 479.893C414.413 479.779 414.5 479.679 414.603 479.598C414.707 479.517 414.826 479.458 414.952 479.423C415.079 479.388 415.212 479.378 415.342 479.394C415.473 479.411 415.599 479.453 415.713 479.517C415.827 479.582 415.928 479.669 416.008 479.773C425.228 491.633 433.738 503.013 441.238 513.053C470.478 552.153 489.788 577.983 509.808 578.763C520.028 579.153 530.338 573.053 542.208 559.523C571.208 526.523 594.208 489.413 614.498 456.693C624.148 441.143 633.268 426.453 642.038 413.813C665.038 380.653 668.458 370.293 667.258 367.453C667.153 367.207 666.981 366.997 666.762 366.845C666.543 366.693 666.285 366.605 666.018 366.593C659.418 365.543 644.338 387.283 639.078 395.753C638.94 395.97 638.723 396.126 638.473 396.188C638.222 396.249 637.957 396.211 637.734 396.082C637.511 395.953 637.346 395.743 637.274 395.495C637.202 395.247 637.229 394.981 637.348 394.753C645.348 379.893 656.348 355.873 653.968 350.653C653.906 350.479 653.801 350.324 653.663 350.202C653.525 350.079 653.358 349.994 653.178 349.953C647.538 348.653 634.258 372.833 627.248 388.383C627.139 388.621 626.941 388.808 626.696 388.901C626.451 388.995 626.179 388.988 625.938 388.883C625.697 388.779 625.506 388.585 625.407 388.341C625.308 388.098 625.308 387.826 625.408 387.583C630.218 375.933 641.998 344.343 638.788 338.123C638.719 337.949 638.609 337.794 638.468 337.671C638.328 337.548 638.16 337.459 637.978 337.413C634.538 336.613 628.658 347.263 623.268 359.983C619.878 370.043 616.178 379.103 615.358 381.093C615.255 381.327 615.067 381.512 614.832 381.611C614.596 381.71 614.332 381.715 614.093 381.626C613.854 381.536 613.658 381.359 613.546 381.13C613.433 380.9 613.413 380.637 613.488 380.393C614.588 377.043 617.648 367.993 621.488 358.893C625.488 346.893 628.778 334.513 626.898 330.893C626.828 330.717 626.718 330.559 626.575 330.434C626.433 330.309 626.262 330.219 626.078 330.173C620.758 328.953 605.398 361.923 596.218 385.733C596.135 385.967 595.967 386.163 595.747 386.28C595.527 386.397 595.272 386.428 595.03 386.366C594.789 386.305 594.579 386.156 594.442 385.948C594.305 385.74 594.25 385.489 594.288 385.243C596.628 367.093 596.988 350.943 595.098 349.913H595.018C588.818 352.713 574.588 383.403 560.818 413.083C547.048 442.763 532.838 473.293 524.018 482.493C523.923 482.593 523.808 482.672 523.681 482.725C523.553 482.779 523.416 482.805 523.278 482.803C523.143 482.801 523.009 482.772 522.886 482.717C522.762 482.662 522.651 482.582 522.558 482.483L447.018 400.293C446.859 400.095 446.781 399.844 446.8 399.591C446.819 399.337 446.933 399.101 447.12 398.929C447.308 398.757 447.553 398.663 447.807 398.665C448.061 398.668 448.305 398.767 448.488 398.943L523.308 480.363C531.958 470.553 545.698 440.933 558.998 412.263C574.188 379.503 587.308 351.263 594.188 348.113C594.519 347.946 594.89 347.875 595.259 347.907C595.628 347.939 595.981 348.072 596.278 348.293C599.428 350.633 598.279 367.083 597.139 378.003C599.419 372.403 602.878 364.193 606.658 356.113C618.948 329.833 623.888 327.613 626.518 328.213C626.982 328.328 627.415 328.545 627.785 328.847C628.155 329.15 628.453 329.531 628.658 329.963C630.108 332.783 629.198 339.203 627.308 346.593C631.088 339.663 635.038 334.713 638.418 335.483C638.882 335.594 639.316 335.808 639.686 336.11C640.057 336.411 640.355 336.791 640.558 337.223C643.008 341.983 638.708 357.053 634.328 369.683C640.478 358.503 648.329 346.803 653.618 348.023C654.096 348.135 654.541 348.358 654.916 348.674C655.291 348.991 655.587 349.391 655.778 349.843C658.018 354.793 651.538 370.373 645.968 382.093C652.408 373.433 660.968 363.733 666.338 364.643C666.938 364.707 667.51 364.931 667.994 365.292C668.477 365.652 668.856 366.136 669.088 366.693C670.518 370.063 668.918 378.603 643.668 414.973C634.928 427.573 625.828 442.243 616.188 457.773C595.848 490.563 572.788 527.723 543.698 560.863C531.768 574.403 521.268 580.763 510.728 580.763Z" fill="black"/>
<path d="M203.948 603.203C203.948 603.203 320.488 356.853 366.858 364.483C413.228 372.113 478.708 393.023 457.158 462.483C435.608 531.943 400.018 612.793 400.018 612.793" fill="white"/>
<path d="M400.018 613.793C399.881 613.791 399.746 613.763 399.618 613.713C399.497 613.661 399.388 613.585 399.296 613.491C399.204 613.396 399.132 613.284 399.084 613.161C399.035 613.039 399.012 612.908 399.014 612.776C399.017 612.644 399.045 612.514 399.098 612.393C399.458 611.583 434.908 530.723 456.198 462.143C462.808 440.863 461.548 422.603 452.458 407.873C439.548 386.973 410.688 372.713 366.698 365.473C366.01 365.361 365.315 365.304 364.618 365.303C318.138 365.303 205.998 601.213 204.848 603.633C204.736 603.873 204.532 604.059 204.283 604.149C204.033 604.239 203.758 604.226 203.518 604.113C203.398 604.057 203.29 603.978 203.201 603.88C203.112 603.783 203.043 603.668 202.998 603.543C202.954 603.419 202.934 603.286 202.941 603.154C202.948 603.022 202.981 602.892 203.038 602.773C207.738 592.853 316.878 363.313 364.748 363.313C365.509 363.31 366.268 363.374 367.018 363.503C411.608 370.833 440.928 385.413 454.158 406.823C463.568 422.063 464.898 440.823 458.158 462.743C436.838 531.423 401.338 612.383 400.988 613.193C400.907 613.38 400.77 613.538 400.597 613.645C400.424 613.752 400.222 613.804 400.018 613.793Z" fill="black"/>
<path d="M372.098 365.453C372.098 365.453 314.628 350.513 210.728 341.883C109.618 333.483 66.7281 332.663 73.6781 397.353C80.6281 462.043 100.538 491.143 110.908 537.453C121.278 583.763 125.108 597.173 132.378 592.193C139.648 587.213 128.138 547.013 128.138 547.013C128.138 547.013 144.628 594.483 151.898 589.503C159.168 584.523 141.538 543.183 141.538 543.183C141.538 543.183 164.158 591.793 171.428 586.803C178.698 581.813 154.938 539.343 154.938 539.343C154.938 539.343 177.548 587.953 184.828 582.973C192.108 577.993 164.498 522.113 164.498 522.113C164.498 522.113 185.568 545.063 191.688 546.213C197.808 547.363 151.288 434.003 152.688 408.713L311.448 436.443" fill="white"/>
<path d="M129.708 594.173C129.187 594.173 128.671 594.071 128.188 593.873C122.818 591.763 119.098 578.663 109.928 537.673C106.008 520.143 100.778 505.303 95.2583 489.593C86.2583 464.083 76.9982 437.713 72.6882 397.463C70.3582 375.763 73.5683 361.263 82.7783 351.823C101.318 332.823 143.508 335.303 210.778 340.883C313.578 349.423 371.778 364.343 372.318 364.493C372.452 364.52 372.579 364.574 372.691 364.651C372.804 364.729 372.899 364.829 372.971 364.944C373.043 365.06 373.091 365.19 373.111 365.325C373.132 365.459 373.124 365.597 373.089 365.729C373.054 365.861 372.993 365.985 372.909 366.092C372.824 366.199 372.719 366.288 372.599 366.353C372.479 366.418 372.347 366.458 372.211 366.47C372.075 366.482 371.938 366.466 371.808 366.423C371.238 366.273 313.218 351.423 210.618 342.883C143.898 337.343 102.098 334.883 84.1782 353.223C75.4182 362.223 72.3882 376.223 74.6482 397.223C78.9282 437.223 88.1684 463.503 97.1084 488.893C102.658 504.663 107.898 519.563 111.848 537.213C119.188 570.013 123.998 590.063 128.848 591.983C129.378 592.193 130.258 592.353 131.738 591.333C136.608 588.003 131.478 562.533 127.108 547.263C127.069 547.138 127.055 547.006 127.066 546.875C127.078 546.744 127.115 546.616 127.176 546.5C127.237 546.383 127.32 546.28 127.421 546.196C127.521 546.111 127.638 546.048 127.763 546.008C127.889 545.969 128.021 545.954 128.152 545.966C128.283 545.977 128.41 546.015 128.526 546.076C128.643 546.136 128.746 546.22 128.831 546.32C128.915 546.421 128.979 546.538 129.018 546.663C134.548 562.593 144.768 586.963 150.218 588.753C150.388 588.826 150.574 588.854 150.758 588.835C150.941 588.816 151.117 588.75 151.268 588.643C156.068 585.353 147.268 559.233 140.548 543.543C140.467 543.307 140.478 543.048 140.578 542.819C140.677 542.59 140.86 542.407 141.088 542.305C141.316 542.204 141.574 542.191 141.811 542.271C142.048 542.35 142.247 542.515 142.368 542.733C147.688 554.153 162.968 584.213 169.718 586.063C169.893 586.129 170.081 586.154 170.266 586.135C170.452 586.115 170.631 586.053 170.788 585.953C173.708 583.953 169.848 572.433 164.138 559.853C159.028 550.543 154.868 541.683 153.958 539.733C153.847 539.498 153.831 539.229 153.915 538.982C153.999 538.736 154.175 538.532 154.407 538.414C154.638 538.295 154.907 538.272 155.155 538.348C155.404 538.425 155.613 538.595 155.738 538.823C157.458 541.903 162.048 550.273 166.148 559.273C172.248 570.333 179.148 581.143 183.148 582.223C183.323 582.295 183.514 582.323 183.702 582.304C183.891 582.284 184.071 582.219 184.228 582.113C188.748 579.013 174.868 545.403 163.568 522.523C163.464 522.308 163.44 522.062 163.501 521.831C163.562 521.599 163.704 521.397 163.901 521.262C164.099 521.126 164.338 521.066 164.576 521.092C164.814 521.118 165.035 521.228 165.198 521.403C170.778 527.473 185.868 543.053 191.248 545.023C191.248 540.963 184.248 520.453 177.408 500.583C165.578 466.123 150.848 423.243 151.658 408.583C151.665 408.442 151.701 408.304 151.765 408.179C151.829 408.053 151.919 407.942 152.028 407.853C152.141 407.766 152.269 407.702 152.407 407.666C152.544 407.63 152.688 407.622 152.828 407.643L311.588 435.383C311.848 435.43 312.078 435.576 312.23 435.792C312.381 436.007 312.442 436.273 312.398 436.533C312.376 436.663 312.329 436.788 312.259 436.9C312.189 437.012 312.097 437.109 311.989 437.185C311.881 437.261 311.76 437.315 311.631 437.344C311.502 437.373 311.368 437.376 311.238 437.353L153.618 409.813C153.618 425.053 167.818 466.453 179.308 499.883C190.658 532.953 194.478 544.693 192.768 546.673C192.612 546.854 192.41 546.99 192.183 547.068C191.956 547.145 191.713 547.161 191.478 547.113C186.788 546.243 174.818 534.353 168.168 527.423C170.738 532.873 174.688 541.423 178.278 550.213C189.278 577.043 187.598 582.213 185.358 583.713C184.961 583.977 184.51 584.15 184.038 584.217C183.565 584.285 183.084 584.246 182.628 584.103C179.568 583.273 175.458 578.253 171.308 571.853C173.848 579.323 174.808 585.603 171.958 587.553C171.561 587.818 171.11 587.991 170.638 588.058C170.165 588.126 169.684 588.086 169.228 587.943C164.068 586.533 155.888 573.153 149.558 561.383C153.618 573.473 156.928 587.173 152.438 590.243C152.034 590.522 151.569 590.7 151.082 590.763C150.595 590.825 150.1 590.771 149.638 590.603C144.638 588.963 137.878 574.603 133.048 562.793C135.578 574.903 137.558 589.793 132.918 592.933C131.999 593.663 130.879 594.095 129.708 594.173Z" fill="black"/>
<path d="M596.728 424.093C596.728 424.093 603.588 400.903 595.008 385.303L596.728 424.093Z" fill="white"/>
<path d="M596.738 425.093C596.642 425.107 596.544 425.107 596.448 425.093C596.195 425.017 595.983 424.843 595.858 424.611C595.732 424.379 595.704 424.106 595.778 423.853C595.838 423.623 602.408 400.853 594.128 385.853C593.996 385.62 593.961 385.343 594.032 385.084C594.104 384.825 594.275 384.605 594.508 384.473C594.742 384.34 595.018 384.306 595.277 384.377C595.536 384.448 595.756 384.62 595.888 384.853C604.568 400.643 597.978 423.453 597.688 424.413C597.621 424.612 597.493 424.784 597.323 424.906C597.152 425.028 596.948 425.094 596.738 425.093Z" fill="black"/>
<path d="M446.428 240.483C446.428 240.483 472.258 234.783 466.958 213.993C461.658 193.203 439.478 199.523 429.598 206.603C429.598 206.603 417.438 182.203 396.458 188.703C375.478 195.203 378.738 213.173 378.738 213.173C378.738 213.173 348.218 194.463 335.538 211.043C322.858 227.623 330.148 243.753 330.148 243.753C330.148 243.753 298.588 306.923 403.778 310.623C490.388 313.673 446.428 240.483 446.428 240.483Z" fill="#201000"/>
<path d="M377.879 365.293L387.198 332.193C387.198 332.193 372.198 314.813 374.318 301.753C374.318 301.753 339.018 298.933 338.248 276.453C337.478 253.973 356.798 245.223 368.658 254.633L380.528 264.033C380.528 264.033 405.668 265.183 408.528 238.833C408.528 238.833 453.448 219.403 463.438 258.303C473.428 297.203 473.989 330.073 463.369 340.253C452.749 350.433 433.658 348.773 433.658 348.773L424.778 382.133C424.778 382.133 404.079 396.963 377.879 365.293Z" fill="white"/>
<path d="M412.018 386.503C403.228 386.503 390.848 382.503 377.148 365.923C377.045 365.798 376.974 365.65 376.941 365.491C376.908 365.333 376.914 365.169 376.958 365.013L386.129 332.423C383.869 329.703 372.028 314.843 373.238 302.643C367.178 301.963 338.018 297.643 337.288 276.473C336.898 265.203 341.528 256.023 349.668 251.913C352.78 250.302 356.29 249.627 359.777 249.967C363.264 250.308 366.578 251.651 369.318 253.833L380.928 263.033C383.928 263.033 404.988 262.533 407.558 238.713C407.578 238.537 407.643 238.369 407.749 238.227C407.854 238.084 407.996 237.973 408.158 237.903C409.098 237.493 431.358 228.043 448.288 236.333C456.288 240.273 461.748 247.573 464.438 258.043C474.938 298.923 474.808 330.693 464.088 340.963C454.428 350.223 438.328 349.963 434.438 349.813L425.768 382.373C425.711 382.598 425.576 382.796 425.389 382.933C421.358 385.362 416.723 386.6 412.018 386.503ZM379.018 365.053C402.768 393.443 421.318 383.173 423.938 381.503L432.718 348.503C432.779 348.276 432.917 348.077 433.109 347.942C433.301 347.807 433.534 347.743 433.768 347.763C433.958 347.763 452.548 349.253 462.708 339.513C472.868 329.773 472.708 298.113 462.498 258.513C459.968 248.643 454.888 241.783 447.418 238.113C432.718 230.913 412.948 238.113 409.478 239.503C406.258 265.873 380.778 265.023 380.478 265.003C380.27 264.991 380.071 264.914 379.908 264.783L368.038 255.383C365.595 253.441 362.641 252.247 359.535 251.945C356.428 251.644 353.3 252.247 350.528 253.683C343.108 257.433 338.888 265.913 339.248 276.383C339.978 297.713 374.058 300.703 374.398 300.733C374.537 300.744 374.671 300.783 374.793 300.848C374.916 300.914 375.023 301.004 375.109 301.113C375.194 301.222 375.256 301.348 375.29 301.482C375.325 301.616 375.331 301.756 375.308 301.893C373.258 314.333 387.808 331.333 387.948 331.503C388.058 331.628 388.135 331.779 388.171 331.941C388.208 332.104 388.203 332.273 388.158 332.433L379.018 365.053Z" fill="black"/>
<path d="M444.678 309.863C444.451 309.86 444.232 309.779 444.057 309.635C443.881 309.49 443.76 309.29 443.714 309.068C443.667 308.846 443.698 308.614 443.801 308.411C443.903 308.209 444.072 308.047 444.278 307.953C448.808 305.953 451.518 303.043 452.348 299.293C454.518 289.473 443.488 276.783 443.348 276.653C443.187 276.452 443.109 276.197 443.131 275.94C443.153 275.683 443.273 275.445 443.467 275.275C443.66 275.105 443.911 275.016 444.169 275.027C444.426 275.037 444.67 275.147 444.848 275.333C445.328 275.883 456.658 288.903 454.278 299.723C453.278 304.133 450.198 307.513 445.048 309.783C444.931 309.833 444.806 309.86 444.678 309.863Z" fill="black"/>
<path d="M418.838 321.993H418.788C417.087 321.964 415.41 321.584 413.862 320.879C412.313 320.174 410.927 319.157 409.788 317.893C405.158 312.653 405.708 304.373 405.728 304.023C405.749 303.759 405.873 303.514 406.073 303.342C406.274 303.17 406.534 303.084 406.798 303.103C407.062 303.121 407.308 303.243 407.482 303.441C407.656 303.64 407.745 303.899 407.728 304.163C407.728 304.243 407.228 311.973 411.288 316.583C412.257 317.641 413.432 318.488 414.741 319.075C416.049 319.661 417.464 319.974 418.898 319.993C419.163 319.993 419.418 320.098 419.605 320.286C419.793 320.473 419.898 320.728 419.898 320.993C419.898 321.258 419.793 321.513 419.605 321.7C419.418 321.888 419.163 321.993 418.898 321.993H418.838Z" fill="black"/>
<path d="M356.738 278.293H356.578C356.317 278.249 356.084 278.103 355.931 277.887C355.777 277.672 355.715 277.404 355.758 277.143C355.758 276.963 356.509 272.793 359.889 271.403C362.469 270.343 365.758 271.233 369.648 274.053C369.761 274.127 369.857 274.224 369.931 274.336C370.005 274.449 370.056 274.575 370.08 274.707C370.105 274.84 370.102 274.976 370.072 275.108C370.042 275.239 369.986 275.363 369.907 275.472C369.828 275.582 369.728 275.674 369.613 275.743C369.497 275.813 369.369 275.858 369.236 275.877C369.102 275.896 368.966 275.888 368.836 275.852C368.706 275.817 368.584 275.756 368.478 275.673C365.228 273.323 362.478 272.483 360.648 273.253C358.288 274.253 357.728 277.433 357.728 277.473C357.686 277.704 357.564 277.913 357.383 278.063C357.202 278.213 356.973 278.294 356.738 278.293Z" fill="black"/>
<path d="M418.198 252.083C417.988 252.082 417.783 252.014 417.613 251.889C417.443 251.764 417.317 251.589 417.253 251.388C417.188 251.187 417.189 250.971 417.255 250.771C417.32 250.571 417.448 250.396 417.618 250.273C420.115 248.626 423.13 247.957 426.088 248.393C426.22 248.414 426.346 248.461 426.459 248.53C426.572 248.6 426.671 248.691 426.749 248.799C426.827 248.907 426.883 249.029 426.913 249.158C426.944 249.288 426.949 249.422 426.928 249.553C426.907 249.684 426.861 249.81 426.791 249.924C426.721 250.037 426.63 250.135 426.522 250.213C426.415 250.291 426.293 250.347 426.163 250.378C426.034 250.409 425.9 250.414 425.768 250.393C423.326 250.054 420.843 250.6 418.768 251.933C418.598 252.039 418.399 252.091 418.198 252.083Z" fill="black"/>
<path d="M427.498 267.743C428.719 267.743 429.708 266.754 429.708 265.533C429.708 264.312 428.719 263.323 427.498 263.323C426.278 263.323 425.288 264.312 425.288 265.533C425.288 266.754 426.278 267.743 427.498 267.743Z" fill="#201000"/>
<path d="M447.638 264.363C448.859 264.363 449.848 263.374 449.848 262.153C449.848 260.933 448.859 259.943 447.638 259.943C446.418 259.943 445.428 260.933 445.428 262.153C445.428 263.374 446.418 264.363 447.638 264.363Z" fill="#201000"/>
<path d="M438.698 249.513C438.488 249.512 438.283 249.444 438.113 249.319C437.943 249.194 437.817 249.019 437.753 248.818C437.688 248.617 437.689 248.401 437.755 248.201C437.82 248.001 437.948 247.826 438.118 247.703C440.118 246.273 444.788 244.453 448.328 247.763C448.424 247.853 448.501 247.961 448.555 248.081C448.61 248.2 448.64 248.33 448.644 248.461C448.648 248.593 448.626 248.723 448.58 248.846C448.533 248.969 448.463 249.082 448.373 249.178C448.283 249.274 448.176 249.351 448.056 249.405C447.936 249.459 447.807 249.489 447.675 249.493C447.544 249.498 447.413 249.476 447.29 249.429C447.167 249.383 447.054 249.313 446.958 249.223C443.728 246.223 439.328 249.293 439.278 249.323C439.11 249.445 438.907 249.512 438.698 249.513Z" fill="black"/>
<path d="M373.018 285.713C372.783 285.717 372.554 285.638 372.371 285.49C372.188 285.342 372.063 285.134 372.018 284.903C368.148 265.413 353.378 264.973 352.758 264.963C352.493 264.963 352.239 264.858 352.051 264.67C351.864 264.483 351.758 264.228 351.758 263.963C351.758 263.698 351.864 263.443 352.051 263.256C352.239 263.068 352.493 262.963 352.758 262.963C352.928 262.963 369.758 263.383 373.958 284.513C373.984 284.642 373.985 284.776 373.959 284.905C373.934 285.035 373.883 285.158 373.809 285.268C373.736 285.377 373.641 285.471 373.531 285.544C373.421 285.617 373.298 285.668 373.168 285.693L373.018 285.713Z" fill="black"/>
<path d="M318.018 336.673C318.018 336.673 361.708 387.453 360.108 409.483C358.508 431.513 351.688 466.883 327.388 485.183C303.088 503.483 184.018 563.823 184.018 563.823L218.738 571.883C218.738 571.883 358.838 509.613 372.418 476.373C385.998 443.133 385.178 404.923 353.418 354.883L318.018 336.673Z" fill="#FCE054"/>
<path d="M185.518 565.793C185.247 565.794 184.981 565.721 184.749 565.582C184.516 565.442 184.326 565.242 184.198 565.003C184.02 564.656 183.984 564.253 184.098 563.879C184.211 563.506 184.466 563.191 184.808 563.003L237.048 534.733C237.399 534.543 237.81 534.501 238.191 534.614C238.573 534.727 238.894 534.988 239.083 535.338C239.273 535.688 239.316 536.099 239.202 536.481C239.089 536.862 238.828 537.183 238.478 537.373L186.228 565.643C186.008 565.75 185.764 565.802 185.518 565.793Z" fill="white"/>
<path d="M334.448 359.013C334.219 359.013 333.993 358.961 333.786 358.86C333.58 358.76 333.4 358.614 333.258 358.433L320.168 341.583C320.047 341.427 319.959 341.25 319.906 341.06C319.854 340.87 319.84 340.671 319.865 340.476C319.889 340.28 319.952 340.091 320.05 339.92C320.147 339.749 320.278 339.599 320.433 339.478C320.589 339.357 320.767 339.268 320.957 339.216C321.147 339.164 321.345 339.15 321.541 339.175C321.736 339.199 321.925 339.262 322.096 339.36C322.267 339.457 322.418 339.587 322.538 339.743L335.628 356.593C335.871 356.906 335.98 357.303 335.932 357.697C335.883 358.09 335.681 358.448 335.368 358.693C335.107 358.901 334.782 359.014 334.448 359.013Z" fill="white"/>
<path d="M425.668 379.733C425.668 379.733 468.398 412.603 438.858 514.403C438.858 514.403 478.048 470.953 466.948 427.573C456.558 387.003 425.668 379.733 425.668 379.733Z" fill="#FCE054"/>
<path d="M414.478 414.873H414.328C414.145 414.845 413.973 414.767 413.832 414.647C413.69 414.526 413.585 414.369 413.528 414.193L404.818 387.633L394.668 410.873C394.594 411.042 394.474 411.187 394.323 411.292C394.171 411.398 393.993 411.459 393.809 411.469C393.625 411.479 393.441 411.438 393.278 411.351C393.116 411.263 392.981 411.133 392.888 410.973L366.548 365.593C366.418 365.363 366.383 365.092 366.453 364.837C366.522 364.582 366.689 364.365 366.918 364.233C367.147 364.102 367.418 364.066 367.672 364.133C367.927 364.201 368.145 364.366 368.278 364.593L393.628 408.263L404.038 384.423C404.123 384.233 404.264 384.074 404.444 383.968C404.623 383.862 404.831 383.815 405.038 383.833C405.239 383.843 405.433 383.913 405.593 384.034C405.754 384.155 405.874 384.322 405.938 384.513L414.828 411.673L430.898 388.773C431.051 388.556 431.283 388.408 431.545 388.362C431.807 388.316 432.076 388.376 432.293 388.528C432.511 388.681 432.659 388.913 432.705 389.175C432.751 389.437 432.691 389.705 432.538 389.923L415.318 414.453C415.223 414.586 415.097 414.695 414.951 414.768C414.804 414.841 414.642 414.877 414.478 414.873Z" fill="black"/>
<path d="M259.668 428.403H259.558C259.428 428.388 259.301 428.348 259.186 428.284C259.071 428.22 258.97 428.134 258.888 428.031C258.806 427.928 258.745 427.809 258.709 427.683C258.673 427.556 258.663 427.424 258.678 427.293L267.568 348.723C267.598 348.458 267.731 348.215 267.939 348.048C268.147 347.881 268.413 347.804 268.678 347.833C268.943 347.862 269.186 347.995 269.353 348.204C269.52 348.412 269.598 348.678 269.568 348.943L260.668 427.523C260.639 427.767 260.521 427.991 260.336 428.154C260.152 428.316 259.914 428.405 259.668 428.403Z" fill="black"/>
<path d="M238.018 424.613H237.918C237.787 424.599 237.661 424.56 237.545 424.497C237.43 424.434 237.328 424.349 237.245 424.247C237.163 424.145 237.101 424.028 237.064 423.902C237.026 423.776 237.014 423.644 237.028 423.513L245.518 344.583C245.532 344.452 245.571 344.326 245.634 344.21C245.697 344.095 245.782 343.993 245.884 343.91C245.986 343.827 246.103 343.765 246.229 343.728C246.355 343.691 246.488 343.679 246.618 343.693C246.749 343.707 246.876 343.746 246.991 343.809C247.107 343.872 247.209 343.956 247.291 344.059C247.374 344.161 247.436 344.278 247.473 344.404C247.51 344.53 247.522 344.662 247.508 344.793L239.018 423.733C238.989 423.977 238.871 424.201 238.686 424.364C238.502 424.526 238.264 424.615 238.018 424.613Z" fill="black"/>
<path d="M455.178 534.233C454.986 534.233 454.798 534.177 454.637 534.073C454.475 533.968 454.347 533.82 454.268 533.645C454.189 533.47 454.162 533.275 454.19 533.085C454.219 532.895 454.301 532.717 454.428 532.573L510.588 468.153C510.765 467.962 511.008 467.847 511.268 467.833C511.527 467.818 511.782 467.906 511.978 468.076C512.175 468.246 512.297 468.486 512.319 468.745C512.342 469.004 512.263 469.262 512.098 469.463L455.928 533.893C455.834 534 455.719 534.085 455.59 534.144C455.46 534.202 455.32 534.233 455.178 534.233Z" fill="black"/>
<path d="M443.878 519.293C443.635 519.293 443.401 519.204 443.218 519.043C443.018 518.869 442.895 518.623 442.877 518.359C442.858 518.094 442.945 517.833 443.118 517.633L498.118 454.633C498.294 454.433 498.541 454.31 498.806 454.293C499.072 454.275 499.333 454.363 499.533 454.538C499.734 454.713 499.856 454.961 499.874 455.226C499.892 455.491 499.804 455.753 499.628 455.953L444.628 519.003C444.53 519.101 444.413 519.177 444.284 519.227C444.155 519.277 444.017 519.299 443.878 519.293Z" fill="black"/>
<path d="M257.268 360.583C259.754 360.583 261.768 358.568 261.768 356.083C261.768 353.598 259.754 351.583 257.268 351.583C254.783 351.583 252.768 353.598 252.768 356.083C252.768 358.568 254.783 360.583 257.268 360.583Z" fill="white"/>
<path d="M257.268 361.583C256.97 361.584 256.673 361.561 256.378 361.513C254.971 361.287 253.706 360.525 252.848 359.387C251.989 358.249 251.604 356.823 251.774 355.408C251.943 353.993 252.653 352.697 253.755 351.794C254.857 350.89 256.267 350.448 257.687 350.56C259.108 350.672 260.431 351.329 261.379 352.393C262.326 353.458 262.825 354.848 262.771 356.273C262.717 357.697 262.113 359.045 261.088 360.035C260.062 361.025 258.694 361.579 257.268 361.583ZM257.268 352.583C256.349 352.576 255.463 352.926 254.795 353.558C254.128 354.19 253.731 355.056 253.687 355.975C253.644 356.893 253.957 357.792 254.562 358.485C255.167 359.177 256.016 359.609 256.932 359.689C257.848 359.769 258.759 359.492 259.476 358.916C260.192 358.339 260.657 357.508 260.774 356.596C260.891 355.684 260.651 354.763 260.104 354.024C259.556 353.285 258.745 352.787 257.838 352.633C257.651 352.597 257.459 352.58 257.268 352.583Z" fill="black"/>
<path d="M99.8684 499.923L99.3184 498.003L169.668 477.803L166.698 468.873L95.2383 486.793L94.7483 484.853L168.008 466.483L172.218 479.143L99.8684 499.923Z" fill="black"/>
<path d="M133.018 500.793C144.064 500.793 153.018 491.839 153.018 480.793C153.018 469.747 144.064 460.793 133.018 460.793C121.973 460.793 113.018 469.747 113.018 480.793C113.018 491.839 121.973 500.793 133.018 500.793Z" fill="white"/>
<path d="M133.018 501.793C128.865 501.793 124.805 500.561 121.351 498.254C117.898 495.946 115.206 492.667 113.617 488.829C112.027 484.992 111.612 480.77 112.422 476.696C113.232 472.622 115.232 468.881 118.169 465.944C121.106 463.007 124.848 461.007 128.921 460.196C132.995 459.386 137.217 459.802 141.055 461.392C144.892 462.981 148.172 465.672 150.479 469.126C152.787 472.579 154.018 476.64 154.018 480.793C154.018 486.362 151.806 491.704 147.867 495.642C143.929 499.58 138.588 501.793 133.018 501.793ZM133.018 461.793C129.26 461.793 125.587 462.907 122.462 464.995C119.338 467.083 116.903 470.05 115.465 473.522C114.026 476.994 113.65 480.814 114.383 484.5C115.116 488.185 116.926 491.571 119.583 494.228C122.24 496.885 125.626 498.695 129.311 499.428C132.997 500.161 136.817 499.785 140.289 498.347C143.761 496.909 146.728 494.473 148.816 491.349C150.904 488.224 152.018 484.551 152.018 480.793C152.018 475.754 150.017 470.921 146.453 467.358C142.89 463.795 138.057 461.793 133.018 461.793Z" fill="black"/>
<path d="M147.018 483.293H146.908L131.828 482.213L128.558 469.153C128.511 468.961 128.502 468.762 128.532 468.567C128.561 468.372 128.629 468.184 128.731 468.015C128.834 467.846 128.968 467.699 129.127 467.582C129.286 467.465 129.466 467.38 129.658 467.333C129.85 467.286 130.049 467.277 130.244 467.306C130.44 467.336 130.627 467.404 130.796 467.506C130.965 467.608 131.112 467.743 131.23 467.902C131.347 468.061 131.431 468.241 131.478 468.433L134.208 479.373L147.128 480.293C147.526 480.308 147.902 480.48 148.173 480.771C148.444 481.063 148.588 481.45 148.573 481.848C148.559 482.246 148.387 482.622 148.095 482.893C147.803 483.164 147.416 483.308 147.018 483.293Z" fill="#ED5564"/>
<path d="M623.518 544.793L544.208 544.673C543.81 544.673 543.429 544.515 543.148 544.234C542.866 543.952 542.708 543.571 542.708 543.173C542.708 542.775 542.866 542.394 543.148 542.112C543.429 541.831 543.81 541.673 544.208 541.673L623.518 541.793C623.916 541.793 624.298 541.951 624.579 542.232C624.86 542.514 625.018 542.895 625.018 543.293C625.018 543.691 624.86 544.072 624.579 544.354C624.298 544.635 623.916 544.793 623.518 544.793Z" fill="#ED5564"/>
<path d="M612.518 526.793L533.208 526.673C532.81 526.673 532.429 526.515 532.148 526.234C531.866 525.952 531.708 525.571 531.708 525.173C531.708 524.775 531.866 524.394 532.148 524.112C532.429 523.831 532.81 523.673 533.208 523.673L612.518 523.793C612.916 523.793 613.298 523.951 613.579 524.232C613.86 524.514 614.018 524.895 614.018 525.293C614.018 525.691 613.86 526.072 613.579 526.354C613.298 526.635 612.916 526.793 612.518 526.793Z" fill="#ED5564"/>
<path d="M42.2893 305.051L42.177 307.048L131.176 312.055L131.289 310.058L42.2893 305.051Z" fill="black"/>
<path d="M30.0869 280.818L30 282.816L99.0049 285.817L99.0917 283.819L30.0869 280.818Z" fill="black"/>
<path d="M570.518 309.293C568.738 309.293 566.998 308.765 565.518 307.776C564.038 306.787 562.885 305.382 562.203 303.737C561.522 302.093 561.344 300.283 561.691 298.537C562.038 296.791 562.896 295.188 564.154 293.929C565.413 292.67 567.017 291.813 568.763 291.466C570.508 291.119 572.318 291.297 573.962 291.978C575.607 292.659 577.013 293.813 578.002 295.293C578.99 296.773 579.518 298.513 579.518 300.293C579.518 302.68 578.57 304.969 576.882 306.657C575.195 308.345 572.905 309.293 570.518 309.293ZM570.518 294.293C569.332 294.293 568.172 294.645 567.185 295.304C566.198 295.964 565.429 296.901 564.975 297.997C564.521 299.093 564.402 300.3 564.634 301.464C564.865 302.628 565.437 303.697 566.276 304.536C567.115 305.375 568.184 305.946 569.348 306.178C570.512 306.409 571.718 306.29 572.815 305.836C573.911 305.382 574.848 304.613 575.507 303.627C576.166 302.64 576.518 301.48 576.518 300.293C576.518 298.702 575.886 297.176 574.761 296.05C573.636 294.925 572.11 294.293 570.518 294.293Z" fill="#ED5564"/>
<path d="M537.518 333.293C537.048 333.292 536.593 333.126 536.233 332.824C535.874 332.521 535.632 332.101 535.551 331.638C535.47 331.175 535.554 330.698 535.79 330.291C536.025 329.884 536.396 329.573 536.838 329.413L561.838 320.413C562.333 320.25 562.871 320.286 563.34 320.513C563.808 320.741 564.169 321.142 564.346 321.632C564.523 322.121 564.502 322.661 564.288 323.135C564.074 323.61 563.683 323.982 563.198 324.173L538.198 333.173C537.98 333.25 537.75 333.291 537.518 333.293Z" fill="#47CEC0"/>
</svg>
