<svg width="700" height="700" viewBox="0 0 700 700" fill="none" xmlns="http://www.w3.org/2000/svg">
<rect width="700" height="700" fill="white"/>
<path d="M387.24 193.38C407.139 156.71 350.579 105.38 304.479 203.85C242.759 214.95 277.61 232.68 251.05 256.37C238.05 265.94 231.989 288.61 243.719 306.51C263.629 336.89 225.909 341.08 225.909 359.94C225.909 378.8 283.529 376.7 335.909 368.32C388.289 359.94 435.429 385.08 456.379 372.51C477.329 359.94 431.239 328.51 434.379 309.66C437.519 290.81 455.38 288.71 450.09 262.52C447.55 232.63 409.419 192.59 387.24 193.38Z" fill="black"/>
<path d="M406.879 248.44C411.419 231.09 423.31 223.76 428.31 244.71C433.31 265.66 414.309 293.45 407.849 286.89" fill="white"/>
<path d="M410.179 288.86C409.62 288.86 409.066 288.747 408.551 288.529C408.035 288.311 407.569 287.992 407.179 287.59C407.075 287.5 406.991 287.389 406.932 287.264C406.873 287.14 406.84 287.004 406.836 286.867C406.832 286.729 406.856 286.592 406.907 286.464C406.958 286.336 407.035 286.22 407.134 286.123C407.232 286.026 407.349 285.951 407.477 285.902C407.606 285.852 407.743 285.83 407.881 285.836C408.019 285.843 408.154 285.877 408.277 285.938C408.401 285.999 408.51 286.085 408.599 286.19C409.499 287.1 410.81 287.09 412.49 286.19C419.78 282.19 431.329 261.51 427.379 244.98C425.539 237.26 422.65 232.98 419.25 232.98C415.01 232.98 410.359 239.45 407.929 248.76C407.862 249.017 407.695 249.237 407.465 249.371C407.235 249.505 406.962 249.543 406.705 249.475C406.447 249.407 406.227 249.24 406.093 249.011C405.959 248.781 405.922 248.507 405.99 248.25C408.7 237.91 413.99 230.98 419.25 230.98H419.31C422.43 230.98 426.699 233.39 429.369 244.54C433.589 262.21 421.44 283.54 413.5 287.96C412.491 288.546 411.346 288.856 410.179 288.86Z" fill="black"/>
<path d="M294.349 248.44C289.149 231.09 275.54 223.76 269.81 244.71C264.08 265.66 285.809 293.45 293.24 286.89" fill="white"/>
<path d="M290.599 288.86C288.81 288.775 287.08 288.197 285.599 287.19C275.799 281.1 264.429 260.48 268.809 244.44C272.009 232.76 277.289 230.95 280.149 230.92H280.239C286.149 230.92 292.169 237.83 295.239 248.16C295.315 248.415 295.286 248.689 295.16 248.922C295.033 249.156 294.819 249.329 294.564 249.405C294.31 249.481 294.036 249.452 293.802 249.325C293.569 249.199 293.395 248.985 293.319 248.73C290.529 239.4 285.149 232.92 280.209 232.92H280.149C276.149 232.97 272.819 237.25 270.709 244.97C266.549 260.17 277.329 279.72 286.629 285.49C288.399 286.59 290.859 287.6 292.499 286.14C292.596 286.044 292.711 285.969 292.837 285.92C292.963 285.87 293.098 285.846 293.234 285.851C293.37 285.855 293.503 285.886 293.626 285.944C293.749 286.001 293.859 286.083 293.95 286.184C294.04 286.285 294.109 286.404 294.152 286.533C294.195 286.661 294.211 286.798 294.2 286.933C294.189 287.068 294.15 287.2 294.086 287.32C294.023 287.439 293.935 287.545 293.829 287.63C292.941 288.424 291.791 288.862 290.599 288.86Z" fill="black"/>
<path d="M452.81 612.4L453.24 539.25L519.46 538.61C527.8 348.67 433.6 378.72 283.8 383.18C192.63 385.71 197.48 506.87 200.48 554.12H259.97L259.4 610.17" fill="white"/>
<path d="M453.81 612.41H451.81L452.24 538.27L518.5 537.63C521.299 471.35 511.669 429.63 488.219 406.35C457.219 375.56 402.879 378.35 334.139 381.97C318.039 382.8 301.39 383.67 283.83 384.19C261.83 384.8 243.93 392.53 230.57 407.19C195.05 446.1 199.679 525.64 201.419 553.19H260.969L260.379 610.25H258.379L258.939 555.25H199.54L199.479 554.31C197.779 527.51 192.59 445.93 229.09 405.94C242.83 390.94 261.23 382.94 283.77 382.31C301.31 381.79 317.94 380.93 334.03 380.09C403.27 376.48 457.959 373.64 489.619 405.09C513.619 428.89 523.419 471.39 520.459 538.82V539.77L454.27 540.41L453.81 612.41Z" fill="black"/>
<path d="M315.419 382.28C287.849 397.67 347.869 431.02 354.279 408.28C367.679 427.47 413.339 392.43 382.659 379.87" fill="white"/>
<path d="M342.26 417H341.97C329.36 416.83 310.429 406.13 307.609 395C306.609 391.22 307.15 385.81 314.97 381.44C315.202 381.307 315.477 381.272 315.735 381.343C315.993 381.413 316.212 381.583 316.345 381.815C316.477 382.047 316.512 382.322 316.442 382.58C316.371 382.838 316.202 383.057 315.97 383.19C310.59 386.19 308.44 390 309.57 394.51C311.96 403.92 329.25 414.84 342.03 415.01C346.29 415.01 351.729 413.9 353.379 408.01C353.43 407.828 353.531 407.664 353.672 407.537C353.812 407.409 353.985 407.325 354.171 407.292C354.358 407.26 354.55 407.281 354.725 407.353C354.9 407.425 355.05 407.546 355.159 407.7C359.759 414.29 367.68 413.22 371.99 411.99C382.47 408.99 391.679 400.07 392.099 392.46C392.379 387.56 389 383.53 382.34 380.8C382.218 380.75 382.108 380.677 382.014 380.584C381.921 380.492 381.847 380.382 381.797 380.26C381.694 380.016 381.694 379.74 381.794 379.495C381.895 379.25 382.09 379.054 382.334 378.952C382.579 378.85 382.854 378.849 383.099 378.95C392.609 382.84 394.329 388.5 394.099 392.57C393.579 401.82 382.54 411.08 372.54 413.92C365.09 416.03 358.689 414.71 354.669 410.29C352.649 414.61 348.33 417 342.26 417Z" fill="black"/>
<path d="M539.139 609.26C539.139 609.26 563.02 512.52 583.09 469.44C603.16 426.36 616.63 400.81 625.25 387.03C633.87 373.25 643.36 356.6 629.83 357.52C629.83 357.52 630.899 339.52 621.149 346.67C621.149 346.67 623.079 317.61 589.469 361.62C589.469 361.62 604.919 331.62 595.159 330.55C585.399 329.48 548.52 394.55 548.52 394.55C569.46 226 468.72 601.24 464.76 609.26" fill="white"/>
<path d="M539.139 610.26H538.899C538.642 610.196 538.421 610.033 538.284 609.806C538.147 609.579 538.106 609.307 538.169 609.05C538.409 608.05 562.299 511.73 582.169 469.05C600.369 429.97 614.579 402.21 624.379 386.53C628.769 379.53 637.9 364.92 635.06 360.18C634.3 358.91 632.549 358.36 629.879 358.55C629.737 358.56 629.594 358.54 629.46 358.49C629.327 358.441 629.205 358.363 629.104 358.263C629.002 358.163 628.924 358.042 628.873 357.908C628.822 357.775 628.801 357.632 628.81 357.49C629.03 353.84 628.489 347.56 626.139 346.28C625.139 345.71 623.62 346.13 621.72 347.51C621.566 347.62 621.385 347.684 621.197 347.695C621.008 347.706 620.821 347.663 620.656 347.572C620.49 347.482 620.354 347.346 620.263 347.181C620.172 347.016 620.129 346.828 620.139 346.64C620.259 344.72 619.98 339.51 617.25 338.48C614.68 337.48 607.75 339.33 590.25 362.25C590.1 362.454 589.879 362.594 589.631 362.642C589.383 362.689 589.125 362.641 588.911 362.507C588.697 362.372 588.541 362.162 588.476 361.918C588.411 361.673 588.441 361.413 588.56 361.19C591.77 354.96 599.51 337.72 596.84 332.74C596.666 332.404 596.408 332.12 596.09 331.914C595.773 331.709 595.407 331.59 595.03 331.57H594.84C587.94 331.57 563.369 370.37 549.369 395.08C549.255 395.279 549.075 395.432 548.861 395.514C548.646 395.596 548.41 395.602 548.192 395.53C547.974 395.459 547.787 395.314 547.662 395.121C547.538 394.928 547.484 394.698 547.51 394.47C552.36 355.41 549.689 352.33 549.099 352.11C548.879 352.11 546.1 352.47 537.58 374.75C532.46 388.08 525.9 407.45 518.07 432.33C503.82 477.65 488.07 532.49 477.72 568.77C470.11 595.32 466.419 608.15 465.639 609.77C465.523 610.009 465.316 610.191 465.065 610.277C464.813 610.364 464.538 610.347 464.3 610.23C464.061 610.113 463.878 609.907 463.792 609.655C463.706 609.404 463.723 609.129 463.84 608.89C464.59 607.38 469.29 590.97 475.84 568.25C486.28 531.81 502.059 476.73 516.359 431.25C524.219 406.25 530.81 386.86 535.939 373.56C544.179 352.2 547.35 349.67 549.56 350.13C552.23 350.67 554.119 355.99 550.129 389.82C553.569 383.91 560.209 372.68 567.369 361.62C588.579 328.83 593.64 329.39 595.3 329.62C596 329.676 596.675 329.909 597.261 330.297C597.847 330.686 598.325 331.217 598.649 331.84C601.029 336.27 597.31 346.84 594.09 354.27C605.32 340.61 613.17 334.84 618 336.65C621.34 337.9 622.049 342.35 622.179 344.93C624.079 343.93 625.749 343.8 627.179 344.56C630.749 346.56 630.99 353.68 630.939 356.56C633.829 356.56 635.819 357.45 636.869 359.2C640.069 364.54 633.019 376.68 626.169 387.64C616.409 403.25 602.24 430.94 584.07 469.94C564.27 512.44 540.419 608.62 540.179 609.58C540.108 609.794 539.967 609.978 539.778 610.101C539.589 610.225 539.364 610.281 539.139 610.26Z" fill="black"/>
<path d="M595.02 406.52C595.02 406.52 619.089 362.76 630.379 356.74L595.02 406.52Z" fill="white"/>
<path d="M595.02 407.52C594.852 407.521 594.687 407.48 594.54 407.4C594.425 407.336 594.323 407.251 594.242 407.148C594.16 407.045 594.099 406.927 594.063 406.801C594.027 406.675 594.015 406.542 594.03 406.412C594.045 406.281 594.086 406.155 594.149 406.04C595.149 404.24 618.49 361.95 629.92 355.86C630.036 355.795 630.164 355.754 630.297 355.74C630.429 355.726 630.563 355.738 630.691 355.776C630.819 355.814 630.938 355.877 631.041 355.962C631.144 356.047 631.229 356.151 631.291 356.269C631.353 356.387 631.39 356.516 631.402 356.649C631.413 356.782 631.398 356.916 631.357 357.042C631.315 357.169 631.25 357.286 631.162 357.387C631.075 357.488 630.969 357.571 630.849 357.63C619.949 363.44 596.139 406.57 595.849 407C595.767 407.151 595.648 407.278 595.503 407.369C595.357 407.46 595.191 407.512 595.02 407.52Z" fill="black"/>
<path d="M585.689 399.89C585.689 399.89 605.559 363.68 621.689 345.89L585.689 399.89Z" fill="white"/>
<path d="M585.689 400.89C585.516 400.891 585.345 400.846 585.194 400.76C585.042 400.674 584.916 400.551 584.827 400.401C584.738 400.252 584.69 400.082 584.687 399.908C584.684 399.734 584.726 399.563 584.809 399.41C585.009 399.05 604.929 362.89 620.969 345.22C621.147 345.024 621.396 344.907 621.66 344.894C621.924 344.881 622.183 344.973 622.379 345.15C622.478 345.238 622.558 345.345 622.615 345.465C622.672 345.584 622.704 345.713 622.711 345.845C622.717 345.977 622.697 346.11 622.653 346.234C622.608 346.358 622.539 346.473 622.449 346.57C606.559 364.06 586.759 400.01 586.559 400.37C586.474 400.526 586.348 400.657 586.195 400.748C586.042 400.84 585.868 400.889 585.689 400.89Z" fill="black"/>
<path d="M574.349 389.49C574.349 389.49 584.97 367 590.26 360L574.349 389.49Z" fill="white"/>
<path d="M574.349 390.49C574.201 390.49 574.055 390.459 573.919 390.4C573.679 390.287 573.494 390.084 573.404 389.834C573.314 389.585 573.327 389.31 573.44 389.07C573.88 388.15 584.17 366.41 589.44 359.43C589.6 359.218 589.838 359.078 590.102 359.042C590.365 359.005 590.632 359.075 590.845 359.235C591.057 359.395 591.196 359.634 591.233 359.897C591.27 360.161 591.2 360.428 591.04 360.64C585.87 367.45 575.34 389.7 575.23 389.92C575.15 390.087 575.026 390.229 574.87 390.33C574.715 390.43 574.534 390.486 574.349 390.49Z" fill="black"/>
<path d="M559.59 431.68C559.59 431.68 559.309 405.68 545.099 402.68L549.929 389.44" fill="white"/>
<path d="M559.599 432.68C559.334 432.68 559.08 432.575 558.892 432.387C558.705 432.2 558.599 431.945 558.599 431.68C558.599 431.43 558.15 406.49 544.89 403.62C544.75 403.59 544.618 403.531 544.503 403.445C544.388 403.36 544.293 403.251 544.224 403.126C544.155 403.001 544.113 402.863 544.102 402.72C544.091 402.578 544.111 402.434 544.16 402.3L548.99 389.07C549.085 388.828 549.271 388.632 549.508 388.525C549.746 388.418 550.015 388.408 550.26 388.496C550.505 388.585 550.706 388.765 550.819 388.999C550.933 389.234 550.951 389.503 550.869 389.75L546.42 401.96C560.15 406.16 560.579 430.59 560.599 431.66C560.599 431.925 560.494 432.18 560.307 432.367C560.119 432.555 559.865 432.66 559.599 432.66V432.68Z" fill="black"/>
<path d="M452.609 548C452.344 548 452.09 547.895 451.902 547.707C451.715 547.52 451.609 547.265 451.609 547C451.609 515.72 441.699 472.45 441.609 472C441.55 471.741 441.595 471.47 441.736 471.245C441.876 471.02 442.101 470.86 442.359 470.8C442.618 470.74 442.89 470.786 443.115 470.927C443.34 471.067 443.5 471.291 443.56 471.55C443.66 471.99 453.619 515.48 453.619 546.99C453.621 547.123 453.596 547.255 453.545 547.378C453.495 547.501 453.421 547.613 453.327 547.707C453.233 547.801 453.121 547.875 452.998 547.926C452.874 547.976 452.742 548.001 452.609 548Z" fill="black"/>
<path d="M258.969 565.25C258.529 498.94 266.059 465.18 266.129 464.85L268.129 465.29C268.059 465.63 260.58 499.2 261.02 565.29L258.969 565.25Z" fill="black"/>
<path d="M362.349 448.36C362.449 454.86 352.229 454.86 352.349 448.36C352.229 441.85 362.449 441.85 362.349 448.36Z" fill="black"/>
<path d="M362.349 485.13C362.449 491.63 352.229 491.63 352.349 485.13C352.229 478.62 362.449 478.62 362.349 485.13Z" fill="black"/>
<path d="M274.969 535.5H158.969V574.5H274.969V535.5Z" fill="white"/>
<path d="M321.24 338.5V382C321.24 382 326.48 398.7 350.58 397.65C374.68 396.6 375.719 379.84 375.719 379.84V339L321.24 338.5Z" fill="white"/>
<path d="M348.459 398.7C325.699 398.7 320.34 382.47 320.29 382.3C320.258 382.203 320.241 382.102 320.24 382V338.5C320.239 338.366 320.265 338.233 320.316 338.11C320.368 337.986 320.444 337.874 320.54 337.78C320.73 337.597 320.985 337.496 321.25 337.5L375.73 337.99C375.995 337.99 376.249 338.095 376.437 338.283C376.624 338.47 376.73 338.725 376.73 338.99V379.84C376.73 380.08 375.339 397.58 350.629 398.65C349.879 398.68 349.159 398.7 348.459 398.7ZM322.24 381.84C322.82 383.49 328.38 397.61 350.53 396.65C373.38 395.65 374.679 380.43 374.719 379.78V340L322.24 339.52V381.84Z" fill="black"/>
<path d="M641.799 335.8C641.579 335.799 641.365 335.726 641.19 335.591C641.016 335.456 640.891 335.267 640.835 335.053C640.779 334.84 640.795 334.614 640.881 334.411C640.967 334.208 641.118 334.039 641.309 333.93L660.169 323.45C660.284 323.384 660.411 323.342 660.542 323.325C660.674 323.309 660.807 323.318 660.934 323.353C661.062 323.388 661.182 323.447 661.287 323.528C661.391 323.609 661.479 323.71 661.544 323.825C661.61 323.94 661.652 324.067 661.669 324.198C661.686 324.329 661.677 324.462 661.642 324.59C661.607 324.718 661.547 324.837 661.466 324.942C661.385 325.047 661.284 325.134 661.169 325.2L642.309 335.67C642.155 335.761 641.978 335.806 641.799 335.8Z" fill="black"/>
<path d="M630.28 319C630.096 319.002 629.916 318.953 629.759 318.859C629.601 318.765 629.473 318.629 629.387 318.467C629.301 318.305 629.262 318.123 629.273 317.94C629.284 317.757 629.345 317.581 629.45 317.43L643.07 297.53C643.143 297.42 643.238 297.325 643.348 297.252C643.458 297.179 643.582 297.128 643.712 297.103C643.841 297.078 643.975 297.079 644.105 297.106C644.234 297.133 644.357 297.185 644.467 297.26C644.576 297.335 644.669 297.43 644.741 297.541C644.813 297.653 644.862 297.777 644.886 297.907C644.909 298.037 644.907 298.171 644.878 298.3C644.85 298.429 644.796 298.552 644.72 298.66L631.099 318.56C631.009 318.694 630.887 318.805 630.744 318.881C630.601 318.958 630.442 318.999 630.28 319Z" fill="black"/>
<path d="M604.09 307.51C603.824 307.51 603.57 307.405 603.382 307.217C603.195 307.03 603.09 306.775 603.09 306.51V282.42C603.09 282.155 603.195 281.9 603.382 281.713C603.57 281.525 603.824 281.42 604.09 281.42C604.355 281.42 604.609 281.525 604.797 281.713C604.984 281.9 605.09 282.155 605.09 282.42V306.51C605.09 306.775 604.984 307.03 604.797 307.217C604.609 307.405 604.355 307.51 604.09 307.51Z" fill="black"/>
<path d="M289.969 297.72C289.969 297.72 294.969 346.2 333.429 351.22C429.589 382.31 428.349 200.22 361.849 194.08C286.859 179 284.659 262.81 289.969 297.72Z" fill="white"/>
<path d="M344.969 194.27C350.514 194.315 356.041 194.908 361.469 196.04H361.679C379.679 197.7 390.469 212.49 396.349 224.6C404.039 240.45 407.899 261.36 406.949 281.98C406.059 301.35 400.949 318.88 392.669 331.36C383.339 345.36 370.079 352.76 354.319 352.76C347.429 352.663 340.597 351.489 334.069 349.28L333.709 349.2C318.509 347.2 306.889 338 299.149 321.8C295.544 314.106 293.126 305.909 291.979 297.49C291.979 297.49 291.979 297.42 291.979 297.39C289.883 282.988 289.681 268.374 291.379 253.92C293.699 235.04 299.309 220.32 308.049 210.15C317.119 199.59 329.549 194.24 344.989 194.24L344.969 194.27ZM344.989 192.24C286.579 192.24 285.119 265.62 289.989 297.69C289.989 297.69 294.989 346.17 333.449 351.19C340.177 353.462 347.219 354.667 354.319 354.76C429.029 354.76 423.149 199.7 361.869 194.05C356.31 192.888 350.649 192.282 344.969 192.24H344.989Z" fill="black"/>
<path d="M345.339 289.75C345.339 289.75 324.389 294.99 342.629 243.19L345.339 289.75Z" fill="white"/>
<path d="M343.83 290.9C342.648 290.916 341.477 290.68 340.394 290.207C339.311 289.735 338.341 289.037 337.55 288.16C331.9 281.95 333.289 266.71 341.689 242.86C341.778 242.609 341.963 242.404 342.203 242.29C342.443 242.176 342.719 242.161 342.969 242.25C343.22 242.339 343.425 242.524 343.54 242.764C343.654 243.004 343.668 243.279 343.58 243.53C333.44 272.3 335.51 282.95 339.03 286.81C339.786 287.634 340.741 288.25 341.804 288.601C342.867 288.951 344.001 289.023 345.099 288.81C345.357 288.747 345.629 288.788 345.855 288.925C346.082 289.062 346.246 289.283 346.31 289.54C346.373 289.797 346.332 290.069 346.195 290.296C346.058 290.523 345.837 290.686 345.58 290.75C345.004 290.867 344.417 290.918 343.83 290.9Z" fill="black"/>
<path d="M381.419 302.39C381.419 302.39 381.419 315.61 368.199 317.81L381.419 302.39Z" fill="white"/>
<path d="M368.199 318.81C367.934 318.831 367.672 318.746 367.469 318.574C367.266 318.401 367.141 318.155 367.119 317.89C367.098 317.625 367.183 317.362 367.356 317.159C367.528 316.957 367.774 316.831 368.04 316.81C380.24 314.81 380.419 302.89 380.419 302.38C380.419 302.115 380.525 301.86 380.712 301.673C380.9 301.485 381.154 301.38 381.419 301.38C381.685 301.38 381.939 301.485 382.127 301.673C382.314 301.86 382.419 302.115 382.419 302.38C382.419 302.53 382.259 316.47 368.419 318.79L368.199 318.81Z" fill="black"/>
<path d="M336.27 245.14C335.71 278.43 286.189 278.42 285.629 245.14C286.189 211.85 335.71 211.86 336.27 245.14Z" fill="white"/>
<path d="M310.969 271.1C298.499 271.1 284.969 262.98 284.649 245.16C284.949 227.3 298.499 219.16 310.969 219.16C323.439 219.16 336.97 227.28 337.29 245.1C336.97 263 323.419 271.1 310.969 271.1ZM310.969 221.18C299.449 221.18 286.969 228.68 286.649 245.18C286.919 261.62 299.449 269.12 310.969 269.12C322.479 269.12 334.97 261.62 335.29 245.12C334.97 228.68 322.469 221.18 310.969 221.18Z" fill="black"/>
<path d="M399.03 245.14C398.47 278.43 348.949 278.42 348.389 245.14C348.969 211.85 398.47 211.86 399.03 245.14Z" fill="white"/>
<path d="M373.709 271.1C361.239 271.1 347.709 262.98 347.389 245.16C347.689 227.29 361.239 219.16 373.709 219.16C386.179 219.16 399.71 227.28 400.03 245.1C399.73 263 386.179 271.1 373.709 271.1ZM373.709 221.18C362.189 221.18 349.709 228.68 349.389 245.18C349.659 261.62 362.189 269.12 373.709 269.12C385.229 269.12 397.71 261.63 398.03 245.12C397.75 228.68 385.229 221.18 373.709 221.18Z" fill="black"/>
<path d="M336.27 243.19C336.27 243.19 340.849 235.54 348.469 243.09L336.27 243.19Z" fill="white"/>
<path d="M336.269 244.19C336.09 244.19 335.914 244.142 335.759 244.05C335.533 243.913 335.37 243.692 335.306 243.435C335.243 243.178 335.283 242.907 335.419 242.68C336.047 241.672 336.88 240.808 337.864 240.143C338.848 239.478 339.96 239.027 341.129 238.82C343.749 238.48 346.459 239.69 349.179 242.38C349.273 242.473 349.348 242.584 349.398 242.705C349.449 242.827 349.475 242.958 349.475 243.09C349.475 243.222 349.449 243.353 349.398 243.475C349.348 243.596 349.273 243.707 349.179 243.8C348.992 243.986 348.738 244.091 348.474 244.091C348.21 244.091 347.957 243.986 347.769 243.8C345.509 241.56 343.349 240.55 341.379 240.8C340.511 240.972 339.686 241.319 338.956 241.819C338.225 242.319 337.604 242.963 337.129 243.71C337.04 243.857 336.913 243.979 336.763 244.063C336.612 244.147 336.442 244.191 336.269 244.19Z" fill="black"/>
<path d="M316.46 245.69C316.51 249.26 310.9 249.26 310.95 245.69C311 242.12 316.51 242.12 316.46 245.69Z" fill="black"/>
<path d="M374.81 245.69C374.81 249.26 369.25 249.26 369.31 245.69C369.37 242.12 374.86 242.12 374.81 245.69Z" fill="black"/>
<path d="M360.5 208.81C360.5 208.81 369.31 205.5 374.81 211.01L360.5 208.81Z" fill="white"/>
<path d="M374.81 212C374.677 211.999 374.546 211.973 374.424 211.921C374.302 211.87 374.192 211.795 374.099 211.7C369.099 206.7 360.929 209.7 360.849 209.7C360.725 209.755 360.59 209.784 360.454 209.785C360.318 209.786 360.183 209.76 360.058 209.707C359.932 209.654 359.819 209.576 359.725 209.478C359.63 209.38 359.557 209.263 359.509 209.136C359.462 209.008 359.44 208.872 359.447 208.736C359.454 208.6 359.488 208.467 359.548 208.345C359.608 208.223 359.692 208.114 359.796 208.025C359.899 207.937 360.019 207.87 360.149 207.83C360.529 207.69 369.63 204.37 375.52 210.26C375.661 210.4 375.757 210.579 375.796 210.773C375.835 210.968 375.815 211.17 375.739 211.353C375.663 211.537 375.534 211.694 375.368 211.803C375.203 211.913 375.008 211.971 374.81 211.97V212Z" fill="black"/>
<path d="M317.56 211C317.56 211 323.06 205.49 330.77 211H317.56Z" fill="white"/>
<path d="M330.77 212C330.561 211.999 330.358 211.932 330.189 211.81C323.299 206.89 318.46 211.51 318.26 211.71C318.071 211.897 317.816 212.001 317.551 212.001C317.286 212 317.031 211.893 316.844 211.705C316.658 211.517 316.553 211.262 316.554 210.996C316.555 210.731 316.661 210.477 316.849 210.29C316.909 210.23 323.049 204.29 331.349 210.18C331.457 210.257 331.548 210.354 331.618 210.465C331.687 210.577 331.734 210.702 331.756 210.832C331.777 210.962 331.773 211.095 331.742 211.224C331.712 211.352 331.657 211.473 331.58 211.58C331.488 211.709 331.366 211.815 331.225 211.888C331.084 211.961 330.928 211.999 330.77 212Z" fill="black"/>
<path d="M171.969 570.5C171.704 570.5 171.45 570.395 171.262 570.207C171.075 570.02 170.969 569.765 170.969 569.5L171.479 548.06C171.479 547.795 171.585 547.54 171.772 547.353C171.96 547.165 172.214 547.06 172.479 547.06C172.745 547.06 172.999 547.165 173.187 547.353C173.374 547.54 173.479 547.795 173.479 548.06L172.969 569.5C172.969 569.765 172.864 570.02 172.677 570.207C172.489 570.395 172.235 570.5 171.969 570.5Z" fill="black"/>
<path d="M76.7295 576.5L76.6294 582.14C79.3894 585.02 89.2995 597.36 76.0295 614.14L75.9695 617.46L259.969 617.35V576.5H76.7295Z" fill="white"/>
<path d="M76.6193 614.45C76.3715 614.449 76.1328 614.357 75.9494 614.19C75.7521 614.013 75.6329 613.766 75.6179 613.502C75.6029 613.237 75.6933 612.978 75.8693 612.78C80.8693 607.24 83.1595 601.6 82.7695 595.99C82.2095 587.83 76.0294 582.51 75.9694 582.46C75.869 582.375 75.7862 582.272 75.7258 582.155C75.6654 582.038 75.6285 581.911 75.6174 581.78C75.6062 581.649 75.621 581.517 75.6608 581.392C75.7006 581.267 75.7646 581.151 75.8493 581.05C75.934 580.95 76.0378 580.867 76.1545 580.806C76.2712 580.746 76.3985 580.709 76.5295 580.698C76.6604 580.687 76.7924 580.702 76.9177 580.742C77.0429 580.781 77.159 580.845 77.2595 580.93C77.5395 581.17 84.1395 586.85 84.7595 595.85C85.1895 602.02 82.6993 608.16 77.3593 614.11C77.2667 614.215 77.1531 614.3 77.0256 614.359C76.8981 614.417 76.7596 614.448 76.6193 614.45Z" fill="black"/>
<path d="M117.639 608.5H81.8794C81.6142 608.5 81.3599 608.395 81.1724 608.207C80.9848 608.02 80.8794 607.765 80.8794 607.5C80.8794 607.235 80.9848 606.98 81.1724 606.793C81.3599 606.605 81.6142 606.5 81.8794 606.5H117.639C117.905 606.5 118.159 606.605 118.347 606.793C118.534 606.98 118.639 607.235 118.639 607.5C118.639 607.765 118.534 608.02 118.347 608.207C118.159 608.395 117.905 608.5 117.639 608.5Z" fill="black"/>
<path d="M287.34 576.72C284.71 576.88 79.6694 576.65 76.8494 576.8H69.6895V579.33C72.8395 579.25 194.379 579.57 197.379 579.21C199.827 579.153 202.262 579.586 204.54 580.483C206.818 581.38 208.894 582.724 210.645 584.435C212.397 586.146 213.788 588.19 214.739 590.446C215.689 592.703 216.178 595.126 216.178 597.575C216.178 600.023 215.689 602.447 214.739 604.704C213.788 606.96 212.397 609.004 210.645 610.715C208.894 612.426 206.818 613.77 204.54 614.667C202.262 615.564 199.827 615.997 197.379 615.94C195.869 615.94 71.3095 615.94 69.6895 615.94V618.48C119.239 618.41 236.58 618.63 287.34 618.48C314.72 618 314.76 577.18 287.34 576.72Z" fill="#FCE054"/>
<path d="M319.969 540C319.969 540 303.789 553.69 319.969 571.75V540Z" fill="white"/>
<path d="M319.969 572.74C319.83 572.74 319.692 572.71 319.564 572.653C319.437 572.597 319.323 572.514 319.229 572.41C313.889 566.41 311.4 560.31 311.83 554.15C312.45 545.15 319.05 539.46 319.33 539.23C319.531 539.061 319.79 538.977 320.052 538.998C320.314 539.019 320.557 539.141 320.729 539.34C320.815 539.44 320.88 539.555 320.92 539.68C320.961 539.805 320.977 539.937 320.966 540.068C320.956 540.199 320.92 540.326 320.861 540.443C320.801 540.56 320.719 540.665 320.619 540.75C320.559 540.81 314.369 546.16 313.819 554.31C313.439 559.9 315.759 565.54 320.719 571.07C320.895 571.268 320.986 571.527 320.971 571.792C320.956 572.056 320.837 572.303 320.639 572.48C320.456 572.647 320.217 572.739 319.969 572.74Z" fill="black"/>
<path d="M308.389 562.78H272.629C272.364 562.78 272.11 562.675 271.922 562.487C271.735 562.3 271.629 562.045 271.629 561.78C271.629 561.515 271.735 561.26 271.922 561.073C272.11 560.885 272.364 560.78 272.629 560.78H308.389C308.655 560.78 308.909 560.885 309.097 561.073C309.284 561.26 309.389 561.515 309.389 561.78C309.389 562.045 309.284 562.3 309.097 562.487C308.909 562.675 308.655 562.78 308.389 562.78Z" fill="black"/>
<path d="M282.869 554.69H262.669C262.404 554.69 262.15 554.585 261.962 554.397C261.775 554.21 261.669 553.955 261.669 553.69C261.669 553.425 261.775 553.17 261.962 552.983C262.15 552.795 262.404 552.69 262.669 552.69H282.869C283.135 552.69 283.389 552.795 283.577 552.983C283.764 553.17 283.869 553.425 283.869 553.69C283.869 553.955 283.764 554.21 283.577 554.397C283.389 554.585 283.135 554.69 282.869 554.69Z" fill="black"/>
<path d="M104.869 535C107.489 535.16 312.539 534.93 315.349 535.08H322.509V537.61C319.359 537.53 197.829 537.85 194.819 537.49C192.372 537.433 189.937 537.866 187.659 538.763C185.381 539.66 183.305 541.004 181.554 542.715C179.802 544.426 178.41 546.47 177.46 548.726C176.51 550.983 176.021 553.407 176.021 555.855C176.021 558.303 176.51 560.727 177.46 562.984C178.41 565.24 179.802 567.284 181.554 568.995C183.305 570.706 185.381 572.05 187.659 572.947C189.937 573.844 192.372 574.277 194.819 574.22C196.329 574.22 320.889 574.22 322.509 574.22V576.76C272.959 576.7 155.619 576.92 104.869 576.76C77.4793 576.26 77.4393 535.47 104.869 535Z" fill="#ED5564"/>
<path d="M457.469 82V163H561.34L600.469 200V82H457.469Z" fill="#FCE054"/>
<path d="M575.969 113H473.969C473.572 113 473.19 112.842 472.909 112.561C472.628 112.279 472.469 111.898 472.469 111.5C472.469 111.102 472.628 110.721 472.909 110.439C473.19 110.158 473.572 110 473.969 110H575.969C576.367 110 576.749 110.158 577.03 110.439C577.311 110.721 577.469 111.102 577.469 111.5C577.469 111.898 577.311 112.279 577.03 112.561C576.749 112.842 576.367 113 575.969 113Z" fill="white"/>
<path d="M576.469 134.5H513.469C513.072 134.5 512.69 134.342 512.409 134.061C512.128 133.779 511.969 133.398 511.969 133C511.969 132.602 512.128 132.221 512.409 131.939C512.69 131.658 513.072 131.5 513.469 131.5H576.469C576.867 131.5 577.249 131.658 577.53 131.939C577.811 132.221 577.969 132.602 577.969 133C577.969 133.398 577.811 133.779 577.53 134.061C577.249 134.342 576.867 134.5 576.469 134.5Z" fill="white"/>
<path d="M173.769 432.45H173.669L148.139 430.74C148.012 431.034 147.794 431.28 147.517 431.442C147.24 431.603 146.919 431.671 146.6 431.637C146.281 431.602 145.982 431.466 145.746 431.249C145.51 431.032 145.35 430.745 145.289 430.43L106.389 233.43C106.317 233.071 106.379 232.697 106.563 232.38C106.747 232.063 107.041 231.825 107.389 231.71L201.589 201.95C201.828 201.873 202.082 201.857 202.329 201.904C202.575 201.951 202.806 202.06 202.999 202.22C203.195 202.379 203.347 202.586 203.44 202.821C203.533 203.055 203.564 203.31 203.529 203.56L175.229 431.18C175.177 431.531 175.001 431.851 174.734 432.084C174.466 432.317 174.124 432.447 173.769 432.45ZM147.769 427.71L172.409 429.36L200.249 205.47L109.549 234.12L147.769 427.71Z" fill="#ED5564"/>
<path d="M163.969 479.25C157.039 479.25 149.969 474.36 149.969 465.01C149.969 455.66 157.049 450.75 163.969 450.75C170.899 450.75 177.969 455.64 177.969 464.99C177.969 474.36 170.889 479.25 163.969 479.25ZM163.969 453.75C158.699 453.75 152.969 457.27 152.969 465.01C152.969 472.75 158.699 476.25 163.969 476.25C169.239 476.25 174.969 472.73 174.969 465C174.969 457.27 169.239 453.75 163.969 453.75Z" fill="#ED5564"/>
<path d="M113.97 265.77C113.744 265.768 113.523 265.717 113.32 265.62C112.962 265.447 112.687 265.14 112.556 264.765C112.425 264.39 112.447 263.978 112.619 263.62L131.379 224.62C131.563 224.281 131.87 224.025 132.237 223.907C132.604 223.788 133.002 223.815 133.35 223.982C133.697 224.149 133.967 224.444 134.103 224.805C134.238 225.166 134.23 225.565 134.08 225.92L115.33 264.92C115.206 265.175 115.012 265.39 114.772 265.54C114.531 265.691 114.253 265.77 113.97 265.77Z" fill="#ED5564"/>
<path d="M120.169 294.22C119.917 294.217 119.669 294.151 119.449 294.027C119.228 293.904 119.042 293.727 118.908 293.513C118.774 293.299 118.695 293.055 118.68 292.803C118.664 292.551 118.712 292.299 118.819 292.07L154.169 217.4C154.248 217.213 154.363 217.044 154.508 216.903C154.654 216.762 154.826 216.652 155.016 216.58C155.205 216.507 155.407 216.474 155.609 216.481C155.811 216.489 156.01 216.537 156.193 216.624C156.376 216.71 156.54 216.833 156.674 216.985C156.809 217.136 156.911 217.313 156.976 217.505C157.04 217.698 157.064 217.901 157.048 218.103C157.031 218.304 156.974 218.501 156.879 218.68L121.529 293.36C121.407 293.617 121.214 293.834 120.974 293.986C120.733 294.138 120.454 294.219 120.169 294.22Z" fill="#ED5564"/>
<path d="M127.09 332C126.879 332.001 126.671 331.957 126.48 331.87C126.296 331.791 126.131 331.676 125.993 331.532C125.855 331.388 125.747 331.217 125.676 331.031C125.605 330.844 125.573 330.645 125.58 330.446C125.588 330.247 125.635 330.051 125.72 329.87L179.3 209.48C179.379 209.297 179.493 209.131 179.638 208.993C179.782 208.855 179.952 208.748 180.139 208.677C180.325 208.606 180.524 208.573 180.723 208.581C180.923 208.588 181.119 208.635 181.3 208.72C181.481 208.801 181.645 208.917 181.781 209.062C181.918 209.206 182.024 209.376 182.095 209.562C182.165 209.748 182.199 209.946 182.193 210.145C182.187 210.343 182.141 210.539 182.06 210.72L128.48 331.11C128.36 331.378 128.165 331.605 127.918 331.763C127.671 331.922 127.383 332.004 127.09 332Z" fill="#ED5564"/>
<path d="M134.83 371.21C134.627 371.21 134.426 371.169 134.239 371.09C134.054 371.013 133.887 370.899 133.747 370.756C133.606 370.613 133.496 370.443 133.422 370.257C133.348 370.07 133.313 369.871 133.318 369.671C133.322 369.47 133.367 369.273 133.449 369.09L199.969 213.61C200.037 213.415 200.144 213.237 200.284 213.086C200.423 212.934 200.593 212.813 200.781 212.73C200.969 212.647 201.173 212.603 201.379 212.602C201.585 212.601 201.788 212.643 201.978 212.724C202.167 212.805 202.338 212.924 202.479 213.074C202.62 213.224 202.728 213.402 202.798 213.596C202.868 213.789 202.897 213.996 202.883 214.201C202.869 214.406 202.814 214.607 202.719 214.79L136.219 370.3C136.103 370.572 135.909 370.803 135.662 370.965C135.414 371.127 135.125 371.212 134.83 371.21Z" fill="#ED5564"/>
<path d="M142.849 400.31C142.643 400.31 142.44 400.269 142.249 400.19C142.066 400.111 141.9 399.996 141.762 399.852C141.623 399.708 141.515 399.539 141.442 399.353C141.37 399.167 141.335 398.968 141.339 398.769C141.344 398.569 141.388 398.372 141.469 398.19L190.379 285.61C190.537 285.244 190.834 284.956 191.204 284.808C191.575 284.661 191.988 284.667 192.354 284.825C192.72 284.983 193.009 285.28 193.156 285.65C193.303 286.02 193.297 286.434 193.139 286.8L144.219 399.39C144.107 399.661 143.917 399.893 143.674 400.057C143.43 400.221 143.143 400.309 142.849 400.31Z" fill="#ED5564"/>
<path d="M146.2 428.83C145.96 428.827 145.723 428.769 145.51 428.66C145.164 428.475 144.904 428.163 144.785 427.789C144.666 427.416 144.696 427.011 144.869 426.66L181.629 356.34C181.814 355.987 182.131 355.722 182.511 355.603C182.89 355.484 183.302 355.521 183.655 355.705C184.007 355.889 184.272 356.206 184.391 356.586C184.511 356.966 184.474 357.377 184.29 357.73L147.53 428C147.405 428.247 147.215 428.455 146.981 428.601C146.746 428.747 146.476 428.827 146.2 428.83Z" fill="#ED5564"/>
<path d="M161.429 431.63C161.16 431.627 160.896 431.553 160.666 431.414C160.435 431.275 160.245 431.077 160.117 430.841C159.988 430.604 159.925 430.337 159.935 430.068C159.944 429.799 160.025 429.537 160.169 429.31L175.59 405.31C175.697 405.145 175.835 405.002 175.997 404.89C176.159 404.778 176.342 404.699 176.535 404.658C176.728 404.616 176.926 404.613 177.12 404.649C177.314 404.685 177.499 404.758 177.664 404.865C177.83 404.972 177.973 405.111 178.085 405.273C178.197 405.435 178.275 405.618 178.317 405.81C178.358 406.003 178.361 406.202 178.325 406.396C178.29 406.59 178.216 406.774 178.109 406.94L162.689 430.94C162.553 431.15 162.366 431.323 162.146 431.443C161.926 431.564 161.68 431.628 161.429 431.63Z" fill="#ED5564"/>
<path d="M608.469 228.5C608.072 228.5 607.69 228.342 607.409 228.061C607.128 227.779 606.969 227.398 606.969 227V156C606.969 155.602 607.128 155.221 607.409 154.939C607.69 154.658 608.072 154.5 608.469 154.5C608.867 154.5 609.249 154.658 609.53 154.939C609.811 155.221 609.969 155.602 609.969 156V227C609.969 227.398 609.811 227.779 609.53 228.061C609.249 228.342 608.867 228.5 608.469 228.5Z" fill="#ED5564"/>
<path d="M258.969 157.77C252.289 157.77 245.509 153.21 245.469 144.51C245.429 135.81 252.289 131.23 258.969 131.23C265.649 131.23 272.429 135.79 272.469 144.49C272.429 153.21 265.649 157.77 258.969 157.77ZM258.969 134.23C253.969 134.23 248.499 137.45 248.469 144.51C248.439 151.57 253.929 154.77 258.969 154.77C264.009 154.77 269.429 151.56 269.469 144.5C269.509 137.44 263.969 134.23 258.969 134.23Z" fill="#FCE054"/>
<path d="M104.469 291.5C104.141 291.498 103.823 291.389 103.562 291.191C103.3 290.993 103.11 290.715 103.019 290.4L82.0195 214.4C81.9134 214.015 81.9644 213.605 82.1613 213.258C82.3583 212.911 82.685 212.656 83.0695 212.55C83.4541 212.444 83.8649 212.495 84.2119 212.692C84.5588 212.889 84.8133 213.215 84.9194 213.6L105.919 289.6C106.026 289.978 105.981 290.382 105.794 290.728C105.608 291.073 105.294 291.332 104.919 291.45C104.772 291.485 104.621 291.502 104.469 291.5Z" fill="#FCE054"/>
<path d="M619.639 557.67C619.376 557.669 619.118 557.6 618.889 557.47L602.509 548.01C602.178 547.812 601.935 547.493 601.833 547.12C601.731 546.748 601.776 546.35 601.959 546.01L611.419 529.63C611.517 529.459 611.648 529.308 611.804 529.188C611.96 529.068 612.139 528.98 612.33 528.93C612.715 528.829 613.124 528.883 613.469 529.08L629.849 538.54C630.181 538.738 630.423 539.057 630.526 539.43C630.628 539.802 630.583 540.2 630.399 540.54L620.939 556.92C620.736 557.261 620.411 557.511 620.03 557.62C619.902 557.651 619.771 557.668 619.639 557.67ZM605.31 546.16L619.09 554.16L627.09 540.37L613.31 532.42L605.31 546.16Z" fill="#ED5564"/>
<path d="M39.4696 428.5C39.0963 428.495 38.7388 428.349 38.4696 428.09C38.1806 427.817 38.0119 427.44 38.0006 427.042C37.9893 426.645 38.1364 426.259 38.4095 425.97L53.4095 409.97C53.685 409.691 54.059 409.53 54.4513 409.523C54.8436 409.516 55.223 409.663 55.5082 409.933C55.7933 410.202 55.9614 410.573 55.9767 410.965C55.9919 411.357 55.8531 411.739 55.5897 412.03L40.5897 428.03C40.4465 428.183 40.2727 428.303 40.0797 428.384C39.8867 428.465 39.6788 428.505 39.4696 428.5Z" fill="#ED5564"/>
</svg>
