<svg width="700" height="700" viewBox="0 0 700 700" fill="none" xmlns="http://www.w3.org/2000/svg">
<rect width="700" height="700" fill="white"/>
<path d="M600.039 243L541.039 242C540.774 242 540.52 241.895 540.332 241.707C540.145 241.52 540.039 241.265 540.039 241C540.039 240.735 540.145 240.48 540.332 240.293C540.52 240.105 540.774 240 541.039 240L600.039 241C600.305 241 600.559 241.105 600.746 241.293C600.934 241.48 601.039 241.735 601.039 242C601.039 242.265 600.934 242.52 600.746 242.707C600.559 242.895 600.305 243 600.039 243Z" fill="black"/>
<path d="M594.179 240.75L598.309 240.98L593.649 246.06C592.513 247.299 591.117 248.271 589.561 248.908C588.005 249.544 586.328 249.828 584.649 249.74L558.439 248.5C555.534 248.365 552.792 247.119 550.779 245.02L546.649 240.74H511.129L452.969 504.2L588.659 504.3L646.809 240.79L594.179 240.75Z" fill="#47CEC0"/>
<path d="M545.288 262.089L542.594 263.409L590.6 361.401L593.294 360.081L545.288 262.089Z" fill="white"/>
<path d="M569.759 264.548L567.089 265.914L589.161 309.067L591.832 307.701L569.759 264.548Z" fill="white"/>
<path d="M462.969 515.88C462.704 515.88 462.45 515.775 462.262 515.587C462.075 515.4 461.969 515.145 461.969 514.88C461.969 514.615 462.075 514.36 462.262 514.173C462.45 513.985 462.704 513.88 462.969 513.88L595.039 512.07L651.909 252.6C651.937 252.469 651.99 252.344 652.066 252.233C652.141 252.123 652.238 252.028 652.351 251.954C652.463 251.881 652.589 251.831 652.721 251.806C652.853 251.781 652.988 251.782 653.119 251.81C653.251 251.838 653.375 251.891 653.486 251.966C653.597 252.042 653.692 252.139 653.765 252.251C653.838 252.364 653.889 252.489 653.914 252.621C653.938 252.753 653.937 252.889 653.909 253.02L596.909 513.27C596.859 513.496 596.731 513.697 596.549 513.839C596.367 513.981 596.141 514.056 595.909 514.05L463.039 515.88H462.969Z" fill="black"/>
<path d="M96.0394 314C95.7742 314.007 95.5172 313.908 95.325 313.725C95.1328 313.542 95.0211 313.29 95.0145 313.025C95.0078 312.76 95.1068 312.503 95.2896 312.311C95.4725 312.118 95.7241 312.007 95.9893 312L167.249 308.2C167.381 308.193 167.512 308.211 167.636 308.255C167.76 308.299 167.875 308.366 167.972 308.454C168.07 308.542 168.15 308.648 168.207 308.766C168.264 308.885 168.297 309.014 168.304 309.145C168.311 309.276 168.293 309.408 168.249 309.532C168.206 309.656 168.138 309.77 168.05 309.868C167.963 309.966 167.856 310.046 167.738 310.103C167.619 310.16 167.491 310.193 167.359 310.2L96.0894 314.01L96.0394 314Z" fill="black"/>
<path d="M188.329 308.5L157.039 309.5L153.869 315.27C153.167 316.557 152.142 317.64 150.896 318.413C149.65 319.186 148.225 319.622 146.759 319.68L117.859 320.87C116.525 320.926 115.196 320.667 113.98 320.115C112.764 319.562 111.695 318.732 110.859 317.69L105.629 311.15L52.7292 312.85L119.099 574.41L254.709 570.06L188.329 308.5Z" fill="#FCE054"/>
<path d="M112.189 584.33C111.962 584.337 111.739 584.267 111.558 584.13C111.376 583.994 111.246 583.8 111.189 583.58L46.0393 325.24C46.0019 325.111 45.9911 324.975 46.0073 324.842C46.0236 324.708 46.0668 324.579 46.134 324.463C46.2013 324.346 46.2914 324.244 46.3989 324.163C46.5065 324.082 46.6291 324.024 46.7598 323.992C46.8904 323.959 47.0263 323.954 47.1592 323.975C47.292 323.997 47.4191 324.045 47.533 324.116C47.6468 324.188 47.7451 324.282 47.8218 324.393C47.8985 324.503 47.952 324.628 47.9792 324.76L112.979 582.32L245.039 580C245.305 580 245.559 580.105 245.746 580.293C245.934 580.48 246.039 580.735 246.039 581C246.039 581.265 245.934 581.52 245.746 581.707C245.559 581.895 245.305 582 245.039 582L112.189 584.33Z" fill="black"/>
<path d="M147.19 331.978L108.178 432.975L110.976 434.056L149.988 333.059L147.19 331.978Z" fill="white"/>
<path d="M118.262 352.015L93.2583 416.015L96.0526 417.106L121.056 353.107L118.262 352.015Z" fill="white"/>
<path d="M451.589 502C451.353 502.004 451.122 501.924 450.939 501.773C450.756 501.623 450.632 501.413 450.589 501.18L432.149 402.77L389.259 388.95C389.019 388.872 388.818 388.705 388.696 388.485C388.573 388.264 388.539 388.005 388.599 387.76C392.685 372.428 397.694 357.357 403.599 342.63C413.499 317.87 450.069 327.29 452.659 328H491.429C494.919 327.35 550.429 317.48 565.429 344.51C580.339 371.35 597.279 463.82 597.989 467.75C598.013 467.881 598.011 468.016 597.982 468.146C597.954 468.277 597.9 468.4 597.824 468.51C597.748 468.619 597.651 468.713 597.538 468.785C597.426 468.857 597.301 468.906 597.169 468.93C597.038 468.954 596.903 468.951 596.773 468.923C596.643 468.894 596.519 468.841 596.409 468.764C596.3 468.688 596.206 468.591 596.134 468.479C596.062 468.367 596.013 468.241 595.989 468.11C595.809 467.11 578.389 372.03 563.639 345.49C549.169 319.43 492.279 329.87 491.699 329.98H491.519H452.519C452.427 329.995 452.332 329.995 452.239 329.98C451.869 329.87 414.989 319.53 405.449 343.39C399.69 357.758 394.771 372.45 390.719 387.39L433.279 401.1C433.45 401.156 433.602 401.258 433.72 401.393C433.838 401.529 433.917 401.693 433.949 401.87L452.499 500.87C452.546 501.13 452.488 501.398 452.338 501.615C452.189 501.832 451.959 501.981 451.699 502.03L451.589 502Z" fill="black"/>
<path d="M489.879 235.93C489.879 235.93 444.539 196.01 427.749 212.09C410.959 228.17 429.039 249.5 429.039 249.5L487.499 310.34C487.499 310.34 486.449 321.76 512.669 330.27C547.979 341.74 575.529 311.91 572.669 294.14C569.809 276.37 547.469 274.08 552.459 262.14C560.349 243.08 544.429 214.64 489.879 235.93Z" fill="#201000"/>
<path d="M490.739 330.43L487.459 310.34C487.459 310.34 499.709 296.2 497.979 285.57C497.979 285.57 526.73 283.3 527.38 265C528.03 246.7 512.31 239.55 502.64 247.2L492.959 254.84C492.959 254.84 472.489 255.75 470.199 234.29C470.199 234.29 433.629 218.41 425.449 250.08C417.269 281.75 416.789 308.52 425.449 316.82C434.109 325.12 449.64 323.82 449.64 323.82L451.759 336.82C451.759 336.82 469.939 366.58 490.739 330.43Z" fill="white"/>
<path d="M469.119 349.33C458.349 349.33 451.179 337.81 450.879 337.33C450.811 337.22 450.767 337.098 450.749 336.97L448.749 324.86C445.199 325.01 432.439 324.99 424.749 317.56C415.989 309.14 415.889 283.19 424.509 249.85C426.719 241.27 431.189 235.29 437.779 232.07C451.649 225.3 469.849 233.07 470.619 233.39C470.78 233.461 470.92 233.574 471.023 233.716C471.127 233.858 471.191 234.025 471.209 234.2C473.209 253.28 490.049 253.91 492.629 253.87L502.039 246.43C504.303 244.639 507.036 243.539 509.909 243.262C512.783 242.985 515.675 243.544 518.239 244.87C524.929 248.26 528.729 255.8 528.399 265.05C527.789 282.23 504.399 285.87 499.109 286.48C499.949 296.48 490.429 308.39 488.539 310.65L491.739 330.29C491.776 330.517 491.734 330.75 491.619 330.95C484.619 343.05 477.159 349.24 469.339 349.35L469.119 349.33ZM452.689 336.43C453.569 337.79 460.189 347.43 469.299 347.33C476.299 347.23 483.159 341.48 489.689 330.24L486.469 310.5C486.445 310.355 486.453 310.206 486.493 310.064C486.532 309.923 486.603 309.791 486.699 309.68C486.819 309.54 498.629 295.78 496.989 285.73C496.967 285.593 496.973 285.453 497.007 285.319C497.042 285.185 497.104 285.059 497.189 284.95C497.275 284.841 497.382 284.751 497.504 284.685C497.627 284.62 497.761 284.581 497.899 284.57C498.179 284.57 525.769 282.16 526.379 264.96C526.679 256.51 523.289 249.66 517.319 246.63C515.095 245.476 512.584 244.989 510.09 245.229C507.596 245.468 505.223 246.424 503.259 247.98L493.579 255.62C493.417 255.751 493.218 255.828 493.009 255.84C492.799 255.84 471.949 256.52 469.269 234.99C466.199 233.78 450.409 228.1 438.629 233.85C432.629 236.85 428.479 242.35 426.419 250.33C418.119 282.48 417.999 308.33 426.119 316.1C434.239 323.87 449.379 322.81 449.529 322.79C449.781 322.769 450.031 322.844 450.229 323C450.428 323.156 450.56 323.381 450.599 323.63L452.689 336.43Z" fill="black"/>
<path d="M439.699 286.37C439.561 286.368 439.425 286.337 439.299 286.28C435.049 284.41 432.499 281.6 431.689 277.95C429.689 269.05 439.039 258.38 439.439 257.95C439.615 257.751 439.864 257.63 440.129 257.614C440.394 257.599 440.655 257.689 440.854 257.865C441.053 258.041 441.174 258.29 441.19 258.555C441.206 258.82 441.115 259.081 440.939 259.28C440.849 259.38 431.939 269.63 433.649 277.54C434.309 280.54 436.479 282.87 440.109 284.47C440.229 284.523 440.338 284.599 440.429 284.695C440.519 284.79 440.59 284.902 440.638 285.024C440.685 285.147 440.708 285.278 440.705 285.409C440.702 285.54 440.673 285.67 440.619 285.79C440.538 285.965 440.408 286.113 440.245 286.216C440.082 286.319 439.892 286.372 439.699 286.37Z" fill="black"/>
<path d="M461.699 302.19C461.434 302.19 461.18 302.085 460.992 301.897C460.805 301.71 460.699 301.455 460.699 301.19C460.699 300.925 460.805 300.67 460.992 300.483C461.18 300.295 461.434 300.19 461.699 300.19C462.843 300.179 463.972 299.933 465.016 299.467C466.061 299 466.998 298.324 467.769 297.48C471.039 293.8 470.649 287.58 470.639 287.48C470.63 287.349 470.646 287.217 470.688 287.092C470.73 286.967 470.795 286.851 470.882 286.752C470.968 286.652 471.073 286.571 471.191 286.512C471.309 286.454 471.438 286.419 471.569 286.41C471.701 286.4 471.833 286.417 471.958 286.459C472.083 286.5 472.198 286.566 472.298 286.653C472.397 286.739 472.478 286.844 472.537 286.962C472.596 287.08 472.631 287.209 472.639 287.34C472.639 287.62 473.089 294.44 469.269 298.76C468.324 299.809 467.173 300.651 465.888 301.234C464.603 301.817 463.211 302.129 461.799 302.15L461.699 302.19Z" fill="black"/>
<path d="M512.319 266.64C512.08 266.643 511.847 266.56 511.663 266.406C511.48 266.252 511.358 266.037 511.319 265.8C511.319 265.74 510.849 263.24 509.049 262.5C507.589 261.9 505.449 262.57 502.859 264.44C502.753 264.518 502.632 264.574 502.504 264.605C502.376 264.636 502.244 264.641 502.114 264.621C501.983 264.6 501.859 264.554 501.747 264.486C501.634 264.417 501.537 264.327 501.459 264.22C501.382 264.113 501.327 263.992 501.296 263.864C501.266 263.735 501.262 263.602 501.283 263.472C501.304 263.342 501.351 263.217 501.421 263.105C501.491 262.994 501.582 262.897 501.689 262.82C504.919 260.49 507.689 259.76 509.819 260.65C512.669 261.83 513.269 265.33 513.289 265.47C513.333 265.731 513.271 265.999 513.117 266.215C512.963 266.43 512.73 266.576 512.469 266.62L512.319 266.64Z" fill="black"/>
<path d="M471.819 247.76C471.612 247.762 471.409 247.699 471.239 247.58C469.597 246.516 467.627 246.08 465.689 246.35C465.424 246.392 465.153 246.328 464.935 246.17C464.718 246.013 464.572 245.775 464.529 245.51C464.487 245.245 464.551 244.974 464.709 244.756C464.867 244.538 465.104 244.392 465.369 244.35C467.816 244.004 470.305 244.562 472.369 245.92C472.477 245.997 472.568 246.094 472.638 246.205C472.707 246.317 472.754 246.442 472.776 246.572C472.797 246.702 472.792 246.835 472.762 246.964C472.732 247.092 472.677 247.213 472.599 247.32C472.513 247.449 472.397 247.556 472.261 247.632C472.126 247.709 471.975 247.752 471.819 247.76Z" fill="black"/>
<path d="M465.889 258.02C466.884 258.02 467.689 257.214 467.689 256.22C467.689 255.226 466.884 254.42 465.889 254.42C464.895 254.42 464.089 255.226 464.089 256.22C464.089 257.214 464.895 258.02 465.889 258.02Z" fill="#201000"/>
<path d="M436.179 254.38C437.173 254.38 437.979 253.574 437.979 252.58C437.979 251.586 437.173 250.78 436.179 250.78C435.185 250.78 434.379 251.586 434.379 252.58C434.379 253.574 435.185 254.38 436.179 254.38Z" fill="#201000"/>
<path d="M440.349 241.98C440.141 241.979 439.938 241.912 439.769 241.79C439.599 241.67 436.249 239.35 433.769 241.68C433.673 241.77 433.561 241.84 433.438 241.887C433.315 241.933 433.184 241.955 433.053 241.951C432.787 241.942 432.536 241.829 432.354 241.635C432.173 241.441 432.075 241.184 432.084 240.918C432.092 240.653 432.206 240.402 432.399 240.22C435.399 237.45 439.299 238.97 440.949 240.17C441.163 240.324 441.308 240.557 441.351 240.818C441.394 241.078 441.332 241.345 441.179 241.56C441.085 241.692 440.961 241.799 440.816 241.872C440.672 241.946 440.511 241.982 440.349 241.98Z" fill="black"/>
<path d="M499.039 272.7H498.849C498.716 272.677 498.588 272.628 498.475 272.555C498.361 272.481 498.263 272.386 498.187 272.273C498.112 272.161 498.059 272.035 498.034 271.902C498.008 271.769 498.01 271.632 498.039 271.5C501.509 254.15 515.369 253.82 515.509 253.82C515.774 253.82 516.029 253.925 516.216 254.113C516.404 254.3 516.509 254.555 516.509 254.82C516.509 255.085 516.404 255.34 516.216 255.527C516.029 255.715 515.774 255.82 515.509 255.82C514.989 255.82 503.119 256.19 499.979 271.89C499.937 272.111 499.821 272.311 499.65 272.458C499.48 272.605 499.264 272.691 499.039 272.7Z" fill="black"/>
<path d="M490.749 235.6C490.749 235.6 500.109 241.12 494.749 258.2C489.389 275.28 494.909 259.2 494.909 259.2L490.969 259.84C492.296 255.358 492.594 250.635 491.841 246.023C491.087 241.41 489.303 237.027 486.619 233.2L490.749 235.6Z" fill="white"/>
<path d="M568.449 506.36C568.226 506.369 568.006 506.303 567.825 506.172C567.644 506.042 567.512 505.854 567.449 505.64L534.589 392.28C534.515 392.025 534.545 391.752 534.673 391.519C534.8 391.287 535.015 391.114 535.269 391.04C535.524 390.966 535.797 390.996 536.03 391.123C536.263 391.251 536.435 391.465 536.509 391.72L569.369 505.08C569.444 505.335 569.414 505.608 569.286 505.841C569.159 506.073 568.944 506.246 568.689 506.32C568.611 506.343 568.53 506.356 568.449 506.36Z" fill="black"/>
<path d="M541.909 414.8C541.686 414.809 541.466 414.743 541.285 414.612C541.104 414.482 540.972 414.294 540.909 414.08C540.835 413.827 540.863 413.554 540.989 413.322C541.114 413.09 541.327 412.916 541.579 412.84L582.579 400.65C582.833 400.575 583.105 400.604 583.337 400.729C583.57 400.855 583.743 401.067 583.819 401.32C583.858 401.446 583.871 401.578 583.858 401.71C583.845 401.841 583.806 401.968 583.744 402.084C583.682 402.2 583.598 402.303 583.495 402.387C583.393 402.47 583.276 402.532 583.149 402.57L542.149 414.75C542.072 414.776 541.991 414.793 541.909 414.8Z" fill="black"/>
<path d="M374.239 312.14L372.239 312C372.239 311.87 373.239 298.22 373.979 281.31C374.249 275.31 372.559 271.25 371.269 271.1C371.129 271.1 367.789 270.9 364.409 287.95L362.409 287.57C364.919 274.9 367.949 268.68 371.469 269.11C374.749 269.51 376.199 275.6 375.929 281.41C375.199 298.34 374.249 312.01 374.239 312.14Z" fill="black"/>
<path d="M362.229 310.43C361.792 300.302 362.221 290.155 363.509 280.1C364.779 271.1 363.389 266.28 361.559 265.57C360.149 265.02 357.889 266.78 355.559 270.26L353.909 269.13C357.769 263.45 360.609 263.05 362.319 263.71C365.619 264.98 366.819 271.22 365.529 280.38C364.259 290.303 363.837 300.316 364.269 310.31L362.229 310.43Z" fill="black"/>
<path d="M350.669 313.7C350.669 313.5 348.579 294.01 352.099 278.39C353.669 271.39 351.809 264.98 349.229 264.27C347.609 263.82 344.969 266.07 342.509 273.71L340.609 273.09C344.019 262.5 347.799 261.81 349.749 262.34C353.749 263.44 355.749 271.14 354.049 278.82C350.609 294.12 352.639 313.29 352.659 313.48L350.669 313.7Z" fill="black"/>
<path d="M322.349 346.78L320.349 346.61L320.599 342.53H320.839C322.319 330.53 326.929 294.79 331.069 280.7C333.509 272.4 336.309 271.2 338.219 271.65C342.069 272.56 344.049 281.24 342.439 290.23C340.878 298.65 340.178 307.208 340.349 315.77L338.349 315.88C338.173 307.164 338.883 298.452 340.469 289.88C342.029 281.17 339.929 274.11 337.759 273.59C336.679 273.34 334.759 275.19 332.989 281.26C328.039 298.1 322.409 346.3 322.349 346.78Z" fill="black"/>
<path d="M372.859 355.15L370.859 355.01C371.019 352.62 371.109 350.49 371.199 348.44C371.669 337.84 371.949 331.44 381.199 322.14C382.839 320.49 384.399 318.96 385.849 317.54C393.959 309.6 397.749 305.65 395.259 302.75C393.099 300.24 382.149 307.1 375.439 312.52L375.109 312.78H374.689C363.189 311.44 358.979 325.24 358.939 325.37L357.019 324.81C357.019 324.66 361.639 309.59 374.499 310.75C378.169 307.83 392.689 296.75 396.769 301.5C400.599 305.95 395.569 310.87 387.249 319.02C385.799 320.44 384.249 321.96 382.609 323.6C373.889 332.36 373.609 338.12 373.169 348.6C373.129 350.5 373.039 352.74 372.859 355.15Z" fill="black"/>
<path d="M376.519 471.87C368.564 471.937 360.817 469.331 354.519 464.47C333.949 448.78 324.039 409.59 325.059 347.98C325.059 347.715 325.165 347.46 325.352 347.273C325.54 347.085 325.794 346.98 326.059 346.98C326.324 346.98 326.579 347.085 326.766 347.273C326.954 347.46 327.059 347.715 327.059 347.98C326.059 408.91 335.699 447.56 355.729 462.84C367.329 471.69 380.109 470.53 388.729 468C410.319 461.7 429.049 410.27 431.729 402.6L390.669 389.23L381.969 418.23C381.908 418.433 381.784 418.611 381.615 418.738C381.446 418.866 381.241 418.936 381.029 418.94C380.811 418.951 380.595 418.891 380.415 418.768C380.234 418.646 380.099 418.467 380.029 418.26C379.949 418.01 371.969 393.67 370.799 355.05L371.419 345.97C371.438 345.705 371.561 345.458 371.762 345.283C371.962 345.109 372.224 345.021 372.489 345.04C372.754 345.059 373.002 345.182 373.176 345.382C373.35 345.583 373.438 345.845 373.419 346.11L372.799 355.11C373.719 385.32 378.799 406.71 380.989 414.45L388.989 387.67C389.028 387.542 389.092 387.422 389.178 387.319C389.264 387.216 389.37 387.131 389.489 387.07C389.607 387.009 389.736 386.973 389.868 386.963C390 386.952 390.133 386.968 390.259 387.01L433.259 401.01C433.384 401.051 433.499 401.116 433.599 401.202C433.699 401.288 433.78 401.393 433.839 401.51C433.9 401.628 433.936 401.757 433.946 401.889C433.957 402.021 433.941 402.154 433.899 402.28C433.079 404.75 413.449 462.85 389.229 469.92C385.104 471.16 380.826 471.817 376.519 471.87Z" fill="black"/>
<path d="M433.379 404.83C433.134 404.832 432.896 404.743 432.712 404.581C432.527 404.418 432.409 404.194 432.379 403.95L429.039 375.12C429.024 374.989 429.034 374.856 429.07 374.728C429.105 374.601 429.166 374.482 429.247 374.378C429.329 374.274 429.43 374.187 429.546 374.122C429.661 374.057 429.788 374.016 429.919 374C430.051 373.984 430.184 373.995 430.311 374.03C430.438 374.066 430.558 374.126 430.662 374.208C430.766 374.29 430.853 374.391 430.917 374.506C430.982 374.622 431.024 374.749 431.039 374.88L434.389 403.72C434.405 403.851 434.394 403.983 434.358 404.11C434.322 404.236 434.262 404.355 434.18 404.458C434.098 404.561 433.997 404.647 433.882 404.711C433.767 404.775 433.64 404.815 433.509 404.83H433.379Z" fill="black"/>
<path d="M387.039 444C386.807 444.005 386.58 443.929 386.397 443.785C386.215 443.641 386.088 443.437 386.039 443.21L380.429 416.93C380.402 416.799 380.402 416.663 380.427 416.532C380.452 416.4 380.503 416.275 380.577 416.163C380.651 416.051 380.746 415.955 380.857 415.88C380.968 415.804 381.093 415.752 381.224 415.725C381.356 415.698 381.491 415.697 381.623 415.723C381.754 415.748 381.88 415.799 381.991 415.873C382.103 415.947 382.2 416.042 382.275 416.153C382.35 416.264 382.402 416.389 382.429 416.52L388.049 442.79C388.077 442.919 388.079 443.052 388.056 443.181C388.032 443.311 387.983 443.434 387.912 443.545C387.84 443.656 387.747 443.751 387.639 443.826C387.53 443.9 387.408 443.953 387.279 443.98L387.039 444Z" fill="black"/>
<path d="M432.039 395C431.943 395.014 431.845 395.014 431.749 395L391.039 382.64C390.913 382.603 390.796 382.541 390.694 382.458C390.592 382.375 390.507 382.273 390.444 382.157C390.381 382.042 390.342 381.915 390.328 381.784C390.315 381.653 390.327 381.521 390.364 381.395C390.402 381.269 390.464 381.151 390.546 381.049C390.629 380.947 390.731 380.862 390.847 380.8C390.963 380.737 391.089 380.698 391.22 380.684C391.351 380.67 391.483 380.683 391.609 380.72L432.339 393.04C432.471 393.059 432.597 393.104 432.711 393.172C432.825 393.239 432.925 393.329 433.004 393.435C433.083 393.542 433.141 393.663 433.174 393.791C433.206 393.92 433.213 394.054 433.194 394.185C433.175 394.316 433.131 394.443 433.063 394.557C432.995 394.671 432.905 394.77 432.799 394.85C432.693 394.929 432.572 394.987 432.443 395.019C432.315 395.052 432.181 395.059 432.049 395.04L432.039 395Z" fill="black"/>
<path d="M540.369 409.5C540.238 409.52 540.104 409.513 539.975 409.481C539.846 409.449 539.725 409.392 539.618 409.313C539.402 409.154 539.259 408.915 539.219 408.65C539.179 408.385 539.247 408.115 539.406 407.899C539.566 407.683 539.804 407.54 540.069 407.5L581.069 394.61C581.197 394.557 581.335 394.531 581.474 394.534C581.612 394.537 581.749 394.569 581.874 394.628C582 394.686 582.112 394.77 582.204 394.874C582.295 394.979 582.364 395.101 582.405 395.233C582.447 395.365 582.461 395.504 582.446 395.642C582.431 395.78 582.388 395.913 582.318 396.033C582.249 396.153 582.156 396.258 582.044 396.34C581.932 396.422 581.804 396.48 581.669 396.51L540.669 409.41C540.574 409.456 540.473 409.486 540.369 409.5Z" fill="black"/>
<path d="M469.879 354.93C467.483 354.901 465.1 354.565 462.789 353.93C456.349 352.23 452.069 349.21 450.069 344.93C447.219 338.87 450.069 332.62 450.179 332.35C450.292 332.11 450.495 331.925 450.745 331.835C450.994 331.745 451.269 331.757 451.509 331.87C451.747 331.983 451.93 332.185 452.02 332.432C452.11 332.679 452.099 332.951 451.989 333.19C451.989 333.25 449.429 338.89 451.879 344.1C453.629 347.8 457.469 350.45 463.289 351.98C470.289 353.84 476.669 352.8 481.619 348.98C487.429 344.5 491.039 336.44 491.039 327.98C491.039 327.715 491.145 327.46 491.332 327.273C491.52 327.085 491.774 326.98 492.039 326.98C492.304 326.98 492.559 327.085 492.746 327.273C492.934 327.46 493.039 327.715 493.039 327.98C493.039 337.08 489.129 345.75 482.839 350.59C479.133 353.459 474.566 354.988 469.879 354.93Z" fill="black"/>
<path d="M215.039 398L196.929 395.59L229.039 425L238.139 412.24L250.039 425L264.529 396.04L254.039 398H215.039Z" fill="white"/>
<path d="M250.039 426C249.902 426 249.767 425.971 249.641 425.916C249.516 425.861 249.403 425.781 249.309 425.68L238.239 413.81L229.849 425.58C229.767 425.695 229.661 425.79 229.538 425.861C229.416 425.932 229.28 425.976 229.139 425.99C228.999 426.006 228.857 425.992 228.723 425.949C228.588 425.905 228.464 425.834 228.359 425.74L196.259 396.33C196.103 396.186 195.996 395.996 195.954 395.788C195.913 395.579 195.939 395.363 196.029 395.17C196.117 394.984 196.26 394.829 196.439 394.727C196.618 394.625 196.824 394.58 197.029 394.6L215.079 397H253.919L264.309 395.06C264.492 395.025 264.681 395.043 264.855 395.11C265.029 395.177 265.181 395.291 265.293 395.44C265.405 395.589 265.474 395.766 265.491 395.951C265.508 396.137 265.473 396.323 265.389 396.49L250.899 425.49C250.827 425.634 250.721 425.758 250.59 425.852C250.46 425.946 250.309 426.007 250.149 426.03L250.039 426ZM199.949 397L228.879 423.5L237.329 411.66C237.415 411.539 237.527 411.438 237.657 411.365C237.787 411.293 237.931 411.25 238.079 411.24C238.226 411.231 238.372 411.253 238.509 411.307C238.645 411.361 238.769 411.444 238.869 411.55L249.789 423.27L262.729 397.4L254.219 398.98H254.039H214.909L199.949 397Z" fill="black"/>
<path d="M255.039 571C254.956 571.01 254.872 571.01 254.789 571C254.662 570.967 254.542 570.91 254.437 570.831C254.331 570.752 254.243 570.653 254.176 570.539C254.109 570.426 254.065 570.301 254.047 570.17C254.029 570.04 254.036 569.907 254.069 569.78L281.069 465.78C281.114 465.606 281.204 465.448 281.331 465.321C281.457 465.195 281.616 465.105 281.789 465.06L315.789 456.31C311.738 441.402 306.826 426.74 301.079 412.4C291.539 388.54 254.659 398.88 254.289 398.99C254.197 399.005 254.102 399.005 254.009 398.99H215.009H214.819C214.249 398.88 157.359 388.44 142.879 414.5C128.139 441.04 110.719 536.16 110.539 537.12C110.492 537.385 110.34 537.621 110.119 537.774C109.898 537.928 109.625 537.988 109.359 537.94C109.094 537.892 108.859 537.741 108.705 537.52C108.551 537.299 108.492 537.025 108.539 536.76C109.259 532.83 126.199 440.36 141.109 413.52C156.109 386.52 211.589 396.36 215.109 397.01H253.879C256.479 396.3 293.039 386.88 302.949 411.64C308.855 426.367 313.864 441.438 317.949 456.77C318.013 457.026 317.973 457.297 317.838 457.523C317.704 457.75 317.485 457.914 317.229 457.98L282.799 466.83L256.039 570.25C255.983 570.47 255.853 570.664 255.671 570.8C255.489 570.937 255.266 571.007 255.039 571Z" fill="black"/>
<path d="M250.039 296C250.039 296 270.039 288 263.039 272C256.039 256 239.039 264 232.039 271C232.039 271 219.039 253 203.039 261C187.039 269 192.039 283 192.039 283C192.039 283 165.039 272 157.039 287C149.039 302 157.039 314 157.039 314C157.039 314 140.039 368.93 225.039 358C295.039 349 250.039 296 250.039 296Z" fill="#201000"/>
<path d="M214.569 397.87V377.5C214.569 377.5 200.199 365.5 200.199 354.75C200.199 354.75 171.459 357.14 167.869 339.18C164.279 321.22 178.639 311.64 189.419 317.63L200.199 323.63C200.199 323.63 220.549 321.24 219.359 299.68C219.359 299.68 252.889 278.13 266.059 308.07C279.229 338.01 284.059 364.35 276.839 373.93C269.619 383.51 254.039 384.69 254.039 384.69V397.87C254.039 397.87 240.909 430.2 214.569 397.87Z" fill="white"/>
<path d="M236.509 413.24C229.399 413.24 221.769 408.29 213.789 398.5C213.646 398.321 213.568 398.099 213.569 397.87V377.97C211.339 376.04 200.009 365.77 199.239 355.82C193.879 356.08 170.239 356.24 166.879 339.39C165.069 330.31 167.599 322.25 173.659 317.83C175.977 316.106 178.744 315.088 181.626 314.898C184.509 314.708 187.385 315.355 189.909 316.76L200.389 322.59C202.969 322.19 219.389 318.89 218.389 299.73C218.379 299.553 218.416 299.376 218.497 299.218C218.578 299.059 218.7 298.926 218.849 298.83C219.549 298.38 236.259 287.83 251.039 292.25C258.039 294.36 263.439 299.55 267.039 307.65C280.909 339.17 285.039 364.79 277.709 374.52C271.269 383.09 258.709 385.17 255.149 385.6V397.87C255.151 397.997 255.127 398.123 255.079 398.24C254.859 398.78 249.579 411.46 238.809 413.07C238.048 413.185 237.279 413.242 236.509 413.24ZM215.569 397.5C223.819 407.55 231.519 412.11 238.439 411.09C247.439 409.75 252.439 399.09 253.079 397.65V384.65C253.079 384.396 253.174 384.152 253.347 383.967C253.52 383.781 253.756 383.668 254.009 383.65C254.159 383.65 269.209 382.37 276.009 373.27C282.809 364.17 278.489 338.8 265.109 308.41C261.789 300.86 256.849 296.05 250.409 294.11C237.859 290.33 223.189 298.48 220.349 300.17C221.179 321.85 200.499 324.54 200.279 324.57C200.072 324.594 199.862 324.552 199.679 324.45L188.899 318.45C186.71 317.232 184.215 316.673 181.716 316.84C179.216 317.007 176.818 317.892 174.809 319.39C169.399 323.34 167.159 330.64 168.809 338.93C172.179 355.83 199.809 353.73 200.069 353.7C200.207 353.688 200.346 353.706 200.477 353.75C200.607 353.795 200.728 353.866 200.829 353.96C200.933 354.053 201.016 354.168 201.072 354.295C201.129 354.423 201.159 354.56 201.159 354.7C201.159 364.88 215.029 376.57 215.159 376.7C215.272 376.794 215.363 376.912 215.425 377.045C215.487 377.178 215.52 377.323 215.519 377.47L215.569 397.5Z" fill="black"/>
<path d="M257.679 352.18C257.512 352.18 257.347 352.137 257.201 352.057C257.054 351.977 256.93 351.861 256.839 351.72C256.696 351.498 256.645 351.229 256.7 350.97C256.754 350.712 256.909 350.485 257.129 350.34C260.449 348.17 262.219 345.52 262.389 342.46C262.829 334.38 252.389 325.69 252.249 325.61C252.044 325.442 251.913 325.198 251.887 324.934C251.861 324.67 251.941 324.406 252.109 324.2C252.278 323.994 252.521 323.864 252.785 323.838C253.05 323.812 253.314 323.892 253.519 324.06C253.979 324.44 264.879 333.47 264.389 342.57C264.189 346.3 262.109 349.48 258.219 352.02C258.058 352.124 257.871 352.179 257.679 352.18Z" fill="black"/>
<path d="M237.159 365.42C234.813 365.465 232.527 364.674 230.709 363.19C226.239 359.54 225.569 352.74 225.549 352.45C225.525 352.185 225.608 351.921 225.778 351.717C225.949 351.512 226.194 351.384 226.459 351.36C226.724 351.336 226.988 351.419 227.193 351.589C227.397 351.76 227.525 352.005 227.549 352.27C227.549 352.33 228.169 358.54 231.989 361.65C232.889 362.356 233.923 362.87 235.029 363.161C236.135 363.451 237.289 363.512 238.419 363.34C238.55 363.326 238.683 363.337 238.81 363.374C238.937 363.411 239.056 363.472 239.159 363.555C239.262 363.638 239.347 363.74 239.411 363.856C239.475 363.971 239.515 364.099 239.529 364.23C239.544 364.361 239.532 364.494 239.495 364.621C239.458 364.748 239.397 364.866 239.314 364.969C239.231 365.072 239.129 365.158 239.014 365.222C238.898 365.285 238.771 365.326 238.639 365.34C238.148 365.396 237.654 365.423 237.159 365.42Z" fill="black"/>
<path d="M182.829 338.39C182.564 338.39 182.31 338.285 182.122 338.097C181.935 337.91 181.829 337.655 181.829 337.39C181.829 337.23 181.829 333.69 184.479 332.07C186.479 330.84 189.289 331.12 192.859 332.9C193.097 333.018 193.277 333.226 193.362 333.477C193.446 333.728 193.427 334.003 193.309 334.24C193.191 334.477 192.984 334.658 192.732 334.742C192.481 334.827 192.207 334.808 191.969 334.69C189.109 333.26 186.889 332.94 185.539 333.76C183.869 334.76 183.829 337.36 183.829 337.39C183.829 337.521 183.803 337.651 183.753 337.773C183.703 337.894 183.629 338.004 183.536 338.097C183.444 338.19 183.333 338.264 183.212 338.314C183.091 338.364 182.961 338.39 182.829 338.39Z" fill="black"/>
<path d="M228.759 309.25C228.628 309.251 228.497 309.226 228.375 309.176C228.254 309.126 228.143 309.053 228.049 308.96C227.956 308.867 227.881 308.756 227.83 308.635C227.78 308.513 227.753 308.382 227.753 308.25C227.753 308.118 227.78 307.987 227.83 307.865C227.881 307.744 227.956 307.633 228.049 307.54C229.878 305.853 232.262 304.896 234.749 304.85C235.014 304.85 235.269 304.955 235.456 305.143C235.644 305.33 235.749 305.585 235.749 305.85C235.749 306.115 235.644 306.37 235.456 306.557C235.269 306.745 235.014 306.85 234.749 306.85C232.789 306.891 230.909 307.64 229.459 308.96C229.273 309.145 229.022 309.249 228.759 309.25Z" fill="black"/>
<path d="M238.139 320.43C239.134 320.43 239.939 319.624 239.939 318.63C239.939 317.636 239.134 316.83 238.139 316.83C237.145 316.83 236.339 317.636 236.339 318.63C236.339 319.624 237.145 320.43 238.139 320.43Z" fill="#201000"/>
<path d="M253.879 315.05C254.874 315.05 255.679 314.244 255.679 313.25C255.679 312.256 254.874 311.45 253.879 311.45C252.885 311.45 252.079 312.256 252.079 313.25C252.079 314.244 252.885 315.05 253.879 315.05Z" fill="#201000"/>
<path d="M244.889 304.5C244.692 304.499 244.498 304.44 244.335 304.329C244.171 304.219 244.043 304.062 243.968 303.879C243.893 303.696 243.874 303.495 243.914 303.301C243.953 303.107 244.049 302.929 244.189 302.79C245.629 301.35 249.249 299.22 252.629 301.47C252.746 301.539 252.848 301.632 252.928 301.741C253.008 301.851 253.065 301.976 253.095 302.109C253.126 302.242 253.129 302.379 253.104 302.513C253.079 302.646 253.027 302.774 252.952 302.887C252.876 303 252.778 303.096 252.664 303.17C252.55 303.244 252.422 303.294 252.288 303.317C252.154 303.34 252.016 303.335 251.884 303.303C251.752 303.27 251.628 303.212 251.519 303.13C248.669 301.23 245.719 304.13 245.599 304.21C245.506 304.303 245.395 304.376 245.273 304.426C245.151 304.476 245.021 304.501 244.889 304.5Z" fill="black"/>
<path d="M196.929 342.24C196.727 342.239 196.529 342.176 196.363 342.06C196.197 341.944 196.07 341.78 195.999 341.59C190.349 326.52 178.199 328.21 178.079 328.23C177.948 328.25 177.814 328.243 177.685 328.211C177.556 328.179 177.435 328.122 177.328 328.043C177.113 327.884 176.969 327.645 176.929 327.38C176.889 327.115 176.957 326.845 177.116 326.629C177.276 326.413 177.514 326.27 177.779 326.23C177.919 326.23 191.659 324.3 197.869 340.87C197.96 341.118 197.949 341.392 197.838 341.632C197.728 341.871 197.527 342.058 197.279 342.15C197.17 342.205 197.051 342.236 196.929 342.24Z" fill="black"/>
<path d="M138.179 575.36C138.087 575.375 137.992 575.375 137.9 575.36C137.773 575.323 137.656 575.262 137.553 575.18C137.451 575.098 137.366 574.996 137.303 574.881C137.239 574.766 137.2 574.639 137.185 574.509C137.171 574.378 137.183 574.246 137.219 574.12L170.039 460.72C170.076 460.594 170.137 460.476 170.22 460.374C170.302 460.272 170.404 460.186 170.519 460.123C170.634 460.06 170.76 460.02 170.891 460.006C171.021 459.992 171.153 460.003 171.279 460.04C171.405 460.077 171.523 460.138 171.626 460.22C171.728 460.302 171.813 460.404 171.876 460.519C171.939 460.634 171.979 460.761 171.993 460.891C172.008 461.022 171.996 461.154 171.959 461.28L139.139 574.64C139.079 574.848 138.952 575.03 138.779 575.16C138.606 575.29 138.396 575.36 138.179 575.36Z" fill="black"/>
<path d="M164.719 483.8C164.624 483.798 164.529 483.781 164.439 483.75L123.439 471.57C123.313 471.532 123.195 471.47 123.093 471.387C122.991 471.303 122.907 471.2 122.844 471.084C122.782 470.968 122.743 470.841 122.73 470.71C122.717 470.578 122.731 470.446 122.769 470.32C122.846 470.067 123.019 469.855 123.251 469.729C123.483 469.604 123.756 469.575 124.009 469.65L165.009 481.84C165.262 481.916 165.474 482.09 165.6 482.322C165.725 482.554 165.754 482.827 165.679 483.08C165.619 483.288 165.492 483.47 165.319 483.6C165.146 483.73 164.936 483.8 164.719 483.8Z" fill="black"/>
<path d="M308.649 492.5C308.384 492.5 308.13 492.395 307.942 492.207C307.755 492.02 307.649 491.765 307.649 491.5L307.059 462.7C307.059 462.435 307.165 462.18 307.352 461.993C307.54 461.805 307.794 461.7 308.059 461.7C308.325 461.7 308.579 461.805 308.766 461.993C308.954 462.18 309.059 462.435 309.059 462.7L309.649 491.5C309.649 491.765 309.544 492.02 309.356 492.207C309.169 492.395 308.915 492.5 308.649 492.5Z" fill="black"/>
<path d="M282.519 466.36L308.039 460C308.039 460 306.249 417.17 308.039 379V388C308.039 373 310.149 366.61 300.199 355.15C290.249 343.69 283.459 337.63 287.549 333.49C291.639 329.35 309.039 345 309.039 345C309.039 345 309.039 310 327.039 319C345.039 328 343.159 351.1 343.159 351.1C343.945 342.492 343.837 333.826 342.839 325.24C341.269 310.76 345.969 298.87 351.999 315.63C358.029 332.39 358.999 383.08 358.999 383.08V379C360.339 405.84 369.999 536 332.139 536.4C290.029 536.84 282.079 465.99 282.079 465.99" fill="white"/>
<path d="M331.799 537.4C314.309 537.4 300.019 525.08 290.429 501.74C285.886 490.284 282.763 478.315 281.129 466.1L282.429 465.96L282.279 465.39L307.009 459.23C306.779 453.11 305.409 413.85 307.009 378.95H307.169C307.339 369.95 306.869 364.39 299.419 355.79C297.899 354.04 296.419 352.42 295.109 350.91C287.359 342.2 282.679 336.91 286.809 332.77C290.809 328.77 303.079 338.54 308.069 342.83C308.319 337.19 309.669 322.29 316.919 317.83C319.919 316 323.419 316.1 327.459 318.12C336.459 322.63 340.679 330.64 342.599 337.64C342.529 334.05 342.299 329.89 341.809 325.36C340.889 316.88 341.979 307.36 345.809 306.52C348.269 305.96 350.589 308.82 352.919 315.3C357.999 329.41 359.509 366.47 359.919 378.96H360.059C360.139 380.56 360.249 382.53 360.379 384.82C362.249 418.4 367.209 507.59 344.869 531.47C343.292 533.29 341.35 534.76 339.169 535.783C336.989 536.806 334.618 537.36 332.209 537.41L331.799 537.4ZM283.289 467.2C284.659 476.81 294.549 535.78 332.169 535.4C334.306 535.347 336.409 534.847 338.341 533.932C340.274 533.018 341.993 531.709 343.389 530.09C365.149 506.84 360.039 415.09 358.389 384.92C358.389 384.29 358.319 383.68 358.289 383.1H358.039C358.039 382.6 357.039 332.39 351.099 315.97C348.839 309.69 347.019 308.29 346.319 308.46C344.629 308.85 342.829 315.54 343.869 325.13C344.874 333.792 344.981 342.535 344.189 351.22L342.189 351.01C342.189 350.79 343.789 328.48 326.619 319.89C323.199 318.19 320.399 318.06 318.029 319.52C310.169 324.38 310.029 344.79 310.029 345V347.24L308.359 345.74C301.629 339.69 290.569 331.83 288.249 334.19C285.559 336.91 289.069 341.11 296.619 349.59C297.969 351.11 299.419 352.74 300.949 354.49C309.559 364.41 309.399 370.82 309.129 381.42C309.129 383.48 309.029 385.61 309.029 388H308.679C307.529 423.19 309.009 459.56 309.029 460V460.81L283.289 467.2Z" fill="black"/>
<path d="M315.039 314L342.039 310L343.039 338L342.039 347L315.039 314Z" fill="white"/>
<path d="M331.039 348C331.039 348 334.479 328.84 332.039 313C330.039 300 339.189 290.4 344.039 310" fill="white"/>
<path d="M332.039 348.18L330.039 347.82C330.039 347.63 333.409 328.64 331.039 313.15C329.889 305.69 332.269 298.71 336.239 297.91C338.329 297.5 342.239 298.49 344.999 309.76L341.999 323C342.999 303 338.289 299.54 336.599 299.87C334.079 300.38 331.959 306.15 332.989 312.87C335.459 328.67 332.039 347.98 332.039 348.18Z" fill="black"/>
<path d="M309.039 351.5C309.039 351.5 309.579 331.4 309.959 314.27C310.229 302.57 317.579 294.27 321.039 321.45" fill="white"/>
<path d="M310.039 351.5L308.039 351.44C308.039 351.24 308.579 331.15 308.969 314.22C309.099 308.41 310.969 302.43 314.269 302.22C317.779 302.02 320.399 308.44 322.039 321.22L320.039 321.48C317.839 304.21 314.459 304.19 314.359 304.19C313.059 304.26 311.089 308.19 310.959 314.19C310.609 331.2 310.039 351.3 310.039 351.5Z" fill="black"/>
<path d="M319.729 343.99C320.858 333.985 321.125 323.901 320.529 313.85C319.449 298.7 325.709 293.17 332.039 304" fill="white"/>
<path d="M320.719 344.12L318.719 343.87C319.836 333.928 320.104 323.908 319.519 313.92C318.869 304.92 320.749 298.66 324.419 297.53C325.989 297.04 329.189 297.17 332.879 303.53L331.019 310.03C331.019 302.03 326.699 298.94 325.019 299.47C322.889 300.13 320.879 304.9 321.519 313.81C322.117 323.918 321.849 334.058 320.719 344.12Z" fill="black"/>
<path d="M309.039 460H307.039V493H309.039V460Z" fill="black"/>
<path d="M289.006 429.747L276.643 482.539L278.59 482.995L290.953 430.203L289.006 429.747Z" fill="black"/>
<path d="M201.039 573H200.819C200.69 572.972 200.568 572.918 200.46 572.842C200.352 572.766 200.26 572.67 200.189 572.558C200.118 572.447 200.071 572.322 200.048 572.192C200.026 572.062 200.03 571.929 200.059 571.8L236.059 413.59C236.089 413.462 236.143 413.341 236.219 413.234C236.296 413.127 236.392 413.036 236.504 412.966C236.615 412.897 236.739 412.85 236.869 412.828C236.998 412.806 237.131 412.81 237.259 412.84C237.387 412.869 237.508 412.924 237.615 413C237.722 413.076 237.813 413.173 237.883 413.285C237.953 413.396 238 413.52 238.021 413.65C238.043 413.779 238.039 413.912 238.009 414.04L202.009 572.24C201.956 572.457 201.831 572.649 201.655 572.787C201.479 572.925 201.263 573 201.039 573Z" fill="black"/>
<path d="M209.039 573H208.829C208.7 572.973 208.578 572.92 208.47 572.846C208.361 572.771 208.268 572.676 208.197 572.565C208.125 572.454 208.077 572.331 208.053 572.201C208.029 572.072 208.031 571.939 208.059 571.81L241.349 416.5C241.405 416.235 241.564 416.003 241.791 415.854C242.018 415.706 242.294 415.654 242.559 415.71C242.824 415.766 243.057 415.924 243.205 416.151C243.353 416.378 243.405 416.655 243.349 416.92L210.039 572.21C209.99 572.437 209.864 572.641 209.681 572.785C209.499 572.929 209.272 573.005 209.039 573Z" fill="black"/>
<path d="M169.169 468.5C169.076 468.51 168.982 468.51 168.889 468.5L128.769 457.03C128.532 456.944 128.336 456.771 128.221 456.547C128.106 456.322 128.08 456.062 128.148 455.819C128.216 455.576 128.374 455.368 128.589 455.237C128.805 455.105 129.062 455.06 129.309 455.11L169.439 466.5C169.704 466.536 169.945 466.676 170.107 466.888C170.269 467.101 170.34 467.37 170.304 467.635C170.268 467.9 170.129 468.14 169.916 468.303C169.703 468.465 169.434 468.536 169.169 468.5Z" fill="black"/>
<path d="M132.539 470C131.649 470 130.779 469.736 130.039 469.242C129.299 468.747 128.722 468.044 128.382 467.222C128.041 466.4 127.952 465.495 128.126 464.622C128.299 463.749 128.728 462.947 129.357 462.318C129.987 461.689 130.788 461.26 131.661 461.086C132.534 460.913 133.439 461.002 134.262 461.343C135.084 461.683 135.787 462.26 136.281 463C136.776 463.74 137.039 464.61 137.039 465.5C137.037 466.693 136.562 467.836 135.718 468.679C134.875 469.522 133.732 469.997 132.539 470ZM132.539 463C132.045 463 131.562 463.147 131.15 463.421C130.739 463.696 130.419 464.087 130.23 464.543C130.04 465 129.991 465.503 130.087 465.988C130.184 466.473 130.422 466.918 130.772 467.268C131.121 467.617 131.567 467.856 132.052 467.952C132.537 468.048 133.039 467.999 133.496 467.81C133.953 467.62 134.343 467.3 134.618 466.889C134.893 466.478 135.039 465.994 135.039 465.5C135.039 464.837 134.776 464.201 134.307 463.732C133.838 463.263 133.202 463 132.539 463Z" fill="black"/>
<path d="M286.179 447.5C285.914 447.521 285.651 447.436 285.449 447.264C285.246 447.091 285.121 446.845 285.099 446.58C285.078 446.315 285.163 446.052 285.336 445.849C285.508 445.647 285.754 445.521 286.019 445.5L307.379 442.01C307.641 441.97 307.907 442.034 308.121 442.19C308.334 442.345 308.477 442.579 308.519 442.84C308.563 443.101 308.501 443.369 308.347 443.585C308.193 443.8 307.96 443.946 307.699 443.99L286.339 447.5H286.179Z" fill="black"/>
<path d="M206.039 484H205.929L177.929 481C177.791 480.985 177.658 480.941 177.539 480.871C177.419 480.802 177.314 480.708 177.233 480.596C177.151 480.484 177.093 480.357 177.063 480.221C177.033 480.086 177.032 479.946 177.059 479.81L184.059 444.81C184.11 444.566 184.25 444.35 184.451 444.204C184.653 444.058 184.902 443.992 185.149 444.02L213.149 447.02C213.287 447.035 213.42 447.079 213.54 447.149C213.66 447.218 213.764 447.312 213.846 447.424C213.928 447.536 213.985 447.663 214.015 447.799C214.045 447.934 214.046 448.074 214.019 448.21L207.019 483.21C206.971 483.434 206.848 483.635 206.669 483.779C206.491 483.922 206.268 484.001 206.039 484ZM179.239 479.12L205.239 481.91L211.839 448.91L185.839 446.12L179.239 479.12Z" fill="black"/>
<path d="M212.099 453.72H212.039L183.939 451.22C183.808 451.208 183.68 451.171 183.563 451.109C183.447 451.048 183.343 450.965 183.258 450.863C183.174 450.762 183.11 450.645 183.071 450.52C183.032 450.394 183.017 450.261 183.029 450.13C183.041 449.999 183.079 449.871 183.14 449.754C183.201 449.637 183.284 449.534 183.386 449.449C183.487 449.365 183.604 449.301 183.73 449.262C183.855 449.222 183.988 449.208 184.119 449.22L212.219 451.72C212.481 451.745 212.723 451.873 212.891 452.075C213.059 452.277 213.142 452.538 213.119 452.8C213.099 453.055 212.982 453.292 212.792 453.463C212.602 453.634 212.355 453.726 212.099 453.72Z" fill="black"/>
<path d="M317.039 231C316.872 231 316.707 230.957 316.561 230.877C316.414 230.797 316.29 230.681 316.199 230.54L302.199 208.54C302.12 208.43 302.064 208.305 302.034 208.172C302.005 208.04 302.003 207.902 302.028 207.769C302.054 207.636 302.106 207.509 302.182 207.396C302.258 207.284 302.356 207.188 302.47 207.114C302.584 207.041 302.712 206.991 302.846 206.969C302.98 206.947 303.117 206.952 303.249 206.984C303.381 207.017 303.505 207.075 303.613 207.157C303.721 207.239 303.812 207.342 303.879 207.46L317.879 229.46C317.976 229.611 318.031 229.785 318.037 229.964C318.043 230.144 318.001 230.321 317.916 230.479C317.83 230.636 317.703 230.768 317.549 230.859C317.395 230.951 317.219 231 317.039 231Z" fill="black"/>
<path d="M337.039 227C336.774 227 336.52 226.895 336.332 226.707C336.145 226.52 336.039 226.265 336.039 226V196C336.039 195.735 336.145 195.48 336.332 195.293C336.52 195.105 336.774 195 337.039 195C337.305 195 337.559 195.105 337.746 195.293C337.934 195.48 338.039 195.735 338.039 196V226C338.039 226.265 337.934 226.52 337.746 226.707C337.559 226.895 337.305 227 337.039 227Z" fill="black"/>
<path d="M363.039 234C362.89 234.001 362.743 233.967 362.609 233.9C362.371 233.785 362.188 233.581 362.1 233.332C362.012 233.083 362.026 232.809 362.139 232.57L374.139 207.57C374.264 207.35 374.468 207.186 374.709 207.11C374.95 207.035 375.212 207.053 375.44 207.162C375.668 207.271 375.846 207.463 375.939 207.698C376.032 207.933 376.032 208.195 375.939 208.43L363.939 233.43C363.858 233.6 363.731 233.744 363.572 233.845C363.412 233.946 363.228 233.999 363.039 234Z" fill="black"/>
<path d="M65.5794 606.06C61.9476 606.067 58.441 604.733 55.7322 602.314C53.0234 599.895 51.3031 596.561 50.9011 592.951C50.4992 589.342 51.444 585.711 53.5542 582.755C55.6644 579.8 58.7916 577.727 62.3359 576.935C65.8803 576.143 69.5923 576.687 72.76 578.463C75.9277 580.24 78.3282 583.123 79.501 586.56C80.6738 589.997 80.5363 593.746 79.115 597.089C77.6937 600.431 75.0886 603.13 71.7993 604.67C69.8533 605.585 67.7296 606.059 65.5794 606.06ZM65.5794 579.6C63.6075 579.601 61.6676 580.099 59.9395 581.048C58.2113 581.998 56.7505 583.368 55.6926 585.032C54.6348 586.696 54.0139 588.601 53.8875 590.568C53.761 592.536 54.133 594.504 54.9692 596.29C55.7889 598.032 57.0253 599.546 58.5689 600.697C60.1124 601.847 61.9157 602.6 63.8193 602.889C65.723 603.177 67.6683 602.992 69.4834 602.35C71.2985 601.707 72.9276 600.628 74.2263 599.207C75.5251 597.785 76.4536 596.066 76.9299 594.2C77.4063 592.335 77.4157 590.38 76.9573 588.51C76.4989 586.64 75.5868 584.912 74.3018 583.478C73.0167 582.045 71.3982 580.95 69.5894 580.29C68.2993 579.829 66.9392 579.596 65.5693 579.6H65.5794Z" fill="#CB93EE"/>
<path d="M430.489 540.41L402.929 534.12L414.759 506.71L430.489 540.41ZM407.109 532L425.179 536.12L414.869 514.04L407.109 532Z" fill="#FCCE54"/>
<path d="M560.919 134.637L558.866 136.825L584.826 161.185L586.879 158.998L560.919 134.637Z" fill="#FCCE54"/>
<path d="M124.039 234C123.953 234.015 123.865 234.015 123.779 234C123.561 233.941 123.369 233.811 123.235 233.629C123.1 233.447 123.032 233.226 123.039 233L122.719 194.06C122.603 193.893 122.54 193.694 122.539 193.49V135.5C122.539 135.235 122.645 134.98 122.832 134.793C123.02 134.605 123.274 134.5 123.539 134.5H232.539C232.805 134.5 233.059 134.605 233.246 134.793C233.434 134.98 233.539 135.235 233.539 135.5V193.5C233.539 193.765 233.434 194.02 233.246 194.207C233.059 194.395 232.805 194.5 232.539 194.5H148.469L124.899 233.5C124.812 233.651 124.687 233.777 124.536 233.865C124.385 233.952 124.214 233.999 124.039 234ZM124.539 192.93C124.651 193.096 124.713 193.29 124.719 193.49L125.009 229.49L147.009 193.01C147.098 192.864 147.223 192.743 147.372 192.659C147.521 192.575 147.688 192.531 147.859 192.53H231.499V136.5H124.499L124.539 192.93Z" fill="black"/>
<path d="M214.539 154.5H146.539V156.5H214.539V154.5Z" fill="#47CEC0"/>
<path d="M176.539 175.5H148.539V177.5H176.539V175.5Z" fill="#47CEC0"/>
<path d="M456.869 161C456.698 160.999 456.531 160.955 456.382 160.871C456.233 160.787 456.108 160.666 456.019 160.52L440.399 134.67H384.539C384.274 134.67 384.02 134.565 383.832 134.377C383.645 134.19 383.539 133.935 383.539 133.67V95C383.539 94.7348 383.645 94.4804 383.832 94.2929C384.02 94.1054 384.274 94 384.539 94H457.209C457.474 94 457.729 94.1054 457.917 94.2929C458.104 94.4804 458.209 94.7348 458.209 95V133.67C458.206 133.834 458.165 133.995 458.089 134.14L457.869 160.01C457.878 160.234 457.81 160.455 457.678 160.637C457.545 160.818 457.356 160.95 457.139 161.01C457.049 161.021 456.958 161.018 456.869 161ZM385.539 132.67H440.959C441.132 132.669 441.302 132.713 441.452 132.797C441.603 132.881 441.73 133.003 441.819 133.15L455.899 156.5L456.089 133.7C456.086 133.539 456.128 133.379 456.209 133.24V96H385.539V132.67Z" fill="black"/>
<path d="M446.039 105H396.039V107H446.039V105Z" fill="#47CEC0"/>
<path d="M444.039 121H417.039V123H444.039V121Z" fill="#47CEC0"/>
</svg>
