<svg width="700" height="700" viewBox="0 0 700 700" fill="none" xmlns="http://www.w3.org/2000/svg">
<rect width="700" height="700" fill="white"/>
<path d="M176.028 481.298C175.762 481.298 175.504 481.209 175.294 481.046C175.084 480.883 174.934 480.656 174.868 480.398C172.728 472.178 168.628 463.968 161.958 454.558C161.867 454.427 161.803 454.279 161.77 454.123C161.736 453.967 161.734 453.806 161.763 453.649C161.792 453.492 161.851 453.342 161.938 453.208C162.024 453.074 162.137 452.959 162.268 452.868C162.399 452.778 162.547 452.714 162.703 452.68C162.859 452.647 163.02 452.644 163.177 452.673C163.334 452.702 163.484 452.761 163.618 452.848C163.752 452.935 163.867 453.047 163.958 453.178C170.798 462.818 175.018 471.278 177.238 479.798C177.314 480.106 177.267 480.431 177.106 480.704C176.945 480.977 176.684 481.176 176.378 481.258C176.264 481.29 176.146 481.304 176.028 481.298V481.298Z" fill="black"/>
<path d="M150.478 440.108C150.307 440.108 150.139 440.071 149.984 440C149.828 439.93 149.69 439.827 149.578 439.698C142.928 432.098 135.818 424.698 129.578 418.258C129.356 418.029 129.235 417.721 129.241 417.402C129.247 417.083 129.378 416.78 129.608 416.558C129.837 416.337 130.145 416.216 130.464 416.221C130.783 416.227 131.086 416.359 131.308 416.588C137.598 423.098 144.718 430.468 151.418 438.118C151.569 438.293 151.666 438.508 151.699 438.737C151.732 438.966 151.698 439.199 151.603 439.409C151.507 439.62 151.353 439.798 151.159 439.924C150.965 440.05 150.739 440.117 150.508 440.118L150.478 440.108Z" fill="black"/>
<path d="M113.928 401.398C113.763 401.398 113.6 401.364 113.449 401.298C113.298 401.233 113.161 401.138 113.048 401.018C105.188 392.608 99.0481 385.518 93.7081 378.718C93.5105 378.468 93.4205 378.149 93.4581 377.832C93.4956 377.515 93.6574 377.226 93.908 377.028C94.1586 376.831 94.4775 376.741 94.7945 376.778C95.1114 376.816 95.4004 376.978 95.5979 377.228C100.888 383.978 106.998 391.018 114.798 399.378C114.907 399.493 114.992 399.628 115.048 399.776C115.104 399.924 115.131 400.081 115.126 400.239C115.122 400.397 115.086 400.552 115.021 400.696C114.956 400.84 114.863 400.97 114.748 401.078C114.524 401.283 114.231 401.397 113.928 401.398V401.398Z" fill="black"/>
<path d="M83.388 358.178C83.1465 358.179 82.9106 358.107 82.7108 357.972C82.511 357.836 82.3567 357.643 82.2681 357.419C78.7209 348.181 76.0427 338.633 74.2681 328.899C74.2393 328.744 74.2411 328.584 74.2738 328.43C74.3064 328.276 74.3689 328.13 74.4581 328C74.5472 327.87 74.6612 327.758 74.7933 327.672C74.9254 327.586 75.0731 327.527 75.2281 327.498C75.3831 327.469 75.5421 327.471 75.6964 327.504C75.8506 327.537 75.9968 327.599 76.1268 327.689C76.2568 327.778 76.3679 327.891 76.4539 328.024C76.5399 328.156 76.5991 328.303 76.628 328.458C78.3825 338.046 81.0239 347.45 84.5181 356.548C84.6321 356.845 84.6234 357.176 84.494 357.466C84.3646 357.757 84.125 357.984 83.828 358.098C83.6884 358.155 83.5386 358.182 83.388 358.178V358.178Z" fill="black"/>
<path d="M75.3979 327.458C75.1149 327.457 74.8412 327.357 74.6252 327.174C74.4093 326.991 74.2652 326.737 74.218 326.458C72.5445 316.738 71.7014 306.892 71.698 297.028C71.698 296.71 71.8243 296.405 72.0493 296.18C72.2744 295.955 72.5797 295.828 72.8979 295.828V295.828C73.2162 295.828 73.5215 295.955 73.7466 296.18C73.9716 296.405 74.0979 296.71 74.0979 297.028C74.103 306.748 74.936 316.45 76.5879 326.028C76.6135 326.185 76.608 326.345 76.5715 326.499C76.5351 326.653 76.4685 326.798 76.3755 326.927C76.2825 327.055 76.165 327.164 76.0298 327.246C75.8946 327.329 75.7445 327.384 75.5879 327.408C75.527 327.433 75.4632 327.45 75.3979 327.458V327.458Z" fill="black"/>
<path d="M73.738 278.798H73.5878C73.2788 278.747 73.0019 278.577 72.8154 278.325C72.6288 278.073 72.5473 277.759 72.5878 277.448C73.8181 267.596 76.2356 257.93 79.7878 248.658C79.8402 248.505 79.9233 248.363 80.0319 248.243C80.1406 248.122 80.2727 248.025 80.4201 247.957C80.5674 247.889 80.7271 247.851 80.8893 247.846C81.0516 247.842 81.2129 247.87 81.3639 247.93C81.5149 247.989 81.6524 248.079 81.7677 248.193C81.8831 248.307 81.9742 248.444 82.0353 248.594C82.0965 248.744 82.1264 248.906 82.1235 249.068C82.1205 249.23 82.0846 249.39 82.018 249.538C78.5518 258.627 76.2012 268.103 75.018 277.758C74.978 278.062 74.8229 278.34 74.5849 278.533C74.3468 278.726 74.0438 278.821 73.738 278.798V278.798Z" fill="black"/>
<path d="M92.148 229.268C91.9266 229.269 91.709 229.21 91.5191 229.096C91.3292 228.982 91.1745 228.818 91.0713 228.622C90.9682 228.426 90.9206 228.205 90.9341 227.984C90.9477 227.763 91.0217 227.55 91.148 227.368C96.9238 219.219 104.05 212.117 112.218 206.368C112.349 206.278 112.497 206.214 112.653 206.18C112.809 206.147 112.97 206.144 113.127 206.173C113.284 206.202 113.434 206.261 113.568 206.348C113.702 206.435 113.817 206.547 113.908 206.678C113.999 206.809 114.063 206.957 114.096 207.113C114.129 207.269 114.132 207.431 114.103 207.588C114.074 207.744 114.015 207.894 113.928 208.028C113.842 208.162 113.729 208.278 113.598 208.368C105.654 213.957 98.7215 220.859 93.098 228.778C92.9888 228.928 92.8462 229.051 92.6812 229.136C92.5163 229.221 92.3336 229.266 92.148 229.268Z" fill="black"/>
<path d="M133.968 197.458C133.688 197.458 133.417 197.36 133.201 197.181C132.986 197.001 132.84 196.753 132.789 196.477C132.738 196.202 132.785 195.917 132.922 195.672C133.059 195.428 133.276 195.239 133.538 195.138C138.182 193.394 142.928 191.931 147.748 190.758L149.998 190.268C151.648 189.898 153.348 189.518 155.058 189.268L156.328 189.038L158.688 188.628L162.358 188.128C162.514 188.107 162.673 188.117 162.825 188.158C162.978 188.198 163.121 188.268 163.246 188.364C163.372 188.459 163.477 188.579 163.556 188.715C163.635 188.851 163.687 189.002 163.708 189.158C163.729 189.315 163.719 189.474 163.679 189.626C163.638 189.778 163.568 189.921 163.473 190.047C163.377 190.172 163.257 190.277 163.121 190.356C162.985 190.436 162.834 190.487 162.678 190.508L159.038 191.008C158.288 191.118 157.518 191.258 156.748 191.398L155.448 191.628C153.798 191.898 152.128 192.268 150.528 192.628L148.288 193.118C143.577 194.269 138.939 195.698 134.398 197.398C134.259 197.442 134.114 197.462 133.968 197.458V197.458Z" fill="black"/>
<path d="M164.928 190.588C164.625 190.583 164.336 190.462 164.117 190.252C163.899 190.042 163.769 189.756 163.753 189.454C163.736 189.151 163.835 188.854 164.029 188.621C164.223 188.388 164.497 188.237 164.798 188.198C168.948 187.728 173.158 187.478 177.238 187.198L179.508 187.068C184.678 186.778 189.768 186.189 194.078 185.649C194.388 185.606 194.702 185.686 194.953 185.873C195.204 186.061 195.371 186.339 195.418 186.649C195.456 186.958 195.373 187.269 195.187 187.519C195 187.768 194.725 187.937 194.418 187.988C190.068 188.528 184.918 189.129 179.688 189.419L177.428 189.558C173.428 189.798 169.188 190.048 165.108 190.558L164.928 190.588Z" fill="black"/>
<path d="M213.278 184.078C212.982 184.079 212.697 183.971 212.477 183.775C212.256 183.578 212.116 183.308 212.082 183.014C212.049 182.721 212.125 182.425 212.296 182.184C212.466 181.943 212.72 181.774 213.008 181.708C218.088 180.528 223.008 179.068 227.078 177.798C231.798 176.278 236.428 174.618 240.818 172.878C241.113 172.76 241.444 172.764 241.737 172.89C242.029 173.016 242.26 173.253 242.378 173.548C242.496 173.844 242.492 174.174 242.366 174.467C242.24 174.76 242.004 174.99 241.708 175.108C237.268 176.868 232.588 178.548 227.798 180.108C223.638 181.398 218.708 182.868 213.558 184.058C213.466 184.078 213.372 184.085 213.278 184.078Z" fill="black"/>
<path d="M262.908 165.268C262.638 165.27 262.375 165.18 262.162 165.014C261.949 164.847 261.799 164.613 261.735 164.351C261.671 164.088 261.698 163.812 261.811 163.566C261.924 163.321 262.117 163.121 262.358 162.998C266.508 160.858 270.698 158.548 275.158 155.938C279.108 153.638 283.158 151.138 287.648 148.278C287.918 148.109 288.243 148.053 288.554 148.123C288.865 148.192 289.136 148.381 289.308 148.648C289.394 148.78 289.454 148.927 289.483 149.082C289.511 149.236 289.509 149.395 289.476 149.549C289.442 149.703 289.378 149.848 289.287 149.977C289.197 150.106 289.081 150.215 288.948 150.298C284.458 153.178 280.348 155.698 276.368 158.008C271.868 160.648 267.648 163.008 263.458 165.138C263.287 165.224 263.099 165.268 262.908 165.268V165.268Z" fill="black"/>
<path d="M308.088 137.208C307.831 137.211 307.579 137.131 307.371 136.979C307.163 136.828 307.009 136.614 306.931 136.369C306.854 136.123 306.858 135.86 306.942 135.617C307.026 135.373 307.186 135.164 307.398 135.018C310.551 132.832 313.695 130.632 316.828 128.418C321.628 125.038 326.588 121.548 331.518 118.178C331.649 118.089 331.797 118.026 331.952 117.994C332.108 117.962 332.268 117.961 332.424 117.99C332.58 118.02 332.729 118.08 332.862 118.167C332.994 118.255 333.109 118.367 333.198 118.498C333.287 118.63 333.35 118.777 333.382 118.933C333.414 119.088 333.416 119.248 333.386 119.404C333.356 119.56 333.296 119.709 333.209 119.842C333.122 119.975 333.009 120.089 332.878 120.178C327.958 123.538 322.998 127.028 318.208 130.398C315.068 132.612 311.921 134.815 308.768 137.008C308.569 137.146 308.33 137.216 308.088 137.208V137.208Z" fill="black"/>
<path d="M334.398 119.358C334.142 119.357 333.894 119.273 333.689 119.121C333.484 118.968 333.333 118.754 333.259 118.51C333.184 118.265 333.189 118.003 333.273 117.762C333.358 117.521 333.517 117.313 333.728 117.168C341.827 111.574 350.23 106.433 358.898 101.768C359.18 101.621 359.51 101.592 359.813 101.688C360.117 101.783 360.371 101.996 360.518 102.278C360.665 102.561 360.694 102.89 360.598 103.194C360.503 103.498 360.291 103.751 360.008 103.898C351.417 108.516 343.09 113.611 335.068 119.158C334.87 119.291 334.636 119.36 334.398 119.358V119.358Z" fill="black"/>
<path d="M377.148 95.9185C376.859 95.9285 376.576 95.8326 376.352 95.6489C376.128 95.4653 375.979 95.2064 375.932 94.9207C375.886 94.635 375.945 94.3419 376.099 94.0967C376.253 93.8515 376.491 93.6708 376.768 93.5884C386.219 90.2865 396.219 88.8434 406.218 89.3384C406.376 89.346 406.531 89.3851 406.674 89.4534C406.817 89.5217 406.945 89.6176 407.05 89.7359C407.155 89.8541 407.236 89.9923 407.287 90.1421C407.338 90.2919 407.359 90.4505 407.348 90.6084C407.34 90.7661 407.301 90.9207 407.233 91.063C407.165 91.2053 407.068 91.3326 406.95 91.437C406.831 91.5415 406.693 91.6209 406.544 91.6709C406.394 91.721 406.235 91.7405 406.078 91.7283C396.384 91.2534 386.69 92.6559 377.528 95.8584C377.405 95.8986 377.277 95.9189 377.148 95.9185V95.9185Z" fill="black"/>
<path d="M455.148 111.068C454.89 111.071 454.637 110.99 454.428 110.838C450.522 107.954 446.426 105.334 442.168 102.998C437.937 100.614 433.539 98.5383 429.008 96.7884C428.86 96.7326 428.725 96.6482 428.61 96.5401C428.495 96.432 428.402 96.3022 428.337 96.1583C428.272 96.0144 428.236 95.8591 428.231 95.7013C428.226 95.5434 428.252 95.3861 428.308 95.2384C428.364 95.0907 428.448 94.9553 428.556 94.8402C428.664 94.7251 428.794 94.6325 428.938 94.5675C429.082 94.5025 429.237 94.4665 429.395 94.4615C429.553 94.4566 429.71 94.4826 429.858 94.5384C434.497 96.3283 438.999 98.454 443.328 100.899C447.68 103.281 451.866 105.953 455.858 108.899C455.985 108.992 456.092 109.11 456.173 109.245C456.254 109.381 456.308 109.531 456.331 109.687C456.355 109.843 456.347 110.002 456.308 110.155C456.27 110.308 456.202 110.452 456.108 110.578C455.998 110.731 455.854 110.854 455.687 110.94C455.52 111.025 455.335 111.069 455.148 111.068V111.068Z" fill="black"/>
<path d="M485.148 153.798C484.876 153.8 484.612 153.709 484.399 153.54C484.186 153.371 484.037 153.134 483.978 152.869C481.767 143.43 477.479 134.602 471.428 127.028C471.242 126.778 471.161 126.465 471.201 126.156C471.242 125.847 471.401 125.566 471.645 125.372C471.89 125.178 472.2 125.087 472.51 125.119C472.821 125.15 473.107 125.3 473.308 125.538C479.582 133.393 484.023 142.549 486.308 152.338C486.343 152.492 486.348 152.651 486.321 152.807C486.294 152.962 486.237 153.111 486.152 153.244C486.067 153.377 485.957 153.492 485.828 153.582C485.698 153.672 485.552 153.735 485.398 153.768C485.316 153.788 485.232 153.798 485.148 153.798Z" fill="black"/>
<path d="M483.488 185.228C483.366 185.248 483.24 185.248 483.118 185.228C482.816 185.13 482.564 184.916 482.418 184.633C482.272 184.351 482.243 184.022 482.338 183.718C483.038 181.418 483.612 179.081 484.058 176.718C484.471 174.37 484.749 171.999 484.888 169.618C485.033 167.217 485.033 164.81 484.888 162.408C484.732 160.03 484.439 157.663 484.008 155.318C483.946 155.007 484.01 154.683 484.187 154.419C484.363 154.155 484.637 153.971 484.948 153.908C485.106 153.88 485.269 153.883 485.426 153.918C485.583 153.953 485.732 154.019 485.863 154.112C485.994 154.205 486.106 154.324 486.191 154.46C486.276 154.597 486.333 154.75 486.358 154.908C486.809 157.355 487.12 159.826 487.288 162.308C487.438 164.806 487.438 167.311 487.288 169.808C487.139 172.286 486.849 174.754 486.418 177.198C485.957 179.656 485.36 182.087 484.628 184.478C484.537 184.704 484.379 184.897 484.175 185.031C483.971 185.165 483.732 185.234 483.488 185.228V185.228Z" fill="black"/>
<path d="M453.948 222.718C453.681 222.72 453.421 222.633 453.209 222.471C452.998 222.309 452.846 222.081 452.778 221.823C452.71 221.565 452.731 221.292 452.836 221.046C452.941 220.801 453.124 220.598 453.358 220.468C457.561 218.099 461.469 215.239 464.998 211.948C468.559 208.658 471.727 204.967 474.438 200.948C474.527 200.817 474.642 200.705 474.774 200.618C474.907 200.53 475.056 200.47 475.212 200.441C475.368 200.411 475.528 200.412 475.684 200.444C475.839 200.477 475.987 200.539 476.118 200.629C476.249 200.718 476.362 200.832 476.449 200.965C476.536 201.097 476.596 201.246 476.626 201.402C476.656 201.558 476.654 201.718 476.622 201.874C476.59 202.029 476.527 202.177 476.438 202.308C473.617 206.452 470.333 210.26 466.648 213.659C462.982 217.076 458.923 220.046 454.558 222.508C454.378 222.635 454.167 222.707 453.948 222.718V222.718Z" fill="black"/>
<path d="M424.218 230.598C416.625 230.566 409.092 229.251 401.938 226.708C401.637 226.602 401.39 226.381 401.253 226.093C401.115 225.805 401.097 225.474 401.203 225.173C401.309 224.872 401.53 224.626 401.818 224.488C402.106 224.35 402.437 224.332 402.738 224.438C411.852 227.725 421.601 228.868 431.228 227.778C431.539 227.749 431.848 227.842 432.091 228.037C432.335 228.232 432.493 228.514 432.532 228.823C432.571 229.132 432.487 229.445 432.3 229.694C432.113 229.943 431.836 230.11 431.528 230.158C429.102 230.451 426.661 230.598 424.218 230.598V230.598Z" fill="black"/>
<path d="M382.968 213.248C382.789 213.247 382.613 213.206 382.452 213.128C382.292 213.05 382.15 212.937 382.038 212.798C380.473 210.807 379.091 208.678 377.908 206.438C376.754 204.184 375.778 201.844 374.988 199.438C373.461 194.646 372.602 189.666 372.438 184.639C372.427 184.319 372.543 184.008 372.76 183.774C372.978 183.54 373.279 183.402 373.598 183.389C373.756 183.38 373.914 183.404 374.063 183.459C374.212 183.513 374.348 183.597 374.464 183.705C374.58 183.813 374.673 183.944 374.737 184.089C374.801 184.234 374.835 184.39 374.838 184.548C374.993 189.362 375.814 194.13 377.278 198.718C378.021 201.008 378.943 203.235 380.038 205.378C381.145 207.488 382.437 209.496 383.898 211.378C384.055 211.553 384.156 211.77 384.191 212.003C384.225 212.235 384.191 212.472 384.092 212.685C383.993 212.898 383.834 213.077 383.634 213.2C383.434 213.324 383.203 213.386 382.968 213.378V213.248Z" fill="black"/>
<path d="M373.968 183.348C373.65 183.348 373.344 183.222 373.119 182.997C372.894 182.772 372.768 182.467 372.768 182.148C372.884 172.204 374.774 162.359 378.348 153.078C378.458 152.781 378.682 152.54 378.969 152.408C379.257 152.276 379.586 152.263 379.883 152.373C380.18 152.483 380.421 152.707 380.553 152.995C380.686 153.283 380.698 153.611 380.588 153.908C377.122 162.926 375.287 172.488 375.168 182.148C375.168 182.306 375.137 182.462 375.077 182.608C375.016 182.753 374.928 182.885 374.816 182.997C374.705 183.108 374.573 183.197 374.427 183.257C374.282 183.317 374.126 183.348 373.968 183.348V183.348Z" fill="black"/>
<path d="M387.638 137.048C387.426 137.045 387.219 136.985 387.038 136.875C386.857 136.766 386.708 136.61 386.606 136.424C386.505 136.238 386.454 136.029 386.459 135.817C386.465 135.605 386.527 135.398 386.638 135.218C391.819 126.716 398.221 119.021 405.638 112.378C405.875 112.166 406.187 112.057 406.505 112.075C406.823 112.092 407.121 112.236 407.333 112.473C407.545 112.711 407.654 113.023 407.636 113.341C407.619 113.658 407.475 113.956 407.238 114.168C399.994 120.654 393.741 128.167 388.678 136.468C388.571 136.648 388.418 136.796 388.236 136.898C388.053 136.999 387.847 137.051 387.638 137.048V137.048Z" fill="black"/>
<path d="M426.148 101.159C425.877 101.158 425.614 101.065 425.402 100.896C425.19 100.726 425.041 100.49 424.981 100.225C424.921 99.9606 424.952 99.6834 425.069 99.4388C425.187 99.1942 425.384 98.9968 425.628 98.8785C434.633 94.4825 444.431 91.9422 454.438 91.4085C454.602 91.3877 454.768 91.4008 454.927 91.4474C455.086 91.4939 455.233 91.5727 455.36 91.6788C455.486 91.7849 455.59 91.9161 455.664 92.0641C455.737 92.212 455.78 92.3736 455.788 92.5387C455.796 92.7038 455.77 92.8687 455.712 93.0233C455.653 93.1779 455.563 93.3188 455.448 93.4371C455.333 93.5554 455.194 93.6486 455.041 93.7108C454.888 93.773 454.723 93.8028 454.558 93.7984C444.874 94.3246 435.394 96.7864 426.678 101.038C426.512 101.117 426.331 101.158 426.148 101.159V101.159Z" fill="black"/>
<path d="M505.038 108.218C504.818 108.222 504.602 108.16 504.418 108.038C500.279 105.493 495.984 103.212 491.558 101.208C487.145 99.195 482.569 97.5625 477.878 96.3284C477.579 96.2398 477.326 96.0384 477.173 95.7666C477.02 95.4949 476.979 95.1742 477.058 94.8726C477.138 94.571 477.331 94.3122 477.598 94.1509C477.865 93.9896 478.184 93.9384 478.488 94.0083C483.308 95.2721 488.012 96.9448 492.548 99.0083C497.067 101.057 501.45 103.395 505.668 106.008C505.89 106.146 506.06 106.352 506.155 106.595C506.249 106.838 506.261 107.105 506.19 107.356C506.119 107.607 505.968 107.828 505.76 107.985C505.552 108.143 505.299 108.228 505.038 108.228V108.218Z" fill="black"/>
<path d="M529.838 128.018C529.682 128.02 529.528 127.991 529.384 127.933C529.239 127.874 529.108 127.788 528.998 127.678C525.678 124.448 521.998 121.208 518.078 118.048C514.348 115.108 510.348 112.258 506.218 109.608C506.067 109.533 505.934 109.426 505.827 109.295C505.721 109.164 505.643 109.012 505.599 108.85C505.554 108.687 505.545 108.517 505.571 108.35C505.598 108.183 505.659 108.024 505.751 107.882C505.843 107.741 505.963 107.62 506.105 107.529C506.247 107.437 506.406 107.376 506.573 107.35C506.74 107.324 506.91 107.334 507.073 107.379C507.236 107.423 507.388 107.501 507.518 107.608C511.718 110.308 515.768 113.188 519.568 116.188C523.568 119.408 527.298 122.698 530.668 125.978C530.839 126.144 530.956 126.358 531.005 126.591C531.054 126.824 531.033 127.066 530.944 127.287C530.855 127.508 530.702 127.697 530.505 127.831C530.308 127.965 530.076 128.037 529.838 128.038V128.018Z" fill="black"/>
<path d="M559.348 166.798C559.131 166.798 558.918 166.739 558.732 166.628C558.545 166.518 558.392 166.359 558.288 166.168C556.058 162.068 553.598 157.968 550.778 153.628C548.228 149.768 545.428 145.888 542.208 141.788C542.012 141.538 541.923 141.219 541.961 140.903C542 140.587 542.162 140.3 542.413 140.103C542.663 139.907 542.982 139.818 543.298 139.857C543.614 139.895 543.902 140.058 544.098 140.308C547.358 144.458 550.198 148.388 552.778 152.308C555.648 156.708 558.138 160.858 560.398 165.018C560.496 165.201 560.546 165.405 560.542 165.613C560.538 165.82 560.48 166.022 560.374 166.201C560.268 166.379 560.118 166.527 559.938 166.63C559.759 166.733 559.555 166.787 559.348 166.788V166.798Z" fill="black"/>
<path d="M577.888 216.558C577.615 216.558 577.35 216.465 577.138 216.294C576.925 216.123 576.777 215.885 576.718 215.618C575.658 210.918 574.418 206.158 573.008 201.458C571.668 197.008 570.108 192.458 568.238 187.638C568.127 187.341 568.137 187.012 568.266 186.722C568.395 186.432 568.633 186.205 568.928 186.088C569.075 186.031 569.232 186.003 569.39 186.006C569.548 186.01 569.703 186.044 569.848 186.109C569.992 186.173 570.122 186.265 570.23 186.38C570.338 186.495 570.423 186.63 570.478 186.778C572.368 191.678 573.948 196.258 575.308 200.778C576.728 205.528 577.988 210.348 579.058 215.098C579.127 215.41 579.07 215.736 578.9 216.006C578.729 216.275 578.459 216.467 578.148 216.538L577.888 216.558Z" fill="black"/>
<path d="M581.458 269.528H581.338C581.181 269.513 581.029 269.467 580.89 269.393C580.752 269.319 580.629 269.218 580.53 269.097C580.43 268.975 580.356 268.834 580.311 268.684C580.266 268.533 580.251 268.375 580.268 268.218C581.198 258.518 581.218 248.752 580.328 239.048C580.3 238.73 580.399 238.414 580.603 238.169C580.807 237.924 581.1 237.769 581.418 237.738C581.575 237.723 581.734 237.74 581.885 237.786C582.035 237.833 582.175 237.91 582.296 238.011C582.417 238.113 582.517 238.237 582.589 238.377C582.662 238.518 582.705 238.671 582.718 238.828C583.62 248.686 583.597 258.606 582.648 268.458C582.618 268.753 582.48 269.025 582.26 269.223C582.04 269.421 581.754 269.53 581.458 269.528V269.528Z" fill="black"/>
<path d="M573.598 300.208C573.436 300.209 573.276 300.175 573.128 300.108C572.983 300.047 572.852 299.958 572.741 299.846C572.631 299.734 572.544 299.601 572.485 299.455C572.427 299.309 572.398 299.153 572.4 298.995C572.402 298.838 572.436 298.683 572.498 298.538C576.157 289.58 578.55 280.156 579.608 270.538C579.66 270.233 579.826 269.959 580.074 269.773C580.321 269.587 580.631 269.503 580.938 269.538C581.095 269.556 581.247 269.604 581.384 269.68C581.522 269.757 581.644 269.86 581.741 269.984C581.839 270.107 581.911 270.249 581.953 270.401C581.996 270.553 582.007 270.712 581.988 270.868C580.91 280.721 578.46 290.374 574.708 299.548C574.603 299.751 574.444 299.921 574.248 300.037C574.051 300.154 573.826 300.213 573.598 300.208Z" fill="black"/>
<path d="M539.448 332.628C539.162 332.63 538.885 332.529 538.667 332.344C538.449 332.159 538.304 331.903 538.258 331.621C538.212 331.338 538.269 331.049 538.417 330.805C538.566 330.561 538.796 330.378 539.068 330.288L543.188 328.898C544.108 328.611 545.012 328.277 545.898 327.898L547.628 327.158L549.198 326.358C549.947 325.996 550.675 325.592 551.378 325.148L552.378 324.568C556.413 321.98 560.023 318.782 563.078 315.088C563.288 314.86 563.578 314.721 563.887 314.701C564.197 314.682 564.502 314.783 564.739 314.983C564.976 315.184 565.125 315.468 565.157 315.777C565.188 316.085 565.099 316.394 564.908 316.638C561.688 320.539 557.879 323.914 553.618 326.638C553.268 326.838 552.968 327.028 552.618 327.218C551.852 327.706 551.057 328.147 550.238 328.538L548.628 329.358L546.858 330.108C545.901 330.526 544.923 330.893 543.928 331.208L539.828 332.588C539.704 332.62 539.576 332.633 539.448 332.628V332.628Z" fill="black"/>
<path d="M499.148 365.278C498.936 365.28 498.728 365.221 498.548 365.108C498.411 365.03 498.291 364.925 498.195 364.799C498.1 364.674 498.03 364.531 497.99 364.378C497.95 364.226 497.94 364.067 497.962 363.91C497.984 363.754 498.037 363.604 498.118 363.468L500.438 359.468L502.078 357.138C503.172 355.539 504.36 354.006 505.638 352.548L506.638 351.318C509.963 347.587 513.673 344.218 517.708 341.268C517.973 341.084 518.301 341.013 518.619 341.07C518.936 341.127 519.218 341.308 519.403 341.573C519.587 341.838 519.659 342.166 519.601 342.484C519.544 342.802 519.363 343.084 519.098 343.268C515.218 346.105 511.649 349.343 508.448 352.928C508.148 353.298 507.798 353.718 507.448 354.128C506.223 355.525 505.085 356.994 504.038 358.528L502.438 360.808L500.168 364.678C500.065 364.858 499.917 365.009 499.738 365.114C499.559 365.219 499.355 365.276 499.148 365.278V365.278Z" fill="black"/>
<path d="M497.708 416.218C497.485 416.218 497.266 416.155 497.077 416.037C496.888 415.918 496.736 415.749 496.638 415.548C492.116 406.589 490.183 396.546 491.058 386.548C491.074 386.391 491.12 386.239 491.195 386.1C491.27 385.961 491.371 385.838 491.493 385.738C491.615 385.639 491.756 385.564 491.907 385.518C492.058 385.473 492.216 385.458 492.373 385.473C492.53 385.489 492.682 385.535 492.821 385.61C492.96 385.685 493.083 385.786 493.183 385.908C493.283 386.03 493.357 386.171 493.403 386.322C493.448 386.473 493.464 386.631 493.448 386.788C492.608 396.352 494.458 405.96 498.788 414.528C498.858 414.67 498.899 414.824 498.91 414.982C498.92 415.14 498.899 415.298 498.848 415.448C498.797 415.597 498.716 415.735 498.612 415.854C498.507 415.972 498.38 416.069 498.238 416.138C498.069 416.203 497.888 416.23 497.708 416.218V416.218Z" fill="black"/>
<path d="M518.148 440.169C517.918 440.168 517.692 440.102 517.498 439.978C516.667 439.414 515.869 438.803 515.108 438.148L511.638 435.278C511.006 434.743 510.402 434.175 509.828 433.578C509.528 433.278 509.228 432.978 508.918 432.688C508.608 432.398 508.288 432.068 507.988 431.768C507.398 431.198 506.808 430.628 506.258 430.028C502.863 426.319 499.91 422.228 497.458 417.838C497.37 417.698 497.312 417.542 497.288 417.378C497.264 417.214 497.274 417.048 497.317 416.888C497.361 416.729 497.436 416.58 497.54 416.451C497.643 416.322 497.772 416.216 497.919 416.139C498.065 416.063 498.226 416.017 498.391 416.005C498.556 415.994 498.721 416.016 498.877 416.072C499.033 416.127 499.175 416.214 499.296 416.327C499.417 416.44 499.513 416.576 499.578 416.728C501.945 420.937 504.783 424.862 508.038 428.428C508.548 428.968 509.098 429.508 509.658 430.048C509.968 430.358 510.288 430.658 510.588 430.968C510.888 431.278 511.208 431.568 511.528 431.888C512.047 432.43 512.594 432.944 513.168 433.428L516.648 436.298C517.33 436.899 518.052 437.454 518.808 437.958C519.074 438.132 519.261 438.405 519.327 438.716C519.392 439.027 519.332 439.352 519.158 439.618C519.05 439.789 518.901 439.928 518.725 440.025C518.548 440.121 518.349 440.171 518.148 440.169V440.169Z" fill="black"/>
<path d="M562.828 459.258C562.732 459.268 562.634 459.268 562.538 459.258C552.944 456.939 543.594 453.704 534.618 449.598C534.46 449.543 534.316 449.455 534.194 449.341C534.072 449.227 533.975 449.088 533.91 448.934C533.845 448.78 533.813 448.614 533.815 448.447C533.818 448.28 533.855 448.116 533.925 447.964C533.995 447.812 534.096 447.676 534.222 447.566C534.347 447.455 534.494 447.372 534.653 447.322C534.813 447.271 534.981 447.255 535.147 447.273C535.313 447.291 535.473 447.344 535.618 447.428C544.458 451.462 553.663 454.643 563.108 456.928C563.261 456.967 563.405 457.035 563.532 457.13C563.658 457.224 563.765 457.342 563.846 457.478C563.927 457.613 563.98 457.764 564.003 457.92C564.025 458.076 564.017 458.235 563.978 458.388C563.908 458.639 563.757 458.86 563.55 459.017C563.342 459.174 563.089 459.259 562.828 459.258V459.258Z" fill="black"/>
<path d="M611.598 479.138C611.307 479.137 611.027 479.031 610.808 478.838C604.168 472.978 595.688 468.268 585.608 464.838C585.307 464.735 585.059 464.516 584.92 464.23C584.78 463.944 584.76 463.614 584.863 463.313C584.966 463.012 585.185 462.765 585.471 462.625C585.757 462.485 586.087 462.465 586.388 462.568C596.768 466.098 605.518 470.968 612.388 477.038C612.572 477.2 612.701 477.413 612.759 477.651C612.818 477.888 612.803 478.137 612.716 478.365C612.629 478.594 612.474 478.79 612.273 478.928C612.071 479.066 611.832 479.14 611.588 479.138H611.598Z" fill="black"/>
<path d="M631.148 526.798H631.078C630.921 526.789 630.767 526.749 630.625 526.681C630.483 526.612 630.357 526.515 630.253 526.397C630.148 526.279 630.069 526.142 630.018 525.992C629.968 525.843 629.947 525.685 629.958 525.528C630.62 515.868 628.871 506.195 624.868 497.378C624.749 497.091 624.746 496.769 624.859 496.48C624.972 496.191 625.193 495.957 625.476 495.827C625.758 495.698 626.08 495.683 626.373 495.785C626.666 495.888 626.908 496.101 627.048 496.378C631.22 505.557 633.042 515.63 632.348 525.688C632.326 525.991 632.189 526.273 631.966 526.479C631.744 526.685 631.451 526.799 631.148 526.798V526.798Z" fill="black"/>
<path d="M622.148 557.078C621.96 557.079 621.775 557.035 621.608 556.948C621.468 556.877 621.343 556.779 621.24 556.66C621.138 556.54 621.061 556.402 621.012 556.252C620.964 556.102 620.946 555.944 620.959 555.788C620.972 555.631 621.016 555.478 621.088 555.338C625.551 546.777 628.357 537.451 629.358 527.848C629.36 527.682 629.396 527.518 629.465 527.366C629.533 527.215 629.632 527.079 629.756 526.968C629.88 526.857 630.025 526.773 630.183 526.721C630.341 526.669 630.508 526.65 630.674 526.666C630.839 526.682 631 526.732 631.145 526.813C631.29 526.895 631.416 527.005 631.516 527.138C631.616 527.271 631.688 527.423 631.726 527.585C631.764 527.747 631.768 527.915 631.738 528.078C630.715 537.982 627.824 547.602 623.218 556.428C623.117 556.624 622.963 556.789 622.775 556.904C622.586 557.019 622.369 557.079 622.148 557.078V557.078Z" fill="black"/>
<path d="M590.278 593.518C590.023 593.518 589.776 593.436 589.571 593.286C589.365 593.135 589.213 592.923 589.136 592.68C589.06 592.438 589.062 592.177 589.143 591.936C589.224 591.694 589.38 591.485 589.588 591.338C597.565 585.776 604.73 579.132 610.878 571.598C611.08 571.352 611.371 571.195 611.688 571.163C612.005 571.131 612.321 571.227 612.568 571.428C612.815 571.63 612.971 571.921 613.003 572.238C613.035 572.555 612.94 572.872 612.738 573.118C606.451 580.825 599.121 587.616 590.958 593.298C590.76 593.441 590.522 593.518 590.278 593.518Z" fill="black"/>
<path d="M541.378 613.798C541.095 613.796 540.823 613.694 540.607 613.511C540.392 613.329 540.247 613.077 540.198 612.798C540.168 612.644 540.168 612.485 540.199 612.331C540.231 612.177 540.292 612.03 540.381 611.9C540.469 611.77 540.582 611.659 540.714 611.572C540.846 611.486 540.993 611.427 541.148 611.398C550.71 609.564 560.043 606.687 568.978 602.818C569.122 602.753 569.278 602.716 569.437 602.711C569.596 602.705 569.754 602.731 569.902 602.787C570.051 602.843 570.187 602.927 570.303 603.035C570.419 603.144 570.512 603.274 570.578 603.418C570.644 603.563 570.68 603.719 570.686 603.877C570.691 604.036 570.665 604.194 570.609 604.342C570.554 604.491 570.469 604.627 570.361 604.743C570.252 604.859 570.122 604.953 569.978 605.018C560.88 608.958 551.376 611.886 541.638 613.748L541.378 613.798Z" fill="black"/>
<path d="M512.518 616.478C504.366 616.459 496.225 615.898 488.148 614.798C487.837 614.751 487.557 614.583 487.369 614.33C487.182 614.077 487.102 613.76 487.148 613.448C487.2 613.139 487.369 612.862 487.621 612.676C487.873 612.489 488.187 612.408 488.498 612.448C498.163 613.761 507.918 614.283 517.668 614.008V614.008C517.966 614.036 518.243 614.173 518.445 614.394C518.647 614.616 518.759 614.904 518.759 615.203C518.759 615.503 518.647 615.791 518.445 616.012C518.243 616.233 517.966 616.371 517.668 616.398C515.988 616.458 514.258 616.478 512.518 616.478Z" fill="black"/>
<path d="M47.198 277.888H156.198V335.888H156.018L155.698 375.388L131.828 335.888H47.198V277.888Z" fill="white"/>
<path d="M155.698 376.388C155.525 376.389 155.356 376.346 155.205 376.261C155.054 376.177 154.928 376.056 154.838 375.908L131.268 336.908H47.198C46.9328 336.908 46.6783 336.803 46.4907 336.615C46.3032 336.428 46.198 336.174 46.198 335.908V277.908C46.198 277.643 46.3032 277.389 46.4907 277.201C46.6783 277.014 46.9328 276.908 47.198 276.908H156.198C156.463 276.908 156.717 277.014 156.905 277.201C157.093 277.389 157.198 277.643 157.198 277.908V335.908C157.198 336.112 157.135 336.311 157.018 336.478L156.698 375.418C156.706 375.644 156.637 375.866 156.502 376.047C156.368 376.229 156.176 376.36 155.958 376.418C155.87 376.423 155.782 376.413 155.698 376.388ZM48.198 334.888H131.828C132 334.887 132.17 334.931 132.321 335.015C132.472 335.099 132.598 335.221 132.688 335.368L154.688 371.848L154.978 335.848C154.981 335.648 155.043 335.453 155.158 335.288V278.858H48.158L48.198 334.888Z" fill="black"/>
<path d="M133.198 296.888H65.198V298.888H133.198V296.888Z" fill="#47CEC0"/>
<path d="M131.198 317.888H103.198V319.888H131.198V317.888Z" fill="#47CEC0"/>
<path d="M314.089 134.292L203.231 98.3787L180.487 168.587L291.345 204.5L314.089 134.292Z" fill="#FCE054"/>
<path d="M247.058 152.088C246.985 152.091 246.912 152.076 246.846 152.044C246.78 152.013 246.722 151.967 246.678 151.908L202.618 98.8484C202.575 98.7975 202.543 98.7386 202.524 98.6751C202.504 98.6116 202.497 98.5449 202.504 98.4788C202.51 98.4127 202.53 98.3485 202.562 98.2901C202.593 98.2316 202.636 98.1801 202.688 98.1385C202.79 98.0556 202.921 98.0162 203.052 98.0293C203.183 98.0424 203.304 98.1068 203.388 98.2083L247.238 151.028L313.738 133.958C313.867 133.928 314.002 133.948 314.116 134.015C314.229 134.082 314.313 134.191 314.348 134.318C314.364 134.382 314.368 134.448 314.359 134.513C314.35 134.579 314.328 134.641 314.295 134.698C314.261 134.755 314.217 134.804 314.164 134.844C314.112 134.883 314.052 134.912 313.988 134.928L247.188 152.078L247.058 152.088Z" fill="black"/>
<path d="M180.258 169.238C180.165 169.237 180.073 169.211 179.994 169.161C179.914 169.112 179.85 169.042 179.808 168.958C179.779 168.899 179.762 168.835 179.758 168.769C179.754 168.704 179.763 168.638 179.784 168.576C179.805 168.513 179.839 168.456 179.882 168.407C179.926 168.357 179.979 168.317 180.038 168.288L237.548 139.948C237.607 139.919 237.671 139.903 237.737 139.898C237.802 139.894 237.868 139.903 237.931 139.925C237.993 139.946 238.05 139.979 238.1 140.023C238.149 140.066 238.189 140.119 238.218 140.178C238.247 140.237 238.264 140.302 238.268 140.367C238.272 140.433 238.263 140.499 238.242 140.561C238.22 140.623 238.187 140.681 238.143 140.73C238.1 140.779 238.047 140.819 237.988 140.848L180.478 169.188C180.409 169.219 180.334 169.236 180.258 169.238V169.238Z" fill="black"/>
<path d="M291.148 205.158C291.057 205.157 290.969 205.13 290.891 205.083C290.814 205.036 290.751 204.969 290.708 204.888L261.268 148.378C261.206 148.26 261.193 148.122 261.232 147.995C261.271 147.867 261.36 147.761 261.478 147.698C261.596 147.636 261.734 147.623 261.861 147.663C261.989 147.702 262.096 147.79 262.158 147.908L291.598 204.428C291.658 204.545 291.67 204.681 291.63 204.806C291.591 204.932 291.504 205.037 291.388 205.098C291.314 205.137 291.231 205.158 291.148 205.158V205.158Z" fill="black"/>
<path d="M522.731 376.365L462.742 398.95L477.047 436.946L537.036 414.362L522.731 376.365Z" fill="#47CEC0"/>
<path d="M500.008 406.798H499.898L462.758 399.088C462.693 399.076 462.631 399.051 462.576 399.015C462.521 398.979 462.474 398.932 462.437 398.876C462.401 398.821 462.376 398.759 462.364 398.695C462.352 398.63 462.353 398.563 462.368 398.498C462.381 398.434 462.407 398.373 462.444 398.319C462.481 398.265 462.528 398.219 462.583 398.184C462.638 398.148 462.699 398.124 462.764 398.113C462.828 398.102 462.894 398.104 462.958 398.118L499.798 405.748L522.448 375.748C522.529 375.644 522.648 375.576 522.779 375.559C522.91 375.542 523.043 375.578 523.148 375.658C523.254 375.738 523.324 375.856 523.343 375.987C523.362 376.119 523.328 376.252 523.248 376.358L500.398 406.648C500.348 406.7 500.287 406.74 500.219 406.766C500.152 406.792 500.08 406.803 500.008 406.798Z" fill="black"/>
<path d="M477.148 437.098C477.075 437.096 477.004 437.079 476.938 437.048C476.878 437.022 476.824 436.983 476.78 436.935C476.735 436.887 476.701 436.831 476.679 436.769C476.656 436.708 476.646 436.642 476.65 436.577C476.653 436.511 476.669 436.447 476.698 436.388L491.698 404.468C491.72 404.401 491.756 404.34 491.804 404.288C491.852 404.236 491.91 404.195 491.974 404.167C492.039 404.139 492.109 404.125 492.18 404.126C492.25 404.127 492.32 404.143 492.384 404.172C492.448 404.202 492.505 404.245 492.551 404.299C492.597 404.352 492.631 404.415 492.652 404.482C492.672 404.55 492.677 404.621 492.668 404.691C492.659 404.761 492.635 404.828 492.598 404.888L477.598 436.808C477.556 436.893 477.492 436.965 477.413 437.016C477.334 437.067 477.242 437.095 477.148 437.098V437.098Z" fill="black"/>
<path d="M537.148 414.508C537.082 414.521 537.014 414.521 536.948 414.508L504.898 400.308C504.776 400.254 504.681 400.153 504.633 400.028C504.585 399.904 504.589 399.765 504.643 399.643C504.697 399.521 504.798 399.426 504.923 399.378C505.047 399.33 505.186 399.334 505.308 399.388L537.358 413.588C537.478 413.643 537.572 413.743 537.619 413.867C537.666 413.99 537.662 414.128 537.608 414.248C537.564 414.331 537.497 414.399 537.416 414.445C537.334 414.492 537.241 414.513 537.148 414.508Z" fill="black"/>
<path d="M180.648 114.298C180.488 114.302 180.328 114.275 180.178 114.218C179.987 114.162 179.808 114.069 179.654 113.943C179.499 113.817 179.372 113.661 179.278 113.485C179.185 113.309 179.128 113.115 179.111 112.917C179.094 112.718 179.116 112.518 179.178 112.328L193.178 70.3284C193.323 69.9792 193.595 69.6978 193.94 69.5408C194.284 69.3837 194.675 69.3623 195.034 69.4812C195.393 69.6001 195.694 69.8505 195.876 70.1819C196.059 70.5133 196.11 70.9012 196.018 71.2683L182.018 113.268C181.922 113.559 181.74 113.814 181.495 113.998C181.25 114.182 180.954 114.287 180.648 114.298V114.298Z" fill="#47CEC0"/>
<path d="M628.548 206.298H542.528C532.929 206.298 525.148 214.08 525.148 223.678V298.918C525.148 308.517 532.929 316.298 542.528 316.298H628.548C638.147 316.298 645.928 308.517 645.928 298.918V223.678C645.928 214.08 638.147 206.298 628.548 206.298Z" fill="#CB93EE"/>
<path d="M601.978 301.298H549.148V246.418L550.348 246.658C550.538 246.658 570.198 250.498 574.748 240.658C577.478 234.738 586.958 215.258 594.158 213.358C594.742 213.184 595.359 213.146 595.96 213.246C596.561 213.347 597.132 213.583 597.628 213.938C603.278 217.938 594.488 236.938 591.258 243.398C597.048 243.588 616.148 244.928 616.148 254.238C616.148 263.028 614.368 263.468 600.398 264.238C591.328 264.778 586.508 263.988 584.258 261.628C583.659 260.941 583.224 260.127 582.986 259.247C582.749 258.366 582.716 257.444 582.888 256.548C582.966 255.893 583.179 255.261 583.515 254.692C583.85 254.124 584.301 253.632 584.838 253.248C590.198 249.148 605.598 251.458 606.248 251.558L605.948 253.558C601.728 252.908 589.948 251.878 586.048 254.858C585.727 255.079 585.458 255.365 585.256 255.698C585.054 256.03 584.925 256.402 584.878 256.788C584.737 257.393 584.738 258.022 584.882 258.626C585.026 259.23 585.309 259.792 585.708 260.268C587.438 262.088 592.198 262.738 600.278 262.268C614.148 261.448 614.148 261.178 614.148 254.208C614.148 246.938 596.458 245.338 589.638 245.338H587.998L588.758 243.878C593.688 234.318 600.148 218.158 596.468 215.528C596.21 215.344 595.913 215.224 595.601 215.177C595.288 215.13 594.968 215.158 594.668 215.258C589.938 216.508 582.168 229.328 576.558 241.468C572.008 251.328 555.758 249.538 551.148 248.818V299.288H601.978V301.298Z" fill="white"/>
<path d="M610.448 264.918C611.065 264.917 611.677 265.038 612.248 265.273C612.819 265.509 613.338 265.855 613.774 266.292C614.211 266.729 614.557 267.247 614.793 267.818C615.029 268.389 615.149 269.001 615.148 269.618V269.968C615.148 271.215 614.653 272.41 613.771 273.292C612.89 274.173 611.694 274.668 610.448 274.668H589.398C588.153 274.666 586.96 274.169 586.081 273.288C585.202 272.407 584.708 271.213 584.708 269.968V269.618C584.707 269.002 584.827 268.391 585.062 267.821C585.297 267.25 585.642 266.732 586.078 266.296C586.514 265.859 587.031 265.513 587.601 265.276C588.171 265.04 588.781 264.918 589.398 264.918H610.448ZM610.448 262.918H589.398C587.623 262.921 585.921 263.628 584.667 264.884C583.413 266.14 582.708 267.843 582.708 269.618V269.968C582.708 271.743 583.413 273.446 584.667 274.702C585.921 275.959 587.623 276.666 589.398 276.668H610.448C612.224 276.666 613.927 275.959 615.183 274.703C616.439 273.447 617.145 271.744 617.148 269.968V269.618C617.148 267.841 616.442 266.137 615.186 264.881C613.929 263.624 612.225 262.918 610.448 262.918V262.918Z" fill="white"/>
<path d="M610.448 278.208C611.065 278.207 611.677 278.328 612.248 278.563C612.819 278.799 613.338 279.145 613.774 279.582C614.211 280.019 614.557 280.537 614.793 281.108C615.029 281.679 615.149 282.291 615.148 282.908V283.258C615.149 283.876 615.029 284.488 614.793 285.059C614.557 285.629 614.211 286.148 613.774 286.585C613.338 287.021 612.819 287.368 612.248 287.603C611.677 287.839 611.065 287.96 610.448 287.958H589.398C588.781 287.958 588.171 287.837 587.601 287.6C587.031 287.364 586.514 287.018 586.078 286.581C585.642 286.144 585.297 285.626 585.062 285.056C584.827 284.486 584.707 283.875 584.708 283.258V282.908C584.707 282.292 584.827 281.681 585.062 281.111C585.297 280.54 585.642 280.022 586.078 279.585C586.514 279.149 587.031 278.803 587.601 278.566C588.171 278.33 588.781 278.208 589.398 278.208H610.448ZM610.448 276.208H589.398C587.623 276.211 585.921 276.918 584.667 278.174C583.413 279.431 582.708 281.133 582.708 282.908V283.258C582.708 285.034 583.413 286.736 584.667 287.992C585.921 289.249 587.623 289.956 589.398 289.958H610.448C612.224 289.956 613.927 289.249 615.183 287.993C616.439 286.737 617.145 285.034 617.148 283.258V282.908C617.145 281.132 616.439 279.43 615.183 278.174C613.927 276.918 612.224 276.211 610.448 276.208Z" fill="white"/>
<path d="M609.148 290.518C609.715 290.518 610.276 290.63 610.8 290.847C611.323 291.065 611.799 291.383 612.199 291.784C612.6 292.185 612.917 292.662 613.133 293.186C613.349 293.71 613.459 294.272 613.458 294.838V295.158C613.459 295.725 613.349 296.287 613.133 296.811C612.917 297.335 612.6 297.811 612.199 298.212C611.799 298.614 611.323 298.932 610.8 299.149C610.276 299.367 609.715 299.478 609.148 299.478H589.848C589.28 299.48 588.718 299.369 588.193 299.152C587.669 298.935 587.192 298.617 586.791 298.216C586.389 297.815 586.071 297.338 585.854 296.813C585.637 296.288 585.527 295.726 585.528 295.158V294.798C585.527 294.231 585.637 293.668 585.854 293.144C586.071 292.619 586.389 292.142 586.791 291.741C587.192 291.339 587.669 291.021 588.193 290.804C588.718 290.588 589.28 290.477 589.848 290.478H609.148V290.518ZM609.148 288.478H589.848C588.172 288.478 586.564 289.144 585.379 290.329C584.194 291.515 583.528 293.122 583.528 294.798V295.118C583.53 296.794 584.197 298.4 585.382 299.584C586.566 300.769 588.173 301.436 589.848 301.438H609.148C610.822 301.436 612.427 300.769 613.61 299.584C614.793 298.399 615.458 296.793 615.458 295.118V294.798C615.458 293.124 614.793 291.518 613.61 290.333C612.427 289.148 610.822 288.481 609.148 288.478Z" fill="white"/>
<path d="M615.148 502.298C636.135 502.298 653.148 485.285 653.148 464.298C653.148 443.312 636.135 426.298 615.148 426.298C594.161 426.298 577.148 443.312 577.148 464.298C577.148 485.285 594.161 502.298 615.148 502.298Z" fill="white"/>
<path d="M615.148 503.298C607.434 503.298 599.894 501.011 593.48 496.726C587.067 492.44 582.068 486.349 579.117 479.223C576.165 472.097 575.393 464.255 576.897 456.69C578.402 449.125 582.116 442.176 587.571 436.721C593.025 431.267 599.974 427.553 607.539 426.048C615.105 424.543 622.946 425.315 630.073 428.267C637.199 431.219 643.29 436.218 647.575 442.631C651.86 449.045 654.148 456.585 654.148 464.298C654.135 474.638 650.021 484.55 642.71 491.861C635.399 499.172 625.487 503.285 615.148 503.298V503.298ZM615.148 427.298C607.83 427.298 600.676 429.468 594.592 433.534C588.507 437.6 583.765 443.378 580.964 450.139C578.164 456.9 577.431 464.339 578.859 471.517C580.286 478.694 583.81 485.287 588.985 490.461C594.159 495.636 600.752 499.16 607.93 500.587C615.107 502.015 622.546 501.282 629.307 498.482C636.068 495.682 641.846 490.939 645.912 484.855C649.978 478.77 652.148 471.616 652.148 464.298C652.148 454.485 648.25 445.074 641.311 438.136C634.372 431.197 624.961 427.298 615.148 427.298V427.298Z" fill="black"/>
<path d="M615.918 486.098L600.408 459.008L603.888 457.008L615.108 476.608C618.608 460.068 627.408 435.028 649.278 424.478L651.018 428.078C627.908 439.238 620.368 469.258 618.208 481.658C618.178 482.266 618.007 482.858 617.708 483.388L615.918 486.098Z" fill="#47CEC0"/>
<path d="M458.589 60.2394L413.879 86.8705C410.876 88.6595 409.891 92.5446 411.68 95.5481L430.988 127.964C432.777 130.967 436.662 131.951 439.666 130.162L484.376 103.531C487.379 101.742 488.364 97.8572 486.575 94.8537L467.267 62.4382C465.478 59.4347 461.592 58.4503 458.589 60.2394Z" fill="#ED5564"/>
<path d="M438.056 104.263C439.816 103.214 440.361 100.883 439.273 99.0563C438.185 97.2295 435.876 96.5986 434.115 97.6471C432.355 98.6957 431.81 101.027 432.898 102.853C433.986 104.68 436.296 105.311 438.056 104.263Z" fill="white"/>
<path d="M450.984 96.5603C452.744 95.5117 453.29 93.1808 452.201 91.3541C451.113 89.5273 448.804 88.8964 447.044 89.945C445.283 90.9935 444.738 93.3245 445.826 95.1513C446.915 96.9781 449.224 97.6088 450.984 96.5603Z" fill="white"/>
<path d="M464.692 88.3851C466.452 87.3366 466.997 85.0058 465.909 83.179C464.821 81.3522 462.512 80.7212 460.752 81.7698C458.991 82.8183 458.446 85.1494 459.534 86.9762C460.622 88.803 462.932 89.4337 464.692 88.3851Z" fill="white"/>
<path d="M465.985 201.7L411.684 215.39L424.095 264.62L478.396 250.93L465.985 201.7Z" fill="#ED5564"/>
<path d="M420.498 249.658L435.528 223.788L454.388 234.428L470.108 217.368L478.508 250.678L424.208 264.378L420.498 249.658Z" fill="#FCE054"/>
<path d="M451.458 224.998C454.346 224.998 456.688 222.657 456.688 219.768C456.688 216.88 454.346 214.538 451.458 214.538C448.57 214.538 446.228 216.88 446.228 219.768C446.228 222.657 448.57 224.998 451.458 224.998Z" fill="#FCE054"/>
<path d="M156.148 291.298C165.537 291.298 173.148 283.687 173.148 274.298C173.148 264.909 165.537 257.298 156.148 257.298C146.759 257.298 139.148 264.909 139.148 274.298C139.148 283.687 146.759 291.298 156.148 291.298Z" fill="#FCE054"/>
<path d="M165.148 275.298H147.148C146.883 275.298 146.628 275.193 146.441 275.005C146.253 274.818 146.148 274.564 146.148 274.298C146.148 274.033 146.253 273.779 146.441 273.591C146.628 273.404 146.883 273.298 147.148 273.298H165.148C165.413 273.298 165.667 273.404 165.855 273.591C166.043 273.779 166.148 274.033 166.148 274.298C166.148 274.564 166.043 274.818 165.855 275.005C165.667 275.193 165.413 275.298 165.148 275.298Z" fill="black"/>
<path d="M156.148 283.178C155.883 283.178 155.628 283.073 155.441 282.885C155.253 282.698 155.148 282.443 155.148 282.178V266.298C155.148 266.033 155.253 265.779 155.441 265.591C155.628 265.404 155.883 265.298 156.148 265.298C156.413 265.298 156.667 265.404 156.855 265.591C157.043 265.779 157.148 266.033 157.148 266.298V282.178C157.148 282.443 157.043 282.698 156.855 282.885C156.667 283.073 156.413 283.178 156.148 283.178Z" fill="black"/>
<path d="M72.648 451.298C72.2766 451.293 71.9203 451.151 71.648 450.898L46.648 427.898C46.472 427.777 46.324 427.619 46.2139 427.436C46.1038 427.252 46.0342 427.048 46.0098 426.835C45.9854 426.623 46.0067 426.407 46.0723 426.204C46.1379 426 46.2463 425.813 46.3902 425.655C46.534 425.497 46.7101 425.371 46.9065 425.286C47.103 425.202 47.315 425.16 47.5288 425.164C47.7427 425.168 47.9533 425.218 48.1463 425.31C48.3393 425.402 48.5103 425.535 48.648 425.698L73.648 448.698C73.8679 448.902 74.0216 449.167 74.0894 449.459C74.1572 449.751 74.136 450.057 74.0284 450.337C73.9207 450.617 73.7317 450.858 73.4856 451.029C73.2396 451.201 72.9478 451.294 72.648 451.298V451.298Z" fill="#FCE054"/>
<path d="M569.148 562.298C566.577 562.298 564.063 561.536 561.925 560.107C559.788 558.679 558.121 556.649 557.137 554.273C556.154 551.898 555.896 549.284 556.398 546.762C556.899 544.241 558.138 541.924 559.956 540.106C561.774 538.288 564.09 537.05 566.612 536.548C569.134 536.047 571.748 536.304 574.123 537.288C576.499 538.272 578.529 539.938 579.957 542.076C581.386 544.214 582.148 546.727 582.148 549.298C582.148 552.746 580.778 556.053 578.34 558.491C575.902 560.929 572.596 562.298 569.148 562.298ZM569.148 539.298C567.17 539.298 565.237 539.885 563.592 540.984C561.948 542.083 560.666 543.644 559.909 545.471C559.152 547.299 558.954 549.31 559.34 551.249C559.726 553.189 560.678 554.971 562.077 556.369C563.475 557.768 565.258 558.72 567.197 559.106C569.137 559.492 571.147 559.294 572.975 558.537C574.802 557.78 576.364 556.499 577.462 554.854C578.561 553.21 579.148 551.276 579.148 549.298C579.148 546.646 578.095 544.103 576.219 542.227C574.344 540.352 571.8 539.298 569.148 539.298V539.298Z" fill="#FCE054"/>
<path d="M233.148 619.298L297.148 642.298L393.148 638.298V601.298L233.148 619.298Z" fill="#47CEC0"/>
<path d="M215.148 554.298L317.148 567.298C317.148 567.298 342.148 552.298 352.148 556.298C358.219 558.755 363.68 562.509 368.148 567.298L360.148 632.298C360.148 632.298 352.148 608.298 337.148 613.298C326.478 616.858 298.148 635.298 215.148 635.298C137.888 635.298 121.228 627.618 122.148 587.298C123.068 546.978 151.558 479.518 181.148 422.298C196.148 393.298 263.148 394.298 263.148 394.298C304.148 396.298 385.148 397.298 398.148 406.298C411.148 415.298 457.148 502.298 459.148 556.298C461.148 610.298 408.148 622.298 408.148 622.298" fill="white"/>
<path d="M215.148 636.298C169.728 636.298 142.768 633.898 130.378 621.208C123.528 614.208 120.768 604.048 121.148 587.278C122.218 540.698 158.638 463.628 180.258 421.838C195.368 392.628 260.418 393.268 263.158 393.298C271.028 393.678 280.398 394.029 290.318 394.399C333.818 396.019 387.958 398.028 398.718 405.478C405.798 410.378 420.828 435.548 433.718 464.008C443.088 484.778 458.998 524.378 460.178 556.258C461.228 584.588 447.078 601.308 435.028 610.348C427.064 616.328 418.023 620.718 408.398 623.278C408.133 623.337 407.855 623.287 407.627 623.141C407.398 622.995 407.236 622.764 407.178 622.498C407.12 622.233 407.169 621.956 407.315 621.727C407.462 621.498 407.693 621.337 407.958 621.278C417.321 618.753 426.12 614.474 433.888 608.669C450.818 595.939 458.998 578.318 458.178 556.298C457.008 524.758 441.178 485.428 431.888 464.798C417.888 433.858 403.488 411.148 397.608 407.078C387.338 399.968 331.238 397.878 290.278 396.358C280.348 395.988 270.968 395.638 263.128 395.258C262.508 395.258 196.608 394.598 182.068 422.718C145.418 493.578 123.948 553.558 123.178 587.278C122.808 603.468 125.398 613.178 131.838 619.768C143.738 631.948 170.308 634.258 215.178 634.258C285.798 634.258 316.178 621.088 330.828 614.758C333.298 613.688 335.258 612.848 336.828 612.308C348.828 608.308 356.578 621.628 359.628 628.308L367.098 567.568C362.771 563.073 357.553 559.531 351.778 557.169C342.348 553.399 317.908 567.948 317.658 568.098C317.465 568.212 317.24 568.258 317.018 568.228L215.018 555.228C214.869 555.208 214.725 555.154 214.599 555.071C214.474 554.988 214.368 554.877 214.291 554.747C214.214 554.617 214.168 554.472 214.155 554.321C214.142 554.171 214.164 554.019 214.218 553.878L241.008 484.288C241.104 484.04 241.294 483.841 241.536 483.733C241.779 483.625 242.055 483.618 242.303 483.713C242.551 483.809 242.751 483.999 242.859 484.242C242.967 484.485 242.974 484.76 242.878 485.008L216.538 553.409L316.938 566.198C319.938 564.418 342.668 551.368 352.518 555.308C358.744 557.818 364.34 561.669 368.908 566.588C368.998 566.694 369.064 566.817 369.104 566.949C369.143 567.082 369.155 567.221 369.138 567.358L361.138 632.358C361.112 632.585 361.01 632.795 360.848 632.955C360.686 633.115 360.474 633.215 360.248 633.238C360.03 633.25 359.814 633.189 359.634 633.067C359.453 632.944 359.318 632.765 359.248 632.558C359.168 632.328 351.388 609.558 337.518 614.188C335.988 614.698 334.068 615.528 331.648 616.578C316.848 623.018 286.148 636.298 215.148 636.298Z" fill="black"/>
<path d="M181.598 566.159C181.333 566.196 181.064 566.126 180.85 565.964C180.636 565.803 180.495 565.564 180.458 565.298C180.421 565.033 180.491 564.764 180.652 564.55C180.813 564.337 181.053 564.196 181.318 564.159L213.548 554.838C213.797 554.781 214.06 554.821 214.28 554.952C214.501 555.082 214.663 555.291 214.734 555.537C214.804 555.784 214.777 556.048 214.659 556.275C214.541 556.502 214.34 556.675 214.098 556.758L181.878 566.088C181.787 566.121 181.693 566.145 181.598 566.159V566.159Z" fill="black"/>
<path d="M370.668 286.348C370.668 286.348 397.118 286.008 396.158 264.578C395.198 243.148 372.158 244.818 361.078 249.758C361.078 249.758 354.078 223.388 332.258 225.498C310.438 227.608 309.938 245.848 309.938 245.848C309.938 245.848 283.858 221.328 268.068 234.988C252.278 248.648 256.158 265.928 256.158 265.928C256.158 265.928 212.418 321.368 314.658 346.358C398.848 366.938 370.668 286.348 370.668 286.348Z" fill="#201000"/>
<path d="M278.198 394.618L294.048 364.098C294.048 364.098 282.868 344.028 287.618 331.678C287.618 331.678 253.618 321.738 257.438 299.578C261.258 277.418 281.948 272.768 291.658 284.388L301.358 296.008C301.358 296.008 325.748 302.248 333.888 277.008C333.888 277.008 381.818 267.098 383.698 307.218C385.578 347.338 379.448 379.638 366.988 387.448C354.528 395.258 336.148 389.798 336.148 389.798L332.148 397.328C332.148 397.328 313.148 438.298 278.198 394.618Z" fill="white"/>
<path d="M308.708 415.798C298.828 415.798 288.318 408.918 277.418 395.288C277.298 395.138 277.223 394.956 277.204 394.765C277.184 394.573 277.22 394.38 277.308 394.208L292.918 364.158C291.248 361.038 282.678 344.088 286.338 332.378C280.548 330.488 252.868 320.318 256.458 299.458C258.368 288.348 264.758 280.298 273.568 277.928C276.941 276.983 280.516 277.035 283.861 278.076C287.206 279.118 290.178 281.105 292.418 283.798L301.918 295.158C304.818 295.808 325.578 299.558 332.918 276.758C332.973 276.59 333.071 276.44 333.203 276.322C333.334 276.205 333.495 276.124 333.668 276.088C334.668 275.878 358.388 271.148 373.278 282.698C380.338 288.188 384.178 296.438 384.678 307.238C386.678 349.388 380.078 380.478 367.498 388.358C356.128 395.478 340.378 391.978 336.648 390.998L333.008 397.818C332.728 398.428 325.388 413.938 311.218 415.648C310.385 415.748 309.547 415.798 308.708 415.798V415.798ZM279.388 394.548C290.608 408.408 301.238 414.848 310.988 413.668C324.048 412.098 331.168 397.078 331.238 396.928L335.238 389.348C335.346 389.144 335.522 388.983 335.735 388.894C335.949 388.805 336.186 388.792 336.408 388.858C336.588 388.918 354.488 394.138 366.408 386.658C378.328 379.178 384.568 348.138 382.658 307.328C382.178 297.148 378.598 289.398 372.028 284.328C359.088 274.328 338.278 277.328 334.598 277.978C326.088 303.148 301.318 297.128 301.058 297.058C300.859 297.007 300.681 296.895 300.548 296.738L290.838 285.118C288.841 282.718 286.192 280.948 283.21 280.022C280.229 279.096 277.043 279.053 274.038 279.898C266.038 282.058 260.148 289.508 258.378 299.828C254.758 320.828 287.518 330.718 287.848 330.828C287.981 330.866 288.105 330.932 288.212 331.02C288.319 331.109 288.407 331.219 288.469 331.343C288.531 331.467 288.566 331.603 288.573 331.741C288.58 331.88 288.558 332.019 288.508 332.148C283.968 343.928 294.758 363.518 294.868 363.718C294.956 363.87 295.002 364.043 295.002 364.218C295.002 364.394 294.956 364.566 294.868 364.718L279.388 394.548Z" fill="black"/>
<path d="M355.068 353.948C354.936 353.962 354.804 353.95 354.677 353.912C354.551 353.875 354.433 353.813 354.33 353.73C354.227 353.647 354.142 353.544 354.079 353.428C354.016 353.312 353.977 353.185 353.963 353.053C353.949 352.922 353.961 352.789 353.999 352.663C354.036 352.536 354.098 352.418 354.182 352.315C354.265 352.213 354.367 352.128 354.483 352.065C354.599 352.002 354.726 351.962 354.858 351.948C359.698 350.948 362.948 348.618 364.528 345.108C368.648 335.918 360.418 321.268 360.338 321.108C360.207 320.879 360.173 320.607 360.243 320.352C360.312 320.097 360.479 319.88 360.708 319.748C360.822 319.682 360.948 319.639 361.079 319.622C361.21 319.605 361.343 319.614 361.47 319.648C361.597 319.683 361.716 319.742 361.821 319.822C361.925 319.903 362.012 320.004 362.078 320.118C362.438 320.758 370.888 335.808 366.348 345.918C364.498 350.038 360.778 352.718 355.278 353.918L355.068 353.948Z" fill="black"/>
<path d="M327.308 360.568C327.221 360.578 327.134 360.578 327.048 360.568C325.385 360.196 323.817 359.485 322.441 358.48C321.064 357.476 319.909 356.198 319.048 354.728C315.588 348.648 317.798 340.658 317.898 340.318C317.97 340.064 318.14 339.849 318.371 339.72C318.601 339.59 318.873 339.558 319.128 339.628C319.255 339.664 319.373 339.725 319.477 339.806C319.58 339.888 319.667 339.99 319.731 340.105C319.795 340.22 319.836 340.347 319.851 340.478C319.866 340.609 319.854 340.742 319.818 340.868C319.818 340.938 317.738 348.408 320.818 353.738C321.549 354.975 322.526 356.048 323.689 356.891C324.852 357.734 326.175 358.329 327.578 358.638C327.833 358.707 328.052 358.873 328.185 359.102C328.318 359.33 328.355 359.603 328.288 359.858C328.224 360.068 328.094 360.25 327.917 360.378C327.74 360.507 327.526 360.573 327.308 360.568V360.568Z" fill="black"/>
<path d="M287.948 305.228C287.809 305.229 287.672 305.201 287.544 305.146C287.417 305.091 287.302 305.01 287.208 304.908C284.508 301.908 282.028 300.578 280.048 300.908C277.548 301.368 276.328 304.408 276.318 304.448C276.221 304.696 276.03 304.896 275.786 305.003C275.542 305.11 275.266 305.115 275.018 305.018C274.77 304.922 274.57 304.73 274.464 304.486C274.357 304.243 274.351 303.966 274.448 303.718C274.518 303.558 276.068 299.618 279.668 298.938C282.418 298.418 285.448 299.938 288.668 303.518C288.797 303.662 288.883 303.84 288.913 304.031C288.944 304.221 288.918 304.417 288.84 304.594C288.761 304.77 288.634 304.92 288.472 305.026C288.31 305.131 288.121 305.188 287.928 305.188L287.948 305.228Z" fill="black"/>
<path d="M340.878 291.988C340.65 291.987 340.429 291.908 340.252 291.765C340.075 291.621 339.953 291.421 339.905 291.198C339.857 290.975 339.887 290.743 339.989 290.539C340.092 290.335 340.261 290.173 340.468 290.078C343.247 288.969 346.337 288.923 349.148 289.948C349.271 289.995 349.383 290.065 349.479 290.155C349.574 290.245 349.651 290.353 349.705 290.473C349.759 290.593 349.789 290.722 349.793 290.854C349.797 290.985 349.775 291.115 349.728 291.238C349.681 291.361 349.611 291.473 349.521 291.569C349.431 291.665 349.323 291.742 349.203 291.795C349.083 291.849 348.954 291.879 348.823 291.883C348.692 291.887 348.561 291.865 348.438 291.818C346.119 290.987 343.578 291.015 341.278 291.898C341.152 291.956 341.016 291.986 340.878 291.988V291.988Z" fill="black"/>
<path d="M345.048 320.238C346.268 320.238 347.258 319.249 347.258 318.028C347.258 316.808 346.268 315.818 345.048 315.818C343.827 315.818 342.838 316.808 342.838 318.028C342.838 319.249 343.827 320.238 345.048 320.238Z" fill="#201000"/>
<path d="M373.458 323.018C374.679 323.018 375.668 322.029 375.668 320.808C375.668 319.588 374.679 318.598 373.458 318.598C372.237 318.598 371.248 319.588 371.248 320.808C371.248 322.029 372.237 323.018 373.458 323.018Z" fill="#201000"/>
<path d="M370.238 295.428C370.078 295.429 369.919 295.391 369.777 295.318C369.634 295.245 369.511 295.139 369.418 295.008C366.878 291.408 362.078 293.458 361.878 293.548C361.758 293.601 361.628 293.631 361.497 293.634C361.366 293.637 361.235 293.614 361.112 293.567C360.99 293.519 360.878 293.448 360.783 293.358C360.687 293.267 360.611 293.158 360.558 293.038C360.505 292.918 360.476 292.789 360.473 292.657C360.47 292.526 360.492 292.395 360.54 292.273C360.587 292.15 360.658 292.038 360.749 291.943C360.839 291.848 360.948 291.771 361.068 291.718C363.298 290.718 368.258 289.908 371.068 293.858C371.22 294.075 371.28 294.342 371.235 294.603C371.19 294.863 371.044 295.095 370.828 295.248C370.658 295.374 370.45 295.438 370.238 295.428V295.428Z" fill="black"/>
<path d="M289.848 315.798C289.583 315.798 289.328 315.693 289.141 315.505C288.953 315.318 288.848 315.063 288.848 314.798C289.028 294.858 274.188 291.388 274.038 291.358C273.773 291.301 273.541 291.141 273.394 290.913C273.246 290.685 273.196 290.408 273.253 290.143C273.31 289.878 273.47 289.646 273.698 289.499C273.926 289.352 274.203 289.301 274.468 289.358C274.628 289.358 291.038 293.228 290.848 314.778C290.85 314.911 290.827 315.043 290.777 315.167C290.728 315.291 290.655 315.403 290.562 315.498C290.469 315.593 290.358 315.669 290.235 315.72C290.113 315.772 289.981 315.798 289.848 315.798Z" fill="black"/>
<path d="M498.148 642.298H297.148L347.148 514.298H548.148L498.148 642.298Z" fill="#47CEC0"/>
<path d="M422.648 593.298C428.447 593.298 433.148 588.597 433.148 582.798C433.148 576.999 428.447 572.298 422.648 572.298C416.849 572.298 412.148 576.999 412.148 582.798C412.148 588.597 416.849 593.298 422.648 593.298Z" fill="white"/>
<path d="M390.148 515.298C389.911 515.302 389.681 515.222 389.498 515.072C389.314 514.922 389.191 514.711 389.148 514.478L383.148 481.478C383.101 481.218 383.159 480.951 383.309 480.733C383.459 480.516 383.689 480.367 383.948 480.318C384.208 480.272 384.476 480.329 384.693 480.479C384.91 480.629 385.059 480.859 385.108 481.118L391.108 514.118C391.155 514.378 391.097 514.646 390.947 514.863C390.797 515.081 390.567 515.23 390.308 515.278C390.256 515.293 390.202 515.3 390.148 515.298V515.298Z" fill="black"/>
<path d="M232.348 510.628C232.252 510.643 232.154 510.643 232.058 510.628L151.058 486.078C150.925 486.047 150.8 485.989 150.691 485.907C150.581 485.825 150.49 485.722 150.421 485.604C150.353 485.485 150.31 485.354 150.295 485.219C150.28 485.083 150.292 484.945 150.332 484.815C150.371 484.684 150.437 484.563 150.526 484.459C150.614 484.355 150.723 484.27 150.845 484.209C150.967 484.149 151.101 484.114 151.237 484.107C151.374 484.1 151.51 484.121 151.638 484.169L232.638 508.708C232.903 508.747 233.142 508.889 233.303 509.104C233.463 509.319 233.531 509.588 233.493 509.853C233.455 510.119 233.312 510.358 233.098 510.518C232.883 510.678 232.613 510.747 232.348 510.708V510.628Z" fill="black"/>
<path d="M387.218 498.358C386.953 498.388 386.687 498.31 386.478 498.143C386.27 497.976 386.137 497.733 386.108 497.468C386.079 497.203 386.156 496.937 386.323 496.729C386.49 496.521 386.733 496.388 386.998 496.358L441.238 484.088C441.369 484.059 441.505 484.057 441.637 484.08C441.77 484.104 441.896 484.153 442.009 484.226C442.123 484.298 442.221 484.392 442.298 484.502C442.374 484.613 442.429 484.737 442.458 484.868C442.487 485 442.49 485.135 442.466 485.268C442.442 485.4 442.393 485.527 442.32 485.64C442.248 485.753 442.154 485.851 442.044 485.928C441.934 486.005 441.809 486.059 441.678 486.088L387.438 498.358C387.365 498.368 387.291 498.368 387.218 498.358V498.358Z" fill="black"/>
<path d="M239.438 492.218C239.342 492.232 239.244 492.232 239.148 492.218L158.808 468.618C158.682 468.582 158.564 468.521 158.462 468.438C158.36 468.356 158.274 468.254 158.211 468.139C158.148 468.024 158.108 467.898 158.094 467.767C158.08 467.637 158.091 467.505 158.128 467.379C158.165 467.252 158.226 467.135 158.308 467.032C158.39 466.93 158.492 466.845 158.607 466.782C158.722 466.718 158.849 466.679 158.979 466.664C159.11 466.65 159.242 466.662 159.368 466.698L239.718 490.298C239.983 490.336 240.223 490.476 240.384 490.69C240.545 490.904 240.615 491.173 240.578 491.438C240.541 491.704 240.4 491.943 240.186 492.105C239.972 492.266 239.703 492.336 239.438 492.298V492.218Z" fill="black"/>
<path d="M387.148 486.298C386.883 486.331 386.615 486.258 386.404 486.094C386.193 485.93 386.056 485.688 386.023 485.423C385.99 485.158 386.063 484.891 386.228 484.68C386.392 484.469 386.633 484.331 386.898 484.298L436.088 471.558C436.215 471.525 436.348 471.518 436.478 471.536C436.609 471.554 436.734 471.598 436.847 471.665C436.961 471.732 437.06 471.82 437.139 471.926C437.218 472.031 437.275 472.151 437.308 472.278C437.341 472.406 437.349 472.538 437.33 472.669C437.312 472.799 437.268 472.924 437.201 473.038C437.134 473.151 437.046 473.25 436.94 473.329C436.835 473.408 436.715 473.466 436.588 473.498L387.398 486.238C387.317 486.268 387.233 486.288 387.148 486.298Z" fill="black"/>
<path d="M297.148 437.298C297.001 437.299 296.856 437.266 296.723 437.204C296.59 437.142 296.472 437.051 296.378 436.938L261.378 394.938C261.294 394.837 261.231 394.721 261.192 394.595C261.153 394.469 261.139 394.337 261.151 394.206C261.163 394.075 261.201 393.948 261.262 393.832C261.323 393.716 261.407 393.612 261.508 393.528C261.609 393.444 261.726 393.381 261.851 393.342C261.977 393.303 262.109 393.289 262.24 393.301C262.371 393.313 262.498 393.351 262.615 393.412C262.731 393.474 262.834 393.557 262.918 393.659L297.008 434.568L308.658 414.788C308.733 414.661 308.836 414.552 308.959 414.469C309.082 414.386 309.221 414.331 309.368 414.308C309.515 414.287 309.664 414.298 309.806 414.341C309.948 414.384 310.078 414.459 310.188 414.558L326.788 429.618L339.958 399.409C340.01 399.287 340.086 399.178 340.18 399.086C340.275 398.994 340.387 398.922 340.51 398.874C340.633 398.826 340.763 398.802 340.895 398.804C341.027 398.807 341.157 398.836 341.278 398.888C341.398 398.942 341.507 399.018 341.597 399.113C341.688 399.208 341.759 399.32 341.807 399.443C341.854 399.565 341.877 399.696 341.874 399.827C341.87 399.959 341.841 400.088 341.788 400.208L328.068 431.698C328.004 431.845 327.907 431.974 327.784 432.075C327.66 432.175 327.514 432.245 327.358 432.278C327.203 432.311 327.042 432.306 326.889 432.264C326.736 432.223 326.595 432.145 326.478 432.038L309.758 416.868L298.008 436.798C297.927 436.937 297.814 437.053 297.678 437.139C297.542 437.224 297.388 437.275 297.228 437.288L297.148 437.298Z" fill="black"/>
</svg>
