<svg width="700" height="700" viewBox="0 0 700 700" fill="none" xmlns="http://www.w3.org/2000/svg">
<rect width="700" height="700" fill="white"/>
<path d="M258.452 428.63H441.122C460.477 410.345 473.898 386.67 479.649 360.672C485.399 334.673 483.213 307.547 473.373 282.805C463.534 258.062 446.495 236.843 424.461 221.893C402.428 206.943 376.414 198.951 349.787 198.951C323.16 198.951 297.146 206.943 275.112 221.893C253.078 236.843 236.039 258.062 226.2 282.805C216.361 307.547 214.175 334.673 219.925 360.672C225.675 386.67 239.096 410.345 258.452 428.63Z" fill="#CB93EE"/>
<path d="M428.022 361.965L397.933 363.332L398.798 382.392L428.887 381.026L428.022 361.965Z" fill="#FCE054"/>
<path d="M413.432 372.67C413.343 372.673 413.256 372.649 413.182 372.6L397.702 363.76C397.588 363.691 397.504 363.581 397.469 363.453C397.434 363.325 397.449 363.187 397.512 363.07C397.544 363.013 397.587 362.963 397.639 362.923C397.691 362.882 397.75 362.853 397.814 362.836C397.877 362.819 397.943 362.815 398.008 362.825C398.073 362.834 398.136 362.856 398.192 362.89L413.402 371.58L427.752 361.58C427.862 361.506 427.997 361.478 428.128 361.503C428.259 361.527 428.375 361.601 428.452 361.71C428.526 361.818 428.555 361.95 428.533 362.08C428.51 362.209 428.438 362.324 428.332 362.4L413.712 372.62C413.626 372.665 413.528 372.683 413.432 372.67Z" fill="black"/>
<path d="M398.812 382.88C398.685 382.877 398.564 382.827 398.472 382.74C398.425 382.694 398.388 382.64 398.363 382.58C398.338 382.52 398.325 382.455 398.325 382.39C398.325 382.325 398.338 382.26 398.363 382.2C398.388 382.14 398.425 382.086 398.472 382.04L409.802 370C409.843 369.942 409.897 369.893 409.958 369.857C410.02 369.821 410.089 369.799 410.16 369.792C410.231 369.785 410.303 369.793 410.371 369.816C410.439 369.84 410.501 369.877 410.553 369.926C410.605 369.975 410.645 370.035 410.672 370.101C410.699 370.167 410.712 370.239 410.709 370.31C410.706 370.381 410.688 370.452 410.655 370.515C410.623 370.579 410.578 370.635 410.522 370.68L399.182 382.76C399.131 382.804 399.073 382.838 399.009 382.858C398.945 382.879 398.878 382.886 398.812 382.88Z" fill="black"/>
<path d="M428.902 381.51C428.781 381.509 428.664 381.467 428.572 381.39L416.322 370.39C416.275 370.344 416.238 370.288 416.212 370.227C416.187 370.166 416.174 370.101 416.174 370.035C416.174 369.969 416.187 369.904 416.212 369.843C416.238 369.782 416.275 369.727 416.322 369.68C416.415 369.588 416.541 369.537 416.672 369.537C416.803 369.537 416.928 369.588 417.022 369.68L429.282 380.68C429.374 380.775 429.426 380.903 429.426 381.035C429.426 381.168 429.374 381.295 429.282 381.39C429.23 381.434 429.169 381.468 429.104 381.489C429.039 381.509 428.97 381.517 428.902 381.51Z" fill="black"/>
<path d="M273.833 322.552L230.902 335.669L239.209 362.858L282.14 349.741L273.833 322.552Z" fill="#FCE054"/>
<path d="M256.602 343.16H256.472L230.852 336.16C230.787 336.145 230.727 336.117 230.674 336.078C230.621 336.038 230.577 335.989 230.544 335.931C230.511 335.874 230.49 335.811 230.483 335.745C230.476 335.679 230.482 335.613 230.502 335.55C230.537 335.423 230.621 335.315 230.735 335.25C230.849 335.184 230.984 335.166 231.112 335.2L256.432 342.15L273.532 322.24C273.619 322.139 273.742 322.077 273.874 322.065C274.007 322.054 274.139 322.095 274.242 322.18C274.341 322.268 274.402 322.392 274.411 322.525C274.42 322.657 274.378 322.788 274.292 322.89L256.982 343C256.934 343.053 256.875 343.094 256.809 343.122C256.744 343.15 256.673 343.163 256.602 343.16Z" fill="black"/>
<path d="M239.342 363.31C239.258 363.309 239.176 363.289 239.102 363.25C238.987 363.185 238.902 363.077 238.864 362.95C238.827 362.824 238.84 362.687 238.902 362.57L250.812 340.93C250.843 340.872 250.886 340.821 250.937 340.78C250.989 340.738 251.048 340.708 251.111 340.69C251.175 340.673 251.241 340.668 251.307 340.676C251.372 340.685 251.435 340.707 251.492 340.74C251.549 340.77 251.6 340.812 251.641 340.863C251.683 340.913 251.713 340.971 251.731 341.034C251.748 341.097 251.753 341.163 251.745 341.227C251.736 341.292 251.715 341.354 251.682 341.41L239.782 363.05C239.739 363.13 239.676 363.196 239.598 363.242C239.521 363.288 239.432 363.311 239.342 363.31Z" fill="black"/>
<path d="M282.222 350.19C282.141 350.19 282.062 350.17 281.992 350.13L260.222 338.79C260.105 338.726 260.018 338.62 259.978 338.493C259.939 338.366 259.951 338.228 260.012 338.11C260.073 337.994 260.178 337.907 260.304 337.868C260.429 337.828 260.565 337.84 260.682 337.9L282.452 349.25C282.51 349.28 282.562 349.32 282.604 349.37C282.647 349.42 282.679 349.478 282.698 349.541C282.718 349.603 282.725 349.669 282.718 349.734C282.712 349.799 282.693 349.862 282.662 349.92C282.62 350.001 282.557 350.069 282.479 350.116C282.402 350.164 282.313 350.189 282.222 350.19Z" fill="black"/>
<path d="M338.652 292.71C338.652 292.71 337.482 268.1 363.262 272.79C389.042 277.48 382.012 297.39 382.012 297.39C382.012 297.39 396.072 289.19 404.272 300.91C412.472 312.63 395.932 335.37 395.932 335.37L319.412 394.37C319.412 394.37 274.202 399.31 269.522 374.7C264.842 350.09 269.522 343.06 269.522 343.06C269.522 343.06 244.912 320.8 262.522 305.57C280.132 290.34 301.192 303.22 301.192 303.22C301.192 303.22 292.982 283.3 307.052 273.93C321.122 264.56 336.342 277.47 338.652 292.71Z" fill="black"/>
<path d="M251.182 552.71H292.882V628.34L251.012 628.55L251.182 552.71Z" fill="white"/>
<path d="M428.952 628.55H426.952L427.402 541.3L473.872 540.85C474.252 530.51 476.262 438.63 428.302 433.85C392.302 430.26 364.612 431.63 340.152 432.85C329.412 433.38 319.282 433.85 309.602 433.85C277.852 433.85 252.012 465.99 252.012 505.5C252.012 538.44 252.122 548.84 252.172 551.7H293.882V625.7H291.882V553.7H250.222V552.7C250.222 552.64 250.042 546.7 250.042 505.47C250.042 485.39 256.362 466.71 267.842 452.87C279.102 439.29 293.942 431.82 309.632 431.82C319.262 431.82 329.372 431.31 340.082 430.82C364.612 429.6 392.412 428.22 428.532 431.82C450.322 434 465.412 453.82 472.172 489.09C477.222 515.5 475.872 541.62 475.852 541.88L475.802 542.81L429.422 543.26L428.952 628.55Z" fill="black"/>
<path d="M331.772 432.23C331.772 432.23 320.152 438.72 331.872 448.09C343.592 457.46 355.702 458.64 359.022 450.43C359.022 450.43 368.192 460.98 381.082 448.09C393.972 435.2 378.912 430.52 378.912 430.52" fill="white"/>
<path d="M349.992 456.93C344.492 456.93 337.742 454.07 331.242 448.87C327.242 445.69 325.392 442.42 325.662 439.16C326.062 434.32 331.072 431.47 331.292 431.35C331.523 431.224 331.794 431.195 332.047 431.268C332.299 431.341 332.513 431.51 332.642 431.74C332.771 431.971 332.804 432.244 332.733 432.499C332.662 432.753 332.492 432.97 332.262 433.1C332.262 433.1 327.962 435.56 327.652 439.34C327.442 441.89 329.072 444.57 332.492 447.34C339.822 453.2 347.642 455.98 352.922 454.6C354.087 454.329 355.167 453.775 356.069 452.989C356.97 452.203 357.665 451.207 358.092 450.09C358.156 449.932 358.26 449.793 358.393 449.686C358.527 449.579 358.685 449.509 358.853 449.481C359.022 449.453 359.195 449.468 359.355 449.526C359.516 449.583 359.659 449.681 359.772 449.81C361.936 452.03 364.856 453.354 367.952 453.52C372.002 453.65 376.192 451.6 380.372 447.41C384.242 443.55 385.842 440.16 385.142 437.33C384.142 433.26 378.672 431.52 378.622 431.51C378.367 431.432 378.154 431.256 378.029 431.02C377.905 430.785 377.878 430.51 377.957 430.255C378.035 430 378.211 429.787 378.446 429.663C378.682 429.538 378.957 429.512 379.212 429.59C379.482 429.68 385.812 431.7 387.082 436.85C387.962 440.41 386.182 444.44 381.792 448.85C377.192 453.45 372.492 455.69 367.862 455.54C364.716 455.398 361.708 454.205 359.322 452.15C358.689 453.245 357.841 454.2 356.828 454.958C355.816 455.716 354.66 456.261 353.432 456.56C352.305 456.828 351.149 456.953 349.992 456.93Z" fill="black"/>
<path d="M332.612 433.6V409.74C332.612 409.74 315.772 395.74 315.772 383.08C315.772 383.08 282.092 385.89 277.882 364.84C273.672 343.79 290.512 332.57 303.142 339.58L315.772 346.58C315.772 346.58 339.632 343.77 338.222 318.51C338.222 318.51 377.512 293.26 392.952 328.34C408.392 363.42 413.952 394.29 405.582 405.51C397.212 416.73 378.912 418.14 378.912 418.14V433.58C378.912 433.58 363.482 471.48 332.612 433.6Z" fill="white"/>
<path d="M358.342 451.44C350.072 451.44 341.172 445.66 331.852 434.23C331.708 434.051 331.631 433.829 331.632 433.6V410.2C329.172 408.08 315.632 395.88 314.832 384.14C308.922 384.45 280.832 384.83 276.922 365.03C274.812 354.47 277.752 345.09 284.802 339.95C287.489 337.945 290.698 336.762 294.043 336.542C297.388 336.321 300.725 337.075 303.652 338.71L315.992 345.56C318.842 345.13 338.512 341.33 337.242 318.56C337.232 318.383 337.269 318.206 337.35 318.048C337.43 317.889 337.552 317.756 337.702 317.66C338.522 317.13 358.042 304.77 375.282 309.96C383.472 312.43 389.722 318.47 393.882 327.96C410.112 364.84 414.882 394.8 406.402 406.14C398.802 416.27 383.842 418.62 379.932 419.07V433.61C379.932 433.737 379.908 433.862 379.862 433.98C379.612 434.61 373.452 449.38 360.932 451.25C360.074 451.379 359.209 451.442 358.342 451.44ZM333.632 433.24C343.362 445.09 352.442 450.48 360.632 449.24C371.332 447.64 377.222 434.99 377.932 433.36V418.13C377.931 417.876 378.027 417.632 378.199 417.447C378.372 417.261 378.609 417.148 378.862 417.13C379.042 417.13 396.752 415.63 404.802 404.9C412.852 394.17 407.752 364.4 392.052 328.73C388.142 319.84 382.312 314.17 374.712 311.88C359.812 307.39 342.382 317.18 339.272 319.05C340.272 344.39 316.152 347.53 315.912 347.56C315.704 347.584 315.494 347.542 315.312 347.44L302.682 340.44C300.089 338.993 297.132 338.326 294.169 338.521C291.206 338.717 288.362 339.765 285.982 341.54C279.582 346.21 276.932 354.84 278.892 364.62C282.892 384.55 315.382 382.09 315.712 382.06C315.849 382.049 315.988 382.066 316.119 382.11C316.25 382.155 316.37 382.226 316.472 382.32C316.573 382.414 316.654 382.529 316.71 382.656C316.765 382.784 316.793 382.921 316.792 383.06C316.792 395.06 333.112 408.81 333.272 408.95C333.385 409.044 333.475 409.162 333.538 409.295C333.6 409.428 333.632 409.573 333.632 409.72V433.24Z" fill="black"/>
<path d="M383.132 372.85C382.918 372.848 382.711 372.778 382.54 372.65C382.369 372.522 382.243 372.342 382.182 372.138C382.12 371.933 382.126 371.714 382.198 371.513C382.27 371.312 382.404 371.139 382.582 371.02C386.522 368.45 388.582 365.3 388.822 361.65C389.342 352.08 377.002 341.86 376.882 341.76C376.78 341.677 376.696 341.574 376.633 341.458C376.571 341.342 376.533 341.215 376.52 341.084C376.507 340.953 376.52 340.821 376.558 340.695C376.596 340.569 376.658 340.452 376.742 340.35C376.825 340.248 376.928 340.164 377.044 340.102C377.16 340.04 377.287 340.001 377.418 339.988C377.549 339.975 377.681 339.988 377.807 340.026C377.933 340.064 378.05 340.127 378.152 340.21C378.692 340.65 391.392 351.21 390.822 361.75C390.582 366.07 388.182 369.75 383.672 372.69C383.511 372.794 383.323 372.85 383.132 372.85Z" fill="black"/>
<path d="M359.092 395.4C356.379 395.455 353.735 394.544 351.632 392.83C346.452 388.6 345.632 380.7 345.632 380.36C345.608 380.095 345.69 379.831 345.861 379.627C346.032 379.422 346.276 379.294 346.542 379.27C346.807 379.246 347.071 379.329 347.275 379.499C347.48 379.67 347.608 379.915 347.632 380.18C347.632 380.26 348.362 387.59 352.892 391.28C353.962 392.122 355.195 392.735 356.513 393.079C357.831 393.423 359.206 393.492 360.552 393.28C360.683 393.266 360.816 393.277 360.943 393.314C361.07 393.351 361.188 393.412 361.291 393.495C361.394 393.578 361.48 393.68 361.543 393.796C361.607 393.911 361.647 394.039 361.662 394.17C361.676 394.301 361.665 394.434 361.628 394.561C361.591 394.688 361.529 394.806 361.447 394.909C361.364 395.012 361.262 395.098 361.146 395.162C361.03 395.225 360.903 395.266 360.772 395.28C360.214 395.349 359.653 395.389 359.092 395.4Z" fill="black"/>
<path d="M295.422 363.73C295.156 363.73 294.902 363.625 294.715 363.437C294.527 363.25 294.422 362.995 294.422 362.73C294.422 362.56 294.422 358.5 297.422 356.65C299.702 355.24 302.952 355.57 307.072 357.65C307.189 357.709 307.294 357.791 307.38 357.89C307.466 357.99 307.531 358.105 307.573 358.23C307.614 358.355 307.63 358.487 307.621 358.618C307.611 358.749 307.576 358.877 307.517 358.995C307.458 359.112 307.376 359.217 307.276 359.303C307.177 359.389 307.061 359.455 306.936 359.496C306.811 359.537 306.68 359.554 306.548 359.544C306.417 359.534 306.289 359.499 306.172 359.44C302.772 357.74 300.112 357.36 298.482 358.37C296.482 359.62 296.392 362.73 296.392 362.76C296.384 363.015 296.28 363.257 296.099 363.437C295.919 363.618 295.677 363.722 295.422 363.73Z" fill="black"/>
<path d="M338.692 334.27C338.494 334.269 338.301 334.21 338.137 334.099C337.973 333.988 337.845 333.832 337.77 333.649C337.696 333.466 337.677 333.265 337.716 333.071C337.755 332.877 337.851 332.699 337.992 332.56C340.096 330.612 342.845 329.508 345.712 329.46C345.977 329.46 346.231 329.565 346.419 329.753C346.606 329.94 346.712 330.195 346.712 330.46C346.712 330.725 346.606 330.98 346.419 331.167C346.231 331.355 345.977 331.46 345.712 331.46C343.375 331.518 341.136 332.412 339.402 333.98C339.308 334.073 339.197 334.146 339.076 334.196C338.954 334.246 338.823 334.271 338.692 334.27Z" fill="black"/>
<path d="M347.342 345.19C348.502 345.19 349.442 344.25 349.442 343.09C349.442 341.93 348.502 340.99 347.342 340.99C346.182 340.99 345.242 341.93 345.242 343.09C345.242 344.25 346.182 345.19 347.342 345.19Z" fill="#201000"/>
<path d="M381.022 335.37C382.181 335.37 383.122 334.43 383.122 333.27C383.122 332.11 382.181 331.17 381.022 331.17C379.862 331.17 378.922 332.11 378.922 333.27C378.922 334.43 379.862 335.37 381.022 335.37Z" fill="#201000"/>
<path d="M374.002 321.64C373.738 321.636 373.486 321.528 373.302 321.34C373.115 321.153 373.011 320.899 373.011 320.635C373.011 320.371 373.115 320.117 373.302 319.93C374.952 318.27 379.112 315.82 382.982 318.4C383.091 318.473 383.186 318.567 383.259 318.676C383.332 318.785 383.384 318.908 383.41 319.037C383.436 319.166 383.436 319.299 383.411 319.428C383.385 319.557 383.335 319.68 383.262 319.79C383.189 319.9 383.095 319.994 382.986 320.067C382.876 320.141 382.754 320.192 382.625 320.218C382.496 320.244 382.363 320.244 382.233 320.219C382.104 320.193 381.981 320.143 381.872 320.07C378.402 317.76 374.872 321.2 374.712 321.35C374.618 321.443 374.507 321.516 374.386 321.566C374.264 321.616 374.133 321.641 374.002 321.64Z" fill="black"/>
<path d="M311.942 368.24C311.739 368.239 311.542 368.176 311.376 368.06C311.209 367.944 311.083 367.78 311.012 367.59C304.362 349.87 290.422 351.73 289.832 351.82C289.566 351.86 289.296 351.793 289.081 351.633C288.865 351.474 288.721 351.235 288.682 350.97C288.642 350.705 288.709 350.435 288.869 350.219C289.028 350.003 289.266 349.86 289.532 349.82C289.692 349.82 305.652 347.58 312.882 366.82C312.928 366.943 312.95 367.073 312.946 367.205C312.942 367.336 312.913 367.465 312.859 367.585C312.805 367.705 312.728 367.813 312.632 367.903C312.537 367.993 312.424 368.063 312.302 368.11C312.192 368.178 312.069 368.222 311.942 368.24Z" fill="black"/>
<path d="M251.012 629.55C250.747 629.55 250.492 629.445 250.305 629.257C250.117 629.07 250.012 628.815 250.012 628.55L250.182 548.47C250.182 548.205 250.287 547.95 250.475 547.763C250.662 547.575 250.916 547.47 251.182 547.47C251.447 547.47 251.701 547.575 251.889 547.763C252.076 547.95 252.182 548.205 252.182 548.47L252.012 628.56C252.009 628.824 251.903 629.075 251.715 629.261C251.528 629.446 251.275 629.55 251.012 629.55Z" fill="black"/>
<path d="M428.402 542.28L458.402 541.83C458.402 541.83 463.092 444.57 467.772 400.05C469.452 384.16 482.632 368.05 491.212 362.55C506.432 352.72 528.212 341.21 526.122 378.25C524.342 409.68 536.912 627.38 481.702 627.6C432.352 627.8 427.932 541.83 427.932 541.83" fill="white"/>
<path d="M481.552 628.6C460.992 628.6 445.032 613.6 435.382 585.11C428.152 563.76 426.972 542.11 426.952 541.89C426.94 541.671 427 541.454 427.123 541.273C427.247 541.092 427.426 540.956 427.634 540.887C427.842 540.818 428.067 540.818 428.274 540.89C428.482 540.961 428.66 541.098 428.782 541.28L457.472 540.85C457.962 530.71 462.412 441.66 466.802 399.94C468.482 383.94 481.802 367.48 490.692 361.71C500.982 355.06 512.522 348.87 520.072 353.26C525.602 356.48 527.912 364.67 527.142 378.26C526.852 383.32 526.942 393.5 527.062 406.39C527.582 466.01 528.672 590.08 497.942 621.2C493.142 626.06 487.692 628.54 481.732 628.56L481.552 628.6ZM429.062 543.27C429.952 554.62 437.412 626.6 481.552 626.6H481.722C487.132 626.6 492.112 624.3 496.522 619.84C526.662 589.31 525.582 465.84 525.062 406.45C524.942 393.52 524.852 383.31 525.142 378.19C525.862 365.56 523.812 357.75 519.062 354.99C512.402 351.11 500.982 357.44 491.772 363.39C483.172 368.94 470.402 384.8 468.772 400.15C464.142 444.15 459.452 540.91 459.402 541.88C459.389 542.136 459.278 542.378 459.092 542.555C458.906 542.732 458.658 542.83 458.402 542.83L429.062 543.27Z" fill="black"/>
<path d="M457.252 574.47C456.986 574.47 456.732 574.365 456.545 574.177C456.357 573.99 456.252 573.735 456.252 573.47L457.522 539.74C457.527 539.609 457.558 539.48 457.613 539.36C457.668 539.241 457.746 539.134 457.843 539.045C457.939 538.955 458.053 538.886 458.176 538.841C458.299 538.795 458.43 538.775 458.562 538.78C458.693 538.785 458.822 538.816 458.941 538.871C459.061 538.927 459.168 539.005 459.257 539.101C459.346 539.198 459.416 539.311 459.461 539.434C459.506 539.558 459.527 539.689 459.522 539.82L458.252 573.55C458.232 573.801 458.117 574.035 457.932 574.206C457.747 574.376 457.504 574.471 457.252 574.47Z" fill="black"/>
<path d="M420.922 495C420.922 495 427.922 525.47 427.922 547.73L420.922 495Z" fill="white"/>
<path d="M427.952 548.69C427.686 548.69 427.432 548.585 427.245 548.397C427.057 548.21 426.952 547.955 426.952 547.69C426.952 525.8 420.022 495.49 419.952 495.19C419.922 495.062 419.918 494.929 419.94 494.8C419.961 494.67 420.008 494.546 420.078 494.435C420.148 494.323 420.239 494.226 420.346 494.15C420.453 494.074 420.574 494.019 420.702 493.99C420.83 493.96 420.962 493.956 421.092 493.978C421.222 494 421.346 494.047 421.457 494.116C421.569 494.186 421.665 494.277 421.742 494.384C421.818 494.491 421.872 494.612 421.902 494.74C421.972 495.04 428.952 525.57 428.952 547.74C428.939 547.996 428.828 548.238 428.642 548.415C428.456 548.592 428.208 548.69 427.952 548.69Z" fill="black"/>
<path d="M516.162 375.89C516.352 382.42 525.752 385.37 526.162 377.53C526.572 369.69 530.822 346.04 524.622 346.25C518.422 346.46 516.862 356.94 516.472 364.79C516.082 372.64 516.162 375.89 516.162 375.89Z" fill="white"/>
<path d="M522.182 383.23H522.132C520.26 383.115 518.5 382.298 517.202 380.944C515.905 379.589 515.166 377.795 515.132 375.92C515.132 375.79 515.042 372.53 515.422 364.74C516.062 351.98 519.122 345.42 524.532 345.25C524.984 345.228 525.435 345.306 525.854 345.479C526.272 345.652 526.647 345.915 526.952 346.25C529.822 349.35 529.012 359.18 527.752 370.75C527.452 373.51 527.192 375.9 527.102 377.56C526.932 381.75 524.452 383.23 522.182 383.23ZM517.182 375.86C517.202 377.216 517.724 378.515 518.648 379.508C519.572 380.5 520.831 381.114 522.182 381.23C523.942 381.23 525.022 379.87 525.182 377.48C525.262 375.76 525.532 373.35 525.832 370.55C526.652 362.98 528.042 350.31 525.552 347.63C525.445 347.503 525.309 347.402 525.157 347.336C525.004 347.27 524.838 347.241 524.672 347.25C519.452 347.41 517.882 356.91 517.492 364.84C517.112 372.54 517.202 375.84 517.202 375.84L517.182 375.86Z" fill="black"/>
<path d="M504.922 373.65C505.112 380.17 514.512 383.13 514.922 375.28C515.332 367.43 519.582 343.8 513.382 344C507.182 344.2 505.622 354.7 505.232 362.54C504.842 370.38 504.922 373.65 504.922 373.65Z" fill="white"/>
<path d="M510.942 381H510.892C509.02 380.885 507.26 380.068 505.962 378.714C504.665 377.359 503.926 375.565 503.892 373.69C503.892 373.55 503.802 370.3 504.182 362.5C504.822 349.74 507.882 343.19 513.292 343.01C513.744 342.986 514.196 343.064 514.614 343.237C515.033 343.41 515.408 343.674 515.712 344.01C518.582 347.1 517.772 356.93 516.512 368.5C516.212 371.27 515.952 373.65 515.872 375.31C515.692 379.5 513.212 381 510.942 381ZM505.942 373.63C505.966 374.984 506.49 376.282 507.413 377.273C508.336 378.264 509.593 378.879 510.942 379C512.692 379 513.772 377.63 513.892 375.24C513.972 373.52 514.242 371.11 514.542 368.32C515.372 360.75 516.752 348.08 514.262 345.4C514.154 345.273 514.019 345.172 513.866 345.105C513.714 345.037 513.548 345.005 513.382 345.01C508.162 345.18 506.602 354.67 506.202 362.6C505.822 370.3 505.912 373.6 505.912 373.6L505.942 373.63Z" fill="black"/>
<path d="M493.252 371C493.462 377.88 503.372 381 503.782 372.72C504.192 364.44 508.692 339.52 502.152 339.72C495.612 339.92 493.982 351 493.562 359.28C493.142 367.56 493.252 371 493.252 371Z" fill="white"/>
<path d="M499.612 378.66H499.552C497.597 378.532 495.762 377.675 494.41 376.258C493.058 374.841 492.288 372.968 492.252 371.01C492.252 370.87 492.162 367.44 492.572 359.22C493.232 345.8 496.452 338.9 502.122 338.71C502.592 338.697 503.06 338.786 503.494 338.971C503.927 339.155 504.315 339.431 504.632 339.78C507.632 343.03 506.782 353.38 505.452 365.57C505.142 368.48 504.862 371 504.782 372.75C504.562 377.11 501.972 378.66 499.612 378.66ZM494.252 370.95C494.278 372.39 494.836 373.77 495.818 374.824C496.8 375.878 498.137 376.532 499.572 376.66C501.462 376.66 502.572 375.2 502.742 372.66C502.832 370.85 503.112 368.31 503.432 365.36C504.302 357.36 505.752 343.99 503.122 341.15C503.001 341.005 502.847 340.89 502.673 340.815C502.499 340.74 502.311 340.708 502.122 340.72C496.572 340.9 494.912 350.94 494.492 359.33C494.092 367.45 494.182 370.93 494.182 370.96L494.252 370.95Z" fill="black"/>
<path d="M473.432 374.52C473.702 386.86 487.092 388.43 487.642 373.32C488.192 358.21 494.272 311.32 485.442 314.39C476.612 317.46 474.392 338.12 473.842 353.23C473.292 368.34 473.432 374.52 473.432 374.52Z" fill="white"/>
<path d="M480.502 385.21C476.622 385.21 472.622 381.51 472.502 374.54C472.502 374.48 472.362 368.17 472.912 353.2C473.792 329.34 477.912 315.97 485.182 313.45C485.662 313.264 486.182 313.205 486.692 313.279C487.201 313.353 487.683 313.556 488.092 313.87C492.622 317.38 491.472 336.87 489.632 360.04C489.202 365.45 488.832 370.12 488.712 373.35C488.342 381.55 484.342 385.21 480.502 385.21ZM474.432 374.49C474.552 380.19 477.562 383.19 480.432 383.21C483.302 383.23 486.352 380.21 486.602 373.28C486.722 370.01 487.102 365.28 487.532 359.88C488.752 344.44 490.802 318.59 486.762 315.46C486.621 315.353 486.454 315.286 486.278 315.265C486.102 315.244 485.924 315.27 485.762 315.34C481.352 316.87 475.882 324.69 474.832 353.27C474.292 368.16 474.412 374.43 474.422 374.49H474.432Z" fill="black"/>
<path d="M467.392 406.86C468.042 386.75 476.252 357.46 486.792 353.94C497.332 350.42 518.432 353.94 518.432 359.8C518.432 365.66 497.342 365.66 497.342 365.66C497.342 365.66 498.512 380.89 485.622 386.75" fill="white"/>
<path d="M467.392 407.86C467.126 407.86 466.872 407.755 466.685 407.567C466.497 407.38 466.392 407.125 466.392 406.86C467.022 387.43 475.162 356.79 486.482 353.02C495.082 350.16 511.082 351.74 517.062 356.02C518.632 357.16 519.432 358.43 519.432 359.81C519.432 365.81 503.602 366.59 498.362 366.66C498.362 370.34 497.362 382.52 486.032 387.66C485.794 387.75 485.53 387.746 485.295 387.648C485.06 387.551 484.871 387.368 484.766 387.135C484.662 386.903 484.649 386.64 484.732 386.399C484.815 386.159 484.987 385.959 485.212 385.84C497.292 380.35 496.392 366.33 496.342 365.73C496.332 365.593 496.351 365.455 496.397 365.326C496.443 365.196 496.515 365.078 496.609 364.977C496.703 364.877 496.816 364.797 496.942 364.742C497.068 364.688 497.204 364.66 497.342 364.66C505.682 364.66 517.432 363.15 517.432 359.8C517.432 358.93 516.592 358.14 515.892 357.64C510.892 354.03 495.742 352.01 487.112 354.89C477.572 358.07 469.112 385.89 468.392 406.89C468.384 407.15 468.275 407.397 468.088 407.578C467.902 407.759 467.652 407.86 467.392 407.86Z" fill="black"/>
<path d="M297.882 490.27C297.882 490.27 292.572 513.56 292.882 560.51L297.882 490.27Z" fill="#FCE054"/>
<path d="M291.882 560.51C291.572 513.99 296.882 490.29 296.882 490.05L298.832 490.5C298.832 490.73 293.542 514.24 293.832 560.5L291.882 560.51Z" fill="black"/>
<path d="M361.162 482.08C363.106 482.08 364.682 480.504 364.682 478.56C364.682 476.616 363.106 475.04 361.162 475.04C359.218 475.04 357.642 476.616 357.642 478.56C357.642 480.504 359.218 482.08 361.162 482.08Z" fill="black"/>
<path d="M361.162 507.86C363.106 507.86 364.682 506.284 364.682 504.34C364.682 502.396 363.106 500.82 361.162 500.82C359.218 500.82 357.642 502.396 357.642 504.34C357.642 506.284 359.218 507.86 361.162 507.86Z" fill="black"/>
<path d="M535.762 343.63C535.563 343.631 535.369 343.573 535.203 343.463C535.038 343.354 534.908 343.197 534.832 343.013C534.756 342.83 534.736 342.628 534.775 342.433C534.814 342.239 534.911 342.06 535.052 341.92L545.602 331.38C545.789 331.194 546.043 331.089 546.307 331.089C546.571 331.089 546.824 331.194 547.012 331.38C547.198 331.567 547.303 331.821 547.303 332.085C547.303 332.349 547.198 332.603 547.012 332.79L536.472 343.33C536.379 343.424 536.269 343.5 536.147 343.551C536.025 343.603 535.894 343.629 535.762 343.63Z" fill="black"/>
<path d="M542.792 358.86C542.526 358.878 542.265 358.791 542.064 358.617C541.863 358.442 541.74 358.195 541.722 357.93C541.703 357.665 541.791 357.403 541.965 357.202C542.14 357.002 542.386 356.878 542.652 356.86L559.052 354.52C559.314 354.483 559.581 354.552 559.793 354.711C560.005 354.87 560.145 355.107 560.182 355.37C560.219 355.631 560.152 355.896 559.994 356.108C559.837 356.319 559.602 356.46 559.342 356.5L542.932 358.84L542.792 358.86Z" fill="black"/>
<path d="M561.542 384.64H561.312L546.082 381.12C545.823 381.06 545.599 380.9 545.458 380.675C545.317 380.45 545.272 380.179 545.332 379.92C545.391 379.661 545.551 379.437 545.776 379.297C546.001 379.156 546.273 379.11 546.532 379.17L561.762 382.69C562.027 382.719 562.27 382.852 562.437 383.061C562.603 383.269 562.681 383.535 562.652 383.8C562.622 384.065 562.489 384.308 562.281 384.475C562.073 384.642 561.807 384.719 561.542 384.69V384.64Z" fill="black"/>
<path d="M447.632 421.6H253.122C251.178 421.6 249.602 423.174 249.602 425.115C249.602 427.056 251.178 428.63 253.122 428.63H447.632C449.576 428.63 451.152 427.056 451.152 425.115C451.152 423.174 449.576 421.6 447.632 421.6Z" fill="#CB93EE"/>
<path d="M254.342 422.88C254.076 422.88 253.822 422.775 253.635 422.587C253.447 422.4 253.342 422.145 253.342 421.88C253.342 421.615 253.447 421.36 253.635 421.173C253.822 420.985 254.076 420.88 254.342 420.88L440.602 420.6C440.867 420.6 441.121 420.705 441.309 420.893C441.496 421.08 441.602 421.335 441.602 421.6C441.602 421.865 441.496 422.12 441.309 422.307C441.121 422.495 440.867 422.6 440.602 422.6L254.352 422.88H254.342Z" fill="black"/>
<path d="M449.402 275.138L411.061 256.686L399.374 280.97L437.715 299.422L449.402 275.138Z" fill="#FCE054"/>
<path d="M424.342 278.56C424.257 278.56 424.174 278.537 424.1 278.495C424.026 278.453 423.965 278.393 423.922 278.32L410.632 257C410.595 256.945 410.571 256.882 410.559 256.817C410.548 256.752 410.549 256.685 410.564 256.621C410.579 256.556 410.607 256.496 410.646 256.442C410.685 256.389 410.735 256.344 410.792 256.31C410.905 256.242 411.04 256.221 411.169 256.251C411.298 256.281 411.41 256.359 411.482 256.47L424.642 277.57L449.342 274.7C449.406 274.69 449.472 274.694 449.536 274.71C449.599 274.727 449.658 274.756 449.709 274.796C449.761 274.837 449.804 274.887 449.835 274.944C449.866 275.002 449.886 275.065 449.892 275.13C449.902 275.196 449.898 275.263 449.881 275.328C449.864 275.392 449.834 275.452 449.792 275.505C449.751 275.557 449.7 275.601 449.641 275.633C449.583 275.664 449.518 275.684 449.452 275.69L424.452 278.6L424.342 278.56Z" fill="black"/>
<path d="M399.342 281.47C399.209 281.491 399.074 281.459 398.965 281.38C398.856 281.301 398.783 281.183 398.762 281.05C398.741 280.917 398.773 280.782 398.852 280.673C398.93 280.564 399.049 280.491 399.182 280.47L421.392 273.05C421.511 273.025 421.636 273.044 421.743 273.104C421.849 273.165 421.93 273.262 421.969 273.378C422.008 273.494 422.004 273.62 421.957 273.733C421.909 273.846 421.822 273.937 421.712 273.99L399.502 281.42C399.452 281.447 399.398 281.465 399.342 281.47Z" fill="black"/>
<path d="M437.712 299.93C437.609 299.93 437.509 299.898 437.425 299.839C437.34 299.78 437.277 299.697 437.242 299.6L429.342 277.7C429.318 277.638 429.307 277.573 429.309 277.507C429.312 277.441 429.327 277.376 429.355 277.316C429.383 277.256 429.423 277.203 429.472 277.159C429.522 277.115 429.579 277.081 429.642 277.06C429.766 277.015 429.904 277.021 430.024 277.078C430.144 277.134 430.237 277.235 430.282 277.36L438.152 299.26C438.197 299.385 438.19 299.522 438.134 299.642C438.078 299.762 437.976 299.855 437.852 299.9L437.712 299.93Z" fill="black"/>
<path d="M302.181 239.963L274.977 252.892L283.167 270.125L310.371 257.196L302.181 239.963Z" fill="#FCE054"/>
<path d="M292.732 255.49H292.672L274.972 253.35C274.841 253.333 274.722 253.264 274.641 253.159C274.56 253.054 274.525 252.921 274.542 252.79C274.557 252.659 274.623 252.539 274.726 252.457C274.829 252.374 274.961 252.336 275.092 252.35L292.482 254.46L301.812 239.65C301.884 239.539 301.996 239.461 302.124 239.431C302.253 239.401 302.388 239.422 302.502 239.49C302.559 239.524 302.608 239.569 302.647 239.622C302.686 239.676 302.714 239.736 302.729 239.801C302.744 239.865 302.746 239.932 302.734 239.997C302.723 240.062 302.698 240.125 302.662 240.18L293.152 255.26C293.107 255.331 293.045 255.39 292.972 255.43C292.898 255.47 292.816 255.491 292.732 255.49Z" fill="black"/>
<path d="M283.222 270.57C283.165 270.579 283.108 270.579 283.052 270.57C282.928 270.521 282.828 270.426 282.772 270.305C282.716 270.184 282.709 270.046 282.752 269.92L288.532 254.39C288.554 254.328 288.588 254.272 288.633 254.224C288.677 254.176 288.731 254.137 288.79 254.11C288.85 254.083 288.915 254.068 288.98 254.066C289.046 254.065 289.111 254.076 289.172 254.1C289.296 254.145 289.398 254.238 289.454 254.358C289.51 254.478 289.517 254.615 289.472 254.74L283.692 270.27C283.652 270.361 283.586 270.438 283.502 270.492C283.419 270.545 283.321 270.572 283.222 270.57Z" fill="black"/>
<path d="M310.432 257.64C310.375 257.65 310.318 257.65 310.262 257.64L294.702 252.25C294.569 252.206 294.459 252.112 294.396 251.987C294.334 251.862 294.323 251.718 294.367 251.585C294.41 251.452 294.505 251.343 294.63 251.28C294.755 251.217 294.899 251.206 295.032 251.25L310.592 256.64C310.717 256.685 310.819 256.778 310.877 256.897C310.935 257.017 310.944 257.154 310.902 257.28C310.873 257.383 310.812 257.474 310.727 257.539C310.642 257.604 310.539 257.64 310.432 257.64Z" fill="black"/>
<path d="M365.022 238.8C371.815 238.8 377.322 233.293 377.322 226.5C377.322 219.707 371.815 214.2 365.022 214.2C358.229 214.2 352.722 219.707 352.722 226.5C352.722 233.293 358.229 238.8 365.022 238.8Z" fill="white"/>
<path d="M391.972 271.61C395.528 271.61 398.412 268.727 398.412 265.17C398.412 261.613 395.528 258.73 391.972 258.73C388.415 258.73 385.532 261.613 385.532 265.17C385.532 268.727 388.415 271.61 391.972 271.61Z" fill="white"/>
<path d="M410.132 323.17C411.424 323.17 412.472 322.122 412.472 320.83C412.472 319.538 411.424 318.49 410.132 318.49C408.839 318.49 407.792 319.538 407.792 320.83C407.792 322.122 408.839 323.17 410.132 323.17Z" fill="white"/>
<path d="M227.342 354.47C226.83 354.471 226.337 354.275 225.965 353.924C225.593 353.572 225.37 353.091 225.342 352.58C222.272 296.13 245.402 261.63 265.342 242.63C286.952 222.04 308.982 214.92 309.912 214.63C310.418 214.471 310.967 214.519 311.438 214.765C311.909 215.011 312.263 215.433 312.422 215.94C312.581 216.447 312.532 216.996 312.287 217.466C312.041 217.937 311.618 218.291 311.112 218.45C310.892 218.52 288.922 225.64 267.972 245.65C248.712 264.06 226.342 297.52 229.342 352.36C229.369 352.889 229.185 353.407 228.831 353.801C228.477 354.194 227.981 354.432 227.452 354.46L227.342 354.47Z" fill="white"/>
<path d="M243.742 380.25C243.37 380.25 243.005 380.146 242.689 379.95C242.373 379.754 242.117 379.473 241.952 379.14C225.342 345.93 241.182 303.14 241.872 301.37C242.06 300.874 242.438 300.473 242.921 300.256C243.405 300.038 243.956 300.022 244.452 300.21C244.948 300.398 245.348 300.776 245.566 301.26C245.784 301.744 245.8 302.294 245.612 302.79C245.452 303.21 229.712 345.73 245.532 377.35C245.686 377.655 245.759 377.995 245.744 378.336C245.729 378.678 245.627 379.01 245.448 379.301C245.268 379.591 245.017 379.831 244.718 379.998C244.42 380.164 244.083 380.251 243.742 380.25Z" fill="white"/>
<path d="M542.402 636.32C537.182 624.92 533.572 613.72 528.402 602.32C526.282 597.67 524.132 592.95 523.242 587.92C522.352 582.89 522.842 577.41 525.662 573.14C528.822 568.39 534.492 565.63 537.222 560.61C542.322 551.22 534.792 539.2 538.222 529.07C540.572 522.07 547.862 516.94 548.022 509.58C548.132 504.36 544.542 499.82 543.472 494.71C542.322 489.26 544.142 483.71 545.932 478.38C548.732 470.147 551.525 461.92 554.312 453.7C555.082 451.42 555.922 449.05 557.682 447.42C559.442 445.79 562.432 445.21 564.212 446.82C566.782 449.16 564.952 453.31 563.712 456.56C561.452 462.56 560.982 472.65 563.602 478.49C565.272 482.23 567.872 485.49 569.852 489.04C571.832 492.59 573.222 496.83 572.152 500.78C571.232 504.17 568.632 506.88 567.522 510.21C563.912 520.98 576.782 532.21 573.082 543C572.172 545.65 570.332 547.86 568.992 550.31C566.932 554.1 567.352 559.52 567.932 563.68C568.432 567.29 570.262 570.68 570.052 574.36C569.762 579.36 565.812 583.18 562.582 586.98C552.002 599.47 546.122 619.98 549.022 636.04L542.402 636.32Z" fill="#FCE054"/>
<path d="M545.442 634.54C545.259 634.54 545.081 634.483 544.933 634.377C544.784 634.272 544.672 634.122 544.612 633.95C537.47 613.11 538.049 590.399 546.242 569.95C546.602 569.05 546.982 568.16 547.362 567.26C549.362 562.63 551.362 557.85 551.212 552.92C551.049 550.387 550.613 547.879 549.912 545.44C549.042 541.91 548.132 538.26 548.792 534.57C549.447 531.738 550.569 529.034 552.112 526.57C553.053 524.967 553.872 523.296 554.562 521.57C556.982 515.15 555.562 507.86 554.292 500.81C552.792 492.81 551.242 484.51 555.192 477.34C555.303 477.137 555.491 476.987 555.713 476.922C555.935 476.857 556.174 476.884 556.377 476.995C556.58 477.106 556.73 477.294 556.795 477.516C556.859 477.738 556.833 477.977 556.722 478.18C553.072 484.81 554.502 492.43 556.012 500.49C557.372 507.77 558.782 515.31 556.202 522.19C555.472 523.985 554.616 525.726 553.642 527.4C552.196 529.684 551.139 532.191 550.512 534.82C549.922 538.15 550.742 541.45 551.602 544.96C552.337 547.523 552.793 550.159 552.962 552.82C553.102 558.12 550.962 563.08 548.962 567.88C548.582 568.767 548.212 569.657 547.852 570.55C539.825 590.598 539.258 612.859 546.252 633.29C546.296 633.421 546.308 633.561 546.288 633.698C546.268 633.835 546.216 633.965 546.136 634.078C546.056 634.191 545.951 634.284 545.828 634.348C545.706 634.413 545.57 634.448 545.432 634.45L545.442 634.54Z" fill="white"/>
<path d="M304.462 108.52C297.879 108.52 291.566 111.135 286.911 115.79C282.257 120.444 279.642 126.757 279.642 133.34H329.282C329.282 126.757 326.667 120.444 322.012 115.79C317.357 111.135 311.044 108.52 304.462 108.52Z" fill="#47CEC0"/>
<path d="M279.642 133.34L283.192 129.8L260.142 112.07V133.34H279.642Z" fill="#47CEC0"/>
<path d="M640.982 426.29C645.325 426.303 649.486 428.038 652.553 431.114C655.62 434.19 657.342 438.356 657.342 442.7H624.572C624.572 438.348 626.301 434.174 629.378 431.096C632.456 428.019 636.629 426.29 640.982 426.29Z" fill="#47CEC0"/>
<path d="M657.382 442.7L655.042 440.35L670.272 428.63V442.7H657.382Z" fill="#47CEC0"/>
<path d="M125.002 631.34C112.562 603.41 104.002 576.03 91.5517 548.1C86.4717 536.7 81.3517 525.16 79.2917 512.86C77.2317 500.56 78.5517 487.21 85.5417 476.86C93.3417 465.34 107.262 458.74 114.012 446.57C126.672 423.79 108.592 394.29 117.142 369.68C123.032 352.68 140.942 340.31 141.492 322.36C141.892 309.65 133.232 298.48 130.742 286.01C128.072 272.68 132.632 259.07 137.132 246.24L158.132 186.24C160.072 180.72 162.132 174.95 166.492 171.01C170.852 167.07 178.132 165.72 182.422 169.71C188.642 175.47 184.082 185.53 180.992 193.43C175.352 207.89 173.992 232.6 180.212 246.93C184.212 256.07 190.452 264.02 195.212 272.79C199.972 281.56 203.212 291.87 200.542 301.47C198.222 309.71 191.832 316.26 189.032 324.36C179.962 350.54 211.102 378.36 201.822 404.45C199.542 410.89 195.002 416.23 191.682 422.2C186.582 431.37 187.482 444.61 188.782 454.77C189.912 463.59 194.322 472 193.712 480.87C192.882 493 183.162 502.28 175.212 511.48C149.112 541.68 134.302 591.48 140.992 630.78L125.002 631.34Z" fill="#47CEC0"/>
<path d="M132.482 627.07C132.039 627.066 131.608 626.924 131.25 626.665C130.892 626.405 130.623 626.04 130.482 625.62C113.562 574.645 115.496 519.29 135.932 469.62C136.842 467.44 137.792 465.26 138.742 463.08C143.632 451.84 148.672 440.23 148.462 428.21C148.352 422.14 146.882 415.93 145.462 409.92C143.462 401.3 141.302 392.39 143.002 383.4C144.322 376.33 147.862 370.1 151.272 364.07C153.585 360.199 155.614 356.165 157.342 352C163.342 336.38 160.222 318.58 157.162 301.36C153.692 281.78 150.092 261.54 159.882 244.14C160.168 243.665 160.627 243.321 161.163 243.179C161.699 243.038 162.269 243.111 162.752 243.383C163.234 243.655 163.592 244.105 163.749 244.636C163.906 245.168 163.85 245.739 163.592 246.23C154.592 262.29 157.862 280.91 161.352 300.62C164.512 318.41 167.782 336.81 161.352 353.53C159.546 357.894 157.42 362.119 154.992 366.17C151.592 372.17 148.392 377.83 147.192 384.17C145.662 392.28 147.582 400.37 149.622 408.93C151.092 415.16 152.622 421.6 152.742 428.13C152.972 441.07 147.742 453.13 142.662 464.76C141.722 466.93 140.782 469.09 139.882 471.25C119.837 519.965 117.942 574.256 134.542 624.25C134.631 624.515 134.667 624.796 134.649 625.075C134.63 625.354 134.556 625.627 134.431 625.878C134.307 626.129 134.134 626.352 133.923 626.536C133.712 626.72 133.467 626.861 133.202 626.95C132.969 627.027 132.726 627.068 132.482 627.07Z" fill="white"/>
<path d="M89.8117 635.39C92.5017 623.39 93.7117 611.97 96.4017 599.99C97.5017 595.11 98.6017 590.16 98.4017 585.16C98.2017 580.16 96.6617 575.01 93.1017 571.5C89.1017 567.58 83.1017 566.09 79.5017 561.83C72.7317 553.83 77.5017 540.83 72.2017 531.83C68.5417 525.62 60.5217 522.16 58.8817 515.14C57.7217 510.14 60.2417 505.09 60.2417 499.99C60.2417 494.53 57.3717 489.54 54.5817 484.85C50.2484 477.517 45.915 470.203 41.5817 462.91C40.3817 460.91 39.1017 458.78 37.0917 457.57C35.0817 456.36 32.0917 456.41 30.7217 458.32C28.7217 461.08 31.3217 464.68 33.1517 467.54C36.5217 472.78 39.0117 482.39 37.6917 488.54C36.8417 492.46 35.0117 496.08 33.8317 499.9C32.6517 503.72 32.1817 508.04 34.0017 511.61C35.5617 514.67 38.6017 516.74 40.3417 519.7C45.9717 529.29 35.9217 542.7 41.6317 552.22C43.0417 554.57 45.2417 556.32 47.0217 558.4C49.7517 561.61 50.4517 566.89 50.7417 570.99C50.9917 574.55 49.9217 578.2 50.8617 581.64C52.1517 586.35 56.7017 589.23 60.5617 592.22C73.2117 602.04 82.9717 620.45 83.4417 636.46L89.8117 635.39Z" fill="#FCE054"/>
<path d="M84.6817 639.16H84.5317C84.34 639.117 84.1725 639.001 84.0644 638.837C83.9562 638.673 83.9159 638.473 83.9517 638.28C86.3437 626.278 86.1949 613.908 83.5149 601.967C80.8349 590.026 75.6832 578.779 68.3917 568.95C67.8917 568.28 67.3917 567.61 66.8617 566.95C63.6417 562.78 60.3117 558.47 59.4517 553.2C59.1092 550.302 59.1732 547.37 59.6417 544.49C59.951 542.348 60.0815 540.184 60.0317 538.02C59.7217 531.63 56.2817 525.83 52.9517 520.23C52.3117 519.15 51.6717 518.08 51.0617 517.01C45.7517 507.72 44.4917 500.23 47.2017 494.1C47.2847 493.918 47.4363 493.775 47.6235 493.704C47.8108 493.633 48.0186 493.639 48.2017 493.72C48.3841 493.803 48.5263 493.955 48.5974 494.142C48.6686 494.329 48.6629 494.537 48.5817 494.72C46.0717 500.38 47.3117 507.43 52.3617 516.28C52.9717 517.34 53.6117 518.41 54.2417 519.48C57.6617 525.24 61.2417 531.2 61.5317 537.95C61.5798 540.2 61.446 542.451 61.1317 544.68C60.6774 547.42 60.6101 550.211 60.9317 552.97C61.7317 557.86 64.9317 561.97 68.0517 566.05L69.6017 568.05C77.016 578.051 82.254 589.493 84.9787 601.64C87.7034 613.787 87.8543 626.371 85.4217 638.58C85.383 638.747 85.2885 638.895 85.1539 639C85.0193 639.106 84.8527 639.162 84.6817 639.16Z" fill="white"/>
<path d="M125.392 264.58C123.236 264.58 121.101 265.005 119.11 265.83C117.118 266.655 115.308 267.865 113.785 269.39C112.261 270.915 111.052 272.725 110.228 274.717C109.404 276.709 108.98 278.844 108.982 281H141.792C141.793 278.845 141.37 276.711 140.546 274.719C139.723 272.728 138.515 270.918 136.992 269.393C135.47 267.869 133.661 266.659 131.671 265.833C129.68 265.007 127.547 264.581 125.392 264.58Z" fill="#FCE054"/>
<path d="M108.982 280.99L111.322 278.64L96.0917 266.93V280.99H108.982Z" fill="#FCE054"/>
<path d="M334.342 113C333.056 113 331.799 112.619 330.73 111.905C329.662 111.19 328.828 110.175 328.336 108.987C327.845 107.8 327.716 106.493 327.967 105.232C328.217 103.971 328.836 102.813 329.746 101.904C330.655 100.995 331.813 100.376 333.074 100.125C334.334 99.8741 335.641 100.003 336.829 100.495C338.017 100.987 339.032 101.82 339.746 102.889C340.46 103.958 340.842 105.214 340.842 106.5C340.839 108.223 340.153 109.875 338.935 111.093C337.717 112.312 336.065 112.997 334.342 113ZM334.342 103C333.649 103 332.973 103.205 332.397 103.59C331.822 103.974 331.373 104.521 331.108 105.161C330.843 105.8 330.774 106.504 330.909 107.183C331.044 107.862 331.377 108.485 331.867 108.975C332.356 109.464 332.98 109.798 333.659 109.933C334.338 110.068 335.042 109.998 335.681 109.734C336.321 109.469 336.867 109.02 337.252 108.445C337.636 107.869 337.842 107.192 337.842 106.5C337.842 105.572 337.473 104.682 336.817 104.025C336.16 103.369 335.27 103 334.342 103Z" fill="#FCCE54"/>
<path d="M327.342 86C324.869 86 322.453 85.2669 320.397 83.8934C318.341 82.5199 316.739 80.5677 315.793 78.2836C314.847 75.9995 314.6 73.4862 315.082 71.0614C315.564 68.6367 316.755 66.4094 318.503 64.6612C320.251 62.9131 322.478 61.7225 324.903 61.2402C327.328 60.7579 329.841 61.0054 332.125 61.9515C334.409 62.8976 336.362 64.4998 337.735 66.5554C339.109 68.611 339.842 71.0278 339.842 73.5C339.836 76.8136 338.518 79.99 336.175 82.333C333.832 84.6761 330.655 85.9947 327.342 86ZM327.342 64C325.463 64 323.626 64.5572 322.064 65.601C320.502 66.6449 319.284 68.1286 318.565 69.8645C317.846 71.6004 317.658 73.5105 318.024 75.3534C318.391 77.1962 319.296 78.889 320.624 80.2176C321.953 81.5461 323.646 82.4509 325.488 82.8175C327.331 83.184 329.241 82.9959 330.977 82.2769C332.713 81.5578 334.197 80.3402 335.241 78.7779C336.285 77.2156 336.842 75.3789 336.842 73.5C336.839 70.9813 335.837 68.5664 334.056 66.7854C332.275 65.0044 329.86 64.0027 327.342 64Z" fill="#FCCE54"/>
<path d="M574.192 220.335L571.642 221.916L589.485 250.67L592.034 249.089L574.192 220.335Z" fill="#CB93EE"/>
<path d="M178.244 600.657L177.419 603.542L205.418 611.544L206.243 608.66L178.244 600.657Z" fill="#CB93EE"/>
<path d="M487.752 216.5C487.666 216.515 487.578 216.515 487.492 216.5C487.274 216.441 487.082 216.311 486.947 216.129C486.813 215.948 486.744 215.726 486.752 215.5L486.342 162.27C486.178 162.093 486.089 161.861 486.092 161.62V82.5C486.092 82.2348 486.197 81.9804 486.385 81.7929C486.572 81.6054 486.826 81.5 487.092 81.5H635.762C636.027 81.5 636.281 81.6054 636.469 81.7929C636.656 81.9804 636.762 82.2348 636.762 82.5V161.62C636.762 161.885 636.656 162.14 636.469 162.327C636.281 162.515 636.027 162.62 635.762 162.62H520.872L488.612 216C488.524 216.151 488.399 216.277 488.248 216.365C488.097 216.452 487.926 216.499 487.752 216.5ZM488.072 160.97C488.224 161.148 488.309 161.375 488.312 161.61L488.722 211.96L519.452 161.1C519.541 160.953 519.668 160.831 519.819 160.747C519.969 160.663 520.139 160.619 520.312 160.62H634.762V83.5H488.072V160.97Z" fill="black"/>
<path d="M516.062 136.16V102.58H520.792L531.552 119.58C533.791 123.08 535.795 126.725 537.552 130.49L537.652 130.44C537.252 125.95 537.152 121.87 537.152 116.64V102.64H541.242V136.22H536.852L526.192 119.22C523.878 115.611 521.781 111.868 519.912 108.01L519.772 108.06C520.012 112.29 520.112 116.33 520.112 121.91V136.26L516.062 136.16Z" fill="#CB93EE"/>
<path d="M566.222 120.41H553.222V132.52H567.772V136.16H548.842V102.58H566.972V106.21H553.172V116.83H566.172L566.222 120.41Z" fill="#CB93EE"/>
<path d="M579.272 136.16L570.752 102.58H575.342L579.342 119.58C580.342 123.76 581.242 127.95 581.832 131.18H581.932C582.482 127.85 583.532 123.86 584.672 119.53L589.162 102.59H593.692L597.782 119.59C598.722 123.59 599.622 127.59 600.122 131.1H600.222C600.922 127.41 601.862 123.67 602.912 119.49L607.342 102.58H611.782L602.262 136.16H597.732L593.492 118.67C592.562 115.046 591.831 111.374 591.302 107.67H591.202C590.539 111.381 589.674 115.053 588.612 118.67L583.832 136.16H579.272Z" fill="#CB93EE"/>
<path d="M473.842 241C473.576 241 473.322 240.895 473.135 240.707C472.947 240.52 472.842 240.265 472.842 240V157C472.842 156.735 472.947 156.48 473.135 156.293C473.322 156.105 473.576 156 473.842 156C474.107 156 474.361 156.105 474.549 156.293C474.736 156.48 474.842 156.735 474.842 157V240C474.842 240.265 474.736 240.52 474.549 240.707C474.361 240.895 474.107 241 473.842 241Z" fill="black"/>
</svg>
