<svg width="700" height="700" viewBox="0 0 700 700" fill="none" xmlns="http://www.w3.org/2000/svg">
<rect width="700" height="700" fill="white"/>
<path d="M239.423 321.959L135.079 361.117L174.237 465.461L278.581 426.303L239.423 321.959Z" fill="#EC87BF"/>
<path d="M185.631 406.615C188.935 405.375 190.275 400.803 188.623 396.402C186.972 392.002 182.955 389.44 179.651 390.68C176.347 391.92 175.007 396.492 176.658 400.893C178.309 405.293 182.327 407.855 185.631 406.615Z" fill="white"/>
<path d="M209.915 397.514C213.219 396.274 214.559 391.702 212.908 387.302C211.257 382.901 207.239 380.339 203.935 381.579C200.631 382.819 199.291 387.392 200.943 391.792C202.594 396.192 206.611 398.754 209.915 397.514Z" fill="white"/>
<path d="M235.631 387.853C238.936 386.614 240.275 382.041 238.624 377.641C236.973 373.241 232.956 370.679 229.651 371.919C226.347 373.159 225.008 377.731 226.659 382.131C228.31 386.531 232.327 389.093 235.631 387.853Z" fill="white"/>
<path d="M267.486 160.747L206.122 152.396L197.771 213.76L259.135 222.111L267.486 160.747Z" fill="#FCE054"/>
<path d="M611.731 142.704L530.131 118.054L505.481 199.654L587.081 224.304L611.731 142.704Z" fill="#47CEC0"/>
<path d="M243.196 204.154C242.825 204.155 242.46 204.073 242.126 203.913C241.792 203.754 241.498 203.522 241.266 203.234L216.376 172.894C215.955 172.38 215.756 171.721 215.822 171.061C215.887 170.401 216.212 169.794 216.726 169.374C217.239 168.953 217.898 168.754 218.558 168.82C219.218 168.885 219.825 169.211 220.246 169.724L245.136 200.114C245.435 200.48 245.623 200.924 245.68 201.394C245.737 201.864 245.659 202.34 245.456 202.767C245.253 203.195 244.932 203.555 244.532 203.808C244.132 204.06 243.669 204.194 243.196 204.194V204.154Z" fill="white"/>
<path d="M217.626 202.644C217.112 202.643 216.611 202.485 216.191 202.19C215.77 201.895 215.451 201.478 215.276 200.995C215.101 200.512 215.079 199.987 215.213 199.491C215.348 198.995 215.631 198.553 216.026 198.224L246.676 172.704C246.926 172.484 247.219 172.317 247.535 172.212C247.852 172.107 248.186 172.067 248.518 172.093C248.85 172.119 249.174 172.212 249.47 172.365C249.766 172.518 250.029 172.729 250.242 172.985C250.456 173.241 250.616 173.537 250.713 173.856C250.81 174.175 250.843 174.51 250.808 174.841C250.774 175.173 250.674 175.494 250.514 175.787C250.354 176.079 250.137 176.336 249.876 176.544L219.226 202.064C218.777 202.44 218.211 202.645 217.626 202.644Z" fill="white"/>
<path d="M546.166 197.344C545.023 197.344 543.887 197.172 542.796 196.834C533.256 193.924 529.555 179.324 534.355 163.604C536.595 156.294 540.355 149.894 544.975 145.604C549.875 141.034 555.195 139.314 559.975 140.764C564.755 142.214 568.166 146.614 569.676 153.144C571.096 159.284 570.676 166.694 568.416 174.004C566.186 181.314 562.416 187.704 557.796 192.004C553.986 195.514 549.976 197.344 546.166 197.344ZM556.575 144.264C553.785 144.264 550.705 145.724 547.705 148.524C543.595 152.354 540.215 158.124 538.185 164.764C534.185 177.894 536.815 190.834 543.965 193.014C547.285 194.014 551.216 192.624 555.036 189.074C559.136 185.244 562.516 179.474 564.546 172.824C566.546 166.174 567.005 159.504 565.735 154.034C564.565 148.954 562.085 145.594 558.735 144.584C558.036 144.369 557.307 144.261 556.575 144.264Z" fill="white"/>
<path d="M509.596 73L495.59 132.997L499.485 133.906L513.491 73.9093L509.596 73Z" fill="#EC87BF"/>
<path d="M90.9955 357.894C90.5203 357.893 90.061 357.722 89.6999 357.413C89.3387 357.104 89.0994 356.677 89.0248 356.208C88.9502 355.738 89.0451 355.258 89.2926 354.852C89.5401 354.446 89.924 354.142 90.3755 353.994L158.376 331.994C158.628 331.901 158.896 331.86 159.165 331.873C159.434 331.886 159.697 331.953 159.939 332.071C160.181 332.188 160.397 332.353 160.574 332.555C160.75 332.758 160.885 332.994 160.968 333.25C161.051 333.506 161.082 333.775 161.059 334.043C161.036 334.311 160.959 334.572 160.833 334.809C160.706 335.047 160.533 335.256 160.324 335.425C160.115 335.595 159.874 335.72 159.616 335.794L91.6155 357.794C91.4154 357.859 91.2062 357.893 90.9955 357.894Z" fill="#47CEC0"/>
<path d="M136.996 142.894C135.018 142.894 133.084 142.307 131.44 141.208C129.795 140.11 128.514 138.548 127.757 136.721C127 134.893 126.802 132.883 127.188 130.943C127.574 129.003 128.526 127.221 129.925 125.823C131.323 124.424 133.105 123.472 135.045 123.086C136.984 122.7 138.995 122.898 140.822 123.655C142.65 124.412 144.211 125.693 145.31 127.338C146.409 128.982 146.996 130.916 146.996 132.894C146.996 135.546 145.942 138.089 144.067 139.965C142.191 141.84 139.648 142.894 136.996 142.894ZM136.996 125.894C135.611 125.894 134.258 126.304 133.107 127.073C131.955 127.843 131.058 128.936 130.528 130.215C129.999 131.494 129.86 132.901 130.13 134.259C130.4 135.617 131.067 136.864 132.046 137.843C133.025 138.822 134.272 139.489 135.63 139.759C136.988 140.029 138.395 139.891 139.674 139.361C140.953 138.831 142.047 137.934 142.816 136.783C143.585 135.632 143.996 134.278 143.996 132.894C143.996 131.037 143.258 129.257 141.945 127.944C140.633 126.631 138.852 125.894 136.996 125.894Z" fill="#47CEC0"/>
<path d="M578.266 360.124C577.928 360.125 577.601 360.012 577.336 359.804L562.416 348.044C562.211 347.883 562.051 347.671 561.953 347.429C561.855 347.188 561.821 346.925 561.855 346.667C561.89 346.408 561.991 346.163 562.149 345.956C562.307 345.748 562.516 345.586 562.756 345.484L583.756 336.594C584.016 336.481 584.304 336.445 584.584 336.492C584.864 336.538 585.125 336.663 585.336 336.854C585.546 337.043 585.699 337.288 585.777 337.561C585.854 337.833 585.854 338.122 585.776 338.394L579.676 359.054C579.604 359.29 579.475 359.505 579.301 359.679C579.126 359.853 578.912 359.982 578.676 360.054C578.543 360.097 578.405 360.121 578.266 360.124ZM566.266 347.254L577.456 356.084L582.026 340.584L566.266 347.254Z" fill="#FCE054"/>
<path d="M477.396 592.344L475.396 592.274L480.276 448.384L434.536 383.384C384.536 410.004 348.746 401.094 322.536 394.584C316.006 392.805 309.378 391.41 302.686 390.404L302.926 388.404C309.701 389.418 316.412 390.823 323.026 392.614C349.026 399.084 384.626 407.944 434.336 381.184L435.116 380.764L482.266 447.764V448.094L477.396 592.344Z" fill="black"/>
<path d="M261.496 609.504C261.416 608.564 253.496 514.504 263.596 449.924L265.596 450.234C255.536 514.534 263.426 608.394 263.506 609.334L261.496 609.504Z" fill="black"/>
<path d="M361.496 223.184C361.496 223.184 392.056 177.964 421.386 186.524C450.716 195.084 458.056 242.744 449.496 265.964C440.936 289.184 445.836 269.634 445.836 269.634L361.496 223.184Z" fill="#FCE054"/>
<path d="M452.496 236.384C452.406 235.324 452.276 234.264 452.146 233.204C452.276 234.274 452.386 235.334 452.486 236.404L452.496 236.384Z" fill="#ED5564"/>
<path d="M433.096 239.024C430.063 245.414 427.978 252.212 426.906 259.204L438.626 265.654C439.671 260.294 441.35 255.078 443.626 250.114C440.106 246.084 436.566 242.404 433.096 239.024Z" fill="#EC87BF"/>
<path d="M451.496 229.044C450.764 224.78 449.698 220.58 448.306 216.484C446.926 217.994 445.466 219.704 443.996 221.554C446.796 224.104 449.296 226.624 451.496 229.044Z" fill="#EC87BF"/>
<path d="M451.496 229.164C451.706 230.354 451.876 231.554 452.036 232.744C451.916 231.554 451.746 230.354 451.496 229.164Z" fill="#ED5564"/>
<path d="M436.496 195.894C432.918 192.052 428.504 189.086 423.596 187.224C418.698 190.674 414.198 194.655 410.176 199.094C415.283 201.452 420.239 204.124 425.016 207.094C428.553 203.075 432.39 199.33 436.496 195.894Z" fill="#EC87BF"/>
<path d="M388.756 238.194L404.616 246.934C406.444 238.449 409.545 230.29 413.816 222.734C409.212 219.396 404.406 216.347 399.426 213.604C394.871 221.33 391.287 229.589 388.756 238.194Z" fill="#EC87BF"/>
<path d="M424.966 207.114C420.719 211.921 416.983 217.156 413.816 222.734C420.632 227.685 427.076 233.129 433.096 239.024C436.045 232.796 439.71 226.934 444.016 221.554C438.123 216.165 431.746 211.331 424.966 207.114Z" fill="#EC87BF"/>
<path d="M392.656 192.344C387.165 195.821 382.068 199.885 377.456 204.464C385.116 206.653 392.498 209.72 399.456 213.604C402.529 208.431 406.113 203.58 410.156 199.124C404.476 196.485 398.63 194.22 392.656 192.344Z" fill="#EC87BF"/>
<path d="M452.076 232.744L452.136 233.204L452.076 232.744Z" fill="#ED5564"/>
<path d="M452.496 236.404C448.951 240.551 445.99 245.164 443.696 250.114C446.256 252.994 448.826 256.024 451.416 259.264C452.885 251.737 453.249 244.036 452.496 236.404Z" fill="#EC87BF"/>
<path d="M343.176 243.964C343.176 243.964 289.395 196.294 305.285 170.634C321.175 144.974 379.695 181.504 409.105 249.404C438.516 317.304 343.176 243.964 343.176 243.964Z" fill="#EC87BF"/>
<path d="M401.496 244.894C401.496 244.894 514.286 278.224 531.396 294.114C548.506 310.004 530.176 327.114 494.736 319.774C459.296 312.434 401.496 244.894 401.496 244.894Z" fill="#EC87BF"/>
<path d="M411.216 251.564C411.042 251.565 410.872 251.521 410.72 251.437C410.569 251.352 410.443 251.23 410.353 251.082C410.263 250.933 410.213 250.764 410.209 250.591C410.204 250.418 410.244 250.247 410.326 250.094C429.086 214.654 422.936 188.244 422.866 187.984C422.802 187.718 422.846 187.439 422.989 187.206C423.131 186.974 423.36 186.807 423.626 186.744C423.891 186.68 424.17 186.724 424.403 186.867C424.636 187.009 424.802 187.238 424.866 187.504C424.926 187.774 431.256 214.934 412.146 251.034C412.057 251.201 411.922 251.34 411.757 251.434C411.593 251.527 411.405 251.573 411.216 251.564Z" fill="black"/>
<path d="M440.015 263.334C439.802 263.338 439.593 263.267 439.425 263.134C439.213 262.978 439.071 262.744 439.029 262.484C438.988 262.224 439.052 261.958 439.205 261.744C451.275 245.254 437.475 197.624 437.335 197.144C437.261 196.889 437.291 196.615 437.419 196.383C437.546 196.15 437.761 195.978 438.015 195.904C438.142 195.867 438.274 195.855 438.404 195.87C438.535 195.884 438.661 195.924 438.776 195.987C438.891 196.05 438.993 196.135 439.075 196.238C439.157 196.34 439.219 196.458 439.255 196.584C439.845 198.584 453.465 245.644 440.815 262.924C440.723 263.05 440.603 263.152 440.464 263.224C440.325 263.295 440.172 263.333 440.015 263.334Z" fill="black"/>
<path d="M430.266 187.224C427.346 184.224 424.346 181.084 422.506 177.224C421.046 174.224 419.626 168.424 423.726 166.734C427.826 165.044 431.086 168.734 431.996 172.314C433.226 177.054 431.335 181.994 429.695 186.384C429.295 187.454 430.835 188.264 431.575 187.474C434.053 184.837 437.181 182.898 440.646 181.854C443.936 180.854 447.905 180.444 451.205 181.644C452.695 182.184 454.115 183.264 454.205 184.974C454.193 185.787 453.97 186.583 453.558 187.284C453.146 187.985 452.56 188.567 451.856 188.974C448.266 191.134 443.716 189.184 440.126 188.034C436.306 186.814 431.865 186.034 428.345 188.494C428.2 188.583 428.076 188.705 427.984 188.848C427.891 188.992 427.831 189.154 427.809 189.324C427.787 189.494 427.803 189.666 427.856 189.828C427.909 189.991 427.998 190.14 428.116 190.264C429.779 192.006 430.863 194.22 431.221 196.602C431.579 198.984 431.193 201.419 430.116 203.574C428.946 205.774 427.506 207.764 428.606 210.334C429.546 212.514 433.036 214.694 432.136 217.334C431.666 218.704 433.846 219.334 434.306 217.934C435.306 214.934 432.846 212.764 431.306 210.514C430.853 209.955 430.587 209.268 430.546 208.551C430.505 207.833 430.69 207.12 431.075 206.514C431.793 205.356 432.409 204.138 432.916 202.874C433.732 200.455 433.873 197.86 433.321 195.368C432.769 192.875 431.547 190.581 429.786 188.734L429.556 190.504C433.626 187.654 438.556 190.044 442.796 191.294C446.676 192.464 451.736 192.984 454.726 189.614C457.206 186.804 457.136 182.664 453.876 180.494C450.616 178.324 445.875 178.494 442.195 179.234C437.56 180.165 433.329 182.513 430.085 185.954L431.965 187.054C433.525 182.864 435.126 178.394 434.636 173.854C434.236 170.164 432.336 166.364 428.776 164.854C425.676 163.514 421.775 164.354 419.945 167.364C418.015 170.634 419.016 174.874 420.496 178.104C422.386 182.254 425.646 185.644 428.776 188.894C429.776 189.894 431.376 188.344 430.366 187.304L430.266 187.224Z" fill="black"/>
<path d="M407.695 245.434C407.695 245.434 375.785 194.844 351.695 208.524C327.605 222.204 337.785 238.894 337.785 238.894L376.355 337.804C376.355 337.804 369.945 341.694 394.505 362.514C427.585 390.514 456.845 377.184 462.955 355.184C470.855 326.744 442.025 319.344 451.955 306.294C467.775 285.484 473.875 239.894 407.695 245.434Z" fill="#201000"/>
<path d="M399.605 388.434L398.286 348.164C398.286 348.164 418.776 334.164 420.136 319.924C420.136 319.924 457.805 326.714 464.815 303.444C471.825 280.174 454.065 265.694 439.065 272.244L424.065 278.794C424.065 278.794 397.476 273.054 401.776 244.734C401.776 244.734 360.206 212.014 339.026 249.904C317.846 287.794 308.175 321.984 316.465 335.554C324.755 349.124 345.156 352.664 345.156 352.664L347.656 399.324C347.656 399.324 377.235 423.754 399.605 388.434Z" fill="white"/>
<path d="M370.306 408.564C357.436 408.564 347.496 400.484 347.026 400.094C346.919 400.005 346.832 399.895 346.77 399.771C346.708 399.648 346.672 399.512 346.666 399.374L344.206 353.494C340.286 352.684 323.206 348.494 315.616 336.074C307.396 322.614 316.246 288.594 338.156 249.414C343.846 239.244 351.526 233.124 360.976 231.234C380.916 227.234 401.536 243.234 402.406 243.944C402.545 244.053 402.653 244.198 402.718 244.364C402.783 244.529 402.803 244.708 402.776 244.884C398.856 270.664 420.946 276.994 423.976 277.744L438.666 271.324C442.122 269.805 445.943 269.319 449.67 269.924C453.396 270.529 456.868 272.199 459.666 274.734C467.016 281.254 469.306 292.094 465.796 303.734C459.186 325.664 427.336 322.024 421.026 321.074C418.966 334.194 402.365 346.514 399.315 348.674L400.616 388.394C400.624 388.594 400.572 388.793 400.466 388.964C393.376 400.164 384.826 406.634 375.036 408.194C373.471 408.44 371.889 408.564 370.306 408.564ZM348.636 398.814C350.696 400.374 361.866 408.264 374.726 406.214C383.836 404.754 391.866 398.684 398.596 388.154L397.286 348.154C397.279 347.986 397.315 347.819 397.39 347.669C397.466 347.518 397.577 347.389 397.716 347.294C397.916 347.164 417.846 333.394 419.146 319.784C419.159 319.646 419.2 319.513 419.267 319.393C419.335 319.272 419.426 319.167 419.536 319.084C419.645 319 419.771 318.94 419.906 318.907C420.04 318.874 420.179 318.87 420.315 318.894C420.685 318.964 457.186 325.264 463.866 303.114C467.136 292.244 465.065 282.184 458.315 276.194C455.806 273.916 452.691 272.413 449.346 271.867C446.001 271.32 442.57 271.753 439.466 273.114L424.466 279.664C424.275 279.753 424.06 279.774 423.856 279.724C423.576 279.664 396.766 273.544 400.706 245.134C397.566 242.814 378.806 229.674 361.346 233.134C352.506 234.904 345.286 240.684 339.896 250.324C318.326 288.884 309.465 322.104 317.315 334.964C325.165 347.824 345.125 351.574 345.315 351.604C345.54 351.642 345.745 351.756 345.896 351.927C346.047 352.098 346.135 352.316 346.146 352.544L348.636 398.814Z" fill="black"/>
<path d="M345.416 301.004C345.163 301.003 344.92 300.906 344.736 300.734C339.636 295.974 337.366 290.834 337.986 285.474C339.346 273.764 353.986 265.294 354.576 264.934C354.69 264.868 354.816 264.825 354.947 264.809C355.077 264.792 355.21 264.801 355.337 264.835C355.464 264.869 355.584 264.928 355.688 265.009C355.792 265.089 355.88 265.189 355.946 265.304C356.011 265.418 356.054 265.544 356.071 265.675C356.088 265.805 356.079 265.938 356.044 266.065C356.01 266.193 355.951 266.312 355.87 266.416C355.79 266.521 355.69 266.608 355.576 266.674C355.436 266.754 341.226 275.004 339.986 285.674C339.436 290.374 341.496 294.944 346.106 299.244C346.252 299.381 346.353 299.558 346.398 299.754C346.442 299.949 346.426 300.153 346.353 300.339C346.28 300.526 346.152 300.686 345.987 300.799C345.821 300.912 345.626 300.973 345.426 300.974L345.416 301.004Z" fill="black"/>
<path d="M368.306 328.734C368.161 328.734 368.017 328.704 367.885 328.644C367.766 328.589 367.658 328.511 367.569 328.414C367.479 328.317 367.41 328.204 367.364 328.08C367.319 327.957 367.298 327.825 367.303 327.694C367.309 327.562 367.34 327.433 367.395 327.314C369.395 323.074 371.986 320.404 375.176 319.394C377.708 318.632 380.438 318.887 382.786 320.104C382.905 320.166 383.011 320.252 383.096 320.357C383.181 320.461 383.245 320.582 383.282 320.711C383.32 320.841 383.331 320.976 383.315 321.11C383.298 321.244 383.255 321.373 383.188 321.49C383.12 321.607 383.03 321.709 382.922 321.79C382.814 321.871 382.691 321.929 382.56 321.961C382.429 321.993 382.293 321.998 382.16 321.976C382.027 321.955 381.899 321.906 381.786 321.834C379.921 320.914 377.78 320.729 375.786 321.314C373.166 322.154 370.965 324.454 369.245 328.154C369.163 328.332 369.03 328.482 368.863 328.585C368.696 328.688 368.502 328.74 368.306 328.734Z" fill="black"/>
<path d="M425.986 301.524C425.786 301.524 425.591 301.465 425.426 301.354C425.208 301.206 425.058 300.978 425.007 300.719C424.957 300.461 425.01 300.193 425.156 299.974C438.576 279.884 454.466 289.494 454.616 289.594C454.841 289.734 455.001 289.959 455.061 290.217C455.121 290.476 455.076 290.748 454.936 290.974C454.795 291.199 454.571 291.359 454.312 291.419C454.053 291.48 453.781 291.434 453.556 291.294C452.966 290.924 439.126 282.664 426.816 301.084C426.724 301.219 426.6 301.331 426.455 301.407C426.311 301.484 426.149 301.524 425.986 301.524Z" fill="black"/>
<path d="M445.276 300.174H445.176C444.912 300.148 444.669 300.019 444.5 299.815C444.331 299.611 444.251 299.348 444.276 299.084C444.276 299.084 444.576 295.474 442.346 293.794C440.586 292.464 437.496 292.584 433.426 294.154C433.178 294.249 432.902 294.242 432.659 294.134C432.416 294.027 432.226 293.827 432.131 293.579C432.035 293.331 432.042 293.055 432.15 292.812C432.258 292.569 432.458 292.379 432.706 292.284C437.536 290.424 441.186 290.404 443.566 292.204C446.676 294.564 446.286 299.084 446.266 299.274C446.241 299.519 446.126 299.747 445.943 299.914C445.76 300.08 445.523 300.172 445.276 300.174Z" fill="black"/>
<path d="M395.266 255.484C395.119 255.484 394.973 255.452 394.84 255.39C394.707 255.327 394.59 255.237 394.495 255.124C392.685 253.146 390.227 251.88 387.565 251.554C387.434 251.541 387.307 251.503 387.19 251.441C387.074 251.379 386.97 251.295 386.886 251.194C386.802 251.092 386.739 250.975 386.7 250.849C386.661 250.722 386.648 250.59 386.661 250.459C386.673 250.327 386.711 250.2 386.773 250.083C386.835 249.967 386.919 249.863 387.021 249.779C387.122 249.695 387.24 249.632 387.366 249.593C387.492 249.555 387.624 249.541 387.755 249.554C390.947 249.916 393.894 251.439 396.036 253.834C396.12 253.935 396.183 254.051 396.222 254.177C396.261 254.303 396.275 254.435 396.263 254.566C396.251 254.697 396.213 254.824 396.152 254.94C396.091 255.057 396.007 255.16 395.906 255.244C395.727 255.396 395.5 255.481 395.266 255.484Z" fill="#201000"/>
<path d="M388.856 273.814C390.17 273.814 391.236 272.748 391.236 271.434C391.236 270.119 390.17 269.054 388.856 269.054C387.541 269.054 386.476 270.119 386.476 271.434C386.476 272.748 387.541 273.814 388.856 273.814Z" fill="#201000"/>
<path d="M351.945 259.104C353.26 259.104 354.325 258.038 354.325 256.724C354.325 255.409 353.26 254.344 351.945 254.344C350.631 254.344 349.565 255.409 349.565 256.724C349.565 258.038 350.631 259.104 351.945 259.104Z" fill="#201000"/>
<path d="M365.966 244.694C365.819 244.694 365.674 244.662 365.54 244.6C365.407 244.537 365.29 244.447 365.196 244.334C365.046 244.154 361.356 239.804 357.096 242.094C356.979 242.155 356.852 242.194 356.721 242.206C356.59 242.219 356.458 242.205 356.332 242.167C356.206 242.128 356.089 242.065 355.988 241.982C355.886 241.898 355.802 241.795 355.741 241.679C355.679 241.562 355.641 241.435 355.628 241.304C355.616 241.173 355.629 241.041 355.668 240.915C355.706 240.789 355.769 240.672 355.853 240.571C355.936 240.469 356.039 240.385 356.156 240.324C360.716 237.874 365.076 241.044 366.736 243.064C366.82 243.165 366.883 243.281 366.922 243.407C366.961 243.533 366.975 243.665 366.963 243.796C366.951 243.927 366.913 244.054 366.852 244.17C366.791 244.287 366.707 244.39 366.606 244.474C366.424 244.619 366.198 244.697 365.966 244.694Z" fill="#201000"/>
<path d="M345.936 366.974C345.936 366.974 364.116 380.464 398.866 365.974C398.866 365.974 416.186 384.434 407.176 397.304C398.166 410.174 339.176 420.064 338.286 396.724C337.066 366.194 345.936 366.974 345.936 366.974Z" fill="#FCE054"/>
<path d="M338.126 567.894C338.126 569.114 328.346 479.584 365.016 412.514L354.016 399.224H339.016C339.016 399.224 290.426 488.444 300.206 563.004L338.126 567.894Z" fill="#FCE054"/>
<path d="M365.226 411.554C355.396 411.554 339.086 409.654 337.226 397.244C337.186 396.978 337.253 396.708 337.412 396.493C337.572 396.277 337.81 396.133 338.076 396.094C338.341 396.054 338.611 396.121 338.827 396.28C339.042 396.44 339.186 396.678 339.226 396.944C341.586 412.574 372.125 409.234 372.436 409.204C372.696 409.175 372.958 409.251 373.164 409.414C373.369 409.576 373.503 409.813 373.536 410.074C373.567 410.336 373.493 410.6 373.33 410.808C373.167 411.016 372.928 411.151 372.666 411.184C370.194 411.443 367.71 411.566 365.226 411.554Z" fill="black"/>
<path d="M306.496 582.304C306.23 582.304 305.976 582.198 305.788 582.011C305.601 581.823 305.496 581.569 305.496 581.304V553.194C305.496 552.929 305.601 552.674 305.788 552.487C305.976 552.299 306.23 552.194 306.496 552.194C306.761 552.194 307.015 552.299 307.203 552.487C307.39 552.674 307.496 552.929 307.496 553.194V581.304C307.496 581.569 307.39 581.823 307.203 582.011C307.015 582.198 306.761 582.304 306.496 582.304Z" fill="black"/>
<path d="M318.726 579.894C318.46 579.894 318.206 579.788 318.018 579.601C317.831 579.413 317.726 579.159 317.726 578.894V553.194C317.726 552.929 317.831 552.674 318.018 552.487C318.206 552.299 318.46 552.194 318.726 552.194C318.991 552.194 319.245 552.299 319.433 552.487C319.62 552.674 319.726 552.929 319.726 553.194V578.894C319.726 579.159 319.62 579.413 319.433 579.601C319.245 579.788 318.991 579.894 318.726 579.894Z" fill="black"/>
<path d="M332.176 579.894C331.91 579.894 331.656 579.788 331.469 579.601C331.281 579.413 331.176 579.159 331.176 578.894L329.956 550.784C329.95 550.652 329.97 550.521 330.015 550.398C330.059 550.274 330.128 550.16 330.217 550.063C330.305 549.966 330.412 549.888 330.531 549.832C330.65 549.776 330.779 549.745 330.911 549.739C331.042 549.733 331.173 549.753 331.297 549.798C331.42 549.842 331.534 549.911 331.631 550C331.728 550.088 331.807 550.195 331.862 550.314C331.918 550.434 331.95 550.562 331.956 550.694L333.186 578.814C333.186 579.079 333.08 579.333 332.893 579.521C332.705 579.708 332.451 579.814 332.186 579.814L332.176 579.894Z" fill="black"/>
<path d="M457.156 625.644C476.226 627.714 500.616 605.994 497.496 574.394C490.496 503.394 474.496 408.994 479.496 387.664C488.286 350.034 456.496 337.774 441.596 349.434C433.206 356.014 421.066 373.974 420.856 390.634C420.256 437.334 424.736 538.804 424.736 538.804C425.036 589.404 425.936 622.244 457.156 625.644Z" fill="white"/>
<path d="M459.706 626.774C458.82 626.778 457.936 626.731 457.056 626.634C424.246 623.064 424.056 587.724 423.726 538.804C423.726 537.804 419.256 436.804 419.846 390.624C420.056 373.884 432.246 355.494 440.966 348.624C448.396 342.784 459.796 342.624 468.676 348.334C474.176 351.834 486.336 362.704 480.456 387.864C477.206 401.764 483.136 448.254 489.456 497.474C492.746 523.354 496.156 550.104 498.546 574.264C500.096 590.004 494.936 605.014 484.386 615.454C477.066 622.684 468.046 626.774 459.706 626.774ZM454.496 346.184C450.051 346.102 445.707 347.51 442.156 350.184C433.756 356.784 422.006 374.494 421.806 390.604C421.216 436.744 425.636 537.704 425.676 538.714C426.006 591.434 427.676 621.394 457.226 624.604C465.686 625.524 475.226 621.604 482.886 614.024C493.006 604.024 497.956 589.584 496.456 574.454C494.086 550.324 490.676 523.584 487.376 497.724C481.086 448.314 475.146 401.654 478.476 387.404C484.056 363.484 472.705 353.284 467.565 350.014C463.66 347.524 459.127 346.196 454.496 346.184Z" fill="black"/>
<path d="M493.284 406.815L503.201 399.676L435.364 305.444L425.447 312.583L493.284 406.815Z" fill="white"/>
<path d="M434.926 308.154L500.426 399.154L493.746 403.954L428.256 312.954L434.926 308.154ZM435.376 305.354L425.456 312.494L493.296 406.734L503.216 399.594L435.376 305.354Z" fill="black"/>
<path d="M406.146 317.984C429.772 317.984 448.926 298.83 448.926 275.204C448.926 251.577 429.772 232.424 406.146 232.424C382.519 232.424 363.366 251.577 363.366 275.204C363.366 298.83 382.519 317.984 406.146 317.984Z" fill="white"/>
<path d="M406.106 234.414C412.579 234.424 418.958 235.97 424.717 238.926C430.476 241.881 435.452 246.161 439.236 251.414C443.616 257.504 446.233 264.683 446.798 272.164C447.362 279.645 445.853 287.136 442.436 293.814C439.018 300.493 433.826 306.099 427.428 310.017C421.031 313.936 413.677 316.014 406.176 316.024C397.545 316.032 389.133 313.302 382.153 308.226C375.172 303.15 369.982 295.99 367.329 287.777C364.677 279.563 364.699 270.72 367.392 262.52C370.085 254.32 375.31 247.185 382.316 242.144C389.236 237.135 397.563 234.443 406.106 234.454V234.414ZM406.106 232.454C396.504 232.459 387.183 235.694 379.642 241.638C372.101 247.582 366.779 255.89 364.531 265.225C362.282 274.56 363.239 284.379 367.247 293.105C371.255 301.83 378.081 308.954 386.628 313.33C395.174 317.707 404.944 319.082 414.366 317.234C423.789 315.386 432.316 310.423 438.576 303.142C444.836 295.862 448.466 286.687 448.881 277.094C449.296 267.502 446.473 258.048 440.866 250.254C436.915 244.725 431.698 240.224 425.65 237.127C419.602 234.03 412.9 232.427 406.106 232.454Z" fill="black"/>
<path d="M406.996 306.514C424.21 306.514 438.166 292.558 438.166 275.344C438.166 258.129 424.21 244.174 406.996 244.174C389.781 244.174 375.826 258.129 375.826 275.344C375.826 292.558 389.781 306.514 406.996 306.514Z" fill="white"/>
<path d="M406.966 246.174C413.916 246.166 420.64 248.642 425.927 253.154C431.213 257.666 434.714 263.918 435.799 270.783C436.884 277.648 435.48 284.675 431.843 290.597C428.205 296.519 422.571 300.947 415.957 303.083C409.344 305.218 402.184 304.922 395.77 302.246C389.355 299.57 384.108 294.691 380.972 288.489C377.837 282.286 377.02 275.167 378.669 268.415C380.318 261.664 384.324 255.723 389.966 251.664C394.921 248.104 400.865 246.185 406.966 246.174ZM406.966 244.174C399.972 244.175 393.183 246.527 387.688 250.853C382.193 255.179 378.313 261.227 376.671 268.025C375.029 274.822 375.72 281.975 378.634 288.332C381.548 294.689 386.515 299.882 392.737 303.075C398.959 306.268 406.073 307.276 412.937 305.937C419.801 304.598 426.015 300.99 430.581 295.692C435.146 290.395 437.798 283.716 438.109 276.73C438.42 269.744 436.372 262.856 432.296 257.174C429.419 253.141 425.618 249.856 421.211 247.594C416.804 245.332 411.919 244.159 406.966 244.174Z" fill="black"/>
<path d="M464.746 371.424C460.096 374.304 462.106 382.714 467.966 379.714C473.826 376.714 492.846 370.054 489.966 365.404C487.086 360.754 478.786 363.984 472.966 366.984C467.146 369.984 464.746 371.424 464.746 371.424Z" fill="white"/>
<path d="M465.656 381.344C464.891 381.346 464.14 381.142 463.482 380.753C462.824 380.364 462.283 379.804 461.916 379.134C461.157 377.678 460.972 375.991 461.398 374.406C461.824 372.82 462.829 371.453 464.216 370.574C464.306 370.514 466.636 369.074 472.466 366.094C482.086 361.174 488.256 360.764 490.816 364.874C491.041 365.236 491.184 365.642 491.236 366.066C491.288 366.489 491.247 366.918 491.116 367.324C490.016 370.854 482.546 374.324 473.626 378.244C471.496 379.174 469.626 379.974 468.416 380.604C467.568 381.066 466.621 381.32 465.656 381.344ZM465.266 372.274C464.321 372.882 463.635 373.818 463.338 374.901C463.041 375.984 463.154 377.139 463.656 378.144C464.406 379.474 465.776 379.714 467.506 378.824C468.796 378.164 470.666 377.354 472.826 376.414C478.616 373.894 488.286 369.674 489.206 366.734C489.254 366.603 489.272 366.462 489.256 366.323C489.241 366.184 489.192 366.051 489.116 365.934C486.736 362.104 479.246 364.874 473.376 367.874C467.506 370.874 465.296 372.254 465.266 372.274Z" fill="black"/>
<path d="M461.406 361.894C456.766 364.774 458.766 373.184 464.626 370.184C470.486 367.184 489.516 360.514 486.626 355.874C483.736 351.234 475.446 354.454 469.626 357.454C463.806 360.454 461.406 361.894 461.406 361.894Z" fill="white"/>
<path d="M462.316 371.834C461.552 371.835 460.803 371.63 460.147 371.241C459.49 370.853 458.951 370.294 458.586 369.624C457.826 368.169 457.639 366.483 458.063 364.898C458.488 363.313 459.491 361.944 460.876 361.064C460.976 361.004 463.306 359.564 469.136 356.584C478.746 351.664 484.926 351.254 487.476 355.364C487.705 355.724 487.852 356.131 487.904 356.555C487.955 356.979 487.912 357.409 487.776 357.814C486.676 361.344 479.206 364.814 470.296 368.734C468.156 369.664 466.296 370.464 465.086 371.094C464.234 371.556 463.284 371.81 462.316 371.834ZM461.936 362.764C460.99 363.371 460.302 364.306 460.005 365.39C459.707 366.474 459.822 367.629 460.326 368.634C461.066 369.964 462.436 370.204 464.176 369.314C465.466 368.654 467.326 367.844 469.496 366.894C475.276 364.384 484.956 360.164 485.866 357.214C485.916 357.085 485.934 356.945 485.919 356.808C485.903 356.67 485.854 356.538 485.776 356.424C483.396 352.594 475.906 355.364 470.046 358.364C464.186 361.364 461.976 362.734 461.936 362.764Z" fill="black"/>
<path d="M458.196 351.894C453.296 354.894 455.406 363.804 461.586 360.644C467.766 357.484 487.826 350.444 484.786 345.554C481.746 340.664 472.996 344.054 466.786 347.214C460.576 350.374 458.196 351.894 458.196 351.894Z" fill="white"/>
<path d="M459.116 362.324C458.321 362.324 457.541 362.107 456.861 361.696C456.181 361.286 455.626 360.697 455.256 359.994C454.463 358.471 454.271 356.707 454.717 355.049C455.163 353.392 456.216 351.962 457.666 351.044C457.766 350.984 460.216 349.464 466.366 346.324C476.476 341.154 482.956 340.714 485.636 345.024C485.871 345.398 486.021 345.82 486.075 346.259C486.129 346.698 486.084 347.144 485.946 347.564C484.796 351.264 476.946 354.954 467.536 359.044C465.286 360.044 463.346 360.864 462.046 361.534C461.144 362.023 460.141 362.293 459.116 362.324ZM458.716 352.744C457.709 353.395 456.977 354.394 456.659 355.551C456.342 356.707 456.462 357.94 456.996 359.014C457.806 360.444 459.276 360.704 461.136 359.754C462.496 359.054 464.456 358.204 466.736 357.204C472.846 354.544 483.066 350.094 484.036 346.964C484.093 346.82 484.113 346.665 484.096 346.511C484.078 346.358 484.023 346.211 483.936 346.084C481.406 342.004 473.476 344.934 467.276 348.084C461.276 351.174 458.756 352.704 458.716 352.724V352.744Z" fill="black"/>
<path d="M453.646 342.194C448.646 345.114 450.566 354.024 456.826 351.024C463.086 348.024 483.316 341.494 480.396 336.514C477.476 331.534 468.646 334.724 462.396 337.724C456.146 340.724 453.646 342.194 453.646 342.194Z" fill="white"/>
<path d="M454.436 352.644C453.621 352.647 452.823 352.421 452.13 351.994C451.437 351.566 450.878 350.953 450.516 350.224C449.758 348.682 449.607 346.912 450.095 345.265C450.582 343.618 451.671 342.215 453.146 341.334C453.246 341.264 455.736 339.814 461.956 336.824C472.196 331.914 478.686 331.634 481.256 336.014C481.481 336.393 481.621 336.817 481.664 337.256C481.707 337.695 481.653 338.138 481.506 338.554C480.266 342.224 472.306 345.714 462.816 349.554C460.546 350.484 458.576 351.284 457.256 351.914C456.382 352.364 455.418 352.613 454.436 352.644ZM454.156 343.054C453.131 343.679 452.372 344.66 452.026 345.81C451.679 346.959 451.768 348.196 452.276 349.284C453.046 350.724 454.506 351.024 456.396 350.124C457.766 349.464 459.756 348.654 462.066 347.714C468.236 345.214 478.556 341.014 479.616 337.914C479.672 337.769 479.694 337.614 479.681 337.459C479.667 337.305 479.617 337.156 479.536 337.024C477.106 332.884 469.106 335.614 462.826 338.634C456.696 341.574 454.176 343.044 454.156 343.054Z" fill="black"/>
<path d="M421.076 397.754C419.826 376.804 425.526 345.584 436.146 340.924C446.766 336.264 469.006 337.924 469.566 343.924C470.126 349.924 448.226 352.034 448.226 352.034C448.226 352.034 450.906 367.744 438.076 375.034" fill="white"/>
<path d="M421.076 398.754C420.82 398.754 420.575 398.657 420.389 398.482C420.203 398.308 420.091 398.068 420.076 397.814C418.866 377.584 424.376 345.004 435.746 340.004C444.396 336.204 461.146 336.314 467.746 340.204C469.476 341.204 470.426 342.464 470.556 343.874C471.136 350.144 454.706 352.404 449.326 352.974C449.656 356.734 449.866 369.524 438.566 375.974C438.335 376.106 438.061 376.142 437.804 376.072C437.547 376.003 437.328 375.834 437.196 375.604C437.063 375.373 437.028 375.099 437.097 374.842C437.166 374.585 437.335 374.366 437.566 374.234C449.616 367.354 447.326 352.854 447.216 352.234C447.193 352.098 447.199 351.958 447.233 351.825C447.266 351.691 447.327 351.566 447.412 351.457C447.496 351.348 447.603 351.258 447.724 351.192C447.845 351.126 447.978 351.086 448.116 351.074C456.796 350.274 468.876 347.564 468.556 344.074C468.466 343.154 467.556 342.404 466.726 341.944C461.176 338.674 445.226 338.024 436.526 341.844C426.916 346.074 420.746 375.844 422.056 397.704C422.064 397.835 422.046 397.967 422.003 398.091C421.96 398.216 421.893 398.33 421.806 398.429C421.718 398.527 421.612 398.608 421.494 398.665C421.376 398.722 421.247 398.756 421.116 398.764L421.076 398.754Z" fill="black"/>
<path d="M257.146 602.084C241.696 602.084 228.946 596.464 220.036 585.644C203.746 565.874 201.566 530.814 213.876 486.924L215.676 480.454C227.746 436.824 242.776 382.514 302.936 388.454L302.746 390.454C244.256 384.724 229.476 438.114 217.596 481.024C216.996 483.214 216.396 485.384 215.796 487.504C203.666 530.754 205.726 565.164 221.576 584.414C231.076 595.944 245.206 601.304 262.426 599.904L262.586 601.904C260.736 602.014 258.926 602.084 257.146 602.084Z" fill="black"/>
<path d="M373.726 615.314C373.496 615.32 373.271 615.247 373.089 615.106C372.907 614.966 372.778 614.767 372.726 614.544C360.726 563.854 367.196 509.474 374.726 472.794C382.936 433.064 394.146 404.914 394.256 404.634C394.355 404.387 394.548 404.19 394.793 404.086C395.038 403.982 395.314 403.979 395.561 404.079C395.807 404.178 396.004 404.371 396.108 404.616C396.212 404.861 396.215 405.137 396.116 405.384C395.666 406.494 351.746 517.734 374.626 614.074C374.657 614.202 374.662 614.336 374.641 614.467C374.62 614.598 374.573 614.723 374.504 614.835C374.434 614.948 374.342 615.046 374.234 615.123C374.127 615.2 374.005 615.254 373.876 615.284C373.827 615.298 373.776 615.308 373.726 615.314Z" fill="black"/>
<path d="M368.226 455.414C370.589 455.414 372.506 453.497 372.506 451.134C372.506 448.77 370.589 446.854 368.226 446.854C365.862 446.854 363.946 448.77 363.946 451.134C363.946 453.497 365.862 455.414 368.226 455.414Z" fill="black"/>
<path d="M357.226 490.864C359.589 490.864 361.506 488.947 361.506 486.584C361.506 484.22 359.589 482.304 357.226 482.304C354.862 482.304 352.946 484.22 352.946 486.584C352.946 488.947 354.862 490.864 357.226 490.864Z" fill="black"/>
<path d="M352.336 573.974C354.699 573.974 356.616 572.058 356.616 569.694C356.616 567.33 354.699 565.414 352.336 565.414C349.972 565.414 348.056 567.33 348.056 569.694C348.056 572.058 349.972 573.974 352.336 573.974Z" fill="black"/>
<path d="M393.375 283.194C393.044 283.196 392.721 283.089 392.457 282.889C392.193 282.689 392.003 282.406 391.916 282.087C391.829 281.767 391.851 281.427 391.977 281.121C392.104 280.815 392.328 280.559 392.615 280.394L419.075 264.894C419.246 264.794 419.434 264.729 419.629 264.701C419.824 264.674 420.023 264.686 420.214 264.736C420.405 264.785 420.584 264.872 420.741 264.991C420.898 265.11 421.031 265.259 421.13 265.429C421.23 265.599 421.296 265.787 421.323 265.982C421.35 266.177 421.338 266.376 421.289 266.567C421.239 266.758 421.152 266.937 421.033 267.094C420.914 267.252 420.766 267.384 420.595 267.484L394.136 283.014C393.903 283.14 393.64 283.202 393.375 283.194Z" fill="#47CEC0"/>
<path d="M479.023 414.825L420.949 416.559L421.008 418.558L479.083 416.824L479.023 414.825Z" fill="black"/>
<path d="M481.534 445.337L421.546 445.809L421.562 447.809L481.55 447.337L481.534 445.337Z" fill="black"/>
<path d="M471.996 436.394C470.908 436.394 469.844 436.071 468.94 435.467C468.035 434.862 467.331 434.003 466.914 432.998C466.498 431.993 466.389 430.888 466.601 429.821C466.814 428.754 467.337 427.774 468.107 427.005C468.876 426.235 469.856 425.712 470.923 425.499C471.989 425.287 473.095 425.396 474.1 425.812C475.105 426.229 475.964 426.934 476.569 427.838C477.173 428.742 477.496 429.806 477.496 430.894C477.493 432.352 476.913 433.749 475.882 434.78C474.851 435.811 473.453 436.391 471.996 436.394ZM471.996 427.394C471.303 427.394 470.627 427.599 470.051 427.983C469.476 428.368 469.027 428.915 468.762 429.554C468.497 430.194 468.428 430.898 468.563 431.577C468.698 432.255 469.031 432.879 469.521 433.368C470.01 433.858 470.634 434.191 471.313 434.326C471.992 434.461 472.695 434.392 473.335 434.127C473.974 433.862 474.521 433.414 474.906 432.838C475.29 432.263 475.496 431.586 475.496 430.894C475.496 429.965 475.127 429.075 474.47 428.419C473.814 427.762 472.924 427.394 471.996 427.394Z" fill="black"/>
<path d="M357.885 123.542L356.079 124.401L366.078 145.402L367.884 144.543L357.885 123.542Z" fill="black"/>
<path d="M380.455 116.286L378.482 116.615L381.481 134.617L383.454 134.288L380.455 116.286Z" fill="black"/>
</svg>
