<svg width="700" height="700" viewBox="0 0 700 700" fill="none" xmlns="http://www.w3.org/2000/svg">
<rect width="700" height="700" fill="white"/>
<path d="M371 180C370.735 180 370.481 179.895 370.293 179.707C370.105 179.52 370 179.265 370 179L369 81C369 80.7348 369.105 80.4804 369.293 80.2929C369.481 80.1054 369.735 80 370 80C370.265 80 370.519 80.1054 370.707 80.2929C370.895 80.4804 371 80.7348 371 81L372 179C372 179.265 371.895 179.52 371.707 179.707C371.519 179.895 371.265 180 371 180Z" fill="black"/>
<path d="M501.97 307C501.179 272.79 487.034 240.248 462.559 216.333C438.085 192.417 405.224 179.028 371.005 179.028C336.786 179.028 303.925 192.417 279.451 216.333C254.976 240.248 240.831 272.79 240.04 307H501.97Z" fill="#CB93EE"/>
<path d="M402.51 307H405.03L469.15 223.65L467.79 222.13L402.51 307Z" fill="white"/>
<path d="M352.51 307H355.03L438.79 198.11C438.22 197.76 437.65 197.41 437.07 197.11L352.51 307Z" fill="white"/>
<path d="M377.51 307H380.03L454.89 209.69C454.38 209.26 453.89 208.83 453.35 208.41L377.51 307Z" fill="white"/>
<path d="M490.65 257.41L452.51 307H455.03L491.55 259.57C491.22 258.82 490.96 258.11 490.65 257.41Z" fill="white"/>
<path d="M427.51 307H430.03L481.47 240.13C481.09 239.53 480.71 238.94 480.32 238.35L427.51 307Z" fill="white"/>
<path d="M327.51 307H330.03L420.83 189L418.91 188.22L327.51 307Z" fill="white"/>
<path d="M477.51 307H480.03L498.77 282.65C498.59 281.79 498.4 280.95 498.2 280.1L477.51 307Z" fill="white"/>
<path d="M241.32 289.04C241.11 290.38 240.91 291.73 240.73 293.04L321 188.68C319.74 189.2 318.49 189.73 317.25 190.29L241.32 289.04Z" fill="white"/>
<path d="M302.51 307H305.03L400.8 182.5L398.66 182.01L302.51 307Z" fill="white"/>
<path d="M252.51 307H255.03L352.53 180.25C351.583 180.377 350.633 180.517 349.68 180.67L252.51 307Z" fill="white"/>
<path d="M277.51 307H280.03L378.32 179.23L375.89 179.11L277.51 307Z" fill="white"/>
<path d="M446 383C445.735 383 445.481 382.895 445.293 382.707C445.105 382.52 445 382.265 445 382L443.75 307C443.75 306.735 443.855 306.48 444.043 306.293C444.231 306.105 444.485 306 444.75 306C445.015 306 445.269 306.105 445.457 306.293C445.645 306.48 445.75 306.735 445.75 307L447 382C447 382.265 446.895 382.52 446.707 382.707C446.519 382.895 446.265 383 446 383Z" fill="black"/>
<path d="M491 570L499.85 617.15L533.48 617.06L541 570H491Z" fill="#CB93EE"/>
<path d="M507 517C497.79 521.6 493 541 499 553C505 565 508.72 570 508.72 570H525.53L531 557C531 557 545 550 546 540C547 530 534 531 528 541C528 541 534 531 529 522C524 513 515 513 507 517Z" fill="black"/>
<path d="M509 528C508.814 527.998 508.633 527.945 508.475 527.846C508.318 527.747 508.192 527.607 508.11 527.44L506.11 523.44C505.992 523.203 505.973 522.928 506.058 522.677C506.142 522.426 506.323 522.218 506.56 522.1C506.798 521.982 507.072 521.963 507.323 522.048C507.574 522.132 507.782 522.313 507.9 522.55L509.9 526.55C510.018 526.787 510.037 527.062 509.952 527.313C509.868 527.564 509.687 527.772 509.45 527.89C509.311 527.961 509.157 527.999 509 528Z" fill="white"/>
<path d="M517 539H516.79C516.532 538.943 516.306 538.785 516.164 538.562C516.022 538.339 515.973 538.069 516.03 537.81L518.03 528.81C518.087 528.545 518.247 528.313 518.475 528.166C518.703 528.019 518.98 527.968 519.245 528.025C519.51 528.082 519.742 528.242 519.889 528.47C520.036 528.698 520.087 528.975 520.03 529.24L518.03 538.24C517.974 538.467 517.841 538.668 517.653 538.806C517.464 538.945 517.233 539.014 517 539Z" fill="white"/>
<path d="M536 545C535.735 545 535.481 544.895 535.293 544.707C535.105 544.52 535 544.265 535 544V539C535 538.735 535.105 538.48 535.293 538.293C535.481 538.105 535.735 538 536 538C536.265 538 536.519 538.105 536.707 538.293C536.895 538.48 537 538.735 537 539V544C537 544.265 536.895 544.52 536.707 544.707C536.519 544.895 536.265 545 536 545Z" fill="white"/>
<path d="M533 550H528C527.735 550 527.481 549.895 527.293 549.707C527.105 549.52 527 549.265 527 549C527 548.735 527.105 548.48 527.293 548.293C527.481 548.105 527.735 548 528 548H533C533.265 548 533.519 548.105 533.707 548.293C533.895 548.48 534 548.735 534 549C534 549.265 533.895 549.52 533.707 549.707C533.519 549.895 533.265 550 533 550Z" fill="white"/>
<path d="M511 554C510.874 553.996 510.749 553.972 510.63 553.93C510.508 553.881 510.396 553.809 510.302 553.718C510.208 553.626 510.132 553.517 510.08 553.396C510.028 553.275 510.001 553.146 509.999 553.014C509.997 552.883 510.021 552.752 510.07 552.63L512.07 547.63C512.168 547.383 512.36 547.186 512.604 547.081C512.848 546.976 513.123 546.972 513.37 547.07C513.617 547.168 513.814 547.36 513.919 547.604C514.024 547.848 514.028 548.123 513.93 548.37L511.93 553.37C511.856 553.556 511.728 553.716 511.562 553.828C511.396 553.94 511.2 554 511 554Z" fill="white"/>
<path d="M521 562C520.736 561.996 520.485 561.888 520.3 561.7L517.3 558.7C517.195 558.61 517.11 558.5 517.05 558.376C516.99 558.252 516.957 558.117 516.951 557.979C516.946 557.841 516.969 557.704 517.019 557.576C517.07 557.447 517.146 557.331 517.243 557.233C517.341 557.136 517.457 557.06 517.586 557.009C517.714 556.959 517.851 556.936 517.989 556.941C518.127 556.947 518.262 556.98 518.386 557.04C518.51 557.1 518.62 557.185 518.71 557.29L521.71 560.29C521.851 560.43 521.947 560.609 521.986 560.803C522.025 560.998 522.006 561.2 521.929 561.383C521.853 561.567 521.724 561.724 521.559 561.833C521.393 561.943 521.199 562.001 521 562Z" fill="white"/>
<path d="M521 550C520.874 549.996 520.749 549.972 520.63 549.93C520.508 549.881 520.396 549.809 520.302 549.718C520.208 549.626 520.132 549.517 520.08 549.396C520.028 549.275 520.001 549.146 519.999 549.014C519.997 548.883 520.021 548.752 520.07 548.63L522.07 543.63C522.119 543.508 522.191 543.396 522.282 543.302C522.374 543.208 522.483 543.132 522.604 543.08C522.725 543.028 522.854 543.001 522.986 542.999C523.117 542.997 523.248 543.021 523.37 543.07C523.492 543.118 523.604 543.191 523.698 543.282C523.792 543.374 523.868 543.483 523.92 543.604C523.972 543.725 523.999 543.854 524.001 543.986C524.003 544.117 523.979 544.248 523.93 544.37L521.93 549.37C521.856 549.556 521.728 549.716 521.562 549.828C521.396 549.94 521.2 550 521 550Z" fill="white"/>
<path d="M492.63 578.68H539.61L539.06 582.16H493.29L492.63 578.68Z" fill="white"/>
<path d="M503 547C502.76 547.003 502.528 546.92 502.344 546.766C502.161 546.612 502.038 546.397 502 546.16L501 540.16C500.956 539.895 501.02 539.623 501.176 539.405C501.333 539.186 501.57 539.039 501.835 538.995C502.1 538.951 502.372 539.015 502.59 539.171C502.809 539.328 502.956 539.565 503 539.83L504 545.83C504.044 546.091 503.981 546.359 503.828 546.575C503.674 546.79 503.441 546.936 503.18 546.98L503 547Z" fill="white"/>
<path d="M637 303.5H546C545.602 303.5 545.221 303.342 544.939 303.061C544.658 302.779 544.5 302.398 544.5 302C544.5 301.602 544.658 301.221 544.939 300.939C545.221 300.658 545.602 300.5 546 300.5H637C637.398 300.5 637.779 300.658 638.061 300.939C638.342 301.221 638.5 301.602 638.5 302C638.5 302.398 638.342 302.779 638.061 303.061C637.779 303.342 637.398 303.5 637 303.5Z" fill="#FCE054"/>
<path d="M637.5 355H546.5C546.102 355 545.721 354.842 545.439 354.561C545.158 354.279 545 353.898 545 353.5C545 353.102 545.158 352.721 545.439 352.439C545.721 352.158 546.102 352 546.5 352H637.5C637.898 352 638.279 352.158 638.561 352.439C638.842 352.721 639 353.102 639 353.5C639 353.898 638.842 354.279 638.561 354.561C638.279 354.842 637.898 355 637.5 355Z" fill="#FCE054"/>
<path d="M153.5 361H62.5C62.1022 361 61.7205 360.842 61.4392 360.561C61.1579 360.279 61 359.898 61 359.5C61 359.102 61.1579 358.721 61.4392 358.439C61.7205 358.158 62.1022 358 62.5 358H153.5C153.898 358 154.279 358.158 154.561 358.439C154.842 358.721 155 359.102 155 359.5C155 359.898 154.842 360.279 154.561 360.561C154.279 360.842 153.898 361 153.5 361Z" fill="#FCE054"/>
<path d="M153.5 408H62.5C62.1022 408 61.7205 407.842 61.4392 407.561C61.1579 407.279 61 406.898 61 406.5C61 406.102 61.1579 405.721 61.4392 405.439C61.7205 405.158 62.1022 405 62.5 405H153.5C153.898 405 154.279 405.158 154.561 405.439C154.842 405.721 155 406.102 155 406.5C155 406.898 154.842 407.279 154.561 407.561C154.279 407.842 153.898 408 153.5 408Z" fill="#FCE054"/>
<path d="M553.5 413.5C551.918 413.5 550.371 413.031 549.055 412.152C547.74 411.273 546.714 410.023 546.109 408.561C545.503 407.1 545.345 405.491 545.654 403.939C545.962 402.387 546.724 400.962 547.843 399.843C548.962 398.724 550.387 397.962 551.939 397.654C553.491 397.345 555.1 397.503 556.561 398.109C558.023 398.714 559.273 399.74 560.152 401.055C561.031 402.371 561.5 403.918 561.5 405.5C561.5 407.622 560.657 409.657 559.157 411.157C557.656 412.657 555.622 413.5 553.5 413.5ZM553.5 399.5C552.313 399.5 551.153 399.852 550.166 400.511C549.18 401.17 548.411 402.108 547.957 403.204C547.503 404.3 547.384 405.507 547.615 406.671C547.847 407.834 548.418 408.904 549.257 409.743C550.096 410.582 551.165 411.153 552.329 411.385C553.493 411.616 554.7 411.497 555.796 411.043C556.892 410.589 557.829 409.82 558.489 408.833C559.148 407.847 559.5 406.687 559.5 405.5C559.5 403.909 558.868 402.383 557.743 401.257C556.617 400.132 555.091 399.5 553.5 399.5Z" fill="#CB93EE"/>
<path d="M622 504C620.813 504 619.653 503.648 618.667 502.989C617.68 502.33 616.911 501.392 616.457 500.296C616.003 499.2 615.884 497.993 616.115 496.829C616.347 495.666 616.918 494.596 617.757 493.757C618.596 492.918 619.665 492.347 620.829 492.115C621.993 491.884 623.2 492.003 624.296 492.457C625.393 492.911 626.33 493.68 626.989 494.667C627.648 495.653 628 496.813 628 498C628 499.591 627.368 501.117 626.243 502.243C625.117 503.368 623.591 504 622 504ZM622 494C621.209 494 620.435 494.235 619.778 494.674C619.12 495.114 618.607 495.738 618.304 496.469C618.002 497.2 617.923 498.004 618.077 498.78C618.231 499.556 618.612 500.269 619.172 500.828C619.731 501.388 620.444 501.769 621.22 501.923C621.996 502.077 622.8 501.998 623.531 501.696C624.262 501.393 624.886 500.88 625.326 500.222C625.765 499.564 626 498.791 626 498C626 496.939 625.579 495.922 624.828 495.172C624.078 494.421 623.061 494 622 494Z" fill="#CB93EE"/>
<path d="M160 500C159.567 500 159.146 499.86 158.8 499.6C158.454 499.34 158.201 498.975 158.08 498.56L151.08 474.56C151.007 474.308 150.983 474.044 151.012 473.783C151.04 473.522 151.12 473.269 151.246 473.038C151.373 472.808 151.543 472.605 151.748 472.44C151.953 472.276 152.188 472.154 152.44 472.08C152.692 472.006 152.956 471.983 153.217 472.012C153.478 472.04 153.731 472.12 153.962 472.246C154.192 472.373 154.395 472.543 154.56 472.748C154.724 472.953 154.846 473.188 154.92 473.44L161.92 497.44C161.994 497.692 162.017 497.956 161.988 498.217C161.96 498.478 161.88 498.731 161.754 498.962C161.627 499.192 161.457 499.395 161.252 499.56C161.047 499.724 160.812 499.846 160.56 499.92C160.378 499.972 160.19 499.999 160 500Z" fill="#47CEC0"/>
<path d="M591 250C590.649 250 590.304 249.907 590.001 249.731C589.697 249.556 589.445 249.303 589.27 248.999C589.094 248.695 589.002 248.35 589.002 247.999C589.002 247.649 589.095 247.304 589.27 247L600.27 228C600.547 227.565 600.981 227.253 601.482 227.13C601.983 227.008 602.512 227.083 602.959 227.341C603.405 227.6 603.735 228.02 603.879 228.516C604.022 229.011 603.969 229.543 603.73 230L592.73 249C592.555 249.304 592.302 249.556 591.999 249.732C591.695 249.907 591.351 250 591 250Z" fill="#47CEC0"/>
<path d="M253.72 181.07C253.42 181.07 253.125 181.002 252.855 180.873C252.585 180.743 252.347 180.554 252.16 180.32L223.66 144.91C223.348 144.495 223.21 143.974 223.275 143.458C223.34 142.943 223.603 142.473 224.008 142.148C224.414 141.823 224.93 141.669 225.447 141.718C225.965 141.767 226.443 142.015 226.78 142.41L255.28 177.82C255.611 178.234 255.765 178.762 255.707 179.289C255.649 179.816 255.384 180.298 254.97 180.63C254.616 180.914 254.175 181.07 253.72 181.07Z" fill="#ED5564"/>
<path d="M225.22 181.07C224.837 181.07 224.461 180.959 224.139 180.752C223.817 180.545 223.561 180.249 223.402 179.9C223.242 179.551 223.187 179.164 223.242 178.785C223.296 178.405 223.459 178.05 223.71 177.76L256.52 139.76C256.881 139.416 257.357 139.22 257.856 139.209C258.354 139.198 258.839 139.374 259.214 139.702C259.59 140.03 259.829 140.487 259.886 140.982C259.942 141.477 259.812 141.976 259.52 142.38L226.7 180.38C226.516 180.593 226.289 180.764 226.034 180.883C225.779 181.002 225.501 181.066 225.22 181.07Z" fill="#ED5564"/>
<path d="M225.15 553.28H260.73V617.82L225 618L225.15 553.28Z" fill="white"/>
<path d="M376 618L376.38 544.38L416 544C416 544 420.86 455.42 376.38 451C331.9 446.58 301.69 451 275 451C248.31 451 225 477.41 225 513C225 548.59 225.15 553.28 225.15 553.28H260.74V615.57" fill="black"/>
<path d="M293.92 450.46C293.92 450.46 284 456 294 464C304 472 314.35 473 317.18 466C317.18 466 325 475 336 464C347 453 334.15 449 334.15 449" fill="white"/>
<path d="M309.47 471.68C304.74 471.68 298.95 469.24 293.38 464.78C289.95 462.03 288.32 459.2 288.56 456.37C288.91 452.16 293.25 449.69 293.44 449.59C293.671 449.457 293.945 449.422 294.202 449.491C294.459 449.561 294.677 449.729 294.81 449.96C294.943 450.191 294.978 450.465 294.909 450.722C294.839 450.979 294.671 451.197 294.44 451.33C294.36 451.38 290.83 453.42 290.58 456.54C290.41 458.67 291.78 460.91 294.66 463.22C300.87 468.22 307.5 470.55 311.96 469.39C312.934 469.165 313.838 468.703 314.591 468.045C315.345 467.388 315.925 466.555 316.28 465.62C316.344 465.462 316.448 465.323 316.581 465.216C316.715 465.11 316.873 465.039 317.042 465.011C317.21 464.983 317.383 464.998 317.544 465.056C317.704 465.113 317.848 465.211 317.96 465.34C319.778 467.211 322.235 468.325 324.84 468.46C328.26 468.58 331.79 466.83 335.33 463.29C338.58 460.04 339.93 457.19 339.33 454.83C338.5 451.45 333.9 449.97 333.86 449.96C333.733 449.921 333.616 449.858 333.514 449.773C333.412 449.689 333.328 449.585 333.267 449.468C333.205 449.351 333.168 449.222 333.156 449.091C333.145 448.959 333.16 448.826 333.2 448.7C333.28 448.449 333.457 448.239 333.691 448.118C333.925 447.996 334.198 447.972 334.45 448.05C334.68 448.12 340.16 449.87 341.27 454.34C342.03 457.43 340.5 460.92 336.71 464.7C332.71 468.7 328.71 470.61 324.71 470.46C322.053 470.339 319.509 469.348 317.47 467.64C316.919 468.552 316.194 469.346 315.336 469.977C314.478 470.609 313.504 471.065 312.47 471.32C311.489 471.568 310.481 471.689 309.47 471.68Z" fill="black"/>
<path d="M280.27 358.22C280.27 358.22 318.59 311.52 337.75 324.69C356.91 337.86 342.54 361.82 342.54 361.82L294.64 431.27C294.64 431.27 297.51 442.37 273 455C240 472 208 447 208 429C208 411 229.64 405.14 222.79 394.15C211.87 376.62 223 346 280.27 358.22Z" fill="#201000"/>
<path d="M294.64 451.63V431.27C294.64 431.27 280.27 419.27 280.27 408.52C280.27 408.52 251.53 410.91 247.94 392.95C244.35 374.99 258.71 365.41 269.49 371.4L280.27 377.4C280.27 377.4 300.63 375.01 299.43 353.45C299.43 353.45 332.96 331.9 346.13 361.84C359.3 391.78 364.13 418.12 356.91 427.7C349.69 437.28 334.15 438.47 334.15 438.47V451.65C334.15 451.65 320.98 483.96 294.64 451.63Z" fill="white"/>
<path d="M316.58 467C309.47 467 301.84 462.05 293.86 452.26C293.717 452.081 293.639 451.859 293.64 451.63V431.73C291.41 429.8 280.09 419.53 279.31 409.58C273.95 409.84 250.31 410 246.96 393.15C245.14 384.07 247.67 376.01 253.73 371.59C256.048 369.866 258.814 368.848 261.697 368.658C264.58 368.468 267.456 369.115 269.98 370.52L280.46 376.35C283.04 375.95 299.46 372.65 298.46 353.49C298.45 353.313 298.487 353.136 298.568 352.978C298.649 352.819 298.77 352.686 298.92 352.59C299.62 352.14 316.33 341.59 331.11 346.01C338.11 348.12 343.51 353.31 347.11 361.41C360.98 392.93 365.11 418.55 357.78 428.28C351.34 436.85 338.78 438.93 335.22 439.36V451.63C335.222 451.757 335.198 451.883 335.15 452C334.93 452.54 329.65 465.22 318.88 466.83C318.119 466.946 317.35 467.002 316.58 467ZM295.64 451.27C303.89 461.32 311.59 465.88 318.51 464.86C327.51 463.52 332.51 452.86 333.15 451.42V438.42C333.149 438.166 333.245 437.922 333.418 437.737C333.59 437.551 333.827 437.438 334.08 437.42C334.23 437.42 349.28 436.14 356.08 427.04C362.88 417.94 358.56 392.57 345.18 362.18C341.86 354.63 336.91 349.82 330.47 347.88C317.92 344.1 303.26 352.25 300.42 353.94C301.25 375.62 280.57 378.31 280.36 378.34C280.149 378.361 279.937 378.319 279.75 378.22L268.98 372.22C266.789 371 264.293 370.44 261.791 370.607C259.289 370.774 256.889 371.66 254.88 373.16C249.47 377.11 247.23 384.41 248.88 392.7C252.25 409.58 279.88 407.5 280.15 407.47C280.288 407.459 280.427 407.477 280.557 407.522C280.688 407.567 280.808 407.639 280.909 407.733C281.011 407.827 281.092 407.941 281.147 408.068C281.202 408.195 281.23 408.332 281.23 408.47C281.23 418.65 295.1 430.34 295.23 430.47C295.343 430.564 295.434 430.682 295.496 430.815C295.558 430.948 295.59 431.093 295.59 431.24L295.64 451.27Z" fill="black"/>
<path d="M337.75 399.94C337.583 399.94 337.418 399.897 337.271 399.817C337.125 399.737 337 399.621 336.91 399.48C336.766 399.258 336.716 398.989 336.77 398.73C336.825 398.472 336.979 398.245 337.2 398.1C340.52 395.93 342.3 393.28 342.46 390.22C342.9 382.13 332.46 373.45 332.32 373.37C332.115 373.202 331.984 372.958 331.958 372.694C331.932 372.43 332.012 372.166 332.18 371.96C332.348 371.754 332.592 371.624 332.856 371.598C333.12 371.572 333.385 371.652 333.59 371.82C334.05 372.2 344.95 381.23 344.46 390.33C344.26 394.06 342.18 397.24 338.29 399.78C338.129 399.884 337.942 399.939 337.75 399.94Z" fill="black"/>
<path d="M262.91 392.15C262.645 392.15 262.39 392.045 262.203 391.857C262.015 391.67 261.91 391.415 261.91 391.15C261.91 391 261.91 387.46 264.56 385.84C266.56 384.61 269.37 384.89 272.93 386.67C273.167 386.788 273.348 386.996 273.432 387.247C273.517 387.498 273.498 387.773 273.38 388.01C273.262 388.247 273.054 388.428 272.803 388.512C272.552 388.597 272.277 388.578 272.04 388.46C269.18 387.03 266.95 386.71 265.61 387.54C263.95 388.54 263.91 391.13 263.91 391.15C263.91 391.415 263.805 391.67 263.617 391.857C263.43 392.045 263.175 392.15 262.91 392.15Z" fill="black"/>
<path d="M300.83 368.34C300.609 368.342 300.393 368.27 300.217 368.135C300.041 368.001 299.914 367.812 299.857 367.598C299.8 367.384 299.815 367.158 299.901 366.953C299.986 366.749 300.137 366.579 300.33 366.47C301.993 365.447 303.242 363.872 303.86 362.02C303.93 361.766 304.098 361.55 304.326 361.419C304.555 361.288 304.826 361.253 305.08 361.32C305.336 361.388 305.554 361.555 305.687 361.783C305.82 362.012 305.857 362.284 305.79 362.54C305.045 364.914 303.455 366.932 301.32 368.21C301.171 368.295 301.002 368.339 300.83 368.34Z" fill="black"/>
<path d="M307.21 376.19C308.204 376.19 309.01 375.384 309.01 374.39C309.01 373.396 308.204 372.59 307.21 372.59C306.216 372.59 305.41 373.396 305.41 374.39C305.41 375.384 306.216 376.19 307.21 376.19Z" fill="#201000"/>
<path d="M335.95 367.81C336.944 367.81 337.75 367.004 337.75 366.01C337.75 365.016 336.944 364.21 335.95 364.21C334.956 364.21 334.15 365.016 334.15 366.01C334.15 367.004 334.956 367.81 335.95 367.81Z" fill="#201000"/>
<path d="M333.52 356.11C332.73 356.123 331.946 355.971 331.218 355.665C330.49 355.358 329.833 354.904 329.29 354.33C329.187 354.239 329.104 354.127 329.045 354.002C328.987 353.878 328.956 353.742 328.952 353.604C328.949 353.467 328.974 353.33 329.026 353.202C329.078 353.075 329.156 352.96 329.255 352.864C329.354 352.768 329.471 352.693 329.6 352.645C329.729 352.596 329.867 352.575 330.004 352.582C330.142 352.589 330.276 352.625 330.399 352.686C330.523 352.748 330.632 352.834 330.72 352.94C333.11 355.41 336.6 353.25 336.72 353.15C336.831 353.08 336.955 353.032 337.084 353.01C337.213 352.987 337.346 352.99 337.474 353.019C337.602 353.048 337.723 353.102 337.831 353.177C337.938 353.253 338.03 353.349 338.1 353.46C338.243 353.683 338.291 353.953 338.235 354.212C338.179 354.471 338.023 354.697 337.8 354.84C336.514 355.641 335.035 356.079 333.52 356.11Z" fill="black"/>
<path d="M277 396C276.797 395.999 276.6 395.936 276.434 395.82C276.268 395.704 276.141 395.54 276.07 395.35C270.42 380.28 258.28 381.97 258.16 381.99C258.029 382.011 257.895 382.006 257.767 381.976C257.638 381.945 257.516 381.889 257.409 381.811C257.302 381.732 257.212 381.634 257.143 381.52C257.075 381.407 257.029 381.281 257.01 381.15C256.99 381.02 256.996 380.887 257.028 380.76C257.059 380.632 257.115 380.512 257.193 380.406C257.271 380.3 257.37 380.21 257.482 380.142C257.595 380.075 257.72 380.03 257.85 380.01C257.99 380.01 271.73 378.08 277.94 394.65C278.031 394.898 278.019 395.172 277.909 395.412C277.798 395.651 277.597 395.838 277.35 395.93C277.24 395.978 277.12 396.002 277 396Z" fill="black"/>
<path d="M225 619C224.735 619 224.481 618.895 224.293 618.707C224.105 618.52 224 618.265 224 618L225.15 549.65C225.15 549.385 225.255 549.13 225.443 548.943C225.63 548.755 225.885 548.65 226.15 548.65C226.415 548.65 226.67 548.755 226.857 548.943C227.045 549.13 227.15 549.385 227.15 549.65L226 617.99C226.001 618.122 225.976 618.253 225.927 618.376C225.877 618.498 225.804 618.61 225.711 618.704C225.618 618.798 225.507 618.872 225.385 618.923C225.263 618.974 225.132 619 225 619Z" fill="black"/>
<path d="M376.38 544.38L402 544C402 544 406 461 410 423C411.43 409.44 422.68 395.72 430 391C443 382.61 468 395 458 425C449.51 450.49 469 617 421.89 617.19C379.77 617.36 376 544 376 544" fill="white"/>
<path d="M421.74 618.19C404.12 618.19 390.46 605.33 382.21 580.98C378.332 569.004 375.911 556.605 375 544.05C374.993 543.919 375.013 543.787 375.057 543.663C375.101 543.539 375.169 543.425 375.257 543.328C375.345 543.23 375.452 543.151 375.571 543.095C375.69 543.039 375.819 543.006 375.95 543C376.109 542.99 376.269 543.019 376.415 543.083C376.561 543.147 376.69 543.246 376.79 543.37L401.05 543.01C401.51 533.73 405.28 458.31 409.05 422.89C410.49 409.22 421.85 395.1 429.5 390.16C436.06 385.92 445.44 386.69 452.31 392.02C456.56 395.31 465.71 405.15 458.99 425.31C456.52 432.74 456.46 453.31 456.4 477.04C456.25 536.55 456.04 618.04 421.93 618.19H421.74ZM377.1 545.37C377.92 555.51 384.41 616.19 421.74 616.19H421.89C454 616.06 454.22 532.4 454.36 477.04C454.43 452.11 454.48 432.41 457.05 424.68C463.37 405.73 454.96 396.63 451.05 393.6C444.83 388.78 436.4 388.05 430.55 391.84C423.23 396.56 412.37 410.05 411 423.1C407 460.64 403 543.22 403 544.1C402.987 544.357 402.876 544.598 402.69 544.775C402.504 544.952 402.257 545.05 402 545.05L377.1 545.37Z" fill="black"/>
<path d="M401 572C400.735 572 400.481 571.895 400.293 571.707C400.105 571.52 400 571.265 400 571L401.09 542.21C401.09 541.945 401.195 541.69 401.383 541.503C401.57 541.315 401.825 541.21 402.09 541.21C402.355 541.21 402.61 541.315 402.797 541.503C402.985 541.69 403.09 541.945 403.09 542.21L402 570.99C402.001 571.122 401.976 571.253 401.927 571.376C401.877 571.498 401.804 571.61 401.711 571.704C401.618 571.798 401.507 571.872 401.385 571.923C401.263 571.974 401.132 572 401 572Z" fill="black"/>
<path d="M379 550C378.757 550.002 378.522 549.916 378.338 549.758C378.154 549.6 378.034 549.38 378 549.14C375.26 530.48 369.08 504.49 369 504.23C368.969 504.102 368.963 503.969 368.983 503.839C369.004 503.709 369.05 503.584 369.118 503.471C369.187 503.359 369.277 503.261 369.384 503.184C369.491 503.106 369.612 503.051 369.74 503.02C369.868 502.989 370.001 502.983 370.131 503.003C370.262 503.024 370.386 503.07 370.499 503.138C370.611 503.207 370.709 503.297 370.786 503.404C370.864 503.511 370.919 503.632 370.95 503.76C371.01 504.03 377.2 530.1 379.95 548.85C379.97 548.98 379.964 549.113 379.932 549.24C379.901 549.368 379.845 549.488 379.767 549.594C379.689 549.7 379.59 549.79 379.478 549.858C379.365 549.925 379.24 549.97 379.11 549.99L379 550Z" fill="white"/>
<path d="M449.03 412.78C444.27 415.16 445.46 423.49 451.41 421.11C457.36 418.73 476.41 413.97 474.02 409.21C471.63 404.45 463.31 406.83 457.36 409.21C451.41 411.59 449.03 412.78 449.03 412.78Z" fill="white"/>
<path d="M449.45 422.57C448.627 422.579 447.82 422.344 447.13 421.896C446.439 421.447 445.897 420.805 445.57 420.05C444.962 418.567 444.933 416.909 445.489 415.406C446.044 413.902 447.144 412.662 448.57 411.93C448.67 411.88 451.06 410.69 456.98 408.32C466.75 404.41 472.79 404.58 474.9 408.81C475.091 409.183 475.197 409.593 475.209 410.012C475.221 410.431 475.139 410.847 474.97 411.23C473.59 414.56 466.03 417.29 457.03 420.23C454.88 420.94 453.03 421.55 451.77 422.05C451.036 422.367 450.249 422.544 449.45 422.57ZM449.45 413.72C448.481 414.219 447.732 415.06 447.348 416.08C446.964 417.1 446.971 418.226 447.37 419.24C447.97 420.57 449.26 420.92 451.01 420.24C452.32 419.72 454.2 419.1 456.38 418.38C462.21 416.46 471.96 413.24 473.11 410.48C473.169 410.362 473.2 410.232 473.2 410.1C473.2 409.968 473.169 409.838 473.11 409.72C471.11 405.81 463.66 407.82 457.72 410.2C451.78 412.58 449.51 413.66 449.48 413.68L449.45 413.72Z" fill="black"/>
<path d="M446.65 403.26C441.89 405.64 443.08 413.97 449.03 411.59C454.98 409.21 474.03 404.45 471.64 399.69C469.25 394.93 460.93 397.31 454.98 399.69C449.03 402.07 446.65 403.26 446.65 403.26Z" fill="white"/>
<path d="M447.07 413.01C446.248 413.019 445.442 412.786 444.752 412.34C444.061 411.893 443.518 411.253 443.19 410.5C442.582 409.015 442.553 407.356 443.108 405.851C443.663 404.346 444.763 403.104 446.19 402.37C446.29 402.32 448.68 401.13 454.6 398.77C464.37 394.86 470.41 395.02 472.52 399.25C472.711 399.623 472.817 400.033 472.829 400.452C472.841 400.871 472.76 401.287 472.59 401.67C471.21 405 463.65 407.73 454.65 410.67C452.5 411.38 450.65 411.99 449.39 412.49C448.656 412.807 447.869 412.984 447.07 413.01ZM447.07 404.16C446.101 404.659 445.352 405.5 444.968 406.52C444.584 407.54 444.592 408.666 444.99 409.68C445.59 411.01 446.88 411.36 448.63 410.68C449.94 410.16 451.82 409.54 454 408.82C459.83 406.9 469.58 403.68 470.73 400.92C470.789 400.802 470.82 400.672 470.82 400.54C470.82 400.408 470.789 400.278 470.73 400.16C468.78 396.25 461.28 398.27 455.34 400.64C449.4 403.01 447.12 404.16 447.09 404.18L447.07 404.16Z" fill="black"/>
<path d="M444.43 393.27C439.43 395.78 440.67 404.56 446.94 402.05C453.21 399.54 473.29 394.52 470.78 389.5C468.27 384.48 459.49 386.99 453.21 389.5C446.93 392.01 444.43 393.27 444.43 393.27Z" fill="white"/>
<path d="M444.83 403.51C443.975 403.523 443.136 403.279 442.422 402.808C441.709 402.337 441.154 401.661 440.83 400.87C440.192 399.318 440.16 397.582 440.742 396.007C441.323 394.433 442.476 393.135 443.97 392.37C444.08 392.32 446.59 391.07 452.83 388.58C463.11 384.47 469.45 384.58 471.66 389.06C471.858 389.445 471.967 389.869 471.981 390.301C471.995 390.733 471.913 391.163 471.74 391.56C470.29 395.06 462.32 397.93 452.85 401.06C450.58 401.8 448.62 402.45 447.3 402.98C446.518 403.313 445.68 403.493 444.83 403.51ZM444.83 394.16C443.799 394.695 443.001 395.592 442.592 396.68C442.182 397.767 442.188 398.967 442.61 400.05C443.26 401.49 444.61 401.87 446.52 401.12C447.9 400.57 449.88 399.92 452.18 399.12C458.33 397.12 468.63 393.69 469.85 390.76C469.919 390.629 469.955 390.483 469.955 390.335C469.955 390.187 469.919 390.041 469.85 389.91C467.77 385.75 459.85 387.91 453.55 390.39C447.25 392.87 444.87 394.11 444.85 394.12L444.83 394.16Z" fill="black"/>
<path d="M440.9 383.46C435.82 385.84 436.9 394.65 443.18 392.3C449.46 389.95 469.71 385.43 467.33 380.3C464.95 375.17 456.11 377.51 449.77 379.86C443.43 382.21 440.9 383.46 440.9 383.46Z" fill="white"/>
<path d="M441.22 393.7C440.345 393.714 439.487 393.46 438.762 392.972C438.036 392.484 437.477 391.785 437.16 390.97C436.566 389.401 436.581 387.665 437.203 386.107C437.825 384.548 439.009 383.279 440.52 382.55C440.63 382.5 443.17 381.31 449.47 378.98C459.85 375.12 466.18 375.44 468.29 379.93C468.475 380.322 468.571 380.751 468.571 381.185C468.571 381.619 468.475 382.048 468.29 382.44C466.75 385.89 458.72 388.57 449.17 391.44C446.88 392.13 444.91 392.73 443.57 393.23C442.82 393.523 442.025 393.682 441.22 393.7ZM441.37 384.36C440.326 384.868 439.507 385.746 439.071 386.822C438.635 387.899 438.614 389.098 439.01 390.19C439.62 391.65 441.01 392.06 442.89 391.36C444.28 390.84 446.28 390.24 448.6 389.54C454.8 387.66 465.18 384.54 466.47 381.62C466.537 381.49 466.572 381.346 466.572 381.2C466.572 381.054 466.537 380.91 466.47 380.78C464.47 376.57 456.47 378.49 450.16 380.85C443.97 383.15 441.4 384.34 441.36 384.36H441.37Z" fill="black"/>
<path d="M409.66 428.81C410.22 411.65 417.22 386.65 426.22 383.65C435.22 380.65 453.22 383.65 453.22 388.65C453.22 393.65 435.22 393.65 435.22 393.65C435.22 393.65 436.22 406.65 425.22 411.65" fill="white"/>
<path d="M409.66 429.81C409.395 429.81 409.14 429.705 408.953 429.517C408.765 429.33 408.66 429.075 408.66 428.81C409.21 411.81 416.04 386.02 425.9 382.73C433.28 380.27 447 381.63 452.13 385.33C452.726 385.674 453.229 386.16 453.593 386.744C453.958 387.328 454.173 387.993 454.22 388.68C454.22 393.92 440.87 394.6 436.22 394.68C436.22 398.01 435.22 408.23 425.62 412.6C425.378 412.708 425.104 412.716 424.857 412.623C424.609 412.529 424.409 412.341 424.3 412.1C424.191 411.86 424.181 411.586 424.273 411.339C424.365 411.092 424.551 410.891 424.79 410.78C435.01 406.14 434.25 394.27 434.21 393.78C434.198 393.642 434.216 393.504 434.26 393.373C434.305 393.242 434.376 393.122 434.47 393.02C434.564 392.918 434.679 392.837 434.806 392.782C434.934 392.727 435.071 392.699 435.21 392.7C442.06 392.7 452.21 391.43 452.21 388.7C452.21 388.02 451.53 387.39 450.95 386.97C446.71 383.91 433.85 382.21 426.52 384.65C418.44 387.34 411.23 411.06 410.65 428.9C410.628 429.148 410.514 429.378 410.331 429.546C410.148 429.715 409.909 429.809 409.66 429.81Z" fill="black"/>
<path d="M450.22 462C449.955 462 449.7 461.895 449.513 461.707C449.325 461.52 449.22 461.265 449.22 461V421C449.22 420.735 449.325 420.48 449.513 420.293C449.7 420.105 449.955 420 450.22 420C450.485 420 450.739 420.105 450.927 420.293C451.115 420.48 451.22 420.735 451.22 421V461C451.22 461.265 451.115 461.52 450.927 461.707C450.739 461.895 450.485 462 450.22 462Z" fill="black"/>
<path d="M450 459.5C453.049 459.5 455.52 456.254 455.52 452.25C455.52 448.246 453.049 445 450 445C446.951 445 444.48 448.246 444.48 452.25C444.48 456.254 446.951 459.5 450 459.5Z" fill="black"/>
<path d="M448.62 457.68L441.72 474H458.29L451.38 457.68H448.62Z" fill="black"/>
<path d="M259.73 560.93C259.465 560.93 259.21 560.825 259.023 560.637C258.835 560.45 258.73 560.195 258.73 559.93C258.47 520.19 263.98 499.93 264.04 499.72C264.075 499.593 264.134 499.475 264.215 499.371C264.295 499.267 264.396 499.18 264.51 499.115C264.624 499.05 264.75 499.008 264.881 498.992C265.011 498.976 265.143 498.985 265.27 499.02C265.397 499.055 265.515 499.114 265.619 499.195C265.723 499.276 265.81 499.376 265.875 499.49C265.94 499.604 265.982 499.73 265.998 499.861C266.014 499.991 266.005 500.123 265.97 500.25C265.91 500.45 260.47 520.49 260.73 559.92C260.73 560.185 260.624 560.44 260.437 560.627C260.249 560.815 259.995 560.92 259.73 560.92V560.93Z" fill="white"/>
<path d="M319 493C320.657 493 322 491.657 322 490C322 488.343 320.657 487 319 487C317.343 487 316 488.343 316 490C316 491.657 317.343 493 319 493Z" fill="black"/>
<path d="M319 515C320.657 515 322 513.657 322 512C322 510.343 320.657 509 319 509C317.343 509 316 510.343 316 512C316 513.657 317.343 515 319 515Z" fill="black"/>
<path d="M279.36 358.04C279.36 358.04 271 365.04 279 381.04C287 397.04 279 382.04 279 382.04H283C280.968 377.83 279.913 373.215 279.913 368.54C279.913 363.865 280.968 359.25 283 355.04L279.36 358.04Z" fill="white"/>
<path d="M477 372C476.736 371.996 476.485 371.888 476.3 371.7C476.114 371.513 476.009 371.259 476.009 370.995C476.009 370.731 476.114 370.477 476.3 370.29L485.3 361.29C485.39 361.185 485.5 361.1 485.624 361.04C485.748 360.98 485.883 360.947 486.021 360.941C486.159 360.936 486.296 360.959 486.424 361.009C486.553 361.06 486.669 361.136 486.767 361.233C486.864 361.331 486.94 361.447 486.991 361.576C487.041 361.704 487.064 361.841 487.059 361.979C487.054 362.117 487.02 362.252 486.96 362.376C486.9 362.5 486.815 362.61 486.71 362.7L477.71 371.7C477.617 371.795 477.507 371.87 477.385 371.921C477.263 371.973 477.132 371.999 477 372Z" fill="black"/>
<path d="M483 385C482.869 385.009 482.737 384.992 482.612 384.951C482.487 384.909 482.372 384.843 482.272 384.757C482.072 384.582 481.949 384.335 481.93 384.07C481.911 383.805 481.999 383.543 482.173 383.342C482.348 383.142 482.595 383.019 482.86 383L496.86 381C497.122 380.963 497.389 381.032 497.601 381.191C497.813 381.35 497.953 381.587 497.99 381.85C498.027 382.113 497.958 382.379 497.799 382.591C497.64 382.803 497.402 382.943 497.14 382.98L483.14 384.98L483 385Z" fill="black"/>
<path d="M499 407C498.927 407.01 498.853 407.01 498.78 407L485.78 404C485.521 403.94 485.297 403.78 485.156 403.555C485.016 403.33 484.97 403.059 485.03 402.8C485.09 402.541 485.25 402.317 485.475 402.176C485.7 402.036 485.971 401.99 486.23 402.05L499.23 405.05C499.495 405.081 499.737 405.215 499.903 405.424C500.069 405.633 500.145 405.9 500.115 406.165C500.084 406.43 499.95 406.672 499.741 406.838C499.532 407.004 499.265 407.081 499 407.05V407Z" fill="black"/>
<path d="M334.22 425.07C334.041 425.07 333.866 425.023 333.712 424.932C333.558 424.842 333.431 424.712 333.344 424.556C333.257 424.399 333.214 424.223 333.218 424.044C333.223 423.866 333.275 423.692 333.37 423.54C333.67 423.06 336.37 418.89 339.78 418.84H339.85C341.45 418.84 342.85 419.74 344.05 421.52C344.168 421.74 344.199 421.995 344.139 422.237C344.078 422.478 343.929 422.689 343.721 422.826C343.514 422.964 343.262 423.019 343.016 422.981C342.769 422.943 342.546 422.814 342.39 422.62C342.151 422.133 341.793 421.714 341.349 421.403C340.905 421.092 340.389 420.898 339.85 420.84C337.85 420.84 335.75 423.56 335.1 424.6C335.007 424.749 334.877 424.87 334.723 424.953C334.568 425.035 334.395 425.076 334.22 425.07Z" fill="black"/>
</svg>
