<svg width="700" height="700" viewBox="0 0 700 700" fill="none" xmlns="http://www.w3.org/2000/svg">
<rect width="700" height="700" fill="white"/>
<path d="M259.219 447.88L153.049 447.47C152.651 447.47 152.269 447.312 151.988 447.031C151.706 446.749 151.549 446.368 151.549 445.97C151.549 445.572 151.706 445.191 151.988 444.909C152.269 444.628 152.651 444.47 153.049 444.47L259.219 444.88C259.616 444.88 259.998 445.038 260.279 445.319C260.56 445.601 260.719 445.982 260.719 446.38C260.719 446.778 260.56 447.159 260.279 447.441C259.998 447.722 259.616 447.88 259.219 447.88Z" fill="#ED5564"/>
<path d="M259.219 471.47L202.219 471.32C201.821 471.32 201.439 471.162 201.158 470.881C200.877 470.599 200.719 470.218 200.719 469.82C200.719 469.422 200.877 469.041 201.158 468.759C201.439 468.478 201.821 468.32 202.219 468.32L259.219 468.47C259.616 468.47 259.998 468.628 260.279 468.909C260.56 469.191 260.719 469.572 260.719 469.97C260.719 470.368 260.56 470.749 260.279 471.031C259.998 471.312 259.616 471.47 259.219 471.47Z" fill="#ED5564"/>
<path d="M167.848 471.22L124.928 471.06C124.531 471.06 124.149 470.902 123.868 470.621C123.587 470.339 123.428 469.958 123.428 469.56C123.428 469.162 123.587 468.781 123.868 468.499C124.149 468.218 124.531 468.06 124.928 468.06L167.848 468.22C168.247 468.223 168.629 468.383 168.91 468.666C169.191 468.949 169.348 469.331 169.348 469.73C169.348 469.926 169.31 470.121 169.234 470.302C169.159 470.484 169.048 470.649 168.908 470.787C168.769 470.926 168.604 471.035 168.422 471.109C168.24 471.184 168.045 471.221 167.848 471.22Z" fill="#ED5564"/>
<path d="M268.299 498.7L117.658 498.29C117.261 498.285 116.883 498.123 116.604 497.841C116.325 497.558 116.168 497.177 116.168 496.78C116.171 496.384 116.33 496.005 116.611 495.726C116.892 495.447 117.272 495.29 117.668 495.29L268.299 495.7C268.696 495.7 269.078 495.858 269.359 496.139C269.64 496.421 269.799 496.802 269.799 497.2C269.799 497.598 269.64 497.979 269.359 498.261C269.078 498.542 268.696 498.7 268.299 498.7Z" fill="#ED5564"/>
<path d="M599.509 117.62C597.865 117.62 596.257 117.132 594.891 116.219C593.524 115.305 592.459 114.007 591.83 112.488C591.201 110.969 591.037 109.297 591.359 107.685C591.68 106.073 592.473 104.592 593.636 103.43C594.799 102.269 596.281 101.478 597.894 101.158C599.506 100.839 601.177 101.005 602.696 101.635C604.214 102.266 605.511 103.333 606.423 104.7C607.335 106.068 607.821 107.676 607.819 109.32C607.816 111.522 606.939 113.633 605.381 115.19C603.823 116.746 601.711 117.62 599.509 117.62ZM599.509 104.01C598.458 104.01 597.432 104.321 596.558 104.905C595.685 105.488 595.005 106.318 594.603 107.288C594.201 108.258 594.096 109.326 594.301 110.356C594.505 111.386 595.011 112.332 595.754 113.075C596.496 113.817 597.443 114.323 598.473 114.528C599.503 114.733 600.57 114.628 601.541 114.226C602.511 113.824 603.34 113.143 603.924 112.27C604.507 111.397 604.819 110.37 604.819 109.32C604.819 107.912 604.259 106.561 603.263 105.565C602.267 104.569 600.917 104.01 599.509 104.01Z" fill="#ED5564"/>
<path d="M569.569 139.45C569.094 139.456 568.632 139.293 568.266 138.99C567.9 138.686 567.654 138.263 567.572 137.795C567.49 137.326 567.578 136.844 567.819 136.435C568.06 136.025 568.439 135.715 568.889 135.56L591.569 127.4C592.063 127.237 592.602 127.273 593.07 127.5C593.538 127.728 593.899 128.129 594.076 128.619C594.253 129.108 594.232 129.648 594.018 130.122C593.804 130.597 593.413 130.969 592.929 131.16L570.239 139.33C570.024 139.408 569.797 139.448 569.569 139.45Z" fill="#47CEC0"/>
<path d="M153.158 126.54C152.963 126.538 152.768 126.511 152.579 126.46C152.326 126.384 152.091 126.26 151.887 126.093C151.683 125.926 151.513 125.721 151.389 125.489C151.264 125.256 151.187 125.002 151.161 124.739C151.135 124.477 151.162 124.212 151.239 123.96L156.408 106.9C156.485 106.648 156.61 106.415 156.776 106.211C156.943 106.008 157.148 105.84 157.38 105.716C157.611 105.592 157.865 105.515 158.127 105.489C158.388 105.463 158.652 105.489 158.904 105.565C159.155 105.641 159.389 105.766 159.592 105.933C159.796 106.099 159.964 106.304 160.088 106.536C160.212 106.768 160.289 107.021 160.315 107.283C160.341 107.544 160.315 107.809 160.239 108.06L155.069 125.12C154.944 125.53 154.692 125.889 154.348 126.145C154.004 126.401 153.587 126.539 153.158 126.54Z" fill="#CB93EE"/>
<path d="M323.329 219.6C322.96 219.6 322.599 219.498 322.285 219.306C321.971 219.113 321.716 218.838 321.549 218.51C321.43 218.276 321.358 218.02 321.338 217.758C321.318 217.496 321.349 217.233 321.431 216.983C321.513 216.733 321.643 216.502 321.814 216.302C321.985 216.103 322.194 215.939 322.429 215.82L339.079 207.35C339.552 207.11 340.101 207.068 340.606 207.233C341.11 207.398 341.529 207.757 341.769 208.23C342.009 208.703 342.051 209.253 341.886 209.757C341.721 210.262 341.362 210.68 340.888 210.92L324.239 219.39C323.956 219.531 323.644 219.603 323.329 219.6Z" fill="#FCE054"/>
<path d="M125.959 425.51C125.606 425.511 125.26 425.42 124.954 425.244C124.649 425.069 124.395 424.815 124.219 424.51L115.679 409.67C115.499 409.36 115.406 409.008 115.41 408.65C115.413 408.292 115.512 407.942 115.697 407.635C115.882 407.329 116.146 407.078 116.461 406.908C116.776 406.738 117.131 406.656 117.489 406.67L132.909 407.24C133.244 407.256 133.57 407.356 133.857 407.53C134.143 407.705 134.381 407.949 134.549 408.24C134.72 408.524 134.818 408.847 134.834 409.179C134.85 409.511 134.782 409.841 134.639 410.14L127.759 424.42C127.6 424.748 127.356 425.027 127.051 425.226C126.746 425.425 126.393 425.537 126.029 425.55L125.959 425.51ZM120.959 410.8L125.809 419.23L129.709 411.12L120.959 410.8Z" fill="#FCE054"/>
<path d="M355.418 192.8H163.948V358.86H355.418V192.8Z" fill="#47CEC0"/>
<path d="M163.948 227.01C163.948 227.01 170.299 213.65 185.719 222.72C201.139 231.79 199.339 247.22 199.339 247.22C199.339 247.22 211.128 241.78 218.388 252.67C225.648 263.56 213.848 268.09 191.168 268.09C166.598 268.09 163.948 266.14 163.948 266.14V227.01Z" fill="white"/>
<path d="M355.408 292.81C355.408 292.81 351.409 284.32 341.569 290.09C338.803 291.604 336.523 293.869 334.99 296.625C333.458 299.38 332.736 302.512 332.908 305.66C332.908 305.66 325.419 302.2 320.799 309.12C316.179 316.04 323.678 318.93 338.108 318.93C353.728 318.93 355.408 317.69 355.408 317.69V292.81Z" fill="white"/>
<path d="M396.579 181.91H511.699C520.809 181.91 524.919 170.37 517.769 164.72C514.637 162.251 510.891 160.685 506.935 160.19C502.978 159.695 498.962 160.289 495.319 161.91C494.405 158.98 492.765 156.329 490.553 154.202C488.34 152.075 485.626 150.541 482.663 149.743C479.699 148.945 476.582 148.909 473.601 149.637C470.619 150.366 467.87 151.835 465.608 153.91C462.227 149.821 457.836 146.686 452.87 144.816C447.905 142.946 442.537 142.406 437.298 143.248C432.059 144.091 427.131 146.288 423.003 149.62C418.874 152.953 415.687 157.307 413.759 162.25C410.046 160.421 405.892 159.679 401.776 160.111C397.66 160.542 393.75 162.13 390.499 164.69C383.349 170.37 387.469 181.91 396.579 181.91Z" fill="#47CEC0"/>
<path d="M409.898 307.34C407.786 305.676 405.261 304.62 402.593 304.285C399.925 303.95 397.216 304.35 394.759 305.44C394.137 303.472 393.03 301.693 391.54 300.266C390.05 298.838 388.224 297.809 386.232 297.273C384.239 296.737 382.144 296.712 380.139 297.199C378.134 297.686 376.283 298.67 374.759 300.06C373.858 298.987 372.853 298.005 371.759 297.13V318.93H405.819C407.168 318.932 408.484 318.514 409.586 317.735C410.688 316.956 411.52 315.855 411.968 314.582C412.416 313.309 412.458 311.928 412.087 310.631C411.716 309.334 410.951 308.184 409.898 307.34Z" fill="#47CEC0"/>
<path d="M150.339 220.01C146.213 217.118 141.306 215.548 136.268 215.51C123.338 215.51 112.268 225.99 107.878 240.77C105.001 238.865 101.63 237.839 98.1784 237.82C95.6221 237.87 93.1027 238.438 90.7733 239.492C88.4439 240.546 86.3531 242.063 84.6283 243.95C77.4783 251.3 81.6284 266.33 90.6984 266.33H150.339V220.01Z" fill="#47CEC0"/>
<path d="M401.858 356.53C376.438 365.33 328.539 449.41 328.539 449.41C328.539 449.41 304.539 319.91 305.069 287.12C305.229 277.29 293.339 257.78 286.499 259.74C279.659 261.7 290.409 274.41 285.499 285.16C280.589 295.91 266.918 288.09 264.968 275.38C263.018 262.67 276.209 257.3 283.539 258.76C288.429 259.76 285.538 248.01 268.388 250.45C257.568 252 253.718 269.03 253.718 269.03C253.718 269.03 250.788 259.25 245.898 253.38C241.008 247.51 236.128 253.38 236.128 253.38C231.238 252.38 225.368 261.21 225.368 261.21C225.368 261.21 212.658 263.21 222.438 286.63C232.218 310.05 244.929 378.53 260.569 465.54C276.209 552.55 286.969 551.54 318.249 550.6C349.529 549.66 391.579 478.25 391.579 478.25" fill="white"/>
<path d="M616.749 597.51C616.749 597.51 617.999 458.21 615.059 407.37C612.119 356.53 596.489 341.87 570.059 338.93C543.629 335.99 427.318 346.75 401.898 355.55C376.478 364.35 328.569 448.43 328.569 448.43C328.569 448.43 304.568 318.93 305.108 286.14C305.268 276.31 293.369 256.81 286.529 258.76C279.689 260.71 290.439 273.43 285.529 284.18C280.619 294.93 266.958 287.11 264.999 274.4C263.039 261.69 276.239 256.32 283.579 257.78C288.469 258.78 285.578 247.03 268.418 249.47C257.598 251.02 253.759 268.05 253.759 268.05C253.759 268.05 250.818 258.27 245.938 252.41C241.058 246.55 236.158 252.41 236.158 252.41C231.268 251.41 225.398 260.23 225.398 260.23C225.398 260.23 212.688 262.23 222.468 285.65C232.248 309.07 244.958 377.55 260.598 464.57C276.238 551.59 286.999 550.57 318.279 549.62C349.559 548.67 391.608 477.28 391.608 477.28V593.88" fill="white"/>
<path d="M616.749 598.51C616.483 598.51 616.229 598.405 616.041 598.217C615.854 598.03 615.749 597.775 615.749 597.51C615.749 596.12 616.959 457.66 614.059 407.44C611.059 355.15 594.258 342.63 569.978 339.94C544.348 337.08 427.918 347.62 402.248 356.51C377.478 365.08 329.948 448.1 329.468 448.94C329.369 449.112 329.221 449.25 329.043 449.337C328.865 449.424 328.665 449.457 328.468 449.43C328.268 449.395 328.083 449.299 327.938 449.157C327.794 449.014 327.696 448.83 327.658 448.63C327.418 447.33 303.658 318.63 304.178 286.13C304.288 279.06 297.588 266.06 291.368 261.29C290.138 260.35 288.368 259.29 286.868 259.73C284.638 260.37 284.969 262.56 286.309 267.79C287.569 272.72 289.149 278.85 286.529 284.61C284.679 288.69 281.358 290.73 277.418 290.18C271.938 289.42 265.418 283.37 264.098 274.57C263.648 272.225 263.797 269.804 264.531 267.531C265.265 265.259 266.561 263.209 268.299 261.57C270.374 259.667 272.847 258.249 275.538 257.419C278.229 256.589 281.071 256.367 283.858 256.77C284.098 256.82 284.518 256.87 284.678 256.64C284.838 256.41 284.888 255.64 284.248 254.58C282.578 251.88 277.498 249.17 268.648 250.43C258.648 251.87 254.859 268.08 254.819 268.24C254.77 268.456 254.651 268.649 254.481 268.79C254.311 268.931 254.099 269.012 253.878 269.02C253.657 269.03 253.438 268.965 253.257 268.836C253.076 268.708 252.943 268.523 252.878 268.31C252.878 268.21 249.948 258.65 245.248 253.02C244.803 252.375 244.219 251.838 243.539 251.449C242.859 251.059 242.1 250.827 241.319 250.77C238.939 250.77 237.029 253 237.009 253.02C236.89 253.164 236.734 253.273 236.557 253.333C236.38 253.393 236.19 253.402 236.009 253.36C232.569 252.68 227.819 258.46 226.289 260.75C226.212 260.867 226.112 260.966 225.995 261.042C225.878 261.118 225.746 261.168 225.608 261.19C224.653 261.42 223.758 261.854 222.985 262.461C222.211 263.069 221.578 263.836 221.128 264.71C219.508 267.64 218.588 273.59 223.438 285.23C233.198 308.65 245.968 377.23 261.638 464.36C277.008 549.89 287.248 549.58 317.638 548.62H318.319C348.709 547.68 390.399 477.48 390.819 476.77C390.93 476.582 391.101 476.435 391.304 476.353C391.507 476.271 391.732 476.258 391.943 476.316C392.154 476.374 392.341 476.5 392.474 476.674C392.606 476.848 392.678 477.061 392.678 477.28V593.88C392.678 594.145 392.573 594.4 392.385 594.587C392.198 594.775 391.944 594.88 391.678 594.88C391.413 594.88 391.159 594.775 390.971 594.587C390.784 594.4 390.678 594.145 390.678 593.88V480.88C382.108 494.78 346.468 549.77 318.388 550.64H317.708C302.468 551.13 291.458 551.47 282.708 540.49C274.118 529.73 267.458 507.79 259.708 464.74C244.058 377.74 231.318 309.27 221.638 286.03C217.478 276.03 216.738 268.54 219.458 263.71C220.028 262.657 220.801 261.728 221.733 260.978C222.666 260.228 223.738 259.671 224.888 259.34C226.108 257.59 231.068 250.96 235.888 251.34C237.315 249.829 239.264 248.917 241.339 248.79C242.418 248.842 243.472 249.139 244.42 249.659C245.367 250.179 246.184 250.908 246.809 251.79C250.109 255.74 252.509 261.33 253.809 264.79C255.529 259.62 259.888 249.79 268.418 248.54C278.208 247.15 283.918 250.25 285.998 253.62C286.998 255.18 287.108 256.8 286.378 257.86C288.218 257.34 290.318 257.98 292.638 259.76C299.368 264.92 306.348 278.52 306.228 286.21C305.738 315.93 325.768 426.94 329.178 445.64C337.308 431.64 378.308 362.76 401.688 354.64C427.498 345.7 544.539 335.11 570.289 337.97C595.579 340.78 613.048 353.65 616.148 407.34C619.048 457.63 617.849 596.16 617.839 597.55C617.834 597.686 617.801 597.819 617.743 597.942C617.685 598.065 617.602 598.175 617.5 598.265C617.398 598.355 617.279 598.422 617.15 598.465C617.02 598.507 616.884 598.522 616.749 598.51ZM281.089 258.51C276.847 258.542 272.767 260.146 269.638 263.01C268.144 264.423 267.031 266.19 266.402 268.148C265.773 270.106 265.648 272.191 266.039 274.21C267.239 281.99 273.038 287.5 277.658 288.14C280.738 288.56 283.168 287.04 284.658 283.73C286.978 278.62 285.509 272.86 284.319 268.24C283.319 264.39 282.389 260.71 284.319 258.8C284 258.812 283.681 258.785 283.368 258.72C282.615 258.592 281.852 258.535 281.089 258.55V258.51Z" fill="black"/>
<path d="M575.009 594.88C574.752 594.88 574.505 594.782 574.319 594.605C574.132 594.428 574.021 594.186 574.009 593.93L565.178 420.13C565.165 419.865 565.258 419.605 565.436 419.408C565.614 419.211 565.863 419.093 566.128 419.08C566.394 419.067 566.653 419.16 566.85 419.338C567.047 419.516 567.165 419.765 567.178 420.03L576.009 593.83C576.009 594.087 575.91 594.334 575.733 594.52C575.557 594.706 575.315 594.817 575.059 594.83L575.009 594.88Z" fill="black"/>
<path d="M391.219 479.09C390.953 479.09 390.699 478.985 390.511 478.797C390.324 478.61 390.219 478.355 390.219 478.09V439.63C390.219 439.365 390.324 439.11 390.511 438.923C390.699 438.735 390.953 438.63 391.219 438.63C391.484 438.63 391.738 438.735 391.926 438.923C392.113 439.11 392.219 439.365 392.219 439.63V478.09C392.219 478.355 392.113 478.61 391.926 478.797C391.738 478.985 391.484 479.09 391.219 479.09Z" fill="black"/>
<path d="M335.439 485.61C335.202 485.614 334.971 485.533 334.788 485.383C334.605 485.233 334.481 485.023 334.439 484.79L327.239 446.57C327.214 446.439 327.215 446.304 327.242 446.173C327.269 446.042 327.322 445.918 327.397 445.807C327.472 445.697 327.568 445.602 327.68 445.529C327.792 445.455 327.917 445.405 328.049 445.38C328.18 445.355 328.315 445.356 328.446 445.383C328.576 445.41 328.701 445.463 328.811 445.539C328.922 445.614 329.016 445.71 329.09 445.822C329.163 445.933 329.214 446.059 329.239 446.19L336.449 484.42C336.473 484.549 336.472 484.682 336.445 484.811C336.418 484.94 336.366 485.062 336.292 485.171C336.217 485.28 336.122 485.373 336.012 485.445C335.901 485.517 335.778 485.566 335.649 485.59L335.439 485.61Z" fill="black"/>
<path d="M265.049 316.47C264.783 316.47 264.529 316.365 264.341 316.177C264.154 315.989 264.049 315.735 264.049 315.47C264.049 314.61 264.709 294.17 279.579 288.15C279.702 288.091 279.836 288.058 279.972 288.053C280.108 288.047 280.244 288.07 280.372 288.12C280.499 288.169 280.615 288.244 280.712 288.339C280.809 288.435 280.886 288.55 280.937 288.676C280.988 288.803 281.013 288.939 281.01 289.075C281.007 289.211 280.976 289.346 280.919 289.47C280.862 289.594 280.78 289.705 280.678 289.796C280.577 289.887 280.458 289.957 280.329 290C266.689 295.53 266.049 315.32 266.049 315.52C266.036 315.776 265.925 316.018 265.739 316.195C265.552 316.372 265.305 316.47 265.049 316.47Z" fill="black"/>
<path d="M241.589 294.01C241.363 294.018 241.141 293.949 240.96 293.814C240.778 293.68 240.647 293.488 240.589 293.27C233.299 265.58 228.339 262.02 226.989 261.59C226.845 261.55 226.697 261.527 226.549 261.52C226.448 261.604 226.331 261.667 226.205 261.706C226.08 261.745 225.948 261.759 225.817 261.747C225.686 261.735 225.559 261.697 225.442 261.636C225.326 261.575 225.223 261.491 225.138 261.39C225.054 261.289 224.991 261.172 224.952 261.047C224.913 260.921 224.899 260.789 224.911 260.658C224.924 260.527 224.961 260.4 225.023 260.283C225.084 260.167 225.168 260.064 225.269 259.98C225.603 259.743 225.99 259.592 226.397 259.542C226.804 259.491 227.216 259.542 227.598 259.69C232.038 261.11 237.199 272.54 242.519 292.76C242.586 293.016 242.549 293.288 242.416 293.517C242.283 293.745 242.064 293.912 241.809 293.98C241.737 293.998 241.663 294.008 241.589 294.01Z" fill="black"/>
<path d="M249.408 290.07C249.172 290.074 248.941 289.994 248.758 289.843C248.575 289.693 248.451 289.483 248.408 289.25C243.648 262.57 236.008 253.64 235.938 253.56C235.778 253.36 235.701 253.107 235.722 252.851C235.743 252.596 235.861 252.359 236.053 252.188C236.244 252.017 236.493 251.927 236.749 251.935C237.005 251.942 237.248 252.048 237.428 252.23C237.758 252.6 245.498 261.55 250.428 288.89C250.452 289.019 250.449 289.152 250.421 289.28C250.392 289.409 250.339 289.53 250.264 289.638C250.189 289.746 250.093 289.837 249.982 289.908C249.871 289.979 249.748 290.027 249.618 290.05C249.551 290.072 249.479 290.078 249.408 290.07Z" fill="black"/>
<path d="M259.218 284.2C259.013 284.2 258.812 284.136 258.644 284.018C258.476 283.9 258.348 283.733 258.278 283.54L252.278 266.49C252.235 266.366 252.217 266.234 252.224 266.103C252.231 265.972 252.265 265.843 252.322 265.725C252.379 265.607 252.459 265.501 252.557 265.413C252.655 265.326 252.769 265.258 252.893 265.215C253.018 265.172 253.149 265.153 253.28 265.161C253.411 265.168 253.54 265.201 253.658 265.258C253.777 265.316 253.883 265.395 253.97 265.493C254.058 265.591 254.125 265.706 254.168 265.83L260.168 282.83C260.213 282.954 260.232 283.086 260.225 283.217C260.219 283.349 260.186 283.478 260.13 283.597C260.073 283.716 259.993 283.822 259.895 283.91C259.797 283.998 259.683 284.066 259.558 284.11C259.451 284.16 259.336 284.19 259.218 284.2Z" fill="black"/>
<path d="M281.668 236.3C281.436 236.305 281.209 236.229 281.026 236.085C280.844 235.941 280.717 235.737 280.668 235.51L277.739 221.82C277.711 221.689 277.71 221.553 277.734 221.421C277.759 221.289 277.809 221.164 277.883 221.051C277.956 220.939 278.051 220.842 278.162 220.767C278.273 220.691 278.397 220.638 278.529 220.61C278.66 220.582 278.795 220.581 278.927 220.606C279.059 220.63 279.185 220.681 279.297 220.754C279.41 220.828 279.506 220.922 279.582 221.033C279.658 221.144 279.711 221.269 279.739 221.4L282.668 235.09C282.722 235.349 282.671 235.618 282.527 235.839C282.382 236.06 282.157 236.215 281.898 236.27C281.824 236.292 281.746 236.302 281.668 236.3Z" fill="black"/>
<path d="M294.378 241.19C294.143 241.188 293.917 241.103 293.738 240.95C293.537 240.781 293.41 240.539 293.386 240.277C293.362 240.015 293.441 239.754 293.608 239.55L303.388 227.81C303.472 227.709 303.576 227.625 303.692 227.564C303.808 227.503 303.936 227.465 304.067 227.453C304.197 227.441 304.329 227.455 304.455 227.494C304.581 227.533 304.697 227.596 304.798 227.68C304.9 227.764 304.983 227.867 305.044 227.984C305.106 228.1 305.143 228.227 305.155 228.358C305.167 228.489 305.154 228.621 305.115 228.747C305.076 228.872 305.012 228.989 304.928 229.09L295.148 240.83C295.054 240.943 294.937 241.034 294.804 241.096C294.671 241.158 294.525 241.19 294.378 241.19Z" fill="black"/>
<path d="M469.888 212.42C469.888 212.42 445.889 202.82 454.289 183.61C462.689 164.4 483.099 174.01 491.499 182.41C491.499 182.41 507.109 160.8 526.319 170.41C545.529 180.02 539.529 196.83 539.529 196.83C539.529 196.83 571.939 183.62 581.529 201.63C591.119 219.64 581.529 234.04 581.529 234.04C581.529 234.04 601.948 299.99 499.888 286.87C415.868 276.01 469.888 212.42 469.888 212.42Z" fill="#201000"/>
<path d="M512.888 341.38L512.478 310.28C512.478 310.28 529.728 295.91 529.728 282.97C529.728 282.97 564.239 285.84 568.549 264.28C572.859 242.72 555.608 231.21 542.668 238.4L529.728 245.59C529.728 245.59 505.288 242.71 506.728 216.84C506.728 216.84 466.478 190.96 450.658 226.9C434.838 262.84 429.098 294.47 437.718 305.97C446.338 317.47 465.039 318.91 465.039 318.91L464.988 344.31C464.988 344.31 482.588 367.77 512.888 341.38Z" fill="white"/>
<path d="M485.358 354.92C484.386 354.92 483.415 354.87 482.448 354.77C475.312 353.981 468.763 350.444 464.188 344.91C464.059 344.737 463.988 344.527 463.988 344.31L464.038 319.81C460.038 319.36 444.708 316.95 436.918 306.57C428.208 294.96 433.128 264.27 449.748 226.5C454.008 216.82 460.408 210.63 468.748 208.11C486.398 202.79 506.388 215.45 507.228 215.99C507.378 216.086 507.5 216.22 507.58 216.378C507.661 216.536 507.699 216.713 507.688 216.89C506.388 240.24 526.598 244.12 529.498 244.55L542.148 237.55C545.141 235.876 548.555 235.105 551.976 235.33C555.398 235.555 558.681 236.768 561.428 238.82C568.638 244.08 571.648 253.68 569.488 264.49C565.428 284.78 536.648 284.37 530.658 284.05C529.858 296.05 515.968 308.59 513.448 310.76L513.848 341.38C513.851 341.526 513.822 341.67 513.763 341.803C513.705 341.936 513.618 342.054 513.508 342.15C503.788 350.63 494.328 354.92 485.358 354.92ZM465.988 343.92C470.267 348.837 476.225 351.982 482.698 352.74C491.818 353.74 501.638 349.74 511.888 340.89L511.478 310.26C511.475 310.11 511.506 309.961 511.568 309.824C511.631 309.687 511.723 309.566 511.839 309.47C512.009 309.33 528.728 295.25 528.728 282.93C528.729 282.79 528.758 282.653 528.815 282.525C528.872 282.398 528.955 282.284 529.058 282.19C529.16 282.096 529.28 282.025 529.411 281.981C529.542 281.936 529.681 281.918 529.819 281.93C530.149 281.93 563.479 284.48 567.569 264.04C569.569 254.04 566.858 245.16 560.298 240.37C557.856 238.547 554.938 237.47 551.897 237.267C548.856 237.065 545.821 237.747 543.158 239.23L530.218 246.42C530.036 246.522 529.826 246.564 529.618 246.54C529.368 246.54 504.618 243.3 505.698 217.34C502.548 215.45 484.698 205.34 469.358 209.99C461.568 212.33 455.589 218.15 451.579 227.26C435.489 263.82 430.368 294.46 438.518 305.33C446.668 316.2 464.928 317.86 465.118 317.87C465.369 317.89 465.604 318.004 465.774 318.19C465.945 318.375 466.039 318.618 466.038 318.87L465.988 343.92Z" fill="black"/>
<path d="M460.728 279.67C460.533 279.671 460.342 279.616 460.178 279.51C455.568 276.51 453.108 272.74 452.868 268.32C452.278 257.49 465.288 246.72 465.868 246.32C465.97 246.236 466.087 246.174 466.213 246.135C466.339 246.097 466.471 246.084 466.602 246.097C466.733 246.11 466.861 246.149 466.977 246.211C467.093 246.273 467.195 246.358 467.279 246.46C467.444 246.665 467.522 246.927 467.496 247.189C467.47 247.451 467.341 247.692 467.138 247.86C467.008 247.97 454.358 258.45 454.898 268.27C455.098 272.01 457.259 275.27 461.299 277.88C461.48 277.997 461.618 278.169 461.693 278.372C461.768 278.574 461.776 278.795 461.716 279.002C461.655 279.209 461.529 279.39 461.356 279.52C461.184 279.649 460.974 279.719 460.758 279.72L460.728 279.67Z" fill="black"/>
<path d="M485.358 295.56C484.777 295.561 484.196 295.527 483.618 295.46C483.488 295.446 483.361 295.407 483.246 295.344C483.13 295.281 483.028 295.197 482.946 295.094C482.863 294.992 482.801 294.875 482.764 294.749C482.727 294.623 482.715 294.491 482.728 294.36C482.742 294.228 482.782 294.101 482.845 293.985C482.909 293.868 482.994 293.766 483.098 293.683C483.201 293.6 483.32 293.539 483.447 293.502C483.574 293.466 483.707 293.455 483.839 293.47C485.223 293.684 486.636 293.61 487.991 293.252C489.345 292.894 490.611 292.26 491.708 291.39C496.368 287.58 497.098 280.08 497.108 280C497.132 279.735 497.261 279.49 497.465 279.319C497.669 279.149 497.933 279.066 498.198 279.09C498.464 279.114 498.708 279.242 498.879 279.446C499.05 279.651 499.132 279.915 499.108 280.18C499.108 280.52 498.288 288.61 492.988 292.93C490.838 294.684 488.133 295.616 485.358 295.56Z" fill="black"/>
<path d="M550.579 263.12C550.313 263.12 550.059 263.015 549.871 262.827C549.684 262.64 549.579 262.385 549.579 262.12C549.579 262.12 549.579 258.9 547.429 257.61C545.759 256.61 543.019 256.95 539.529 258.7C539.411 258.76 539.283 258.797 539.151 258.807C539.02 258.818 538.888 258.802 538.762 258.761C538.637 258.72 538.52 258.655 538.42 258.569C538.32 258.483 538.238 258.378 538.179 258.26C538.119 258.142 538.083 258.013 538.073 257.881C538.063 257.749 538.08 257.617 538.121 257.491C538.163 257.365 538.23 257.249 538.317 257.15C538.404 257.05 538.51 256.968 538.628 256.91C542.848 254.81 546.159 254.47 548.489 255.91C551.549 257.8 551.579 261.91 551.579 262.12C551.579 262.385 551.473 262.64 551.286 262.827C551.098 263.015 550.844 263.12 550.579 263.12Z" fill="black"/>
<path d="M499.358 233.01C499.227 233.011 499.096 232.986 498.975 232.936C498.853 232.886 498.742 232.813 498.648 232.72C496.866 231.112 494.568 230.194 492.168 230.13C491.903 230.13 491.649 230.025 491.461 229.837C491.274 229.65 491.168 229.395 491.168 229.13C491.168 228.865 491.274 228.61 491.461 228.423C491.649 228.235 491.903 228.13 492.168 228.13C495.098 228.183 497.907 229.311 500.059 231.3C500.245 231.487 500.349 231.741 500.349 232.005C500.349 232.269 500.245 232.523 500.059 232.71C499.874 232.898 499.622 233.006 499.358 233.01Z" fill="black"/>
<path d="M465.279 235.29C466.471 235.29 467.438 234.323 467.438 233.13C467.438 231.937 466.471 230.97 465.279 230.97C464.086 230.97 463.118 231.937 463.118 233.13C463.118 234.323 464.086 235.29 465.279 235.29Z" fill="#201000"/>
<path d="M473.138 216.53C473.006 216.529 472.875 216.503 472.753 216.451C472.632 216.4 472.521 216.324 472.429 216.23C472.269 216.07 468.629 212.55 465.069 214.92C464.96 215.002 464.836 215.06 464.703 215.092C464.571 215.125 464.434 215.129 464.3 215.107C464.166 215.084 464.038 215.034 463.924 214.96C463.81 214.886 463.712 214.79 463.636 214.677C463.561 214.564 463.509 214.436 463.484 214.303C463.459 214.169 463.462 214.031 463.492 213.899C463.523 213.766 463.58 213.641 463.66 213.531C463.74 213.422 463.841 213.329 463.959 213.26C467.959 210.62 472.158 213.13 473.848 214.82C473.989 214.96 474.086 215.138 474.125 215.333C474.164 215.528 474.144 215.73 474.068 215.914C473.992 216.097 473.863 216.253 473.697 216.363C473.532 216.473 473.337 216.531 473.138 216.53Z" fill="black"/>
<path d="M533.648 267.73C533.529 267.729 533.411 267.708 533.299 267.67C533.176 267.623 533.063 267.553 532.968 267.463C532.872 267.373 532.795 267.265 532.741 267.145C532.687 267.026 532.658 266.896 532.654 266.765C532.65 266.634 532.672 266.503 532.718 266.38C540.118 246.64 556.448 248.91 556.618 248.94C556.75 248.96 556.876 249.006 556.989 249.076C557.103 249.145 557.202 249.235 557.28 249.343C557.359 249.45 557.415 249.571 557.447 249.701C557.478 249.83 557.484 249.964 557.464 250.095C557.443 250.226 557.397 250.352 557.328 250.466C557.259 250.579 557.168 250.678 557.061 250.757C556.954 250.835 556.832 250.892 556.703 250.923C556.574 250.955 556.44 250.96 556.309 250.94C555.719 250.86 541.409 248.94 534.589 267.12C534.511 267.304 534.379 267.46 534.212 267.569C534.044 267.678 533.848 267.734 533.648 267.73Z" fill="black"/>
<path d="M502.138 243.63H502.009L487.339 241.63C487.073 241.594 486.833 241.455 486.671 241.242C486.509 241.029 486.438 240.76 486.473 240.495C486.509 240.23 486.649 239.99 486.862 239.827C487.075 239.665 487.343 239.594 487.608 239.63L502.269 241.63C502.534 241.647 502.781 241.769 502.957 241.969C503.132 242.169 503.221 242.43 503.204 242.695C503.186 242.96 503.065 243.208 502.865 243.383C502.665 243.558 502.404 243.647 502.138 243.63Z" fill="black"/>
<path d="M387.519 485.01C387.367 485.011 387.216 484.977 387.08 484.911C386.943 484.845 386.823 484.749 386.729 484.63L341.219 426.86C341.054 426.652 340.979 426.387 341.01 426.123C341.041 425.86 341.175 425.62 341.384 425.455C341.592 425.291 341.857 425.216 342.12 425.247C342.384 425.278 342.624 425.412 342.789 425.62L388.299 483.34C388.381 483.443 388.442 483.561 388.479 483.688C388.516 483.814 388.527 483.947 388.512 484.078C388.497 484.209 388.456 484.336 388.392 484.451C388.328 484.567 388.242 484.668 388.138 484.75C387.966 484.902 387.748 484.994 387.519 485.01Z" fill="black"/>
<path d="M378.579 498.27C378.436 498.269 378.295 498.237 378.166 498.176C378.036 498.116 377.921 498.029 377.829 497.92L331.079 443.53C330.993 443.43 330.928 443.315 330.888 443.19C330.847 443.065 330.831 442.933 330.842 442.802C330.852 442.671 330.888 442.544 330.947 442.427C331.007 442.31 331.089 442.206 331.189 442.12C331.288 442.035 331.404 441.97 331.529 441.929C331.654 441.889 331.785 441.873 331.916 441.883C332.047 441.893 332.175 441.929 332.292 441.989C332.409 442.048 332.513 442.13 332.598 442.23L379.339 496.62C379.463 496.765 379.543 496.943 379.569 497.133C379.595 497.322 379.567 497.515 379.487 497.689C379.407 497.862 379.279 498.009 379.118 498.112C378.957 498.215 378.77 498.27 378.579 498.27Z" fill="black"/>
<path d="M566.219 440.63C565.953 440.651 565.691 440.566 565.488 440.394C565.286 440.221 565.16 439.975 565.138 439.71C565.117 439.445 565.202 439.182 565.375 438.98C565.547 438.777 565.793 438.651 566.059 438.63L615.868 430.47C616.134 430.428 616.405 430.492 616.623 430.65C616.84 430.807 616.986 431.045 617.029 431.31C617.071 431.575 617.006 431.846 616.849 432.064C616.691 432.282 616.454 432.428 616.188 432.47L566.378 440.62L566.219 440.63Z" fill="black"/>
<path d="M567.978 456.1C567.713 456.124 567.449 456.041 567.245 455.871C567.041 455.7 566.912 455.455 566.888 455.19C566.864 454.925 566.947 454.661 567.118 454.457C567.288 454.252 567.533 454.124 567.798 454.1L615.798 445.38C616.064 445.332 616.337 445.392 616.558 445.546C616.78 445.699 616.931 445.935 616.978 446.2C617.026 446.465 616.967 446.738 616.813 446.96C616.659 447.181 616.424 447.332 616.158 447.38L568.158 456.11L567.978 456.1Z" fill="black"/>
<path d="M468.388 382.09H468.339C468.174 382.082 468.013 382.033 467.872 381.947C467.73 381.862 467.612 381.742 467.528 381.6L446.658 346.21C446.523 345.982 446.484 345.71 446.55 345.453C446.615 345.196 446.78 344.975 447.008 344.84C447.237 344.705 447.509 344.666 447.766 344.731C448.023 344.797 448.243 344.962 448.378 345.19L468.468 379.27L486.668 354.19C486.752 354.074 486.86 353.978 486.984 353.907C487.108 353.836 487.246 353.793 487.388 353.78C487.53 353.767 487.673 353.784 487.807 353.831C487.942 353.877 488.065 353.952 488.168 354.05L509.918 375.01L530.138 341.59C530.284 341.39 530.499 341.251 530.741 341.2C530.983 341.149 531.236 341.189 531.45 341.314C531.664 341.438 531.824 341.638 531.9 341.873C531.975 342.109 531.96 342.365 531.858 342.59L510.978 377.07C510.9 377.197 510.795 377.304 510.67 377.385C510.545 377.466 510.404 377.518 510.256 377.537C510.108 377.556 509.958 377.542 509.817 377.496C509.676 377.45 509.546 377.373 509.438 377.27L487.608 356.27L469.218 381.68C469.123 381.81 468.998 381.915 468.854 381.987C468.709 382.058 468.549 382.094 468.388 382.09Z" fill="black"/>
<path d="M477.499 368.52L489.708 385.17L499.358 366.19L487.898 355.23L477.499 368.52Z" fill="#FCE054"/>
<path d="M487.898 374.28L463.398 455.95L483.358 555.77L506.049 455.95L487.898 374.28Z" fill="#FCE054"/>
<path d="M375.559 378.1H146.559V174.47H375.559V378.1ZM150.559 374.1H371.559V178.47H150.559V374.1Z" fill="#CB93EE"/>
<path d="M149.388 178.27L147.648 174.67L264.698 117.97L265.589 118.43L374.479 174.69L372.638 178.24L264.638 122.44L149.388 178.27Z" fill="#CB93EE"/>
<path d="M264.668 125.64C267.673 125.64 270.108 123.204 270.108 120.2C270.108 117.196 267.673 114.76 264.668 114.76C261.664 114.76 259.229 117.196 259.229 120.2C259.229 123.204 261.664 125.64 264.668 125.64Z" fill="#201000"/>
<path d="M558.739 311.97L553.708 313.65L557.059 316.44" fill="#201000"/>
<path d="M590.019 328.73C590.019 328.73 580.519 325.38 577.729 320.35C574.939 315.32 573.258 308.62 565.438 308.06C557.618 307.5 555.938 317.56 555.938 320.35C555.938 323.14 555.389 332.64 564.319 337.11C573.249 341.58 583.319 337.67 590.019 328.73Z" fill="#FCE054"/>
<path d="M578.878 334.36C578.878 334.36 561.069 333 565.719 324.02C569.709 316.32 580.808 325.63 578.878 334.36Z" fill="#201000"/>
<path d="M562.928 311.98C563.392 311.98 563.769 311.604 563.769 311.14C563.769 310.676 563.392 310.3 562.928 310.3C562.465 310.3 562.089 310.676 562.089 311.14C562.089 311.604 562.465 311.98 562.928 311.98Z" fill="black"/>
</svg>
