<svg width="700" height="700" viewBox="0 0 700 700" fill="none" xmlns="http://www.w3.org/2000/svg">
<rect width="700" height="700" fill="white"/>
<path d="M428.066 412.877C437.952 412.877 445.966 404.863 445.966 394.977C445.966 385.091 437.952 377.077 428.066 377.077C418.18 377.077 410.166 385.091 410.166 394.977C410.166 404.863 418.18 412.877 428.066 412.877Z" fill="#FCE054"/>
<path d="M428.066 404.427C427.934 404.427 427.806 404.375 427.713 404.281C427.619 404.187 427.566 404.06 427.566 403.927V387.147C427.566 387.015 427.619 386.887 427.713 386.794C427.806 386.7 427.934 386.647 428.066 386.647C428.199 386.647 428.326 386.7 428.42 386.794C428.513 386.887 428.566 387.015 428.566 387.147V403.937C428.564 404.068 428.51 404.193 428.416 404.284C428.323 404.376 428.197 404.427 428.066 404.427Z" fill="white"/>
<path d="M428.066 410.577C420.066 410.577 413.586 403.827 413.586 395.577C413.586 387.327 420.076 380.577 428.066 380.577C436.056 380.577 442.546 387.327 442.546 395.577C442.546 403.827 436.046 410.577 428.066 410.577ZM428.066 381.487C420.626 381.487 414.586 387.787 414.586 395.487C414.586 403.187 420.586 409.487 428.066 409.487C435.546 409.487 441.546 403.187 441.546 395.487C441.546 387.787 435.496 381.487 428.066 381.487Z" fill="white"/>
<path d="M378.846 325.627C385.026 325.627 390.036 320.617 390.036 314.437C390.036 308.257 385.026 303.247 378.846 303.247C372.666 303.247 367.656 308.257 367.656 314.437C367.656 320.617 372.666 325.627 378.846 325.627Z" fill="#FCE054"/>
<path d="M378.846 320.527C378.714 320.527 378.586 320.475 378.493 320.381C378.399 320.287 378.346 320.16 378.346 320.027V309.537C378.346 309.405 378.399 309.277 378.493 309.184C378.586 309.09 378.714 309.037 378.846 309.037C378.979 309.037 379.106 309.09 379.2 309.184C379.293 309.277 379.346 309.405 379.346 309.537V320.027C379.346 320.16 379.293 320.287 379.2 320.381C379.106 320.475 378.979 320.527 378.846 320.527Z" fill="white"/>
<path d="M378.846 324.367C376.936 324.437 375.048 323.934 373.425 322.923C371.803 321.912 370.519 320.44 369.74 318.694C368.96 316.948 368.72 315.009 369.051 313.126C369.381 311.243 370.267 309.502 371.594 308.126C372.921 306.75 374.629 305.802 376.499 305.404C378.369 305.006 380.315 305.175 382.088 305.891C383.86 306.607 385.379 307.837 386.447 309.422C387.516 311.007 388.087 312.875 388.086 314.787C388.129 317.282 387.18 319.692 385.448 321.489C383.715 323.285 381.341 324.32 378.846 324.367ZM378.846 306.197C377.134 306.127 375.44 306.571 373.982 307.472C372.525 308.372 371.369 309.688 370.665 311.25C369.961 312.812 369.74 314.549 370.031 316.238C370.322 317.927 371.111 319.49 372.297 320.727C373.483 321.963 375.012 322.817 376.687 323.177C378.363 323.538 380.107 323.39 381.697 322.751C383.288 322.113 384.65 321.013 385.611 319.594C386.571 318.175 387.085 316.501 387.086 314.787C387.129 312.556 386.286 310.4 384.741 308.789C383.197 307.179 381.077 306.247 378.846 306.197Z" fill="white"/>
<path d="M517.556 337.917C529.911 337.917 539.926 327.902 539.926 315.547C539.926 303.193 529.911 293.177 517.556 293.177C505.202 293.177 495.186 303.193 495.186 315.547C495.186 327.902 505.202 337.917 517.556 337.917Z" fill="#FCE054"/>
<path d="M517.556 327.237C517.424 327.237 517.296 327.185 517.203 327.091C517.109 326.997 517.056 326.87 517.056 326.737V305.737C517.056 305.605 517.109 305.477 517.203 305.384C517.296 305.29 517.424 305.237 517.556 305.237C517.689 305.237 517.816 305.29 517.91 305.384C518.004 305.477 518.056 305.605 518.056 305.737V326.737C518.056 326.87 518.004 326.997 517.91 327.091C517.816 327.185 517.689 327.237 517.556 327.237Z" fill="white"/>
<path d="M517.556 334.937C507.646 334.937 499.556 326.557 499.556 316.257C499.556 305.957 507.626 297.587 517.556 297.587C527.486 297.587 535.556 305.967 535.556 316.257C535.556 326.547 527.466 334.937 517.556 334.937ZM517.556 298.587C508.196 298.587 500.556 306.517 500.556 316.257C500.556 325.997 508.176 333.937 517.556 333.937C526.936 333.937 534.556 326.007 534.556 316.257C534.556 306.507 526.916 298.577 517.556 298.577V298.587Z" fill="white"/>
<path d="M423.586 271.927C434.091 271.927 442.606 263.412 442.606 252.907C442.606 242.403 434.091 233.887 423.586 233.887C413.082 233.887 404.566 242.403 404.566 252.907C404.566 263.412 413.082 271.927 423.586 271.927Z" fill="#FCE054"/>
<path d="M420.226 262.297H420.046C419.984 262.275 419.928 262.241 419.88 262.196C419.832 262.152 419.793 262.098 419.766 262.039C419.739 261.979 419.724 261.914 419.722 261.849C419.721 261.783 419.732 261.718 419.756 261.657L426.066 244.977C426.088 244.916 426.123 244.859 426.167 244.811C426.212 244.763 426.265 244.724 426.325 244.697C426.385 244.67 426.449 244.655 426.515 244.654C426.58 244.652 426.645 244.663 426.706 244.687C426.83 244.737 426.93 244.831 426.986 244.952C427.042 245.073 427.049 245.211 427.006 245.337L420.696 262.007C420.654 262.096 420.587 262.17 420.504 262.221C420.42 262.273 420.324 262.299 420.226 262.297Z" fill="white"/>
<path d="M422.976 269.347C421.184 269.334 419.408 268.995 417.736 268.347C409.816 265.347 405.906 256.217 409.016 247.987C412.126 239.757 421.106 235.507 429.016 238.507C436.926 241.507 440.846 250.627 437.736 258.857C436.624 261.892 434.618 264.519 431.983 266.391C429.348 268.264 426.208 269.294 422.976 269.347ZM423.786 238.587C420.762 238.636 417.822 239.598 415.354 241.346C412.886 243.095 411.005 245.55 409.956 248.387C407.036 256.097 410.686 264.647 418.086 267.447C425.486 270.247 433.896 266.257 436.806 258.547C439.716 250.837 436.076 242.287 428.666 239.477C427.106 238.89 425.453 238.588 423.786 238.587Z" fill="white"/>
<path d="M429.486 354.127C437.605 354.127 444.186 347.546 444.186 339.427C444.186 331.309 437.605 324.727 429.486 324.727C421.368 324.727 414.786 331.309 414.786 339.427C414.786 347.546 421.368 354.127 429.486 354.127Z" fill="#FCE054"/>
<path d="M426.886 346.807C426.827 346.821 426.765 346.821 426.706 346.807C426.583 346.76 426.484 346.666 426.43 346.547C426.376 346.427 426.371 346.291 426.416 346.167L431.296 333.277C431.313 333.209 431.345 333.145 431.389 333.09C431.432 333.035 431.487 332.989 431.549 332.957C431.612 332.924 431.68 332.905 431.75 332.901C431.821 332.896 431.891 332.907 431.957 332.932C432.023 332.957 432.083 332.995 432.133 333.045C432.183 333.094 432.222 333.154 432.247 333.219C432.273 333.285 432.284 333.355 432.28 333.425C432.277 333.496 432.258 333.564 432.226 333.627L427.356 346.517C427.313 346.605 427.246 346.679 427.163 346.73C427.08 346.781 426.984 346.808 426.886 346.807Z" fill="white"/>
<path d="M429.036 352.247C426.737 352.247 424.489 351.565 422.576 350.289C420.663 349.013 419.17 347.2 418.286 345.077C416.996 342.067 416.935 338.672 418.116 335.617C419.21 332.57 421.467 330.08 424.393 328.693C427.319 327.307 430.675 327.135 433.726 328.217C435.212 328.779 436.567 329.639 437.708 330.742C438.85 331.846 439.755 333.172 440.366 334.637C441.646 337.649 441.707 341.041 440.536 344.097C439.397 347.173 437.105 349.684 434.146 351.097C432.548 351.852 430.803 352.245 429.036 352.247ZM429.636 328.467C427.321 328.5 425.07 329.234 423.181 330.573C421.292 331.912 419.853 333.793 419.056 335.967C417.97 338.782 418.02 341.909 419.196 344.687C419.758 346.027 420.586 347.239 421.631 348.248C422.677 349.257 423.916 350.042 425.275 350.556C426.634 351.069 428.083 351.301 429.535 351.236C430.986 351.171 432.409 350.811 433.716 350.177C436.437 348.879 438.545 346.573 439.596 343.747C440.683 340.932 440.63 337.804 439.446 335.027C438.888 333.687 438.062 332.474 437.018 331.465C435.974 330.456 434.735 329.67 433.376 329.157C432.182 328.7 430.915 328.466 429.636 328.467Z" fill="white"/>
<path d="M583.376 220.697C599.144 220.697 611.926 207.915 611.926 192.147C611.926 176.379 599.144 163.597 583.376 163.597C567.608 163.597 554.826 176.379 554.826 192.147C554.826 207.915 567.608 220.697 583.376 220.697Z" fill="#FCE054"/>
<path d="M586.236 206.627C586.121 206.627 586.009 206.587 585.92 206.515C585.831 206.442 585.769 206.34 585.746 206.227L580.387 180.007C580.372 179.943 580.37 179.876 580.382 179.811C580.394 179.746 580.419 179.684 580.455 179.629C580.492 179.574 580.539 179.527 580.594 179.49C580.649 179.454 580.711 179.429 580.776 179.417C580.906 179.393 581.04 179.421 581.15 179.493C581.26 179.566 581.338 179.679 581.366 179.807L586.726 206.027C586.742 206.091 586.745 206.157 586.735 206.222C586.724 206.287 586.7 206.349 586.664 206.405C586.629 206.46 586.582 206.508 586.528 206.544C586.473 206.581 586.411 206.606 586.346 206.617L586.236 206.627Z" fill="white"/>
<path d="M583.896 216.687C573.206 216.687 563.526 208.857 561.216 197.597C559.929 191.492 561.069 185.126 564.396 179.847C565.99 177.282 568.09 175.069 570.568 173.342C573.046 171.616 575.85 170.414 578.809 169.808C581.767 169.203 584.818 169.207 587.775 169.821C590.732 170.434 593.533 171.644 596.006 173.377C601.136 176.925 604.683 182.33 605.896 188.447C607.184 194.552 606.043 200.919 602.716 206.197C600.728 209.4 597.958 212.044 594.665 213.88C591.372 215.715 587.666 216.681 583.896 216.687ZM583.256 170.347C579.655 170.356 576.115 171.277 572.967 173.026C569.819 174.775 567.166 177.294 565.256 180.347C562.087 185.409 561.011 191.506 562.256 197.347C564.766 209.607 576.396 217.617 588.166 215.207C590.993 214.625 593.671 213.474 596.039 211.824C598.406 210.173 600.413 208.058 601.936 205.607C605.106 200.545 606.181 194.448 604.936 188.607C603.775 182.741 600.375 177.558 595.456 174.157C591.872 171.676 587.616 170.347 583.256 170.347Z" fill="white"/>
<path d="M517.146 101.437H331.146V227.437H517.146V101.437Z" fill="#EC87BF"/>
<path d="M360.146 146.437L383.146 201.437H459.146L481.146 146.437H360.146Z" fill="white"/>
<path d="M381.037 141.523L377.268 142.861L399.272 204.862L403.042 203.524L381.037 141.523Z" fill="#EC87BF"/>
<path d="M452.302 140.072L437.301 207.073L441.204 207.947L456.205 140.946L452.302 140.072Z" fill="#EC87BF"/>
<path d="M423.147 142.361L419.149 142.486L421.149 206.484L425.147 206.359L423.147 142.361Z" fill="#EC87BF"/>
<path d="M481.18 171.251L368.178 173.243L368.248 177.243L481.251 175.251L481.18 171.251Z" fill="#EC87BF"/>
<path d="M394.956 151.487L389.336 149.387L399.066 123.437H439.306L447.996 149.487L442.296 151.387L434.986 129.437H403.226L394.956 151.487Z" fill="white"/>
<path d="M497.296 126.257C502.162 126.257 506.106 122.313 506.106 117.447C506.106 112.582 502.162 108.637 497.296 108.637C492.431 108.637 488.486 112.582 488.486 117.447C488.486 122.313 492.431 126.257 497.296 126.257Z" fill="#FCE054"/>
<path d="M497.386 122.357C497.256 122.355 497.132 122.303 497.039 122.212C496.946 122.12 496.891 121.997 496.886 121.867L496.716 113.607C496.715 113.542 496.727 113.476 496.751 113.415C496.774 113.354 496.81 113.298 496.856 113.251C496.901 113.203 496.956 113.165 497.016 113.139C497.076 113.113 497.141 113.099 497.206 113.097C497.337 113.1 497.461 113.152 497.554 113.243C497.647 113.334 497.701 113.457 497.706 113.587L497.876 121.847C497.878 121.913 497.866 121.978 497.842 122.039C497.818 122.101 497.782 122.156 497.737 122.204C497.691 122.251 497.637 122.289 497.577 122.315C497.517 122.342 497.452 122.356 497.386 122.357Z" fill="white"/>
<path d="M497.306 125.387C495.321 125.339 493.432 124.522 492.038 123.109C490.643 121.695 489.852 119.795 489.831 117.81C489.811 115.824 490.562 113.908 491.926 112.465C493.291 111.023 495.162 110.167 497.146 110.077C498.124 110.054 499.097 110.232 500.003 110.6C500.91 110.968 501.731 111.518 502.416 112.217C503.838 113.643 504.652 115.564 504.686 117.577C504.759 119.568 504.04 121.507 502.687 122.968C501.334 124.43 499.457 125.296 497.466 125.377L497.306 125.387ZM497.306 111.067H497.146C495.425 111.15 493.802 111.896 492.62 113.15C491.437 114.403 490.787 116.066 490.805 117.79C490.823 119.513 491.508 121.162 492.717 122.39C493.926 123.619 495.563 124.331 497.286 124.377H497.416C499.143 124.304 500.771 123.55 501.942 122.279C503.114 121.008 503.734 119.324 503.666 117.597C503.631 115.837 502.914 114.159 501.666 112.917C500.511 111.748 498.94 111.083 497.296 111.067H497.306Z" fill="white"/>
<path d="M511.146 130.437H483.146V134.437H511.146V130.437Z" fill="#FCE054"/>
<path d="M511.146 137.437H483.146V141.437H511.146V137.437Z" fill="#FCE054"/>
<path d="M352.146 132.437H225.146V175.437H352.146V132.437Z" fill="#FCE054"/>
<path d="M338.146 145.437H239.146C238.881 145.437 238.627 145.332 238.439 145.144C238.252 144.957 238.146 144.702 238.146 144.437C238.146 144.172 238.252 143.918 238.439 143.73C238.627 143.543 238.881 143.437 239.146 143.437H338.146C338.411 143.437 338.666 143.543 338.853 143.73C339.041 143.918 339.146 144.172 339.146 144.437C339.146 144.702 339.041 144.957 338.853 145.144C338.666 145.332 338.411 145.437 338.146 145.437Z" fill="black"/>
<path d="M298.146 161.437H239.146C238.881 161.437 238.627 161.332 238.439 161.144C238.252 160.957 238.146 160.702 238.146 160.437C238.146 160.172 238.252 159.918 238.439 159.73C238.627 159.543 238.881 159.437 239.146 159.437H298.146C298.411 159.437 298.666 159.543 298.853 159.73C299.041 159.918 299.146 160.172 299.146 160.437C299.146 160.702 299.041 160.957 298.853 161.144C298.666 161.332 298.411 161.437 298.146 161.437Z" fill="black"/>
<path d="M341.376 638.157C341.111 638.157 340.857 638.052 340.669 637.864C340.482 637.677 340.376 637.422 340.376 637.157L340.926 559.417C340.926 559.152 341.032 558.898 341.219 558.71C341.407 558.523 341.661 558.417 341.926 558.417C342.191 558.417 342.446 558.523 342.633 558.71C342.821 558.898 342.926 559.152 342.926 559.417L342.536 614.417C346.776 614.697 376.136 616.087 392.056 601.547C398.956 595.237 402.456 586.717 402.456 576.217C402.456 532.137 360.556 425.467 346.646 399.957C334.216 377.157 284.376 373.957 267.646 375.307C267.381 375.33 267.118 375.246 266.914 375.074C266.711 374.903 266.584 374.657 266.561 374.392C266.539 374.127 266.622 373.864 266.794 373.66C266.965 373.457 267.211 373.33 267.476 373.307C280.186 372.247 334.476 373.487 348.476 398.987C362.476 424.487 404.476 531.827 404.476 576.207C404.476 587.297 400.756 596.317 393.416 603.017C377.236 617.787 348.856 616.817 342.926 616.437L342.396 637.207C342.383 637.467 342.27 637.712 342.079 637.889C341.889 638.067 341.636 638.163 341.376 638.157Z" fill="black"/>
<path d="M411.216 556.617H325.086L357.656 403.367H443.796L411.216 556.617Z" fill="#EC87BF"/>
<path d="M350.876 523.617C368.776 522.497 387.236 521.937 386.116 514.107C384.996 506.277 355.916 508.517 355.916 508.517C355.916 508.517 391.706 501.807 389.476 496.207C387.246 490.607 377.166 491.737 377.166 491.737C377.166 491.737 395.066 486.137 389.476 481.667C383.886 477.197 349.206 476.077 349.206 476.077C349.206 476.077 379.406 461.537 378.286 455.937C377.166 450.337 367.096 453.697 351.436 459.297C335.776 464.897 306.696 471.597 306.696 479.427V505.157L258.786 521.937C258.146 541.397 259.896 574.937 288.146 591.397C316.516 573.047 342.546 552.097 341.926 545.947C340.816 534.807 332.986 524.737 350.876 523.617Z" fill="white"/>
<path d="M205.886 380.087C205.886 380.087 191.356 388.197 206.006 399.907C220.656 411.617 235.796 413.087 239.936 402.837C239.936 402.837 251.396 416.017 267.506 399.907C283.616 383.797 264.796 377.907 264.796 377.907" fill="white"/>
<path d="M228.646 410.697C221.826 410.697 213.456 407.147 205.376 400.697C200.476 396.777 198.166 392.777 198.496 388.787C198.986 382.867 205.136 379.367 205.396 379.217C205.511 379.154 205.637 379.113 205.768 379.098C205.899 379.083 206.031 379.094 206.157 379.13C206.283 379.167 206.401 379.227 206.504 379.309C206.607 379.391 206.693 379.492 206.756 379.607C206.886 379.838 206.919 380.111 206.847 380.366C206.776 380.621 206.607 380.837 206.376 380.967C206.316 380.967 200.886 384.107 200.486 388.967C200.216 392.247 202.286 395.677 206.626 399.147C215.846 406.517 225.706 410.017 232.376 408.267C233.87 407.92 235.256 407.211 236.412 406.203C237.568 405.196 238.459 403.92 239.006 402.487C239.069 402.327 239.172 402.186 239.305 402.078C239.438 401.969 239.597 401.897 239.766 401.867C239.935 401.839 240.108 401.854 240.269 401.912C240.43 401.97 240.574 402.068 240.686 402.197C243.431 405.031 247.147 406.72 251.086 406.927C256.226 407.097 261.516 404.507 266.796 399.217C271.686 394.337 273.706 390.017 272.796 386.387C271.516 381.187 264.546 378.947 264.476 378.927C264.223 378.849 264.011 378.673 263.887 378.439C263.764 378.204 263.738 377.931 263.816 377.677C263.855 377.551 263.918 377.433 264.003 377.331C264.087 377.23 264.191 377.145 264.308 377.084C264.425 377.023 264.554 376.985 264.685 376.974C264.817 376.962 264.95 376.977 265.076 377.017C265.406 377.117 273.186 379.607 274.736 385.897C275.816 390.257 273.606 395.217 268.186 400.637C262.486 406.337 256.676 409.117 250.966 408.927C246.989 408.74 243.196 407.198 240.216 404.557C239.455 405.963 238.406 407.193 237.138 408.166C235.87 409.14 234.411 409.835 232.856 410.207C231.479 410.546 230.064 410.71 228.646 410.697Z" fill="black"/>
<path d="M185.886 245.027C185.886 245.027 241.996 176.647 270.056 195.927C298.116 215.207 277.056 250.287 277.056 250.287L206.926 351.987C206.926 351.987 211.126 368.247 175.246 386.727C126.916 411.627 80.0662 375.017 80.0662 348.657C80.0662 322.297 111.746 313.727 101.716 297.657C85.7263 271.937 102.036 227.127 185.886 245.027Z" fill="#201000"/>
<path d="M206.936 381.797V351.987C206.936 351.987 185.886 334.457 185.886 318.677C185.886 318.677 143.806 322.177 138.546 295.877C133.286 269.577 154.326 255.547 170.106 264.317L185.886 273.087C185.886 273.087 215.696 269.577 213.946 238.017C213.946 238.017 263.046 206.457 282.326 250.287C301.606 294.117 308.626 332.697 298.106 346.727C287.586 360.757 264.796 362.507 264.796 362.507V381.797C264.796 381.797 245.506 429.137 206.936 381.797Z" fill="white"/>
<path d="M239.056 403.837C228.796 403.837 217.746 396.657 206.156 382.427C206.013 382.249 205.935 382.026 205.936 381.797V352.447C203.096 350.017 185.726 334.527 184.936 319.727C178.306 320.037 142.486 320.557 137.586 296.077C134.966 282.967 138.586 271.347 147.326 264.977C150.646 262.501 154.611 261.037 158.744 260.764C162.876 260.491 167 261.419 170.616 263.437L186.106 272.047C189.396 271.567 214.576 266.947 212.966 238.047C212.958 237.872 212.996 237.697 213.077 237.54C213.157 237.384 213.278 237.252 213.426 237.157C214.426 236.497 238.746 221.157 260.176 227.567C270.336 230.567 278.096 238.127 283.266 249.867C303.196 295.167 309.346 333.417 298.926 347.307C289.346 360.087 270.286 362.897 265.816 363.397V381.777C265.815 381.908 265.788 382.037 265.736 382.157C265.426 382.937 257.736 401.267 242.286 403.587C241.217 403.747 240.137 403.83 239.056 403.837ZM207.936 381.437C220.176 396.377 231.616 403.167 241.936 401.627C255.556 399.627 262.936 383.457 263.776 381.627V362.547C263.775 362.295 263.87 362.052 264.04 361.867C264.211 361.682 264.445 361.567 264.696 361.547C264.916 361.547 287.166 359.667 297.286 346.167C307.286 332.847 301.046 295.387 281.396 250.727C276.476 239.547 269.126 232.417 259.566 229.537C240.566 223.837 218.496 236.457 214.956 238.597C216.336 270.177 186.296 274.077 185.956 274.117C185.749 274.141 185.539 274.099 185.356 273.997L169.576 265.227C166.293 263.396 162.549 262.555 158.798 262.805C155.046 263.055 151.448 264.386 148.436 266.637C140.366 272.527 137.016 283.397 139.436 295.717C144.436 320.847 185.306 317.717 185.716 317.717C185.854 317.706 185.993 317.723 186.124 317.768C186.254 317.812 186.375 317.884 186.476 317.977C186.578 318.072 186.659 318.186 186.714 318.314C186.769 318.441 186.797 318.578 186.796 318.717C186.796 333.837 207.276 351.087 207.486 351.257C207.599 351.351 207.69 351.469 207.752 351.602C207.814 351.735 207.846 351.88 207.846 352.027L207.936 381.437Z" fill="black"/>
<path d="M270.056 305.647C269.889 305.647 269.724 305.605 269.578 305.524C269.431 305.444 269.307 305.328 269.216 305.187C269.073 304.966 269.022 304.696 269.077 304.437C269.131 304.179 269.286 303.952 269.506 303.807C274.506 300.547 277.176 296.547 277.426 291.897C278.076 279.807 262.566 266.967 262.426 266.897C262.325 266.814 262.24 266.711 262.178 266.595C262.116 266.479 262.077 266.352 262.064 266.221C262.051 266.09 262.064 265.958 262.102 265.832C262.14 265.706 262.203 265.589 262.286 265.487C262.37 265.386 262.472 265.301 262.588 265.239C262.704 265.177 262.831 265.138 262.962 265.125C263.093 265.112 263.225 265.125 263.351 265.163C263.477 265.201 263.595 265.264 263.696 265.347C264.366 265.897 280.146 278.967 279.436 292.057C279.156 297.377 276.186 301.907 270.626 305.537C270.451 305.629 270.253 305.668 270.056 305.647Z" fill="black"/>
<path d="M240.016 333.817C236.685 333.883 233.439 332.763 230.856 330.657C224.466 325.437 223.506 315.657 223.466 315.257C223.442 314.992 223.525 314.728 223.695 314.524C223.866 314.319 224.111 314.191 224.376 314.167C224.641 314.143 224.905 314.226 225.11 314.397C225.314 314.567 225.442 314.812 225.466 315.077C225.466 315.167 226.386 324.437 232.126 329.077C233.489 330.154 235.058 330.94 236.737 331.386C238.416 331.831 240.169 331.927 241.886 331.667C242.017 331.652 242.149 331.663 242.276 331.699C242.402 331.734 242.521 331.795 242.624 331.877C242.727 331.959 242.813 332.06 242.877 332.175C242.941 332.29 242.981 332.417 242.996 332.547C243.011 332.679 243 332.812 242.964 332.939C242.927 333.066 242.866 333.185 242.783 333.288C242.7 333.391 242.598 333.477 242.482 333.541C242.365 333.604 242.238 333.644 242.106 333.657C241.413 333.75 240.715 333.803 240.016 333.817Z" fill="black"/>
<path d="M160.466 294.247C160.201 294.247 159.947 294.142 159.759 293.954C159.571 293.767 159.466 293.513 159.466 293.247C159.466 293.037 159.466 288.097 163.126 285.857C165.896 284.147 169.876 284.557 174.936 287.097C175.174 287.215 175.354 287.423 175.438 287.674C175.523 287.925 175.504 288.2 175.386 288.437C175.266 288.673 175.058 288.851 174.807 288.934C174.556 289.016 174.282 288.996 174.046 288.877C169.646 286.687 166.326 286.237 164.186 287.557C161.516 289.197 161.466 293.207 161.466 293.247C161.466 293.513 161.361 293.767 161.173 293.954C160.986 294.142 160.732 294.247 160.466 294.247Z" fill="black"/>
<path d="M214.536 257.427C214.405 257.428 214.274 257.403 214.152 257.353C214.031 257.303 213.92 257.23 213.826 257.137C213.732 257.044 213.658 256.934 213.607 256.812C213.557 256.69 213.531 256.559 213.531 256.427C213.531 256.295 213.557 256.165 213.607 256.043C213.658 255.921 213.732 255.81 213.826 255.717C216.41 253.332 219.78 251.98 223.296 251.917C223.561 251.917 223.816 252.023 224.003 252.21C224.191 252.398 224.296 252.652 224.296 252.917C224.296 253.182 224.191 253.437 224.003 253.624C223.816 253.812 223.561 253.917 223.296 253.917C220.309 253.984 217.447 255.127 215.236 257.137C215.05 257.322 214.798 257.426 214.536 257.427Z" fill="black"/>
<path d="M225.346 271.327C226.799 271.327 227.976 270.15 227.976 268.697C227.976 267.245 226.799 266.067 225.346 266.067C223.894 266.067 222.716 267.245 222.716 268.697C222.716 270.15 223.894 271.327 225.346 271.327Z" fill="#201000"/>
<path d="M267.426 259.057C268.879 259.057 270.056 257.88 270.056 256.427C270.056 254.975 268.879 253.797 267.426 253.797C265.974 253.797 264.796 254.975 264.796 256.427C264.796 257.88 265.974 259.057 267.426 259.057Z" fill="#201000"/>
<path d="M258.656 241.647C258.458 241.648 258.263 241.59 258.098 241.481C257.932 241.371 257.803 241.214 257.727 241.031C257.651 240.847 257.631 240.645 257.67 240.451C257.709 240.256 257.805 240.077 257.946 239.937C259.946 237.937 265.036 234.937 269.736 238.057C269.958 238.204 270.112 238.434 270.164 238.694C270.217 238.955 270.164 239.226 270.016 239.447C269.869 239.669 269.64 239.823 269.379 239.875C269.118 239.928 268.848 239.874 268.626 239.727C264.116 236.727 259.556 241.157 259.366 241.357C259.273 241.45 259.162 241.523 259.04 241.573C258.918 241.623 258.788 241.648 258.656 241.647Z" fill="black"/>
<path d="M181.146 299.877C180.944 299.876 180.746 299.813 180.58 299.697C180.414 299.581 180.287 299.417 180.216 299.227C171.836 276.877 154.216 279.227 153.476 279.367C153.346 279.387 153.214 279.381 153.086 279.35C152.958 279.318 152.838 279.262 152.732 279.184C152.626 279.106 152.537 279.008 152.469 278.895C152.401 278.782 152.356 278.657 152.336 278.527C152.316 278.397 152.322 278.265 152.354 278.137C152.385 278.009 152.442 277.889 152.52 277.783C152.598 277.677 152.696 277.588 152.809 277.52C152.921 277.452 153.046 277.407 153.176 277.387C153.376 277.387 173.116 274.607 182.086 298.527C182.177 298.775 182.166 299.049 182.055 299.289C181.945 299.529 181.744 299.715 181.496 299.807C181.386 299.855 181.267 299.879 181.146 299.877Z" fill="black"/>
<path d="M184.556 244.747C184.556 244.747 172.326 254.947 184.036 278.377C195.746 301.807 184.036 279.837 184.036 279.837H189.896C189.896 279.837 179.646 261.157 189.896 240.297L184.556 244.747Z" fill="white"/>
<path d="M134.666 648.427C122.666 648.427 112.43 646.457 103.956 642.517C92.1564 637.017 83.8364 627.607 79.2264 614.517C65.6964 576.177 87.0464 491.967 109.436 431.517C121.136 399.937 147.056 386.007 166.746 379.877C179.773 375.865 193.347 373.915 206.976 374.097C207.242 374.097 207.496 374.203 207.683 374.39C207.871 374.578 207.976 374.832 207.976 375.097C207.976 375.362 207.871 375.617 207.683 375.804C207.496 375.992 207.242 376.097 206.976 376.097C193.556 375.917 180.19 377.844 167.366 381.807C148.136 387.807 122.806 401.417 111.366 432.217C89.0863 492.367 67.8064 576.027 81.1664 613.867C85.5864 626.397 93.5563 635.417 104.856 640.687C127.176 651.097 162.616 647.327 210.196 629.487C242.871 617.126 274.002 601.019 302.966 581.487C329.706 563.297 341.416 550.367 340.966 546.057C340.664 543.604 340.193 541.175 339.556 538.787C338.436 534.167 337.376 529.787 339.656 526.697C341.456 524.257 345.006 522.957 350.846 522.587L354.376 522.377C367.546 521.577 381.156 520.757 384.476 516.687C384.765 516.351 384.976 515.955 385.093 515.528C385.211 515.101 385.232 514.654 385.156 514.217C384.436 509.217 366.896 508.637 356.016 509.477C355.764 509.495 355.514 509.416 355.317 509.256C355.12 509.097 354.991 508.868 354.956 508.617C354.921 508.364 354.984 508.106 355.133 507.898C355.282 507.689 355.505 507.546 355.756 507.497C367.386 505.317 386.556 500.497 388.506 496.997C388.553 496.933 388.583 496.859 388.596 496.781C388.608 496.702 388.601 496.622 388.576 496.547C386.646 491.737 377.406 492.687 377.306 492.697C377.175 492.724 377.04 492.725 376.908 492.7C376.776 492.674 376.651 492.623 376.539 492.549C376.427 492.475 376.331 492.38 376.256 492.269C376.181 492.158 376.128 492.034 376.101 491.902C376.075 491.771 376.074 491.636 376.099 491.504C376.124 491.372 376.176 491.247 376.249 491.135C376.323 491.023 376.418 490.927 376.529 490.852C376.64 490.777 376.765 490.724 376.896 490.697C381.896 489.137 389.136 485.907 389.566 483.617C389.566 483.447 389.686 483.007 388.876 482.367C384.506 478.867 358.756 477.297 349.196 476.997C348.973 476.988 348.759 476.905 348.588 476.76C348.418 476.615 348.301 476.417 348.256 476.197C348.212 475.98 348.241 475.754 348.338 475.555C348.436 475.356 348.597 475.195 348.796 475.097C362.986 468.257 377.936 459.037 377.336 456.097C377.291 455.77 377.171 455.457 376.985 455.183C376.8 454.909 376.554 454.681 376.266 454.517C372.956 452.647 362.206 456.517 351.806 460.197C348.166 461.497 343.806 462.847 339.266 464.277C325.956 468.427 307.726 474.107 307.726 479.387V505.117C307.738 505.334 307.68 505.549 307.559 505.729C307.438 505.91 307.261 506.046 307.056 506.117L160.516 557.567C160.354 557.624 160.179 557.638 160.01 557.608C159.84 557.578 159.682 557.504 159.549 557.395C159.416 557.285 159.314 557.143 159.252 556.982C159.19 556.821 159.171 556.648 159.196 556.477L172.056 470.907C172.095 470.642 172.237 470.403 172.452 470.243C172.667 470.082 172.936 470.014 173.201 470.052C173.466 470.091 173.706 470.233 173.866 470.448C174.026 470.662 174.095 470.932 174.056 471.197L161.436 555.127L305.746 504.457V479.457C305.746 472.707 322.496 467.457 338.686 462.457C343.246 461.037 347.546 459.687 351.156 458.457C364.796 453.577 373.356 450.707 377.276 452.917C377.807 453.225 378.263 453.648 378.609 454.155C378.955 454.662 379.183 455.241 379.276 455.847C380.276 460.977 362.576 470.617 353.186 475.337C362.746 475.777 385.376 477.207 390.106 480.987C390.623 481.325 391.031 481.805 391.281 482.369C391.531 482.933 391.613 483.558 391.516 484.167C391.006 486.887 386.376 489.347 382.516 490.957C385.606 491.407 389.116 492.657 390.426 495.957C390.564 496.305 390.62 496.679 390.591 497.052C390.561 497.425 390.447 497.786 390.256 498.107C388.316 501.647 376.176 505.107 366.856 507.327C375.606 507.487 386.376 508.777 387.136 514.087C387.249 514.795 387.207 515.518 387.016 516.208C386.824 516.898 386.487 517.539 386.026 518.087C382.156 522.837 368.716 523.647 354.496 524.507L350.976 524.727C345.846 525.047 342.666 526.127 341.266 528.027C339.536 530.377 340.446 534.117 341.496 538.457C342.161 540.933 342.649 543.453 342.956 545.997C344.226 558.727 279.446 605.777 210.876 631.487C180.556 642.737 155.086 648.427 134.666 648.427Z" fill="black"/>
<path d="M334.656 511.747C334.525 511.753 334.394 511.733 334.27 511.688C334.146 511.644 334.033 511.575 333.936 511.486C333.839 511.398 333.76 511.291 333.705 511.171C333.649 511.052 333.617 510.924 333.611 510.792C333.605 510.661 333.625 510.53 333.67 510.406C333.715 510.283 333.784 510.169 333.872 510.072C333.961 509.975 334.068 509.896 334.187 509.841C334.306 509.785 334.435 509.753 334.566 509.747L359.046 507.327C359.311 507.301 359.576 507.381 359.783 507.549C359.989 507.718 360.12 507.962 360.146 508.227C360.173 508.492 360.093 508.757 359.924 508.964C359.755 509.17 359.512 509.301 359.246 509.327L334.756 511.747H334.656Z" fill="black"/>
<path d="M334.656 494.937C334.403 494.938 334.158 494.842 333.973 494.67C333.787 494.497 333.674 494.26 333.656 494.007C333.637 493.745 333.722 493.486 333.892 493.286C334.062 493.085 334.304 492.96 334.566 492.937L381.066 489.257C381.331 489.236 381.594 489.321 381.797 489.494C381.999 489.666 382.125 489.912 382.146 490.177C382.167 490.442 382.082 490.705 381.91 490.908C381.737 491.11 381.492 491.236 381.226 491.257L334.726 494.927L334.656 494.937Z" fill="black"/>
<path d="M352.526 477.207L331.306 477.077C331.041 477.077 330.787 476.972 330.599 476.784C330.412 476.597 330.306 476.342 330.306 476.077C330.306 475.812 330.412 475.558 330.599 475.37C330.787 475.183 331.041 475.077 331.306 475.077L352.526 475.207C352.791 475.207 353.046 475.313 353.233 475.5C353.421 475.688 353.526 475.942 353.526 476.207C353.526 476.472 353.421 476.727 353.233 476.914C353.046 477.102 352.791 477.207 352.526 477.207Z" fill="black"/>
<path d="M306.696 522.937C306.431 522.937 306.177 522.832 305.989 522.644C305.801 522.457 305.696 522.202 305.696 521.937V502.857C305.696 502.592 305.801 502.338 305.989 502.15C306.177 501.963 306.431 501.857 306.696 501.857C306.962 501.857 307.216 501.963 307.403 502.15C307.591 502.338 307.696 502.592 307.696 502.857V521.937C307.696 522.202 307.591 522.457 307.403 522.644C307.216 522.832 306.962 522.937 306.696 522.937Z" fill="black"/>
<path d="M132.146 565.447C131.923 565.456 131.703 565.39 131.522 565.259C131.341 565.129 131.209 564.942 131.146 564.727C131.072 564.473 131.102 564.199 131.229 563.966C131.357 563.734 131.572 563.562 131.826 563.487L164.056 554.157C164.182 554.12 164.314 554.109 164.445 554.123C164.575 554.137 164.702 554.177 164.817 554.24C164.932 554.304 165.034 554.389 165.116 554.491C165.198 554.594 165.259 554.711 165.296 554.837C165.333 554.963 165.345 555.095 165.33 555.226C165.316 555.356 165.276 555.483 165.213 555.598C165.15 555.713 165.065 555.815 164.962 555.897C164.86 555.979 164.742 556.04 164.616 556.077L132.386 565.407C132.308 565.431 132.228 565.445 132.146 565.447Z" fill="black"/>
<path d="M425.146 500.567C425.146 500.567 409.516 494.437 417.386 489.197C425.256 483.957 442.006 487.087 443.076 495.397C444.146 503.707 421.706 513.397 421.706 513.397L425.146 500.567Z" fill="white"/>
<path d="M421.666 514.377C421.51 514.383 421.354 514.351 421.212 514.286C421.07 514.22 420.946 514.122 420.848 513.999C420.751 513.877 420.684 513.733 420.652 513.58C420.621 513.427 420.625 513.268 420.666 513.117L423.866 501.117C421.356 500.027 414.536 496.737 414.106 492.767C413.936 491.107 414.816 489.607 416.746 488.327C422.366 484.587 431.626 485.047 437.336 487.647C441.226 489.427 443.586 492.117 443.986 495.227C445.116 504.027 424.396 513.227 421.986 514.227C421.89 514.297 421.781 514.348 421.666 514.377ZM427.346 487.617C424.03 487.505 420.75 488.344 417.896 490.037C415.996 491.297 416.106 492.277 416.136 492.597C416.416 495.157 422.006 498.277 425.466 499.597C425.695 499.687 425.883 499.858 425.993 500.078C426.104 500.297 426.13 500.55 426.066 500.787L423.186 511.547C430.066 508.317 442.766 501.107 442.036 495.477C441.736 493.077 439.776 490.947 436.546 489.477C433.642 488.223 430.509 487.59 427.346 487.617Z" fill="black"/>
<path d="M418.496 475.637C411.986 475.277 402.176 487.057 419.986 489.167C437.796 491.277 444.486 491.877 444.926 483.827C445.426 474.937 425.196 476.007 418.496 475.637Z" fill="white"/>
<path d="M435.546 491.527C430.299 491.348 425.065 490.891 419.866 490.157C409.866 488.967 408.686 484.857 408.866 482.507C409.206 478.507 414.246 474.417 418.526 474.637C419.456 474.637 420.676 474.717 422.086 474.737C429.316 474.867 440.236 475.077 444.306 479.447C444.865 480.034 445.295 480.731 445.569 481.494C445.843 482.257 445.954 483.069 445.896 483.877C445.756 486.467 444.986 488.307 443.526 489.527C441.846 490.937 439.326 491.527 435.546 491.527ZM418.186 476.627C415.026 476.627 411.136 479.807 410.886 482.627C410.636 485.447 414.006 487.397 420.106 488.117C432.756 489.617 439.486 490.287 442.276 487.947C443.276 487.097 443.816 485.747 443.936 483.717C443.977 483.178 443.903 482.636 443.718 482.127C443.534 481.619 443.243 481.155 442.866 480.767C439.376 477.007 428.546 476.767 422.076 476.687C420.646 476.687 419.416 476.687 418.436 476.587H418.146L418.186 476.627Z" fill="black"/>
<path d="M419.146 463.347C412.636 462.987 402.826 474.767 420.636 476.877C438.446 478.987 445.136 479.597 445.586 471.537C446.146 462.607 425.876 463.727 419.146 463.347Z" fill="white"/>
<path d="M436.226 479.237C430.983 479.059 425.752 478.601 420.556 477.867C410.556 476.687 409.366 472.567 409.556 470.217C409.896 466.217 414.966 462.127 419.216 462.357C420.156 462.357 421.366 462.427 422.776 462.457C430.006 462.587 440.926 462.787 444.996 467.167C445.557 467.753 445.988 468.45 446.262 469.213C446.536 469.976 446.646 470.789 446.586 471.597C446.446 474.177 445.676 476.027 444.216 477.247C442.526 478.677 440.016 479.237 436.226 479.237ZM418.866 464.347C415.706 464.347 411.866 467.527 411.566 470.347C411.266 473.167 414.686 475.127 420.786 475.847C433.436 477.347 440.166 478.017 442.956 475.677C443.956 474.817 444.496 473.477 444.616 471.447C444.662 470.9 444.59 470.349 444.405 469.832C444.221 469.314 443.928 468.842 443.546 468.447C440.056 464.687 429.226 464.447 422.756 464.377C421.336 464.377 420.096 464.377 419.126 464.267H418.866V464.347Z" fill="black"/>
<path d="M420.926 450.937C415.346 450.627 406.926 460.717 422.206 462.517C437.486 464.317 443.206 464.847 443.566 457.947C443.986 450.257 426.666 451.217 420.926 450.937Z" fill="white"/>
<path d="M435.526 464.647C431.029 464.494 426.543 464.103 422.086 463.477C413.376 462.477 412.376 458.827 412.556 456.767C412.856 453.287 417.236 449.697 420.986 449.897C421.796 449.897 422.836 449.957 423.986 449.987C430.206 450.097 439.596 450.267 443.116 454.067C443.611 454.582 443.993 455.196 444.236 455.867C444.479 456.539 444.577 457.255 444.526 457.967C444.546 458.891 444.37 459.808 444.012 460.659C443.654 461.51 443.12 462.276 442.446 462.907C440.986 464.157 438.806 464.647 435.526 464.647ZM420.656 451.937C418.016 451.937 414.756 454.597 414.556 456.937C414.356 459.277 417.186 460.877 422.326 461.487C432.816 462.727 438.866 463.337 441.196 461.377C441.659 460.919 442.02 460.369 442.256 459.763C442.492 459.157 442.597 458.507 442.566 457.857C442.601 457.414 442.542 456.968 442.392 456.549C442.242 456.13 442.005 455.748 441.696 455.427C438.696 452.257 429.506 452.087 423.986 451.987C422.766 451.987 421.706 451.987 420.876 451.897H420.656V451.937Z" fill="black"/>
<path d="M393.386 447.547C398.948 447.547 403.456 443.039 403.456 437.477C403.456 431.916 398.948 427.407 393.386 427.407C387.825 427.407 383.316 431.916 383.316 437.477C383.316 443.039 387.825 447.547 393.386 447.547Z" fill="white"/>
<path d="M244.056 441.837C243.082 441.839 242.13 441.552 241.319 441.012C240.509 440.472 239.876 439.704 239.503 438.805C239.129 437.905 239.031 436.915 239.22 435.96C239.41 435.004 239.879 434.127 240.567 433.438C241.256 432.75 242.134 432.281 243.089 432.091C244.044 431.902 245.034 432 245.934 432.374C246.833 432.747 247.602 433.379 248.141 434.19C248.681 435.001 248.968 435.953 248.966 436.927C248.964 438.229 248.445 439.476 247.525 440.396C246.605 441.316 245.358 441.835 244.056 441.837ZM244.056 434.007C243.478 434.005 242.913 434.175 242.431 434.494C241.95 434.814 241.574 435.269 241.351 435.803C241.129 436.336 241.07 436.924 241.181 437.491C241.293 438.058 241.57 438.579 241.978 438.988C242.386 439.398 242.906 439.677 243.473 439.79C244.04 439.904 244.627 439.847 245.161 439.626C245.696 439.405 246.152 439.031 246.473 438.55C246.795 438.07 246.966 437.505 246.966 436.927C246.966 436.154 246.66 435.413 246.115 434.866C245.569 434.319 244.829 434.01 244.056 434.007Z" fill="black"/>
<path d="M245.726 487.697C244.864 487.697 244.02 487.441 243.303 486.962C242.586 486.482 242.027 485.801 241.697 485.003C241.368 484.206 241.282 483.329 241.451 482.483C241.62 481.637 242.036 480.86 242.647 480.251C243.257 479.641 244.035 479.227 244.882 479.06C245.728 478.893 246.605 478.981 247.402 479.312C248.198 479.644 248.878 480.204 249.356 480.922C249.834 481.641 250.088 482.485 250.086 483.347C250.086 483.919 249.973 484.486 249.754 485.014C249.535 485.543 249.214 486.023 248.809 486.427C248.404 486.831 247.923 487.151 247.394 487.369C246.865 487.587 246.298 487.699 245.726 487.697ZM245.726 480.987C245.26 480.987 244.803 481.126 244.415 481.385C244.027 481.644 243.725 482.013 243.546 482.444C243.367 482.875 243.321 483.35 243.412 483.808C243.503 484.265 243.727 484.686 244.057 485.016C244.387 485.346 244.808 485.571 245.266 485.662C245.724 485.753 246.198 485.706 246.629 485.528C247.061 485.349 247.429 485.047 247.688 484.658C247.948 484.27 248.086 483.814 248.086 483.347C248.086 483.037 248.025 482.73 247.906 482.444C247.788 482.158 247.614 481.898 247.395 481.679C247.176 481.459 246.916 481.286 246.629 481.167C246.343 481.048 246.036 480.987 245.726 480.987Z" fill="black"/>
<path d="M284.876 591.737C284.663 591.735 284.456 591.665 284.286 591.537C250.626 566.847 257.726 522.267 257.796 521.817C257.818 521.686 257.865 521.56 257.935 521.447C258.006 521.334 258.098 521.236 258.206 521.158C258.314 521.081 258.436 521.025 258.566 520.995C258.695 520.965 258.83 520.961 258.961 520.982C259.092 521.004 259.218 521.051 259.331 521.121C259.444 521.192 259.542 521.284 259.62 521.392C259.698 521.5 259.753 521.622 259.783 521.752C259.813 521.882 259.818 522.016 259.796 522.147C259.716 522.587 252.796 565.977 285.496 589.927C285.602 590.005 285.691 590.103 285.759 590.216C285.827 590.329 285.872 590.454 285.891 590.584C285.911 590.714 285.905 590.846 285.873 590.974C285.841 591.102 285.784 591.222 285.706 591.327C285.611 591.457 285.486 591.563 285.341 591.634C285.197 591.705 285.037 591.741 284.876 591.737Z" fill="black"/>
<path d="M274.016 601.597C273.803 601.595 273.597 601.525 273.426 601.397C232.246 570.897 246.876 528.187 247.026 527.757C247.064 527.626 247.128 527.503 247.215 527.397C247.301 527.292 247.409 527.205 247.53 527.142C247.652 527.08 247.785 527.043 247.921 527.034C248.058 527.024 248.195 527.044 248.324 527.089C248.453 527.135 248.57 527.207 248.67 527.301C248.77 527.394 248.85 527.507 248.905 527.632C248.959 527.757 248.988 527.893 248.988 528.03C248.988 528.166 248.96 528.302 248.906 528.427C248.766 528.837 234.646 570.197 274.616 599.787C274.788 599.912 274.916 600.088 274.982 600.29C275.047 600.493 275.046 600.71 274.979 600.912C274.912 601.114 274.783 601.289 274.61 601.412C274.437 601.535 274.229 601.6 274.016 601.597Z" fill="black"/>
<path d="M460.146 394.437C459.926 394.437 459.711 394.363 459.537 394.228C459.363 394.093 459.238 393.904 459.182 393.691C459.126 393.477 459.142 393.252 459.228 393.048C459.314 392.845 459.464 392.676 459.656 392.567L486.656 377.567C486.887 377.435 487.161 377.399 487.418 377.469C487.675 377.538 487.893 377.707 488.026 377.937C488.159 378.168 488.194 378.442 488.125 378.699C488.056 378.956 487.887 379.175 487.656 379.307L460.656 394.307C460.501 394.395 460.325 394.44 460.146 394.437Z" fill="black"/>
<path d="M495.146 410.437H462.146C461.881 410.437 461.627 410.332 461.439 410.144C461.252 409.957 461.146 409.702 461.146 409.437C461.146 409.172 461.252 408.918 461.439 408.73C461.627 408.543 461.881 408.437 462.146 408.437H495.146C495.411 408.437 495.666 408.543 495.853 408.73C496.041 408.918 496.146 409.172 496.146 409.437C496.146 409.702 496.041 409.957 495.853 410.144C495.666 410.332 495.411 410.437 495.146 410.437Z" fill="black"/>
<path d="M486.144 608.709L477.144 623.705L478.859 624.735L487.859 609.738L486.144 608.709Z" fill="#EC87BF"/>
<path d="M93.3862 168.197L84.2861 152.437L100.046 143.337L109.146 159.097L93.3862 168.197ZM87.0261 153.197L94.1162 165.497L106.416 158.397L99.3162 146.097L87.0261 153.197Z" fill="#EC87BF"/>
<path d="M615.902 308.761L614.354 310.028L623.353 321.026L624.901 319.759L615.902 308.761Z" fill="#EC87BF"/>
<path d="M597.196 488.827L571.366 478.987L591.046 460.537L597.196 488.827ZM576.926 477.937L593.096 484.097L589.246 466.387L576.926 477.937Z" fill="#FCE054"/>
<path d="M268.273 52L256.279 71.0013L258.816 72.6026L270.81 53.6012L268.273 52Z" fill="#FCE054"/>
</svg>
