<svg width="700" height="700" viewBox="0 0 700 700" fill="none" xmlns="http://www.w3.org/2000/svg">
<rect width="700" height="700" fill="white"/>
<path d="M344.422 61H57.4224C54.2398 61 51.1874 62.2642 48.937 64.5146C46.6866 66.7651 45.4224 69.8174 45.4224 73V264L80.4824 218H344.422C347.605 218 350.657 216.736 352.908 214.485C355.158 212.235 356.422 209.183 356.422 206V73C356.422 69.8174 355.158 66.7651 352.908 64.5146C350.657 62.2642 347.605 61 344.422 61Z" fill="#47CEC0"/>
<path d="M102.422 82.5C102.428 89.1163 100.583 95.6025 97.0964 101.225C93.6095 106.848 88.6194 111.384 82.6899 114.319C76.7605 117.255 70.1282 118.473 63.5425 117.837C56.9568 117.201 50.6804 114.736 45.4224 110.72V115.61C53.0071 120.546 62.0575 122.725 71.0576 121.783C80.0577 120.842 88.4609 116.836 94.8596 110.437C101.258 104.038 105.264 95.6353 106.206 86.6353C107.148 77.6352 104.968 68.5847 100.032 61H95.1423C99.8692 67.1701 102.428 74.7274 102.422 82.5Z" fill="white"/>
<path d="M222.422 134H144.422C143.892 134 143.383 133.789 143.008 133.414C142.633 133.039 142.422 132.53 142.422 132C142.422 131.47 142.633 130.961 143.008 130.586C143.383 130.211 143.892 130 144.422 130H222.422C222.953 130 223.462 130.211 223.837 130.586C224.212 130.961 224.422 131.47 224.422 132C224.422 132.53 224.212 133.039 223.837 133.414C223.462 133.789 222.953 134 222.422 134Z" fill="white"/>
<path d="M222.422 161H144.422C143.892 161 143.383 160.789 143.008 160.414C142.633 160.039 142.422 159.53 142.422 159C142.422 158.47 142.633 157.961 143.008 157.586C143.383 157.211 143.892 157 144.422 157H222.422C222.953 157 223.462 157.211 223.837 157.586C224.212 157.961 224.422 158.47 224.422 159C224.422 159.53 224.212 160.039 223.837 160.414C223.462 160.789 222.953 161 222.422 161Z" fill="white"/>
<path d="M300.422 164C300.015 164 299.617 163.875 299.283 163.643C298.948 163.41 298.692 163.081 298.55 162.699C298.408 162.317 298.385 161.901 298.486 161.507C298.586 161.112 298.805 160.757 299.112 160.49L320.422 142L299.112 123.5C298.887 123.337 298.698 123.129 298.557 122.889C298.417 122.649 298.328 122.382 298.297 122.106C298.265 121.829 298.291 121.549 298.374 121.284C298.457 121.018 298.594 120.773 298.777 120.563C298.96 120.354 299.185 120.185 299.437 120.067C299.689 119.949 299.963 119.885 300.241 119.879C300.519 119.873 300.795 119.926 301.052 120.032C301.309 120.139 301.541 120.298 301.732 120.5L324.732 140.5C324.945 140.688 325.116 140.919 325.232 141.177C325.349 141.436 325.409 141.716 325.409 142C325.409 142.284 325.349 142.564 325.232 142.823C325.116 143.081 324.945 143.312 324.732 143.5L301.732 163.5C301.37 163.819 300.905 163.997 300.422 164Z" fill="white"/>
<path d="M196.622 559.61L205.622 473.67L103.692 506.67L184.632 567.67C190.632 552.67 196.632 554.67 196.632 554.67L195.632 572.67C195.632 572.67 232.632 557.67 242.632 562.67C252.632 567.67 243.632 576.67 243.632 576.67C244.485 578.42 244.843 580.371 244.666 582.31C244.49 584.249 243.787 586.102 242.632 587.67C247.632 594.67 241.632 598.67 241.632 598.67C245.632 600.67 246.632 612.67 230.632 611.67C214.632 610.67 220.632 613.67 202.632 625.67C184.632 637.67 180.632 631.67 156.632 618.67C132.632 605.67 56.7023 546.67 38.7123 532.73C20.7223 518.79 15.7123 484.73 43.7123 465.73C71.7123 446.73 184.612 407.73 209.592 400.73C234.572 393.73 304.532 386.73 320.522 384.73C336.512 382.73 489.302 401.16 489.302 401.16L491.302 249.27L485.302 211.27C483.892 205.16 478.672 172.27 487.012 172.39C495.352 172.51 551.392 180.98 551.392 180.98C551.392 180.98 554.392 436.98 553.392 462.98L485.992 475.07L381.392 474.98L371.632 611.98L196.392 608.98" fill="white"/>
<path d="M186.422 633.06C180.322 633.06 174.552 629.79 165.362 624.57C162.672 623.04 159.612 621.31 156.172 619.44C134.822 607.88 73.0423 560.58 38.1223 533.44C28.3723 525.86 22.5924 512.92 23.0224 499.68C23.4724 485.75 30.6323 473.39 43.1723 464.87C71.7023 445.51 185.412 406.49 209.342 399.78C229.982 394.01 280.342 388.32 307.402 385.27C313.092 384.63 317.592 384.12 320.402 383.77C335.782 381.83 473.402 398.27 488.332 400.06L490.332 249.37L484.332 211.48C483.422 207.55 478.542 179.58 483.872 173C484.247 172.513 484.729 172.119 485.28 171.849C485.832 171.578 486.438 171.438 487.052 171.44C495.292 171.58 502.992 193.81 504.692 199.03C508.692 198.53 524.872 197.92 532.692 218.55L530.822 219.26C522.522 197.33 504.412 201.08 504.232 201.12L503.342 201.32L503.062 200.45C500.722 192.97 493.282 173.55 487.062 173.45C486.752 173.446 486.445 173.519 486.17 173.662C485.894 173.805 485.658 174.014 485.482 174.27C481.092 179.69 484.962 205.1 486.342 211.11L492.342 249.23V249.32L490.342 402.32L489.232 402.18C487.712 402 336.382 383.81 320.692 385.75C317.852 386.11 313.352 386.61 307.692 387.26C280.692 390.26 230.432 395.98 209.952 401.71C186.082 408.39 72.7323 447.28 44.3623 466.53C32.3623 474.67 25.5222 486.47 25.0822 499.74C24.6822 512.36 30.1723 524.67 39.4223 531.87C74.2923 558.99 135.972 606.22 157.202 617.72C160.652 619.59 163.722 621.33 166.422 622.86C182.422 631.94 187.252 634.69 202.132 624.76C206.404 621.979 210.42 618.823 214.132 615.33C218.872 610.96 220.382 609.95 230.782 610.6C237.522 611.02 241.962 609.05 243.002 605.2C243.682 602.69 242.632 600.2 241.272 599.5L239.722 598.73L241.162 597.78C242.416 596.841 243.29 595.481 243.622 593.95C243.736 592.925 243.642 591.888 243.346 590.9C243.051 589.913 242.56 588.994 241.902 588.2L241.462 587.58L241.932 586.99C242.978 585.578 243.614 583.905 243.771 582.155C243.928 580.405 243.6 578.646 242.822 577.07L242.502 576.43L243.002 575.92C243.002 575.92 247.002 571.92 246.362 568.11C246.062 566.28 244.692 564.74 242.262 563.53C232.792 558.79 196.492 573.41 196.122 573.53L194.662 574.13L195.662 555.55C194.032 555.73 189.922 557.32 185.662 567.98L185.182 569.2L101.652 506.29L206.872 472.29L197.722 559.76H197.442L196.812 571.17C203.902 568.4 233.902 557.17 243.142 561.79C246.142 563.31 247.912 565.34 248.322 567.85C248.952 571.75 246.062 575.51 244.882 576.85C245.618 578.595 245.911 580.495 245.737 582.38C245.562 584.266 244.925 586.079 243.882 587.66C245.283 589.597 245.875 592.004 245.532 594.37C245.215 595.972 244.424 597.442 243.262 598.59C244.114 599.552 244.709 600.714 244.993 601.967C245.276 603.22 245.238 604.525 244.882 605.76C244.272 608.06 241.632 613.33 230.612 612.64C220.662 612.02 219.762 612.85 215.442 616.84C211.67 620.404 207.587 623.623 203.242 626.46C196.182 631.05 191.202 633.06 186.422 633.06ZM105.832 507L184.202 566C189.202 554.18 194.422 553.37 196.202 553.51L204.412 475.06L105.832 507Z" fill="black"/>
<path d="M288.762 227.82C296.982 209.24 293.212 187.58 267.272 190.06C241.332 192.54 231.152 215.62 231.152 215.62C231.152 215.62 194.292 207.83 190.312 249.09C190.312 249.09 152.472 264.81 182.312 302.22C182.312 302.22 226.422 353 272.032 351.53C356.422 348.8 288.762 227.82 288.762 227.82Z" fill="black"/>
<path d="M373.512 614.63L371.512 614.51L379.512 473.09H380.512C381.712 473.09 501.182 475.43 529.162 469.09C537.642 467.17 548.412 446.6 551.492 359.49C553.342 307.04 551.382 254.77 551.362 254.25V254.14C552.362 240.36 550.362 175.95 550.362 175.3L552.362 175.24C552.362 175.89 554.362 240.24 553.362 254.24C553.432 256.24 555.312 307.8 553.482 359.56C550.982 430.56 542.942 468.03 529.602 471.05C502.412 477.19 393.692 475.32 381.442 475.05L373.512 614.63Z" fill="black"/>
<path d="M141.482 608.38L156.482 618.38C180.482 631.38 184.482 637.38 202.482 625.38C220.482 613.38 214.482 610.38 230.482 611.38C246.482 612.38 245.482 600.38 241.482 598.38C241.482 598.38 247.482 594.38 242.482 587.38C243.639 585.813 244.343 583.959 244.52 582.02C244.696 580.08 244.337 578.13 243.482 576.38C243.482 576.38 252.482 567.38 242.482 562.38C232.482 557.38 195.482 572.38 195.482 572.38L197.482 554.38C197.482 554.38 190.532 552.38 184.532 567.38L174.532 560.38" fill="white"/>
<path d="M186.282 632.87C180.172 632.87 174.412 629.59 165.222 624.37C162.532 622.84 159.472 621.11 156.032 619.25L140.922 609.25L142.032 607.58L157.032 617.58C160.412 619.4 163.472 621.14 166.182 622.67C182.182 631.76 187.002 634.5 201.892 624.57C206.144 621.786 210.142 618.634 213.842 615.15C218.572 610.77 220.082 609.77 230.492 610.42C237.222 610.83 241.672 608.87 242.712 605.01C243.392 602.5 242.342 600.01 240.972 599.32L239.422 598.5L240.862 597.5C242.115 596.562 242.986 595.201 243.312 593.67C243.429 592.646 243.338 591.609 243.044 590.62C242.751 589.632 242.26 588.714 241.602 587.92L241.162 587.31L241.632 586.72C242.673 585.306 243.306 583.633 243.461 581.883C243.616 580.134 243.288 578.376 242.512 576.8L242.192 576.15L242.702 575.64C242.702 575.64 246.702 571.64 246.062 567.83C245.762 566 244.382 564.46 241.962 563.25C232.492 558.51 196.182 573.13 195.822 573.25L194.272 573.88L196.272 555.26C194.402 555.4 189.682 556.89 185.362 567.7L184.892 568.87L173.822 561.15L174.972 559.51L183.972 565.79C190.132 551.41 197.342 553.29 197.652 553.37L198.452 553.61L196.592 570.78C203.832 567.95 233.592 556.78 242.832 561.43C245.832 562.95 247.602 564.99 248.012 567.49C248.642 571.39 245.752 575.15 244.572 576.49C245.308 578.237 245.601 580.138 245.427 582.025C245.253 583.912 244.615 585.728 243.572 587.31C244.981 589.24 245.577 591.646 245.232 594.01C244.917 595.616 244.126 597.09 242.962 598.24C243.815 599.2 244.411 600.359 244.694 601.611C244.977 602.863 244.939 604.167 244.582 605.4C243.962 607.7 241.342 612.97 230.312 612.28C220.362 611.66 219.462 612.49 215.142 616.49C211.363 620.045 207.281 623.264 202.942 626.11C196.042 630.86 191.062 632.87 186.282 632.87Z" fill="black"/>
<path d="M88.1231 499.846L87.4106 501.715L104.304 508.156L105.017 506.287L88.1231 499.846Z" fill="black"/>
<path d="M197.122 583.09C197.122 583.09 228.122 568.09 243.122 576.09L197.122 583.09Z" fill="white"/>
<path d="M197.122 584.09C196.935 584.09 196.751 584.038 196.592 583.939C196.433 583.84 196.305 583.698 196.222 583.53C196.165 583.411 196.131 583.282 196.123 583.15C196.116 583.019 196.134 582.887 196.178 582.762C196.222 582.638 196.29 582.523 196.378 582.425C196.466 582.326 196.573 582.247 196.692 582.19C197.972 581.57 228.302 567.07 243.562 575.19C243.797 575.315 243.973 575.527 244.05 575.782C244.128 576.036 244.102 576.31 243.977 576.545C243.853 576.78 243.64 576.955 243.386 577.033C243.132 577.111 242.857 577.085 242.622 576.96C228.242 569.29 197.862 583.82 197.562 583.96C197.428 584.037 197.277 584.081 197.122 584.09Z" fill="black"/>
<path d="M199.122 594.08C199.122 594.08 229.122 579.08 243.122 587.08L199.122 594.08Z" fill="white"/>
<path d="M199.122 595.08C198.898 595.079 198.681 595.002 198.506 594.863C198.331 594.723 198.207 594.529 198.155 594.311C198.104 594.094 198.126 593.865 198.22 593.661C198.314 593.458 198.473 593.292 198.672 593.19C199.922 592.57 229.302 578.05 243.592 586.19C243.706 586.256 243.807 586.343 243.887 586.447C243.968 586.552 244.027 586.671 244.061 586.798C244.095 586.926 244.104 587.058 244.087 587.189C244.07 587.32 244.028 587.446 243.962 587.56C243.897 587.674 243.809 587.775 243.705 587.855C243.6 587.935 243.481 587.994 243.354 588.029C243.227 588.063 243.094 588.072 242.963 588.055C242.833 588.038 242.706 587.996 242.592 587.93C229.222 580.29 199.852 594.8 199.592 594.93C199.45 595.018 199.289 595.07 199.122 595.08Z" fill="black"/>
<path d="M202.122 605.08C202.122 605.08 220.122 592.08 241.122 598.08L202.122 605.08Z" fill="white"/>
<path d="M202.122 606.08C201.964 606.079 201.807 606.041 201.667 605.968C201.526 605.895 201.404 605.789 201.312 605.66C201.234 605.554 201.179 605.433 201.148 605.305C201.117 605.177 201.111 605.044 201.131 604.914C201.152 604.784 201.198 604.659 201.266 604.547C201.335 604.435 201.426 604.337 201.532 604.26C201.722 604.13 220.172 591.06 241.372 597.12C241.625 597.194 241.837 597.365 241.965 597.595C242.092 597.826 242.123 598.097 242.052 598.35C241.98 598.604 241.81 598.819 241.579 598.949C241.349 599.078 241.077 599.111 240.822 599.04C220.562 593.25 202.882 605.76 202.712 605.89C202.538 606.009 202.333 606.075 202.122 606.08Z" fill="black"/>
<path d="M316.192 385.86L316.862 357.62C316.862 357.62 354.042 357.05 332.462 306.42C332.462 306.42 346.722 295.92 330.462 280.55C314.202 265.18 311.002 250.41 306.992 242.3C302.982 234.19 289.832 227.3 289.832 227.3C289.832 227.3 267.972 237.36 272.752 250.51C272.752 250.51 296.482 274.85 274.112 289.36C274.112 289.36 253.962 280.73 244.482 292.68C235.002 304.63 243.022 320.86 252.242 322.82C261.462 324.78 271.842 322.61 271.842 322.61C271.842 322.61 278.582 338.24 264.062 350.96L269.442 391.2C288.962 405.8 301.012 407.04 316.192 385.86Z" fill="white"/>
<path d="M289.822 229.5C292.752 231.17 302.142 236.89 305.242 243.16C306.062 244.83 306.853 246.79 307.772 249.07C311.272 257.73 316.052 269.59 329.122 281.98C334.122 286.7 336.492 291.31 336.232 295.69C335.912 301.26 331.312 304.76 331.232 304.79C330.871 305.057 330.611 305.439 330.493 305.872C330.375 306.306 330.406 306.766 330.582 307.18C338.132 324.9 339.213 338.18 333.793 346.52C328.133 355.28 316.893 355.6 316.793 355.6C316.262 355.6 315.753 355.811 315.378 356.186C315.003 356.561 314.793 357.07 314.793 357.6L314.142 385.23C306.702 395.45 300.212 400.02 293.142 400.02C287.312 400.02 280.562 396.95 271.312 390.1L266.182 351.74C270.289 348.08 273.199 343.269 274.535 337.933C275.871 332.597 275.57 326.983 273.672 321.82C273.518 321.462 273.263 321.157 272.938 320.942C272.613 320.727 272.232 320.612 271.842 320.61C271.704 320.612 271.567 320.629 271.432 320.66C267.94 321.317 264.396 321.652 260.842 321.66C258.096 321.681 255.355 321.42 252.662 320.88C248.892 320.07 245.152 316.17 243.352 311.17C242.267 308.311 241.945 305.218 242.418 302.197C242.892 299.176 244.144 296.33 246.052 293.94C248.982 290.23 253.462 288.36 259.372 288.36C264.171 288.474 268.911 289.439 273.372 291.21C273.622 291.316 273.891 291.371 274.162 291.37C274.549 291.371 274.928 291.26 275.252 291.05C281.462 287.05 284.952 281.87 285.642 275.75C287.012 263.53 276.582 251.65 274.552 249.47C271.472 239.75 286.022 231.52 289.832 229.56L289.822 229.5ZM289.832 227.31C289.832 227.31 267.972 237.37 272.752 250.52C272.752 250.52 296.482 274.86 274.112 289.37C269.417 287.499 264.425 286.483 259.372 286.37C254.032 286.37 248.372 287.81 244.482 292.7C235.002 304.65 243.022 320.88 252.242 322.84C255.073 323.412 257.955 323.69 260.842 323.67C264.532 323.68 268.215 323.345 271.842 322.67C271.842 322.67 278.582 338.3 264.062 351.02L269.442 391.26C278.622 398.16 286.152 402.08 293.142 402.08C300.982 402.08 308.142 397.15 316.142 385.95L316.812 357.71C316.812 357.71 353.992 357.14 332.412 306.51C332.412 306.51 346.672 296.01 330.412 280.64C314.152 265.27 310.952 250.5 306.942 242.39C302.932 234.28 289.783 227.39 289.783 227.39L289.832 227.31Z" fill="black"/>
<path d="M275.332 304.32C275.332 304.32 261.162 288.7 249.482 303.32L275.332 304.32Z" fill="white"/>
<path d="M275.332 305.32C275.193 305.32 275.055 305.29 274.928 305.233C274.8 305.177 274.686 305.094 274.592 304.99C274.522 304.92 267.992 297.84 260.492 298.08C256.722 298.2 253.273 300.18 250.263 303.95C250.182 304.057 250.081 304.147 249.965 304.214C249.849 304.281 249.721 304.325 249.588 304.342C249.455 304.358 249.32 304.348 249.191 304.312C249.062 304.275 248.942 304.213 248.838 304.13C248.733 304.046 248.646 303.942 248.583 303.824C248.519 303.706 248.48 303.577 248.467 303.444C248.455 303.31 248.469 303.176 248.509 303.048C248.55 302.92 248.615 302.802 248.702 302.7C252.102 298.45 256.052 296.22 260.442 296.08C268.882 295.8 275.782 303.33 276.072 303.65C276.25 303.846 276.342 304.105 276.329 304.369C276.316 304.634 276.198 304.882 276.003 305.06C275.819 305.227 275.58 305.319 275.332 305.32Z" fill="black"/>
<path d="M257.422 307.04C257.422 307.04 257.162 299.47 266.842 298.37L257.422 307.04Z" fill="white"/>
<path d="M257.422 308.04C257.157 308.04 256.903 307.935 256.715 307.747C256.528 307.56 256.422 307.305 256.422 307.04C256.422 306.95 256.242 298.53 266.722 297.34C266.853 297.325 266.985 297.335 267.112 297.371C267.239 297.407 267.357 297.468 267.46 297.55C267.563 297.631 267.649 297.733 267.713 297.848C267.777 297.963 267.817 298.089 267.832 298.22C267.848 298.351 267.837 298.483 267.801 298.61C267.765 298.736 267.705 298.855 267.623 298.958C267.541 299.061 267.44 299.147 267.325 299.211C267.21 299.275 267.083 299.315 266.952 299.33C258.352 300.33 258.412 306.7 258.422 306.97C258.422 307.235 258.317 307.489 258.129 307.677C257.942 307.865 257.688 307.97 257.422 307.97V308.04Z" fill="black"/>
<path d="M305.642 268.5C305.229 268.498 304.827 268.367 304.491 268.127C304.154 267.887 303.901 267.548 303.765 267.158C303.629 266.768 303.618 266.345 303.732 265.948C303.846 265.551 304.08 265.198 304.402 264.94L309.352 261.01C309.558 260.847 309.795 260.727 310.048 260.655C310.3 260.583 310.565 260.562 310.826 260.593C311.087 260.624 311.339 260.705 311.568 260.833C311.798 260.962 311.999 261.134 312.162 261.34C312.325 261.546 312.446 261.782 312.517 262.035C312.589 262.288 312.61 262.552 312.579 262.813C312.549 263.074 312.467 263.327 312.339 263.556C312.211 263.785 312.038 263.987 311.832 264.15L306.882 268.07C306.529 268.349 306.092 268.5 305.642 268.5Z" fill="black"/>
<path d="M323.702 321.83C323.702 321.83 315.932 326.83 311.582 317.73L323.702 321.83Z" fill="white"/>
<path d="M318.942 324.18C318.185 324.182 317.431 324.078 316.702 323.87C314.182 323.16 312.162 321.23 310.702 318.16C310.596 317.922 310.586 317.653 310.675 317.408C310.764 317.163 310.945 316.963 311.179 316.85C311.414 316.736 311.683 316.719 311.93 316.801C312.177 316.883 312.383 317.059 312.502 317.29C313.722 319.82 315.312 321.39 317.252 321.94C319.288 322.372 321.411 322.015 323.192 320.94C323.416 320.798 323.688 320.751 323.947 320.809C324.205 320.867 324.43 321.026 324.572 321.25C324.714 321.474 324.761 321.745 324.703 322.004C324.645 322.263 324.487 322.488 324.262 322.63C322.655 323.603 320.821 324.137 318.942 324.18Z" fill="black"/>
<path d="M271.542 322.64C271.311 322.636 271.088 322.552 270.912 322.402C270.736 322.252 270.617 322.046 270.576 321.819C270.534 321.591 270.573 321.356 270.686 321.154C270.798 320.952 270.977 320.795 271.192 320.71L280.592 317.29C280.839 317.209 281.109 317.227 281.343 317.34C281.577 317.454 281.758 317.655 281.846 317.899C281.935 318.144 281.924 318.414 281.817 318.651C281.71 318.888 281.515 319.075 281.272 319.17L271.882 322.58C271.774 322.623 271.659 322.644 271.542 322.64Z" fill="black"/>
<path d="M318.479 279.052C319.777 278.58 320.32 276.796 319.692 275.068C319.064 273.339 317.502 272.32 316.205 272.792C314.907 273.263 314.364 275.047 314.992 276.776C315.62 278.504 317.182 279.523 318.479 279.052Z" fill="black"/>
<path d="M291.972 409.2C274.512 409.2 263.512 392.71 263.032 391.99L264.712 390.89C264.822 391.06 275.602 407.2 292.012 407.2C292.472 407.2 292.942 407.2 293.402 407.2C310.642 406.2 323.482 384.33 323.612 384.11L325.342 385.11C324.802 386.05 311.832 408.18 293.522 409.19C292.992 409.18 292.482 409.2 291.972 409.2Z" fill="black"/>
<path d="M148.491 421.201L146.641 421.962L172.422 484.604L174.272 483.843L148.491 421.201Z" fill="black"/>
<path d="M542.302 171.5C544.032 165.67 533.392 157.1 528.072 164.57C522.752 172.04 519.672 199.05 526.722 196.57C533.772 194.09 539.702 180.32 542.302 171.5Z" fill="white"/>
<path d="M525.872 197.8C525.375 197.794 524.886 197.668 524.448 197.433C524.009 197.198 523.633 196.861 523.352 196.45C519.502 191.3 522.653 170.5 527.263 164.02C529.663 160.64 533.422 159.76 537.322 161.66C541.222 163.56 544.423 167.89 543.263 171.82C542.583 174.12 536.342 194.38 527.052 197.59C526.673 197.725 526.275 197.796 525.872 197.8ZM533.362 162.69C532.468 162.696 531.59 162.927 530.808 163.362C530.027 163.798 529.368 164.423 528.892 165.18C524.432 171.44 521.893 191.11 524.953 195.25C525.094 195.493 525.321 195.675 525.59 195.758C525.858 195.841 526.148 195.821 526.402 195.7C532.332 193.7 538.182 181.94 541.352 171.25C542.092 168.73 539.803 165.09 536.453 163.46C535.494 162.974 534.437 162.71 533.362 162.69Z" fill="black"/>
<path d="M525.422 169.28C526.122 163.28 514.152 156.63 510.202 164.9C506.252 173.17 507.862 200.31 514.392 196.7C520.922 193.09 524.352 178.39 525.422 169.28Z" fill="white"/>
<path d="M513.212 198.03C512.379 198 511.591 197.64 511.022 197.03C506.342 192.62 505.863 171.6 509.283 164.42C511.073 160.68 514.623 159.16 518.793 160.36C522.793 161.52 526.862 165.28 526.392 169.36C526.122 171.75 523.462 192.79 514.862 197.54C514.364 197.844 513.796 198.013 513.212 198.03ZM516.132 162.03C515.063 162.01 514.013 162.315 513.12 162.904C512.228 163.493 511.534 164.339 511.132 165.33C507.822 172.27 508.672 192.09 512.432 195.63C512.612 195.845 512.867 195.985 513.145 196.02C513.423 196.055 513.705 195.984 513.932 195.82C519.422 192.82 523.172 180.25 524.452 169.17C524.752 166.56 521.873 163.36 518.283 162.33C517.583 162.133 516.859 162.033 516.132 162.03Z" fill="black"/>
<path d="M508.822 167.06C508.072 161.06 494.883 157.44 493.003 166.41C491.123 175.38 499.112 201.41 504.602 196.31C510.092 191.21 509.952 176.16 508.822 167.06Z" fill="white"/>
<path d="M503.122 197.96C502.527 197.951 501.944 197.785 501.432 197.48C495.842 194.31 490.433 173.99 492.023 166.21C492.873 162.15 496.022 159.82 500.302 160.01C504.582 160.2 509.302 162.88 509.812 166.94C510.112 169.32 512.503 190.39 505.283 197.05C504.704 197.616 503.932 197.941 503.122 197.96ZM499.892 161.96C498.509 161.858 497.138 162.275 496.045 163.129C494.953 163.983 494.217 165.213 493.982 166.58C492.412 174.1 497.982 193.15 502.422 195.7C502.646 195.87 502.925 195.948 503.204 195.918C503.483 195.888 503.74 195.753 503.922 195.54C508.542 191.29 509.212 178.21 507.832 167.15C507.502 164.54 503.952 162.15 500.222 161.97L499.892 161.96Z" fill="black"/>
<path d="M501.422 143C501.226 143 501.034 142.942 500.871 142.833C500.707 142.725 500.579 142.571 500.502 142.39L494.502 128.39C494.411 128.148 494.416 127.881 494.518 127.643C494.619 127.405 494.809 127.216 495.047 127.115C495.285 127.014 495.553 127.009 495.794 127.102C496.036 127.194 496.232 127.376 496.342 127.61L502.342 141.61C502.446 141.854 502.448 142.129 502.348 142.375C502.249 142.62 502.056 142.816 501.812 142.92C501.689 142.972 501.556 143 501.422 143Z" fill="black"/>
<path d="M516.422 137C516.157 137 515.903 136.895 515.715 136.707C515.528 136.519 515.422 136.265 515.422 136V123C515.422 122.735 515.528 122.481 515.715 122.293C515.903 122.105 516.157 122 516.422 122C516.688 122 516.942 122.105 517.129 122.293C517.317 122.481 517.422 122.735 517.422 123V136C517.422 136.265 517.317 136.519 517.129 136.707C516.942 136.895 516.688 137 516.422 137Z" fill="black"/>
<path d="M533.422 143C533.299 143.001 533.176 142.977 533.062 142.93C532.816 142.834 532.618 142.644 532.511 142.402C532.404 142.161 532.398 141.886 532.493 141.64L537.493 128.64C537.533 128.508 537.599 128.386 537.689 128.282C537.778 128.177 537.888 128.092 538.011 128.032C538.135 127.971 538.27 127.937 538.407 127.932C538.545 127.926 538.682 127.949 538.81 127.998C538.938 128.048 539.055 128.124 539.153 128.22C539.251 128.317 539.327 128.433 539.378 128.561C539.429 128.689 539.453 128.826 539.449 128.963C539.444 129.101 539.411 129.236 539.352 129.36L534.352 142.36C534.28 142.548 534.152 142.709 533.986 142.824C533.82 142.938 533.624 142.999 533.422 143Z" fill="black"/>
<path d="M297.422 353C297.422 353 309.422 360 323.422 355L297.422 353Z" fill="white"/>
<path d="M312.912 357.82C307.332 357.82 301.837 356.446 296.912 353.82C296.785 353.762 296.671 353.679 296.578 353.574C296.485 353.47 296.415 353.347 296.372 353.214C296.329 353.08 296.315 352.94 296.33 352.8C296.345 352.661 296.389 352.527 296.46 352.406C296.53 352.285 296.625 352.18 296.738 352.098C296.852 352.016 296.981 351.959 297.118 351.93C297.255 351.901 297.396 351.902 297.533 351.931C297.67 351.96 297.799 352.018 297.912 352.1C298.032 352.16 309.702 358.79 323.072 354.02C323.197 353.971 323.33 353.947 323.463 353.951C323.597 353.954 323.729 353.984 323.851 354.039C323.972 354.094 324.082 354.173 324.173 354.271C324.264 354.369 324.334 354.485 324.379 354.61C324.425 354.736 324.445 354.87 324.438 355.003C324.43 355.137 324.397 355.267 324.338 355.388C324.28 355.508 324.198 355.615 324.097 355.703C323.997 355.791 323.879 355.858 323.752 355.9C320.276 357.158 316.609 357.808 312.912 357.82Z" fill="black"/>
<path d="M421.422 393.35H419.422V473.02H421.422V393.35Z" fill="black"/>
<path d="M614.642 518.43L613.182 362.5L677.182 340.12C668.982 302.52 653.382 251.49 626.302 249.7C599.222 247.91 553.302 248.81 553.302 248.81C553.302 248.81 547.552 277.45 522.112 277.45C498.262 277.45 489.282 248.81 489.282 248.81C489.282 248.81 444.212 248.25 417.132 250.04C390.052 251.83 374.452 302.86 366.242 340.46L429.442 360.16L425.982 516.09L614.642 518.43Z" fill="#FCE054"/>
<path d="M429.348 327.695L428.487 365.936L430.487 365.981L431.348 327.741L429.348 327.695Z" fill="black"/>
<path d="M614.182 327.58H612.182V362.5H614.182V327.58Z" fill="black"/>
<path d="M523.422 283.83H522.052C485.482 282.92 481.512 249.2 481.482 248.83L483.482 248.62C483.622 249.94 487.322 280.94 522.112 281.81C532.682 282.08 541.112 279.22 547.112 273.33C557.022 263.66 557.112 248.88 557.112 248.73H559.112C559.112 249.37 559.022 264.48 548.502 274.73C542.362 280.78 533.922 283.83 523.422 283.83Z" fill="black"/>
<path d="M368.512 329.66L367.912 331.567L429.236 350.868L429.837 348.96L368.512 329.66Z" fill="black"/>
<path d="M674.826 329.701L612.929 351.062L613.581 352.953L675.479 331.591L674.826 329.701Z" fill="black"/>
<path d="M474.652 358.89V377.61H469.342V328.09H481.812C486.666 328.09 490.426 329.38 493.092 331.96C495.759 334.54 497.092 338.177 497.092 342.87C497.172 344.993 496.818 347.11 496.053 349.093C495.288 351.075 494.127 352.88 492.642 354.4C489.682 357.4 485.682 358.897 480.642 358.89H474.652ZM474.652 333.34V353.64H480.232C483.906 353.64 486.706 352.727 488.632 350.9C490.562 349.07 491.532 346.48 491.532 343.15C491.532 336.61 487.986 333.34 480.892 333.34H474.652Z" fill="black"/>
<path d="M475.652 378.61H468.342V327.09H481.812C486.912 327.09 490.942 328.48 493.812 331.24C496.682 334 498.122 337.91 498.122 342.87C498.199 345.125 497.819 347.371 497.004 349.475C496.19 351.578 494.958 353.495 493.382 355.11C490.242 358.28 485.952 359.89 480.662 359.89H475.662L475.652 378.61ZM470.342 376.61H473.652V357.89H480.652C485.392 357.89 489.192 356.48 491.952 353.7C493.339 352.268 494.423 350.571 495.138 348.71C495.853 346.849 496.184 344.862 496.112 342.87C496.112 338.48 494.862 335.05 492.412 332.67C489.962 330.29 486.412 329.09 481.822 329.09H470.352L470.342 376.61ZM480.232 354.61H473.652V332.31H480.892C488.502 332.31 492.532 336.05 492.532 343.12C492.532 346.72 491.452 349.57 489.322 351.59C487.192 353.61 484.142 354.64 480.232 354.64V354.61ZM475.652 352.61H480.232C483.622 352.61 486.232 351.78 487.942 350.14C489.652 348.5 490.532 346.14 490.532 343.14C490.532 337.14 487.462 334.33 480.892 334.33H475.652V352.61Z" fill="black"/>
<path d="M544.192 377.61H537.862L530.262 363.73C529.667 362.589 528.999 361.486 528.262 360.43C527.686 359.611 527.014 358.862 526.262 358.2C525.605 357.649 524.853 357.222 524.042 356.94C523.176 356.665 522.271 356.53 521.362 356.54H517.002V377.61H511.682V328.09H525.232C527.093 328.072 528.946 328.345 530.722 328.9C532.338 329.404 533.827 330.246 535.092 331.37C536.354 332.512 537.342 333.924 537.982 335.5C538.702 337.34 539.042 339.306 538.982 341.28C538.999 342.891 538.759 344.494 538.272 346.03C537.83 347.418 537.154 348.72 536.272 349.88C535.39 351.015 534.317 351.99 533.102 352.76C531.816 353.581 530.414 354.205 528.942 354.61V354.75C529.658 355.086 530.33 355.509 530.942 356.01C531.53 356.512 532.066 357.072 532.542 357.68C533.089 358.381 533.59 359.116 534.042 359.88C534.542 360.69 535.042 361.64 535.702 362.73L544.192 377.61ZM516.972 333.34V351.34H524.182C525.443 351.353 526.694 351.129 527.872 350.68C528.986 350.263 529.997 349.61 530.836 348.766C531.675 347.922 532.322 346.907 532.732 345.79C533.219 344.514 533.456 343.156 533.432 341.79C533.497 340.65 533.32 339.51 532.913 338.443C532.507 337.377 531.879 336.408 531.072 335.6C529.502 334.11 527.222 333.37 524.252 333.37L516.972 333.34Z" fill="black"/>
<path d="M545.922 378.61H537.272L529.382 364.21C528.787 363.1 528.119 362.031 527.382 361.01C526.852 360.272 526.234 359.6 525.542 359.01C524.988 358.532 524.346 358.165 523.652 357.93C522.89 357.687 522.093 357.569 521.292 357.58H517.932V378.65H510.612V327.13H525.162C527.129 327.113 529.086 327.403 530.962 327.99C532.706 328.538 534.314 329.448 535.682 330.66C537.06 331.9 538.14 333.435 538.842 335.15C539.622 337.112 540.003 339.209 539.962 341.32C539.978 343.036 539.721 344.744 539.202 346.38C538.714 347.878 537.974 349.281 537.012 350.53C536.063 351.755 534.909 352.806 533.602 353.64C532.806 354.149 531.966 354.588 531.092 354.95L531.522 355.29C532.158 355.834 532.738 356.44 533.252 357.1C533.828 357.832 534.356 358.6 534.832 359.4C535.332 360.22 535.892 361.18 536.512 362.27L545.922 378.61ZM538.452 376.61H542.452L534.792 363.22C534.186 362.153 533.636 361.213 533.142 360.4C532.707 359.67 532.226 358.969 531.702 358.3C531.271 357.743 530.785 357.231 530.252 356.77C529.708 356.329 529.114 355.953 528.482 355.65L527.912 355.38V353.85L528.642 353.65C530.018 353.27 531.329 352.687 532.532 351.92C533.65 351.21 534.638 350.314 535.452 349.27C536.272 348.197 536.904 346.993 537.322 345.71C537.778 344.278 538.001 342.782 537.982 341.28C538.013 339.435 537.673 337.602 536.982 335.89C536.396 334.449 535.494 333.157 534.342 332.11C533.181 331.086 531.818 330.317 530.342 329.85C528.665 329.332 526.918 329.075 525.162 329.09H512.612V376.61H515.932V355.5H521.292C522.31 355.492 523.322 355.643 524.292 355.95C525.222 356.271 526.083 356.763 526.832 357.4C527.66 358.106 528.392 358.916 529.012 359.81C529.779 360.899 530.477 362.034 531.102 363.21L538.452 376.61ZM524.182 352.29H515.972V332.34H524.252C527.472 332.34 530.002 333.18 531.752 334.84C532.662 335.739 533.371 336.821 533.833 338.013C534.294 339.206 534.499 340.483 534.432 341.76C534.45 343.249 534.189 344.728 533.662 346.12C533.184 347.375 532.448 348.516 531.502 349.47C530.574 350.394 529.459 351.11 528.232 351.57C526.939 352.059 525.565 352.303 524.182 352.29ZM517.972 350.29H524.182C525.319 350.304 526.448 350.107 527.512 349.71C528.478 349.334 529.358 348.77 530.102 348.05C530.848 347.291 531.427 346.385 531.802 345.39C532.237 344.23 532.451 342.999 532.432 341.76C532.499 340.755 532.35 339.747 531.997 338.804C531.643 337.861 531.093 337.004 530.382 336.29C529.012 335 526.952 334.34 524.252 334.34H517.972V350.29Z" fill="black"/>
<path d="M569.732 379.44C563.292 379.44 558.136 377.127 554.262 372.5C550.389 367.873 548.452 361.853 548.452 354.44C548.452 346.44 550.426 340.084 554.372 335.37C558.319 330.657 563.692 328.287 570.492 328.26C573.378 328.166 576.246 328.741 578.873 329.94C581.499 331.139 583.812 332.929 585.632 335.17C589.459 339.77 591.376 345.79 591.382 353.23C591.382 361.31 589.419 367.697 585.492 372.39C581.566 377.083 576.312 379.433 569.732 379.44ZM570.112 333.51C567.868 333.459 565.643 333.942 563.622 334.921C561.602 335.9 559.843 337.346 558.492 339.14C555.512 342.893 554.022 347.82 554.022 353.92C554.022 360.02 555.476 364.93 558.382 368.65C559.688 370.421 561.401 371.852 563.377 372.822C565.352 373.791 567.532 374.271 569.732 374.22C571.973 374.318 574.205 373.888 576.249 372.966C578.294 372.044 580.093 370.654 581.502 368.91C584.369 365.363 585.806 360.4 585.812 354.02C585.812 347.48 584.419 342.427 581.632 338.86C580.281 337.11 578.53 335.709 576.525 334.776C574.521 333.844 572.321 333.406 570.112 333.5V333.51Z" fill="black"/>
<path d="M569.732 380.44C566.648 380.543 563.581 379.939 560.766 378.674C557.951 377.409 555.463 375.515 553.492 373.14C549.492 368.35 547.492 362.06 547.492 354.44C547.492 346.27 549.562 339.64 553.642 334.73C557.722 329.82 563.452 327.26 570.532 327.26C573.559 327.17 576.565 327.775 579.32 329.031C582.075 330.286 584.505 332.157 586.422 334.5C590.422 339.26 592.422 345.56 592.422 353.2C592.422 361.48 590.362 368.15 586.302 373.01C582.242 377.87 576.592 380.44 569.732 380.44ZM570.492 329.26C563.942 329.26 558.922 331.47 555.142 336.01C551.362 340.55 549.452 346.75 549.452 354.44C549.452 361.57 551.332 367.44 555.032 371.86C558.732 376.28 563.542 378.44 569.732 378.44C575.922 378.44 580.962 376.25 584.732 371.75C588.502 367.25 590.392 361.03 590.392 353.23C590.392 346.07 588.532 340.23 584.882 335.81C583.159 333.673 580.961 331.969 578.463 330.832C575.965 329.694 573.235 329.156 570.492 329.26ZM569.732 375.26C567.377 375.304 565.044 374.782 562.932 373.738C560.819 372.694 558.988 371.158 557.592 369.26C554.592 365.38 553.022 360.26 553.022 353.92C553.022 347.58 554.602 342.43 557.702 338.52C559.15 336.611 561.029 335.072 563.187 334.029C565.344 332.986 567.717 332.469 570.112 332.52C572.473 332.426 574.822 332.898 576.964 333.897C579.105 334.895 580.977 336.391 582.422 338.26C585.332 341.99 586.812 347.26 586.812 354.03C586.812 360.61 585.292 365.83 582.282 369.54C580.778 371.4 578.86 372.882 576.681 373.868C574.502 374.854 572.122 375.317 569.732 375.22V375.26ZM570.112 334.55C568.017 334.493 565.939 334.941 564.053 335.854C562.166 336.768 560.527 338.121 559.272 339.8C556.452 343.35 555.022 348.12 555.022 353.96C555.022 359.8 556.422 364.55 559.172 368.07C560.38 369.727 561.972 371.065 563.812 371.969C565.651 372.873 567.683 373.316 569.732 373.26C574.432 373.26 578.032 371.65 580.732 368.32C583.432 364.99 584.812 360.17 584.812 354.06C584.812 347.78 583.472 342.89 580.812 339.52C578.152 336.15 574.722 334.5 570.112 334.5V334.55Z" fill="black"/>
<path d="M452.182 316.09L448.542 309.28L441.332 309.59L447.572 305.63L447.282 297.76L450.912 304.56L458.132 304.25L451.892 308.22L452.182 316.09Z" fill="white"/>
<path d="M584.382 344.78L584.502 338.78L579.702 335.85L585.202 335.98L587.892 330.75L587.762 336.75L592.562 339.68L587.062 339.54L584.382 344.78Z" fill="white"/>
<path d="M554.942 297.33L555.062 291.33L550.262 288.4L555.762 288.53L558.452 283.3L558.322 289.3L563.122 292.23L557.622 292.09L554.942 297.33Z" fill="white"/>
<path d="M504.052 404.76L504.182 398.76L499.372 395.83L504.872 395.97L507.562 390.73L507.442 396.73L512.242 399.66L506.742 399.53L504.052 404.76Z" fill="white"/>
<path d="M586.762 426.66L586.842 423.16L584.042 421.46L587.242 421.53L588.812 418.48L588.742 421.98L591.542 423.69L588.332 423.61L586.762 426.66Z" fill="white"/>
<path d="M485.002 448.15L485.072 444.65L482.272 442.94L485.482 443.02L487.052 439.97L486.972 443.47L489.772 445.17L486.562 445.1L485.002 448.15Z" fill="white"/>
<path d="M553.262 245.79H490.072V251.79H553.262V245.79Z" fill="black"/>
<path d="M520.952 250.66L516.652 246.48C541.012 221.37 539.152 205.67 535.882 198.54C532.332 190.81 524.512 186.99 518.982 187.33C511.742 187.77 504.982 192.03 502.412 197.68C500.412 202.08 501.252 206.73 504.732 211.12L500.042 214.85C495.142 208.69 494.042 201.72 496.932 195.24C500.382 187.5 509.092 181.92 518.622 181.34C526.362 180.87 536.622 185.77 541.332 196.04C545.252 204.56 547.802 222.98 520.952 250.66Z" fill="black"/>
<path d="M553.422 176.5C555.672 170.85 545.852 161.34 539.872 168.3C533.892 175.26 528.372 201.87 535.612 200.09C542.852 198.31 550.032 184.99 553.422 176.5Z" fill="white"/>
<path d="M534.962 201.14C534.414 201.139 533.876 200.991 533.405 200.712C532.933 200.432 532.546 200.031 532.282 199.55C528.922 194.07 533.952 173.65 539.132 167.62C541.832 164.47 545.662 163.94 549.372 166.18C553.082 168.42 555.872 173.04 554.372 176.84C553.482 179.07 545.372 198.68 535.872 201.03C535.575 201.106 535.269 201.142 534.962 201.14ZM544.832 166.83C544.022 166.842 543.224 167.035 542.499 167.397C541.774 167.759 541.139 168.279 540.642 168.92C535.642 174.75 531.282 194.11 533.992 198.5C534.105 198.757 534.312 198.962 534.57 199.071C534.828 199.181 535.119 199.188 535.382 199.09C541.482 197.59 548.382 186.46 552.502 176.09L553.432 176.46L552.502 176.09C553.502 173.65 551.502 169.82 548.332 167.88C547.279 167.226 546.071 166.864 544.832 166.83Z" fill="black"/>
<path d="M591.422 576H449.422C448.892 576 448.383 575.789 448.008 575.414C447.633 575.039 447.422 574.53 447.422 574C447.422 573.47 447.633 572.961 448.008 572.586C448.383 572.211 448.892 572 449.422 572H591.422C591.953 572 592.462 572.211 592.837 572.586C593.212 572.961 593.422 573.47 593.422 574C593.422 574.53 593.212 575.039 592.837 575.414C592.462 575.789 591.953 576 591.422 576Z" fill="black"/>
<path d="M591.422 603H449.422C448.892 603 448.383 602.789 448.008 602.414C447.633 602.039 447.422 601.53 447.422 601C447.422 600.47 447.633 599.961 448.008 599.586C448.383 599.211 448.892 599 449.422 599H591.422C591.953 599 592.462 599.211 592.837 599.586C593.212 599.961 593.422 600.47 593.422 601C593.422 601.53 593.212 602.039 592.837 602.414C592.462 602.789 591.953 603 591.422 603Z" fill="black"/>
<path d="M108.422 386.5C105.752 386.5 103.142 385.708 100.922 384.225C98.7022 382.742 96.9718 380.633 95.9501 378.166C94.9283 375.7 94.6608 372.985 95.1817 370.366C95.7026 367.748 96.9886 365.342 98.8766 363.454C100.765 361.566 103.17 360.28 105.789 359.759C108.407 359.238 111.122 359.506 113.589 360.528C116.056 361.549 118.164 363.28 119.647 365.5C121.131 367.72 121.922 370.33 121.922 373C121.917 376.579 120.493 380.01 117.963 382.54C115.432 385.071 112.001 386.495 108.422 386.5ZM108.422 362.5C106.346 362.5 104.316 363.116 102.589 364.27C100.862 365.423 99.5165 367.063 98.7218 368.982C97.9271 370.901 97.719 373.012 98.1241 375.048C98.5293 377.085 99.5295 378.956 100.998 380.425C102.466 381.893 104.337 382.893 106.374 383.298C108.411 383.704 110.522 383.496 112.441 382.701C114.359 381.906 115.999 380.56 117.153 378.834C118.307 377.107 118.922 375.077 118.922 373C118.92 370.216 117.813 367.547 115.844 365.578C113.876 363.61 111.206 362.503 108.422 362.5Z" fill="#47CEC0"/>
<path d="M143.922 374C143.741 374.002 143.561 373.967 143.392 373.9C143.208 373.831 143.039 373.726 142.895 373.592C142.752 373.457 142.636 373.296 142.555 373.116C142.474 372.937 142.43 372.743 142.424 372.546C142.419 372.35 142.452 372.154 142.523 371.97L153.523 342.97C153.583 342.774 153.682 342.592 153.816 342.436C153.949 342.281 154.113 342.154 154.297 342.064C154.481 341.973 154.681 341.922 154.886 341.912C155.091 341.903 155.296 341.935 155.487 342.008C155.679 342.081 155.854 342.192 156.001 342.334C156.148 342.477 156.264 342.649 156.343 342.838C156.421 343.028 156.459 343.231 156.456 343.436C156.452 343.641 156.407 343.843 156.322 344.03L145.322 373.03C145.214 373.314 145.022 373.558 144.772 373.731C144.523 373.904 144.226 373.998 143.922 374Z" fill="#FCE054"/>
<path d="M391.922 638C391.67 638.002 391.421 637.937 391.202 637.81C390.966 637.682 390.769 637.493 390.632 637.262C390.495 637.032 390.422 636.768 390.422 636.5V613.5C390.423 613.237 390.493 612.978 390.625 612.75C390.756 612.522 390.945 612.332 391.172 612.2C391.4 612.067 391.659 611.998 391.922 611.998C392.186 611.998 392.445 612.067 392.672 612.2L411.672 623.2C411.897 623.329 412.084 623.514 412.215 623.737C412.347 623.959 412.419 624.212 412.424 624.471C412.429 624.73 412.367 624.985 412.244 625.213C412.121 625.44 411.941 625.632 411.722 625.77L392.722 637.77C392.482 637.92 392.205 637.999 391.922 638ZM393.422 616.1V633.78L408.022 624.56L393.422 616.1Z" fill="#FCE054"/>
<path d="M606.922 621C606.549 620.995 606.191 620.849 605.922 620.59C605.633 620.317 605.465 619.94 605.453 619.542C605.442 619.145 605.589 618.759 605.862 618.47L634.922 587.47L605.832 554.47C605.567 554.172 605.431 553.78 605.455 553.382C605.478 552.983 605.659 552.61 605.957 552.345C606.256 552.08 606.647 551.944 607.046 551.967C607.444 551.991 607.817 552.172 608.082 552.47L638.082 586.47C638.328 586.745 638.464 587.101 638.464 587.47C638.464 587.839 638.328 588.195 638.082 588.47L608.082 620.47C607.94 620.639 607.763 620.774 607.562 620.865C607.361 620.957 607.143 621.003 606.922 621Z" fill="#47CEC0"/>
</svg>
