<svg width="700" height="700" viewBox="0 0 700 700" fill="none" xmlns="http://www.w3.org/2000/svg">
<rect width="700" height="700" fill="white"/>
<path d="M257.648 109.282L99.9984 155.054L136.859 282.011L294.509 236.239L257.648 109.282Z" fill="#ED5564"/>
<path d="M257.648 109.272L99.9984 155.044L104.05 168.998L261.699 123.226L257.648 109.272Z" fill="#FCE054"/>
<path d="M125.791 156.113C125.568 156.122 125.348 156.056 125.167 155.925C124.986 155.795 124.853 155.607 124.791 155.393C124.717 155.138 124.747 154.865 124.874 154.632C125.002 154.4 125.216 154.227 125.471 154.153L165.931 142.403C166.186 142.329 166.459 142.359 166.692 142.486C166.924 142.614 167.097 142.828 167.171 143.083C167.245 143.338 167.215 143.611 167.088 143.844C166.96 144.076 166.746 144.249 166.491 144.323L126.031 156.073C125.953 156.097 125.872 156.111 125.791 156.113Z" fill="black"/>
<path d="M142.081 220.343C148.446 218.545 155.187 218.562 161.543 220.392C167.899 222.222 173.617 225.792 178.052 230.7C182.486 235.608 185.46 241.657 186.639 248.165C187.817 254.674 187.153 261.382 184.721 267.533L189.421 266.203C192.113 257.562 191.754 248.259 188.404 239.851C185.054 231.444 178.917 224.443 171.02 220.021C163.123 215.6 153.946 214.027 145.028 215.566C136.109 217.104 127.99 221.661 122.031 228.473L123.361 233.183C128.016 226.958 134.597 222.444 142.081 220.343Z" fill="white"/>
<path d="M171.541 183.893C171.177 183.892 170.826 183.759 170.553 183.518C170.28 183.277 170.104 182.946 170.057 182.585C170.011 182.224 170.097 181.858 170.3 181.556C170.503 181.254 170.809 181.036 171.161 180.943L243.161 161.943C243.54 161.859 243.937 161.924 244.268 162.126C244.6 162.329 244.84 162.651 244.938 163.027C245.036 163.402 244.985 163.801 244.796 164.14C244.606 164.479 244.293 164.731 243.921 164.843L171.921 183.843C171.797 183.874 171.669 183.891 171.541 183.893Z" fill="white"/>
<path d="M212.041 194.393C211.676 194.395 211.323 194.263 211.048 194.023C210.774 193.783 210.596 193.451 210.548 193.09C210.5 192.728 210.586 192.361 210.789 192.058C210.992 191.755 211.298 191.536 211.651 191.443L251.151 180.943C251.341 180.892 251.54 180.879 251.735 180.904C251.931 180.93 252.12 180.994 252.29 181.092C252.461 181.19 252.611 181.321 252.731 181.478C252.851 181.634 252.94 181.813 252.991 182.003C253.042 182.194 253.055 182.392 253.03 182.588C253.004 182.783 252.94 182.972 252.842 183.143C252.744 183.313 252.612 183.463 252.456 183.583C252.3 183.704 252.121 183.792 251.931 183.843L212.431 194.343C212.303 194.374 212.172 194.391 212.041 194.393Z" fill="white"/>
<path d="M380.971 174.643C401.601 136.643 342.971 83.4032 295.161 185.503C231.161 197.003 267.301 215.383 239.761 239.953C226.321 249.873 220.011 273.373 232.171 291.953C252.801 323.453 213.701 327.793 213.701 347.343C213.701 366.893 273.441 364.723 327.751 356.033C382.061 347.343 430.931 373.413 452.651 360.383C474.371 347.353 426.591 314.763 429.841 295.213C433.091 275.663 451.571 273.483 446.141 246.333C443.541 215.333 403.961 173.823 380.971 174.643Z" fill="black"/>
<path d="M401.331 231.733C406.041 213.733 418.331 206.133 423.551 227.863C428.771 249.593 409.021 278.393 402.341 271.593" fill="white"/>
<path d="M404.751 273.603C404.168 273.608 403.589 273.495 403.051 273.27C402.513 273.045 402.026 272.712 401.621 272.293C401.529 272.199 401.456 272.088 401.407 271.966C401.358 271.844 401.334 271.714 401.335 271.583C401.337 271.451 401.364 271.321 401.415 271.2C401.467 271.08 401.542 270.97 401.636 270.878C401.73 270.786 401.841 270.714 401.963 270.665C402.085 270.616 402.215 270.591 402.347 270.593C402.478 270.594 402.608 270.621 402.729 270.673C402.849 270.724 402.959 270.799 403.051 270.893C403.991 271.893 405.361 271.843 407.131 270.893C414.691 266.703 426.681 245.283 422.581 228.123C420.671 220.123 417.661 215.663 414.121 215.633C409.711 215.633 404.881 222.353 402.351 232.013C402.285 232.27 402.119 232.491 401.89 232.626C401.661 232.761 401.388 232.799 401.131 232.733C400.874 232.667 400.653 232.501 400.518 232.272C400.383 232.043 400.345 231.77 400.411 231.513C403.211 220.803 408.721 213.633 414.121 213.633H414.191C417.411 213.633 421.821 216.123 424.581 227.633C428.951 245.953 416.361 268.073 408.151 272.633C407.119 273.242 405.948 273.576 404.751 273.603Z" fill="black"/>
<path d="M284.661 231.733C279.271 213.733 265.161 206.133 259.221 227.863C253.281 249.593 275.861 278.393 283.511 271.593" fill="white"/>
<path d="M280.771 273.603C278.938 273.507 277.166 272.909 275.651 271.873C265.491 265.573 253.711 244.203 258.251 227.593C261.561 215.503 267.021 213.593 269.981 213.593H270.071C276.181 213.593 282.411 220.743 285.611 231.433C285.659 231.561 285.68 231.697 285.673 231.834C285.666 231.97 285.631 232.104 285.57 232.226C285.51 232.348 285.425 232.457 285.321 232.545C285.216 232.634 285.095 232.7 284.965 232.74C284.834 232.779 284.696 232.792 284.561 232.776C284.425 232.761 284.294 232.718 284.176 232.65C284.057 232.582 283.954 232.49 283.872 232.38C283.791 232.271 283.732 232.146 283.701 232.013C280.801 222.323 275.211 215.593 270.071 215.593H270.001C265.871 215.643 262.381 220.083 260.181 228.113C255.871 243.883 267.061 264.183 276.711 270.163C278.561 271.313 281.121 272.363 282.841 270.833C283.039 270.657 283.298 270.567 283.562 270.582C283.827 270.597 284.074 270.716 284.251 270.913C284.34 271.011 284.408 271.126 284.452 271.251C284.496 271.375 284.515 271.508 284.507 271.64C284.5 271.772 284.466 271.901 284.409 272.02C284.351 272.139 284.27 272.245 284.171 272.333C283.237 273.167 282.023 273.62 280.771 273.603Z" fill="black"/>
<path d="M448.951 609.093L449.401 533.253L518.051 532.583C526.701 335.653 429.051 366.813 273.721 371.433C179.191 374.053 184.221 499.673 187.331 548.663H249.001L248.401 606.773" fill="white"/>
<path d="M449.951 609.103H447.951L448.401 532.283L517.101 531.613C520.011 462.863 510.021 419.613 485.691 395.433C453.501 363.503 397.191 366.433 325.911 370.143C309.211 371.013 291.911 371.913 273.751 372.453C250.941 373.083 232.361 381.103 218.501 396.283C181.651 436.663 186.501 519.193 188.271 547.683H250.011L249.401 606.803H247.401L247.991 549.703H186.401L186.341 548.763C184.541 520.893 179.191 436.373 217.021 394.893C231.261 379.293 250.331 371.053 273.691 370.403C291.871 369.863 309.121 368.963 325.801 368.093C397.581 364.363 454.281 361.413 487.101 393.963C511.971 418.633 522.101 462.693 519.101 532.593V533.543L450.481 534.213L449.951 609.103Z" fill="black"/>
<path d="M312.541 325.103V370.203C312.541 370.203 317.971 387.523 342.951 386.433C367.931 385.343 369.021 367.973 369.021 367.973V325.613L312.541 325.103Z" fill="white"/>
<path d="M340.751 387.483C317.191 387.483 311.641 370.683 311.591 370.483C311.576 370.384 311.576 370.283 311.591 370.183V325.083C311.591 324.951 311.618 324.82 311.67 324.698C311.721 324.576 311.796 324.466 311.891 324.373C311.981 324.276 312.091 324.2 312.214 324.15C312.337 324.1 312.469 324.077 312.601 324.083L369.081 324.593C369.346 324.593 369.6 324.698 369.788 324.886C369.976 325.074 370.081 325.328 370.081 325.593V367.953C370.081 368.193 368.641 386.303 343.081 387.413C342.231 387.463 341.481 387.483 340.751 387.483ZM313.541 370.043C314.131 371.743 319.941 386.443 342.911 385.433C366.641 384.433 367.981 368.583 368.021 367.903V326.603L313.541 326.103V370.043Z" fill="black"/>
<path d="M280.121 282.823C280.121 282.823 285.321 333.093 325.191 338.293C424.891 370.523 423.601 181.733 354.651 175.363C276.901 159.683 274.611 246.623 280.121 282.823Z" fill="white"/>
<path d="M337.131 175.493C342.884 175.54 348.618 176.153 354.251 177.323C354.324 177.333 354.398 177.333 354.471 177.323C373.171 179.053 384.371 194.413 390.471 206.983C398.471 223.433 402.471 245.123 401.471 266.503C400.541 286.603 395.281 304.793 386.651 317.743C376.961 332.273 363.191 339.963 346.831 339.963C339.686 339.857 332.601 338.639 325.831 336.353L325.481 336.273C309.691 334.213 297.621 324.643 289.591 307.823C285.85 299.837 283.338 291.331 282.141 282.593C282.146 282.56 282.146 282.526 282.141 282.493C279.961 267.555 279.749 252.396 281.511 237.403C283.921 217.813 289.741 202.533 298.811 191.983C308.231 180.983 321.141 175.463 337.171 175.463L337.131 175.493ZM337.171 173.463C276.621 173.463 275.101 249.543 280.171 282.793C280.171 282.793 285.371 333.063 325.241 338.263C332.216 340.62 339.518 341.869 346.881 341.963C424.331 341.963 418.241 181.203 354.701 175.333C348.937 174.133 343.068 173.506 337.181 173.463H337.171Z" fill="black"/>
<path d="M337.541 274.563C337.541 274.563 315.821 279.993 334.741 226.293L337.541 274.563Z" fill="white"/>
<path d="M335.961 275.723C334.739 275.739 333.528 275.494 332.409 275.004C331.29 274.514 330.288 273.791 329.471 272.883C323.621 266.463 325.071 250.673 333.781 225.953C333.818 225.822 333.882 225.699 333.969 225.593C334.056 225.488 334.163 225.401 334.285 225.338C334.407 225.276 334.54 225.239 334.676 225.23C334.813 225.22 334.949 225.239 335.078 225.285C335.207 225.331 335.325 225.403 335.425 225.496C335.525 225.59 335.605 225.703 335.659 225.828C335.714 225.953 335.742 226.089 335.743 226.225C335.743 226.362 335.715 226.497 335.661 226.623C325.161 256.423 327.291 267.483 330.931 271.513C331.721 272.377 332.72 273.022 333.833 273.387C334.945 273.751 336.133 273.822 337.281 273.593C337.538 273.528 337.811 273.568 338.039 273.704C338.266 273.84 338.431 274.061 338.496 274.318C338.561 274.575 338.521 274.848 338.385 275.076C338.249 275.304 338.028 275.468 337.771 275.533C337.177 275.666 336.57 275.73 335.961 275.723Z" fill="black"/>
<path d="M374.931 287.673C374.931 287.673 374.931 301.373 361.231 303.673L374.931 287.673Z" fill="white"/>
<path d="M361.231 304.653C360.966 304.674 360.703 304.589 360.5 304.417C360.298 304.244 360.172 303.998 360.151 303.733C360.13 303.468 360.215 303.205 360.387 303.002C360.56 302.8 360.806 302.674 361.071 302.653C373.751 300.543 373.931 288.183 373.931 287.653C373.931 287.388 374.036 287.134 374.224 286.946C374.411 286.759 374.666 286.653 374.931 286.653C375.196 286.653 375.45 286.759 375.638 286.946C375.825 287.134 375.931 287.388 375.931 287.653C375.931 287.793 375.761 302.223 361.401 304.653H361.231Z" fill="black"/>
<path d="M308.311 228.523C308.371 232.703 301.811 232.703 301.871 228.523C301.931 224.343 308.371 224.353 308.311 228.523Z" fill="black"/>
<path d="M374.811 228.523C374.871 232.703 368.311 232.703 368.371 228.523C368.431 224.343 374.871 224.353 374.811 228.523Z" fill="black"/>
<path d="M364.241 206.633C364.241 206.633 373.371 203.213 379.081 208.923L364.241 206.633Z" fill="white"/>
<path d="M379.081 209.893C378.949 209.892 378.818 209.866 378.696 209.814C378.574 209.763 378.463 209.687 378.371 209.593C373.201 204.423 364.681 207.513 364.591 207.543C364.468 207.589 364.336 207.611 364.204 207.606C364.073 207.602 363.943 207.571 363.823 207.516C363.703 207.461 363.595 207.384 363.506 207.287C363.416 207.19 363.347 207.077 363.301 206.953C363.21 206.705 363.222 206.431 363.332 206.191C363.443 205.952 363.643 205.765 363.891 205.673C364.291 205.523 373.691 202.093 379.791 208.183C379.932 208.323 380.028 208.502 380.067 208.696C380.106 208.891 380.086 209.093 380.01 209.277C379.934 209.46 379.805 209.616 379.64 209.726C379.474 209.836 379.28 209.894 379.081 209.893Z" fill="black"/>
<path d="M298.721 206.893C298.721 206.893 304.431 201.183 312.421 206.893H298.721Z" fill="white"/>
<path d="M312.421 207.893C312.212 207.892 312.01 207.825 311.841 207.703C304.661 202.583 299.631 207.393 299.421 207.603C299.233 207.79 298.978 207.895 298.712 207.894C298.447 207.893 298.193 207.787 298.006 207.598C297.819 207.41 297.714 207.155 297.715 206.89C297.716 206.624 297.823 206.37 298.011 206.183C298.081 206.123 304.421 199.943 313.011 206.073C313.186 206.195 313.317 206.37 313.386 206.572C313.454 206.775 313.456 206.994 313.391 207.197C313.327 207.4 313.198 207.577 313.026 207.703C312.853 207.828 312.644 207.895 312.431 207.893H312.421Z" fill="black"/>
<path d="M342.541 470.393C342.349 470.39 342.162 470.332 342.003 470.225C341.843 470.119 341.718 469.969 341.641 469.793L299.011 370.793C298.906 370.549 298.903 370.274 299.001 370.027C299.1 369.78 299.292 369.583 299.536 369.478C299.78 369.373 300.056 369.37 300.302 369.468C300.549 369.567 300.746 369.759 300.851 370.003L342.601 466.953L390.301 366.463C390.414 366.223 390.617 366.038 390.866 365.948C391.116 365.858 391.391 365.871 391.631 365.983C391.751 366.039 391.859 366.118 391.948 366.216C392.037 366.314 392.106 366.428 392.151 366.553C392.196 366.677 392.215 366.81 392.208 366.942C392.201 367.074 392.168 367.204 392.111 367.323L343.461 469.803C343.381 469.98 343.252 470.13 343.089 470.235C342.925 470.34 342.735 470.395 342.541 470.393Z" fill="black"/>
<path d="M318.191 412.863L342.541 386.393L368.541 410.393" fill="white"/>
<path d="M318.931 413.533L317.451 412.183L342.481 384.983L369.221 409.663L367.861 411.123L342.601 387.803L318.931 413.533Z" fill="black"/>
<path d="M337.167 393.408L335.168 393.46L336.85 458.138L338.849 458.086L337.167 393.408Z" fill="black"/>
<path d="M351.221 393.483H349.221V453.223H351.221V393.483Z" fill="black"/>
<path d="M402.651 243.603C402.651 243.603 412.541 218.393 419.541 228.393L402.651 243.603Z" fill="white"/>
<path d="M402.651 244.603C402.527 244.604 402.405 244.58 402.291 244.533C402.168 244.486 402.055 244.414 401.96 244.323C401.865 244.232 401.788 244.123 401.735 244.002C401.682 243.881 401.654 243.751 401.651 243.619C401.649 243.487 401.673 243.356 401.721 243.233C402.421 241.463 408.721 225.873 415.351 225.083C417.241 224.853 418.931 225.773 420.351 227.823C420.486 228.041 420.532 228.302 420.481 228.553C420.429 228.804 420.282 229.025 420.072 229.172C419.862 229.318 419.603 229.378 419.35 229.339C419.097 229.3 418.868 229.166 418.711 228.963C417.711 227.553 416.711 226.963 415.571 227.063C410.951 227.613 405.341 239.453 403.571 243.973C403.498 244.158 403.371 244.316 403.207 244.428C403.043 244.541 402.85 244.601 402.651 244.603Z" fill="black"/>
<path d="M278.961 242.133C278.961 242.133 274.541 217.393 266.541 224.393L278.961 242.133Z" fill="white"/>
<path d="M278.961 243.133C278.724 243.137 278.494 243.057 278.31 242.906C278.127 242.756 278.003 242.546 277.961 242.313C277.151 237.783 274.151 225.713 270.051 224.313C269.539 224.175 268.999 224.183 268.491 224.337C267.984 224.49 267.53 224.784 267.181 225.183C267.084 225.277 266.968 225.349 266.842 225.397C266.716 225.445 266.581 225.467 266.446 225.461C266.311 225.455 266.179 225.422 266.057 225.364C265.935 225.306 265.827 225.224 265.737 225.123C265.648 225.021 265.581 224.903 265.538 224.775C265.496 224.646 265.48 224.511 265.492 224.376C265.503 224.242 265.542 224.111 265.605 223.992C265.669 223.873 265.756 223.768 265.861 223.683C267.861 221.933 269.601 222.033 270.711 222.423C276.641 224.503 279.611 240.213 279.931 242.003C279.954 242.132 279.951 242.265 279.923 242.393C279.895 242.522 279.842 242.643 279.766 242.751C279.691 242.859 279.595 242.95 279.485 243.021C279.374 243.092 279.25 243.14 279.121 243.163L278.961 243.133Z" fill="black"/>
<path d="M113.231 163.113C115.639 163.113 117.591 161.161 117.591 158.753C117.591 156.345 115.639 154.393 113.231 154.393C110.823 154.393 108.871 156.345 108.871 158.753C108.871 161.161 110.823 163.113 113.231 163.113Z" fill="black"/>
<path d="M271.041 451.393C279.026 451.38 286.842 453.687 293.541 458.033V421.893C293.542 417.623 292.702 413.395 291.069 409.45C289.436 405.506 287.041 401.921 284.022 398.902C281.003 395.883 277.418 393.488 273.474 391.855C269.529 390.222 265.301 389.382 261.031 389.383H231.541C235.352 383.089 237.421 375.895 237.536 368.537C237.651 361.18 235.808 353.925 232.195 347.514C228.583 341.104 223.331 335.77 216.978 332.057C210.625 328.345 203.399 326.389 196.041 326.389C188.683 326.389 181.457 328.345 175.104 332.057C168.751 335.77 163.499 341.104 159.887 347.514C156.274 353.925 154.431 361.18 154.546 368.537C154.661 375.895 156.73 383.089 160.541 389.383H128.051C123.781 389.382 119.553 390.222 115.608 391.855C111.663 393.488 108.079 395.883 105.06 398.902C102.041 401.921 99.6462 405.506 98.0129 409.45C96.3796 413.395 95.5396 417.623 95.5409 421.893V554.893C95.5396 559.163 96.3796 563.391 98.0129 567.336C99.6462 571.281 102.041 574.865 105.06 577.884C108.079 580.903 111.663 583.298 115.608 584.931C119.553 586.564 123.781 587.404 128.051 587.403H261.051C265.319 587.402 269.545 586.56 273.487 584.925C277.43 583.291 281.012 580.896 284.029 577.877C287.046 574.858 289.439 571.275 291.071 567.331C292.703 563.387 293.542 559.161 293.541 554.893V527.763C288.12 531.265 281.957 533.454 275.541 534.156C269.126 534.859 262.635 534.056 256.584 531.81C250.534 529.565 245.09 525.939 240.686 521.221C236.283 516.503 233.04 510.823 231.216 504.633C229.392 498.442 229.036 491.911 230.178 485.559C231.32 479.207 233.928 473.209 237.794 468.042C241.661 462.874 246.679 458.68 252.45 455.791C258.222 452.903 264.587 451.4 271.041 451.403V451.393Z" fill="#CB93EE"/>
<path d="M95.5409 463.083L155.101 389.393H149.951L95.5409 456.723V463.083Z" fill="white"/>
<path d="M236.621 376.593C237.139 374.141 237.433 371.648 237.501 369.143L95.5409 544.783V551.153L236.621 376.593Z" fill="white"/>
<path d="M228.721 342.333C227.889 341.264 227.001 340.239 226.061 339.263L95.5409 500.753V507.113L228.721 342.333Z" fill="white"/>
<path d="M158.391 385.323L205.191 327.413C203.696 327.077 202.184 326.824 200.661 326.653L156.661 381.053C157.158 382.507 157.736 383.933 158.391 385.323Z" fill="white"/>
<path d="M277.401 451.893C278.879 452.123 280.345 452.43 281.791 452.813L293.541 438.283V431.893L277.401 451.893Z" fill="white"/>
<path d="M291.311 529.093C288.805 530.505 286.157 531.648 283.411 532.503L239.051 587.393H244.191L291.311 529.093Z" fill="white"/>
<path d="M254.291 530.893C253.044 530.342 251.826 529.728 250.641 529.053L203.461 587.423H208.601L254.291 530.893Z" fill="white"/>
<path d="M286.991 402.333C286.173 401.252 285.288 400.223 284.341 399.253L132.281 587.393H137.431L286.991 402.333Z" fill="white"/>
<path d="M261.851 389.413H261.031H256.721L104.981 577.133L108.101 579.653L261.851 389.413Z" fill="white"/>
<path d="M234.111 511.803C233.421 510.476 232.806 509.11 232.271 507.713L167.871 587.393H173.021L234.111 511.803Z" fill="white"/>
<path d="M586.031 389.393H556.191C559.341 383.066 560.823 376.039 560.497 368.979C560.17 361.918 558.045 355.058 554.324 349.049C550.604 343.04 545.409 338.08 539.235 334.641C533.06 331.202 526.109 329.396 519.041 329.396C511.973 329.396 505.022 331.202 498.847 334.641C492.672 338.08 487.478 343.04 483.757 349.049C480.036 355.058 477.912 361.918 477.585 368.979C477.259 376.039 478.741 383.066 481.891 389.393H453.051C448.782 389.392 444.555 390.231 440.611 391.864C436.666 393.497 433.082 395.89 430.063 398.908C427.045 401.926 424.65 405.51 423.016 409.454C421.382 413.397 420.541 417.624 420.541 421.893V451.383C414.247 447.572 407.052 445.503 399.695 445.388C392.338 445.273 385.083 447.116 378.672 450.729C372.262 454.341 366.927 459.593 363.215 465.946C359.503 472.299 357.547 479.525 357.547 486.883C357.547 494.241 359.503 501.467 363.215 507.82C366.927 514.173 372.262 519.425 378.672 523.037C385.083 526.65 392.338 528.493 399.695 528.378C407.052 528.263 414.247 526.194 420.541 522.383V554.893C420.54 559.163 421.38 563.391 423.013 567.336C424.646 571.281 427.041 574.865 430.06 577.884C433.079 580.903 436.663 583.298 440.608 584.931C444.553 586.564 448.781 587.404 453.051 587.403H586.051C590.319 587.402 594.545 586.56 598.487 584.925C602.43 583.291 606.012 580.896 609.029 577.877C612.046 574.858 614.439 571.275 616.071 567.331C617.703 563.387 618.542 559.161 618.541 554.893V421.893C618.541 417.624 617.7 413.397 616.066 409.454C614.432 405.51 612.037 401.926 609.018 398.908C605.999 395.89 602.415 393.497 598.471 391.864C594.527 390.231 590.3 389.392 586.031 389.393Z" fill="#47CEC0"/>
<path d="M494.541 309.393C494.345 309.393 494.153 309.335 493.989 309.227C493.826 309.118 493.697 308.964 493.621 308.783L484.621 287.783C484.529 287.541 484.535 287.274 484.637 287.036C484.738 286.798 484.928 286.609 485.166 286.508C485.404 286.407 485.672 286.402 485.913 286.495C486.155 286.587 486.351 286.769 486.461 287.003L495.461 308.003C495.564 308.247 495.566 308.522 495.467 308.768C495.368 309.013 495.175 309.209 494.931 309.313C494.808 309.365 494.675 309.393 494.541 309.393Z" fill="black"/>
<path d="M516.541 304.393C516.276 304.393 516.021 304.288 515.834 304.1C515.646 303.913 515.541 303.658 515.541 303.393V284.393C515.541 284.128 515.646 283.874 515.834 283.686C516.021 283.498 516.276 283.393 516.541 283.393C516.806 283.393 517.061 283.498 517.248 283.686C517.436 283.874 517.541 284.128 517.541 284.393V303.393C517.541 303.658 517.436 303.913 517.248 304.1C517.061 304.288 516.806 304.393 516.541 304.393Z" fill="black"/>
<path d="M538.541 309.393C538.392 309.394 538.244 309.36 538.111 309.293C537.873 309.178 537.69 308.974 537.601 308.725C537.513 308.476 537.528 308.202 537.641 307.963L547.641 286.963C547.766 286.743 547.97 286.579 548.211 286.503C548.452 286.428 548.713 286.446 548.941 286.555C549.169 286.664 549.348 286.856 549.44 287.091C549.533 287.326 549.533 287.588 549.441 287.823L539.441 308.823C539.36 308.993 539.232 309.137 539.073 309.238C538.914 309.339 538.729 309.393 538.541 309.393Z" fill="black"/>
<path d="M87.0409 209.893C86.6179 209.892 86.2061 209.757 85.8647 209.507C85.5233 209.258 85.2699 208.906 85.1408 208.503L57.1408 121.503C57.0399 121.249 56.9923 120.976 57.001 120.702C57.0097 120.428 57.0746 120.159 57.1916 119.912C57.3086 119.664 57.4752 119.443 57.6811 119.262C57.887 119.082 58.1278 118.945 58.3886 118.861C58.6494 118.778 58.9246 118.748 59.1972 118.775C59.4698 118.802 59.7339 118.885 59.9732 119.019C60.2125 119.152 60.4218 119.333 60.5883 119.55C60.7547 119.768 60.8748 120.017 60.9409 120.283L88.9409 207.283C89.1014 207.787 89.0558 208.334 88.8141 208.804C88.5723 209.275 88.1541 209.63 87.6509 209.793C87.4545 209.86 87.2484 209.894 87.0409 209.893Z" fill="#47CEC0"/>
<path d="M455.541 113.893C455.381 113.897 455.221 113.869 455.071 113.813C454.879 113.758 454.7 113.665 454.544 113.54C454.389 113.414 454.261 113.258 454.167 113.082C454.074 112.905 454.017 112.711 454.001 112.512C453.984 112.313 454.008 112.113 454.071 111.923L461.071 90.9231C461.216 90.5739 461.488 90.2926 461.833 90.1355C462.177 89.9784 462.568 89.957 462.927 90.0759C463.286 90.1948 463.587 90.4452 463.769 90.7766C463.952 91.108 464.002 91.496 463.911 91.863L456.911 112.863C456.815 113.154 456.632 113.409 456.387 113.593C456.142 113.777 455.847 113.882 455.541 113.893Z" fill="#FCE054"/>
<path d="M465.041 131.393C464.753 131.394 464.471 131.312 464.229 131.157C463.987 131.002 463.794 130.781 463.674 130.52C463.553 130.258 463.511 129.968 463.551 129.683C463.592 129.398 463.713 129.131 463.901 128.913L469.901 121.913C470.166 121.611 470.541 121.426 470.942 121.4C471.343 121.374 471.739 121.508 472.041 121.773C472.343 122.038 472.528 122.413 472.554 122.814C472.58 123.215 472.446 123.611 472.181 123.913L466.181 130.913C466.035 131.069 465.858 131.192 465.662 131.274C465.466 131.357 465.254 131.398 465.041 131.393Z" fill="#FCE054"/>
<path d="M93.0409 350.393C90.3708 350.393 87.7608 349.601 85.5407 348.118C83.3206 346.635 81.5903 344.526 80.5685 342.059C79.5468 339.593 79.2794 336.878 79.8003 334.259C80.3212 331.641 81.6069 329.235 83.4949 327.347C85.3829 325.459 87.7884 324.173 90.4072 323.652C93.0259 323.132 95.7403 323.399 98.2071 324.421C100.674 325.443 102.782 327.173 104.266 329.393C105.749 331.613 106.541 334.223 106.541 336.893C106.536 340.472 105.112 343.903 102.581 346.433C100.05 348.964 96.6197 350.388 93.0409 350.393ZM93.0409 326.393C90.9642 326.393 88.9341 327.009 87.2074 328.163C85.4807 329.316 84.1349 330.956 83.3401 332.875C82.5454 334.794 82.3375 336.905 82.7427 338.942C83.1478 340.978 84.1478 342.849 85.6163 344.318C87.0847 345.786 88.9556 346.786 90.9924 347.192C93.0292 347.597 95.1405 347.389 97.0591 346.594C98.9777 345.799 100.618 344.453 101.771 342.727C102.925 341 103.541 338.97 103.541 336.893C103.538 334.109 102.431 331.44 100.463 329.472C98.494 327.503 95.8249 326.396 93.0409 326.393Z" fill="#FCE054"/>
<path d="M533.281 197.703C532.848 197.703 532.427 197.563 532.081 197.303C531.735 197.043 531.482 196.679 531.361 196.263L525.791 177.053C525.717 176.801 525.694 176.537 525.723 176.276C525.751 176.014 525.831 175.762 525.957 175.531C526.084 175.301 526.254 175.098 526.459 174.933C526.664 174.769 526.899 174.646 527.151 174.573L549.241 168.163C549.493 168.089 549.757 168.066 550.018 168.095C550.279 168.123 550.532 168.203 550.763 168.329C550.993 168.456 551.196 168.626 551.36 168.831C551.525 169.036 551.647 169.271 551.721 169.523L557.291 188.733C557.439 189.242 557.38 189.789 557.125 190.255C556.869 190.72 556.44 191.065 555.931 191.213L533.841 197.623C533.659 197.675 533.47 197.702 533.281 197.703ZM530.191 177.863L534.651 193.223L552.891 187.923L548.431 172.563L530.191 177.863Z" fill="#CB93EE"/>
<path d="M80.9309 437.103C73.0209 439.383 70.9909 457.793 83.4109 458.413C95.8309 459.033 128.921 442.853 120.991 436.563C113.061 430.273 92.8809 433.653 80.9309 437.103Z" fill="white"/>
<path d="M84.1009 459.433H83.3609C77.9309 459.163 74.3008 455.623 73.6408 449.973C73.0108 444.483 75.5108 437.643 80.6408 436.163C94.6408 432.163 113.771 429.603 121.641 435.803C122.354 436.317 122.87 437.059 123.103 437.907C123.336 438.755 123.272 439.657 122.921 440.463C119.931 448.323 95.1809 459.433 84.1009 459.433ZM106.651 434.053C97.9609 434.053 87.8209 436.153 81.2109 438.053C77.6409 439.053 75.0309 444.533 75.6309 449.713C75.8909 451.923 77.1609 457.093 83.4609 457.403C93.9709 457.963 118.521 446.403 121.021 439.723C121.227 439.316 121.274 438.848 121.154 438.408C121.034 437.968 120.755 437.589 120.371 437.343C117.331 434.943 112.291 434.053 106.651 434.053Z" fill="black"/>
<path d="M88.1309 453.403C80.2909 450.883 68.3309 465.033 78.2909 472.473C88.2509 479.913 124.741 484.953 121.671 475.323C118.601 465.693 99.9609 457.213 88.1309 453.403Z" fill="white"/>
<path d="M110.851 481.643C99.6809 481.643 83.7909 477.833 77.6909 473.273C73.3409 470.023 72.3009 465.063 74.9109 460.003C77.5209 454.943 83.3409 450.813 88.4409 452.453C102.311 456.923 119.591 465.503 122.621 475.013C122.928 475.837 122.942 476.742 122.662 477.576C122.381 478.409 121.823 479.121 121.081 479.593C119.071 481.033 115.341 481.643 110.851 481.643ZM86.2309 454.123C82.8609 454.123 78.7409 456.943 76.6809 460.923C75.6809 462.923 73.8409 467.923 78.8909 471.673C87.3009 477.963 114.151 482.083 119.891 477.963C120.289 477.74 120.592 477.378 120.739 476.946C120.887 476.514 120.87 476.043 120.691 475.623C117.691 466.233 98.6009 457.833 87.7909 454.363C87.2873 454.199 86.7605 454.118 86.2309 454.123Z" fill="black"/>
<path d="M89.2409 473.533C81.4009 471.003 69.4409 485.163 79.4009 492.603C89.3609 500.043 125.861 505.083 122.781 495.443C119.701 485.803 101.081 477.343 89.2409 473.533Z" fill="white"/>
<path d="M111.961 501.773C100.801 501.773 84.9609 497.963 78.8009 493.403C74.4509 490.143 73.4109 485.183 76.0209 480.133C78.6309 475.083 84.4509 470.943 89.5509 472.583C103.421 477.043 120.701 485.583 123.731 495.143C124.038 495.965 124.053 496.867 123.775 497.699C123.496 498.531 122.941 499.242 122.201 499.713C120.181 501.153 116.451 501.773 111.961 501.773ZM87.3409 474.243C83.9809 474.243 79.8509 477.063 77.8009 481.043C76.8009 483.043 74.9509 488.043 80.0009 491.803C88.4209 498.083 115.261 502.203 121.001 498.093C121.399 497.867 121.699 497.502 121.845 497.069C121.99 496.635 121.971 496.164 121.791 495.743C118.791 486.353 99.7009 477.963 88.9009 474.483C88.3958 474.326 87.87 474.245 87.3409 474.243Z" fill="black"/>
<path d="M96.3009 528.893C96.3009 528.893 71.8109 513.953 78.3009 503.523C84.7909 493.093 121.801 497.233 121.661 508.653C121.521 520.073 95.5309 514.713 95.5309 514.713L96.3009 528.893Z" fill="white"/>
<path d="M97.4009 530.763L95.7809 529.763C95.0909 529.343 78.7808 519.303 76.5108 509.613C76.2164 508.503 76.1533 507.345 76.3254 506.209C76.4974 505.074 76.9009 503.986 77.5108 503.013C81.9608 495.903 98.6809 494.963 110.901 498.553C118.571 500.813 122.761 504.413 122.711 508.683C122.721 509.72 122.492 510.744 122.041 511.678C121.59 512.611 120.929 513.427 120.111 514.063C114.451 518.613 100.891 516.693 96.6408 515.953L97.4009 530.763ZM96.3409 498.563C88.6209 498.563 81.5509 500.323 79.1909 504.083C78.723 504.833 78.4157 505.671 78.2883 506.545C78.1609 507.42 78.2163 508.311 78.4508 509.163C80.1508 516.353 91.0308 524.223 95.2008 527.023L94.5009 513.503L95.7708 513.763C95.9408 513.763 112.971 517.243 118.851 512.513C119.438 512.062 119.911 511.48 120.232 510.813C120.553 510.146 120.714 509.413 120.701 508.673C120.701 505.423 116.961 502.443 110.321 500.483C105.773 499.197 101.067 498.551 96.3409 498.563Z" fill="black"/>
<path d="M624.931 428.993C633.011 427.423 643.191 442.913 632.411 449.103C621.631 455.293 584.791 455.913 589.001 446.713C593.211 437.513 612.721 431.353 624.931 428.993Z" fill="white"/>
<path d="M606.821 454.723C598.981 454.723 591.881 453.603 589.061 451.023C588.377 450.469 587.905 449.696 587.723 448.835C587.541 447.974 587.66 447.077 588.061 446.293C592.211 437.223 610.401 430.773 624.711 428.013C629.971 427.013 635.301 431.953 637.231 437.133C639.231 442.463 637.581 447.263 632.871 449.973C627.741 452.893 616.691 454.723 606.821 454.723ZM625.121 429.973C613.971 432.123 594.011 438.163 589.911 447.133C589.679 447.527 589.602 447.992 589.694 448.439C589.787 448.887 590.042 449.284 590.411 449.553C595.651 454.323 622.801 453.473 631.911 448.233C637.371 445.103 636.161 439.913 635.381 437.833C633.571 432.943 628.771 429.273 625.111 429.973H625.121Z" fill="black"/>
<path d="M626.341 445.403C634.181 442.883 646.141 457.033 636.181 464.473C626.221 471.913 589.721 476.953 592.801 467.323C595.881 457.693 614.541 449.213 626.341 445.403Z" fill="white"/>
<path d="M603.621 473.643C599.121 473.643 595.401 473.033 593.381 471.593C592.641 471.119 592.086 470.407 591.806 469.574C591.526 468.741 591.538 467.838 591.841 467.013C594.841 457.503 612.161 448.923 626.031 444.453C631.131 442.813 637.031 447.093 639.561 452.003C642.091 456.913 641.131 462.003 636.781 465.273C630.671 469.833 614.781 473.643 603.621 473.643ZM626.621 446.363C615.821 449.833 596.731 458.233 593.731 467.623C593.549 468.042 593.529 468.513 593.675 468.945C593.821 469.378 594.122 469.741 594.521 469.963C600.301 474.073 627.141 469.963 635.521 463.673C640.521 459.903 638.741 454.903 637.721 452.923C635.331 448.293 630.121 445.213 626.581 446.363H626.621Z" fill="black"/>
<path d="M629.221 466.893C637.311 465.373 647.411 480.893 636.591 487.043C625.771 493.193 588.941 493.603 593.201 484.433C597.461 475.263 617.001 469.223 629.221 466.893Z" fill="white"/>
<path d="M611.401 492.573C603.401 492.573 596.101 491.403 593.241 488.773C592.557 488.218 592.085 487.446 591.903 486.585C591.721 485.724 591.84 484.827 592.241 484.043C596.441 474.983 614.661 468.633 628.981 465.943C634.251 464.943 639.561 469.943 641.461 475.123C643.461 480.473 641.761 485.263 637.041 487.943C631.981 490.893 621.161 492.563 611.401 492.573ZM630.311 467.823C630.006 467.824 629.702 467.851 629.401 467.903C618.251 470.003 598.261 475.903 594.111 484.903C593.878 485.295 593.799 485.76 593.89 486.207C593.98 486.655 594.234 487.052 594.601 487.323C599.811 492.133 626.961 491.413 636.101 486.223C641.581 483.113 640.401 477.923 639.631 475.833C637.981 471.313 633.811 467.823 630.311 467.823Z" fill="black"/>
<path d="M618.171 520.893C618.171 520.893 642.651 505.953 636.121 495.523C629.591 485.093 592.621 489.233 592.771 500.653C592.921 512.073 618.901 506.713 618.901 506.713L618.171 520.893Z" fill="white"/>
<path d="M617.071 522.763L617.831 507.963C613.591 508.703 600.021 510.623 594.371 506.073C593.551 505.438 592.889 504.622 592.438 503.689C591.987 502.755 591.758 501.73 591.771 500.693C591.711 496.423 595.911 492.823 603.581 490.563C615.801 486.973 632.521 487.913 636.971 495.023C637.581 495.996 637.984 497.084 638.156 498.219C638.328 499.354 638.265 500.513 637.971 501.623C635.681 511.313 619.391 521.353 618.701 521.773L617.071 522.763ZM619.961 505.503L619.271 519.023C623.441 516.223 634.271 508.353 636.011 501.163C636.248 500.311 636.305 499.42 636.177 498.545C636.05 497.67 635.741 496.832 635.271 496.083C631.471 490.013 615.421 489.163 604.141 492.483C597.511 494.483 593.731 497.423 593.771 500.673C593.756 501.413 593.915 502.147 594.237 502.814C594.558 503.481 595.032 504.064 595.621 504.513C601.491 509.243 618.521 505.803 618.701 505.763L619.961 505.503Z" fill="black"/>
</svg>
