<svg width="700" height="700" viewBox="0 0 700 700" fill="none" xmlns="http://www.w3.org/2000/svg">
<rect width="700" height="700" fill="white"/>
<path d="M383.18 153.94H90.75C85.0319 153.94 79.548 156.212 75.5048 160.255C71.4615 164.298 69.1901 169.782 69.1901 175.5V380.81L133.11 332.2H383.18C386.011 332.2 388.814 331.642 391.429 330.559C394.044 329.475 396.421 327.887 398.422 325.885C400.423 323.882 402.01 321.506 403.093 318.89C404.175 316.274 404.731 313.471 404.73 310.64V175.5C404.731 172.669 404.175 169.866 403.093 167.25C402.01 164.634 400.423 162.258 398.422 160.255C396.421 158.253 394.044 156.665 391.429 155.581C388.814 154.498 386.011 153.94 383.18 153.94Z" fill="#FCE054"/>
<path d="M113.99 220.76C113.46 220.76 112.951 220.549 112.576 220.174C112.201 219.799 111.99 219.29 111.99 218.76C111.99 218.23 112.201 217.721 112.576 217.346C112.951 216.971 113.46 216.76 113.99 216.76L347.54 213.9C348.07 213.9 348.579 214.111 348.954 214.486C349.329 214.861 349.54 215.369 349.54 215.9C349.54 216.43 349.329 216.939 348.954 217.314C348.579 217.689 348.07 217.9 347.54 217.9L114 220.76H113.99Z" fill="white"/>
<path d="M115.9 269.38C115.37 269.38 114.861 269.169 114.486 268.794C114.111 268.419 113.9 267.91 113.9 267.38C113.9 266.849 114.111 266.341 114.486 265.966C114.861 265.591 115.37 265.38 115.9 265.38L271.28 263.47C271.81 263.47 272.319 263.681 272.694 264.056C273.069 264.431 273.28 264.94 273.28 265.47C273.28 266 273.069 266.509 272.694 266.884C272.319 267.259 271.81 267.47 271.28 267.47L115.9 269.38Z" fill="white"/>
<path d="M631.13 61H63V101.04H631.13V61Z" fill="#CB93EE"/>
<path d="M86.8301 91.03C91.8338 91.03 95.89 86.9737 95.89 81.97C95.89 76.9663 91.8338 72.9099 86.8301 72.9099C81.8264 72.9099 77.77 76.9663 77.77 81.97C77.77 86.9737 81.8264 91.03 86.8301 91.03Z" fill="white"/>
<path d="M116.38 91.03C121.384 91.03 125.44 86.9737 125.44 81.97C125.44 76.9663 121.384 72.9099 116.38 72.9099C111.376 72.9099 107.32 76.9663 107.32 81.97C107.32 86.9737 111.376 91.03 116.38 91.03Z" fill="white"/>
<path d="M150.7 91.03C155.704 91.03 159.76 86.9737 159.76 81.97C159.76 76.9663 155.704 72.9099 150.7 72.9099C145.696 72.9099 141.64 76.9663 141.64 81.97C141.64 86.9737 145.696 91.03 150.7 91.03Z" fill="white"/>
<path d="M629.233 304.024L518.529 267.899L495.651 338.009L606.355 374.134L629.233 304.024Z" fill="#FCE054"/>
<path d="M570.57 322.13C570.496 322.131 570.422 322.115 570.355 322.084C570.287 322.053 570.228 322.007 570.18 321.95L526.18 268.89C526.095 268.787 526.054 268.655 526.065 268.523C526.077 268.39 526.139 268.267 526.24 268.18C526.291 268.137 526.35 268.105 526.413 268.086C526.477 268.066 526.544 268.06 526.61 268.066C526.676 268.073 526.74 268.092 526.798 268.124C526.857 268.155 526.908 268.198 526.95 268.25L570.8 321.07L637.29 304C637.356 303.984 637.424 303.98 637.491 303.99C637.558 304 637.622 304.023 637.68 304.058C637.738 304.093 637.789 304.139 637.829 304.193C637.869 304.247 637.898 304.309 637.915 304.375C637.931 304.441 637.935 304.509 637.925 304.576C637.915 304.643 637.892 304.707 637.857 304.765C637.822 304.823 637.776 304.874 637.722 304.914C637.667 304.954 637.606 304.984 637.54 305L570.74 322.15L570.57 322.13Z" fill="black"/>
<path d="M503.76 339.28C503.667 339.278 503.576 339.251 503.497 339.202C503.418 339.152 503.353 339.083 503.31 339C503.281 338.941 503.264 338.877 503.26 338.811C503.256 338.745 503.265 338.679 503.286 338.617C503.307 338.555 503.341 338.498 503.384 338.448C503.428 338.399 503.481 338.359 503.54 338.33L561.05 309.99C561.109 309.961 561.173 309.944 561.239 309.94C561.305 309.936 561.371 309.944 561.433 309.966C561.495 309.987 561.552 310.021 561.602 310.064C561.651 310.108 561.691 310.161 561.72 310.22C561.749 310.278 561.766 310.342 561.77 310.407C561.774 310.472 561.765 310.537 561.743 310.598C561.722 310.66 561.689 310.716 561.645 310.765C561.602 310.813 561.549 310.852 561.49 310.88L503.98 339.22C503.913 339.259 503.837 339.28 503.76 339.28Z" fill="black"/>
<path d="M614.62 375.2C614.529 375.199 614.44 375.174 614.363 375.126C614.285 375.079 614.222 375.011 614.18 374.93L584.74 318.42C584.704 318.362 584.68 318.297 584.669 318.229C584.659 318.161 584.663 318.092 584.681 318.026C584.699 317.96 584.73 317.898 584.772 317.844C584.815 317.79 584.868 317.746 584.928 317.714C584.989 317.681 585.055 317.662 585.124 317.656C585.192 317.651 585.261 317.659 585.326 317.682C585.39 317.704 585.45 317.739 585.501 317.785C585.551 317.831 585.592 317.887 585.62 317.95L615.06 374.46C615.091 374.518 615.111 374.582 615.117 374.648C615.123 374.714 615.117 374.781 615.097 374.844C615.078 374.907 615.046 374.966 615.003 375.017C614.961 375.068 614.909 375.109 614.85 375.14C614.78 375.18 614.701 375.2 614.62 375.2Z" fill="black"/>
<path d="M560.11 517.13L581.08 554.3L579.45 520.06L560.11 517.13Z" fill="#CB93EE"/>
<path d="M302.46 245.2C302.248 245.2 302.038 245.154 301.845 245.066C301.652 244.978 301.48 244.85 301.34 244.69C288.83 230.55 287.51 219.55 286.24 208.92C285.24 200.17 284.24 191.92 276.46 182.64C272.46 177.86 267.82 176.01 262.97 177.29C256.49 178.99 250.52 186.19 249.08 194.03C248.42 197.63 248.24 204.33 254.46 208.76C254.783 208.991 255.002 209.341 255.067 209.733C255.133 210.124 255.04 210.526 254.81 210.85C254.697 211.011 254.552 211.148 254.385 211.253C254.219 211.358 254.033 211.429 253.838 211.461C253.644 211.494 253.445 211.487 253.253 211.443C253.061 211.398 252.88 211.315 252.72 211.2C247.19 207.27 244.79 200.81 246.13 193.49C247.79 184.43 254.55 176.4 262.2 174.39C268.2 172.82 274.06 175.06 278.76 180.72C287.07 190.72 288.11 199.36 289.21 208.56C290.44 218.74 291.7 229.26 303.59 242.7C303.721 242.847 303.821 243.019 303.886 243.206C303.95 243.392 303.977 243.59 303.965 243.787C303.953 243.984 303.902 244.176 303.815 244.354C303.729 244.531 303.608 244.689 303.46 244.82C303.184 245.064 302.828 245.199 302.46 245.2Z" fill="black"/>
<path d="M313.98 260.37C315.56 260.37 316.84 259.09 316.84 257.51C316.84 255.93 315.56 254.65 313.98 254.65C312.4 254.65 311.12 255.93 311.12 257.51C311.12 259.09 312.4 260.37 313.98 260.37Z" fill="#201000"/>
<path d="M326.51 198.1C326.14 198.1 325.783 197.963 325.508 197.715C325.233 197.468 325.059 197.128 325.02 196.76C323.32 180.15 328.25 171.19 332.59 163.28C336.31 156.51 339.83 150.11 339.06 139.55C338.67 134.17 336.32 130.5 332.26 128.95C326.81 126.86 318.92 128.95 313.91 133.77C311.62 135.98 308.1 140.62 310.24 146.89C310.373 147.265 310.351 147.678 310.179 148.037C310.008 148.396 309.7 148.672 309.325 148.805C308.95 148.938 308.537 148.916 308.178 148.744C307.819 148.573 307.543 148.265 307.41 147.89C305.41 142.17 307.06 136.24 311.83 131.64C317.71 125.96 326.76 123.64 333.33 126.18C338.48 128.18 341.58 132.83 342.05 139.36C342.89 150.81 339.16 157.58 335.22 164.76C330.88 172.65 326.4 180.81 328.01 196.48C328.049 196.875 327.93 197.269 327.679 197.577C327.428 197.884 327.065 198.08 326.67 198.12L326.51 198.1Z" fill="black"/>
<path d="M327.67 214.93C329.062 214.93 330.19 213.802 330.19 212.41C330.19 211.018 329.062 209.89 327.67 209.89C326.278 209.89 325.15 211.018 325.15 212.41C325.15 213.802 326.278 214.93 327.67 214.93Z" fill="#201000"/>
<path d="M361.96 261C361.96 261 337.96 242.9 353.11 223C368.26 203.1 388.26 220.12 395.11 232.32C395.11 232.32 419.11 211.65 437.7 228.32C456.29 244.99 444.57 262.89 444.57 262.89C444.57 262.89 484.83 256.89 490.19 280.59C495.55 304.29 480.48 318.35 480.48 318.35C480.48 318.35 398.02 427.53 373.22 356.35C341.01 263.75 361.96 261 361.96 261Z" fill="#201000"/>
<path d="M235.83 639.49C226.23 639.49 216.18 635.49 205.83 627.54C198.3 621.75 193.52 608.17 192 588.26C188.35 540.67 204.29 461.87 229.55 435.41C249.68 414.32 339.15 425.2 342.95 425.68L343.35 425.73L343.6 426.05C351.98 436.51 361.18 441.82 370.96 441.82H371.43C390.14 441.5 404.98 421.82 405.13 421.66L405.3 421.43L405.57 421.32C406.44 420.98 427.78 413.17 490.4 434.59C532.74 449.08 517.22 609.3 516.54 616.11L514.54 615.91C514.7 614.26 530.54 450.46 489.74 436.48C431.56 416.58 409.09 422.31 406.53 423.1C404.63 425.57 390.2 443.49 371.47 443.82C360.94 444.01 351.14 438.56 342.29 427.63C335.65 426.84 249.77 417.12 230.98 436.8C206.06 462.91 190.36 540.93 193.98 588.12C195.46 607.45 199.98 620.53 207.04 625.97C219.67 635.68 231.79 639.28 243.04 636.67C267.96 630.88 284.99 596.38 297.42 571.19C298.42 569.12 299.42 567.11 300.42 565.19C316.42 533.19 337.15 476.19 340.78 466.08C333.3 466.9 302.59 468.63 289.19 443.93L244.65 541.69L242.83 540.86L289.11 439.27L290.03 441.19C303.93 470.05 341.73 463.96 342.11 463.89L343.79 463.61L343.22 465.21C342.99 465.87 319.75 531 302.22 566.08C301.22 568 300.22 570.01 299.22 572.08C286.61 597.63 269.34 632.62 243.51 638.62C240.992 639.203 238.415 639.495 235.83 639.49Z" fill="black"/>
<path d="M405.67 430.46L406.22 383.53C406.22 383.53 427.08 367.53 427.68 352.35C427.68 352.35 467.94 357.35 473.99 332.28C480.04 307.21 460.38 292.97 444.9 300.79L429.41 308.6C429.41 308.6 400.94 304.1 403.82 273.88C403.82 273.88 357.9 241.72 337.72 283.05C317.54 324.38 309.34 361.14 318.91 375.05C328.48 388.96 350.28 391.46 350.28 391.46L350.13 428.3C350.13 428.3 366.84 474.43 405.67 430.46Z" fill="white"/>
<path d="M374.84 450.45C373.525 450.453 372.212 450.329 370.92 450.08C356.11 447.26 349.47 429.36 349.2 428.6C349.161 428.491 349.14 428.376 349.14 428.26L349.29 392.26C345 391.62 326.81 388.18 318.09 375.55C308.62 361.81 315.97 325.32 336.83 282.55C342.24 271.46 349.99 264.55 359.83 262C380.67 256.62 403.41 272.32 404.37 273C404.516 273.1 404.632 273.237 404.708 273.397C404.783 273.557 404.815 273.734 404.8 273.91C402.16 301.49 426.05 306.91 429.23 307.5L444.42 299.84C447.972 298.034 451.972 297.295 455.934 297.714C459.897 298.133 463.654 299.691 466.75 302.2C474.89 308.65 477.95 319.96 474.93 332.45C469.3 355.75 435.05 353.95 428.58 353.39C427.22 367.51 410.08 381.66 407.19 383.96L406.64 430.41C406.64 430.653 406.551 430.888 406.39 431.07C395.08 444 384.47 450.45 374.84 450.45ZM351.14 428.08C351.82 429.85 358.32 445.66 371.3 448.08C381.15 449.95 392.37 443.88 404.67 430.08L405.22 383.52C405.22 383.367 405.256 383.217 405.323 383.08C405.391 382.943 405.489 382.823 405.61 382.73C405.82 382.58 426.11 366.81 426.68 352.31C426.687 352.172 426.722 352.036 426.784 351.912C426.846 351.788 426.933 351.679 427.04 351.59C427.146 351.5 427.268 351.434 427.401 351.394C427.533 351.355 427.673 351.343 427.81 351.36C428.2 351.36 467.25 355.93 473.02 332.05C475.85 320.33 473.02 309.78 465.54 303.83C462.741 301.562 459.345 300.152 455.763 299.77C452.18 299.389 448.564 300.052 445.35 301.68L429.87 309.49C429.682 309.587 429.469 309.622 429.26 309.59C428.97 309.54 400.26 304.65 402.78 274.38C399.4 272.16 378.69 259.26 360.36 264.01C351.08 266.41 343.77 272.96 338.63 283.49C318.08 325.59 310.63 361.29 319.74 374.49C328.93 387.81 350.19 390.49 350.4 390.49C350.646 390.517 350.873 390.634 351.037 390.819C351.201 391.004 351.292 391.243 351.29 391.49L351.14 428.08Z" fill="black"/>
<path d="M347.41 336.69C347.202 336.689 346.999 336.622 346.83 336.5C341.62 332.8 338.94 328.33 338.83 323.21C338.64 310.59 354.3 298.64 354.97 298.13C355.182 297.971 355.449 297.902 355.711 297.94C355.974 297.977 356.211 298.118 356.37 298.33C356.529 298.542 356.597 298.809 356.56 299.072C356.522 299.334 356.382 299.571 356.17 299.73C356.02 299.85 340.66 311.58 340.83 323.18C340.89 327.63 343.29 331.56 347.95 334.87C348.058 334.946 348.15 335.042 348.221 335.154C348.292 335.265 348.34 335.39 348.362 335.52C348.384 335.65 348.38 335.783 348.351 335.912C348.321 336.041 348.267 336.163 348.19 336.27C348.101 336.395 347.984 336.498 347.849 336.571C347.714 336.644 347.564 336.685 347.41 336.69Z" fill="black"/>
<path d="M453.05 329.92C452.785 329.92 452.53 329.815 452.343 329.627C452.155 329.44 452.05 329.185 452.05 328.92C452.05 328.87 452.15 325.05 449.68 323.39C447.68 322.07 444.43 322.39 440.2 324.29C439.962 324.38 439.698 324.376 439.463 324.279C439.228 324.181 439.039 323.998 438.934 323.765C438.83 323.533 438.818 323.27 438.901 323.03C438.983 322.789 439.155 322.589 439.38 322.47C444.38 320.22 448.19 319.98 450.8 321.74C454.21 324.03 454.06 328.8 454.05 329C454.03 329.251 453.916 329.486 453.73 329.656C453.545 329.827 453.302 329.921 453.05 329.92Z" fill="black"/>
<path d="M400.06 298.55C399.924 298.551 399.789 298.524 399.663 298.47C399.537 298.417 399.424 298.339 399.33 298.24C397.269 296.263 394.571 295.086 391.72 294.92C391.455 294.92 391.2 294.815 391.013 294.627C390.825 294.44 390.72 294.185 390.72 293.92C390.72 293.655 390.825 293.4 391.013 293.213C391.2 293.025 391.455 292.92 391.72 292.92C395.104 293.086 398.308 294.492 400.72 296.87C400.906 297.057 401.011 297.311 401.011 297.575C401.011 297.839 400.906 298.093 400.72 298.28C400.541 298.448 400.306 298.544 400.06 298.55Z" fill="black"/>
<path d="M391.72 305.42C393.117 305.42 394.25 304.287 394.25 302.89C394.25 301.493 393.117 300.36 391.72 300.36C390.323 300.36 389.19 301.493 389.19 302.89C389.19 304.287 390.323 305.42 391.72 305.42Z" fill="#201000"/>
<path d="M351.8 292.04C353.197 292.04 354.33 290.907 354.33 289.51C354.33 288.113 353.197 286.98 351.8 286.98C350.403 286.98 349.27 288.113 349.27 289.51C349.27 290.907 350.403 292.04 351.8 292.04Z" fill="#201000"/>
<path d="M353.15 272C352.923 271.999 352.702 271.926 352.52 271.79C352.417 271.708 352.332 271.606 352.269 271.49C352.206 271.374 352.166 271.247 352.152 271.116C352.138 270.985 352.15 270.853 352.188 270.726C352.225 270.6 352.287 270.482 352.37 270.38C355.76 266.12 361.29 267.38 363.74 268.64C363.857 268.7 363.961 268.783 364.046 268.884C364.131 268.984 364.195 269.101 364.235 269.226C364.275 269.351 364.29 269.483 364.279 269.614C364.268 269.746 364.231 269.873 364.17 269.99C364.048 270.224 363.839 270.4 363.589 270.481C363.338 270.561 363.065 270.539 362.83 270.42C362.58 270.29 357.14 267.6 353.93 271.63C353.836 271.746 353.717 271.84 353.582 271.904C353.447 271.968 353.299 272.001 353.15 272Z" fill="black"/>
<path d="M433.03 334.54C432.896 334.54 432.763 334.513 432.64 334.46C432.518 334.41 432.408 334.336 432.315 334.243C432.222 334.15 432.148 334.039 432.098 333.917C432.048 333.796 432.022 333.665 432.022 333.533C432.023 333.402 432.049 333.271 432.1 333.15C441.63 310.51 460.51 313.9 460.7 313.94C460.831 313.965 460.956 314.016 461.068 314.089C461.18 314.162 461.276 314.257 461.351 314.367C461.427 314.478 461.479 314.602 461.507 314.733C461.534 314.864 461.535 314.999 461.51 315.13C461.485 315.261 461.435 315.387 461.361 315.498C461.288 315.61 461.193 315.706 461.083 315.782C460.972 315.857 460.848 315.909 460.717 315.937C460.586 315.964 460.451 315.965 460.32 315.94C459.61 315.81 442.83 312.87 433.95 333.94C433.872 334.119 433.743 334.271 433.58 334.378C433.416 334.484 433.225 334.541 433.03 334.54Z" fill="black"/>
<path d="M332.12 341.44C331.873 341.441 331.634 341.351 331.449 341.187C331.264 341.023 331.147 340.796 331.12 340.55C330.82 337.79 331.39 335.99 332.83 335.2C335.93 333.5 341.45 337.73 342.53 338.6C342.735 338.766 342.865 339.007 342.893 339.269C342.921 339.531 342.845 339.794 342.68 340C342.598 340.103 342.497 340.19 342.381 340.254C342.266 340.318 342.139 340.359 342.008 340.374C341.877 340.388 341.745 340.377 341.618 340.341C341.491 340.304 341.373 340.242 341.27 340.16C339.03 338.35 335.27 336.16 333.79 336.95C333.15 337.3 332.91 338.5 333.11 340.33C333.125 340.462 333.114 340.595 333.078 340.722C333.041 340.849 332.98 340.968 332.897 341.071C332.814 341.174 332.712 341.26 332.595 341.323C332.479 341.387 332.352 341.426 332.22 341.44H332.12Z" fill="black"/>
<path d="M460.711 516.595L457.4 626.205L459.399 626.266L462.71 516.656L460.711 516.595Z" fill="black"/>
<path d="M342.29 464.87C346.603 452.459 352.964 440.859 361.11 430.55C374.4 413.94 386.58 406.19 382.11 392.9C382.11 392.9 383.21 385.15 378.79 381.83C378.79 381.83 381 378.51 378.79 369.65C378.79 369.65 396.5 354.15 387.64 345.29C378.78 336.43 369.93 366.29 348.89 374.08C327.85 381.87 317.89 379.62 314.57 358.58C312.161 361.273 310.329 364.43 309.188 367.858C308.046 371.285 307.618 374.911 307.93 378.51C309.03 390.69 302.39 417.26 289.1 441.62C289.14 441.62 295.79 472.62 342.29 464.87Z" fill="white"/>
<path d="M384.28 343.67V345.67C384.665 345.685 385.043 345.782 385.388 345.954C385.733 346.127 386.037 346.371 386.28 346.67C386.92 347.282 387.42 348.025 387.746 348.848C388.072 349.672 388.217 350.556 388.17 351.44C387.97 357.63 380.41 365.57 377.52 368.11L376.6 368.91L376.9 370.1C378.7 377.33 377.32 380.38 377.15 380.7L376.02 382.18L377.64 383.39C380.47 385.52 380.43 390.75 380.18 392.58L380.11 393.05L380.26 393.49C383.26 402.49 377.52 408.85 368.84 418.49C366.01 421.63 362.84 425.2 359.56 429.25C351.526 439.432 345.185 450.841 340.78 463.04C336.628 463.691 332.433 464.025 328.23 464.04C314.89 464.04 304.59 460.2 297.63 452.61C294.758 449.509 292.595 445.82 291.29 441.8C304.89 416.6 311.06 390.32 309.97 378.26C309.521 373.028 310.766 367.791 313.52 363.32C316.27 374.89 321.84 380.11 331.23 380.11C335.96 380.11 341.81 378.77 349.63 375.89C360.45 371.89 368 362.59 374.06 355.11C378.06 350.22 381.77 345.6 384.29 345.6V343.6L384.28 343.67ZM384.29 343.6C376.39 343.6 367.29 367.24 348.94 374.01C341.83 376.63 335.94 378.11 331.23 378.11C321.93 378.11 316.82 372.43 314.62 358.51C312.211 361.203 310.379 364.36 309.237 367.788C308.095 371.215 307.667 374.841 307.98 378.44C309.08 390.62 302.44 417.19 289.15 441.55C289.15 441.55 294.41 466.04 328.23 466.04C332.946 466.014 337.652 465.599 342.3 464.8C346.613 452.389 352.974 440.789 361.12 430.48C374.41 413.87 386.59 406.12 382.12 392.83C382.12 392.83 383.22 385.08 378.8 381.76C378.8 381.76 381.01 378.44 378.8 369.58C378.8 369.58 396.51 354.08 387.65 345.22C387.223 344.733 386.701 344.339 386.117 344.06C385.532 343.782 384.897 343.625 384.25 343.6H384.29Z" fill="black"/>
<path d="M356.13 385.6C355.902 385.607 355.678 385.535 355.496 385.396C355.314 385.258 355.185 385.062 355.13 384.84C355.067 384.583 355.108 384.311 355.245 384.084C355.382 383.857 355.603 383.694 355.86 383.63C368.62 380.44 377.32 367.56 377.41 367.43C377.483 367.321 377.578 367.227 377.687 367.155C377.797 367.082 377.92 367.032 378.049 367.007C378.178 366.982 378.311 366.982 378.44 367.009C378.569 367.035 378.691 367.086 378.8 367.16C379.018 367.308 379.168 367.536 379.219 367.794C379.269 368.053 379.216 368.321 379.07 368.54C378.7 369.1 369.85 382.19 356.34 385.54C356.273 385.568 356.202 385.588 356.13 385.6Z" fill="black"/>
<path d="M360.56 397.78C360.36 397.78 360.164 397.72 359.998 397.608C359.832 397.495 359.704 397.336 359.63 397.15C359.581 397.028 359.557 396.897 359.559 396.766C359.561 396.634 359.588 396.504 359.64 396.384C359.692 396.263 359.768 396.154 359.862 396.062C359.956 395.971 360.068 395.898 360.19 395.85C370.8 391.6 376.19 381.99 376.29 381.9C376.423 381.668 376.642 381.498 376.9 381.428C377.158 381.357 377.433 381.392 377.665 381.525C377.897 381.657 378.067 381.877 378.137 382.135C378.208 382.393 378.173 382.668 378.04 382.9C374.04 389.523 368.052 394.716 360.93 397.74C360.809 397.772 360.685 397.786 360.56 397.78Z" fill="black"/>
<path d="M364.99 407.74C364.786 407.741 364.586 407.679 364.418 407.562C364.25 407.446 364.122 407.281 364.05 407.09C364.003 406.967 363.981 406.836 363.985 406.705C363.989 406.574 364.019 406.445 364.073 406.325C364.127 406.205 364.204 406.097 364.299 406.007C364.395 405.917 364.507 405.847 364.63 405.8C373.08 402.64 379.63 393 379.63 392.9C379.777 392.678 380.006 392.525 380.267 392.472C380.528 392.42 380.799 392.473 381.02 392.62C381.241 392.767 381.395 392.996 381.448 393.257C381.5 393.518 381.447 393.789 381.3 394.01C381.02 394.43 374.37 404.28 365.3 407.68C365.2 407.714 365.096 407.735 364.99 407.74Z" fill="black"/>
<path d="M568.139 450.933L482.704 451.917C476.961 451.983 472.359 456.693 472.425 462.436L473.138 524.372C473.204 530.116 477.914 534.718 483.657 534.652L569.092 533.667C574.835 533.601 579.437 528.892 579.371 523.148L578.658 461.213C578.592 455.469 573.882 450.867 568.139 450.933Z" fill="#CB93EE"/>
<path d="M502.692 496.51C506.055 496.471 508.749 493.61 508.709 490.12C508.669 486.63 505.91 483.832 502.547 483.871C499.183 483.91 496.49 486.77 496.53 490.261C496.57 493.751 499.329 496.549 502.692 496.51Z" fill="white"/>
<path d="M527.407 496.225C530.771 496.187 533.464 493.326 533.424 489.836C533.384 486.345 530.625 483.548 527.262 483.586C523.899 483.625 521.205 486.486 521.245 489.976C521.285 493.466 524.044 496.264 527.407 496.225Z" fill="white"/>
<path d="M553.602 495.934C556.965 495.895 559.659 493.034 559.619 489.544C559.579 486.054 556.82 483.256 553.457 483.295C550.093 483.333 547.4 486.194 547.44 489.684C547.48 493.175 550.239 495.972 553.602 495.934Z" fill="white"/>
<path d="M566.758 212.685L489.265 189.008L465.587 266.502L543.081 290.179L566.758 212.685Z" fill="#47CEC0"/>
<path d="M510.41 265C509.308 265.002 508.212 264.837 507.16 264.51C498.02 261.72 494.46 247.75 499.05 232.71C501.19 225.71 504.79 219.62 509.2 215.51C513.9 211.13 518.99 209.51 523.55 210.87C528.11 212.23 531.41 216.48 532.86 222.74C534.22 228.61 533.79 235.74 531.66 242.68C527.58 255.92 518.7 265 510.41 265ZM520.32 214.4C517.68 214.4 514.77 215.78 511.93 218.4C508.02 222.03 504.81 227.52 502.93 233.84C499.12 246.3 501.61 258.58 508.38 260.65C515.15 262.72 524.07 253.93 527.88 241.47C529.81 235.15 530.22 228.8 529.01 223.6C527.9 218.79 525.56 215.6 522.43 214.66C521.739 214.452 521.021 214.351 520.3 214.36L520.32 214.4Z" fill="white"/>
<path d="M236.787 327.379L179.518 342.729L194.869 399.998L252.138 384.647L236.787 327.379Z" fill="#ED5564"/>
<path d="M221.34 362.78C220.932 362.783 220.53 362.683 220.17 362.49L187.08 345C186.79 344.846 186.533 344.637 186.323 344.384C186.114 344.131 185.957 343.839 185.86 343.526C185.763 343.212 185.73 342.882 185.76 342.555C185.791 342.228 185.886 341.91 186.04 341.62C186.194 341.33 186.403 341.073 186.656 340.863C186.909 340.654 187.201 340.497 187.515 340.4C187.828 340.303 188.158 340.27 188.485 340.301C188.812 340.332 189.13 340.427 189.42 340.58L222.51 358.09C223.004 358.351 223.396 358.77 223.624 359.28C223.851 359.789 223.902 360.361 223.768 360.903C223.633 361.445 223.321 361.926 222.881 362.27C222.441 362.614 221.898 362.8 221.34 362.8V362.78Z" fill="white"/>
<path d="M198.31 370.89C197.881 370.89 197.459 370.78 197.085 370.569C196.711 370.359 196.397 370.056 196.174 369.689C195.951 369.322 195.826 368.904 195.811 368.476C195.797 368.047 195.893 367.621 196.09 367.24L213.6 333.5C213.752 333.208 213.959 332.95 214.211 332.738C214.463 332.527 214.754 332.367 215.067 332.269C215.38 332.17 215.71 332.134 216.038 332.162C216.365 332.191 216.683 332.283 216.975 332.435C217.267 332.587 217.525 332.794 217.737 333.046C217.948 333.298 218.108 333.588 218.207 333.902C218.305 334.215 218.342 334.545 218.313 334.873C218.284 335.2 218.192 335.518 218.04 335.81L200.53 369.55C200.317 369.954 199.998 370.293 199.606 370.529C199.215 370.765 198.767 370.89 198.31 370.89Z" fill="white"/>
<path d="M201.69 499.11H75.87C75.3396 499.11 74.8309 498.899 74.4558 498.524C74.0807 498.149 73.87 497.641 73.87 497.11C73.87 496.58 74.0807 496.071 74.4558 495.696C74.8309 495.321 75.3396 495.11 75.87 495.11H201.69C202.22 495.11 202.729 495.321 203.104 495.696C203.479 496.071 203.69 496.58 203.69 497.11C203.69 497.641 203.479 498.149 203.104 498.524C202.729 498.899 202.22 499.11 201.69 499.11Z" fill="#CB93EE"/>
<path d="M194.07 533.42H134.97C134.44 533.42 133.931 533.209 133.556 532.834C133.181 532.459 132.97 531.95 132.97 531.42C132.97 530.889 133.181 530.381 133.556 530.006C133.931 529.631 134.44 529.42 134.97 529.42H194.07C194.601 529.42 195.109 529.631 195.484 530.006C195.859 530.381 196.07 530.889 196.07 531.42C196.07 531.95 195.859 532.459 195.484 532.834C195.109 533.209 194.601 533.42 194.07 533.42Z" fill="#CB93EE"/>
<path d="M191.21 584.9H158.35C157.82 584.9 157.311 584.689 156.936 584.314C156.561 583.939 156.35 583.43 156.35 582.9C156.35 582.369 156.561 581.861 156.936 581.486C157.311 581.111 157.82 580.9 158.35 580.9H191.21C191.741 580.9 192.249 581.111 192.624 581.486C192.999 581.861 193.21 582.369 193.21 582.9C193.21 583.43 192.999 583.939 192.624 584.314C192.249 584.689 191.741 584.9 191.21 584.9Z" fill="#CB93EE"/>
<path d="M142.26 584.9H113.04C112.51 584.9 112.001 584.689 111.626 584.314C111.251 583.939 111.04 583.43 111.04 582.9C111.04 582.369 111.251 581.861 111.626 581.486C112.001 581.111 112.51 580.9 113.04 580.9H142.26C142.79 580.9 143.299 581.111 143.674 581.486C144.049 581.861 144.26 582.369 144.26 582.9C144.26 583.43 144.049 583.939 143.674 584.314C143.299 584.689 142.79 584.9 142.26 584.9Z" fill="#CB93EE"/>
<path d="M588.23 572.48C587.841 572.478 587.469 572.326 587.189 572.056C586.91 571.786 586.745 571.418 586.73 571.03L584.83 509.03C584.824 508.833 584.857 508.637 584.927 508.453C584.997 508.268 585.102 508.099 585.237 507.956C585.373 507.813 585.535 507.697 585.714 507.616C585.894 507.536 586.088 507.491 586.285 507.485C586.482 507.479 586.678 507.512 586.862 507.582C587.047 507.652 587.215 507.757 587.359 507.893C587.502 508.028 587.618 508.19 587.699 508.369C587.779 508.549 587.824 508.743 587.83 508.94L589.73 570.94C589.738 571.137 589.707 571.333 589.638 571.518C589.569 571.702 589.464 571.871 589.329 572.015C589.194 572.158 589.031 572.273 588.851 572.353C588.671 572.433 588.477 572.476 588.28 572.48H588.23Z" fill="#FCE054"/>
<path d="M463.98 205.41C463.867 205.419 463.753 205.419 463.64 205.41C463.254 205.317 462.921 205.076 462.711 204.74C462.502 204.403 462.433 203.997 462.52 203.61L475.87 146.41C475.909 146.212 475.987 146.025 476.1 145.858C476.213 145.691 476.358 145.548 476.527 145.439C476.696 145.33 476.886 145.255 477.084 145.221C477.283 145.186 477.486 145.192 477.682 145.238C477.878 145.283 478.064 145.368 478.226 145.487C478.389 145.606 478.526 145.756 478.629 145.929C478.733 146.102 478.8 146.293 478.828 146.493C478.856 146.693 478.843 146.896 478.79 147.09L465.44 204.29C465.356 204.612 465.166 204.897 464.902 205.1C464.638 205.303 464.313 205.412 463.98 205.41Z" fill="#ED5564"/>
<path d="M76.8201 607.75C74.9214 607.75 73.0653 607.187 71.4866 606.132C69.9079 605.077 68.6774 603.578 67.9508 601.824C67.2242 600.07 67.0341 598.139 67.4046 596.277C67.775 594.415 68.6893 592.705 70.0319 591.362C71.3745 590.019 73.085 589.105 74.9472 588.734C76.8094 588.364 78.7396 588.554 80.4938 589.281C82.248 590.007 83.7473 591.238 84.8021 592.817C85.857 594.395 86.4201 596.251 86.4201 598.15C86.4201 600.696 85.4086 603.138 83.6083 604.938C81.808 606.739 79.3662 607.75 76.8201 607.75ZM76.8201 591.55C75.5147 591.55 74.2387 591.937 73.1533 592.662C72.068 593.388 71.222 594.418 70.7224 595.624C70.2229 596.83 70.0922 598.157 70.3468 599.438C70.6015 600.718 71.2301 601.894 72.1531 602.817C73.0761 603.74 74.2522 604.369 75.5325 604.623C76.8128 604.878 78.1397 604.747 79.3457 604.248C80.5517 603.748 81.5825 602.902 82.3078 601.817C83.033 600.731 83.4201 599.455 83.4201 598.15C83.4174 596.4 82.7212 594.723 81.484 593.486C80.2469 592.249 78.5697 591.553 76.8201 591.55Z" fill="#ED5564"/>
<path d="M142.26 419.41C141.901 419.412 141.554 419.285 141.281 419.052C141.007 418.82 140.827 418.497 140.771 418.143C140.715 417.788 140.789 417.426 140.977 417.121C141.166 416.816 141.458 416.588 141.8 416.48L206.62 395.48C206.993 395.373 207.393 395.416 207.736 395.598C208.078 395.78 208.337 396.088 208.458 396.457C208.578 396.826 208.551 397.227 208.381 397.577C208.212 397.926 207.914 398.196 207.55 398.33L142.73 419.33C142.578 419.381 142.42 419.408 142.26 419.41Z" fill="#FCE054"/>
</svg>
