<svg width="700" height="700" viewBox="0 0 700 700" fill="none" xmlns="http://www.w3.org/2000/svg">
<rect width="700" height="700" fill="white"/>
<path d="M429.91 588.756C429.91 588.756 398.18 480.886 408.33 425.066C418.48 369.246 484.48 343.846 520.02 378.066C520.02 378.066 511.13 282.876 554.28 282.876C597.43 282.876 608.86 360.296 593.63 431.366C593.63 431.366 644.39 376.796 649.47 447.866C654.55 518.936 616.47 588.736 616.47 588.736L429.91 588.756Z" fill="#FCE054"/>
<path d="M544.62 590.896C544.223 590.883 543.847 590.714 543.574 590.426C543.3 590.137 543.152 589.753 543.16 589.356L548.38 362.186C548.381 361.987 548.422 361.791 548.501 361.609C548.58 361.426 548.694 361.261 548.838 361.124C548.982 360.987 549.151 360.88 549.337 360.81C549.523 360.74 549.721 360.708 549.92 360.716C550.317 360.729 550.693 360.898 550.966 361.186C551.239 361.475 551.388 361.859 551.38 362.256L546.16 589.426C546.156 589.624 546.113 589.819 546.033 590C545.954 590.181 545.839 590.345 545.696 590.482C545.553 590.618 545.384 590.725 545.199 590.796C545.014 590.867 544.818 590.901 544.62 590.896Z" fill="white"/>
<path d="M547.23 550.916C546.955 550.916 546.686 550.841 546.451 550.699C546.217 550.557 546.025 550.353 545.899 550.109C545.772 549.866 545.714 549.592 545.732 549.319C545.75 549.045 545.842 548.781 546 548.556L595.57 478.116C595.799 477.79 596.149 477.568 596.542 477.5C596.935 477.431 597.339 477.522 597.665 477.751C597.991 477.98 598.213 478.33 598.281 478.723C598.35 479.116 598.259 479.52 598.03 479.846L548.46 550.276C548.321 550.474 548.137 550.635 547.923 550.747C547.709 550.858 547.471 550.916 547.23 550.916Z" fill="white"/>
<path d="M620.99 526.616H596.75V529.616H620.99V526.616Z" fill="#CB93EE"/>
<path d="M573.362 330.081L565.649 343.306L568.241 344.818L575.953 331.592L573.362 330.081Z" fill="#CB93EE"/>
<path d="M603.36 517.496C602.962 517.54 602.563 517.424 602.251 517.173C601.939 516.923 601.739 516.559 601.695 516.161C601.651 515.763 601.767 515.364 602.017 515.052C602.268 514.74 602.632 514.54 603.03 514.496L612.95 512.286C613.142 512.243 613.341 512.239 613.535 512.273C613.729 512.307 613.915 512.379 614.081 512.485C614.247 512.591 614.391 512.729 614.504 512.89C614.617 513.052 614.697 513.234 614.74 513.426C614.782 513.618 614.787 513.817 614.753 514.011C614.719 514.205 614.646 514.391 614.541 514.557C614.435 514.723 614.297 514.867 614.136 514.98C613.974 515.093 613.792 515.173 613.6 515.216L603.68 517.426C603.576 517.46 603.468 517.483 603.36 517.496Z" fill="white"/>
<path d="M559.29 332.406H559.02C558.826 332.37 558.641 332.296 558.476 332.189C558.311 332.081 558.169 331.942 558.057 331.78C557.946 331.617 557.867 331.434 557.827 331.241C557.786 331.049 557.784 330.85 557.82 330.656L562.22 306.426C562.255 306.229 562.328 306.041 562.435 305.872C562.543 305.704 562.683 305.558 562.847 305.443C563.01 305.328 563.195 305.247 563.391 305.204C563.586 305.161 563.788 305.156 563.985 305.191C564.182 305.226 564.37 305.299 564.539 305.407C564.707 305.514 564.853 305.654 564.968 305.818C565.082 305.982 565.164 306.167 565.207 306.362C565.25 306.557 565.255 306.759 565.22 306.956L560.82 331.196C560.749 331.546 560.556 331.86 560.276 332.081C559.996 332.303 559.647 332.418 559.29 332.406Z" fill="white"/>
<path d="M127.85 590.066C127.85 590.066 40.2798 432.326 91.0298 364.746C141.78 297.166 212.89 354.886 224.31 414.066C224.31 414.066 238.31 370.416 273.8 391.536C309.29 412.656 256.03 590.066 256.03 590.066H127.85Z" fill="#47CEC0"/>
<path d="M176.71 590.896C176.363 590.894 176.028 590.772 175.76 590.552C175.492 590.332 175.309 590.026 175.24 589.686L137.17 396.776C137.113 396.395 137.205 396.006 137.428 395.691C137.65 395.376 137.985 395.158 138.363 395.084C138.741 395.009 139.134 395.083 139.459 395.29C139.784 395.497 140.017 395.822 140.11 396.196L178.19 589.066C178.234 589.26 178.239 589.462 178.204 589.658C178.169 589.854 178.096 590.042 177.988 590.209C177.88 590.377 177.739 590.521 177.575 590.634C177.41 590.747 177.225 590.826 177.03 590.866C176.924 590.887 176.817 590.897 176.71 590.896Z" fill="white"/>
<path d="M152.29 467.156C151.961 467.154 151.642 467.045 151.38 466.846L117.38 440.846C117.064 440.603 116.858 440.245 116.806 439.85C116.755 439.456 116.862 439.057 117.105 438.741C117.347 438.425 117.706 438.219 118.1 438.168C118.495 438.116 118.894 438.223 119.21 438.466L153.21 464.466C153.459 464.657 153.642 464.922 153.733 465.222C153.823 465.523 153.818 465.844 153.716 466.141C153.614 466.439 153.422 466.696 153.166 466.878C152.91 467.06 152.604 467.157 152.29 467.156Z" fill="white"/>
<path d="M166.734 357.098L163.43 374.721L166.378 375.274L169.683 357.651L166.734 357.098Z" fill="#FCE054"/>
<path d="M390.42 589.396C390.42 589.396 336.32 491.956 367.68 450.196C399.04 408.436 442.96 444.106 450.02 480.646C450.02 480.646 458.64 453.646 480.6 466.726C502.56 479.806 469.6 589.396 469.6 589.396H390.42Z" fill="#47CEC0"/>
<path d="M429.58 590.896C429.249 590.894 428.927 590.783 428.665 590.581C428.404 590.379 428.215 590.096 428.13 589.776L398.63 478.066C398.579 477.876 398.567 477.677 398.593 477.482C398.619 477.287 398.683 477.098 398.782 476.928C398.881 476.758 399.013 476.608 399.169 476.489C399.326 476.369 399.504 476.282 399.695 476.231C399.885 476.18 400.084 476.168 400.279 476.194C400.474 476.22 400.662 476.285 400.833 476.383C401.003 476.482 401.152 476.614 401.272 476.77C401.392 476.927 401.479 477.106 401.53 477.296L431.03 589.006C431.081 589.197 431.094 589.396 431.068 589.593C431.042 589.789 430.977 589.978 430.878 590.149C430.778 590.32 430.646 590.469 430.488 590.589C430.331 590.709 430.151 590.796 429.96 590.846C429.836 590.878 429.708 590.895 429.58 590.896Z" fill="white"/>
<path d="M425.12 574.006C424.942 574.007 424.765 573.973 424.6 573.906C424.228 573.769 423.925 573.49 423.758 573.13C423.592 572.77 423.574 572.359 423.71 571.986L443.09 519.066C443.242 518.719 443.52 518.443 443.868 518.292C444.216 518.142 444.607 518.128 444.965 518.255C445.322 518.382 445.618 518.639 445.793 518.975C445.968 519.311 446.01 519.701 445.91 520.066L426.53 573.066C426.417 573.347 426.222 573.586 425.97 573.754C425.719 573.922 425.422 574.01 425.12 574.006Z" fill="white"/>
<path d="M231.39 589.396C231.39 589.396 190.95 499.166 246.58 468.826C300.06 439.656 333.75 516.466 300.73 589.396H231.39Z" fill="#FCE054"/>
<path d="M265.54 588.946C265.154 588.946 264.782 588.798 264.503 588.532C264.224 588.265 264.058 587.902 264.04 587.516L260.16 499.066C260.141 498.668 260.281 498.279 260.55 497.985C260.818 497.69 261.192 497.515 261.59 497.496C261.988 497.477 262.377 497.618 262.671 497.886C262.965 498.154 263.141 498.528 263.16 498.926L267.03 587.386C267.046 587.782 266.905 588.169 266.637 588.461C266.369 588.754 265.996 588.928 265.6 588.946H265.54Z" fill="white"/>
<path d="M263.6 561.726C263.355 561.726 263.113 561.666 262.897 561.551C262.681 561.436 262.496 561.27 262.36 561.066L243.88 533.836C243.657 533.506 243.574 533.101 243.65 532.71C243.726 532.319 243.955 531.974 244.285 531.751C244.615 531.528 245.02 531.446 245.411 531.522C245.802 531.598 246.147 531.826 246.37 532.156L264.84 559.376C265.062 559.707 265.145 560.112 265.07 560.503C264.996 560.895 264.769 561.241 264.44 561.466C264.191 561.633 263.899 561.723 263.6 561.726Z" fill="white"/>
<path d="M265.54 529.636C265.253 529.637 264.972 529.556 264.73 529.402C264.488 529.249 264.295 529.029 264.174 528.769C264.053 528.509 264.009 528.22 264.047 527.936C264.086 527.652 264.204 527.385 264.39 527.166L284.81 502.866C284.937 502.715 285.092 502.59 285.267 502.499C285.442 502.408 285.633 502.353 285.829 502.335C286.025 502.318 286.223 502.34 286.411 502.399C286.599 502.459 286.774 502.554 286.925 502.681C287.076 502.808 287.2 502.963 287.291 503.138C287.382 503.313 287.438 503.504 287.455 503.7C287.473 503.897 287.451 504.094 287.392 504.282C287.332 504.47 287.237 504.645 287.11 504.796L266.69 529.066C266.554 529.242 266.38 529.384 266.18 529.483C265.981 529.582 265.762 529.634 265.54 529.636Z" fill="white"/>
<path d="M290.265 552.626L283.652 563.644L286.225 565.188L292.837 554.17L290.265 552.626Z" fill="#CB93EE"/>
<path d="M365.03 589.396C365.03 589.396 341.57 537.066 373.84 519.466C404.84 502.546 424.39 547.096 405.24 589.396H365.03Z" fill="#FCE054"/>
<path d="M384.82 589.766C384.436 589.764 384.067 589.614 383.79 589.348C383.512 589.082 383.348 588.72 383.33 588.336L381.03 537.066C381.011 536.668 381.152 536.279 381.42 535.985C381.688 535.69 382.062 535.515 382.46 535.496C382.858 535.477 383.247 535.618 383.541 535.886C383.835 536.154 384.011 536.528 384.03 536.926L386.28 588.246C386.289 588.443 386.26 588.64 386.193 588.826C386.126 589.011 386.023 589.182 385.891 589.328C385.758 589.473 385.597 589.592 385.419 589.675C385.24 589.759 385.047 589.807 384.85 589.816L384.82 589.766Z" fill="white"/>
<path d="M383.7 573.976C383.455 573.976 383.213 573.916 382.997 573.801C382.781 573.686 382.596 573.52 382.46 573.316L371.74 557.526C371.616 557.364 371.527 557.178 371.478 556.98C371.429 556.782 371.42 556.576 371.453 556.375C371.486 556.174 371.56 555.981 371.67 555.81C371.78 555.638 371.923 555.49 372.092 555.376C372.261 555.262 372.451 555.183 372.652 555.144C372.852 555.106 373.058 555.109 373.257 555.153C373.456 555.197 373.644 555.281 373.81 555.4C373.975 555.52 374.115 555.671 374.22 555.846L384.94 571.636C385.159 571.966 385.24 572.369 385.166 572.758C385.091 573.147 384.866 573.491 384.54 573.716C384.291 573.883 383.999 573.973 383.7 573.976Z" fill="white"/>
<path d="M384.82 555.366C384.534 555.365 384.254 555.283 384.014 555.128C383.773 554.974 383.582 554.754 383.462 554.495C383.342 554.235 383.299 553.947 383.338 553.664C383.376 553.38 383.495 553.114 383.68 552.896L395.52 538.796C395.647 538.645 395.802 538.52 395.977 538.429C396.151 538.338 396.343 538.283 396.539 538.265C396.735 538.248 396.933 538.27 397.121 538.329C397.309 538.389 397.484 538.484 397.635 538.611C397.786 538.738 397.91 538.893 398.002 539.068C398.093 539.243 398.148 539.434 398.165 539.63C398.183 539.827 398.161 540.024 398.102 540.212C398.042 540.401 397.947 540.575 397.82 540.726L385.97 554.826C385.831 554.996 385.655 555.133 385.456 555.227C385.257 555.32 385.04 555.368 384.82 555.366Z" fill="white"/>
<path d="M399.54 560.466C399.229 560.474 398.923 560.385 398.665 560.211C398.407 560.037 398.209 559.787 398.099 559.496C397.989 559.205 397.972 558.887 398.051 558.586C398.13 558.285 398.301 558.016 398.54 557.816L405.15 552.306C405.299 552.168 405.475 552.061 405.667 551.993C405.858 551.925 406.062 551.897 406.265 551.91C406.468 551.923 406.666 551.977 406.848 552.069C407.029 552.161 407.19 552.289 407.32 552.446C407.451 552.602 407.548 552.783 407.606 552.978C407.664 553.173 407.682 553.377 407.659 553.58C407.635 553.782 407.571 553.977 407.47 554.153C407.369 554.33 407.233 554.484 407.07 554.606L400.46 560.116C400.201 560.332 399.877 560.455 399.54 560.466Z" fill="white"/>
<path d="M266.91 193.436L271.45 194.946L268.42 197.466" fill="#201000"/>
<path d="M238.69 208.556C238.69 208.556 247.26 205.556 249.78 200.996C252.3 196.436 253.78 190.416 260.87 189.906C267.96 189.396 269.43 198.476 269.43 200.996C269.43 203.516 269.94 212.086 261.87 216.116C253.8 220.146 244.74 216.616 238.69 208.556Z" fill="#CB93EE"/>
<path d="M248.74 213.636C248.74 213.636 264.81 212.406 260.61 204.306C257.03 197.356 247.03 205.756 248.74 213.636Z" fill="#201000"/>
<path d="M263.13 193.446C263.549 193.446 263.89 193.106 263.89 192.686C263.89 192.266 263.549 191.926 263.13 191.926C262.71 191.926 262.37 192.266 262.37 192.686C262.37 193.106 262.71 193.446 263.13 193.446Z" fill="black"/>
<path d="M238.9 590.806L230.26 532.686L291.92 379.586L373.8 384.256L374.07 384.716L450.61 513.716L450.57 514.056L441.97 590.776L439.98 590.556L448.55 514.166L372.63 386.196L293.24 381.656L232.32 532.926L240.88 590.516L238.9 590.806Z" fill="black"/>
<path d="M281.14 301.556C281.14 301.556 295.38 256.246 333.45 252.436C371.52 248.626 397.11 274.236 402.09 306.486C407.07 338.736 281.14 301.556 281.14 301.556Z" fill="#47CEC0"/>
<path d="M318.22 291.786C318.22 291.786 361.37 230.866 384.22 260.056C407.07 289.246 386.76 309.546 396.91 324.776C407.06 340.006 282.69 351.426 276.34 333.666C269.99 315.906 291.57 279.066 318.22 291.786Z" fill="#201000"/>
<path d="M317.91 343.706C311.05 343.706 304.54 343.436 298.77 342.866C284.87 341.486 277.01 338.506 275.4 333.996C271.58 323.286 277.58 305.886 288.52 295.996C297.4 287.996 307.8 286.046 317.89 290.516C321.81 285.136 347.05 251.646 368.65 251.136C375.09 250.986 380.58 253.766 385.01 259.426C398.9 277.186 397.1 291.926 395.65 303.766C394.65 311.616 393.86 318.386 397.74 324.216C398.21 324.855 398.474 325.622 398.499 326.414C398.524 327.207 398.308 327.989 397.88 328.656C392.64 337.386 351.17 343.706 317.91 343.706ZM307.26 290.176C299.43 290.176 293.33 294.356 289.86 297.496C279.46 306.886 273.7 323.296 277.28 333.326C278.57 336.936 286.28 339.616 298.97 340.876C333.6 344.316 390.83 336.516 396.16 327.636C396.394 327.294 396.512 326.887 396.498 326.473C396.483 326.059 396.337 325.661 396.08 325.336C391.78 318.896 392.65 311.776 393.66 303.536C395.14 291.456 396.82 277.776 383.43 260.666C379.43 255.536 374.43 253.016 368.7 253.146C346.7 253.666 319.31 291.976 319.04 292.356C318.904 292.55 318.704 292.69 318.475 292.75C318.246 292.811 318.004 292.788 317.79 292.686C314.513 291.069 310.914 290.211 307.26 290.176Z" fill="black"/>
<path d="M299.82 376.176C299.82 376.176 303.63 412.986 332.82 416.796C362.01 420.606 381.05 419.326 388.66 376.176C396.27 333.026 377.24 300.036 354.39 297.496C331.54 294.956 316.32 301.296 304.9 324.146C293.48 346.996 299.82 376.176 299.82 376.176Z" fill="white"/>
<path d="M345.55 298.966C348.43 298.983 351.308 299.153 354.17 299.476C362.01 300.356 369.62 305.236 375.6 313.226C386.82 328.226 390.97 351.606 386.69 375.836C380.76 409.426 368.26 416.176 350.01 416.176C344.343 416.088 338.687 415.631 333.08 414.806C321.72 413.326 313.02 406.426 307.23 394.296C304.505 388.499 302.677 382.322 301.81 375.976V375.756C301.74 375.466 295.74 346.996 306.72 325.036C315.85 306.766 327.48 298.966 345.58 298.966H345.55ZM345.58 296.966C327.58 296.966 314.81 304.386 304.93 324.146C293.51 346.986 299.85 376.146 299.85 376.146C299.85 376.146 303.66 412.956 332.85 416.766C338.545 417.587 344.286 418.048 350.04 418.146C369.6 418.146 382.69 410.146 388.69 376.146C396.31 332.996 377.27 300.006 354.42 297.466C351.485 297.123 348.534 296.946 345.58 296.936V296.966Z" fill="black"/>
<path d="M329.03 376.176C329.03 376.176 332.84 371.106 336.65 374.906L329.03 376.176Z" fill="white"/>
<path d="M329.03 377.176C328.813 377.176 328.603 377.106 328.43 376.976C328.218 376.817 328.077 376.58 328.04 376.317C328.002 376.055 328.071 375.788 328.23 375.576C328.32 375.466 330.42 372.706 333.23 372.506C333.993 372.468 334.756 372.601 335.462 372.895C336.168 373.189 336.799 373.637 337.31 374.206C337.415 374.296 337.5 374.406 337.56 374.53C337.62 374.654 337.653 374.789 337.659 374.927C337.664 375.065 337.641 375.202 337.59 375.33C337.54 375.459 337.464 375.575 337.367 375.673C337.269 375.77 337.152 375.846 337.024 375.897C336.896 375.947 336.758 375.97 336.621 375.965C336.483 375.96 336.348 375.926 336.224 375.866C336.1 375.806 335.989 375.721 335.9 375.616C335.59 375.253 335.203 374.965 334.767 374.773C334.33 374.581 333.856 374.49 333.38 374.506C331.45 374.636 329.81 376.756 329.79 376.776C329.701 376.895 329.586 376.993 329.455 377.062C329.324 377.131 329.178 377.17 329.03 377.176Z" fill="black"/>
<path d="M296.27 363.116C308.884 363.116 319.11 352.89 319.11 340.276C319.11 327.662 308.884 317.436 296.27 317.436C283.656 317.436 273.43 327.662 273.43 340.276C273.43 352.89 283.656 363.116 296.27 363.116Z" fill="white"/>
<path d="M296.3 319.436C301.708 319.457 306.896 321.583 310.763 325.365C314.63 329.146 316.872 334.285 317.013 339.692C317.155 345.098 315.185 350.347 311.521 354.326C307.857 358.304 302.788 360.699 297.388 361.003C291.988 361.307 286.682 359.495 282.595 355.952C278.509 352.409 275.963 347.414 275.498 342.026C275.032 336.637 276.684 331.28 280.102 327.088C283.521 322.897 288.438 320.203 293.81 319.576C294.637 319.485 295.468 319.438 296.3 319.436ZM296.3 317.436C291.666 317.43 287.14 318.833 283.323 321.459C279.506 324.085 276.577 327.811 274.927 332.14C273.276 336.47 272.982 341.199 274.082 345.7C275.183 350.201 277.626 354.261 281.088 357.341C284.55 360.42 288.866 362.374 293.465 362.943C298.063 363.512 302.726 362.669 306.834 360.525C310.942 358.382 314.301 355.04 316.465 350.943C318.629 346.846 319.496 342.187 318.95 337.586C318.326 332.025 315.667 326.89 311.486 323.171C307.305 319.451 301.896 317.408 296.3 317.436Z" fill="black"/>
<path d="M246.3 350.066C246.3 350.066 227.38 330.586 201.61 371.976C175.84 413.366 121.45 525.866 144.68 560.166C167.91 594.466 203.87 585.106 234.6 531.626C265.33 478.146 296.79 392.916 302.09 389.426C309.21 384.756 330.4 369.426 332.02 361.606C333.31 355.386 328.75 355.606 318.16 363.246C307.22 371.136 325.77 330.396 325.53 317.636C325.29 304.876 311.14 304.006 311.14 304.006C311.14 304.006 303.64 294.676 296.53 299.356C296.53 299.356 284.14 291.876 278.22 306.636C272.3 321.396 246.3 350.066 246.3 350.066Z" fill="white"/>
<path d="M289.52 299.456C291.62 299.506 293.677 300.058 295.52 301.066C295.822 301.249 296.167 301.349 296.52 301.356C296.911 301.356 297.293 301.241 297.62 301.026C298.548 300.382 299.65 300.033 300.78 300.026C305.29 300.026 309.53 305.206 309.57 305.256C309.744 305.472 309.961 305.649 310.207 305.776C310.453 305.904 310.723 305.979 311 305.996C311.5 305.996 323.33 306.946 323.52 317.666C323.61 322.596 320.52 332.746 317.71 341.666C313.22 356.216 311.58 362.396 313.49 364.986C313.771 365.368 314.139 365.677 314.563 365.889C314.987 366.102 315.456 366.21 315.93 366.206C317.176 366.11 318.361 365.628 319.32 364.826C326.4 359.716 329.13 359.166 329.98 359.166H330.16C330.276 359.832 330.239 360.517 330.05 361.166C328.82 367.116 312.31 380.276 300.98 387.726C298.5 389.366 294.34 398.646 282.11 426.916C268.9 457.486 250.8 499.356 232.85 530.596C215.17 561.376 195.26 578.326 176.78 578.326C165.41 578.326 154.88 571.646 146.33 559.016C136.65 544.736 140.22 513.736 156.64 469.376C170.17 432.836 189.82 394.626 203.3 372.976C216.45 351.856 227.42 347.426 234.3 347.426C238.184 347.425 241.934 348.849 244.84 351.426C245.025 351.618 245.248 351.771 245.493 351.876C245.739 351.98 246.003 352.035 246.27 352.036C246.542 352.03 246.81 351.968 247.058 351.855C247.306 351.741 247.527 351.578 247.71 351.376C248.78 350.196 274.02 322.296 280.01 307.376C282.11 302.126 285.29 299.456 289.45 299.456H289.52ZM289.45 297.456C285.63 297.456 281.09 299.306 278.15 306.636C272.23 321.396 246.23 350.036 246.23 350.036C242.948 347.055 238.663 345.419 234.23 345.456C226.23 345.456 214.79 350.626 201.51 371.946C175.75 413.336 121.35 525.866 144.58 560.166C153.69 573.616 164.75 580.356 176.69 580.356C195.2 580.356 215.81 564.146 234.5 531.626C265.22 478.136 296.69 392.916 301.99 389.426C309.11 384.756 330.3 369.426 331.92 361.606C332.52 358.706 331.85 357.206 329.92 357.206C327.67 357.206 323.74 359.206 318.09 363.206C317.465 363.751 316.692 364.099 315.87 364.206C310.24 364.206 325.68 329.206 325.46 317.596C325.23 304.846 311.07 303.966 311.07 303.966C311.07 303.966 306.27 297.966 300.72 297.966C299.2 297.969 297.715 298.429 296.46 299.286C294.317 298.09 291.913 297.437 289.46 297.386L289.45 297.456Z" fill="black"/>
<path d="M267.68 379.456C272.79 368.626 271.96 350.826 268.09 339.786C264.22 328.746 273.97 319.276 281.09 314.606C288.21 309.936 285.6 298.726 275.01 306.376C264.26 314.126 247.27 347.376 238.62 371.376C229.97 395.376 177.11 488.576 177.11 488.576" fill="white"/>
<path d="M177.1 489.596C176.924 489.597 176.751 489.551 176.598 489.464C176.446 489.376 176.319 489.25 176.231 489.098C176.143 488.946 176.096 488.773 176.096 488.597C176.096 488.421 176.142 488.248 176.23 488.096C176.76 487.166 229.14 394.736 237.67 371.096C245.67 349.016 262.81 313.976 274.41 305.606C278.96 302.316 281.83 302.516 283.41 303.266C284.184 303.653 284.838 304.244 285.302 304.975C285.765 305.707 286.02 306.551 286.04 307.416C286.068 309.029 285.675 310.622 284.898 312.036C284.12 313.45 282.987 314.636 281.61 315.476C277.61 318.106 264.86 327.626 269.02 339.476C272.91 350.606 273.81 368.776 268.57 379.896C268.514 380.016 268.435 380.124 268.337 380.213C268.239 380.302 268.125 380.371 268 380.416C267.875 380.461 267.743 380.48 267.611 380.473C267.479 380.466 267.349 380.433 267.23 380.376C266.992 380.261 266.808 380.057 266.72 379.808C266.632 379.559 266.646 379.285 266.76 379.046C271.76 368.386 270.89 350.896 267.13 340.136C262.49 326.896 276.2 316.616 280.51 313.786C281.587 313.137 282.479 312.221 283.097 311.126C283.716 310.03 284.041 308.794 284.04 307.536C284.036 307.028 283.897 306.531 283.637 306.095C283.377 305.659 283.005 305.3 282.56 305.056C281.01 304.336 278.46 305.116 275.56 307.206C265.38 314.556 248.4 347.116 239.56 371.756C230.98 395.586 178.56 488.176 177.98 489.106C177.89 489.258 177.761 489.384 177.606 489.47C177.451 489.556 177.277 489.6 177.1 489.596Z" fill="black"/>
<path d="M293.86 298.386C293.86 298.386 299.35 301.576 301.65 310.246L293.86 298.386Z" fill="white"/>
<path d="M301.65 311.246C301.424 311.254 301.202 311.185 301.021 311.05C300.839 310.916 300.708 310.724 300.65 310.506C298.49 302.376 293.36 299.286 293.31 299.256C293.082 299.121 292.917 298.9 292.851 298.644C292.786 298.387 292.825 298.114 292.96 297.886C293.093 297.659 293.311 297.494 293.566 297.426C293.82 297.359 294.091 297.395 294.32 297.526C294.56 297.666 300.19 301.016 302.58 309.986C302.615 310.113 302.624 310.246 302.607 310.377C302.59 310.508 302.547 310.635 302.481 310.749C302.415 310.863 302.327 310.963 302.222 311.044C302.117 311.124 301.997 311.182 301.87 311.216C301.798 311.233 301.724 311.243 301.65 311.246Z" fill="black"/>
<path d="M310.03 302.776C310.03 302.776 314.03 306.236 313.61 313.946L310.03 302.776Z" fill="white"/>
<path d="M313.59 314.946C313.454 314.946 313.32 314.919 313.195 314.865C313.071 314.812 312.958 314.734 312.864 314.636C312.771 314.537 312.698 314.421 312.651 314.294C312.604 314.167 312.583 314.031 312.59 313.896C312.93 306.816 309.49 303.656 309.34 303.526C309.154 303.348 309.044 303.104 309.033 302.847C309.023 302.589 309.112 302.338 309.282 302.144C309.452 301.951 309.69 301.83 309.947 301.808C310.204 301.786 310.459 301.864 310.66 302.026C310.84 302.176 314.97 305.886 314.59 314.026C314.57 314.277 314.455 314.511 314.27 314.682C314.085 314.853 313.842 314.947 313.59 314.946Z" fill="black"/>
<path d="M297.68 373.116C315.204 373.116 329.41 358.91 329.41 341.386C329.41 323.862 315.204 309.656 297.68 309.656C280.156 309.656 265.95 323.862 265.95 341.386C265.95 358.91 280.156 373.116 297.68 373.116Z" fill="white"/>
<path d="M297.72 311.656C305.308 311.652 312.61 314.549 318.131 319.754C323.652 324.959 326.974 332.078 327.417 339.653C327.859 347.228 325.388 354.686 320.51 360.498C315.632 366.31 308.717 370.037 301.18 370.916C300.005 371.05 298.823 371.121 297.64 371.126C289.848 370.973 282.427 367.768 276.975 362.199C271.522 356.631 268.473 349.145 268.484 341.352C268.494 333.558 271.563 326.081 277.031 320.527C282.499 314.974 289.928 311.788 297.72 311.656ZM297.72 309.656C296.456 309.658 295.194 309.735 293.94 309.886C285.907 310.837 278.54 314.82 273.345 321.021C268.151 327.223 265.521 335.174 265.994 343.249C266.466 351.325 270.005 358.915 275.887 364.468C281.769 370.021 289.55 373.118 297.64 373.126C298.9 373.123 300.159 373.046 301.41 372.896C309.442 371.945 316.808 367.963 322.003 361.763C327.197 355.562 329.827 347.612 329.356 339.538C328.885 331.463 325.348 323.873 319.468 318.319C313.587 312.765 305.808 309.666 297.72 309.656Z" fill="black"/>
<path d="M296.97 365.586C310.639 365.586 321.72 354.505 321.72 340.836C321.72 327.167 310.639 316.086 296.97 316.086C283.301 316.086 272.22 327.167 272.22 340.836C272.22 354.505 283.301 365.586 296.97 365.586Z" fill="white"/>
<path d="M297.03 318.066C302.826 318.077 308.4 320.3 312.613 324.281C316.825 328.263 319.36 333.702 319.698 339.489C320.036 345.275 318.153 350.973 314.432 355.418C310.712 359.863 305.435 362.72 299.68 363.406C298.78 363.509 297.875 363.563 296.97 363.566C291.173 363.555 285.6 361.332 281.387 357.351C277.174 353.369 274.64 347.93 274.302 342.143C273.963 336.357 275.847 330.659 279.567 326.214C283.287 321.769 288.564 318.912 294.32 318.226C295.219 318.118 296.124 318.064 297.03 318.066ZM297.03 316.066C296.047 316.063 295.065 316.12 294.09 316.236C287.821 316.975 282.072 320.08 278.018 324.917C273.963 329.754 271.91 335.958 272.278 342.259C272.646 348.559 275.407 354.482 279.997 358.814C284.586 363.147 290.658 365.562 296.97 365.566C297.953 365.565 298.934 365.505 299.91 365.386C306.161 364.628 311.889 361.516 315.927 356.683C319.964 351.85 322.007 345.66 321.64 339.373C321.273 333.086 318.523 327.176 313.951 322.846C309.378 318.515 303.327 316.091 297.03 316.066Z" fill="black"/>
<path d="M238.27 404.736L250.96 353.966L247.29 348.966C246.67 349.676 246.29 350.076 246.29 350.076C246.29 350.076 227.37 330.596 201.6 371.986C195.6 381.546 188.17 394.906 180.47 410.216L212.7 424.026L238.27 404.736Z" fill="white"/>
<path d="M234.33 347.456C238.214 347.458 241.962 348.881 244.87 351.456L246.35 352.986L247.13 352.126L248.79 354.416L236.5 403.566L212.43 421.696L183.23 409.176C190.13 395.556 197.23 382.776 203.31 373.006C216.46 351.886 227.43 347.456 234.31 347.456H234.33ZM234.31 345.456C226.31 345.456 214.87 350.626 201.59 371.946C195.59 381.506 188.16 394.866 180.46 410.176L212.69 423.986L238.25 404.736L250.94 353.966L247.27 348.966C246.65 349.676 246.27 350.076 246.27 350.076C242.988 347.095 238.703 345.459 234.27 345.496L234.31 345.456Z" fill="black"/>
<path d="M296.27 363.116C308.884 363.116 319.11 352.89 319.11 340.276C319.11 327.662 308.884 317.436 296.27 317.436C283.656 317.436 273.43 327.662 273.43 340.276C273.43 352.89 283.656 363.116 296.27 363.116Z" fill="white"/>
<path d="M296.3 319.436C301.708 319.457 306.896 321.583 310.763 325.365C314.63 329.146 316.872 334.285 317.013 339.692C317.155 345.098 315.185 350.347 311.521 354.326C307.857 358.304 302.788 360.699 297.388 361.003C291.988 361.307 286.682 359.495 282.595 355.952C278.509 352.409 275.963 347.414 275.498 342.026C275.032 336.637 276.684 331.28 280.102 327.088C283.521 322.897 288.438 320.203 293.81 319.576C294.637 319.485 295.468 319.438 296.3 319.436ZM296.3 317.436C291.666 317.43 287.14 318.833 283.323 321.459C279.506 324.085 276.577 327.811 274.927 332.14C273.276 336.47 272.982 341.199 274.082 345.7C275.183 350.201 277.626 354.261 281.088 357.341C284.55 360.42 288.866 362.374 293.465 362.943C298.063 363.512 302.726 362.669 306.834 360.525C310.942 358.382 314.301 355.04 316.465 350.943C318.629 346.846 319.496 342.187 318.95 337.586C318.326 332.025 315.667 326.89 311.486 323.171C307.305 319.451 301.896 317.408 296.3 317.436Z" fill="black"/>
<path d="M267.68 379.456C272.79 368.626 271.96 350.826 268.09 339.786C264.22 328.746 273.97 319.276 281.09 314.606C288.21 309.936 285.6 298.726 275.01 306.376C264.26 314.126 247.27 347.376 238.62 371.376C229.97 395.376 177.11 488.576 177.11 488.576" fill="white"/>
<path d="M177.1 489.596C176.924 489.597 176.751 489.551 176.598 489.464C176.446 489.376 176.319 489.25 176.231 489.098C176.143 488.946 176.096 488.773 176.096 488.597C176.096 488.421 176.142 488.248 176.23 488.096C176.76 487.166 229.14 394.736 237.67 371.096C245.67 349.016 262.81 313.976 274.41 305.606C278.96 302.316 281.83 302.516 283.41 303.266C284.184 303.653 284.838 304.244 285.302 304.975C285.765 305.707 286.02 306.551 286.04 307.416C286.068 309.029 285.675 310.622 284.898 312.036C284.12 313.45 282.987 314.636 281.61 315.476C277.61 318.106 264.86 327.626 269.02 339.476C272.91 350.606 273.81 368.776 268.57 379.896C268.514 380.016 268.435 380.124 268.337 380.213C268.239 380.302 268.125 380.371 268 380.416C267.875 380.461 267.743 380.48 267.611 380.473C267.479 380.466 267.349 380.433 267.23 380.376C266.992 380.261 266.808 380.057 266.72 379.808C266.632 379.559 266.646 379.285 266.76 379.046C271.76 368.386 270.89 350.896 267.13 340.136C262.49 326.896 276.2 316.616 280.51 313.786C281.587 313.137 282.479 312.221 283.097 311.126C283.716 310.03 284.041 308.794 284.04 307.536C284.036 307.028 283.897 306.531 283.637 306.095C283.377 305.659 283.005 305.3 282.56 305.056C281.01 304.336 278.46 305.116 275.56 307.206C265.38 314.556 248.4 347.116 239.56 371.756C230.98 395.586 178.56 488.176 177.98 489.106C177.89 489.258 177.761 489.384 177.606 489.47C177.451 489.556 177.277 489.6 177.1 489.596Z" fill="black"/>
<path d="M293.86 298.386C293.86 298.386 299.35 301.576 301.65 310.246L293.86 298.386Z" fill="white"/>
<path d="M301.65 311.246C301.424 311.254 301.202 311.185 301.021 311.05C300.839 310.916 300.708 310.724 300.65 310.506C298.49 302.376 293.36 299.286 293.31 299.256C293.082 299.121 292.917 298.9 292.851 298.644C292.786 298.387 292.825 298.114 292.96 297.886C293.093 297.659 293.311 297.494 293.566 297.426C293.82 297.359 294.091 297.395 294.32 297.526C294.56 297.666 300.19 301.016 302.58 309.986C302.615 310.113 302.624 310.246 302.607 310.377C302.59 310.508 302.547 310.635 302.481 310.749C302.415 310.863 302.327 310.963 302.222 311.044C302.117 311.124 301.997 311.182 301.87 311.216C301.798 311.233 301.724 311.243 301.65 311.246Z" fill="black"/>
<path d="M310.03 302.776C310.03 302.776 314.03 306.236 313.61 313.946L310.03 302.776Z" fill="white"/>
<path d="M313.59 314.946C313.454 314.946 313.32 314.919 313.195 314.865C313.071 314.812 312.958 314.734 312.864 314.636C312.771 314.537 312.698 314.421 312.651 314.294C312.604 314.167 312.583 314.031 312.59 313.896C312.93 306.816 309.49 303.656 309.34 303.526C309.154 303.348 309.044 303.104 309.033 302.847C309.023 302.589 309.112 302.338 309.282 302.144C309.452 301.951 309.69 301.83 309.947 301.808C310.204 301.786 310.459 301.864 310.66 302.026C310.84 302.176 314.97 305.886 314.59 314.026C314.57 314.277 314.455 314.511 314.27 314.682C314.085 314.853 313.842 314.947 313.59 314.946Z" fill="black"/>
<path d="M297.68 373.116C315.204 373.116 329.41 358.91 329.41 341.386C329.41 323.862 315.204 309.656 297.68 309.656C280.156 309.656 265.95 323.862 265.95 341.386C265.95 358.91 280.156 373.116 297.68 373.116Z" fill="white"/>
<path d="M297.72 311.656C305.308 311.652 312.61 314.549 318.131 319.754C323.652 324.959 326.974 332.078 327.417 339.653C327.859 347.228 325.388 354.686 320.51 360.498C315.632 366.31 308.717 370.037 301.18 370.916C300.005 371.05 298.823 371.121 297.64 371.126C289.848 370.973 282.427 367.768 276.975 362.199C271.522 356.631 268.473 349.145 268.484 341.352C268.494 333.558 271.563 326.081 277.031 320.527C282.499 314.974 289.928 311.788 297.72 311.656ZM297.72 309.656C296.456 309.658 295.194 309.735 293.94 309.886C285.907 310.837 278.54 314.82 273.345 321.021C268.151 327.223 265.521 335.174 265.994 343.249C266.466 351.325 270.005 358.915 275.887 364.468C281.769 370.021 289.55 373.118 297.64 373.126C298.9 373.123 300.159 373.046 301.41 372.896C309.442 371.945 316.808 367.963 322.003 361.763C327.197 355.562 329.827 347.612 329.356 339.538C328.885 331.463 325.348 323.873 319.468 318.319C313.587 312.765 305.808 309.666 297.72 309.656Z" fill="black"/>
<path d="M296.97 365.586C310.639 365.586 321.72 354.505 321.72 340.836C321.72 327.167 310.639 316.086 296.97 316.086C283.301 316.086 272.22 327.167 272.22 340.836C272.22 354.505 283.301 365.586 296.97 365.586Z" fill="white"/>
<path d="M297.03 318.066C302.826 318.077 308.4 320.3 312.613 324.281C316.825 328.263 319.36 333.702 319.698 339.489C320.036 345.275 318.153 350.973 314.432 355.418C310.712 359.863 305.435 362.72 299.68 363.406C298.78 363.509 297.875 363.563 296.97 363.566C291.173 363.555 285.6 361.332 281.387 357.351C277.174 353.369 274.64 347.93 274.302 342.143C273.963 336.357 275.847 330.659 279.567 326.214C283.287 321.769 288.564 318.912 294.32 318.226C295.219 318.118 296.124 318.064 297.03 318.066ZM297.03 316.066C296.047 316.063 295.065 316.12 294.09 316.236C287.821 316.975 282.072 320.08 278.018 324.917C273.963 329.754 271.91 335.958 272.278 342.259C272.646 348.559 275.407 354.482 279.997 358.814C284.586 363.147 290.658 365.562 296.97 365.566C297.953 365.565 298.934 365.505 299.91 365.386C306.161 364.628 311.889 361.516 315.927 356.683C319.964 351.85 322.007 345.66 321.64 339.373C321.273 333.086 318.523 327.176 313.951 322.846C309.378 318.515 303.327 316.091 297.03 316.066Z" fill="black"/>
<path d="M432.51 350.946C432.51 350.946 452.09 332.116 476.43 374.366C500.77 416.616 551.32 530.916 526.94 564.416C502.56 597.916 466.94 587.326 438.05 532.826C409.16 478.326 380.6 392.086 375.42 388.426C368.42 383.506 347.81 367.506 346.42 359.596C345.35 353.346 349.89 353.706 360.22 361.706C370.88 369.966 353.73 328.616 354.4 315.876C355.07 303.136 369.25 302.746 369.25 302.746C369.25 302.746 377.06 293.676 384.01 298.586C384.01 298.586 396.64 291.586 402.01 306.486C407.38 321.386 432.51 350.946 432.51 350.946Z" fill="white"/>
<path d="M390.7 298.926C395.03 298.926 398.22 301.696 400.2 307.166C405.68 322.286 429.96 351.026 430.99 352.236C431.165 352.442 431.381 352.61 431.623 352.731C431.865 352.851 432.13 352.921 432.4 352.936H432.51C433.023 352.937 433.517 352.74 433.89 352.386C436.741 350.028 440.33 348.747 444.03 348.766C451.03 348.766 462.03 353.376 474.72 375.366C487.41 397.356 505.8 436.316 518.08 473.296C532.98 518.186 535.49 549.296 525.34 563.236C516.63 575.236 506.23 581.516 495.26 581.516C476.48 581.516 456.8 563.886 439.83 531.886C422.96 500.056 406.29 457.596 394.12 426.596C382.86 397.926 379.02 388.516 376.59 386.796C365.52 378.966 349.47 365.246 348.44 359.256C348.289 358.598 348.289 357.914 348.44 357.256H348.56C349.39 357.256 352.06 357.846 359.08 363.256C360.032 364.132 361.25 364.663 362.54 364.766C363.005 364.767 363.464 364.66 363.88 364.454C364.297 364.247 364.659 363.947 364.94 363.576C366.94 361.026 365.46 354.806 361.48 340.166C359.01 331.166 356.23 320.886 356.48 315.956C357.04 305.246 368.89 304.736 369.39 304.716C369.668 304.709 369.941 304.644 370.193 304.525C370.444 304.406 370.668 304.236 370.85 304.026C372.03 302.656 375.85 299.096 379.62 299.096C380.814 299.098 381.977 299.48 382.94 300.186C383.246 300.403 383.608 300.529 383.983 300.551C384.357 300.572 384.731 300.487 385.06 300.306C386.832 299.42 388.779 298.939 390.76 298.896L390.7 298.926ZM390.76 296.896C388.442 296.932 386.163 297.5 384.1 298.556C382.798 297.608 381.23 297.097 379.62 297.096C374.17 297.096 369.34 302.716 369.34 302.716C369.34 302.716 355.15 303.116 354.49 315.846C353.88 327.446 368.05 362.766 362.49 362.766C361.653 362.639 360.875 362.258 360.26 361.676C354.64 357.326 350.74 355.236 348.51 355.236C346.65 355.236 345.97 356.716 346.51 359.566C347.87 367.476 368.51 383.476 375.51 388.396C380.69 392.056 409.25 478.306 438.14 532.796C456.04 566.576 476.53 583.486 495.33 583.486C506.86 583.486 517.75 577.116 527.03 564.386C551.41 530.886 500.87 416.576 476.52 374.386C463.56 352.066 452.03 346.766 444.03 346.766C439.82 346.74 435.74 348.223 432.53 350.946C432.53 350.946 407.53 321.436 402.11 306.486C399.32 298.796 394.62 296.926 390.72 296.926L390.76 296.896Z" fill="black"/>
<path d="M410.15 379.616C405.41 368.616 406.85 350.866 411.08 339.966C415.31 329.066 405.91 319.266 398.96 314.356C392.01 309.446 394.96 298.356 405.32 306.356C415.68 314.356 431.64 348.266 439.47 372.576C447.3 396.886 496.97 491.796 496.97 491.796" fill="white"/>
<path d="M496.97 492.776C496.788 492.775 496.61 492.724 496.455 492.628C496.3 492.533 496.174 492.398 496.09 492.236C495.59 491.286 446.29 396.976 438.52 372.866C430.52 347.946 414.63 314.816 404.71 307.126C401.88 304.946 399.36 304.076 397.78 304.746C397.326 304.975 396.942 305.321 396.668 305.748C396.393 306.175 396.239 306.669 396.22 307.176C396.179 308.431 396.462 309.676 397.042 310.79C397.621 311.904 398.478 312.85 399.53 313.536C403.74 316.536 417.09 327.256 412.02 340.326C407.89 350.946 406.4 368.406 411.02 379.226C411.123 379.47 411.125 379.745 411.026 379.991C410.926 380.236 410.734 380.432 410.49 380.536C410.247 380.64 409.973 380.643 409.728 380.546C409.482 380.449 409.285 380.258 409.18 380.016C404.31 368.726 405.83 350.596 410.1 339.596C414.66 327.876 402.24 317.936 398.33 315.166C396.984 314.279 395.892 313.056 395.164 311.618C394.436 310.18 394.097 308.576 394.18 306.966C394.225 306.1 394.508 305.264 394.996 304.548C395.485 303.832 396.16 303.264 396.95 302.906C398.57 302.216 401.44 302.106 405.88 305.546C417.19 314.306 433.18 349.916 440.38 372.246C448.09 396.196 497.31 490.366 497.81 491.316C497.933 491.551 497.958 491.825 497.879 492.078C497.801 492.331 497.624 492.543 497.39 492.666C497.258 492.73 497.116 492.767 496.97 492.776Z" fill="black"/>
<path d="M386.74 297.716C386.74 297.716 381.14 300.716 378.54 309.306L386.74 297.716Z" fill="white"/>
<path d="M378.54 310.306C378.441 310.304 378.343 310.287 378.25 310.256C377.999 310.178 377.789 310.003 377.665 309.771C377.542 309.539 377.515 309.268 377.59 309.016C380.27 300.126 386.02 296.966 386.26 296.836C386.376 296.773 386.503 296.734 386.635 296.72C386.766 296.707 386.899 296.719 387.025 296.758C387.152 296.796 387.269 296.859 387.371 296.942C387.473 297.026 387.558 297.129 387.62 297.246C387.744 297.48 387.77 297.753 387.694 298.006C387.617 298.259 387.443 298.471 387.21 298.596C387.12 298.646 381.93 301.596 379.5 309.596C379.437 309.802 379.31 309.982 379.137 310.11C378.964 310.238 378.755 310.307 378.54 310.306Z" fill="black"/>
<path d="M370.45 301.556C370.45 301.556 366.38 304.876 366.45 312.556L370.45 301.556Z" fill="white"/>
<path d="M366.48 313.596C366.215 313.596 365.96 313.491 365.773 313.303C365.585 313.116 365.48 312.861 365.48 312.596C365.37 304.486 369.63 300.916 369.81 300.766C370.015 300.6 370.276 300.522 370.539 300.548C370.801 300.574 371.042 300.703 371.21 300.906C371.294 301.007 371.357 301.124 371.397 301.249C371.436 301.375 371.449 301.507 371.437 301.638C371.425 301.769 371.387 301.896 371.326 302.013C371.265 302.129 371.181 302.232 371.08 302.316C370.92 302.446 367.38 305.486 367.48 312.566C367.48 312.831 367.374 313.086 367.187 313.273C366.999 313.461 366.745 313.566 366.48 313.566V313.596Z" fill="black"/>
<path d="M381.46 372.296C398.984 372.296 413.19 358.09 413.19 340.566C413.19 323.042 398.984 308.836 381.46 308.836C363.936 308.836 349.73 323.042 349.73 340.566C349.73 358.09 363.936 372.296 381.46 372.296Z" fill="white"/>
<path d="M381.42 310.826C382.94 310.828 384.457 310.945 385.96 311.176C393.368 312.306 400.076 316.192 404.741 322.056C409.407 327.92 411.686 335.33 411.122 342.803C410.558 350.275 407.194 357.259 401.701 362.357C396.209 367.455 388.993 370.29 381.5 370.296C379.98 370.294 378.462 370.177 376.96 369.946C369.552 368.816 362.844 364.93 358.178 359.066C353.513 353.202 351.234 345.792 351.797 338.32C352.361 330.847 355.726 323.863 361.218 318.765C366.711 313.668 373.926 310.832 381.42 310.826ZM381.42 308.826C373.207 308.828 365.314 312.011 359.397 317.707C353.481 323.404 350.001 331.171 349.689 339.378C349.376 347.585 352.255 355.594 357.722 361.724C363.188 367.854 370.816 371.628 379.005 372.254C387.194 372.88 395.307 370.309 401.642 365.081C407.976 359.854 412.039 352.375 412.978 344.216C413.917 336.057 411.658 327.851 406.676 321.322C401.694 314.792 394.377 310.446 386.26 309.196C384.658 308.949 383.04 308.826 381.42 308.826Z" fill="black"/>
<path d="M382.18 364.786C395.849 364.786 406.93 353.705 406.93 340.036C406.93 326.367 395.849 315.286 382.18 315.286C368.511 315.286 357.43 326.367 357.43 340.036C357.43 353.705 368.511 364.786 382.18 364.786Z" fill="white"/>
<path d="M382.15 317.276C385.43 317.278 388.671 317.988 391.651 319.357C394.632 320.727 397.281 322.723 399.419 325.211C401.557 327.698 403.133 330.618 404.039 333.77C404.946 336.922 405.161 340.233 404.67 343.476C403.821 348.834 401.098 353.717 396.984 357.253C392.871 360.79 387.635 362.751 382.21 362.786C381.048 362.786 379.888 362.695 378.74 362.516C373.071 361.652 367.938 358.678 364.367 354.191C360.797 349.704 359.053 344.034 359.484 338.316C359.915 332.598 362.489 327.254 366.692 323.352C370.895 319.451 376.415 317.281 382.15 317.276ZM382.15 315.276C375.908 315.277 369.897 317.635 365.321 321.88C360.745 326.125 357.941 331.942 357.472 338.166C357.003 344.39 358.903 350.561 362.791 355.444C366.679 360.327 372.269 363.56 378.44 364.496C379.688 364.686 380.948 364.783 382.21 364.786C388.452 364.788 394.465 362.431 399.043 358.187C403.621 353.943 406.427 348.126 406.897 341.901C407.368 335.676 405.468 329.504 401.58 324.62C397.692 319.736 392.102 316.502 385.93 315.566C384.679 315.376 383.415 315.279 382.15 315.276Z" fill="black"/>
<path d="M428.64 380.626L465.03 428.946L495.75 412.206C488.75 397.096 481.92 383.896 476.43 374.366C452.09 332.116 432.51 350.946 432.51 350.946C432.51 350.946 430.3 348.336 427.06 344.286L428.64 380.626Z" fill="white"/>
<path d="M444.03 348.766C451.03 348.766 462.03 353.376 474.72 375.366C480.33 385.096 486.85 397.826 493.16 411.366L465.61 426.366L430.61 379.926L429.32 350.246C430.32 351.506 430.97 352.246 430.99 352.246L432.36 353.856L433.89 352.406C436.738 350.041 440.327 348.752 444.03 348.766ZM427.03 344.286L428.61 380.626L465.03 428.946L495.75 412.206C488.75 397.096 481.92 383.896 476.43 374.366C463.56 352.066 452.03 346.766 444.03 346.766C439.82 346.74 435.74 348.223 432.53 350.946C432.53 350.946 430.32 348.336 427.08 344.286H427.03Z" fill="black"/>
<path d="M410.15 379.616C405.41 368.616 406.85 350.866 411.08 339.966C415.31 329.066 405.91 319.266 398.96 314.356C392.01 309.446 394.96 298.356 405.32 306.356C415.68 314.356 431.64 348.266 439.47 372.576C447.3 396.886 496.97 491.796 496.97 491.796" fill="white"/>
<path d="M496.97 492.776C496.788 492.775 496.61 492.724 496.455 492.628C496.3 492.533 496.174 492.398 496.09 492.236C495.59 491.286 446.29 396.976 438.52 372.866C430.52 347.946 414.63 314.816 404.71 307.126C401.88 304.946 399.36 304.076 397.78 304.746C397.326 304.975 396.942 305.321 396.668 305.748C396.393 306.175 396.239 306.669 396.22 307.176C396.179 308.431 396.462 309.676 397.042 310.79C397.621 311.904 398.478 312.85 399.53 313.536C403.74 316.536 417.09 327.256 412.02 340.326C407.89 350.946 406.4 368.406 411.02 379.226C411.123 379.47 411.125 379.745 411.026 379.991C410.926 380.236 410.734 380.432 410.49 380.536C410.247 380.64 409.973 380.643 409.728 380.546C409.482 380.449 409.285 380.258 409.18 380.016C404.31 368.726 405.83 350.596 410.1 339.596C414.66 327.876 402.24 317.936 398.33 315.166C396.984 314.279 395.892 313.056 395.164 311.618C394.436 310.18 394.097 308.576 394.18 306.966C394.225 306.1 394.508 305.264 394.996 304.548C395.485 303.832 396.16 303.264 396.95 302.906C398.57 302.216 401.44 302.106 405.88 305.546C417.19 314.306 433.18 349.916 440.38 372.246C448.09 396.196 497.31 490.366 497.81 491.316C497.933 491.551 497.958 491.825 497.879 492.078C497.801 492.331 497.624 492.543 497.39 492.666C497.258 492.73 497.116 492.767 496.97 492.776Z" fill="black"/>
<path d="M386.74 297.716C386.74 297.716 381.14 300.716 378.54 309.306L386.74 297.716Z" fill="white"/>
<path d="M378.54 310.306C378.441 310.304 378.343 310.287 378.25 310.256C377.999 310.178 377.789 310.003 377.665 309.771C377.542 309.539 377.515 309.268 377.59 309.016C380.27 300.126 386.02 296.966 386.26 296.836C386.376 296.773 386.503 296.734 386.635 296.72C386.766 296.707 386.899 296.719 387.025 296.758C387.152 296.796 387.269 296.859 387.371 296.942C387.473 297.026 387.558 297.129 387.62 297.246C387.744 297.48 387.77 297.753 387.694 298.006C387.617 298.259 387.443 298.471 387.21 298.596C387.12 298.646 381.93 301.596 379.5 309.596C379.437 309.802 379.31 309.982 379.137 310.11C378.964 310.238 378.755 310.307 378.54 310.306Z" fill="black"/>
<path d="M370.45 301.556C370.45 301.556 366.38 304.876 366.45 312.556L370.45 301.556Z" fill="white"/>
<path d="M366.48 313.596C366.215 313.596 365.96 313.491 365.773 313.303C365.585 313.116 365.48 312.861 365.48 312.596C365.37 304.486 369.63 300.916 369.81 300.766C370.015 300.6 370.276 300.522 370.539 300.548C370.801 300.574 371.042 300.703 371.21 300.906C371.294 301.007 371.357 301.124 371.397 301.249C371.436 301.375 371.449 301.507 371.437 301.638C371.425 301.769 371.387 301.896 371.326 302.013C371.265 302.129 371.181 302.232 371.08 302.316C370.92 302.446 367.38 305.486 367.48 312.566C367.48 312.831 367.374 313.086 367.187 313.273C366.999 313.461 366.745 313.566 366.48 313.566V313.596Z" fill="black"/>
<path d="M381.46 372.296C398.984 372.296 413.19 358.09 413.19 340.566C413.19 323.042 398.984 308.836 381.46 308.836C363.936 308.836 349.73 323.042 349.73 340.566C349.73 358.09 363.936 372.296 381.46 372.296Z" fill="white"/>
<path d="M381.42 310.826C382.94 310.828 384.457 310.945 385.96 311.176C393.368 312.306 400.076 316.192 404.741 322.056C409.407 327.92 411.686 335.33 411.122 342.803C410.558 350.275 407.194 357.259 401.701 362.357C396.209 367.455 388.993 370.29 381.5 370.296C379.98 370.294 378.462 370.177 376.96 369.946C369.552 368.816 362.844 364.93 358.178 359.066C353.513 353.202 351.234 345.792 351.797 338.32C352.361 330.847 355.726 323.863 361.218 318.765C366.711 313.668 373.926 310.832 381.42 310.826ZM381.42 308.826C373.207 308.828 365.314 312.011 359.397 317.707C353.481 323.404 350.001 331.171 349.689 339.378C349.376 347.585 352.255 355.594 357.722 361.724C363.188 367.854 370.816 371.628 379.005 372.254C387.194 372.88 395.307 370.309 401.642 365.081C407.976 359.854 412.039 352.375 412.978 344.216C413.917 336.057 411.658 327.851 406.676 321.322C401.694 314.792 394.377 310.446 386.26 309.196C384.658 308.949 383.04 308.826 381.42 308.826Z" fill="black"/>
<path d="M382.18 364.786C395.849 364.786 406.93 353.705 406.93 340.036C406.93 326.367 395.849 315.286 382.18 315.286C368.511 315.286 357.43 326.367 357.43 340.036C357.43 353.705 368.511 364.786 382.18 364.786Z" fill="white"/>
<path d="M382.15 317.276C385.43 317.278 388.671 317.988 391.651 319.357C394.632 320.727 397.281 322.723 399.419 325.211C401.557 327.698 403.133 330.618 404.039 333.77C404.946 336.922 405.161 340.233 404.67 343.476C403.821 348.834 401.098 353.717 396.984 357.253C392.871 360.79 387.635 362.751 382.21 362.786C381.048 362.786 379.888 362.695 378.74 362.516C373.071 361.652 367.938 358.678 364.367 354.191C360.797 349.704 359.053 344.034 359.484 338.316C359.915 332.598 362.489 327.254 366.692 323.352C370.895 319.451 376.415 317.281 382.15 317.276ZM382.15 315.276C375.908 315.277 369.897 317.635 365.321 321.88C360.745 326.125 357.941 331.942 357.472 338.166C357.003 344.39 358.903 350.561 362.791 355.444C366.679 360.327 372.269 363.56 378.44 364.496C379.688 364.686 380.948 364.783 382.21 364.786C388.452 364.788 394.465 362.431 399.043 358.187C403.621 353.943 406.427 348.126 406.897 341.901C407.368 335.676 405.468 329.504 401.58 324.62C397.692 319.736 392.102 316.502 385.93 315.566C384.679 315.376 383.415 315.279 382.15 315.276Z" fill="black"/>
<path d="M346.15 364.126C346.15 364.126 330.92 359.046 339.8 322.236L346.15 364.126Z" fill="white"/>
<path d="M346.14 365.126C346.034 365.126 345.928 365.105 345.83 365.066C345.17 364.856 329.83 359.276 338.83 322.006C338.854 321.872 338.905 321.743 338.98 321.629C339.055 321.515 339.153 321.418 339.267 321.343C339.382 321.269 339.51 321.218 339.645 321.195C339.779 321.172 339.917 321.176 340.05 321.209C340.183 321.241 340.307 321.3 340.416 321.382C340.525 321.464 340.616 321.568 340.684 321.687C340.751 321.805 340.794 321.937 340.809 322.072C340.823 322.208 340.81 322.346 340.77 322.476C332.26 357.756 346.33 363.126 346.47 363.176C346.697 363.251 346.89 363.404 347.014 363.609C347.138 363.814 347.184 364.057 347.144 364.293C347.104 364.529 346.981 364.743 346.796 364.896C346.612 365.049 346.379 365.13 346.14 365.126Z" fill="black"/>
<path d="M303.03 271.206C302.925 271.204 302.82 271.187 302.72 271.156C302.52 271.086 282.96 264.336 284.27 244.756C285.5 226.246 273.11 204.936 272.98 204.756C272.86 204.527 272.834 204.262 272.905 204.014C272.977 203.766 273.142 203.556 273.365 203.427C273.589 203.298 273.853 203.26 274.104 203.321C274.354 203.383 274.571 203.538 274.71 203.756C275.23 204.646 287.54 225.816 286.26 244.936C285.06 262.936 302.6 269.056 303.35 269.306C303.576 269.38 303.769 269.533 303.893 269.737C304.016 269.941 304.063 270.183 304.024 270.418C303.986 270.653 303.864 270.867 303.682 271.021C303.5 271.174 303.268 271.258 303.03 271.256V271.206Z" fill="black"/>
<path d="M285.08 235.176C284.945 235.175 284.812 235.148 284.688 235.094C284.564 235.041 284.453 234.964 284.36 234.866C284.174 234.679 284.069 234.425 284.069 234.161C284.069 233.897 284.174 233.643 284.36 233.456C300.97 217.456 295.88 209.956 295.83 209.886C295.675 209.673 295.61 209.408 295.649 209.148C295.689 208.888 295.829 208.653 296.04 208.496C296.248 208.341 296.509 208.273 296.766 208.307C297.024 208.34 297.258 208.473 297.42 208.676C297.69 209.026 303.8 217.476 285.75 234.896C285.569 235.07 285.33 235.17 285.08 235.176Z" fill="black"/>
<path d="M266.32 219.706C256.32 219.706 243.8 218.896 238.15 215.206C237.927 215.061 237.771 214.834 237.715 214.575C237.66 214.315 237.71 214.044 237.855 213.821C237.999 213.598 238.226 213.442 238.486 213.387C238.746 213.331 239.017 213.381 239.24 213.526C248.57 219.616 279.91 217.236 280.24 217.206C280.371 217.196 280.503 217.212 280.628 217.253C280.753 217.295 280.869 217.36 280.969 217.446C281.069 217.532 281.151 217.636 281.21 217.754C281.269 217.872 281.305 218 281.315 218.131C281.325 218.262 281.309 218.394 281.267 218.519C281.226 218.645 281.161 218.76 281.075 218.86C280.989 218.96 280.884 219.042 280.767 219.101C280.649 219.161 280.521 219.196 280.39 219.206C279.82 219.246 273.79 219.706 266.32 219.706Z" fill="black"/>
<path d="M272.39 263.796C268.33 263.796 264.39 263.046 261.74 260.796C261.639 260.712 261.555 260.609 261.494 260.492C261.433 260.376 261.395 260.249 261.383 260.118C261.371 259.987 261.385 259.855 261.423 259.729C261.462 259.604 261.526 259.487 261.61 259.386C261.694 259.285 261.797 259.201 261.913 259.14C262.03 259.079 262.157 259.041 262.288 259.029C262.419 259.017 262.551 259.031 262.676 259.07C262.802 259.109 262.919 259.172 263.02 259.256C270.12 265.166 288.68 258.836 288.87 258.766C288.995 258.718 289.129 258.695 289.263 258.7C289.398 258.704 289.53 258.736 289.652 258.793C289.774 258.849 289.883 258.93 289.973 259.03C290.063 259.13 290.131 259.247 290.175 259.374C290.219 259.501 290.237 259.636 290.227 259.77C290.218 259.904 290.181 260.035 290.12 260.154C290.059 260.274 289.974 260.38 289.871 260.466C289.768 260.552 289.648 260.617 289.52 260.656C289.03 260.876 280.42 263.796 272.39 263.796Z" fill="black"/>
<path d="M339.8 258.516C339.595 258.517 339.396 258.455 339.228 258.339C339.06 258.222 338.931 258.057 338.86 257.866C338.68 257.376 334.42 245.816 338.45 238.726C339.239 237.375 340.327 236.222 341.631 235.355C342.934 234.489 344.418 233.931 345.97 233.726C359.08 231.346 362.89 211.876 362.97 211.726C363.017 211.461 363.169 211.225 363.39 211.072C363.611 210.918 363.885 210.858 364.15 210.906C364.415 210.954 364.65 211.105 364.804 211.326C364.958 211.547 365.017 211.821 364.97 212.086C364.81 212.946 360.87 233.086 346.39 235.736C345.129 235.887 343.921 236.326 342.857 237.02C341.794 237.714 340.905 238.643 340.26 239.736C336.69 246.016 340.76 257.086 340.81 257.196C340.856 257.319 340.878 257.451 340.873 257.583C340.868 257.714 340.838 257.844 340.783 257.964C340.728 258.084 340.65 258.192 340.554 258.281C340.457 258.371 340.343 258.44 340.22 258.486C340.083 258.524 339.94 258.534 339.8 258.516Z" fill="black"/>
<path d="M350.82 234.006C350.685 234.009 350.552 233.982 350.43 233.926C350.186 233.822 349.993 233.626 349.894 233.381C349.794 233.135 349.797 232.86 349.9 232.616C352.5 226.526 353.02 221.486 351.46 217.616C350.655 215.484 349.072 213.736 347.03 212.726C346.908 212.676 346.798 212.602 346.705 212.509C346.612 212.415 346.538 212.305 346.488 212.183C346.438 212.061 346.412 211.931 346.412 211.799C346.413 211.668 346.439 211.537 346.49 211.416C346.59 211.171 346.782 210.976 347.026 210.872C347.27 210.769 347.544 210.767 347.79 210.866C350.312 212.075 352.278 214.199 353.29 216.806C355.09 221.166 354.57 226.746 351.74 233.376C351.666 233.561 351.54 233.719 351.376 233.831C351.212 233.943 351.018 234.004 350.82 234.006Z" fill="black"/>
<path d="M337.73 249.726C337.554 249.727 337.381 249.681 337.228 249.594C337.076 249.506 336.949 249.38 336.861 249.228C336.772 249.076 336.726 248.903 336.726 248.727C336.726 248.551 336.772 248.378 336.86 248.226C336.92 248.116 343.29 237.316 355.35 241.336C365.8 244.816 373.1 230.556 373.17 230.416C373.288 230.179 373.495 229.998 373.747 229.914C373.998 229.829 374.272 229.848 374.51 229.966C374.747 230.084 374.928 230.292 375.012 230.543C375.096 230.794 375.078 231.069 374.96 231.306C374.89 231.456 368.54 243.896 358.66 243.896C357.299 243.898 355.948 243.675 354.66 243.236C344.17 239.736 338.77 248.836 338.54 249.236C338.456 249.378 338.338 249.497 338.196 249.583C338.055 249.668 337.895 249.718 337.73 249.726Z" fill="black"/>
<path d="M366.48 241.066C366.215 241.066 365.96 240.961 365.773 240.773C365.585 240.586 365.48 240.331 365.48 240.066V225.806C365.48 225.541 365.585 225.286 365.773 225.099C365.96 224.911 366.215 224.806 366.48 224.806C366.745 224.806 366.999 224.911 367.187 225.099C367.374 225.286 367.48 225.541 367.48 225.806V240.056C367.48 240.321 367.374 240.576 367.187 240.763C366.999 240.951 366.745 241.056 366.48 241.056V241.066Z" fill="black"/>
<path d="M393.1 286.436C392.966 286.434 392.834 286.406 392.71 286.356C392.466 286.252 392.273 286.056 392.174 285.811C392.074 285.565 392.077 285.29 392.18 285.046C392.26 284.856 400.28 266.636 417.29 267.936C418.797 268.081 420.318 267.911 421.755 267.435C423.193 266.96 424.516 266.191 425.64 265.176C433.15 258.526 433.98 242.406 433.99 242.236C433.996 242.105 434.029 241.976 434.085 241.857C434.141 241.738 434.22 241.632 434.318 241.544C434.415 241.455 434.529 241.387 434.653 241.343C434.777 241.299 434.908 241.279 435.04 241.286C435.171 241.293 435.3 241.325 435.419 241.381C435.537 241.438 435.644 241.517 435.732 241.614C435.82 241.712 435.889 241.826 435.933 241.95C435.977 242.073 435.996 242.205 435.99 242.336C435.99 243.026 435.12 259.456 426.99 266.666C425.669 267.865 424.112 268.775 422.42 269.338C420.727 269.901 418.936 270.105 417.16 269.936C401.55 268.726 394.16 285.656 394.04 285.826C393.962 286.01 393.831 286.166 393.663 286.275C393.496 286.384 393.299 286.44 393.1 286.436Z" fill="black"/>
<path d="M428.22 264.856H428.14C428.008 264.846 427.88 264.81 427.763 264.75C427.645 264.69 427.541 264.608 427.455 264.507C427.37 264.407 427.305 264.291 427.264 264.165C427.224 264.04 427.209 263.907 427.22 263.776C427.264 262.289 427.014 260.809 426.481 259.42C425.949 258.031 425.146 256.762 424.12 255.686C419.95 251.506 422.49 242.396 422.6 242.006C422.637 241.88 422.698 241.762 422.78 241.66C422.862 241.558 422.964 241.472 423.079 241.409C423.194 241.346 423.321 241.306 423.451 241.292C423.582 241.278 423.714 241.289 423.84 241.326C424.092 241.4 424.305 241.571 424.432 241.801C424.56 242.032 424.591 242.303 424.52 242.556C424.52 242.646 422.19 250.926 425.52 254.266C426.758 255.545 427.723 257.063 428.355 258.728C428.988 260.392 429.275 262.167 429.2 263.946C429.178 264.192 429.065 264.421 428.884 264.589C428.703 264.757 428.467 264.852 428.22 264.856Z" fill="black"/>
<path d="M433.21 254.066C432.967 254.068 432.732 253.982 432.548 253.824C432.364 253.666 432.244 253.446 432.21 253.206C432.169 252.946 432.233 252.681 432.386 252.468C432.539 252.255 432.771 252.11 433.03 252.066C433.15 252.066 445.57 250.066 447.93 239.506C447.988 239.241 448.15 239.01 448.378 238.863C448.607 238.717 448.885 238.668 449.15 238.726C449.415 238.784 449.646 238.946 449.792 239.174C449.939 239.403 449.988 239.681 449.93 239.946C447.27 251.946 433.5 254.026 433.36 254.046L433.21 254.066Z" fill="black"/>
<path d="M327.53 330.636C327.53 330.636 339.8 322.236 352.53 331.126L351.26 334.936C351.26 334.936 341.83 329.856 328.78 334.936L327.53 330.636Z" fill="#CB93EE"/>
<path d="M292.21 352.296C291.899 352.296 291.596 352.202 291.34 352.026C291.015 351.797 290.795 351.447 290.727 351.056C290.66 350.664 290.75 350.261 290.98 349.936L306.21 328.356C306.443 328.041 306.79 327.83 307.177 327.768C307.564 327.706 307.96 327.797 308.28 328.023C308.601 328.249 308.82 328.592 308.89 328.977C308.961 329.363 308.879 329.761 308.66 330.086L293.43 351.666C293.292 351.861 293.109 352.02 292.897 352.13C292.684 352.24 292.449 352.297 292.21 352.296Z" fill="#47CEC0"/>
<path d="M378.51 349.756C378.266 349.759 378.025 349.701 377.81 349.586C377.464 349.401 377.205 349.088 377.087 348.714C376.97 348.341 377.003 347.936 377.18 347.586L388.6 326.016C388.785 325.671 389.098 325.411 389.471 325.293C389.845 325.176 390.25 325.209 390.6 325.386C390.943 325.573 391.201 325.886 391.319 326.259C391.436 326.632 391.404 327.036 391.23 327.386L379.8 348.956C379.675 349.192 379.49 349.391 379.263 349.531C379.037 349.672 378.776 349.749 378.51 349.756Z" fill="#47CEC0"/>
<path d="M306.58 223.336C302.43 224.786 297.2 220.596 297.2 220.596C297.2 220.596 298.68 214.056 302.83 212.596C306.98 211.136 311.18 212.366 312.21 215.336C313.24 218.306 310.73 221.876 306.58 223.336Z" fill="#47CEC0"/>
<path d="M290.03 209.666C287.77 213.586 280.87 213.846 280.87 213.846C280.87 213.846 277.62 207.746 279.87 203.846C282.12 199.946 286.23 198.046 289.03 199.656C291.83 201.266 292.32 205.736 290.03 209.666Z" fill="#47CEC0"/>
<path d="M264.79 267.256C267.41 263.566 274.31 263.956 274.31 263.956C274.31 263.956 276.96 270.336 274.31 274.026C271.66 277.716 267.43 279.196 264.8 277.326C262.17 275.456 262.18 270.946 264.79 267.256Z" fill="#47CEC0"/>
<path d="M346.76 202.976C349.68 206.436 347.56 212.976 347.56 212.976C347.56 212.976 340.72 213.976 337.8 210.466C334.88 206.956 334.53 202.516 337.01 200.466C339.49 198.416 343.85 199.506 346.76 202.976Z" fill="#47CEC0"/>
<path d="M380.47 237.886C375.98 238.456 371.61 233.106 371.61 233.106C371.61 233.106 374.52 226.836 379.01 226.276C383.5 225.716 387.47 227.846 387.87 231.056C388.27 234.266 384.96 237.326 380.47 237.886Z" fill="#47CEC0"/>
<path d="M418.59 260.996C419.23 265.476 413.96 269.936 413.96 269.936C413.96 269.936 407.64 267.136 406.96 262.656C406.28 258.176 408.39 254.176 411.59 253.716C414.79 253.256 417.94 256.516 418.59 260.996Z" fill="#47CEC0"/>
<path d="M438.42 269.876C433.9 270.106 429.95 264.436 429.95 264.436C429.95 264.436 433.32 258.436 437.84 258.186C442.36 257.936 446.16 260.396 446.32 263.626C446.48 266.856 442.94 269.656 438.42 269.876Z" fill="#47CEC0"/>
<path d="M459.03 240.216C455.3 242.776 448.96 240.026 448.96 240.026C448.96 240.026 448.67 233.126 452.4 230.566C456.13 228.006 460.64 228.076 462.47 230.746C464.3 233.416 462.81 237.646 459.03 240.216Z" fill="#47CEC0"/>
<path d="M528.44 178.166C525.528 178.166 522.683 177.303 520.262 175.685C517.841 174.068 515.954 171.769 514.84 169.079C513.726 166.389 513.435 163.43 514.003 160.574C514.571 157.719 515.973 155.096 518.031 153.037C520.09 150.979 522.713 149.577 525.568 149.009C528.424 148.441 531.383 148.732 534.073 149.847C536.763 150.961 539.062 152.847 540.679 155.268C542.297 157.689 543.16 160.535 543.16 163.446C543.155 167.348 541.602 171.089 538.843 173.849C536.083 176.608 532.342 178.161 528.44 178.166ZM528.44 151.726C526.122 151.726 523.856 152.413 521.928 153.701C520.001 154.989 518.499 156.819 517.612 158.961C516.725 161.103 516.493 163.459 516.945 165.732C517.397 168.006 518.513 170.094 520.152 171.733C521.792 173.372 523.88 174.489 526.153 174.941C528.427 175.393 530.783 175.161 532.925 174.274C535.066 173.387 536.897 171.885 538.185 169.957C539.472 168.03 540.16 165.764 540.16 163.446C540.155 160.339 538.918 157.361 536.721 155.165C534.524 152.968 531.547 151.731 528.44 151.726Z" fill="#CB93EE"/>
<path d="M155.67 265.946V243.006L169.43 253.716L155.67 265.946ZM158.67 249.146V259.266L164.74 253.866L158.67 249.146Z" fill="#FCCE54"/>
<path d="M405.801 110L394.783 138.644L397.583 139.721L408.601 111.077L405.801 110Z" fill="#CB93EE"/>
<path d="M425.871 124.986L411.551 142.613L413.879 144.505L428.199 126.878L425.871 124.986Z" fill="#CB93EE"/>
<path d="M52.7855 451.564L50 452.678L63.2207 485.732L66.0061 484.618L52.7855 451.564Z" fill="#FCCE54"/>
</svg>
