<svg width="700" height="700" viewBox="0 0 700 700" fill="none" xmlns="http://www.w3.org/2000/svg">
<rect width="700" height="700" fill="white"/>
<path d="M454.59 218.502H581.45C591.45 218.502 596.03 205.782 588.15 199.562C584.696 196.844 580.567 195.118 576.207 194.57C571.846 194.022 567.419 194.673 563.4 196.452C562.387 193.228 560.578 190.312 558.138 187.974C555.699 185.636 552.709 183.951 549.446 183.075C546.182 182.2 542.75 182.162 539.468 182.966C536.186 183.769 533.16 185.388 530.67 187.672C526.941 183.167 522.101 179.713 516.627 177.654C511.154 175.594 505.238 175 499.464 175.929C493.691 176.859 488.26 179.28 483.709 182.953C479.159 186.626 475.647 191.424 473.52 196.872C469.431 194.855 464.855 194.037 460.321 194.514C455.787 194.99 451.481 196.74 447.9 199.562C440 205.792 444.55 218.502 454.59 218.502Z" fill="#CB93EE"/>
<path d="M235.67 365.002C230.827 361.18 225.033 358.754 218.912 357.986C212.791 357.217 206.577 358.136 200.94 360.642C199.518 356.117 196.976 352.025 193.551 348.744C190.126 345.464 185.928 343.101 181.346 341.876C176.765 340.65 171.948 340.601 167.342 341.733C162.737 342.865 158.491 345.142 155 348.352C149.767 342.029 142.973 337.182 135.292 334.292C127.61 331.401 119.307 330.566 111.203 331.871C103.1 333.175 95.478 336.573 89.0914 341.728C82.7047 346.883 77.7749 353.616 74.79 361.262C69.0466 358.421 62.615 357.268 56.2425 357.937C49.87 358.606 43.8181 361.07 38.79 365.042C27.73 373.782 34.09 391.622 48.19 391.622H226.27C240.37 391.622 246.73 373.772 235.67 365.002Z" fill="#CB93EE"/>
<path d="M356.19 162.872C351.064 158.842 344.939 156.284 338.47 155.472C332.001 154.66 325.433 155.624 319.47 158.262C317.966 153.479 315.278 149.153 311.657 145.685C308.036 142.218 303.598 139.72 298.755 138.423C293.912 137.127 288.82 137.074 283.95 138.269C279.081 139.465 274.592 141.87 270.9 145.262C265.369 138.573 258.186 133.445 250.063 130.386C241.94 127.327 233.159 126.444 224.59 127.823C216.02 129.202 207.96 132.796 201.207 138.249C194.454 143.702 189.243 150.825 186.09 158.912C186.09 158.912 175.88 188.292 211.72 191.012H346.25C361.16 191.002 367.89 172.112 356.19 162.872Z" fill="#CB93EE"/>
<path d="M348.5 307.002C348.5 307.002 339.5 306.002 348.5 314.002C357.5 322.002 362.5 321.002 369 318.502C375.5 316.002 371 318.502 371 318.502C371 318.502 381.5 321.002 385.5 311.002C389.5 301.002 381.5 307.002 381.5 307.002H348.5Z" fill="#ED5564"/>
<path d="M337 228.502C337 228.502 369 189.502 385 200.502C401 211.502 389 231.502 389 231.502L349 289.502C349 289.502 337 297.502 314 298.502C284.3 299.792 256 284.502 265 274.502C274 264.502 294.72 267.682 289 258.502C279.88 243.872 260.75 222.062 337 228.502Z" fill="#201000"/>
<path d="M349 306.502V289.502C349 289.502 337 279.502 337 270.502C337 270.502 313 272.502 310 257.502C307 242.502 319 234.502 328 239.502L337 244.502C337 244.502 354 242.502 353 224.502C353 224.502 381 206.502 392 231.502C403 256.502 407 278.502 401 286.502C395 294.502 382 295.502 382 295.502V306.502C382 306.502 371 333.502 349 306.502Z" fill="white"/>
<path d="M367.32 319.502C361.32 319.502 354.92 315.352 348.22 307.132C348.077 306.953 347.999 306.731 348 306.502V290.002C346 288.272 336.8 279.842 336.05 271.602C331.25 271.812 311.83 271.772 309.05 257.742C307.52 250.092 309.66 243.302 314.77 239.572C316.73 238.11 319.072 237.247 321.512 237.087C323.952 236.927 326.386 237.478 328.52 238.672L337.22 243.502C339.51 243.142 352.91 240.322 352.03 224.602C352.02 224.424 352.057 224.247 352.138 224.089C352.219 223.931 352.34 223.797 352.49 223.702C353.08 223.322 367.1 214.442 379.49 218.182C385.41 219.962 389.93 224.322 392.93 231.182C404.53 257.552 407.93 279.012 401.81 287.182C396.49 294.282 386.17 296.082 383.01 296.482V306.582C383.012 306.712 382.988 306.841 382.94 306.962C382.75 307.412 378.31 318.082 369.22 319.442C368.589 319.507 367.954 319.528 367.32 319.502ZM350 306.142C356.84 314.462 363.2 318.242 368.92 317.382C376.31 316.282 380.41 307.632 381 306.292V295.502C380.999 295.25 381.094 295.007 381.264 294.821C381.435 294.636 381.669 294.522 381.92 294.502C382.05 294.502 394.55 293.442 400.2 285.902C405.85 278.362 402.2 257.232 391.08 231.902C388.33 225.652 384.24 221.662 378.91 220.062C368.61 216.952 356.57 223.552 354.03 225.062C354.66 243.232 337.29 245.482 337.12 245.502C336.909 245.532 336.694 245.49 336.51 245.382L327.51 240.382C325.709 239.378 323.656 238.918 321.6 239.056C319.543 239.195 317.57 239.926 315.92 241.162C311.46 244.412 309.61 250.462 310.98 257.312C313.77 271.262 336.69 269.532 336.92 269.512C337.198 269.494 337.471 269.588 337.68 269.772C337.782 269.866 337.863 269.981 337.918 270.108C337.973 270.235 338.001 270.373 338 270.512C338 278.932 349.52 288.642 349.64 288.742C349.753 288.836 349.844 288.953 349.906 289.086C349.968 289.22 350 289.365 350 289.512V306.142Z" fill="black"/>
<path d="M385 263.502C384.847 263.501 384.697 263.466 384.56 263.398C384.423 263.331 384.303 263.233 384.21 263.112C384.049 262.902 383.977 262.637 384.011 262.374C384.045 262.112 384.181 261.874 384.39 261.712C387.44 259.362 388.95 256.712 388.89 253.882C388.76 247.292 380.51 241.382 380.42 241.322C380.203 241.168 380.055 240.934 380.01 240.671C379.965 240.409 380.026 240.139 380.18 239.922C380.334 239.704 380.568 239.557 380.83 239.512C381.093 239.467 381.363 239.528 381.58 239.682C381.95 239.952 390.74 246.242 390.89 253.842C390.97 257.362 389.19 260.542 385.61 263.292C385.435 263.427 385.221 263.501 385 263.502Z" fill="black"/>
<path d="M367.87 279.562C365.871 279.601 363.922 278.932 362.37 277.672C358.59 274.582 358.03 268.832 358 268.592C357.988 268.46 358.002 268.328 358.042 268.202C358.081 268.076 358.145 267.959 358.229 267.858C358.314 267.757 358.417 267.673 358.534 267.612C358.651 267.551 358.779 267.513 358.91 267.502C359.041 267.49 359.174 267.504 359.3 267.543C359.425 267.583 359.542 267.646 359.643 267.731C359.745 267.815 359.828 267.919 359.889 268.036C359.951 268.153 359.988 268.28 360 268.412C360 268.462 360.51 273.572 363.65 276.132C364.384 276.705 365.227 277.124 366.128 277.361C367.029 277.598 367.969 277.649 368.89 277.512C369.155 277.482 369.421 277.56 369.629 277.727C369.838 277.894 369.971 278.136 370 278.402C370.029 278.667 369.952 278.933 369.785 279.141C369.618 279.349 369.375 279.482 369.11 279.512C368.698 279.553 368.284 279.569 367.87 279.562Z" fill="black"/>
<path d="M334.5 259.002C334.319 259.001 334.142 258.952 333.987 258.858C333.832 258.765 333.705 258.631 333.62 258.472C327.19 246.522 318.32 250.712 317.94 250.902C317.704 251.01 317.435 251.022 317.19 250.936C316.945 250.849 316.743 250.671 316.627 250.438C316.511 250.205 316.491 249.937 316.57 249.689C316.649 249.442 316.821 249.234 317.05 249.112C317.16 249.052 328 243.832 335.38 257.532C335.461 257.684 335.501 257.854 335.497 258.027C335.493 258.199 335.444 258.367 335.355 258.515C335.267 258.663 335.142 258.786 334.992 258.871C334.842 258.956 334.672 259.001 334.5 259.002Z" fill="black"/>
<path d="M322.5 257.002C322.235 257.002 321.98 256.896 321.793 256.709C321.605 256.521 321.5 256.267 321.5 256.002C321.5 255.872 321.5 252.822 323.79 251.422C325.51 250.362 327.91 250.592 330.95 252.112C331.166 252.242 331.325 252.449 331.395 252.692C331.465 252.934 331.441 253.194 331.327 253.42C331.213 253.645 331.018 253.819 330.781 253.906C330.544 253.994 330.283 253.989 330.05 253.892C327.72 252.732 325.92 252.462 324.85 253.122C323.53 253.922 323.5 255.982 323.5 256.002C323.5 256.133 323.474 256.263 323.424 256.384C323.374 256.506 323.3 256.616 323.207 256.709C323.114 256.802 323.004 256.875 322.883 256.926C322.761 256.976 322.631 257.002 322.5 257.002Z" fill="black"/>
<path d="M356.5 232.002C356.301 232.003 356.107 231.945 355.941 231.835C355.776 231.725 355.647 231.569 355.571 231.385C355.494 231.202 355.475 231 355.514 230.805C355.553 230.61 355.649 230.431 355.79 230.292C357.35 228.858 359.381 228.043 361.5 228.002C361.765 228.002 362.02 228.107 362.207 228.295C362.395 228.482 362.5 228.736 362.5 229.002C362.5 229.267 362.395 229.521 362.207 229.709C362.02 229.896 361.765 230.002 361.5 230.002C359.909 230.044 358.385 230.65 357.2 231.712C357.014 231.896 356.762 232.001 356.5 232.002Z" fill="#201000"/>
<path d="M350.5 240.002C353.5 236.002 357.5 235.002 367.5 234.002C377.5 233.002 387.5 223.002 390.5 228.512C393.5 234.022 394.5 242.002 385.5 240.002C376.5 238.002 366.5 254.002 359.5 254.002C352.5 254.002 347 244.662 350.5 240.002Z" fill="#ED5564"/>
<path d="M359.5 243.502C360.328 243.502 361 242.83 361 242.002C361 241.173 360.328 240.502 359.5 240.502C358.672 240.502 358 241.173 358 242.002C358 242.83 358.672 243.502 359.5 243.502Z" fill="#201000"/>
<path d="M250.39 345.002C250.39 345.002 327.66 282.002 345.97 310.582C347.219 309.734 348.117 308.462 348.5 307.002C348.5 307.002 310 288.002 269.24 289.002C228.48 290.002 212.94 266.002 212.94 266.002C212.94 266.002 197 278.502 204 303.502C213.71 338.172 168 332.502 168 334.502C168 336.502 219.35 362.162 250.89 345.032L250.39 345.002Z" fill="#ED5564"/>
<path d="M455.473 322.292L155.068 407.808L205.856 586.22L506.261 500.704L455.473 322.292Z" fill="#FCE054"/>
<path d="M182.64 430.002C180.644 429.994 178.69 429.432 176.994 428.38C175.299 427.327 173.929 425.824 173.037 424.039C172.146 422.253 171.767 420.255 171.944 418.267C172.12 416.28 172.845 414.38 174.038 412.78C175.231 411.179 176.844 409.942 178.699 409.204C180.553 408.467 182.576 408.259 184.542 408.603C186.507 408.948 188.339 409.831 189.832 411.155C191.326 412.479 192.422 414.191 193 416.102C193.813 418.841 193.505 421.792 192.144 424.305C190.783 426.817 188.479 428.687 185.74 429.502C184.738 429.822 183.693 429.991 182.64 430.002ZM182.64 410.442C181.797 410.444 180.959 410.566 180.15 410.802C178.485 411.295 177.003 412.271 175.893 413.606C174.782 414.941 174.092 416.576 173.911 418.303C173.73 420.031 174.065 421.773 174.874 423.31C175.682 424.847 176.929 426.109 178.456 426.937C179.982 427.766 181.72 428.123 183.449 427.963C185.179 427.804 186.822 427.135 188.171 426.041C189.521 424.948 190.515 423.479 191.029 421.82C191.544 420.161 191.554 418.387 191.06 416.722C190.528 414.897 189.419 413.294 187.899 412.153C186.379 411.011 184.531 410.394 182.63 410.392L182.64 410.442Z" fill="white"/>
<path d="M216.23 420.002C213.511 419.995 210.895 418.96 208.908 417.104C206.921 415.247 205.711 412.707 205.521 409.995C205.33 407.282 206.174 404.598 207.882 402.482C209.59 400.367 212.036 398.976 214.728 398.59C217.419 398.205 220.157 398.852 222.391 400.403C224.625 401.954 226.188 404.293 226.767 406.95C227.347 409.606 226.899 412.384 225.513 414.724C224.128 417.063 221.908 418.792 219.3 419.562C218.303 419.855 217.269 420.004 216.23 420.002ZM216.23 400.442C215.383 400.442 214.541 400.567 213.73 400.812C211.61 401.448 209.809 402.864 208.69 404.774C207.572 406.684 207.217 408.947 207.699 411.107C208.181 413.268 209.462 415.166 211.286 416.42C213.111 417.674 215.342 418.191 217.532 417.867C219.721 417.543 221.707 416.402 223.09 414.673C224.473 412.945 225.15 410.757 224.985 408.549C224.82 406.342 223.825 404.278 222.201 402.774C220.577 401.27 218.444 400.437 216.23 400.442Z" fill="white"/>
<path d="M249.83 410.002C247.103 410.008 244.474 408.98 242.473 407.127C240.472 405.273 239.248 402.731 239.046 400.011C238.844 397.291 239.68 394.595 241.385 392.466C243.09 390.337 245.538 388.933 248.236 388.536C250.935 388.14 253.684 388.779 255.929 390.327C258.175 391.875 259.751 394.216 260.341 396.879C260.931 399.542 260.49 402.329 259.108 404.681C257.725 407.032 255.504 408.772 252.89 409.552C251.897 409.848 250.866 409.999 249.83 410.002ZM249.83 390.442C248.984 390.439 248.141 390.56 247.33 390.802C245.197 391.431 243.381 392.846 242.248 394.76C241.115 396.674 240.749 398.946 241.224 401.119C241.699 403.292 242.978 405.205 244.806 406.473C246.634 407.74 248.874 408.269 251.076 407.952C253.277 407.635 255.277 406.496 256.673 404.764C258.069 403.032 258.757 400.836 258.599 398.617C258.441 396.399 257.449 394.322 255.822 392.805C254.195 391.288 252.054 390.444 249.83 390.442Z" fill="white"/>
<path d="M283.42 400.002C281.552 400.003 279.716 399.519 278.092 398.598C276.467 397.676 275.11 396.348 274.153 394.744C273.196 393.14 272.673 391.315 272.633 389.447C272.594 387.58 273.041 385.734 273.93 384.092C274.946 382.217 276.494 380.686 278.379 379.692C280.265 378.698 282.403 378.285 284.523 378.505C286.643 378.726 288.65 379.57 290.291 380.931C291.932 382.292 293.132 384.109 293.74 386.152C294.553 388.891 294.245 391.842 292.884 394.355C291.523 396.867 289.219 398.737 286.48 399.552C285.488 399.852 284.457 400.003 283.42 400.002ZM283.42 380.442C282.574 380.444 281.732 380.565 280.92 380.802C279.256 381.296 277.776 382.274 276.667 383.609C275.558 384.945 274.87 386.58 274.69 388.307C274.51 390.034 274.846 391.775 275.655 393.311C276.465 394.847 277.711 396.109 279.238 396.936C280.764 397.764 282.502 398.12 284.23 397.96C285.959 397.8 287.602 397.132 288.951 396.038C290.3 394.945 291.294 393.476 291.808 391.818C292.323 390.16 292.334 388.386 291.84 386.722C291.298 384.906 290.185 383.314 288.667 382.181C287.148 381.047 285.305 380.434 283.41 380.432L283.42 380.442Z" fill="white"/>
<path d="M317 390.002C314.68 389.994 312.425 389.24 310.566 387.852C308.708 386.463 307.345 384.514 306.68 382.292C306.039 380.124 306.097 377.81 306.846 375.678C307.594 373.546 308.995 371.703 310.85 370.412C312.704 369.12 314.919 368.445 317.178 368.483C319.438 368.521 321.628 369.269 323.439 370.622C325.249 371.974 326.588 373.863 327.265 376.019C327.942 378.175 327.922 380.489 327.21 382.634C326.497 384.779 325.128 386.645 323.295 387.967C321.462 389.29 319.26 390.001 317 390.002ZM317 370.432C316.15 370.431 315.304 370.556 314.49 370.802C312.26 371.468 310.385 372.992 309.277 375.04C308.169 377.087 307.918 379.49 308.58 381.722C309.244 383.951 310.767 385.826 312.812 386.934C314.858 388.042 317.26 388.293 319.49 387.632C321.514 387.033 323.255 385.726 324.394 383.948C325.533 382.171 325.993 380.043 325.691 377.954C325.389 375.865 324.344 373.954 322.747 372.573C321.151 371.191 319.111 370.431 317 370.432Z" fill="white"/>
<path d="M350.6 380.002C347.873 380.005 345.246 378.976 343.247 377.121C341.248 375.266 340.025 372.723 339.825 370.003C339.625 367.283 340.463 364.589 342.169 362.461C343.875 360.334 346.323 358.931 349.022 358.536C351.72 358.14 354.468 358.781 356.713 360.329C358.957 361.878 360.533 364.219 361.122 366.881C361.711 369.544 361.27 372.331 359.887 374.682C358.505 377.032 356.283 378.772 353.67 379.552C352.673 379.846 351.639 379.997 350.6 380.002ZM350.6 360.442C349.754 360.439 348.911 360.56 348.1 360.802C345.967 361.431 344.151 362.846 343.018 364.76C341.885 366.674 341.519 368.946 341.994 371.119C342.469 373.292 343.748 375.205 345.576 376.473C347.404 377.74 349.644 378.269 351.846 377.952C354.047 377.635 356.047 376.496 357.443 374.764C358.839 373.032 359.527 370.836 359.369 368.617C359.211 366.399 358.219 364.322 356.592 362.805C354.965 361.288 352.824 360.444 350.6 360.442Z" fill="white"/>
<path d="M384.17 370.002C381.849 369.999 379.591 369.247 377.732 367.858C375.872 366.469 374.511 364.516 373.85 362.292C373.243 360.248 373.255 358.07 373.885 356.034C374.515 353.997 375.735 352.193 377.39 350.85C379.045 349.506 381.062 348.684 383.184 348.486C385.307 348.289 387.441 348.725 389.315 349.74C391.19 350.755 392.722 352.303 393.717 354.189C394.712 356.074 395.126 358.212 394.906 360.333C394.686 362.453 393.842 364.461 392.481 366.102C391.12 367.743 389.303 368.943 387.26 369.552C386.257 369.848 385.216 369.999 384.17 370.002ZM384.17 350.442C383.317 350.443 382.469 350.564 381.65 350.802C379.986 351.296 378.506 352.274 377.397 353.609C376.288 354.945 375.6 356.58 375.42 358.307C375.239 360.034 375.575 361.775 376.385 363.311C377.195 364.847 378.441 366.109 379.968 366.936C381.494 367.764 383.232 368.12 384.96 367.96C386.689 367.8 388.332 367.132 389.681 366.038C391.03 364.945 392.024 363.476 392.538 361.818C393.053 360.16 393.064 358.386 392.57 356.722C392.033 354.91 390.926 353.319 389.412 352.188C387.899 351.056 386.06 350.444 384.17 350.442Z" fill="white"/>
<path d="M417.78 360.002C415.061 359.995 412.445 358.96 410.458 357.104C408.471 355.247 407.261 352.707 407.071 349.995C406.88 347.282 407.724 344.598 409.432 342.482C411.14 340.367 413.586 338.976 416.278 338.59C418.969 338.205 421.707 338.852 423.941 340.403C426.175 341.954 427.738 344.293 428.317 346.95C428.897 349.606 428.449 352.384 427.063 354.724C425.678 357.063 423.458 358.792 420.85 359.562C419.853 359.855 418.819 360.003 417.78 360.002ZM417.78 340.442C416.933 340.442 416.091 340.567 415.28 340.812C413.16 341.448 411.359 342.864 410.24 344.774C409.122 346.684 408.767 348.947 409.249 351.107C409.731 353.268 411.012 355.166 412.836 356.42C414.661 357.674 416.892 358.191 419.082 357.867C421.271 357.543 423.257 356.402 424.64 354.673C426.023 352.945 426.7 350.757 426.535 348.549C426.37 346.342 425.375 344.278 423.751 342.774C422.127 341.27 419.994 340.437 417.78 340.442Z" fill="white"/>
<path d="M208.89 455.312C206.89 455.314 204.929 454.759 203.227 453.711C201.524 452.662 200.146 451.161 199.248 449.374C198.35 447.587 197.966 445.586 198.14 443.594C198.314 441.602 199.039 439.698 200.233 438.094C201.427 436.49 203.044 435.25 204.903 434.512C206.761 433.774 208.789 433.568 210.758 433.917C212.727 434.265 214.56 435.154 216.053 436.485C217.546 437.816 218.639 439.535 219.21 441.452C219.687 443.06 219.783 444.757 219.49 446.408C219.196 448.06 218.522 449.62 217.52 450.966C216.519 452.311 215.217 453.404 213.719 454.159C212.221 454.913 210.567 455.308 208.89 455.312ZM208.89 435.752C208.044 435.749 207.201 435.87 206.39 436.112C204.724 436.607 203.243 437.585 202.134 438.922C201.024 440.259 200.337 441.896 200.158 443.624C199.979 445.353 200.317 447.095 201.129 448.632C201.941 450.168 203.191 451.428 204.72 452.254C206.249 453.079 207.989 453.432 209.719 453.269C211.449 453.105 213.091 452.432 214.438 451.334C215.785 450.236 216.776 448.763 217.285 447.102C217.795 445.441 217.8 443.666 217.3 442.002C216.753 440.194 215.639 438.611 214.123 437.486C212.606 436.36 210.768 435.752 208.88 435.752H208.89Z" fill="white"/>
<path d="M242.46 445.322C239.731 445.323 237.102 444.291 235.103 442.433C233.104 440.575 231.882 438.029 231.684 435.307C231.485 432.585 232.325 429.889 234.033 427.76C235.742 425.632 238.193 424.23 240.894 423.835C243.594 423.441 246.344 424.083 248.59 425.633C250.836 427.184 252.412 429.527 253.001 432.192C253.589 434.857 253.147 437.646 251.763 439.999C250.379 442.351 248.156 444.092 245.54 444.872C244.54 445.17 243.503 445.321 242.46 445.322ZM242.46 425.762C241.607 425.762 240.759 425.883 239.94 426.122C237.989 426.699 236.299 427.934 235.158 429.618C234.016 431.302 233.494 433.329 233.68 435.355C233.866 437.38 234.749 439.279 236.178 440.726C237.607 442.174 239.494 443.081 241.517 443.293C243.54 443.505 245.574 443.008 247.272 441.889C248.971 440.769 250.228 439.095 250.83 437.152C251.432 435.209 251.341 433.117 250.573 431.233C249.806 429.35 248.409 427.79 246.62 426.822C245.353 426.129 243.934 425.764 242.49 425.762H242.46Z" fill="white"/>
<path d="M276.07 435.332C273.351 435.325 270.735 434.29 268.748 432.434C266.761 430.577 265.551 428.037 265.361 425.325C265.17 422.612 266.014 419.928 267.722 417.813C269.43 415.697 271.876 414.306 274.568 413.92C277.26 413.535 279.997 414.182 282.231 415.733C284.465 417.284 286.028 419.623 286.607 422.28C287.187 424.936 286.739 427.714 285.353 430.054C283.968 432.393 281.748 434.122 279.14 434.892C278.143 435.183 277.109 435.331 276.07 435.332ZM276.07 415.772C275.223 415.772 274.381 415.897 273.57 416.142C271.45 416.778 269.649 418.194 268.53 420.104C267.412 422.014 267.057 424.277 267.539 426.437C268.021 428.598 269.302 430.496 271.126 431.75C272.951 433.004 275.182 433.521 277.372 433.197C279.561 432.873 281.547 431.732 282.93 430.003C284.313 428.275 284.99 426.087 284.825 423.879C284.66 421.672 283.665 419.608 282.041 418.104C280.417 416.6 278.284 415.767 276.07 415.772Z" fill="white"/>
<path d="M309.66 425.352C307.336 425.35 305.075 424.599 303.213 423.21C301.35 421.821 299.985 419.868 299.32 417.642C298.713 415.598 298.725 413.42 299.355 411.384C299.985 409.347 301.205 407.543 302.86 406.2C304.515 404.856 306.532 404.034 308.654 403.836C310.777 403.639 312.911 404.075 314.785 405.09C316.66 406.105 318.192 407.653 319.187 409.539C320.182 411.424 320.596 413.562 320.376 415.683C320.156 417.803 319.312 419.811 317.951 421.452C316.59 423.093 314.773 424.293 312.73 424.902C311.733 425.197 310.7 425.349 309.66 425.352ZM309.66 405.782C307.812 405.777 306.009 406.354 304.508 407.432C303.007 408.51 301.884 410.034 301.299 411.787C300.713 413.54 300.695 415.433 301.247 417.196C301.799 418.96 302.893 420.505 304.373 421.612C305.853 422.718 307.644 423.33 309.492 423.36C311.34 423.391 313.15 422.838 314.666 421.78C316.181 420.723 317.325 419.215 317.934 417.47C318.544 415.725 318.588 413.833 318.06 412.062C317.518 410.253 316.409 408.666 314.896 407.535C313.384 406.405 311.548 405.79 309.66 405.782Z" fill="white"/>
<path d="M343.25 415.362C340.523 415.365 337.896 414.336 335.897 412.481C333.898 410.626 332.675 408.083 332.475 405.363C332.275 402.643 333.113 399.949 334.819 397.821C336.525 395.694 338.973 394.291 341.671 393.896C344.37 393.5 347.118 394.141 349.363 395.689C351.607 397.238 353.183 399.579 353.772 402.241C354.361 404.904 353.92 407.691 352.537 410.042C351.155 412.392 348.933 414.132 346.32 414.912C345.325 415.213 344.29 415.364 343.25 415.362ZM343.25 395.802C342.404 395.805 341.563 395.926 340.75 396.162C338.617 396.791 336.801 398.206 335.668 400.12C334.535 402.034 334.169 404.306 334.644 406.479C335.119 408.652 336.398 410.565 338.226 411.833C340.054 413.1 342.294 413.629 344.496 413.312C346.697 412.995 348.697 411.856 350.093 410.124C351.489 408.392 352.177 406.196 352.019 403.977C351.861 401.759 350.869 399.682 349.242 398.165C347.615 396.648 345.474 395.804 343.25 395.802Z" fill="white"/>
<path d="M376.84 405.372C374.121 405.365 371.505 404.33 369.518 402.474C367.531 400.617 366.321 398.077 366.131 395.365C365.94 392.652 366.784 389.968 368.492 387.853C370.2 385.737 372.646 384.346 375.338 383.96C378.029 383.575 380.767 384.222 383.001 385.773C385.235 387.324 386.798 389.663 387.377 392.32C387.957 394.976 387.509 397.754 386.123 400.094C384.738 402.433 382.518 404.162 379.91 404.932C378.913 405.225 377.879 405.373 376.84 405.372ZM376.84 385.812C374.996 385.812 373.198 386.394 371.703 387.474C370.208 388.554 369.09 390.077 368.51 391.828C367.929 393.579 367.915 395.468 368.468 397.227C369.022 398.987 370.116 400.527 371.594 401.63C373.073 402.732 374.861 403.341 376.705 403.37C378.549 403.4 380.356 402.847 381.869 401.791C383.381 400.736 384.523 399.231 385.131 397.489C385.74 395.748 385.785 393.86 385.26 392.092C384.723 390.274 383.612 388.679 382.092 387.547C380.572 386.414 378.725 385.805 376.83 385.812H376.84Z" fill="white"/>
<path d="M410.41 395.392C407.681 395.39 405.054 394.356 403.057 392.497C401.059 390.638 399.84 388.091 399.643 385.369C399.447 382.648 400.288 379.952 401.997 377.825C403.707 375.699 406.158 374.298 408.859 373.904C411.559 373.511 414.308 374.155 416.553 375.706C418.799 377.257 420.373 379.6 420.961 382.265C421.549 384.93 421.107 387.718 419.722 390.07C418.338 392.422 416.115 394.162 413.5 394.942C412.497 395.238 411.456 395.389 410.41 395.392ZM410.41 375.832C409.567 375.829 408.728 375.95 407.92 376.192C406.255 376.685 404.773 377.662 403.663 378.998C402.553 380.334 401.864 381.969 401.683 383.697C401.503 385.425 401.839 387.167 402.649 388.704C403.459 390.24 404.706 391.502 406.234 392.33C407.761 393.157 409.5 393.513 411.229 393.352C412.959 393.191 414.602 392.52 415.95 391.425C417.299 390.331 418.292 388.86 418.805 387.2C419.317 385.541 419.326 383.766 418.83 382.102C418.288 380.291 417.178 378.704 415.663 377.575C414.148 376.445 412.31 375.834 410.42 375.832H410.41Z" fill="white"/>
<path d="M444 385.402C442 385.402 440.04 384.847 438.337 383.797C436.635 382.747 435.259 381.244 434.362 379.457C433.465 377.67 433.083 375.668 433.258 373.676C433.433 371.684 434.16 369.78 435.355 368.177C436.551 366.574 438.169 365.335 440.028 364.599C441.888 363.862 443.915 363.658 445.884 364.008C447.853 364.358 449.686 365.249 451.177 366.582C452.669 367.914 453.76 369.635 454.33 371.552C455.143 374.291 454.835 377.242 453.474 379.755C452.113 382.267 449.809 384.137 447.07 384.952C446.075 385.253 445.04 385.404 444 385.402ZM444 365.842C443.157 365.844 442.319 365.966 441.51 366.202C439.845 366.695 438.363 367.671 437.253 369.006C436.142 370.341 435.452 371.976 435.271 373.703C435.09 375.431 435.425 377.173 436.234 378.71C437.042 380.247 438.289 381.509 439.816 382.337C441.342 383.166 443.08 383.523 444.809 383.363C446.539 383.204 448.182 382.535 449.531 381.441C450.881 380.348 451.875 378.879 452.389 377.22C452.904 375.561 452.914 373.787 452.42 372.122C451.88 370.308 450.768 368.717 449.251 367.586C447.734 366.454 445.893 365.842 444 365.842Z" fill="white"/>
<path d="M200.29 489.322C197.563 489.325 194.936 488.296 192.937 486.441C190.938 484.586 189.715 482.043 189.515 479.323C189.315 476.603 190.153 473.909 191.859 471.781C193.565 469.654 196.013 468.251 198.712 467.856C201.41 467.46 204.158 468.101 206.403 469.649C208.647 471.198 210.223 473.539 210.812 476.201C211.401 478.864 210.96 481.651 209.577 484.002C208.195 486.352 205.973 488.092 203.36 488.872C202.365 489.173 201.33 489.324 200.29 489.322ZM200.29 469.762C199.447 469.764 198.609 469.886 197.8 470.122C195.669 470.751 193.855 472.164 192.724 474.077C191.593 475.989 191.228 478.259 191.703 480.43C192.178 482.601 193.457 484.511 195.284 485.777C197.11 487.042 199.348 487.569 201.548 487.251C203.747 486.933 205.744 485.794 207.137 484.063C208.531 482.332 209.217 480.138 209.057 477.921C208.898 475.705 207.905 473.631 206.278 472.117C204.652 470.603 202.512 469.762 200.29 469.762Z" fill="white"/>
<path d="M233.89 479.332C231.17 479.328 228.553 478.295 226.564 476.439C224.576 474.584 223.364 472.045 223.171 469.332C222.979 466.619 223.821 463.934 225.528 461.817C227.236 459.7 229.681 458.308 232.373 457.921C235.065 457.534 237.804 458.181 240.038 459.731C242.272 461.281 243.837 463.62 244.417 466.277C244.997 468.934 244.549 471.712 243.164 474.053C241.779 476.393 239.558 478.122 236.95 478.892C235.956 479.184 234.926 479.332 233.89 479.332ZM233.89 459.772C232.524 459.773 231.177 460.093 229.956 460.706C228.735 461.319 227.673 462.209 226.856 463.304C226.039 464.399 225.488 465.669 225.247 467.014C225.007 468.359 225.083 469.741 225.47 471.052C226.133 473.285 227.656 475.163 229.704 476.273C230.718 476.823 231.83 477.168 232.978 477.287C234.125 477.407 235.284 477.3 236.39 476.972C237.496 476.643 238.526 476.1 239.422 475.374C240.318 474.647 241.062 473.752 241.612 472.738C242.161 471.724 242.506 470.611 242.626 469.464C242.746 468.317 242.638 467.157 242.31 466.052C241.766 464.238 240.653 462.648 239.134 461.517C237.616 460.385 235.773 459.774 233.88 459.772H233.89Z" fill="white"/>
<path d="M267.48 469.352C265.48 469.354 263.519 468.799 261.817 467.751C260.114 466.702 258.737 465.201 257.838 463.414C256.94 461.627 256.556 459.626 256.73 457.634C256.904 455.642 257.629 453.738 258.823 452.134C260.017 450.53 261.634 449.29 263.493 448.552C265.351 447.814 267.379 447.608 269.348 447.957C271.317 448.305 273.15 449.194 274.643 450.525C276.136 451.856 277.229 453.575 277.8 455.492C278.277 457.1 278.373 458.797 278.08 460.448C277.786 462.1 277.112 463.66 276.11 465.006C275.109 466.351 273.807 467.444 272.309 468.199C270.811 468.953 269.157 469.348 267.48 469.352ZM267.48 449.792C266.634 449.789 265.791 449.91 264.98 450.152C263.316 450.647 261.836 451.625 260.727 452.962C259.618 454.298 258.931 455.933 258.752 457.661C258.573 459.388 258.91 461.13 259.72 462.665C260.531 464.201 261.779 465.462 263.306 466.288C264.833 467.115 266.571 467.47 268.3 467.309C270.029 467.148 271.672 466.477 273.02 465.383C274.368 464.288 275.361 462.818 275.874 461.159C276.386 459.5 276.395 457.726 275.9 456.062C275.354 454.25 274.24 452.662 272.722 451.533C271.204 450.403 269.362 449.793 267.47 449.792H267.48Z" fill="white"/>
<path d="M301.07 459.362C298.343 459.368 295.714 458.34 293.713 456.487C291.712 454.633 290.488 452.09 290.286 449.37C290.084 446.65 290.92 443.955 292.625 441.826C294.33 439.697 296.778 438.293 299.476 437.896C302.175 437.5 304.924 438.139 307.169 439.687C309.415 441.235 310.991 443.576 311.581 446.239C312.171 448.902 311.73 451.689 310.348 454.041C308.965 456.392 306.744 458.132 304.13 458.912C303.138 459.212 302.107 459.363 301.07 459.362ZM301.07 439.802C300.224 439.804 299.382 439.925 298.57 440.162C296.437 440.791 294.621 442.206 293.488 444.12C292.355 446.034 291.989 448.306 292.464 450.479C292.939 452.652 294.218 454.565 296.046 455.833C297.874 457.1 300.114 457.629 302.316 457.312C304.517 456.995 306.517 455.856 307.913 454.124C309.309 452.392 309.997 450.196 309.839 447.977C309.681 445.759 308.689 443.682 307.062 442.165C305.435 440.648 303.294 439.804 301.07 439.802Z" fill="white"/>
<path d="M334.66 449.372C331.951 449.364 329.346 448.331 327.368 446.481C325.39 444.631 324.185 442.101 323.996 439.399C323.807 436.697 324.648 434.024 326.35 431.917C328.052 429.809 330.488 428.424 333.169 428.04C335.85 427.656 338.578 428.301 340.803 429.845C343.028 431.39 344.586 433.719 345.163 436.365C345.741 439.012 345.296 441.778 343.917 444.11C342.538 446.441 340.327 448.164 337.73 448.932C336.733 449.223 335.699 449.371 334.66 449.372ZM334.66 429.812C333.813 429.812 332.971 429.937 332.16 430.182C329.967 430.877 328.135 432.406 327.058 434.439C325.98 436.471 325.743 438.846 326.399 441.051C327.054 443.256 328.548 445.116 330.561 446.231C332.573 447.346 334.943 447.626 337.16 447.012C339.392 446.347 341.269 444.824 342.379 442.776C343.489 440.729 343.741 438.325 343.08 436.092C342.538 434.277 341.424 432.686 339.906 431.555C338.387 430.423 336.544 429.812 334.65 429.812H334.66Z" fill="white"/>
<path d="M368.25 439.392C366.251 439.392 364.291 438.836 362.589 437.786C360.888 436.736 359.512 435.234 358.615 433.447C357.718 431.661 357.336 429.66 357.511 427.668C357.686 425.676 358.411 423.773 359.606 422.17C360.801 420.567 362.418 419.327 364.276 418.591C366.135 417.854 368.162 417.648 370.13 417.997C372.099 418.346 373.932 419.235 375.424 420.566C376.916 421.896 378.009 423.616 378.58 425.532C379.391 428.273 379.082 431.223 377.721 433.737C376.36 436.25 374.058 438.122 371.32 438.942C370.323 439.236 369.289 439.387 368.25 439.392ZM368.25 419.832C367.404 419.828 366.561 419.95 365.75 420.192C363.617 420.821 361.801 422.236 360.668 424.15C359.535 426.064 359.169 428.336 359.644 430.509C360.119 432.682 361.398 434.595 363.226 435.863C365.054 437.13 367.294 437.659 369.496 437.342C371.697 437.025 373.697 435.886 375.093 434.154C376.489 432.422 377.177 430.226 377.019 428.007C376.861 425.789 375.869 423.712 374.242 422.195C372.615 420.678 370.474 419.834 368.25 419.832Z" fill="white"/>
<path d="M401.82 429.402C399.094 429.4 396.469 428.366 394.474 426.509C392.479 424.651 391.261 422.107 391.064 419.388C390.868 416.669 391.709 413.976 393.417 411.851C395.125 409.727 397.574 408.327 400.271 407.934C402.969 407.541 405.716 408.184 407.959 409.734C410.202 411.283 411.775 413.624 412.363 416.286C412.95 418.948 412.508 421.734 411.126 424.084C409.743 426.433 407.522 428.173 404.91 428.952C403.907 429.248 402.866 429.399 401.82 429.402ZM401.82 409.842C400.967 409.843 400.119 409.964 399.3 410.202C397.16 410.832 395.337 412.25 394.2 414.17C393.062 416.089 392.693 418.368 393.168 420.549C393.642 422.729 394.924 424.649 396.757 425.923C398.589 427.196 400.835 427.728 403.044 427.413C405.253 427.097 407.261 425.957 408.664 424.222C410.066 422.486 410.759 420.284 410.604 418.058C410.449 415.832 409.457 413.747 407.827 412.223C406.198 410.698 404.051 409.848 401.82 409.842Z" fill="white"/>
<path d="M435.43 419.412C432.721 419.404 430.116 418.371 428.138 416.521C426.16 414.671 424.955 412.141 424.766 409.439C424.577 406.737 425.418 404.064 427.12 401.957C428.822 399.849 431.258 398.464 433.939 398.08C436.62 397.696 439.348 398.341 441.573 399.885C443.798 401.43 445.356 403.759 445.933 406.405C446.511 409.052 446.066 411.818 444.687 414.15C443.308 416.481 441.097 418.204 438.5 418.972C437.503 419.265 436.469 419.414 435.43 419.412ZM435.43 399.852C433.583 399.851 431.782 400.432 430.284 401.512C428.786 402.593 427.666 404.118 427.084 405.871C426.502 407.624 426.487 409.516 427.041 411.278C427.595 413.04 428.69 414.583 430.171 415.688C431.651 416.792 433.442 417.402 435.289 417.431C437.136 417.459 438.946 416.905 440.46 415.847C441.974 414.79 443.117 413.282 443.725 411.537C444.334 409.793 444.377 407.902 443.85 406.132C443.309 404.316 442.196 402.724 440.677 401.593C439.158 400.461 437.314 399.85 435.42 399.852H435.43Z" fill="white"/>
<path d="M225.29 513.352C222.563 513.355 219.936 512.326 217.937 510.471C215.938 508.616 214.715 506.073 214.515 503.353C214.315 500.633 215.153 497.939 216.859 495.811C218.565 493.684 221.013 492.281 223.712 491.886C226.41 491.49 229.158 492.131 231.403 493.679C233.647 495.228 235.223 497.569 235.812 500.231C236.401 502.894 235.96 505.681 234.577 508.032C233.195 510.382 230.973 512.122 228.36 512.902C227.364 513.198 226.33 513.35 225.29 513.352ZM225.29 493.792C224.447 493.789 223.608 493.91 222.8 494.152C220.669 494.781 218.855 496.194 217.724 498.107C216.593 500.019 216.228 502.289 216.703 504.46C217.178 506.631 218.457 508.541 220.284 509.807C222.11 511.072 224.348 511.599 226.548 511.281C228.747 510.963 230.744 509.824 232.137 508.093C233.531 506.362 234.217 504.168 234.057 501.951C233.898 499.735 232.905 497.661 231.278 496.147C229.652 494.633 227.512 493.792 225.29 493.792Z" fill="white"/>
<path d="M258.88 503.362C256.153 503.365 253.526 502.336 251.527 500.481C249.528 498.626 248.305 496.083 248.105 493.363C247.905 490.643 248.743 487.949 250.449 485.821C252.155 483.694 254.603 482.291 257.302 481.896C260 481.5 262.748 482.141 264.993 483.689C267.237 485.238 268.813 487.579 269.402 490.241C269.991 492.904 269.55 495.691 268.167 498.042C266.785 500.392 264.563 502.132 261.95 502.912C260.955 503.213 259.92 503.364 258.88 503.362ZM258.88 483.802C258.037 483.804 257.199 483.926 256.39 484.162C254.259 484.791 252.445 486.204 251.314 488.117C250.183 490.029 249.818 492.3 250.293 494.47C250.768 496.641 252.047 498.551 253.874 499.817C255.7 501.082 257.938 501.609 260.138 501.291C262.337 500.973 264.334 499.834 265.727 498.103C267.121 496.372 267.807 494.178 267.647 491.961C267.488 489.745 266.495 487.671 264.868 486.157C263.242 484.643 261.102 483.802 258.88 483.802Z" fill="white"/>
<path d="M292.47 493.372C290.47 493.372 288.51 492.817 286.807 491.767C285.105 490.717 283.729 489.214 282.832 487.427C281.935 485.64 281.553 483.638 281.728 481.646C281.903 479.654 282.63 477.75 283.825 476.147C285.021 474.544 286.639 473.305 288.498 472.569C290.358 471.832 292.385 471.628 294.354 471.978C296.323 472.328 298.156 473.219 299.647 474.552C301.139 475.884 302.23 477.605 302.8 479.522C303.282 481.13 303.381 482.829 303.089 484.483C302.797 486.136 302.122 487.699 301.118 489.045C300.114 490.391 298.809 491.483 297.308 492.234C295.806 492.986 294.149 493.375 292.47 493.372ZM292.47 473.812C291.626 473.813 290.788 473.937 289.98 474.182C288.315 474.675 286.833 475.652 285.723 476.988C284.613 478.324 283.924 479.959 283.743 481.687C283.563 483.415 283.899 485.157 284.709 486.694C285.519 488.23 286.766 489.492 288.294 490.319C289.821 491.147 291.56 491.503 293.289 491.342C295.019 491.181 296.662 490.51 298.01 489.415C299.359 488.32 300.352 486.85 300.865 485.19C301.377 483.531 301.386 481.756 300.89 480.092C300.349 478.276 299.236 476.684 297.717 475.553C296.198 474.421 294.354 473.81 292.46 473.812H292.47Z" fill="white"/>
<path d="M326 483.392C323.682 483.382 321.428 482.627 319.572 481.239C317.716 479.851 316.355 477.902 315.69 475.682C315.079 473.638 315.088 471.459 315.716 469.421C316.345 467.383 317.564 465.577 319.22 464.233C320.876 462.889 322.894 462.067 325.018 461.871C327.142 461.674 329.276 462.113 331.15 463.132C332.398 463.8 333.501 464.71 334.394 465.808C335.287 466.907 335.952 468.173 336.35 469.532C337.164 472.273 336.856 475.224 335.495 477.739C334.133 480.253 331.83 482.124 329.09 482.942C328.087 483.239 327.046 483.391 326 483.392ZM326 463.822C325.15 463.821 324.304 463.946 323.49 464.192C321.537 464.768 319.844 466.005 318.7 467.691C317.557 469.376 317.033 471.406 317.219 473.434C317.405 475.463 318.288 477.364 319.719 478.813C321.15 480.263 323.039 481.171 325.065 481.383C327.091 481.596 329.127 481.099 330.828 479.977C332.528 478.856 333.786 477.179 334.389 475.233C334.991 473.288 334.9 471.193 334.13 469.307C333.361 467.422 331.961 465.861 330.17 464.892C328.913 464.202 327.504 463.835 326.07 463.822H326Z" fill="white"/>
<path d="M359.66 473.402C356.933 473.408 354.304 472.38 352.303 470.527C350.302 468.673 349.078 466.131 348.876 463.411C348.674 460.69 349.51 457.995 351.215 455.866C352.92 453.737 355.368 452.333 358.066 451.936C360.765 451.54 363.514 452.179 365.759 453.727C368.005 455.275 369.581 457.616 370.171 460.279C370.761 462.942 370.32 465.729 368.938 468.081C367.555 470.432 365.334 472.172 362.72 472.952C361.728 473.252 360.697 473.403 359.66 473.402ZM359.66 453.842C358.814 453.844 357.972 453.965 357.16 454.202C355.027 454.831 353.211 456.246 352.078 458.16C350.945 460.074 350.579 462.346 351.054 464.519C351.529 466.692 352.808 468.605 354.636 469.873C356.464 471.14 358.704 471.669 360.906 471.352C363.107 471.035 365.107 469.896 366.503 468.164C367.899 466.432 368.587 464.236 368.429 462.017C368.271 459.799 367.279 457.722 365.652 456.205C364.025 454.688 361.884 453.844 359.66 453.842Z" fill="white"/>
<path d="M393.25 463.412C390.536 463.407 387.924 462.375 385.939 460.523C383.955 458.671 382.746 456.137 382.554 453.429C382.363 450.722 383.203 448.042 384.907 445.929C386.611 443.817 389.052 442.427 391.739 442.041C394.425 441.655 397.159 442.3 399.389 443.847C401.619 445.394 403.181 447.728 403.76 450.38C404.339 453.032 403.893 455.805 402.511 458.141C401.128 460.477 398.913 462.203 396.31 462.972C395.316 463.264 394.286 463.413 393.25 463.412ZM393.25 443.852C391.882 443.851 390.532 444.169 389.309 444.782C388.086 445.395 387.023 446.286 386.205 447.383C385.387 448.479 384.837 449.752 384.598 451.099C384.36 452.446 384.439 453.831 384.83 455.142C385.316 456.819 386.292 458.312 387.632 459.432C388.972 460.551 390.616 461.245 392.352 461.424C394.089 461.603 395.84 461.26 397.381 460.438C398.921 459.617 400.181 458.354 401 456.812C401.554 455.8 401.901 454.689 402.021 453.542C402.142 452.395 402.032 451.236 401.7 450.132C401.16 448.32 400.05 446.73 398.535 445.599C397.02 444.467 395.181 443.855 393.29 443.852H393.25Z" fill="white"/>
<path d="M426.84 453.432C424.11 453.438 421.479 452.41 419.476 450.555C417.473 448.7 416.247 446.155 416.045 443.432C415.842 440.709 416.679 438.011 418.385 435.88C420.092 433.749 422.542 432.344 425.244 431.947C427.945 431.549 430.696 432.19 432.944 433.739C435.192 435.289 436.769 437.632 437.36 440.297C437.95 442.963 437.508 445.753 436.124 448.107C434.74 450.46 432.516 452.202 429.9 452.982C428.907 453.278 427.876 453.429 426.84 453.432ZM426.84 433.872C425.994 433.868 425.151 433.99 424.34 434.232C422.207 434.861 420.391 436.276 419.258 438.19C418.125 440.104 417.759 442.376 418.234 444.549C418.709 446.722 419.988 448.635 421.816 449.903C423.644 451.17 425.884 451.699 428.086 451.382C430.287 451.065 432.287 449.926 433.683 448.194C435.079 446.462 435.767 444.266 435.609 442.047C435.451 439.828 434.459 437.752 432.832 436.235C431.205 434.718 429.064 433.874 426.84 433.872Z" fill="white"/>
<path d="M460.43 443.442C457.703 443.445 455.076 442.416 453.077 440.561C451.078 438.706 449.855 436.163 449.655 433.443C449.455 430.723 450.293 428.029 451.999 425.901C453.705 423.774 456.153 422.371 458.851 421.976C461.55 421.58 464.298 422.221 466.543 423.769C468.787 425.318 470.363 427.659 470.952 430.321C471.541 432.984 471.1 435.771 469.717 438.122C468.335 440.472 466.113 442.212 463.5 442.992C462.504 443.292 461.47 443.443 460.43 443.442ZM460.43 423.882C459.584 423.884 458.742 424.005 457.93 424.242C455.797 424.871 453.981 426.286 452.848 428.2C451.715 430.114 451.349 432.386 451.824 434.559C452.299 436.732 453.578 438.645 455.406 439.913C457.234 441.18 459.474 441.709 461.676 441.392C463.877 441.075 465.877 439.936 467.273 438.204C468.669 436.472 469.357 434.276 469.199 432.057C469.041 429.839 468.049 427.762 466.422 426.245C464.795 424.728 462.654 423.884 460.43 423.882Z" fill="white"/>
<path d="M216.7 547.362C214.376 547.36 212.115 546.609 210.253 545.22C208.39 543.831 207.025 541.878 206.36 539.652C205.753 537.608 205.765 535.43 206.395 533.394C207.025 531.357 208.245 529.553 209.9 528.21C211.555 526.866 213.572 526.044 215.694 525.846C217.817 525.649 219.951 526.085 221.825 527.1C223.7 528.115 225.232 529.663 226.227 531.549C227.222 533.434 227.636 535.572 227.416 537.692C227.196 539.813 226.352 541.821 224.991 543.462C223.63 545.103 221.813 546.303 219.77 546.912C218.774 547.212 217.74 547.363 216.7 547.362ZM216.7 527.802C215.854 527.804 215.012 527.925 214.2 528.162C212.536 528.656 211.056 529.634 209.947 530.969C208.838 532.305 208.15 533.94 207.97 535.667C207.79 537.394 208.125 539.135 208.935 540.671C209.745 542.207 210.991 543.469 212.518 544.296C214.044 545.124 215.782 545.48 217.51 545.32C219.239 545.16 220.882 544.492 222.231 543.398C223.58 542.305 224.574 540.836 225.088 539.178C225.603 537.52 225.614 535.746 225.12 534.082C224.578 532.267 223.464 530.676 221.946 529.545C220.427 528.413 218.584 527.802 216.69 527.802H216.7Z" fill="white"/>
<path d="M250.27 537.382C247.959 537.363 245.714 536.605 243.866 535.217C242.018 533.829 240.663 531.886 240 529.672C239.596 528.314 239.464 526.891 239.61 525.482C239.756 524.074 240.179 522.708 240.853 521.463C241.527 520.218 242.44 519.117 243.539 518.225C244.638 517.333 245.903 516.665 247.26 516.262C248.617 515.858 250.041 515.725 251.449 515.872C252.858 516.018 254.223 516.44 255.469 517.114C256.714 517.788 257.814 518.701 258.707 519.801C259.599 520.9 260.266 522.164 260.67 523.522C261.478 526.263 261.168 529.212 259.807 531.725C258.447 534.238 256.147 536.11 253.41 536.932C252.391 537.233 251.333 537.384 250.27 537.382ZM250.27 517.812C249.423 517.812 248.581 517.937 247.77 518.182C245.65 518.818 243.849 520.234 242.73 522.144C241.612 524.054 241.257 526.317 241.739 528.477C242.221 530.638 243.502 532.536 245.326 533.79C247.151 535.044 249.382 535.561 251.572 535.237C253.761 534.913 255.747 533.772 257.13 532.043C258.513 530.315 259.19 528.127 259.025 525.919C258.86 523.712 257.865 521.648 256.241 520.144C254.617 518.64 252.484 517.807 250.27 517.812Z" fill="white"/>
<path d="M283.88 527.392C281.153 527.395 278.526 526.366 276.527 524.511C274.528 522.656 273.305 520.113 273.105 517.393C272.905 514.673 273.743 511.979 275.449 509.851C277.155 507.724 279.603 506.321 282.302 505.926C285 505.53 287.748 506.171 289.993 507.719C292.237 509.268 293.813 511.609 294.402 514.271C294.991 516.934 294.55 519.721 293.167 522.072C291.785 524.422 289.563 526.162 286.95 526.942C285.954 527.238 284.92 527.39 283.88 527.392ZM283.88 507.832C283.034 507.829 282.191 507.951 281.38 508.192C279.247 508.821 277.431 510.236 276.298 512.15C275.165 514.064 274.799 516.336 275.274 518.509C275.749 520.682 277.028 522.595 278.856 523.863C280.684 525.13 282.924 525.659 285.126 525.342C287.327 525.025 289.327 523.886 290.723 522.154C292.119 520.422 292.807 518.226 292.649 516.007C292.491 513.789 291.499 511.712 289.872 510.195C288.245 508.678 286.104 507.834 283.88 507.832Z" fill="white"/>
<path d="M317.47 517.402C314.74 517.405 312.11 516.375 310.109 514.519C308.108 512.662 306.884 510.117 306.684 507.394C306.484 504.672 307.322 501.975 309.029 499.845C310.737 497.716 313.188 496.312 315.889 495.916C318.589 495.52 321.34 496.161 323.587 497.711C325.834 499.261 327.411 501.605 328 504.27C328.59 506.935 328.148 509.725 326.764 512.078C325.38 514.43 323.156 516.172 320.54 516.952C319.545 517.253 318.51 517.404 317.47 517.402ZM317.47 497.842C316.617 497.843 315.769 497.964 314.95 498.202C313.283 498.695 311.799 499.673 310.687 501.01C309.575 502.347 308.885 503.984 308.703 505.713C308.522 507.443 308.858 509.187 309.668 510.726C310.479 512.265 311.727 513.529 313.256 514.357C314.785 515.186 316.525 515.543 318.257 515.382C319.989 515.222 321.634 514.551 322.984 513.455C324.335 512.36 325.33 510.888 325.843 509.226C326.357 507.565 326.366 505.788 325.87 504.122C325.333 502.309 324.226 500.719 322.712 499.588C321.199 498.456 319.36 497.844 317.47 497.842Z" fill="white"/>
<path d="M351.06 507.412C349.06 507.412 347.1 506.857 345.397 505.807C343.695 504.757 342.319 503.254 341.422 501.467C340.525 499.68 340.143 497.678 340.318 495.686C340.493 493.694 341.22 491.79 342.415 490.187C343.611 488.584 345.229 487.345 347.088 486.609C348.948 485.872 350.975 485.668 352.944 486.018C354.913 486.368 356.746 487.259 358.237 488.592C359.729 489.924 360.82 491.645 361.39 493.562C361.872 495.17 361.971 496.869 361.679 498.523C361.387 500.176 360.712 501.739 359.708 503.085C358.704 504.431 357.399 505.523 355.898 506.274C354.396 507.026 352.739 507.415 351.06 507.412ZM351.06 487.852C350.216 487.853 349.378 487.977 348.57 488.222C346.905 488.715 345.423 489.692 344.313 491.028C343.203 492.364 342.514 493.999 342.333 495.727C342.153 497.455 342.489 499.197 343.299 500.734C344.109 502.27 345.356 503.532 346.884 504.359C348.411 505.187 350.15 505.543 351.879 505.382C353.609 505.221 355.252 504.55 356.6 503.455C357.949 502.36 358.942 500.89 359.455 499.23C359.967 497.571 359.976 495.796 359.48 494.132C358.939 492.316 357.826 490.724 356.307 489.593C354.788 488.461 352.944 487.85 351.05 487.852H351.06Z" fill="white"/>
<path d="M384.65 497.432C381.923 497.435 379.296 496.406 377.297 494.551C375.298 492.696 374.075 490.153 373.875 487.433C373.675 484.713 374.513 482.019 376.219 479.891C377.925 477.764 380.373 476.361 383.071 475.966C385.77 475.57 388.518 476.211 390.763 477.759C393.007 479.308 394.583 481.649 395.172 484.311C395.761 486.974 395.32 489.761 393.937 492.112C392.555 494.462 390.333 496.202 387.72 496.982C386.724 497.279 385.69 497.43 384.65 497.432ZM384.65 477.872C383.807 477.869 382.968 477.991 382.16 478.232C380.029 478.861 378.215 480.274 377.084 482.187C375.953 484.099 375.588 486.37 376.063 488.54C376.538 490.711 377.817 492.621 379.644 493.887C381.47 495.152 383.708 495.679 385.908 495.361C388.107 495.043 390.104 493.904 391.497 492.173C392.891 490.442 393.577 488.248 393.417 486.031C393.258 483.815 392.265 481.741 390.638 480.227C389.012 478.713 386.872 477.872 384.65 477.872Z" fill="white"/>
<path d="M418.24 487.442C415.88 487.442 413.584 486.667 411.707 485.237C409.829 483.807 408.473 481.8 407.846 479.524C407.219 477.249 407.357 474.83 408.237 472.64C409.117 470.45 410.692 468.61 412.72 467.402C414.748 466.193 417.116 465.684 419.461 465.951C421.806 466.219 423.998 467.248 425.702 468.882C427.405 470.516 428.525 472.664 428.89 474.996C429.254 477.328 428.843 479.716 427.72 481.792C427.05 483.04 426.138 484.143 425.038 485.036C423.937 485.929 422.67 486.593 421.31 486.992C420.315 487.293 419.28 487.444 418.24 487.442ZM418.24 467.882C417.394 467.884 416.552 468.005 415.74 468.242C414.076 468.736 412.596 469.714 411.487 471.049C410.378 472.385 409.69 474.02 409.51 475.747C409.33 477.474 409.665 479.215 410.475 480.751C411.285 482.287 412.531 483.549 414.058 484.376C415.584 485.204 417.322 485.56 419.05 485.4C420.779 485.24 422.422 484.572 423.771 483.478C425.12 482.385 426.114 480.916 426.628 479.258C427.143 477.6 427.154 475.826 426.66 474.162C426.117 472.35 425.005 470.761 423.488 469.63C421.972 468.499 420.132 467.886 418.24 467.882Z" fill="white"/>
<path d="M451.84 477.452C449.84 477.454 447.878 476.9 446.175 475.851C444.472 474.803 443.094 473.301 442.195 471.514C441.297 469.727 440.913 467.725 441.087 465.732C441.262 463.739 441.987 461.835 443.182 460.231C444.377 458.627 445.995 457.387 447.855 456.65C449.714 455.913 451.742 455.708 453.712 456.058C455.681 456.408 457.514 457.298 459.006 458.631C460.498 459.963 461.59 461.684 462.16 463.602C462.642 465.209 462.741 466.907 462.45 468.56C462.158 470.213 461.484 471.775 460.481 473.121C459.479 474.467 458.175 475.559 456.674 476.311C455.174 477.063 453.518 477.454 451.84 477.452ZM451.84 457.892C450.993 457.892 450.151 458.017 449.34 458.262C447.22 458.898 445.419 460.314 444.3 462.224C443.182 464.134 442.827 466.397 443.309 468.557C443.791 470.718 445.072 472.616 446.896 473.87C448.721 475.124 450.952 475.641 453.142 475.317C455.331 474.993 457.317 473.852 458.7 472.123C460.083 470.395 460.76 468.207 460.595 465.999C460.43 463.792 459.435 461.728 457.811 460.224C456.187 458.72 454.054 457.887 451.84 457.892Z" fill="white"/>
<path d="M241.7 571.392C240.059 571.392 238.439 571.017 236.965 570.297C235.49 569.576 234.2 568.529 233.192 567.234C232.184 565.939 231.484 564.431 231.148 562.825C230.811 561.218 230.845 559.556 231.248 557.965C231.651 556.375 232.411 554.897 233.472 553.644C234.533 552.392 235.865 551.398 237.368 550.739C238.871 550.08 240.505 549.773 242.144 549.841C243.784 549.909 245.387 550.35 246.83 551.132C248.076 551.801 249.176 552.712 250.067 553.811C250.958 554.91 251.622 556.174 252.02 557.532C252.497 559.14 252.593 560.837 252.3 562.488C252.006 564.14 251.332 565.7 250.33 567.046C249.329 568.391 248.027 569.484 246.529 570.239C245.031 570.993 243.377 571.388 241.7 571.392ZM241.7 551.822C240.85 551.821 240.004 551.946 239.19 552.192C237.526 552.687 236.046 553.665 234.937 555.001C233.828 556.338 233.141 557.973 232.962 559.701C232.783 561.428 233.12 563.17 233.93 564.705C234.741 566.241 235.989 567.502 237.516 568.328C239.043 569.155 240.781 569.51 242.51 569.349C244.239 569.187 245.882 568.517 247.23 567.423C248.578 566.328 249.571 564.858 250.084 563.199C250.596 561.54 250.605 559.766 250.11 558.102C249.564 556.293 248.453 554.707 246.939 553.576C245.426 552.446 243.589 551.831 241.7 551.822Z" fill="white"/>
<path d="M275.29 561.402C273.29 561.402 271.33 560.847 269.627 559.797C267.925 558.747 266.549 557.244 265.652 555.457C264.755 553.67 264.372 551.668 264.548 549.676C264.723 547.684 265.45 545.78 266.645 544.177C267.841 542.574 269.459 541.335 271.318 540.599C273.178 539.862 275.205 539.658 277.174 540.008C279.143 540.358 280.976 541.249 282.467 542.582C283.959 543.914 285.05 545.635 285.62 547.552C286.43 550.293 286.12 553.243 284.757 555.755C283.394 558.268 281.089 560.136 278.35 560.952C277.358 561.252 276.327 561.404 275.29 561.402ZM275.29 541.842C274.444 541.844 273.602 541.965 272.79 542.202C271.126 542.696 269.646 543.674 268.537 545.01C267.428 546.345 266.74 547.98 266.56 549.707C266.38 551.434 266.716 553.175 267.525 554.711C268.335 556.247 269.581 557.509 271.108 558.336C272.634 559.164 274.372 559.52 276.1 559.36C277.829 559.2 279.472 558.532 280.821 557.438C282.17 556.345 283.164 554.876 283.678 553.218C284.193 551.56 284.204 549.786 283.71 548.122C283.168 546.307 282.054 544.716 280.536 543.585C279.017 542.453 277.174 541.842 275.28 541.842H275.29Z" fill="white"/>
<path d="M308.88 551.412C306.163 551.368 303.563 550.298 301.603 548.417C299.642 546.535 298.466 543.982 298.311 541.269C298.155 538.556 299.032 535.885 300.764 533.792C302.497 531.699 304.957 530.339 307.651 529.985C310.345 529.631 313.073 530.309 315.288 531.883C317.503 533.458 319.039 535.812 319.59 538.473C320.14 541.134 319.664 543.904 318.256 546.228C316.848 548.552 314.613 550.257 312 551.002C310.985 551.287 309.934 551.425 308.88 551.412ZM308.88 531.852C308.033 531.852 307.191 531.977 306.38 532.222C304.26 532.858 302.459 534.274 301.34 536.184C300.222 538.094 299.867 540.357 300.349 542.517C300.83 544.678 302.112 546.576 303.936 547.83C305.761 549.084 307.992 549.601 310.182 549.277C312.371 548.953 314.357 547.812 315.74 546.083C317.123 544.355 317.8 542.167 317.635 539.959C317.47 537.752 316.475 535.688 314.851 534.184C313.227 532.68 311.094 531.847 308.88 531.852Z" fill="white"/>
<path d="M342.47 541.432C339.743 541.435 337.116 540.406 335.117 538.551C333.118 536.696 331.895 534.153 331.695 531.433C331.495 528.713 332.333 526.019 334.039 523.891C335.745 521.764 338.193 520.361 340.892 519.966C343.59 519.57 346.338 520.211 348.583 521.759C350.827 523.308 352.403 525.649 352.992 528.311C353.581 530.974 353.14 533.761 351.757 536.112C350.375 538.462 348.153 540.202 345.54 540.982C344.543 541.277 343.51 541.428 342.47 541.432ZM342.47 521.872C341.624 521.868 340.781 521.99 339.97 522.232C337.837 522.861 336.021 524.275 334.888 526.19C333.755 528.104 333.389 530.376 333.864 532.549C334.339 534.722 335.618 536.635 337.446 537.903C339.274 539.17 341.514 539.699 343.716 539.382C345.917 539.065 347.917 537.926 349.313 536.194C350.709 534.462 351.397 532.266 351.239 530.047C351.081 527.828 350.089 525.752 348.462 524.235C346.835 522.718 344.694 521.874 342.47 521.872Z" fill="white"/>
<path d="M376.06 531.442C374.192 531.444 372.355 530.961 370.73 530.039C369.106 529.118 367.748 527.789 366.792 526.185C365.836 524.58 365.314 522.754 365.276 520.886C365.239 519.018 365.688 517.173 366.58 515.532C367.248 514.283 368.158 513.181 369.257 512.288C370.356 511.395 371.621 510.73 372.98 510.332C375.721 509.518 378.673 509.826 381.187 511.187C383.702 512.548 385.573 514.852 386.39 517.592C387.201 520.331 386.891 523.281 385.53 525.793C384.169 528.305 381.868 530.174 379.13 530.992C378.135 531.293 377.1 531.444 376.06 531.442ZM376.06 511.882C375.214 511.884 374.372 512.005 373.56 512.242C371.892 512.735 370.409 513.713 369.297 515.05C368.185 516.387 367.495 518.024 367.313 519.753C367.132 521.483 367.468 523.228 368.278 524.766C369.089 526.305 370.337 527.569 371.866 528.397C373.395 529.226 375.135 529.583 376.867 529.422C378.599 529.262 380.244 528.591 381.594 527.495C382.945 526.4 383.94 524.928 384.453 523.266C384.967 521.605 384.976 519.828 384.48 518.162C383.939 516.346 382.826 514.754 381.307 513.623C379.788 512.491 377.944 511.88 376.05 511.882H376.06Z" fill="white"/>
<path d="M409.63 521.462C407.31 521.454 405.055 520.7 403.196 519.312C401.338 517.923 399.975 515.974 399.31 513.752C398.701 511.708 398.711 509.53 399.339 507.493C399.968 505.456 401.187 503.65 402.841 502.306C404.496 500.961 406.512 500.137 408.635 499.938C410.758 499.739 412.892 500.174 414.767 501.188C416.643 502.202 418.176 503.749 419.172 505.635C420.168 507.52 420.582 509.658 420.363 511.779C420.144 513.9 419.301 515.908 417.941 517.55C416.58 519.191 414.763 520.393 412.72 521.002C411.717 521.301 410.677 521.456 409.63 521.462ZM409.63 501.892C408.78 501.89 407.934 502.015 407.12 502.262C405.011 502.896 403.22 504.306 402.107 506.207C400.995 508.108 400.643 510.359 401.122 512.509C401.601 514.659 402.876 516.548 404.691 517.796C406.506 519.044 408.726 519.56 410.905 519.238C413.084 518.917 415.061 517.783 416.438 516.064C417.815 514.346 418.491 512.169 418.33 509.973C418.168 507.776 417.182 505.722 415.568 504.223C413.954 502.724 411.833 501.891 409.63 501.892Z" fill="white"/>
<path d="M443.24 511.472C440.513 511.475 437.886 510.446 435.887 508.591C433.888 506.736 432.665 504.193 432.465 501.473C432.265 498.753 433.103 496.059 434.809 493.931C436.515 491.804 438.963 490.401 441.661 490.006C444.36 489.61 447.108 490.251 449.353 491.799C451.597 493.348 453.173 495.689 453.762 498.351C454.351 501.014 453.91 503.801 452.527 506.152C451.145 508.502 448.923 510.242 446.31 511.022C445.314 511.318 444.28 511.47 443.24 511.472ZM443.24 491.912C442.397 491.909 441.558 492.03 440.75 492.272C438.619 492.901 436.805 494.314 435.674 496.227C434.543 498.139 434.178 500.41 434.653 502.58C435.128 504.751 436.407 506.661 438.234 507.927C440.06 509.192 442.298 509.719 444.498 509.401C446.697 509.083 448.694 507.944 450.087 506.213C451.481 504.482 452.167 502.288 452.007 500.071C451.848 497.855 450.855 495.781 449.228 494.267C447.602 492.753 445.462 491.912 443.24 491.912Z" fill="white"/>
<path d="M476.83 501.482C474.963 501.481 473.128 500.996 471.505 500.074C469.882 499.152 468.526 497.823 467.57 496.22C466.615 494.616 466.092 492.791 466.053 490.925C466.015 489.058 466.462 487.214 467.35 485.572C468.189 484.006 469.401 482.672 470.879 481.688C472.358 480.704 474.056 480.1 475.824 479.93C477.592 479.761 479.375 480.031 481.013 480.716C482.651 481.402 484.095 482.481 485.216 483.859C486.337 485.237 487.099 486.87 487.437 488.614C487.774 490.358 487.675 492.158 487.149 493.854C486.623 495.55 485.686 497.091 484.421 498.337C483.157 499.584 481.604 500.5 479.9 501.002C478.906 501.313 477.871 501.474 476.83 501.482ZM476.83 481.922C475.981 481.923 475.135 482.044 474.32 482.282C472.655 482.775 471.173 483.751 470.063 485.086C468.952 486.421 468.262 488.056 468.081 489.783C467.9 491.511 468.235 493.253 469.044 494.79C469.852 496.327 471.099 497.589 472.626 498.417C474.152 499.246 475.89 499.603 477.619 499.443C479.349 499.284 480.992 498.615 482.341 497.521C483.691 496.428 484.685 494.959 485.199 493.3C485.714 491.641 485.724 489.867 485.23 488.202C484.693 486.39 483.586 484.799 482.072 483.668C480.559 482.536 478.72 481.924 476.83 481.922Z" fill="white"/>
<path d="M205.86 587.222C205.656 587.221 205.457 587.158 205.29 587.042C205.073 586.89 204.925 586.659 204.878 586.398C204.831 586.138 204.889 585.869 205.04 585.652L320.11 419.482C320.241 419.291 320.435 419.152 320.657 419.088C320.88 419.024 321.118 419.04 321.33 419.132L506.67 499.782C506.797 499.829 506.913 499.903 507.011 499.997C507.109 500.091 507.187 500.204 507.24 500.329C507.292 500.454 507.319 500.588 507.318 500.724C507.317 500.86 507.289 500.994 507.235 501.118C507.18 501.243 507.101 501.355 507.002 501.448C506.903 501.54 506.786 501.612 506.658 501.658C506.531 501.704 506.395 501.724 506.259 501.716C506.124 501.708 505.991 501.672 505.87 501.612L321.29 421.292L206.69 586.782C206.598 586.917 206.475 587.028 206.33 587.105C206.185 587.182 206.024 587.222 205.86 587.222Z" fill="black"/>
<path d="M455.48 322.282L336.59 475.052L155.07 407.802" fill="#FCE054"/>
<path d="M336.59 476.052C336.474 476.051 336.359 476.031 336.25 475.992L154.73 408.742C154.597 408.705 154.473 408.64 154.366 408.553C154.259 408.465 154.171 408.357 154.108 408.234C154.045 408.111 154.008 407.976 154 407.838C153.991 407.7 154.012 407.562 154.06 407.432C154.108 407.302 154.182 407.184 154.278 407.084C154.374 406.985 154.489 406.906 154.617 406.854C154.745 406.801 154.882 406.775 155.02 406.778C155.159 406.782 155.295 406.813 155.42 406.872L336.25 473.872L454.69 321.672C454.853 321.462 455.093 321.326 455.356 321.293C455.62 321.26 455.885 321.333 456.095 321.497C456.305 321.66 456.441 321.899 456.473 322.163C456.506 322.426 456.433 322.692 456.27 322.902L337.38 475.672C337.286 475.791 337.166 475.887 337.029 475.953C336.892 476.019 336.742 476.052 336.59 476.052Z" fill="black"/>
<path d="M335 493.502C349.912 493.502 362 481.413 362 466.502C362 451.59 349.912 439.502 335 439.502C320.088 439.502 308 451.59 308 466.502C308 481.413 320.088 493.502 335 493.502Z" fill="#ED5564"/>
<path d="M334.5 490.502C329.852 490.502 325.309 489.123 321.444 486.541C317.58 483.959 314.567 480.289 312.789 475.995C311.01 471.701 310.545 466.976 311.452 462.417C312.358 457.858 314.596 453.671 317.883 450.385C321.17 447.098 325.357 444.86 329.915 443.953C334.474 443.046 339.199 443.512 343.493 445.29C347.787 447.069 351.457 450.081 354.04 453.946C356.622 457.81 358 462.354 358 467.002C357.995 473.233 355.517 479.207 351.111 483.613C346.705 488.019 340.731 490.496 334.5 490.502ZM334.5 445.502C330.248 445.502 326.091 446.763 322.555 449.125C319.02 451.487 316.264 454.845 314.637 458.774C313.009 462.703 312.584 467.025 313.413 471.196C314.243 475.367 316.29 479.198 319.297 482.204C322.304 485.211 326.135 487.259 330.306 488.088C334.476 488.918 338.799 488.492 342.728 486.865C346.656 485.238 350.014 482.482 352.377 478.946C354.739 475.411 356 471.254 356 467.002C355.992 461.302 353.724 455.838 349.694 451.808C345.664 447.777 340.2 445.51 334.5 445.502Z" fill="white"/>
<path d="M383.5 236.502C384.328 236.502 385 235.83 385 235.002C385 234.173 384.328 233.502 383.5 233.502C382.672 233.502 382 234.173 382 235.002C382 235.83 382.672 236.502 383.5 236.502Z" fill="#201000"/>
<path d="M321.76 520.262C323.86 514.262 300.01 495.792 300.01 495.792C300.01 495.792 329.86 516.362 331.96 510.362C334.06 504.362 306.17 487.842 306.17 487.842C306.17 487.842 340.07 506.462 342.17 500.462C343.29 497.262 334.71 491.612 326.46 487.042C336.03 491.532 347.15 495.872 348.33 492.512C350.43 486.512 310.53 465.792 310.53 465.792C310.53 465.792 332.58 470.152 336.63 468.202C338.76 467.202 317.3 454.202 294.7 440.012L262.76 479.932C270.81 485.368 278.54 491.264 285.91 497.592C311.7 520.102 319.65 526.262 321.76 520.262Z" fill="white"/>
<path d="M319.08 523.432C314.69 523.432 306.73 517.092 285.25 498.342C275.5 489.832 266.13 483.432 256.25 476.652C240.13 465.652 223.46 454.252 203.75 432.652C195.12 423.192 191.37 414.222 192.28 405.222C194.36 384.622 220.72 365.412 257.2 338.832C261.28 335.865 265.483 332.795 269.81 329.622C303.96 304.532 323.81 301.342 334.5 303.082C342.74 304.422 345.83 308.692 345.95 308.872C346.026 308.979 346.081 309.1 346.11 309.228C346.139 309.356 346.143 309.488 346.121 309.618C346.1 309.747 346.052 309.871 345.983 309.983C345.913 310.094 345.822 310.19 345.715 310.267C345.608 310.343 345.487 310.397 345.359 310.427C345.231 310.456 345.098 310.46 344.969 310.438C344.839 310.416 344.715 310.369 344.604 310.299C344.493 310.23 344.396 310.139 344.32 310.032C344.32 310.032 341.49 306.202 334.04 305.032C323.75 303.412 304.47 306.642 271.04 331.232C266.72 334.402 262.5 337.472 258.42 340.452C222.36 366.722 196.3 385.712 194.31 405.452C193.46 413.852 197.05 422.312 205.31 431.332C224.86 452.752 241.43 464.072 257.45 475.022C267.45 481.832 276.83 488.262 286.67 496.852C304.87 512.742 316.19 522.322 319.67 521.382C320 521.292 320.5 521.052 320.88 519.952C322.17 516.282 309.13 504.092 299.47 496.602C299.275 496.439 299.149 496.207 299.118 495.955C299.087 495.702 299.153 495.447 299.304 495.242C299.454 495.037 299.677 494.897 299.927 494.85C300.177 494.804 300.436 494.854 300.65 494.992C310.25 501.602 326.88 511.632 330.7 510.392C330.98 510.302 331.05 510.172 331.09 510.052C332.35 506.442 317.02 495.412 305.73 488.722C305.512 488.583 305.357 488.366 305.295 488.116C305.234 487.865 305.272 487.601 305.401 487.377C305.53 487.154 305.74 486.989 305.988 486.917C306.236 486.845 306.501 486.872 306.73 486.992C317.73 493.052 336.79 502.072 340.89 500.512C341.23 500.382 341.28 500.232 341.31 500.152C342.05 498.042 335.44 493.202 326.52 488.152C319.52 484.902 313.29 481.512 311.92 480.762C311.683 480.642 311.502 480.434 311.419 480.181C311.335 479.929 311.356 479.654 311.475 479.417C311.594 479.179 311.803 478.999 312.055 478.916C312.308 478.832 312.583 478.852 312.82 478.972C315.96 480.412 321.98 483.252 327.82 486.542C336.31 490.442 344.5 493.492 347.02 492.542C347.35 492.412 347.41 492.262 347.43 492.182C348.55 488.982 328.94 476.452 310.12 466.682C309.906 466.571 309.739 466.387 309.65 466.164C309.561 465.94 309.556 465.692 309.635 465.465C309.714 465.238 309.872 465.046 310.08 464.926C310.289 464.806 310.534 464.766 310.77 464.812C318.47 466.332 331.16 468.262 335.33 467.562C332.33 464.652 317.98 455.702 304.08 447.022C281.33 432.822 253.02 415.142 246.37 407.132C246.279 407.025 246.212 406.9 246.172 406.766C246.132 406.632 246.122 406.49 246.14 406.352C246.161 406.215 246.21 406.084 246.284 405.966C246.358 405.849 246.455 405.749 246.57 405.672L308.99 363.172C309.099 363.098 309.221 363.047 309.35 363.02C309.479 362.994 309.612 362.994 309.741 363.019C309.87 363.044 309.993 363.094 310.103 363.167C310.212 363.239 310.306 363.333 310.38 363.442C310.454 363.551 310.505 363.673 310.531 363.802C310.557 363.931 310.558 364.063 310.533 364.193C310.508 364.322 310.458 364.444 310.385 364.554C310.312 364.664 310.219 364.758 310.11 364.832L248.64 406.682C256.27 414.812 283.28 431.682 305.14 445.322C333.04 462.752 337.93 466.152 337.83 468.052C337.818 468.275 337.746 468.49 337.621 468.675C337.496 468.86 337.323 469.008 337.12 469.102C334.19 470.512 323.63 469.102 316.63 467.902C320.43 469.982 325.63 472.902 330.79 476.052C348.61 486.932 350.06 490.742 349.32 492.842C349.19 493.206 348.979 493.536 348.704 493.808C348.429 494.079 348.096 494.286 347.73 494.412C345.81 495.142 342.01 494.322 337.57 492.772C341.46 495.772 343.94 498.592 343.16 500.772C343.034 501.136 342.826 501.468 342.552 501.74C342.278 502.012 341.946 502.218 341.58 502.342C338.26 503.612 329.32 500.212 321.18 496.482C327.95 501.482 334.18 507.222 332.96 510.672C332.829 511.048 332.61 511.388 332.322 511.663C332.033 511.938 331.683 512.14 331.3 512.252C327.99 513.332 319.45 509.002 312.02 504.612C318.12 510.312 324.02 516.982 322.75 520.612C322.585 521.247 322.26 521.829 321.807 522.303C321.354 522.777 320.787 523.128 320.16 523.322C319.806 523.404 319.443 523.441 319.08 523.432Z" fill="black"/>
<path d="M645.92 223.712L645.56 222.812C580.47 258.062 423 339.102 421 340.112C420.8 340.214 420.64 340.381 420.547 340.585C420.453 340.79 420.431 341.02 420.484 341.238C420.537 341.457 420.663 341.651 420.84 341.789C421.017 341.928 421.235 342.003 421.46 342.002C421.619 341.998 421.776 341.961 421.92 341.892C430.14 337.662 593.09 253.792 652.8 221.122C648.89 222.722 645.92 223.712 645.92 223.712Z" fill="black"/>
<path d="M672.14 183.542C664.23 171.732 647.96 163.312 626.03 175.122C587.47 195.882 383.09 305.022 381.03 306.122C380.905 306.178 380.793 306.259 380.7 306.36C380.608 306.462 380.538 306.581 380.493 306.711C380.449 306.84 380.432 306.978 380.443 307.115C380.454 307.251 380.493 307.384 380.557 307.505C380.622 307.626 380.711 307.732 380.818 307.818C380.926 307.903 381.049 307.965 381.182 308C381.314 308.035 381.453 308.043 381.588 308.023C381.724 308.002 381.854 307.954 381.97 307.882C384.03 306.782 588.42 197.642 626.97 176.882C653.09 162.822 666.88 179.282 670.48 184.662C676.23 193.252 677.32 203.582 672.87 207.232L672.7 207.352C672.524 208.741 671.857 210.021 670.82 210.962C671.967 210.3 673.072 209.569 674.13 208.772C679.44 204.432 678.55 193.112 672.14 183.542Z" fill="black"/>
<path d="M646.54 205.662C644.41 203.002 643 200.342 643 199.002C643 195.652 649.39 194.252 651.85 194.002C652.115 193.975 652.359 193.844 652.528 193.638C652.697 193.432 652.777 193.167 652.75 192.902C652.723 192.636 652.593 192.393 652.386 192.224C652.18 192.055 651.915 191.975 651.65 192.002C651.21 192.002 641 193.152 641 199.002C641 200.802 642.36 203.482 644.4 206.202C645.07 206.002 645.78 205.852 646.54 205.662Z" fill="black"/>
<path d="M645.92 224.712C645.687 224.707 645.462 224.62 645.286 224.468C645.109 224.315 644.992 224.105 644.954 223.875C644.916 223.644 644.96 223.408 645.078 223.206C645.196 223.005 645.38 222.851 645.6 222.772C651.93 220.652 668.89 213.942 671.43 208.432C671.597 208.129 671.697 207.793 671.721 207.447C671.745 207.102 671.694 206.755 671.57 206.432C669.57 201.432 651 205.052 639.78 208.432C639.527 208.51 639.253 208.484 639.018 208.36C638.784 208.237 638.608 208.025 638.53 207.772C638.452 207.518 638.478 207.244 638.601 207.01C638.725 206.776 638.937 206.6 639.19 206.522C642.34 205.522 670.08 197.332 673.42 205.632C673.646 206.203 673.748 206.816 673.718 207.43C673.689 208.044 673.529 208.644 673.25 209.192C669.83 216.602 647.25 224.262 646.25 224.582C646.15 224.647 646.038 224.691 645.92 224.712Z" fill="black"/>
<path d="M365.5 341.002C365.5 341.002 355.5 331.002 371.01 318.502L365.5 341.002Z" fill="#ED5564"/>
<path d="M385.5 334.002L369 318.502C369 318.502 389.5 321.002 385.5 334.002Z" fill="#ED5564"/>
<path d="M629.08 234.462C628.907 234.463 628.737 234.419 628.587 234.335C628.436 234.251 628.31 234.129 628.22 233.982L601.64 189.512C601.558 189.398 601.5 189.269 601.471 189.132C601.442 188.996 601.441 188.854 601.47 188.717C601.499 188.58 601.556 188.451 601.638 188.338C601.72 188.224 601.825 188.129 601.946 188.059C602.067 187.989 602.201 187.944 602.341 187.929C602.48 187.914 602.62 187.928 602.754 187.971C602.887 188.014 603.01 188.084 603.114 188.177C603.219 188.27 603.302 188.384 603.36 188.512L629.93 233.002C630.066 233.229 630.107 233.5 630.043 233.757C629.979 234.014 629.816 234.235 629.59 234.372C629.431 234.446 629.255 234.477 629.08 234.462Z" fill="black"/>
<path d="M375.5 227.002C375.301 227.003 375.107 226.945 374.941 226.835C374.776 226.725 374.647 226.569 374.571 226.385C374.494 226.202 374.475 226 374.514 225.805C374.553 225.61 374.649 225.431 374.79 225.292C376.03 224.052 379.14 222.232 382.05 224.172C382.173 224.237 382.28 224.328 382.366 224.438C382.451 224.547 382.513 224.674 382.547 224.809C382.581 224.944 382.586 225.084 382.563 225.221C382.54 225.358 382.488 225.489 382.411 225.605C382.334 225.721 382.234 225.82 382.117 225.895C381.999 225.97 381.868 226.02 381.73 226.041C381.593 226.062 381.453 226.055 381.318 226.019C381.184 225.983 381.058 225.919 380.95 225.832C378.67 224.322 376.3 226.612 376.2 226.712C376.014 226.896 375.762 227.001 375.5 227.002Z" fill="#201000"/>
<path d="M263.3 481.312C263.112 481.313 262.927 481.26 262.767 481.161C262.607 481.062 262.478 480.919 262.396 480.75C262.313 480.581 262.28 480.392 262.3 480.204C262.321 480.017 262.393 479.839 262.51 479.692L293.9 439.382C294.063 439.172 294.303 439.036 294.566 439.003C294.83 438.97 295.095 439.043 295.305 439.207C295.515 439.37 295.651 439.609 295.683 439.873C295.716 440.136 295.643 440.402 295.48 440.612L264.09 480.922C263.997 481.043 263.877 481.141 263.74 481.208C263.603 481.276 263.453 481.311 263.3 481.312Z" fill="black"/>
<path d="M661.5 157.002C661.324 157.002 661.151 156.957 660.999 156.869C660.846 156.782 660.719 156.656 660.631 156.503C660.543 156.351 660.496 156.179 660.496 156.003C660.496 155.827 660.542 155.654 660.63 155.502L668.63 141.502C668.696 141.387 668.783 141.287 668.888 141.207C668.992 141.126 669.111 141.067 669.238 141.033C669.366 140.999 669.498 140.99 669.629 141.007C669.76 141.023 669.886 141.066 670 141.132C670.114 141.197 670.214 141.285 670.295 141.389C670.375 141.494 670.434 141.613 670.469 141.74C670.503 141.867 670.512 142 670.495 142.131C670.478 142.261 670.436 142.387 670.37 142.502L662.37 156.502C662.282 156.654 662.155 156.781 662.002 156.869C661.849 156.956 661.676 157.002 661.5 157.002Z" fill="black"/>
<path d="M645.5 154.002C645.272 154.008 645.048 153.936 644.866 153.798C644.684 153.66 644.555 153.464 644.5 153.242L640.5 137.242C640.448 136.988 640.495 136.725 640.633 136.506C640.771 136.287 640.988 136.131 641.239 136.068C641.49 136.006 641.755 136.044 641.979 136.173C642.203 136.302 642.368 136.513 642.44 136.762L646.44 152.762C646.503 153.019 646.462 153.291 646.325 153.518C646.188 153.745 645.967 153.908 645.71 153.972L645.5 154.002Z" fill="black"/>
<path d="M520.21 405.502C514.926 405.493 509.705 406.654 504.923 408.902C500.141 411.149 495.915 414.428 492.55 418.502C489.887 416.059 486.651 414.327 483.141 413.468C479.631 412.608 475.961 412.648 472.471 413.585C468.981 414.521 465.784 416.323 463.175 418.824C460.567 421.325 458.632 424.444 457.55 427.892C453.253 425.986 448.518 425.288 443.854 425.873C439.19 426.458 434.773 428.304 431.08 431.212C422.66 437.872 427.5 451.472 438.25 451.472H535.25C561.08 449.472 553.72 428.342 553.72 428.342C551.086 421.601 546.477 415.814 540.498 411.739C534.518 407.663 527.447 405.489 520.21 405.502Z" fill="#CB93EE"/>
<path d="M432.55 128.502C432.44 128.516 432.329 128.516 432.22 128.502C431.903 128.431 431.617 128.259 431.406 128.012C431.195 127.765 431.07 127.456 431.05 127.132C430.82 123.442 424.27 122.022 424.21 122.012C423.836 121.919 423.511 121.686 423.304 121.361C423.097 121.036 423.023 120.643 423.098 120.265C423.172 119.887 423.39 119.552 423.705 119.329C424.02 119.107 424.409 119.015 424.79 119.072C425.09 119.132 430.65 120.282 433.01 123.872C434.166 122.477 435.592 121.33 437.202 120.5C438.812 119.67 440.573 119.174 442.38 119.042C442.577 119.032 442.774 119.062 442.959 119.129C443.145 119.196 443.315 119.299 443.461 119.431C443.607 119.564 443.725 119.724 443.809 119.903C443.893 120.081 443.941 120.275 443.95 120.472C443.959 120.669 443.929 120.865 443.863 121.051C443.796 121.237 443.693 121.407 443.56 121.553C443.427 121.699 443.267 121.817 443.089 121.901C442.91 121.985 442.717 122.032 442.52 122.042C436.97 122.302 433.89 127.712 433.86 127.772C433.724 127.997 433.532 128.183 433.302 128.311C433.072 128.439 432.813 128.505 432.55 128.502Z" fill="black"/>
<path d="M394.5 86.5016C394.39 86.5163 394.28 86.5163 394.17 86.5016C393.846 86.4305 393.555 86.2532 393.343 85.9977C393.131 85.7423 393.01 85.4234 393 85.0916C392.58 78.3416 381.32 75.9916 381.2 75.9716C380.82 75.8833 380.49 75.6506 380.279 75.3228C380.067 74.9949 379.992 74.5978 380.069 74.2155C380.146 73.8331 380.368 73.4957 380.69 73.2747C381.011 73.0538 381.406 72.9666 381.79 73.0316C382.27 73.1316 392.04 75.1516 395.1 81.4916C397.67 78.2716 402.79 73.3716 410.43 73.0016C410.627 72.9924 410.824 73.0221 411.009 73.089C411.195 73.1559 411.365 73.2587 411.511 73.3915C411.657 73.5243 411.775 73.6845 411.859 73.8629C411.943 74.0414 411.991 74.2346 412 74.4316C412.009 74.6286 411.979 74.8255 411.913 75.011C411.846 75.1965 411.743 75.367 411.61 75.5128C411.477 75.6586 411.317 75.7768 411.139 75.8607C410.96 75.9445 410.767 75.9924 410.57 76.0016C401.06 76.4516 395.86 85.6316 395.81 85.7316C395.68 85.965 395.49 86.1594 395.26 86.2948C395.029 86.4302 394.767 86.5016 394.5 86.5016Z" fill="black"/>
<path d="M106.39 251.262L96.24 238.892L108.61 228.742L118.76 241.112L106.39 251.262ZM100.46 239.312L106.81 247.042L114.54 240.692L108.19 233.002L100.46 239.312Z" fill="#FCCE54"/>
<path d="M589.66 369.812L571.6 347.812L593.6 329.752L611.66 351.752L589.66 369.812ZM575.82 348.222L590.08 365.592L607.45 351.332L593.19 334.002L575.82 348.222Z" fill="#FCCE54"/>
<path d="M171 291.502C170.011 291.502 169.044 291.208 168.222 290.659C167.4 290.11 166.759 289.329 166.381 288.415C166.002 287.501 165.903 286.496 166.096 285.526C166.289 284.556 166.765 283.665 167.464 282.966C168.164 282.267 169.055 281.791 170.025 281.598C170.994 281.405 172 281.504 172.913 281.882C173.827 282.261 174.608 282.902 175.157 283.724C175.707 284.546 176 285.513 176 286.502C176 287.828 175.473 289.099 174.536 290.037C173.598 290.975 172.326 291.502 171 291.502ZM171 284.502C170.604 284.502 170.218 284.619 169.889 284.839C169.56 285.058 169.304 285.371 169.152 285.736C169.001 286.102 168.961 286.504 169.038 286.892C169.116 287.28 169.306 287.636 169.586 287.916C169.865 288.196 170.222 288.386 170.61 288.463C170.998 288.54 171.4 288.501 171.765 288.349C172.131 288.198 172.443 287.942 172.663 287.613C172.883 287.284 173 286.897 173 286.502C173 285.971 172.789 285.463 172.414 285.087C172.039 284.712 171.53 284.502 171 284.502Z" fill="#CB93EE"/>
<path d="M97.5 486.002C96.5111 486.002 95.5444 485.708 94.7221 485.159C93.8999 484.61 93.259 483.829 92.8806 482.915C92.5022 482.001 92.4032 480.996 92.5961 480.026C92.789 479.056 93.2652 478.165 93.9645 477.466C94.6637 476.767 95.5546 476.291 96.5246 476.098C97.4945 475.905 98.4998 476.004 99.4134 476.382C100.327 476.761 101.108 477.402 101.657 478.224C102.207 479.046 102.5 480.013 102.5 481.002C102.5 482.328 101.973 483.599 101.036 484.537C100.098 485.475 98.8261 486.002 97.5 486.002ZM97.5 479.002C97.1044 479.002 96.7178 479.119 96.3889 479.339C96.06 479.558 95.8036 479.871 95.6522 480.236C95.5009 480.602 95.4613 481.004 95.5384 481.392C95.6156 481.78 95.8061 482.136 96.0858 482.416C96.3655 482.696 96.7219 482.886 97.1098 482.963C97.4978 483.04 97.8999 483.001 98.2654 482.849C98.6308 482.698 98.9432 482.442 99.1629 482.113C99.3827 481.784 99.5 481.397 99.5 481.002C99.5 480.471 99.2893 479.963 98.9142 479.587C98.5391 479.212 98.0304 479.002 97.5 479.002Z" fill="#CB93EE"/>
<path d="M97.5 486.002C96.5111 486.002 95.5444 485.708 94.7221 485.159C93.8999 484.61 93.259 483.829 92.8806 482.915C92.5022 482.001 92.4032 480.996 92.5961 480.026C92.789 479.056 93.2652 478.165 93.9645 477.466C94.6637 476.767 95.5546 476.291 96.5246 476.098C97.4945 475.905 98.4998 476.004 99.4134 476.382C100.327 476.761 101.108 477.402 101.657 478.224C102.207 479.046 102.5 480.013 102.5 481.002C102.5 482.328 101.973 483.599 101.036 484.537C100.098 485.475 98.8261 486.002 97.5 486.002ZM97.5 479.002C97.1044 479.002 96.7178 479.119 96.3889 479.339C96.06 479.558 95.8036 479.871 95.6522 480.236C95.5009 480.602 95.4613 481.004 95.5384 481.392C95.6156 481.78 95.8061 482.136 96.0858 482.416C96.3655 482.696 96.7219 482.886 97.1098 482.963C97.4978 483.04 97.8999 483.001 98.2654 482.849C98.6308 482.698 98.9432 482.442 99.1629 482.113C99.3827 481.784 99.5 481.397 99.5 481.002C99.5 480.471 99.2893 479.963 98.9142 479.587C98.5391 479.212 98.0304 479.002 97.5 479.002Z" fill="#CB93EE"/>
<path d="M36.5 303.502C33.6322 303.502 30.8288 302.651 28.4442 301.058C26.0597 299.465 24.2012 297.2 23.1038 294.551C22.0063 291.901 21.7191 288.986 22.2786 286.173C22.8381 283.36 24.2191 280.776 26.247 278.749C28.2748 276.721 30.8585 275.34 33.6712 274.78C36.4839 274.221 39.3994 274.508 42.0489 275.605C44.6984 276.703 46.963 278.561 48.5563 280.946C50.1496 283.33 51 286.134 51 289.002C50.9974 292.846 49.4688 296.533 46.7501 299.252C44.0314 301.97 40.3448 303.499 36.5 303.502ZM36.5 277.502C34.2255 277.502 32.0021 278.176 30.1109 279.44C28.2198 280.703 26.7458 282.499 25.8754 284.601C25.005 286.702 24.7772 289.014 25.221 291.245C25.6647 293.476 26.76 295.525 28.3683 297.133C29.9766 298.742 32.0257 299.837 34.2565 300.281C36.4872 300.724 38.7995 300.497 40.9009 299.626C43.0022 298.756 44.7983 297.282 46.0619 295.391C47.3255 293.5 48 291.276 48 289.002C47.9974 285.952 46.7849 283.029 44.6288 280.873C42.4727 278.717 39.5492 277.504 36.5 277.502Z" fill="#CB93EE"/>
<path d="M180 608.502C179.735 608.54 179.465 608.472 179.25 608.311C179.036 608.151 178.893 607.912 178.855 607.647C178.817 607.381 178.885 607.112 179.045 606.897C179.206 606.682 179.445 606.54 179.71 606.502L278.71 576.502C278.965 576.425 279.239 576.452 279.474 576.578C279.708 576.703 279.883 576.917 279.96 577.172C280.037 577.426 280.01 577.701 279.884 577.935C279.758 578.17 279.545 578.345 279.29 578.422L180.29 608.422C180.198 608.463 180.1 608.49 180 608.502Z" fill="black"/>
<path d="M163 626.502C162.735 626.54 162.465 626.472 162.25 626.311C162.036 626.151 161.893 625.912 161.855 625.647C161.817 625.381 161.885 625.112 162.045 624.897C162.206 624.682 162.445 624.54 162.71 624.502L201.71 612.502C201.965 612.425 202.239 612.452 202.474 612.578C202.708 612.703 202.883 612.917 202.96 613.172C203.037 613.426 203.01 613.701 202.884 613.935C202.758 614.17 202.545 614.345 202.29 614.422L163.29 626.422C163.198 626.464 163.1 626.491 163 626.502Z" fill="black"/>
<path d="M115.54 502.086L60.5354 519.081L61.4211 521.947L116.425 504.952L115.54 502.086Z" fill="#ED5564"/>
</svg>
