<svg width="700" height="700" viewBox="0 0 700 700" fill="none" xmlns="http://www.w3.org/2000/svg">
<rect width="700" height="700" fill="white"/>
<path d="M593.95 108.62H127.69C108.255 108.62 92.5 124.375 92.5 143.81V376.2C92.5 395.635 108.255 411.39 127.69 411.39H593.95C613.385 411.39 629.14 395.635 629.14 376.2V143.81C629.14 124.375 613.385 108.62 593.95 108.62Z" fill="#FCE054"/>
<path d="M571.02 151H512.98C503.878 151 496.5 158.378 496.5 167.48V213.52C496.5 222.622 503.878 230 512.98 230H571.02C580.122 230 587.5 222.622 587.5 213.52V167.48C587.5 158.378 580.122 151 571.02 151Z" fill="white"/>
<path d="M389.69 317.5H137.5C137.102 317.5 136.721 317.342 136.439 317.061C136.158 316.779 136 316.398 136 316C136 315.602 136.158 315.221 136.439 314.939C136.721 314.658 137.102 314.5 137.5 314.5H389.69C390.088 314.5 390.469 314.658 390.751 314.939C391.032 315.221 391.19 315.602 391.19 316C391.19 316.398 391.032 316.779 390.751 317.061C390.469 317.342 390.088 317.5 389.69 317.5Z" fill="white"/>
<path d="M390.5 341H138.31C137.912 341 137.531 340.842 137.249 340.561C136.968 340.279 136.81 339.898 136.81 339.5C136.81 339.102 136.968 338.721 137.249 338.439C137.531 338.158 137.912 338 138.31 338H390.5C390.898 338 391.279 338.158 391.561 338.439C391.842 338.721 392 339.102 392 339.5C392 339.898 391.842 340.279 391.561 340.561C391.279 340.842 390.898 341 390.5 341Z" fill="white"/>
<path d="M309.67 373H138.31C137.912 373 137.531 372.842 137.249 372.561C136.968 372.279 136.81 371.898 136.81 371.5C136.81 371.102 136.968 370.721 137.249 370.439C137.531 370.158 137.912 370 138.31 370H309.67C310.068 370 310.449 370.158 310.731 370.439C311.012 370.721 311.17 371.102 311.17 371.5C311.17 371.898 311.012 372.279 310.731 372.561C310.449 372.842 310.068 373 309.67 373Z" fill="white"/>
<path d="M542.5 218.5C542.112 218.499 541.73 218.409 541.383 218.235C541.036 218.062 540.733 217.81 540.5 217.5L510.5 176.5C510.303 176.237 510.16 175.938 510.078 175.62C509.997 175.302 509.979 174.972 510.025 174.647C510.072 174.322 510.182 174.009 510.349 173.726C510.516 173.444 510.737 173.197 511 173C511.263 172.803 511.562 172.66 511.88 172.578C512.198 172.497 512.529 172.479 512.854 172.525C513.179 172.572 513.491 172.682 513.774 172.849C514.056 173.016 514.303 173.237 514.5 173.5L541.14 209.92C544.46 195.45 556.04 157.04 589.05 133.92C589.319 133.724 589.624 133.584 589.948 133.508C590.271 133.431 590.607 133.42 590.935 133.475C591.263 133.53 591.577 133.65 591.858 133.828C592.139 134.006 592.382 134.238 592.572 134.511C592.763 134.783 592.897 135.091 592.966 135.417C593.036 135.742 593.04 136.078 592.979 136.404C592.917 136.731 592.79 137.042 592.607 137.32C592.423 137.597 592.187 137.835 591.91 138.02C553.24 165.09 545.03 215.84 544.91 216.35C544.827 216.831 544.605 217.277 544.271 217.632C543.936 217.988 543.505 218.238 543.03 218.35C542.86 218.421 542.682 218.471 542.5 218.5Z" fill="#47CEC0"/>
<path d="M222.69 272.35C202.23 272.15 175.92 270.86 153.85 262.52C132.03 254.28 116.73 240.2 107.08 219.52C107.029 219.403 106.999 219.277 106.99 219.15C106.07 200.94 110.36 179 119.06 157.39C129.9 130.47 146.73 105.39 169.06 82.74C169.162 82.6385 169.284 82.56 169.419 82.51C169.553 82.46 169.697 82.4394 169.84 82.4499C169.983 82.4603 170.123 82.5013 170.249 82.5703C170.375 82.6393 170.484 82.7349 170.57 82.8501C194.19 114.85 241.01 136.19 284.45 134.71C284.653 134.704 284.853 134.761 285.023 134.872C285.193 134.982 285.325 135.142 285.402 135.33C285.479 135.518 285.497 135.724 285.454 135.923C285.411 136.121 285.308 136.301 285.16 136.44C240.27 178.34 220.16 222.44 223.66 271.3C223.674 271.436 223.658 271.574 223.613 271.704C223.568 271.833 223.495 271.952 223.4 272.05C223.307 272.145 223.197 272.22 223.075 272.271C222.953 272.323 222.822 272.35 222.69 272.35ZM108.97 218.84C129.66 263 175.24 269.84 221.62 270.34C218.48 221.98 238.21 178.25 281.91 136.76C239 137.35 193.41 116.32 169.69 84.9599C122.5 133.16 107.44 187.08 108.97 218.84Z" fill="black"/>
<path d="M201.44 206.5C186.7 206.5 161.44 202.04 140.56 175.71C140.478 175.607 140.416 175.489 140.38 175.362C140.343 175.235 140.332 175.103 140.347 174.972C140.362 174.841 140.402 174.714 140.466 174.599C140.53 174.483 140.617 174.382 140.72 174.3C140.823 174.218 140.941 174.156 141.068 174.12C141.195 174.083 141.327 174.072 141.458 174.087C141.589 174.102 141.716 174.142 141.832 174.206C141.947 174.27 142.048 174.357 142.13 174.46C172.72 213.09 212.88 203.46 213.28 203.39C213.407 203.358 213.54 203.351 213.67 203.37C213.8 203.389 213.925 203.434 214.038 203.501C214.15 203.568 214.249 203.657 214.327 203.762C214.406 203.868 214.463 203.988 214.495 204.115C214.527 204.242 214.534 204.375 214.515 204.505C214.496 204.635 214.451 204.76 214.384 204.873C214.317 204.985 214.228 205.084 214.123 205.162C214.017 205.241 213.897 205.298 213.77 205.33C209.715 206.169 205.58 206.561 201.44 206.5Z" fill="black"/>
<path d="M205.5 175.81C192.69 175.81 170.4 172.54 154.92 152.32C154.773 152.108 154.714 151.848 154.754 151.594C154.795 151.339 154.931 151.11 155.136 150.954C155.341 150.798 155.598 150.728 155.854 150.757C156.11 150.786 156.345 150.912 156.51 151.11C178.51 179.85 214.83 173.17 215.19 173.11C215.321 173.085 215.457 173.085 215.588 173.112C215.719 173.138 215.843 173.19 215.954 173.265C216.065 173.34 216.161 173.436 216.234 173.547C216.308 173.659 216.36 173.784 216.385 173.915C216.411 174.046 216.41 174.181 216.384 174.313C216.357 174.444 216.305 174.568 216.23 174.679C216.155 174.79 216.059 174.885 215.948 174.959C215.836 175.033 215.712 175.085 215.58 175.11C212.245 175.622 208.874 175.856 205.5 175.81Z" fill="black"/>
<path d="M182.16 257.6C181.993 257.599 181.828 257.572 181.67 257.52C181.413 257.433 181.185 257.279 181.009 257.073C180.833 256.867 180.715 256.617 180.67 256.35L177.96 240.49C177.927 240.293 177.932 240.091 177.977 239.896C178.021 239.702 178.103 239.518 178.219 239.355C178.335 239.192 178.481 239.053 178.65 238.947C178.82 238.84 179.008 238.769 179.205 238.735C179.402 238.702 179.604 238.707 179.798 238.752C179.993 238.796 180.177 238.878 180.34 238.994C180.503 239.11 180.642 239.256 180.748 239.425C180.855 239.594 180.927 239.783 180.96 239.98L183.2 253.14L209.67 229.01C209.97 228.785 210.343 228.68 210.716 228.716C211.089 228.753 211.434 228.927 211.685 229.206C211.936 229.484 212.073 229.846 212.071 230.221C212.068 230.595 211.925 230.955 211.67 231.23L183.18 257.23C182.896 257.473 182.534 257.605 182.16 257.6Z" fill="#47CEC0"/>
<path d="M595.5 364.12C595.277 364.129 595.057 364.063 594.876 363.932C594.695 363.802 594.562 363.614 594.5 363.4C587.92 340.9 566.33 319.63 542 311.67C541.808 311.605 541.64 311.484 541.518 311.321C541.397 311.159 541.328 310.963 541.32 310.76C541.304 310.55 541.354 310.341 541.463 310.161C541.573 309.982 541.736 309.841 541.93 309.76C575.29 295.65 595.37 275.3 603.32 247.55C603.359 247.416 603.425 247.292 603.515 247.185C603.604 247.078 603.715 246.991 603.84 246.93C603.966 246.875 604.103 246.846 604.24 246.846C604.378 246.846 604.514 246.875 604.64 246.93C631.06 256.93 655.86 270.23 658.43 300.18C658.438 300.309 658.421 300.438 658.38 300.56C652.38 319.82 632.86 346.61 595.89 364.02C595.768 364.078 595.635 364.112 595.5 364.12ZM545.12 310.62C568.62 319.21 589.23 339.8 596.12 361.71C631.75 344.6 650.86 317.98 656.46 300.16C654.07 273.36 634.19 260.32 604.98 249.16C596.88 276.36 577.28 296.5 545.15 310.62H545.12Z" fill="black"/>
<path d="M641.5 307.35C641.289 307.35 641.083 307.283 640.913 307.159C640.742 307.035 640.615 306.86 640.55 306.66C631.5 279.26 607.46 276.4 607.22 276.38C607.089 276.366 606.962 276.327 606.847 276.264C606.731 276.201 606.629 276.117 606.547 276.014C606.464 275.912 606.402 275.795 606.365 275.669C606.328 275.543 606.316 275.411 606.33 275.28C606.344 275.149 606.383 275.023 606.446 274.907C606.508 274.792 606.593 274.69 606.695 274.607C606.797 274.524 606.915 274.462 607.041 274.425C607.167 274.388 607.299 274.376 607.43 274.39C607.68 274.39 632.98 277.39 642.43 306.03C642.472 306.155 642.489 306.288 642.479 306.42C642.47 306.552 642.434 306.68 642.375 306.799C642.315 306.917 642.233 307.022 642.133 307.108C642.032 307.194 641.916 307.259 641.79 307.3C641.696 307.329 641.598 307.346 641.5 307.35Z" fill="black"/>
<path d="M632.37 316.59C632.15 316.6 631.932 316.537 631.751 316.41C631.57 316.284 631.436 316.101 631.37 315.89C625.07 295.68 603.76 292.03 603.54 292C603.409 291.979 603.283 291.932 603.17 291.863C603.056 291.793 602.958 291.702 602.88 291.594C602.802 291.486 602.746 291.364 602.715 291.235C602.684 291.106 602.679 290.971 602.7 290.84C602.721 290.709 602.768 290.583 602.838 290.47C602.907 290.356 602.998 290.258 603.106 290.18C603.214 290.102 603.336 290.046 603.465 290.015C603.595 289.984 603.729 289.979 603.86 290C604.09 290 626.6 293.86 633.28 315.27C633.358 315.522 633.334 315.795 633.213 316.029C633.091 316.263 632.881 316.44 632.63 316.52C632.547 316.555 632.46 316.579 632.37 316.59Z" fill="black"/>
<path d="M604.37 342.95C604.224 342.951 604.078 342.927 603.94 342.88C603.559 342.764 603.24 342.503 603.053 342.152C602.865 341.801 602.825 341.391 602.94 341.01L607.94 324.54C607.993 324.347 608.084 324.166 608.208 324.009C608.332 323.852 608.486 323.721 608.662 323.624C608.837 323.527 609.03 323.467 609.229 323.446C609.429 323.425 609.63 323.444 609.822 323.502C610.013 323.56 610.191 323.656 610.345 323.784C610.499 323.912 610.626 324.069 610.718 324.247C610.81 324.425 610.866 324.62 610.882 324.819C610.898 325.019 610.873 325.22 610.81 325.41L605.81 341.88C605.716 342.189 605.525 342.459 605.266 342.652C605.007 342.845 604.693 342.949 604.37 342.95Z" fill="#ED5564"/>
<path d="M618.5 338.31C618.354 338.31 618.21 338.29 618.07 338.25L595.36 331.61C594.978 331.499 594.656 331.24 594.465 330.891C594.273 330.542 594.228 330.132 594.34 329.75C594.451 329.368 594.71 329.046 595.058 328.855C595.407 328.663 595.818 328.619 596.2 328.73L618.92 335.37C619.266 335.471 619.565 335.694 619.761 335.997C619.956 336.301 620.036 336.665 619.985 337.022C619.934 337.38 619.756 337.706 619.483 337.943C619.21 338.18 618.861 338.31 618.5 338.31Z" fill="#ED5564"/>
<path d="M515.5 628C535.5 633 538.5 638 559.5 621C580.5 604 575.5 508 573.5 429C571.5 350 522.5 354 489.5 352C456.5 350 333.5 358 298.5 372C263.5 386 253.5 477 253.5 477C247.5 526 243.5 557 243.5 557L110.5 471L166.5 631" fill="white"/>
<path d="M532.56 633.27C518.69 633.27 502.3 625.27 477.44 608.33C453.23 591.82 425.57 571.15 392.88 545.12C392.672 544.956 392.538 544.715 392.507 544.452C392.476 544.188 392.551 543.923 392.715 543.715C392.879 543.507 393.12 543.372 393.383 543.342C393.647 543.311 393.912 543.386 394.12 543.55C426.78 569.55 454.4 590.2 478.56 606.67C523.92 637.6 539.39 636 558.87 620.22C577.47 605.16 575.17 523.86 573.13 452.12C572.91 444.32 572.69 436.6 572.5 429.03C570.67 356.74 529.79 354.88 496.94 353.38C494.37 353.26 491.86 353.14 489.44 353C456.16 351 333.98 358.88 298.87 372.93C264.87 386.55 254.59 476.21 254.49 477.11C248.56 525.56 244.49 556.82 244.49 557.11C244.468 557.277 244.404 557.435 244.304 557.57C244.204 557.706 244.072 557.814 243.92 557.885C243.767 557.956 243.599 557.987 243.432 557.975C243.264 557.964 243.102 557.911 242.96 557.82L111.82 473.02L126.49 569.83C126.51 569.961 126.503 570.095 126.471 570.224C126.439 570.353 126.382 570.474 126.303 570.581C126.224 570.688 126.125 570.778 126.011 570.846C125.897 570.915 125.771 570.96 125.64 570.98C125.509 571 125.375 570.993 125.246 570.961C125.117 570.929 124.996 570.872 124.889 570.793C124.782 570.714 124.692 570.615 124.623 570.501C124.555 570.387 124.51 570.261 124.49 570.13L109.49 471.13C109.459 470.939 109.484 470.743 109.562 470.566C109.64 470.389 109.768 470.239 109.93 470.133C110.092 470.027 110.281 469.97 110.475 469.97C110.668 469.969 110.858 470.025 111.02 470.13L242.69 555.27C243.58 548.36 247.31 519.16 252.49 476.85C252.9 473.12 262.96 385.1 298.11 371.04C333.43 356.91 456.11 348.94 489.54 350.97C491.95 351.12 494.45 351.23 497.01 351.35C513.49 352.1 532.17 352.95 547.24 362.93C564.74 374.5 573.65 396.09 574.48 428.93C574.67 436.5 574.89 444.23 575.11 452.02C577.26 527.75 579.48 606.02 560.11 621.74C550.81 629.32 542.3 633.27 532.56 633.27Z" fill="black"/>
<path d="M313.411 425.555L309.431 610.942L311.43 610.985L315.411 425.598L313.411 425.555Z" fill="black"/>
<path d="M420.01 398.78L429.8 387L413.5 371L402.69 388.31L411.95 398.16L400.5 447L403.5 471.88L427.76 482L433.5 446L420.01 398.78Z" fill="#47CEC0"/>
<path d="M421.24 378.6L402.73 388.24L402.69 388.31L404.8 390.55L423.49 380.81L421.24 378.6Z" fill="white"/>
<path d="M400.5 447V447.01L429.47 431.91L428.63 428.96L401.4 443.16L400.5 447Z" fill="white"/>
<path d="M405.46 425.85L424.86 415.74L424.01 412.8L406.36 422L405.46 425.85Z" fill="white"/>
<path d="M429.46 471.35L430.05 467.66L413.75 476.16L417.35 477.66L429.46 471.35Z" fill="white"/>
<path d="M432.69 451.09L433.28 447.41L402.48 463.46L402.87 466.64L432.69 451.09Z" fill="white"/>
<path d="M410.92 402.55L410.02 406.4L420.61 400.88L420.01 398.78L421.43 397.07L410.92 402.55Z" fill="white"/>
<path d="M353.28 425.95L267.69 526.86C267.324 527.292 266.804 527.563 266.241 527.616C265.677 527.67 265.116 527.501 264.675 527.147C264.234 526.792 263.949 526.279 263.881 525.718C263.813 525.156 263.967 524.59 264.31 524.14L344.72 419.05C345.607 417.891 346.918 417.132 348.365 416.94C349.812 416.748 351.276 417.138 352.435 418.025C353.594 418.912 354.353 420.223 354.545 421.67C354.738 423.117 354.347 424.581 353.46 425.74C353.4 425.8 353.34 425.89 353.28 425.95Z" fill="black"/>
<path d="M281.17 520.1L259.17 533.81C258.923 533.963 258.626 534.012 258.343 533.946C258.06 533.88 257.814 533.706 257.66 533.46C257.54 533.267 257.483 533.041 257.495 532.814C257.508 532.587 257.59 532.369 257.73 532.19L273.73 511.9C274.649 510.738 275.992 509.989 277.463 509.818C278.191 509.733 278.929 509.792 279.635 509.992C280.341 510.193 281 510.53 281.575 510.985C282.15 511.44 282.63 512.004 282.987 512.644C283.345 513.285 283.572 513.99 283.657 514.718C283.742 515.446 283.683 516.185 283.483 516.89C283.282 517.596 282.945 518.255 282.49 518.83C282.119 519.32 281.674 519.748 281.17 520.1Z" fill="black"/>
<path d="M519 542.5C519 542.5 460 487.5 387 466.5C314 445.5 306 457.5 294 466.5C282 475.5 266 507.5 276 503.5C286 499.5 302 472.5 315 474.5C315 474.5 289.25 492.18 313.13 502.84C313.13 502.84 309 513.5 326 511.5C326 511.5 341.08 537.15 346.54 513.33" fill="white"/>
<path d="M518.32 543.23C517.73 542.68 458.65 488.15 386.72 467.46C319.19 448.03 307.93 456.87 297.04 465.46C296.23 466.09 295.42 466.72 294.6 467.34C284.12 475.2 271.98 498.99 274.05 502.66C274.27 503.06 275.05 502.85 275.63 502.66C279.35 501.17 284.17 496.09 289.27 490.72C297.46 482.09 306.73 472.31 315.15 473.6L317.64 473.99L315.57 475.41C315.44 475.5 303.26 483.98 304.01 492.21C304.37 496.05 307.57 499.35 313.53 502.02L314.4 502.4L314.06 503.29C314.06 503.29 312.94 506.29 314.6 508.42C316.26 510.55 320.14 511.27 325.88 510.6L326.53 510.52L326.86 511.08C328.86 514.51 335.15 523.24 339.78 522.51C342.26 522.13 344.25 518.91 345.56 513.19L347.56 513.64C346.03 520.31 343.56 523.96 340.14 524.49C333.87 525.49 327.22 515.4 325.52 512.65C319.3 513.29 315.11 512.28 313.06 509.65C312.436 508.767 312.015 507.757 311.828 506.691C311.641 505.626 311.693 504.533 311.98 503.49C305.81 500.56 302.48 496.83 302.07 492.39C301.44 485.39 308.26 478.77 312.07 475.63C305.31 476.78 297.65 484.87 290.78 492.1C285.52 497.64 280.56 502.88 276.43 504.53C273.87 505.53 272.79 504.45 272.37 503.7C269.37 498.33 283.15 473.53 293.46 465.8C294.27 465.19 295.06 464.57 295.86 463.94C307.14 455.09 318.81 445.94 387.34 465.64C459.73 486.46 519.15 541.32 519.74 541.87L518.32 543.23Z" fill="black"/>
<path d="M504 440.5H502V529.5H504V440.5Z" fill="black"/>
<path d="M326.98 511.72L324.98 511.28C329.08 492.84 346.61 489.55 346.79 489.52L347.13 491.52C346.5 491.6 330.78 494.61 326.98 511.72Z" fill="black"/>
<path d="M313.99 502.6L311.99 502.4C313.99 482.97 333.48 476.61 333.68 476.55L334.28 478.45C334.12 478.5 315.9 484.5 313.99 502.6Z" fill="black"/>
<path d="M312.67 477.6L311.33 476.12C315.33 472.44 322.24 468.77 322.53 468.62L323.47 470.38C323.4 470.42 316.5 474.09 312.67 477.6Z" fill="black"/>
<path d="M41 381.5L101 587.5L176 642.5L129 454.5L41 381.5Z" fill="#ED5564"/>
<path d="M65.5 512C64.7237 515.11 64.8785 518.379 65.9453 521.402C67.0121 524.424 68.9437 527.066 71.5 529C80.5 536 96.5 541 96.5 534C96.5 527 65.5 512 65.5 512Z" fill="white"/>
<path d="M67.04 515C69.92 516.46 74.98 519.11 80.04 522.1C94.13 530.52 94.54 533.67 94.54 534C94.54 534.48 94.5399 535.37 91.8999 535.37C86.9899 535.37 78.4 531.8 72.77 527.42C70.8489 526 69.3193 524.115 68.3242 521.943C67.3291 519.771 66.9012 517.382 67.0801 515H67.04ZM65.54 512C64.7637 515.11 64.9186 518.379 65.9853 521.402C67.0521 524.424 68.9837 527.066 71.54 529C77.48 533.62 86.4799 537.37 91.8999 537.37C94.6899 537.37 96.54 536.37 96.54 534C96.54 527 65.54 512 65.54 512Z" fill="black"/>
<path d="M60.0601 497C59.1485 500.712 59.3299 504.608 60.5826 508.219C61.8353 511.829 64.1058 515.001 67.1202 517.35C77.6902 525.73 96.5001 531.72 96.5001 523.35C96.5001 514.98 60.0601 497 60.0601 497Z" fill="white"/>
<path d="M61.5601 500C64.8601 501.7 71.0901 505 77.2601 508.75C93.6701 518.75 94.5001 522.65 94.5001 523.34C94.5001 524.03 94.5001 525.34 91.0501 525.34C85.2101 525.34 75.0502 521.04 68.3602 515.75C65.9661 513.926 64.0825 511.516 62.8914 508.751C61.7003 505.987 61.2418 502.963 61.5601 499.97V500ZM60.0601 496.97C59.1485 500.682 59.3299 504.578 60.5826 508.188C61.8353 511.799 64.1058 514.971 67.1202 517.32C74.1202 522.85 84.6701 527.32 91.0501 527.32C94.3301 527.32 96.5001 526.13 96.5001 523.32C96.5001 514.94 60.0601 496.98 60.0601 496.98V496.97Z" fill="black"/>
<path d="M59.0802 480C59.0802 480 55.4602 494.34 66.3202 504.37C77.1802 514.4 96.5001 521.57 96.5001 511.54C96.5001 501.51 59.0802 480 59.0802 480Z" fill="white"/>
<path d="M60.6002 483.2C75.4502 492.03 94.5001 505.75 94.5001 511.54C94.5001 512.54 94.5 514.37 90.9 514.37C84.9 514.37 74.53 509.23 67.68 502.9C60.46 496.23 60.1802 487.55 60.6002 483.2ZM59.0802 480C59.0802 480 55.4602 494.34 66.3202 504.37C73.4902 511 84.32 516.37 90.9 516.37C94.27 516.37 96.5001 514.95 96.5001 511.54C96.5001 501.54 59.0802 480 59.0802 480Z" fill="black"/>
<path d="M60.9999 454.5C60.9999 454.5 49.9999 470.5 62.9999 483.5C75.9999 496.5 88.9999 504.5 91.9999 500.5C94.9999 496.5 90.9999 486.5 67.9999 469.5" fill="white"/>
<path d="M89.5802 502.5C84.2002 502.5 73.3401 495.23 62.2901 484.18C48.8601 470.74 60.06 454.07 60.18 453.9L61.8202 455.04C61.4002 455.66 51.4601 470.52 63.7101 482.76C74.4701 493.53 85.2402 500.81 89.8302 500.5C90.0911 500.504 90.3495 500.449 90.5865 500.34C90.8236 500.231 91.0331 500.071 91.2001 499.87C91.5066 499.412 91.7178 498.897 91.8209 498.356C91.924 497.815 91.9169 497.258 91.8002 496.72C91.2902 493.2 87.43 485.07 67.41 470.27L68.5902 468.67C88.1702 483.13 93.0901 491.75 93.7801 496.44C93.9335 497.239 93.9239 498.061 93.7521 498.857C93.5802 499.652 93.2497 500.405 92.7801 501.07C92.4434 501.502 92.0147 501.853 91.5252 502.099C91.0358 502.344 90.4976 502.478 89.9501 502.49L89.5802 502.5Z" fill="black"/>
<path d="M319 451.5C318.868 451.501 318.738 451.476 318.616 451.426C318.494 451.376 318.383 451.303 318.29 451.21C318.196 451.117 318.122 451.006 318.071 450.885C318.02 450.763 317.994 450.632 317.994 450.5C317.994 450.368 318.02 450.237 318.071 450.116C318.122 449.994 318.196 449.883 318.29 449.79C324.82 443.27 325.29 435.1 325.68 429.13C325.92 425.07 326.1 422.13 328 420.81C329.05 420.08 330.45 419.99 332.29 420.54C337.15 422 339.59 421.45 340.79 420.74C341.368 420.433 341.807 419.919 342.02 419.3C342.073 419.035 342.229 418.801 342.454 418.651C342.679 418.501 342.955 418.447 343.22 418.5C343.485 418.553 343.718 418.709 343.868 418.934C344.018 419.159 344.073 419.435 344.02 419.7C343.865 420.281 343.593 420.824 343.222 421.297C342.851 421.769 342.388 422.162 341.86 422.45C339.62 423.8 336.22 423.8 331.75 422.45C331.347 422.266 330.909 422.17 330.465 422.17C330.022 422.17 329.583 422.266 329.18 422.45C328.08 423.22 327.91 426.02 327.71 429.25C327.33 435.54 326.81 444.14 319.71 451.25C319.515 451.423 319.26 451.512 319 451.5Z" fill="black"/>
<path d="M211.36 614.04C169.19 614.04 139.59 460.23 137.58 449.54L57.8602 383.77C57.7591 383.686 57.6753 383.583 57.6141 383.467C57.5528 383.35 57.5151 383.223 57.503 383.092C57.4909 382.961 57.5048 382.829 57.5438 382.703C57.5827 382.578 57.646 382.461 57.7301 382.36C57.8141 382.259 57.9172 382.175 58.0335 382.114C58.1499 382.053 58.2771 382.015 58.408 382.003C58.539 381.991 58.6711 382.005 58.7967 382.044C58.9223 382.083 59.0388 382.146 59.14 382.23L139.14 448.23C139.319 448.381 139.439 448.59 139.48 448.82C139.79 450.46 170.27 612.04 211.34 612.04C211.7 612.04 212.06 612.04 212.43 612.04C212.561 612.031 212.693 612.047 212.818 612.089C212.943 612.13 213.059 612.196 213.158 612.283C213.258 612.369 213.339 612.474 213.398 612.592C213.456 612.71 213.491 612.839 213.5 612.97C213.51 613.101 213.493 613.233 213.451 613.358C213.41 613.483 213.344 613.599 213.257 613.698C213.171 613.798 213.066 613.879 212.948 613.938C212.83 613.996 212.702 614.031 212.57 614.04C212.17 614.03 211.76 614.04 211.36 614.04Z" fill="black"/>
<path d="M338.5 237.32C338.5 237.32 305.01 243.79 293.5 222C279.77 196.1 307.5 178 336.87 193.86C336.87 193.86 335.71 162.54 360.46 157.55C385.21 152.56 391.81 172.48 391.81 172.48C391.81 172.48 410.57 147.25 432.5 157C454.43 166.75 457.7 176.6 457.7 176.6C457.7 176.6 502.5 261 413.5 320C330.5 375.06 338.5 237.32 338.5 237.32Z" fill="#201000"/>
<path d="M435.5 352C435.5 352 437.5 291 437.88 264.88C437.88 264.88 472.88 248.77 465.26 225.51C457.64 202.25 434.61 200.51 426.01 214.6L417.41 228.66C417.41 228.66 392.15 239.25 379.41 213.39C379.41 213.39 326.22 210.39 330.58 253.85C334.94 297.31 346.69 331.14 361.35 337.56C376.01 343.98 390.54 337 390.54 337V356C390.54 356 407.5 394 435.5 352Z" fill="white"/>
<path d="M410.06 372.76C409.62 372.76 409.18 372.76 408.74 372.71C396.56 371.71 389.87 357.03 389.59 356.41C389.531 356.281 389.501 356.141 389.5 356V338.5C385.41 340.11 373.3 343.9 360.91 338.5C346.37 332.13 334.06 298.95 329.55 253.97C328.38 242.29 331.19 232.82 337.9 225.81C352.06 211.03 378.32 212.35 379.42 212.41C379.597 212.42 379.768 212.478 379.916 212.576C380.063 212.675 380.182 212.81 380.26 212.97C391.88 236.49 413.8 228.97 416.73 227.87L425.16 214.1C427.135 210.86 430.005 208.26 433.424 206.614C436.843 204.967 440.665 204.344 444.43 204.82C454.25 205.97 462.43 213.59 466.21 225.22C473.57 247.67 443.6 263.22 438.87 265.54C438.47 291.7 436.52 351.45 436.5 352.05C436.493 352.236 436.434 352.416 436.33 352.57C427.39 365.97 418.56 372.76 410.06 372.76ZM391.5 355.76C392.3 357.43 398.6 369.84 408.91 370.7C416.97 371.37 425.59 364.97 434.51 351.7C434.66 347.13 436.51 289.79 436.88 264.89C436.881 264.7 436.937 264.515 437.039 264.356C437.142 264.197 437.288 264.07 437.46 263.99C437.8 263.83 471.57 247.99 464.31 225.84C460.75 214.98 453.23 207.84 444.2 206.84C440.813 206.406 437.372 206.963 434.295 208.443C431.218 209.923 428.635 212.263 426.86 215.18L418.26 229.18C418.149 229.359 417.985 229.5 417.79 229.58C417.53 229.69 391.87 240.09 378.74 214.37C374.81 214.26 351.74 214.23 339.34 227.18C333.05 233.75 330.43 242.68 331.54 253.75C335.98 298.02 347.82 330.56 361.71 336.65C375.79 342.81 389.93 336.17 390.07 336.1C390.226 336.02 390.401 335.982 390.577 335.991C390.752 335.999 390.922 336.054 391.07 336.15C391.214 336.24 391.333 336.365 391.415 336.514C391.497 336.663 391.54 336.83 391.54 337L391.5 355.76Z" fill="black"/>
<path d="M362.56 288.89C359.865 288.947 357.252 287.958 355.27 286.13C346.44 278.04 349.38 254.85 349.51 253.87C349.527 253.739 349.57 253.612 349.636 253.497C349.702 253.383 349.79 253.282 349.895 253.201C350 253.12 350.119 253.061 350.247 253.026C350.375 252.992 350.508 252.983 350.64 253C350.771 253.017 350.898 253.06 351.013 253.126C351.127 253.192 351.228 253.28 351.309 253.385C351.39 253.49 351.449 253.61 351.484 253.737C351.518 253.865 351.527 253.999 351.51 254.13C351.51 254.36 348.58 277.27 356.64 284.66C358.92 286.75 361.82 287.37 365.51 286.55C365.762 286.509 366.02 286.566 366.232 286.71C366.443 286.853 366.592 287.072 366.647 287.322C366.702 287.571 366.659 287.833 366.528 288.052C366.396 288.271 366.186 288.431 365.94 288.5C364.831 288.753 363.698 288.884 362.56 288.89Z" fill="black"/>
<path d="M433.15 236.38C432.954 236.378 432.763 236.319 432.6 236.21C432.491 236.137 432.397 236.042 432.325 235.933C432.252 235.823 432.202 235.7 432.177 235.571C432.151 235.442 432.152 235.309 432.178 235.18C432.205 235.051 432.256 234.929 432.33 234.82C435.23 230.51 438.24 228.37 441.23 228.5C445.16 228.65 447.44 232.6 447.53 232.77C447.66 233 447.695 233.272 447.625 233.526C447.556 233.781 447.389 233.998 447.16 234.13C447.045 234.196 446.919 234.238 446.787 234.254C446.656 234.271 446.523 234.261 446.396 234.226C446.268 234.19 446.149 234.13 446.045 234.049C445.941 233.967 445.855 233.865 445.79 233.75C445.79 233.68 443.94 230.6 441.15 230.5C438.87 230.39 436.44 232.3 433.98 235.94C433.888 236.076 433.765 236.187 433.62 236.263C433.475 236.34 433.314 236.38 433.15 236.38Z" fill="black"/>
<path d="M363.99 238.36C363.814 238.361 363.64 238.315 363.488 238.227C363.335 238.139 363.208 238.013 363.12 237.86C362.99 237.631 362.955 237.359 363.025 237.104C363.094 236.849 363.261 236.632 363.49 236.5C366.319 234.933 369.625 234.459 372.78 235.17C372.907 235.205 373.025 235.264 373.129 235.345C373.233 235.425 373.32 235.526 373.385 235.64C373.45 235.754 373.492 235.88 373.508 236.011C373.524 236.141 373.515 236.273 373.48 236.4C373.41 236.654 373.242 236.87 373.014 237.001C372.785 237.132 372.514 237.168 372.26 237.1C369.618 236.547 366.865 236.947 364.49 238.23C364.337 238.316 364.165 238.361 363.99 238.36Z" fill="black"/>
<path d="M372.09 258.29C373.416 258.29 374.49 257.215 374.49 255.89C374.49 254.564 373.416 253.49 372.09 253.49C370.765 253.49 369.69 254.564 369.69 255.89C369.69 257.215 370.765 258.29 372.09 258.29Z" fill="#201000"/>
<path d="M339.14 261.43C340.465 261.43 341.54 260.356 341.54 259.03C341.54 257.705 340.465 256.63 339.14 256.63C337.814 256.63 336.74 257.705 336.74 259.03C336.74 260.356 337.814 261.43 339.14 261.43Z" fill="#201000"/>
<path d="M332.87 249.23H332.75C332.619 249.215 332.493 249.175 332.378 249.111C332.263 249.047 332.161 248.961 332.08 248.858C331.998 248.755 331.937 248.636 331.901 248.51C331.865 248.383 331.855 248.251 331.87 248.12C332.5 242.95 337.62 241.19 340.25 240.99C340.512 240.971 340.771 241.055 340.972 241.226C341.172 241.396 341.297 241.638 341.32 241.9C341.331 242.031 341.316 242.164 341.275 242.289C341.235 242.415 341.17 242.531 341.085 242.631C340.999 242.732 340.895 242.814 340.777 242.874C340.66 242.934 340.531 242.97 340.4 242.98C340.16 242.98 334.4 243.53 333.86 248.36C333.829 248.601 333.711 248.821 333.529 248.981C333.346 249.141 333.113 249.23 332.87 249.23Z" fill="black"/>
<path d="M432.79 248C432.55 248.003 432.318 247.92 432.134 247.766C431.95 247.612 431.828 247.396 431.79 247.16C428.16 224.06 445.15 217.35 445.32 217.28C445.443 217.233 445.573 217.211 445.705 217.215C445.836 217.219 445.965 217.249 446.085 217.303C446.205 217.357 446.313 217.434 446.403 217.529C446.493 217.625 446.563 217.737 446.61 217.86C446.657 217.983 446.679 218.114 446.675 218.245C446.671 218.376 446.641 218.505 446.587 218.625C446.533 218.745 446.456 218.853 446.361 218.943C446.265 219.033 446.153 219.103 446.03 219.15C445.39 219.4 430.4 225.4 433.76 246.85C433.8 247.111 433.736 247.378 433.58 247.591C433.424 247.805 433.191 247.948 432.93 247.99L432.79 248Z" fill="black"/>
<path d="M381.25 339.71C390.5 337 396.5 339 413.5 320L381.25 339.71Z" fill="white"/>
<path d="M381.25 340.71C380.985 340.747 380.716 340.677 380.502 340.516C380.288 340.355 380.147 340.115 380.11 339.85C380.073 339.585 380.143 339.315 380.304 339.102C380.465 338.888 380.705 338.747 380.97 338.71C382.64 338.22 384.21 337.88 385.73 337.55C392.55 336.08 398.98 334.68 412.73 319.29C412.908 319.091 413.157 318.971 413.423 318.956C413.69 318.941 413.951 319.032 414.15 319.21C414.349 319.388 414.469 319.637 414.484 319.903C414.499 320.17 414.408 320.431 414.23 320.63C400.02 336.5 393.28 337.96 386.13 339.51C384.65 339.83 383.13 340.16 381.51 340.63C381.428 340.67 381.34 340.697 381.25 340.71Z" fill="black"/>
<path d="M335.5 274C331.803 273.999 328.236 272.633 325.484 270.164C322.732 267.694 320.989 264.296 320.59 260.62C320.576 260.489 320.588 260.357 320.625 260.231C320.663 260.105 320.724 259.988 320.807 259.886C320.89 259.783 320.992 259.699 321.107 259.636C321.223 259.573 321.349 259.534 321.48 259.52C321.611 259.506 321.743 259.518 321.869 259.555C321.995 259.593 322.112 259.654 322.214 259.737C322.316 259.82 322.401 259.922 322.464 260.037C322.527 260.153 322.566 260.279 322.58 260.41C322.775 262.257 323.364 264.041 324.307 265.642C325.25 267.242 326.525 268.622 328.046 269.689C329.567 270.755 331.299 271.483 333.125 271.823C334.951 272.164 336.829 272.109 338.632 271.662C340.435 271.216 342.122 270.388 343.578 269.235C345.035 268.082 346.227 266.63 347.075 264.977C347.923 263.324 348.406 261.509 348.494 259.653C348.581 257.798 348.269 255.945 347.58 254.22C347.522 254.091 347.492 253.951 347.492 253.81C347.492 253.669 347.522 253.529 347.58 253.4C347.645 253.272 347.736 253.159 347.848 253.069C347.961 252.979 348.091 252.915 348.23 252.88L357.23 250.65C357.374 250.614 357.524 250.611 357.669 250.64C357.814 250.67 357.951 250.731 358.07 250.82C358.19 250.91 358.289 251.026 358.358 251.159C358.427 251.293 358.465 251.44 358.47 251.59C358.548 254.125 359.193 256.611 360.356 258.865C361.52 261.119 363.173 263.083 365.195 264.615C367.217 266.147 369.555 267.207 372.04 267.718C374.525 268.228 377.092 268.176 379.554 267.566C382.016 266.955 384.31 265.802 386.268 264.189C388.226 262.577 389.798 260.547 390.87 258.248C391.942 255.949 392.485 253.439 392.461 250.903C392.437 248.367 391.845 245.868 390.73 243.59C390.613 243.351 390.596 243.076 390.682 242.825C390.769 242.573 390.951 242.367 391.19 242.25C391.429 242.133 391.704 242.116 391.955 242.202C392.207 242.289 392.413 242.471 392.53 242.71C393.789 245.285 394.442 248.114 394.44 250.98C394.4 255.829 392.508 260.479 389.151 263.979C385.794 267.478 381.226 269.561 376.382 269.801C371.539 270.041 366.787 268.421 363.1 265.271C359.413 262.121 357.07 257.681 356.55 252.86L349.76 254.54C350.21 255.977 350.44 257.474 350.44 258.98C350.445 262.951 348.876 266.763 346.075 269.578C343.274 272.394 339.471 273.984 335.5 274Z" fill="black"/>
<path d="M398.5 294C398.5 294 399.5 303 385.5 305L398.5 294Z" fill="white"/>
<path d="M385.5 306C385.235 306.018 384.973 305.931 384.772 305.757C384.572 305.582 384.449 305.335 384.43 305.07C384.411 304.805 384.499 304.543 384.673 304.342C384.848 304.142 385.095 304.018 385.36 304C398.25 302.16 397.51 294.18 397.51 294.1C397.481 293.835 397.558 293.569 397.725 293.361C397.892 293.152 398.135 293.019 398.4 292.99C398.665 292.961 398.931 293.038 399.139 293.205C399.348 293.372 399.481 293.615 399.51 293.88C399.51 293.98 400.45 303.88 385.66 305.98L385.5 306Z" fill="black"/>
<path d="M447 404.5C446.742 404.499 446.495 404.399 446.31 404.22L413.69 372.93L393.84 404.04C393.751 404.179 393.628 404.294 393.483 404.375C393.338 404.455 393.176 404.498 393.01 404.5C392.844 404.501 392.68 404.46 392.533 404.382C392.386 404.303 392.261 404.189 392.17 404.05L363.17 359.73C363.026 359.508 362.976 359.239 363.03 358.98C363.085 358.722 363.239 358.495 363.46 358.35C363.57 358.277 363.693 358.227 363.823 358.202C363.953 358.177 364.086 358.179 364.215 358.206C364.344 358.232 364.467 358.285 364.576 358.359C364.685 358.434 364.778 358.529 364.85 358.64L393.01 401.64L412.68 370.81C412.758 370.685 412.864 370.579 412.988 370.499C413.113 370.42 413.253 370.369 413.4 370.35C413.547 370.334 413.696 370.35 413.836 370.399C413.976 370.447 414.104 370.526 414.21 370.63L446.53 401.63L461.59 351.63C461.681 351.396 461.857 351.205 462.083 351.095C462.308 350.985 462.567 350.964 462.807 351.035C463.048 351.107 463.253 351.267 463.381 351.483C463.509 351.698 463.552 351.954 463.5 352.2L447.98 403.8C447.93 403.965 447.839 404.114 447.714 404.233C447.59 404.352 447.437 404.437 447.27 404.48C447.181 404.498 447.09 404.505 447 404.5Z" fill="black"/>
<path d="M365.7 523.2C365.587 523.199 365.476 523.178 365.37 523.14C365.246 523.096 365.131 523.028 365.033 522.94C364.935 522.852 364.856 522.746 364.799 522.627C364.742 522.508 364.71 522.379 364.703 522.247C364.696 522.116 364.716 521.984 364.76 521.86L384.56 466.66C384.602 466.533 384.669 466.416 384.757 466.315C384.845 466.214 384.952 466.132 385.073 466.074C385.193 466.015 385.324 465.982 385.457 465.975C385.591 465.968 385.724 465.987 385.85 466.033C385.976 466.078 386.091 466.149 386.189 466.239C386.287 466.33 386.366 466.44 386.421 466.562C386.476 466.684 386.506 466.815 386.509 466.949C386.513 467.083 386.489 467.216 386.44 467.34L366.65 522.54C366.58 522.735 366.45 522.903 366.28 523.021C366.11 523.139 365.907 523.202 365.7 523.2Z" fill="black"/>
<path d="M393.5 545.33C393.404 545.344 393.306 545.344 393.21 545.33C392.957 545.254 392.745 545.08 392.619 544.848C392.494 544.616 392.465 544.343 392.54 544.09L412.54 477.25C412.578 477.124 412.64 477.006 412.723 476.904C412.807 476.802 412.91 476.717 413.026 476.655C413.142 476.593 413.269 476.554 413.4 476.541C413.532 476.528 413.664 476.542 413.79 476.58C413.916 476.618 414.034 476.68 414.136 476.763C414.238 476.847 414.323 476.949 414.385 477.066C414.447 477.182 414.486 477.309 414.499 477.44C414.512 477.571 414.498 477.704 414.46 477.83L394.46 544.66C394.391 544.858 394.261 545.03 394.088 545.15C393.916 545.27 393.71 545.333 393.5 545.33Z" fill="black"/>
<path d="M393.5 488C392.313 488 391.153 487.648 390.167 486.989C389.18 486.33 388.411 485.393 387.957 484.296C387.503 483.2 387.384 481.993 387.615 480.829C387.847 479.665 388.418 478.596 389.257 477.757C390.096 476.918 391.165 476.347 392.329 476.115C393.493 475.884 394.7 476.003 395.796 476.457C396.893 476.911 397.83 477.68 398.489 478.667C399.148 479.653 399.5 480.813 399.5 482C399.5 483.591 398.868 485.117 397.743 486.243C396.617 487.368 395.091 488 393.5 488ZM393.5 478C392.709 478 391.936 478.235 391.278 478.674C390.62 479.114 390.107 479.738 389.804 480.469C389.502 481.2 389.423 482.004 389.577 482.78C389.731 483.556 390.112 484.269 390.672 484.828C391.231 485.388 391.944 485.769 392.72 485.923C393.496 486.077 394.3 485.998 395.031 485.696C395.762 485.393 396.386 484.88 396.826 484.222C397.265 483.564 397.5 482.791 397.5 482C397.5 480.939 397.079 479.922 396.328 479.172C395.578 478.422 394.561 478 393.5 478Z" fill="black"/>
<path d="M340 514.5C345 513.5 350 509.5 370 525.5C375.93 530.24 384 536.75 393.5 544.33" fill="white"/>
<path d="M393.5 545.33C393.276 545.332 393.057 545.258 392.88 545.12C386.76 540.25 381.26 535.83 376.54 532.03L369.38 526.28C351.99 512.37 346.38 513.86 341.95 515.05C341.35 515.21 340.77 515.37 340.2 515.48C340.069 515.506 339.933 515.506 339.802 515.48C339.671 515.454 339.546 515.403 339.434 515.329C339.323 515.254 339.227 515.159 339.153 515.047C339.078 514.936 339.026 514.811 339 514.68C338.974 514.549 338.974 514.413 339 514.282C339.026 514.151 339.077 514.026 339.151 513.914C339.226 513.803 339.321 513.707 339.433 513.633C339.544 513.558 339.669 513.506 339.8 513.48C340.34 513.37 340.87 513.23 341.43 513.08C346.34 511.77 352.43 510.14 370.63 524.68L377.79 530.43C382.51 534.23 388.01 538.65 394.12 543.51C394.224 543.592 394.31 543.693 394.374 543.809C394.438 543.924 394.479 544.051 394.493 544.182C394.508 544.313 394.497 544.445 394.461 544.572C394.424 544.699 394.363 544.817 394.28 544.92C394.19 545.043 394.073 545.144 393.938 545.216C393.802 545.287 393.653 545.326 393.5 545.33Z" fill="black"/>
<path d="M629 557C628.75 557 628.504 556.937 628.284 556.818C628.065 556.699 627.879 556.526 627.742 556.317C627.606 556.107 627.525 555.867 627.505 555.618C627.486 555.368 627.528 555.118 627.63 554.89L639.63 527.89C639.797 527.535 640.097 527.259 640.465 527.123C640.832 526.986 641.239 526.999 641.597 527.159C641.956 527.318 642.238 527.612 642.382 527.977C642.527 528.341 642.522 528.748 642.37 529.11L630.37 556.11C630.252 556.375 630.06 556.6 629.817 556.758C629.574 556.916 629.29 557 629 557Z" fill="#FCE054"/>
<path d="M84.0001 78.0001C81.9234 78.0001 79.8933 77.3843 78.1666 76.2305C76.4398 75.0768 75.0941 73.4368 74.2994 71.5181C73.5047 69.5995 73.2966 67.4885 73.7017 65.4517C74.1069 63.4149 75.107 61.544 76.5755 60.0755C78.044 58.607 79.9149 57.6069 81.9517 57.2017C83.9885 56.7966 86.0995 57.0047 88.0181 57.7994C89.9368 58.5941 91.5768 59.9398 92.7305 61.6666C93.8843 63.3933 94.5001 65.4234 94.5001 67.5001C94.4974 70.284 93.3903 72.9531 91.4217 74.9217C89.4531 76.8903 86.784 77.9974 84.0001 78.0001ZM84.0001 60.0001C82.5167 60.0001 81.0667 60.4399 79.8333 61.264C78.5999 62.0881 77.6385 63.2595 77.0709 64.6299C76.5032 66.0004 76.3547 67.5083 76.6441 68.9632C76.9335 70.4181 77.6479 71.7544 78.6968 72.8033C79.7457 73.8522 81.0821 74.5666 82.5369 74.856C83.9918 75.1454 85.4997 74.9969 86.8702 74.4293C88.2406 73.8616 89.412 72.9002 90.2361 71.6668C91.0603 70.4334 91.5001 68.9834 91.5001 67.5001C91.5001 65.5109 90.7098 63.6034 89.3033 62.1968C87.8968 60.7903 85.9892 60.0001 84.0001 60.0001Z" fill="#FCE054"/>
<path d="M616 512C613.33 512 610.72 511.208 608.5 509.725C606.28 508.242 604.55 506.133 603.528 503.666C602.506 501.2 602.238 498.485 602.759 495.866C603.28 493.248 604.566 490.842 606.454 488.954C608.342 487.066 610.748 485.78 613.366 485.259C615.985 484.738 618.699 485.006 621.166 486.028C623.633 487.049 625.741 488.78 627.225 491C628.708 493.22 629.5 495.83 629.5 498.5C629.495 502.079 628.071 505.51 625.54 508.04C623.009 510.571 619.579 511.995 616 512ZM616 488C613.923 488 611.893 488.616 610.167 489.77C608.44 490.923 607.094 492.563 606.299 494.482C605.505 496.401 605.297 498.512 605.702 500.548C606.107 502.585 607.107 504.456 608.575 505.925C610.044 507.393 611.915 508.393 613.952 508.798C615.989 509.204 618.099 508.996 620.018 508.201C621.937 507.406 623.577 506.06 624.731 504.334C625.884 502.607 626.5 500.577 626.5 498.5C626.497 495.716 625.39 493.047 623.422 491.078C621.453 489.11 618.784 488.003 616 488Z" fill="#47CEC0"/>
<path d="M225 458C224.631 458.001 224.275 457.865 224 457.62L204 439.62C203.853 439.489 203.733 439.33 203.647 439.152C203.562 438.974 203.512 438.782 203.501 438.585C203.49 438.388 203.517 438.191 203.582 438.005C203.648 437.818 203.749 437.647 203.88 437.5C204.011 437.353 204.17 437.233 204.348 437.147C204.525 437.062 204.718 437.012 204.915 437.001C205.112 436.99 205.309 437.017 205.495 437.082C205.681 437.148 205.853 437.249 206 437.38L226 455.38C226.227 455.582 226.387 455.849 226.459 456.144C226.532 456.44 226.512 456.751 226.404 457.035C226.295 457.319 226.103 457.564 225.852 457.736C225.601 457.908 225.304 458 225 458Z" fill="#ED5564"/>
</svg>
