<svg width="700" height="700" viewBox="0 0 700 700" fill="none" xmlns="http://www.w3.org/2000/svg">
<rect width="700" height="700" fill="white"/>
<path d="M177.26 427.69C158.5 428.43 138.74 435.25 120.11 447.41C116.42 449.82 113.47 451.95 110.95 453.9L90.72 409.79L172.63 356.29L148.1 318.74L34 393.26L94.29 519.78L103.73 511.78C111.813 504.68 120.363 498.129 129.32 492.17C153.9 476.17 187.86 463.94 210.01 496.99C226.88 522.82 213.78 550.66 192.12 564.8C174.62 576.23 154.76 580.88 143.12 581.39L133.17 581.83L144.44 623.99H150.62C165.67 623.9 190.85 617.87 216.38 601.2C240.24 585.61 256.81 563.41 263.02 538.68C269.23 513.95 264.77 488.06 250.38 466.03C233.27 439.88 206.64 425.92 177.26 427.69Z" fill="#FCE054"/>
<path d="M102.06 402.39L113.94 394.63L154.75 328.92L151.13 323.38L102.06 402.39Z" fill="white"/>
<path d="M95.1799 353.3L83.3 361.06L46.72 419.95L49.78 426.38L95.1799 353.3Z" fill="white"/>
<path d="M96.5898 422.57L93.5801 416.03L66.01 460.43L69.0701 466.86L96.5898 422.57Z" fill="white"/>
<path d="M172.79 574.64L143.72 621.44L144.4 624H149.21L182.53 570.35C179.28 571.96 176.01 573.39 172.79 574.64Z" fill="white"/>
<path d="M244.91 458.5L214.97 506.71C215.929 509.283 216.642 511.942 217.1 514.65L248.77 463.65C247.53 461.89 246.243 460.173 244.91 458.5Z" fill="white"/>
<path d="M128.85 442.16C125.91 443.79 123 445.53 120.11 447.41C119.11 448.04 118.25 448.64 117.39 449.23L85.3 500.9L88.3599 507.34L128.85 442.16Z" fill="white"/>
<path d="M220.56 437.56C218.81 436.56 217.02 435.65 215.21 434.81L188.03 478.56C189.923 479.262 191.759 480.111 193.52 481.1L220.56 437.56Z" fill="white"/>
<path d="M265.35 508.5C265.066 505.399 264.623 502.315 264.02 499.26L192.89 613.78C196.177 612.36 199.51 610.767 202.89 609L265.35 508.5Z" fill="white"/>
<path d="M182.35 427.55C180.66 427.55 178.97 427.55 177.26 427.69C176.55 427.69 175.83 427.78 175.12 427.82L138.6 486.61C141.883 484.806 145.258 483.174 148.71 481.72L182.35 427.55Z" fill="white"/>
<path d="M345.75 139.11C317.12 139.11 292.94 152.06 275.82 176.55C258.7 201.04 249.61 236.5 249.61 279C250 321 258.61 355.92 274.61 379.93C290.81 404.3 313.93 417.19 341.48 417.19C371.93 417.19 396.75 404 413.28 379.04C429.43 354.66 437.62 319.79 437.62 275.42C437.62 233.54 429.82 200.31 414.44 176.63C398.46 152.08 374.73 139.11 345.75 139.11ZM343.46 374.67C316.64 374.67 299.98 338.13 299.98 279.32C299.98 219.97 317.2 181.63 343.85 181.63C381.68 181.63 387.33 241.37 387.33 276.98C387.33 308.42 383.18 333.91 375.33 350.71C367.72 366.83 357.3 374.67 343.46 374.67Z" fill="#47CEC0"/>
<path d="M274.95 179.62L273.21 178.64L337.37 64.12L338.28 65.43L415.28 176.43L413.64 177.57L337.55 67.88L274.95 179.62Z" fill="black"/>
<path d="M337.46 69C341.326 69 344.46 65.866 344.46 62C344.46 58.134 341.326 55 337.46 55C333.594 55 330.46 58.134 330.46 62C330.46 65.866 333.594 69 337.46 69Z" fill="black"/>
<path d="M597.65 281.43C579.23 277.75 558.42 279.74 537.46 287.19C533.31 288.67 529.95 290.04 527.04 291.35L517.72 243.72L609.9 210.94L594.9 168.67L466.46 214.35L495.39 351.5L506.44 345.94C515.961 340.933 525.806 336.57 535.91 332.88C563.57 323.05 599.44 319.17 613.22 356.5C623.56 385.57 604.3 409.5 579.92 418.22C560.23 425.22 539.84 425.09 528.36 422.84L518.58 420.93L519.65 464.56L525.65 465.98C540.3 469.43 566.19 469.47 594.92 459.25C621.77 449.7 643.09 432 654.92 409.42C666.75 386.84 668.49 360.63 659.68 335.83C649.24 306.42 626.62 286.6 597.65 281.43Z" fill="#FCE054"/>
<path d="M492.46 246C499.087 246 504.46 240.627 504.46 234C504.46 227.373 499.087 222 492.46 222C485.833 222 480.46 227.373 480.46 234C480.46 240.627 485.833 246 492.46 246Z" fill="white"/>
<path d="M485.524 230.562L484.803 232.428L498.506 237.721L499.227 235.855L485.524 230.562Z" fill="black"/>
<path d="M581.46 211C588.087 211 593.46 205.627 593.46 199C593.46 192.373 588.087 187 581.46 187C574.833 187 569.46 192.373 569.46 199C569.46 205.627 574.833 211 581.46 211Z" fill="white"/>
<path d="M587.36 195.019L575.191 200.384L575.997 202.214L588.167 196.849L587.36 195.019Z" fill="black"/>
<path d="M544.33 458.29C550.957 458.29 556.33 452.917 556.33 446.29C556.33 439.663 550.957 434.29 544.33 434.29C537.703 434.29 532.33 439.663 532.33 446.29C532.33 452.917 537.703 458.29 544.33 458.29Z" fill="white"/>
<path d="M546.833 440.468L538.223 451.835L539.818 453.043L548.427 441.675L546.833 440.468Z" fill="black"/>
<path d="M495.743 227.633L487.524 239.809L489.182 240.928L497.4 228.752L495.743 227.633Z" fill="black"/>
<path d="M578.996 192.407L577.269 193.416L583.977 204.9L585.704 203.891L578.996 192.407Z" fill="black"/>
<path d="M544.561 434.494L543.301 436.054L554.385 445.006L555.645 443.446L544.561 434.494Z" fill="black"/>
<path d="M253.88 594.5H253.63C253.374 594.432 253.156 594.265 253.023 594.037C252.89 593.808 252.853 593.536 252.92 593.28L288.03 458.04C288.075 457.87 288.165 457.714 288.289 457.589C288.414 457.465 288.57 457.375 288.74 457.33L333.29 445.87C328.003 426.37 321.585 407.194 314.07 388.44C301.55 357.14 253.35 370.69 252.86 370.83C252.767 370.84 252.673 370.84 252.58 370.83H201.87H201.68C200.93 370.69 126.75 357.06 107.81 391.14C88.6102 425.71 65.9501 549.44 65.7201 550.68C65.6971 550.811 65.6485 550.937 65.577 551.049C65.5055 551.162 65.4124 551.259 65.3033 551.336C65.1942 551.412 65.0711 551.467 64.941 551.496C64.8109 551.525 64.6764 551.528 64.545 551.505C64.4137 551.482 64.2882 551.433 64.1756 551.362C64.0631 551.29 63.9659 551.198 63.8893 551.088C63.8127 550.979 63.7581 550.856 63.7291 550.726C63.7001 550.596 63.6971 550.461 63.7201 550.33C63.9401 549.08 86.6601 425.02 106.03 390.17C114.18 375.49 133.41 367.17 161.64 366.08C175.125 365.675 188.617 366.602 201.92 368.85H252.46C255.46 368.03 303.1 355.58 315.94 387.68C323.617 406.811 330.136 426.386 335.46 446.3C335.524 446.556 335.484 446.827 335.349 447.053C335.214 447.28 334.995 447.444 334.74 447.51L289.74 459.07L254.74 593.73C254.694 593.931 254.586 594.114 254.432 594.252C254.278 594.389 254.085 594.476 253.88 594.5Z" fill="black"/>
<path d="M247.38 237.18C247.38 237.18 273.38 226.78 264.29 205.97C255.2 185.16 233.08 195.57 223.97 204.67C223.97 204.67 207.07 181.26 186.26 191.67C165.45 202.08 171.96 220.27 171.96 220.27C171.96 220.27 136.85 205.97 126.45 225.48C116.05 244.99 126.45 260.59 126.45 260.59C126.45 260.59 104.33 332.02 214.87 317.8C305.9 306.1 247.38 237.18 247.38 237.18Z" fill="#201000"/>
<path d="M201.25 369.64V343.17C201.25 343.17 182.57 327.6 182.57 313.59C182.57 313.59 145.19 316.7 140.52 293.34C135.85 269.98 154.52 257.53 168.52 265.34L182.52 273.13C182.52 273.13 208.99 270.02 207.43 241.99C207.43 241.99 251.03 213.99 268.16 252.89C285.29 291.79 291.52 326.07 282.16 338.53C272.8 350.99 252.57 352.53 252.57 352.53V369.65C252.57 369.65 235.51 411.69 201.25 369.64Z" fill="white"/>
<path d="M229.79 389.33C220.64 389.33 210.79 382.94 200.48 370.33C200.333 370.153 200.252 369.93 200.25 369.7V343.7C197.62 341.43 182.4 327.79 181.6 314.7C175.3 315.04 143.94 315.59 139.54 293.59C137.21 281.91 140.46 271.59 148.24 265.86C151.205 263.648 154.746 262.342 158.437 262.099C162.128 261.856 165.811 262.686 169.04 264.49L182.76 272.11C185.76 271.66 207.9 267.5 206.48 242.11C206.472 241.934 206.51 241.759 206.591 241.603C206.671 241.447 206.792 241.315 206.94 241.22C207.85 240.63 229.47 226.94 248.55 232.69C257.55 235.41 264.55 242.1 269.13 252.55C287.13 293.44 292.44 326.64 283.03 339.2C274.56 350.49 257.8 353.05 253.64 353.52V369.75C253.636 369.876 253.613 370.001 253.57 370.12C253.28 370.82 246.48 387.12 232.65 389.22C231.701 389.326 230.745 389.363 229.79 389.33ZM202.25 369.33C213.09 382.54 223.2 388.54 232.34 387.18C244.34 385.4 250.88 371.18 251.64 369.48V352.5C251.639 352.248 251.734 352.005 251.904 351.82C252.075 351.634 252.309 351.52 252.56 351.5C252.76 351.5 272.47 349.82 281.43 337.88C290.39 325.94 284.73 292.88 267.3 253.24C262.94 243.34 256.44 237.03 247.98 234.48C231.3 229.48 211.82 240.48 208.51 242.48C209.69 270.57 182.96 274.04 182.68 274.07C182.472 274.1 182.26 274.058 182.08 273.95L168.08 266.17C165.184 264.553 161.881 263.81 158.572 264.03C155.262 264.25 152.087 265.424 149.43 267.41C142.29 272.61 139.33 282.23 141.51 293.13C145.96 315.34 182.13 312.6 182.51 312.57C182.648 312.558 182.786 312.576 182.917 312.62C183.048 312.665 183.168 312.736 183.27 312.83C183.374 312.924 183.456 313.038 183.513 313.165C183.57 313.293 183.6 313.43 183.6 313.57C183.6 326.95 201.74 342.23 201.92 342.38C202.033 342.474 202.124 342.592 202.186 342.725C202.248 342.858 202.28 343.003 202.28 343.15L202.25 369.33Z" fill="black"/>
<path d="M257.31 309.93C257.144 309.931 256.98 309.89 256.833 309.811C256.686 309.733 256.562 309.619 256.47 309.48C256.398 309.369 256.348 309.245 256.324 309.115C256.3 308.985 256.302 308.852 256.33 308.722C256.358 308.593 256.411 308.471 256.487 308.362C256.562 308.254 256.659 308.161 256.77 308.09C261.17 305.22 263.52 301.69 263.77 297.61C264.35 286.93 250.62 275.56 250.48 275.45C250.378 275.367 250.293 275.264 250.231 275.148C250.169 275.032 250.13 274.905 250.117 274.774C250.104 274.643 250.117 274.511 250.155 274.385C250.194 274.259 250.256 274.142 250.34 274.04C250.508 273.837 250.749 273.708 251.011 273.682C251.273 273.656 251.535 273.734 251.74 273.9C252.34 274.39 266.4 286.03 265.74 297.72C265.48 302.47 262.83 306.53 257.86 309.72C257.702 309.844 257.51 309.917 257.31 309.93Z" fill="black"/>
<path d="M230.64 327.14C227.656 327.201 224.747 326.202 222.43 324.32C216.72 319.65 215.86 310.93 215.83 310.56C215.818 310.429 215.832 310.296 215.871 310.17C215.911 310.045 215.975 309.928 216.059 309.827C216.144 309.725 216.247 309.642 216.364 309.581C216.481 309.519 216.609 309.482 216.74 309.47C216.871 309.458 217.003 309.472 217.129 309.512C217.255 309.551 217.372 309.615 217.473 309.699C217.575 309.784 217.658 309.887 217.719 310.004C217.781 310.121 217.818 310.249 217.83 310.38C217.83 310.46 218.65 318.65 223.71 322.77C224.909 323.718 226.291 324.409 227.768 324.801C229.246 325.193 230.788 325.278 232.3 325.05C232.565 325.021 232.831 325.098 233.039 325.265C233.247 325.432 233.381 325.675 233.41 325.94C233.439 326.205 233.362 326.471 233.195 326.679C233.028 326.888 232.785 327.021 232.52 327.05C231.895 327.114 231.268 327.144 230.64 327.14Z" fill="black"/>
<path d="M159.99 292.01C159.725 292.01 159.47 291.905 159.283 291.717C159.095 291.53 158.99 291.275 158.99 291.01C158.99 290.82 158.99 286.37 162.29 284.35C164.79 282.81 168.36 283.17 172.89 285.44C173.119 285.563 173.291 285.77 173.37 286.018C173.449 286.265 173.428 286.534 173.313 286.766C173.197 286.999 172.995 287.178 172.75 287.264C172.505 287.351 172.236 287.338 172 287.23C168.18 285.32 165.19 284.91 163.35 286.05C161.03 287.47 160.99 290.98 160.99 291.05C160.98 291.308 160.87 291.552 160.683 291.731C160.497 291.91 160.248 292.01 159.99 292.01Z" fill="black"/>
<path d="M219.71 254.11C219.511 254.111 219.317 254.053 219.151 253.943C218.986 253.834 218.857 253.677 218.781 253.493C218.704 253.31 218.685 253.108 218.724 252.913C218.763 252.719 218.859 252.54 219 252.4C221.315 250.259 224.337 249.046 227.49 248.99C227.755 248.99 228.009 249.095 228.197 249.283C228.385 249.47 228.49 249.725 228.49 249.99C228.49 250.255 228.385 250.51 228.197 250.697C228.009 250.885 227.755 250.99 227.49 250.99C224.868 251.047 222.354 252.049 220.41 253.81C220.225 253.998 219.974 254.106 219.71 254.11Z" fill="black"/>
<path d="M231.91 268.95C233.202 268.95 234.25 267.902 234.25 266.61C234.25 265.318 233.202 264.27 231.91 264.27C230.618 264.27 229.57 265.318 229.57 266.61C229.57 267.902 230.618 268.95 231.91 268.95Z" fill="#201000"/>
<path d="M252.37 261.95C253.662 261.95 254.71 260.902 254.71 259.61C254.71 258.318 253.662 257.27 252.37 257.27C251.078 257.27 250.03 258.318 250.03 259.61C250.03 260.902 251.078 261.95 252.37 261.95Z" fill="#201000"/>
<path d="M240.69 247.89C240.558 247.891 240.428 247.866 240.306 247.816C240.184 247.766 240.073 247.693 239.98 247.6C239.794 247.413 239.689 247.159 239.689 246.895C239.689 246.631 239.794 246.377 239.98 246.19C241.8 244.37 246.35 241.68 250.59 244.5C250.699 244.573 250.793 244.668 250.865 244.777C250.938 244.887 250.988 245.01 251.013 245.139C251.039 245.268 251.038 245.401 251.011 245.53C250.985 245.659 250.934 245.781 250.86 245.89C250.713 246.109 250.486 246.262 250.228 246.314C249.969 246.367 249.7 246.315 249.48 246.17C245.53 243.54 241.48 247.56 241.39 247.6C241.204 247.785 240.952 247.889 240.69 247.89Z" fill="black"/>
<path d="M178.32 297C178.116 297.001 177.916 296.939 177.748 296.823C177.58 296.706 177.451 296.541 177.38 296.35C169.98 276.6 154.38 278.69 153.76 278.79C153.495 278.83 153.225 278.763 153.009 278.603C152.793 278.444 152.65 278.205 152.61 277.94C152.57 277.675 152.637 277.405 152.797 277.189C152.956 276.973 153.195 276.83 153.46 276.79C153.64 276.79 171.26 274.31 179.26 295.63C179.306 295.753 179.328 295.885 179.323 296.017C179.319 296.148 179.288 296.278 179.233 296.398C179.179 296.518 179.1 296.625 179.004 296.715C178.907 296.805 178.794 296.874 178.67 296.92C178.559 296.968 178.441 296.995 178.32 297Z" fill="black"/>
<path d="M101.92 600.16C101.827 600.169 101.733 600.169 101.64 600.16C101.385 600.086 101.171 599.913 101.043 599.681C100.916 599.448 100.886 599.175 100.96 598.92L143.69 451.5C143.764 451.245 143.937 451.031 144.169 450.903C144.402 450.776 144.675 450.746 144.93 450.82C145.184 450.894 145.399 451.067 145.527 451.299C145.654 451.532 145.684 451.805 145.61 452.06L102.88 599.47C102.814 599.672 102.686 599.848 102.513 599.972C102.34 600.096 102.132 600.162 101.92 600.16Z" fill="black"/>
<path d="M136.46 481.08C136.364 481.094 136.266 481.094 136.17 481.08L82.8599 465.23C82.7246 465.201 82.5968 465.145 82.4844 465.065C82.372 464.984 82.2775 464.882 82.2068 464.763C82.1361 464.644 82.0907 464.512 82.0737 464.374C82.0568 464.237 82.0684 464.098 82.1079 463.966C82.1475 463.833 82.2141 463.71 82.3035 463.605C82.3929 463.499 82.5032 463.414 82.6275 463.353C82.7517 463.292 82.887 463.258 83.0252 463.252C83.1633 463.247 83.3012 463.27 83.4299 463.32L136.74 479.17C136.964 479.243 137.154 479.393 137.279 479.593C137.403 479.792 137.452 480.03 137.419 480.263C137.386 480.495 137.271 480.709 137.096 480.866C136.92 481.023 136.695 481.113 136.46 481.12V481.08Z" fill="black"/>
<path d="M298.367 411.168L282.29 479.821L284.238 480.277L300.315 411.624L298.367 411.168Z" fill="black"/>
<path d="M142.22 461.15C142.127 461.16 142.033 461.16 141.94 461.15L89.76 446.24C89.6277 446.209 89.5028 446.152 89.3933 446.072C89.2838 445.992 89.1918 445.89 89.1228 445.773C89.0539 445.656 89.0096 445.527 88.9924 445.392C88.9753 445.257 88.9856 445.121 89.023 444.99C89.0603 444.86 89.1238 444.738 89.2097 444.633C89.2956 444.528 89.4021 444.441 89.5225 444.378C89.6429 444.316 89.7748 444.278 89.9102 444.268C90.0455 444.258 90.1817 444.276 90.3101 444.32L142.49 459.23C142.744 459.302 142.959 459.472 143.089 459.703C143.218 459.933 143.251 460.205 143.18 460.46C143.114 460.662 142.985 460.838 142.813 460.962C142.64 461.086 142.433 461.152 142.22 461.15Z" fill="black"/>
<path d="M294.38 433.87C294.115 433.893 293.851 433.809 293.648 433.637C293.444 433.466 293.317 433.22 293.295 432.955C293.272 432.69 293.356 432.427 293.528 432.223C293.699 432.02 293.945 431.893 294.21 431.87L328.29 425.99C328.421 425.968 328.556 425.972 328.685 426.001C328.815 426.031 328.938 426.086 329.047 426.163C329.155 426.24 329.248 426.338 329.319 426.45C329.39 426.563 329.438 426.689 329.46 426.82C329.482 426.951 329.479 427.086 329.449 427.216C329.419 427.345 329.364 427.468 329.287 427.577C329.21 427.686 329.112 427.778 329 427.849C328.887 427.92 328.761 427.968 328.63 427.99L294.55 433.86L294.38 433.87Z" fill="black"/>
<path d="M228.17 543.35H228.06L191.65 539.45C191.512 539.436 191.378 539.393 191.258 539.324C191.137 539.255 191.033 539.162 190.95 539.05C190.867 538.938 190.807 538.81 190.776 538.674C190.745 538.538 190.743 538.397 190.77 538.26L199.88 492.75C199.928 492.506 200.066 492.289 200.266 492.142C200.465 491.994 200.713 491.925 200.96 491.95L237.37 495.85C237.508 495.864 237.642 495.908 237.762 495.976C237.883 496.045 237.988 496.138 238.07 496.25C238.154 496.362 238.213 496.49 238.244 496.626C238.275 496.762 238.277 496.903 238.25 497.04L229.14 542.56C229.092 542.782 228.97 542.982 228.794 543.125C228.617 543.269 228.397 543.348 228.17 543.35ZM192.95 537.57L227.36 541.26L236.07 497.71L201.66 494.03L192.95 537.57Z" fill="black"/>
<path d="M236.04 503.97H235.95L199.41 500.71C199.145 500.686 198.9 500.558 198.729 500.354C198.558 500.149 198.476 499.885 198.5 499.62C198.524 499.355 198.652 499.11 198.856 498.939C199.061 498.769 199.325 498.686 199.59 498.71L236.13 501.96C236.395 501.972 236.645 502.089 236.824 502.285C237.003 502.481 237.097 502.74 237.085 503.005C237.073 503.27 236.956 503.52 236.76 503.699C236.564 503.878 236.305 503.972 236.04 503.96V503.97Z" fill="black"/>
<path d="M180.46 481H166.46C166.298 481.001 166.139 480.962 165.995 480.887C165.852 480.813 165.728 480.704 165.636 480.571C165.544 480.439 165.485 480.285 165.465 480.125C165.444 479.965 165.463 479.802 165.52 479.65C189.1 416.79 169.73 367.86 169.52 367.38C169.47 367.258 169.445 367.127 169.445 366.995C169.446 366.863 169.473 366.733 169.524 366.611C169.575 366.489 169.649 366.379 169.743 366.286C169.837 366.193 169.948 366.12 170.07 366.07C170.192 366.02 170.323 365.995 170.455 365.995C170.587 365.996 170.717 366.023 170.839 366.074C170.961 366.125 171.071 366.199 171.164 366.293C171.257 366.387 171.33 366.498 171.38 366.62C171.58 367.11 190.97 416.02 167.89 479H179.81C182.18 473.69 199.66 431.1 182.81 367.83C182.771 367.702 182.758 367.567 182.772 367.433C182.785 367.3 182.826 367.17 182.891 367.053C182.956 366.936 183.044 366.832 183.149 366.75C183.255 366.667 183.376 366.606 183.506 366.571C183.635 366.536 183.771 366.528 183.904 366.546C184.037 366.565 184.164 366.61 184.28 366.679C184.395 366.748 184.495 366.839 184.574 366.948C184.653 367.056 184.71 367.179 184.74 367.31C202.92 435.46 181.59 480 181.38 480.44C181.296 480.611 181.165 480.755 181.002 480.855C180.839 480.954 180.651 481.004 180.46 481Z" fill="black"/>
<path d="M264.46 485H250.46C250.298 485.001 250.139 484.962 249.995 484.887C249.852 484.813 249.728 484.704 249.636 484.571C249.544 484.439 249.485 484.285 249.465 484.125C249.444 483.965 249.463 483.802 249.52 483.65C273.11 420.75 256.68 369.82 256.52 369.32C256.435 369.068 256.454 368.793 256.572 368.555C256.69 368.316 256.898 368.135 257.15 368.05C257.402 367.965 257.677 367.984 257.916 368.102C258.154 368.22 258.335 368.428 258.42 368.68C258.59 369.19 275.02 420.03 251.91 483H263.83C266.34 477.45 285.73 431.29 268.83 367.83C268.791 367.702 268.778 367.567 268.792 367.433C268.805 367.3 268.846 367.17 268.911 367.053C268.976 366.936 269.064 366.832 269.169 366.75C269.275 366.667 269.396 366.606 269.526 366.571C269.655 366.536 269.791 366.528 269.924 366.546C270.057 366.565 270.184 366.61 270.3 366.679C270.415 366.748 270.515 366.839 270.594 366.948C270.673 367.056 270.73 367.179 270.76 367.31C288.94 435.46 265.63 483.96 265.4 484.44C265.315 484.615 265.18 484.761 265.013 484.86C264.847 484.959 264.654 485.008 264.46 485Z" fill="black"/>
<path d="M254.46 469L185.88 465.23C185.615 465.215 185.366 465.096 185.189 464.898C185.012 464.7 184.921 464.44 184.935 464.175C184.95 463.91 185.069 463.661 185.267 463.484C185.465 463.307 185.725 463.215 185.99 463.23L254.56 466.99C254.825 466.997 255.077 467.108 255.26 467.301C255.443 467.493 255.542 467.75 255.535 468.015C255.528 468.28 255.417 468.532 255.224 468.715C255.032 468.898 254.775 468.997 254.51 468.99L254.46 469Z" fill="black"/>
<path d="M128.63 508.02C128.431 508.021 128.237 507.963 128.071 507.853C127.906 507.743 127.777 507.587 127.701 507.403C127.625 507.22 127.605 507.018 127.644 506.823C127.683 506.629 127.779 506.45 127.92 506.31L170.92 463.53C171.111 463.366 171.357 463.281 171.609 463.29C171.861 463.3 172.1 463.404 172.278 463.582C172.456 463.761 172.56 463.999 172.57 464.251C172.579 464.503 172.494 464.749 172.33 464.94L129.33 507.72C129.145 507.908 128.894 508.016 128.63 508.02Z" fill="black"/>
<path d="M275.15 512.55C274.907 512.552 274.672 512.466 274.488 512.308C274.304 512.15 274.184 511.93 274.15 511.69L268.61 472.04C268.573 471.777 268.642 471.511 268.801 471.299C268.96 471.087 269.197 470.947 269.46 470.91C269.723 470.873 269.989 470.942 270.201 471.101C270.413 471.26 270.553 471.497 270.59 471.76L276.13 511.41C276.167 511.673 276.098 511.939 275.939 512.151C275.78 512.363 275.543 512.503 275.28 512.54L275.15 512.55Z" fill="black"/>
<path d="M451.46 497C451.46 497 450.32 520.47 456.46 522C460.46 523 464.46 524 468.46 519C468.46 519 480.46 528 485.46 516C485.46 516 488.46 519 496.46 517C504.46 515 502.46 507 502.46 507C502.46 507 502.46 516 510.46 516C518.46 516 519 508.06 518.46 502C518.07 497.62 517.25 484.62 509.46 473C502.75 463 481.46 453 443.46 462C405.46 471 346.46 497 346.46 497L334.46 447L288.99 458.24L270.38 531.24C270.38 531.24 273.5 575.81 294.46 580C334.46 588 441.46 514 441.46 514" fill="white"/>
<path d="M301.15 581.61C298.838 581.629 296.53 581.418 294.26 580.98C272.8 576.69 269.51 533.16 269.38 531.31C269.365 531.204 269.365 531.096 269.38 530.99L287.99 457.99C288.034 457.813 288.125 457.652 288.253 457.524C288.382 457.395 288.543 457.304 288.72 457.26L334.19 446.02C334.318 445.989 334.452 445.983 334.582 446.004C334.712 446.025 334.837 446.071 334.95 446.14C335.062 446.209 335.159 446.299 335.237 446.405C335.314 446.512 335.369 446.632 335.4 446.76L347.12 495.6C355.39 492 408.39 469.26 443.2 461.02C481.03 452.02 502.97 461.57 510.26 472.43C517.86 483.76 518.96 496.49 519.37 501.29L519.43 501.9C519.96 507.9 519.12 511.98 516.85 514.45C516.026 515.31 515.025 515.983 513.917 516.421C512.809 516.859 511.62 517.054 510.43 516.99C508.928 517.057 507.437 516.706 506.123 515.975C504.809 515.244 503.724 514.162 502.99 512.85C502.439 514.156 501.573 515.306 500.471 516.198C499.368 517.089 498.063 517.694 496.67 517.96C490.86 519.41 487.45 518.34 485.85 517.47C485.291 518.765 484.456 519.922 483.405 520.861C482.353 521.801 481.109 522.5 479.76 522.91C475.24 524.14 470.46 521.51 468.61 520.32C464.4 525.01 460.05 523.93 456.19 522.96C449.59 521.31 450.19 500.96 450.43 496.96C450.43 496.824 450.457 496.69 450.511 496.565C450.564 496.441 450.642 496.328 450.74 496.235C450.838 496.141 450.955 496.068 451.082 496.021C451.209 495.974 451.345 495.953 451.48 495.96C451.736 495.973 451.978 496.084 452.155 496.27C452.332 496.456 452.43 496.703 452.43 496.96C452.01 505.71 452.78 519.96 456.67 520.96C460.56 521.96 464.05 522.8 467.67 518.31C467.832 518.107 468.066 517.974 468.324 517.941C468.581 517.907 468.842 517.975 469.05 518.13C469.1 518.13 474.58 522.2 479.26 520.92C481.53 520.3 483.26 518.49 484.53 515.55C484.593 515.398 484.692 515.263 484.82 515.158C484.947 515.054 485.098 514.982 485.26 514.95C485.421 514.918 485.587 514.926 485.744 514.973C485.901 515.02 486.044 515.105 486.16 515.22C486.16 515.22 488.97 517.77 496.21 515.96C500.82 514.81 501.66 511.41 501.68 509.19C501.532 508.446 501.455 507.689 501.45 506.93C501.418 506.665 501.493 506.398 501.658 506.188C501.823 505.978 502.065 505.842 502.33 505.81C502.595 505.778 502.862 505.853 503.072 506.018C503.282 506.183 503.418 506.425 503.45 506.69C503.63 507.447 503.724 508.222 503.73 509C504.24 511.37 505.79 514.93 510.48 514.93C511.393 514.993 512.308 514.856 513.163 514.53C514.018 514.203 514.791 513.695 515.43 513.04C517.27 511.04 517.96 507.32 517.48 502.04L517.43 501.42C517.03 496.77 515.96 484.42 508.65 473.51C503.07 465.19 483.1 453.59 443.71 462.92C406.24 471.8 347.47 497.61 346.88 497.92C346.746 497.978 346.6 498.006 346.454 498.002C346.308 497.997 346.164 497.961 346.034 497.895C345.903 497.829 345.789 497.736 345.698 497.621C345.608 497.506 345.543 497.372 345.51 497.23L333.74 448.23L289.83 459.09L271.41 531.34C271.64 534.23 275.31 575.17 294.68 579.04C333.8 586.87 439.85 513.93 440.91 513.2C441.017 513.117 441.14 513.056 441.272 513.022C441.403 512.988 441.54 512.981 441.674 513.002C441.808 513.022 441.937 513.07 442.052 513.142C442.167 513.214 442.266 513.308 442.344 513.42C442.421 513.531 442.475 513.657 442.502 513.79C442.53 513.923 442.529 514.06 442.502 514.193C442.474 514.326 442.42 514.452 442.343 514.563C442.265 514.674 442.165 514.768 442.05 514.84C437.88 517.69 344.93 581.6 301.15 581.61Z" fill="black"/>
<path d="M305.46 517C305.233 517.001 305.013 516.925 304.835 516.784C304.657 516.643 304.533 516.446 304.482 516.226C304.43 516.005 304.456 515.773 304.554 515.569C304.651 515.364 304.816 515.199 305.02 515.1C306.43 514.41 339.63 498.24 349.34 494.66C349.589 494.569 349.865 494.58 350.106 494.691C350.347 494.803 350.533 495.006 350.625 495.255C350.716 495.504 350.705 495.78 350.593 496.021C350.482 496.262 350.279 496.449 350.03 496.54C340.41 500.08 306.24 516.73 305.9 516.9C305.763 516.966 305.612 517.001 305.46 517Z" fill="black"/>
<path d="M468.46 520C468.328 520.001 468.198 519.976 468.076 519.926C467.954 519.876 467.843 519.803 467.75 519.71C467.656 519.617 467.582 519.506 467.531 519.385C467.48 519.263 467.454 519.132 467.454 519C467.454 518.868 467.48 518.737 467.531 518.616C467.582 518.494 467.656 518.383 467.75 518.29C475.15 510.9 465.66 491.64 465.57 491.45C465.499 491.332 465.453 491.201 465.435 491.065C465.417 490.928 465.428 490.79 465.466 490.658C465.504 490.525 465.569 490.403 465.656 490.297C465.744 490.191 465.853 490.104 465.976 490.042C466.098 489.98 466.233 489.944 466.37 489.936C466.507 489.928 466.644 489.949 466.773 489.996C466.902 490.044 467.02 490.118 467.119 490.213C467.219 490.308 467.297 490.423 467.35 490.55C467.78 491.4 477.58 511.29 469.17 519.71C469.076 519.803 468.966 519.876 468.844 519.926C468.722 519.976 468.592 520.001 468.46 520Z" fill="black"/>
<path d="M485.46 517C485.288 517 485.118 516.954 484.968 516.869C484.818 516.784 484.693 516.662 484.605 516.514C484.516 516.366 484.467 516.197 484.463 516.025C484.459 515.853 484.499 515.682 484.58 515.53C491.19 503.25 478.81 487.79 478.68 487.63C478.597 487.528 478.536 487.41 478.498 487.284C478.461 487.157 478.449 487.025 478.463 486.894C478.477 486.763 478.516 486.636 478.579 486.521C478.642 486.405 478.728 486.303 478.83 486.22C478.933 486.137 479.05 486.076 479.177 486.038C479.303 486.001 479.435 485.989 479.566 486.003C479.697 486.017 479.824 486.057 479.939 486.12C480.055 486.182 480.157 486.268 480.24 486.37C480.78 487.04 493.57 503.04 486.34 516.47C486.255 516.63 486.128 516.763 485.973 516.857C485.818 516.95 485.641 517 485.46 517Z" fill="black"/>
<path d="M502.68 509.95H502.55C502.288 509.915 502.05 509.778 501.888 509.568C501.727 509.358 501.656 509.092 501.69 508.83C503.8 492.63 493.34 485.14 492.89 484.83C492.687 484.673 492.553 484.444 492.514 484.191C492.475 483.938 492.535 483.679 492.681 483.469C492.828 483.258 493.049 483.112 493.3 483.06C493.551 483.009 493.812 483.055 494.03 483.19C494.52 483.52 505.94 491.64 503.67 509.09C503.636 509.329 503.518 509.547 503.336 509.705C503.154 509.863 502.921 509.95 502.68 509.95Z" fill="black"/>
<path d="M440.406 483.433L434.409 496.437L436.225 497.274L442.222 484.271L440.406 483.433Z" fill="black"/>
<path d="M452.69 517C452.29 517 442.69 517 438.51 512.73C437.884 512.115 437.391 511.378 437.063 510.564C436.734 509.75 436.576 508.877 436.6 508H438.6C438.583 508.611 438.693 509.22 438.924 509.786C439.155 510.352 439.501 510.865 439.94 511.29C443.5 514.91 452.6 514.96 452.69 514.96V517Z" fill="black"/>
<path d="M176.96 475C178.893 475 180.46 473.433 180.46 471.5C180.46 469.567 178.893 468 176.96 468C175.027 468 173.46 469.567 173.46 471.5C173.46 473.433 175.027 475 176.96 475Z" fill="black"/>
<path d="M259.96 480C261.893 480 263.46 478.433 263.46 476.5C263.46 474.567 261.893 473 259.96 473C258.027 473 256.46 474.567 256.46 476.5C256.46 478.433 258.027 480 259.96 480Z" fill="black"/>
<path d="M427.46 532C429.117 532 430.46 530.657 430.46 529C430.46 527.343 429.117 526 427.46 526C425.803 526 424.46 527.343 424.46 529C424.46 530.657 425.803 532 427.46 532Z" fill="white"/>
<path d="M446.342 425.384L444.53 426.23L451.529 441.227L453.342 440.381L446.342 425.384Z" fill="black"/>
<path d="M470.374 423.836L468.376 440.839L470.363 441.072L472.36 424.069L470.374 423.836Z" fill="black"/>
<path d="M497.708 429.646L491.706 440.645L493.461 441.603L499.463 430.604L497.708 429.646Z" fill="black"/>
<path d="M474.94 569.72C475.269 570.515 475.846 571.183 476.584 571.624C477.323 572.065 478.184 572.257 479.04 572.17C481.34 571.82 483.692 572.107 485.84 573H500.64C500.29 572.077 500.065 571.112 499.97 570.13C499.64 566.39 502.1 563.44 504.55 561.47C505.212 560.921 505.68 560.173 505.883 559.337C506.087 558.501 506.016 557.622 505.68 556.83L502.29 548.73C502.29 548.73 495.29 533.59 497.73 519.5C494.173 519.793 490.649 520.402 487.2 521.32C488.62 529.11 491.62 541.32 491.62 541.32C489.93 536.4 486.71 524.73 485.86 521.63C483.86 522.17 481.61 522.85 479.21 523.7C480.304 526.962 481.136 530.306 481.7 533.7C480.832 530.376 479.587 527.162 477.99 524.12C476.85 524.55 475.7 524.99 474.5 525.49C472.3 526.42 470.28 527.37 468.41 528.32C471.2 534.4 473.41 541.88 474.1 543.07C471.77 538.5 467.67 533.37 464.94 530.19C460.998 532.337 457.294 534.895 453.89 537.82C465.66 545.94 471.54 561.55 471.54 561.55L474.94 569.72Z" fill="#47CEC0"/>
<path d="M502.629 549.251L471.636 561.566L472.375 563.425L503.368 551.11L502.629 549.251Z" fill="white"/>
<path d="M569.46 560.86L554.02 506.86L551.5 498.05L521.5 497.05C521.618 499.889 521.488 502.734 521.11 505.55L539.82 506.29L555.18 560.91H402.51L422.24 509.13L450.46 507.05C450.46 502.05 450.22 497.05 450.22 497.05L412.46 498.05L385.46 561.05H386.46V644.19H569.46V560.91V560.86Z" fill="#FCE054"/>
<path d="M556.46 585H397.46C397.195 585 396.94 584.895 396.753 584.707C396.565 584.52 396.46 584.265 396.46 584C396.46 583.735 396.565 583.48 396.753 583.293C396.94 583.105 397.195 583 397.46 583H556.46C556.725 583 556.979 583.105 557.167 583.293C557.355 583.48 557.46 583.735 557.46 584C557.46 584.265 557.355 584.52 557.167 584.707C556.979 584.895 556.725 585 556.46 585Z" fill="black"/>
<path d="M559.46 619H400.46C400.195 619 399.94 618.895 399.753 618.707C399.565 618.52 399.46 618.265 399.46 618C399.46 617.735 399.565 617.48 399.753 617.293C399.94 617.105 400.195 617 400.46 617H559.46C559.725 617 559.979 617.105 560.167 617.293C560.355 617.48 560.46 617.735 560.46 618C560.46 618.265 560.355 618.52 560.167 618.707C559.979 618.895 559.725 619 559.46 619Z" fill="black"/>
<path d="M566.67 532.5L558.45 529.36C558.169 529.253 557.864 529.225 557.568 529.278C557.273 529.33 556.997 529.463 556.77 529.66C555.825 530.482 554.675 531.031 553.442 531.25C552.209 531.468 550.94 531.348 549.77 530.901C548.601 530.454 547.574 529.698 546.801 528.713C546.028 527.729 545.537 526.552 545.38 525.31C545.352 525.016 545.244 524.734 545.067 524.496C544.891 524.258 544.654 524.073 544.38 523.96L535.27 520.47C535.27 520.47 517.04 514.24 503.75 528.81C503.613 528.96 503.529 529.151 503.51 529.353C503.491 529.556 503.537 529.759 503.643 529.932C503.749 530.106 503.908 530.24 504.097 530.315C504.286 530.391 504.494 530.403 504.69 530.35C511.24 528.5 526.49 525.35 529.57 535.35L527.85 539.84L519.76 561H531.33L537.95 543.7L538.89 541.25C539.454 539.699 540.576 538.414 542.037 537.647C543.498 536.88 545.193 536.685 546.79 537.1C546.984 537.15 547.175 537.213 547.36 537.29C548.531 537.735 549.558 538.49 550.332 539.475C551.105 540.46 551.595 541.637 551.75 542.88C551.779 543.175 551.887 543.456 552.063 543.694C552.239 543.932 552.477 544.117 552.75 544.23L560.97 547.38C561.207 547.458 561.464 547.445 561.691 547.343C561.919 547.242 562.1 547.058 562.2 546.83L567.2 533.7C567.271 533.47 567.257 533.222 567.159 533.001C567.062 532.781 566.888 532.603 566.67 532.5Z" fill="black"/>
<path d="M413.94 547.9C415.154 548.883 416.091 550.166 416.659 551.621C417.227 553.076 417.407 554.654 417.18 556.2C416.94 557.83 416.76 559.43 416.63 561H424.89C425.474 557.322 426.34 553.695 427.48 550.15C427.56 549.908 427.591 549.652 427.57 549.398C427.549 549.144 427.477 548.896 427.358 548.671C427.24 548.445 427.077 548.245 426.88 548.083C426.683 547.922 426.455 547.802 426.21 547.73L424.15 547.13L426.08 547.68L428.08 536.45L428 536.17C428.358 536.133 428.713 536.066 429.06 535.97C429.404 535.878 429.739 535.754 430.06 535.6C430.06 535.69 430.06 535.79 430.14 535.88L437.57 544.53L438.95 543.07L437.48 544.64C437.306 544.826 437.171 545.046 437.083 545.286C436.996 545.525 436.957 545.78 436.971 546.035C436.984 546.289 437.048 546.539 437.159 546.768C437.271 546.998 437.428 547.202 437.62 547.37C442.158 551.364 446.14 555.948 449.46 561H458.46C455.967 556.144 452.978 551.56 449.54 547.32C448.556 546.107 447.905 544.658 447.651 543.117C447.397 541.576 447.548 539.995 448.09 538.53L448.76 536.71C448.882 536.389 448.888 536.035 448.778 535.71C448.667 535.385 448.448 535.108 448.156 534.927C447.864 534.746 447.518 534.673 447.177 534.719C446.837 534.765 446.523 534.928 446.29 535.18L442.62 539.11L434.11 529.99C434.219 529.034 434.127 528.066 433.839 527.148C433.552 526.23 433.075 525.383 432.44 524.66L432.55 516.46C432.591 513.164 431.505 509.953 429.47 507.36L421.47 497.18L419.54 497.71C419.54 497.71 420.69 501.83 422.31 507.71C423.223 507.696 424.115 507.985 424.845 508.532C425.576 509.08 426.104 509.854 426.346 510.734C426.589 511.615 426.532 512.55 426.185 513.395C425.839 514.239 425.221 514.945 424.43 515.4C425.06 517.66 425.71 520.01 426.35 522.4C425.656 522.471 424.98 522.661 424.35 522.96C423.71 520.62 423.07 518.27 422.46 515.96C421.546 515.974 420.653 515.683 419.922 515.133C419.191 514.584 418.664 513.807 418.423 512.925C418.183 512.042 418.243 511.105 418.593 510.261C418.944 509.416 419.565 508.712 420.36 508.26L417.66 498.26L415.74 498.79L414.06 511.62C413.633 514.887 414.339 518.201 416.06 521.01L420.33 528.01C420.139 529.037 420.183 530.093 420.46 531.1C420.694 531.948 421.084 532.745 421.61 533.45L418.94 545.63L413.79 544.12C413.575 544.056 413.348 544.042 413.126 544.079C412.904 544.115 412.694 544.202 412.511 544.332C412.328 544.462 412.177 544.632 412.069 544.829C411.962 545.027 411.9 545.246 411.89 545.47C411.879 545.704 411.924 545.937 412.019 546.15C412.115 546.364 412.259 546.552 412.44 546.7L413.94 547.9Z" fill="black"/>
<path d="M532.46 151.5C532.107 151.5 531.766 151.375 531.496 151.148C531.227 150.921 531.045 150.606 530.984 150.259C530.923 149.912 530.987 149.554 531.163 149.249C531.34 148.944 531.619 148.71 531.95 148.59L605.95 121.59C606.139 121.507 606.343 121.464 606.549 121.464C606.755 121.463 606.959 121.505 607.148 121.587C607.337 121.669 607.508 121.789 607.649 121.939C607.79 122.09 607.898 122.268 607.967 122.462C608.036 122.657 608.064 122.863 608.049 123.069C608.035 123.274 607.978 123.475 607.883 123.658C607.787 123.84 607.655 124.002 607.495 124.131C607.334 124.26 607.149 124.355 606.95 124.41L532.95 151.41C532.793 151.467 532.627 151.497 532.46 151.5Z" fill="#FCE054"/>
<path d="M632.67 554.76L605.67 547.21L613.22 520.21L640.22 527.76L632.67 554.76ZM609.4 545.13L630.59 551.06L636.52 529.87L615.33 523.94L609.4 545.13Z" fill="#47CEC0"/>
<path d="M85.7556 263.129L83.9214 265.503L105.92 282.499L107.755 280.125L85.7556 263.129Z" fill="#47CEC0"/>
<path d="M245.96 118C243.883 118 241.853 117.384 240.127 116.23C238.4 115.077 237.054 113.437 236.259 111.518C235.465 109.6 235.257 107.488 235.662 105.452C236.067 103.415 237.067 101.544 238.535 100.075C240.004 98.6069 241.875 97.6069 243.912 97.2018C245.948 96.7966 248.059 97.0045 249.978 97.7992C251.897 98.594 253.537 99.9398 254.69 101.666C255.844 103.393 256.46 105.423 256.46 107.5C256.457 110.284 255.35 112.953 253.382 114.922C251.413 116.89 248.744 117.997 245.96 118ZM245.96 100C244.477 100 243.027 100.44 241.793 101.264C240.56 102.088 239.598 103.259 239.031 104.63C238.463 106 238.315 107.508 238.604 108.963C238.893 110.418 239.608 111.754 240.657 112.803C241.706 113.852 243.042 114.566 244.497 114.856C245.952 115.145 247.46 114.997 248.83 114.429C250.201 113.861 251.372 112.9 252.196 111.667C253.02 110.433 253.46 108.983 253.46 107.5C253.46 105.511 252.67 103.603 251.263 102.197C249.857 100.79 247.949 100 245.96 100Z" fill="#47CEC0"/>
</svg>
