<svg width="700" height="700" viewBox="0 0 700 700" fill="none" xmlns="http://www.w3.org/2000/svg">
<rect width="700" height="700" fill="white"/>
<path d="M641.68 478.66H200.68V291.66H641.68V478.66ZM204.68 474.66H637.68V295.66H204.68V474.66Z" fill="#EC87BF"/>
<path d="M322.68 201.82H63.26V343.82H322.68V201.82Z" fill="#CB93EE"/>
<path d="M304.28 335.32H37.5C37.1022 335.32 36.7206 335.162 36.4393 334.881C36.158 334.599 36 334.218 36 333.82V190.82C36 190.422 36.158 190.041 36.4393 189.759C36.7206 189.478 37.1022 189.32 37.5 189.32H304.28C304.678 189.32 305.059 189.478 305.341 189.759C305.622 190.041 305.78 190.422 305.78 190.82V333.82C305.78 334.218 305.622 334.599 305.341 334.881C305.059 335.162 304.678 335.32 304.28 335.32ZM39 332.32H302.78V192.32H39V332.32Z" fill="#FCE054"/>
<path d="M202.68 240.66H97.68C97.1496 240.66 96.6409 240.449 96.2658 240.074C95.8907 239.699 95.68 239.19 95.68 238.66C95.68 238.129 95.8907 237.621 96.2658 237.246C96.6409 236.871 97.1496 236.66 97.68 236.66H202.68C203.21 236.66 203.719 236.871 204.094 237.246C204.469 237.621 204.68 238.129 204.68 238.66C204.68 239.19 204.469 239.699 204.094 240.074C203.719 240.449 203.21 240.66 202.68 240.66Z" fill="white"/>
<path d="M202.68 266.66H97.68C97.1496 266.66 96.6409 266.449 96.2658 266.074C95.8907 265.699 95.68 265.19 95.68 264.66C95.68 264.129 95.8907 263.621 96.2658 263.246C96.6409 262.871 97.1496 262.66 97.68 262.66H202.68C203.21 262.66 203.719 262.871 204.094 263.246C204.469 263.621 204.68 264.129 204.68 264.66C204.68 265.19 204.469 265.699 204.094 266.074C203.719 266.449 203.21 266.66 202.68 266.66Z" fill="white"/>
<path d="M144.68 303.66H99.68C99.1496 303.66 98.6409 303.449 98.2658 303.074C97.8907 302.699 97.68 302.19 97.68 301.66C97.68 301.129 97.8907 300.621 98.2658 300.246C98.6409 299.871 99.1496 299.66 99.68 299.66H144.68C145.21 299.66 145.719 299.871 146.094 300.246C146.469 300.621 146.68 301.129 146.68 301.66C146.68 302.19 146.469 302.699 146.094 303.074C145.719 303.449 145.21 303.66 144.68 303.66Z" fill="white"/>
<path d="M553.01 374.91L545.45 397.83H535.68L560.43 324.98H571.78L596.68 397.83H586.68L578.9 374.91H553.01ZM576.9 367.57L569.77 346.57C568.14 341.81 567.06 337.49 565.98 333.27H565.77C564.69 337.59 563.5 342.03 562.09 346.46L554.96 367.54L576.9 367.57Z" fill="#EC87BF"/>
<path d="M612.68 422.66H519.68C519.415 422.66 519.16 422.554 518.973 422.367C518.785 422.179 518.68 421.925 518.68 421.66C518.68 421.395 518.785 421.14 518.973 420.953C519.16 420.765 519.415 420.66 519.68 420.66H612.68C612.945 420.66 613.2 420.765 613.387 420.953C613.575 421.14 613.68 421.395 613.68 421.66C613.68 421.925 613.575 422.179 613.387 422.367C613.2 422.554 612.945 422.66 612.68 422.66Z" fill="black"/>
<path d="M612.68 451.66H453.68C453.415 451.66 453.16 451.554 452.973 451.367C452.785 451.179 452.68 450.925 452.68 450.66C452.68 450.395 452.785 450.14 452.973 449.953C453.16 449.765 453.415 449.66 453.68 449.66H612.68C612.945 449.66 613.2 449.765 613.387 449.953C613.575 450.14 613.68 450.395 613.68 450.66C613.68 450.925 613.575 451.179 613.387 451.367C613.2 451.554 612.945 451.66 612.68 451.66Z" fill="black"/>
<path d="M635.68 316.66C648.383 316.66 658.68 306.362 658.68 293.66C658.68 280.957 648.383 270.66 635.68 270.66C622.977 270.66 612.68 280.957 612.68 293.66C612.68 306.362 622.977 316.66 635.68 316.66Z" fill="#FCE054"/>
<path d="M635.33 301.82C635.083 301.817 634.84 301.755 634.623 301.638C634.405 301.522 634.219 301.354 634.08 301.15L626.08 289.15C625.86 288.818 625.78 288.413 625.859 288.023C625.938 287.633 626.169 287.29 626.5 287.07C626.832 286.85 627.237 286.77 627.627 286.849C628.017 286.928 628.36 287.159 628.58 287.49L634.95 297.05C637.84 289.83 646.67 270.96 661.86 265.9C662.237 265.767 662.651 265.79 663.011 265.962C663.371 266.135 663.647 266.443 663.78 266.82C663.913 267.196 663.89 267.61 663.718 267.971C663.545 268.331 663.237 268.607 662.86 268.74C645.79 274.43 636.86 300.53 636.86 300.79C636.767 301.054 636.603 301.286 636.386 301.463C636.169 301.639 635.907 301.752 635.63 301.79L635.33 301.82Z" fill="black"/>
<path d="M469.56 195.16C473.88 172.93 487.13 143.82 499.47 141.8C511.81 139.78 534.62 147.45 533.57 153.95C532.52 160.45 509.09 156.7 509.09 156.7C509.09 156.7 556.68 127.7 527.68 213.7" fill="white"/>
<path d="M528.39 213.34L469.15 195.77C445.5 278.05 408.15 401.53 382.36 407.86H378.36C378.14 407.8 377.92 407.76 377.71 407.68L377.81 407.86C358.19 407.86 334.37 408.86 304.37 411.54C256.71 415.83 269.58 657.64 269.58 657.64H446.37C448.47 594.12 444.68 519.64 445.68 477.64C459.48 429.16 517.09 248.94 528.39 213.34Z" fill="white"/>
<path d="M446.37 658.62H269.55C269.293 658.62 269.046 658.522 268.86 658.345C268.674 658.168 268.563 657.926 268.55 657.67C268.03 647.76 256.18 414.85 304.25 410.53C331.7 408.06 355.55 406.85 377.11 406.84C377.241 406.749 377.392 406.69 377.55 406.669C377.709 406.649 377.87 406.666 378.02 406.72C378.13 406.76 378.244 406.79 378.36 406.81H378.45H382.24C409.47 399.74 452.12 251.36 468.19 195.45C468.227 195.323 468.288 195.205 468.37 195.102C468.452 194.999 468.554 194.913 468.67 194.85C468.903 194.724 469.176 194.695 469.43 194.77L528.68 212.38C528.807 212.418 528.926 212.48 529.029 212.564C529.132 212.648 529.217 212.752 529.279 212.869C529.342 212.987 529.38 213.115 529.392 213.248C529.404 213.38 529.39 213.513 529.35 213.64C527.83 218.43 525.47 225.84 522.49 235.2C503.39 295.2 458.67 435.74 446.69 477.81C446.27 495.58 446.69 519.71 447.19 545.24C447.85 580.77 448.59 621.04 447.38 657.65C447.372 657.912 447.262 658.16 447.073 658.341C446.884 658.523 446.632 658.623 446.37 658.62ZM270.5 656.62H445.4C446.57 620.31 445.83 580.47 445.18 545.28C444.7 519.66 444.26 495.46 444.68 477.64C444.67 477.557 444.67 477.473 444.68 477.39C456.62 435.39 501.41 294.7 520.54 234.6L527.08 214.01L469.79 197.01C442.29 292.62 407.6 402.69 382.56 408.82C382.477 408.83 382.393 408.83 382.31 408.82H378.31C378.224 408.834 378.136 408.834 378.05 408.82C377.96 408.831 377.87 408.831 377.78 408.82H377.46C355.87 408.82 331.97 410.02 304.46 412.5C285.54 414.2 273.66 456.98 270.1 536.2C267.55 592.34 270.12 648.68 270.5 656.62Z" fill="black"/>
<path d="M285.55 302.63C285.55 302.63 314.24 241.01 338.8 250C363.36 258.99 354.42 289.16 354.42 289.16L321.68 378.21C321.68 378.21 318.24 384.21 292.08 400.92C253.88 425.24 217.58 406.16 212.54 386.54C207.5 366.92 243.54 367.93 232.99 357.87C216.16 341.84 219.68 305.34 285.55 302.63Z" fill="#201000"/>
<path d="M328.68 409.66L321.68 378.21C321.68 378.21 302.68 369.21 299.68 357.44C299.68 357.44 269.03 368.1 260.09 349.53C251.15 330.96 264.09 316.53 277.54 320.01L290.97 323.51C290.97 323.51 312.48 315.2 305.14 292.05C305.14 292.05 335.64 259.17 358.38 288.11C381.12 317.05 393.71 344.42 388.56 356.87C383.41 369.32 366.79 374.98 366.79 374.98L373.68 408.66C373.68 408.66 366.44 437.52 328.68 409.66Z" fill="white"/>
<path d="M356.68 422.8C348.82 422.8 339.26 418.67 328.14 410.46C327.944 410.32 327.806 410.114 327.75 409.88L320.84 378.88C317.95 377.44 302.57 369.37 299.01 358.69C293.5 360.41 267.59 367.39 259.19 349.94C254.69 340.61 255.19 331.17 260.52 324.69C262.547 322.179 265.256 320.308 268.322 319.302C271.388 318.296 274.68 318.198 277.8 319.02L290.9 322.44C293.48 321.34 310.77 313.12 304.19 292.33C304.133 292.159 304.124 291.976 304.162 291.8C304.201 291.624 304.287 291.461 304.41 291.33C305.05 290.64 320.26 274.47 337.55 275.18C345.76 275.52 353.03 279.65 359.17 287.45C383.08 317.88 394.69 344.61 389.49 357.21C384.83 368.46 371.49 374.21 367.94 375.58L374.68 408.46C374.715 408.605 374.715 408.755 374.68 408.9C374.58 409.29 372.18 418.48 363.19 421.71C361.099 422.444 358.896 422.812 356.68 422.8ZM329.62 409.08C343.32 419.08 354.39 422.73 362.51 419.83C369.8 417.23 372.3 409.95 372.7 408.62L365.76 375.16C365.71 374.922 365.748 374.674 365.868 374.462C365.988 374.251 366.18 374.09 366.41 374.01C366.58 374.01 382.68 368.34 387.59 356.46C392.5 344.58 380.68 318.16 357.54 288.73C351.79 281.41 345.02 277.53 337.42 277.22C322.53 276.63 308.71 289.81 306.22 292.32C313.22 315.67 291.5 324.32 291.28 324.45C291.079 324.516 290.861 324.516 290.66 324.45L277.24 320.94C274.491 320.216 271.591 320.303 268.891 321.19C266.19 322.077 263.804 323.727 262.02 325.94C257.19 331.8 256.79 340.44 260.94 349.06C269.39 366.6 299 356.56 299.3 356.46C299.43 356.414 299.569 356.396 299.706 356.406C299.844 356.417 299.978 356.455 300.1 356.52C300.222 356.585 300.33 356.674 300.416 356.782C300.502 356.891 300.565 357.016 300.6 357.15C303.47 368.32 321.9 377.15 322.09 377.27C322.228 377.335 322.35 377.431 322.445 377.551C322.541 377.671 322.607 377.811 322.64 377.96L329.62 409.08Z" fill="black"/>
<path d="M359.59 331.91C359.339 331.912 359.096 331.819 358.91 331.65C358.716 331.47 358.6 331.221 358.589 330.957C358.578 330.693 358.671 330.435 358.85 330.24C361.85 326.91 363.09 323.49 362.41 320.07C360.61 311.07 346.71 304.51 346.57 304.45C346.33 304.337 346.145 304.134 346.055 303.884C345.965 303.635 345.977 303.36 346.09 303.12C346.203 302.882 346.405 302.699 346.652 302.609C346.899 302.519 347.171 302.53 347.41 302.64C348.02 302.92 362.41 309.64 364.41 319.64C365.23 323.73 363.87 327.74 360.41 331.56C360.31 331.678 360.183 331.77 360.041 331.831C359.899 331.892 359.744 331.919 359.59 331.91Z" fill="black"/>
<path d="M275.85 344.38C275.623 344.387 275.4 344.317 275.218 344.181C275.037 344.044 274.907 343.85 274.85 343.63C274.85 343.47 273.85 339.63 276.22 337.21C278.01 335.34 281.12 334.87 285.46 335.81C285.718 335.865 285.944 336.02 286.088 336.241C286.232 336.462 286.283 336.732 286.23 336.99C286.203 337.119 286.15 337.241 286.076 337.349C286.001 337.458 285.906 337.551 285.795 337.622C285.684 337.694 285.561 337.743 285.431 337.766C285.302 337.79 285.169 337.788 285.04 337.76C281.48 336.99 278.93 337.28 277.67 338.59C276.08 340.23 276.78 343.11 276.79 343.14C276.853 343.397 276.812 343.669 276.675 343.896C276.538 344.123 276.317 344.286 276.06 344.35C275.991 344.367 275.921 344.377 275.85 344.38Z" fill="black"/>
<path d="M308.8 304.37C308.617 304.372 308.437 304.323 308.28 304.23C308.054 304.093 307.891 303.872 307.827 303.615C307.763 303.358 307.804 303.087 307.94 302.86C309.461 300.551 311.778 298.882 314.45 298.17C314.703 298.118 314.967 298.165 315.185 298.303C315.404 298.441 315.561 298.658 315.623 298.909C315.685 299.16 315.648 299.425 315.518 299.649C315.389 299.873 315.178 300.038 314.93 300.11C312.777 300.708 310.906 302.051 309.65 303.9C309.56 304.044 309.435 304.163 309.286 304.245C309.137 304.327 308.97 304.37 308.8 304.37Z" fill="black"/>
<path d="M319.44 314.73C320.556 314.73 321.46 313.826 321.46 312.71C321.46 311.594 320.556 310.69 319.44 310.69C318.324 310.69 317.42 311.594 317.42 312.71C317.42 313.826 318.324 314.73 319.44 314.73Z" fill="#201000"/>
<path d="M348.41 297.55C349.526 297.55 350.43 296.646 350.43 295.53C350.43 294.414 349.526 293.51 348.41 293.51C347.294 293.51 346.39 294.414 346.39 295.53C346.39 296.646 347.294 297.55 348.41 297.55Z" fill="#201000"/>
<path d="M338.37 285.09C338.222 285.089 338.077 285.055 337.943 284.991C337.81 284.927 337.693 284.835 337.6 284.72C337.433 284.516 337.353 284.255 337.377 283.993C337.402 283.731 337.528 283.489 337.73 283.32C339.48 281.88 343.73 279.92 347.18 282.76C347.386 282.928 347.516 283.172 347.542 283.436C347.568 283.7 347.488 283.964 347.32 284.17C347.152 284.375 346.908 284.506 346.644 284.532C346.38 284.558 346.116 284.478 345.91 284.31C342.84 281.8 339.16 284.74 339 284.87C338.821 285.013 338.599 285.091 338.37 285.09Z" fill="black"/>
<path d="M292.29 344.62C292.129 344.62 291.97 344.58 291.827 344.506C291.684 344.431 291.562 344.322 291.47 344.19C281.04 329.28 268.19 334.55 268.06 334.6C267.939 334.652 267.809 334.679 267.678 334.681C267.546 334.683 267.416 334.659 267.294 334.61C267.172 334.561 267.06 334.489 266.966 334.397C266.872 334.305 266.797 334.196 266.745 334.075C266.693 333.954 266.666 333.824 266.664 333.693C266.662 333.561 266.686 333.431 266.735 333.308C266.784 333.186 266.856 333.075 266.948 332.981C267.04 332.887 267.149 332.812 267.27 332.76C267.41 332.7 281.75 326.81 293.11 343.05C293.261 343.267 293.319 343.536 293.272 343.797C293.225 344.057 293.077 344.288 292.86 344.44C292.693 344.557 292.494 344.619 292.29 344.62Z" fill="black"/>
<path d="M284.51 302.68C284.51 302.68 277.35 312.61 290.51 327.8C303.67 342.99 290.79 328.89 290.79 328.89L295.15 327.77C291.757 323.751 289.315 319.019 288.006 313.925C286.697 308.831 286.555 303.506 287.59 298.35L284.51 302.68Z" fill="white"/>
<path d="M527.17 171.42C526.17 178.7 536.17 183.66 537.96 175.01C539.75 166.36 548.76 140.87 541.84 140.01C534.92 139.15 531.32 150.51 529.48 159.15C527.64 167.79 527.17 171.42 527.17 171.42Z" fill="white"/>
<path d="M533.46 180.59C533.145 180.589 532.831 180.562 532.52 180.51C530.498 180.051 528.723 178.847 527.548 177.139C526.373 175.43 525.885 173.342 526.18 171.29C526.18 171.14 526.68 167.51 528.5 158.92C531.5 144.92 535.99 138.23 541.97 139C542.458 139.058 542.928 139.224 543.344 139.485C543.761 139.746 544.115 140.096 544.38 140.51C546.98 144.42 544.33 155.17 540.88 167.77C540.05 170.77 539.33 173.39 538.94 175.22C538.1 179.16 535.68 180.59 533.46 180.59ZM528.16 171.59C527.94 173.13 528.297 174.697 529.163 175.989C530.029 177.282 531.342 178.208 532.85 178.59C534.9 178.94 536.41 177.59 536.99 174.86C537.39 172.97 538.11 170.33 538.99 167.29C541.41 158.47 545.07 145.14 542.75 141.67C542.645 141.493 542.5 141.342 542.326 141.231C542.152 141.12 541.955 141.051 541.75 141.03C535.84 140.28 532.37 150.6 530.5 159.39C528.7 167.87 528.21 171.55 528.2 171.6L528.16 171.59Z" fill="black"/>
<path d="M515.09 166.92C514.14 174.19 524.09 179.16 525.88 170.51C527.67 161.86 536.68 136.37 529.76 135.51C522.84 134.65 519.23 146 517.4 154.65C515.57 163.3 515.09 166.92 515.09 166.92Z" fill="white"/>
<path d="M521.37 176.09C521.055 176.088 520.741 176.061 520.43 176.01C518.41 175.549 516.637 174.344 515.464 172.636C514.291 170.928 513.804 168.841 514.1 166.79C514.1 166.63 514.6 163.01 516.42 154.42C519.42 140.42 523.92 133.72 529.88 134.49C530.369 134.551 530.838 134.718 531.255 134.981C531.671 135.244 532.025 135.595 532.29 136.01C534.9 139.92 532.29 150.67 528.79 163.26C527.96 166.26 527.25 168.89 526.86 170.72C526.01 174.7 523.62 176.09 521.37 176.09ZM516.08 167.09C515.86 168.63 516.217 170.197 517.083 171.489C517.948 172.782 519.262 173.708 520.77 174.09C522.77 174.44 524.33 173.09 524.9 170.35C525.3 168.46 526.03 165.83 526.9 162.78C529.32 153.97 532.98 140.64 530.67 137.17C530.565 136.992 530.42 136.841 530.247 136.73C530.073 136.619 529.875 136.55 529.67 136.53C523.75 135.76 520.28 146.09 518.42 154.89C516.62 163.37 516.12 167.05 516.12 167.1L516.08 167.09Z" fill="black"/>
<path d="M502.61 161.87C501.61 169.54 512.05 174.78 513.99 165.66C515.93 156.54 525.38 129.66 518.07 128.72C510.76 127.78 506.98 139.79 505.07 148.91C503.16 158.03 502.61 161.87 502.61 161.87Z" fill="white"/>
<path d="M509.23 171.49C508.895 171.49 508.561 171.463 508.23 171.41C506.112 170.925 504.253 169.662 503.023 167.87C501.793 166.079 501.282 163.891 501.59 161.74C501.59 161.58 502.12 157.74 504.04 148.74C507.16 134.03 511.92 126.99 518.18 127.74C518.688 127.804 519.176 127.979 519.61 128.252C520.044 128.525 520.412 128.889 520.69 129.32C523.42 133.42 520.63 144.74 516.98 158.01C516.11 161.2 515.36 163.94 514.98 165.88C514.08 170.03 511.58 171.49 509.23 171.49ZM503.6 162C503.368 163.637 503.75 165.303 504.673 166.675C505.597 168.047 506.996 169.029 508.6 169.43C510.8 169.81 512.4 168.36 513.02 165.43C513.44 163.43 514.2 160.67 515.09 157.43C517.64 148.12 521.5 134.06 519.09 130.43C518.974 130.238 518.815 130.075 518.626 129.953C518.437 129.832 518.223 129.756 518 129.73C511.71 128.91 508 139.83 506.07 149.13C504.17 158.13 503.65 161.97 503.65 162.01L503.6 162Z" fill="black"/>
<path d="M480.85 162.71C478.39 176.38 492.8 181.11 496.79 164.57C500.78 148.03 517.97 97.6999 507.54 99.0999C497.11 100.5 490.06 122.79 486.07 139.33C482.08 155.87 480.85 162.71 480.85 162.71Z" fill="white"/>
<path d="M487.62 176.1C487.153 176.098 486.688 176.051 486.23 175.96C482.03 175.07 478.49 170.18 479.86 162.53C479.86 162.46 481.14 155.53 485.1 139.1C491.38 113.05 498.89 99.2497 507.41 98.0997C507.961 98.0038 508.527 98.053 509.053 98.2423C509.579 98.4317 510.047 98.7549 510.41 99.1798C514.59 104.01 508.96 125.18 501.76 150.31C500.07 156.18 498.62 161.25 497.76 164.79C495.84 172.77 491.51 176.1 487.62 176.1ZM481.83 162.89C480.68 169.28 483.38 173.31 486.65 174C489.92 174.69 493.98 172 495.82 164.34C496.68 160.75 498.14 155.66 499.82 149.77C504.63 132.99 512.69 104.9 508.88 100.49C508.732 100.319 508.54 100.192 508.325 100.121C508.11 100.051 507.88 100.04 507.66 100.09C500.14 101.09 493.01 114.75 487.02 139.57C483.09 155.88 481.83 162.82 481.81 162.89H481.83Z" fill="black"/>
<path d="M469.56 195.16C473.88 172.93 487.13 143.82 499.47 141.8C511.81 139.78 534.62 147.45 533.57 153.95C532.52 160.45 509.09 156.7 509.09 156.7C509.09 156.7 505.68 174.7 491.68 177.7" fill="white"/>
<path d="M469.56 196.16H469.37C469.24 196.135 469.117 196.084 469.007 196.011C468.897 195.938 468.803 195.844 468.729 195.734C468.656 195.625 468.605 195.502 468.579 195.372C468.554 195.243 468.554 195.109 468.58 194.98C472.58 174.25 485.87 143.03 499.31 140.83C509.31 139.19 526.79 143.83 532.64 149.61C534.15 151.12 534.8 152.61 534.56 154.13C533.49 160.8 515.63 158.7 509.95 157.86C509.32 161.76 506.16 175.3 492.57 179.02C492.317 179.079 492.052 179.037 491.83 178.904C491.607 178.771 491.445 178.556 491.378 178.306C491.31 178.056 491.343 177.789 491.468 177.562C491.593 177.335 491.802 177.166 492.05 177.09C506.54 173.09 508.05 156.8 508.05 156.63C508.062 156.493 508.102 156.361 508.167 156.24C508.233 156.12 508.322 156.014 508.43 155.93C508.538 155.846 508.662 155.784 508.794 155.75C508.927 155.716 509.065 155.709 509.2 155.73C518.52 157.23 531.92 157.62 532.53 153.82C532.67 153 532.21 152.06 531.17 151.03C526.24 146.11 509.72 141.14 499.58 142.8C488.43 144.63 475.02 172.06 470.49 195.37C470.444 195.586 470.328 195.78 470.159 195.923C469.991 196.066 469.78 196.149 469.56 196.16Z" fill="black"/>
<path d="M343.87 354.71C343.59 354.71 343.3 354.71 343.02 354.71C335.82 354.13 331.09 346.38 330.89 346.05C330.808 345.937 330.75 345.807 330.721 345.671C330.692 345.534 330.691 345.393 330.72 345.256C330.749 345.119 330.806 344.989 330.888 344.876C330.97 344.763 331.075 344.668 331.196 344.597C331.317 344.527 331.451 344.483 331.591 344.468C331.73 344.452 331.87 344.467 332.004 344.509C332.137 344.552 332.26 344.622 332.364 344.715C332.469 344.808 332.552 344.922 332.61 345.05C332.61 345.12 337.02 352.25 343.19 352.75C346.65 353.03 350.12 351.15 353.49 347.17C353.575 347.069 353.678 346.986 353.795 346.926C353.912 346.866 354.039 346.829 354.17 346.818C354.301 346.806 354.433 346.821 354.558 346.861C354.683 346.901 354.8 346.965 354.9 347.05C355.001 347.134 355.083 347.238 355.144 347.355C355.204 347.472 355.241 347.599 355.252 347.73C355.263 347.861 355.249 347.993 355.209 348.118C355.169 348.243 355.105 348.36 355.02 348.46C351.47 352.58 347.68 354.71 343.87 354.71Z" fill="black"/>
<path d="M288.68 497.66L299.68 491.66C299.68 491.66 301.68 514.66 288.68 497.66Z" fill="#EC87BF"/>
<path d="M370.96 639.39L369.44 639.14L275.03 623.91L289.27 498.82L299.27 491.82L389.38 502.37L370.96 639.39ZM278.33 621.39L368.4 635.91L385.99 504.91L300.04 494.85L292.09 500.44L278.33 621.39Z" fill="#EC87BF"/>
<path d="M380.599 509.06L288.656 497.885L272.13 633.855L364.073 645.03L380.599 509.06Z" fill="#EC87BF"/>
<path d="M369.649 516.072L298.175 507.385L296.003 525.254L367.477 533.941L369.649 516.072Z" fill="#47CEC0"/>
<path d="M376.61 553.33L398.03 555L396.68 568.66L375.23 567.05L376.61 553.33Z" fill="#47CEC0"/>
<path d="M328.68 409.66C328.68 409.66 265.46 399.29 229.88 473.56C194.3 547.83 168.5 591.64 218.28 609.29C268.06 626.94 296.35 622.56 333.88 631.24C371.41 639.92 382.57 641.81 381.48 634.74C380.39 627.67 346.93 621.98 346.93 621.98C346.93 621.98 387.46 626.58 386.37 619.51C385.28 612.44 348.83 610.83 348.83 610.83C348.83 610.83 392.34 611.34 391.25 604.27C390.16 597.2 350.72 599.68 350.72 599.68C350.72 599.68 394.24 600.19 393.15 593.12C392.06 586.05 341.47 586.63 341.47 586.63C341.47 586.63 365.68 579.27 368.68 575.16C371.68 571.05 266.41 569.24 247.1 561.37L286.5 486.16" fill="white"/>
<path d="M375.52 640.06C368.94 640.06 356.62 637.52 333.66 632.21C319.46 628.93 306.77 627.54 293.34 626.07C271.51 623.68 248.94 621.21 217.95 610.23C204.4 605.43 195.95 598.54 192.1 589.16C183.26 567.66 199.24 534.65 221.35 488.96C223.82 483.85 226.35 478.57 228.98 473.13C247.51 434.45 273.65 418.98 292.31 412.81C312.56 406.12 328.19 408.56 328.84 408.67C329.105 408.712 329.343 408.858 329.5 409.076C329.658 409.294 329.722 409.565 329.68 409.83C329.638 410.095 329.492 410.333 329.274 410.49C329.056 410.648 328.785 410.712 328.52 410.67C328.36 410.67 312.64 408.19 292.84 414.76C274.58 420.82 248.99 436.02 230.78 474.02C228.18 479.46 225.62 484.74 223.15 489.85C201.27 535.07 185.45 567.75 193.95 588.42C197.57 597.24 205.64 603.76 218.62 608.36C249.39 619.27 271.84 621.73 293.56 624.1C307.05 625.58 319.8 626.97 334.11 630.28C360.63 636.41 376.95 639.93 380.01 637.09C380.32 636.81 380.7 636.27 380.49 634.91C379.78 630.28 359.43 625.14 346.76 622.99C346.503 622.946 346.273 622.803 346.12 622.592C345.967 622.381 345.902 622.118 345.94 621.86C345.977 621.601 346.114 621.368 346.322 621.209C346.529 621.05 346.791 620.979 347.05 621.01C360.1 622.49 381.99 623.61 385.14 620.32C385.235 620.245 385.307 620.146 385.349 620.034C385.392 619.921 385.402 619.798 385.38 619.68C384.71 615.36 363.58 612.5 348.78 611.85C348.515 611.85 348.26 611.745 348.073 611.557C347.885 611.37 347.78 611.115 347.78 610.85C347.78 610.585 347.885 610.33 348.073 610.143C348.26 609.955 348.515 609.85 348.78 609.85C363.53 610.03 386.67 608.91 389.95 605.12C390.045 605.036 390.118 604.93 390.161 604.812C390.205 604.693 390.218 604.565 390.2 604.44C389.78 601.7 380.2 600.52 369.09 600.29C360.42 600.78 352.41 600.72 350.65 600.7C350.385 600.7 350.13 600.595 349.943 600.407C349.755 600.22 349.65 599.965 349.65 599.7C349.65 599.445 349.747 599.199 349.921 599.013C350.096 598.827 350.335 598.715 350.59 598.7C353.47 598.52 361.28 598.1 369.37 598.27C380.01 597.65 389.79 596.33 391.84 593.97C391.932 593.884 392.003 593.778 392.046 593.66C392.09 593.542 392.105 593.415 392.09 593.29C392 592.69 390.34 589.6 366.78 588.24C354.18 587.51 341.54 587.65 341.41 587.65C341.279 587.669 341.145 587.662 341.016 587.629C340.888 587.597 340.767 587.539 340.66 587.46C340.446 587.299 340.303 587.06 340.265 586.795C340.227 586.53 340.295 586.26 340.455 586.045C340.616 585.831 340.855 585.688 341.12 585.65C350.05 582.93 363.68 578.1 367.18 575.19C363.04 573.88 343.74 572.57 325.02 571.3C294.93 569.3 257.47 566.72 246.64 562.3C246.511 562.246 246.394 562.166 246.297 562.065C246.201 561.963 246.127 561.842 246.08 561.71C246.025 561.584 245.997 561.448 245.997 561.31C245.997 561.172 246.025 561.036 246.08 560.91L285.51 485.65C285.637 485.422 285.848 485.252 286.098 485.178C286.348 485.103 286.618 485.129 286.849 485.251C287.08 485.372 287.255 485.579 287.335 485.827C287.416 486.076 287.396 486.346 287.28 486.58L248.38 560.83C260.14 564.89 296.06 567.33 325.11 569.3C359.74 571.64 368.58 572.5 369.49 574.46C369.588 574.667 369.627 574.897 369.602 575.125C369.577 575.353 369.49 575.569 369.35 575.75C367.15 578.75 355.29 583.09 347.75 585.6C352.65 585.65 359.75 585.78 366.85 586.19C390.22 587.55 393.65 590.51 394.03 592.94C394.087 593.351 394.051 593.77 393.927 594.166C393.802 594.562 393.592 594.925 393.31 595.23C391.72 597.06 387.13 598.28 381.51 599.09C387.33 599.92 391.72 601.43 392.13 604.09C392.19 604.501 392.157 604.921 392.032 605.317C391.907 605.714 391.695 606.077 391.41 606.38C388.71 609.5 377.33 610.84 366.94 611.38C376.69 612.73 386.6 615.12 387.24 619.29C387.31 619.713 387.276 620.147 387.142 620.555C387.008 620.962 386.778 621.331 386.47 621.63C383.68 624.54 372.2 624.63 362.23 624.17C371.61 626.59 381.69 630.17 382.36 634.53C382.538 635.235 382.53 635.974 382.337 636.675C382.144 637.376 381.773 638.015 381.26 638.53C380.29 639.54 378.49 640.06 375.52 640.06Z" fill="black"/>
<path d="M305.68 627.47H305.52C305.39 627.449 305.265 627.403 305.153 627.334C305.04 627.265 304.943 627.174 304.866 627.067C304.789 626.961 304.733 626.839 304.703 626.711C304.673 626.583 304.669 626.45 304.69 626.32L313.69 569.46C313.731 569.195 313.876 568.957 314.092 568.798C314.309 568.64 314.58 568.574 314.845 568.615C315.11 568.656 315.348 568.801 315.507 569.017C315.665 569.234 315.731 569.505 315.69 569.77L306.69 626.63C306.651 626.868 306.528 627.085 306.342 627.239C306.157 627.393 305.921 627.475 305.68 627.47Z" fill="black"/>
<path d="M280.84 227.66H269.52C263.533 227.66 258.68 232.513 258.68 238.5V253.82C258.68 259.807 263.533 264.66 269.52 264.66H280.84C286.827 264.66 291.68 259.807 291.68 253.82V238.5C291.68 232.513 286.827 227.66 280.84 227.66Z" fill="white"/>
<path d="M354.68 484.66C354.492 484.659 354.307 484.606 354.148 484.505C353.989 484.404 353.861 484.26 353.78 484.09L318.53 409.59C318.423 409.351 318.414 409.079 318.506 408.834C318.597 408.588 318.781 408.388 319.018 408.277C319.255 408.165 319.526 408.151 319.774 408.238C320.021 408.325 320.224 408.505 320.34 408.74L354.68 481.21L386.81 404.68C386.924 404.455 387.12 404.281 387.357 404.194C387.594 404.107 387.855 404.112 388.088 404.21C388.321 404.307 388.508 404.49 388.612 404.719C388.717 404.949 388.73 405.21 388.65 405.45L355.65 484.05C355.575 484.227 355.45 484.38 355.29 484.488C355.13 484.596 354.943 484.656 354.75 484.66H354.68Z" fill="black"/>
<path d="M333.26 438.39L354.25 421.79L373.69 438.39" fill="white"/>
<path d="M333.27 439.39C333.063 439.391 332.86 439.327 332.69 439.208C332.521 439.088 332.392 438.919 332.323 438.724C332.254 438.528 332.247 438.316 332.304 438.116C332.361 437.917 332.478 437.74 332.64 437.61L353.64 421C353.819 420.853 354.043 420.772 354.275 420.772C354.507 420.772 354.731 420.853 354.91 421L374.35 437.6C374.552 437.772 374.676 438.018 374.697 438.282C374.718 438.547 374.632 438.808 374.46 439.01C374.288 439.212 374.042 439.336 373.778 439.357C373.513 439.378 373.252 439.292 373.05 439.12L354.24 423.05L333.89 439.16C333.713 439.301 333.496 439.382 333.27 439.39Z" fill="black"/>
<path d="M354.68 484.66C354.415 484.66 354.16 484.554 353.973 484.367C353.785 484.179 353.68 483.925 353.68 483.66V421.66C353.68 421.395 353.785 421.14 353.973 420.953C354.16 420.765 354.415 420.66 354.68 420.66C354.945 420.66 355.2 420.765 355.387 420.953C355.575 421.14 355.68 421.395 355.68 421.66V483.66C355.68 483.925 355.575 484.179 355.387 484.367C355.2 484.554 354.945 484.66 354.68 484.66Z" fill="black"/>
<path d="M284.91 624.88H284.81C284.678 624.867 284.551 624.829 284.434 624.767C284.317 624.705 284.214 624.62 284.131 624.518C284.047 624.415 283.984 624.297 283.946 624.171C283.909 624.044 283.896 623.911 283.91 623.78L289.68 567.7C289.708 567.438 289.838 567.197 290.042 567.031C290.246 566.864 290.508 566.785 290.77 566.81C290.902 566.822 291.029 566.861 291.146 566.923C291.263 566.985 291.366 567.07 291.449 567.172C291.533 567.274 291.596 567.392 291.634 567.519C291.671 567.646 291.684 567.778 291.67 567.91L285.9 623.99C285.873 624.234 285.757 624.459 285.575 624.623C285.392 624.788 285.156 624.879 284.91 624.88Z" fill="black"/>
<path d="M520.68 234.66C520.572 234.658 520.464 234.641 520.36 234.61L463.43 215.39C463.298 215.355 463.174 215.293 463.066 215.208C462.959 215.123 462.87 215.017 462.805 214.896C462.74 214.776 462.701 214.643 462.689 214.506C462.678 214.37 462.695 214.232 462.739 214.103C462.783 213.973 462.853 213.853 462.945 213.752C463.037 213.65 463.149 213.569 463.274 213.512C463.398 213.456 463.534 213.426 463.671 213.423C463.808 213.421 463.944 213.447 464.07 213.5L521 232.71C521.125 232.752 521.24 232.818 521.34 232.904C521.439 232.991 521.52 233.096 521.579 233.214C521.637 233.332 521.672 233.46 521.681 233.592C521.69 233.723 521.672 233.855 521.63 233.98C521.563 234.179 521.435 234.351 521.265 234.473C521.094 234.595 520.89 234.661 520.68 234.66Z" fill="black"/>
<path d="M477.68 213.66C479.889 213.66 481.68 211.869 481.68 209.66C481.68 207.451 479.889 205.66 477.68 205.66C475.471 205.66 473.68 207.451 473.68 209.66C473.68 211.869 475.471 213.66 477.68 213.66Z" fill="white"/>
<path d="M477.68 214.66C476.691 214.66 475.724 214.366 474.902 213.817C474.08 213.268 473.439 212.487 473.061 211.573C472.682 210.66 472.583 209.654 472.776 208.684C472.969 207.715 473.445 206.823 474.144 206.124C474.844 205.425 475.735 204.949 476.705 204.756C477.674 204.563 478.68 204.662 479.593 205.04C480.507 205.419 481.288 206.06 481.837 206.882C482.387 207.704 482.68 208.671 482.68 209.66C482.68 210.986 482.153 212.258 481.216 213.195C480.278 214.133 479.006 214.66 477.68 214.66ZM477.68 206.66C477.087 206.66 476.507 206.836 476.013 207.165C475.52 207.495 475.135 207.964 474.908 208.512C474.681 209.06 474.622 209.663 474.738 210.245C474.853 210.827 475.139 211.362 475.559 211.781C475.978 212.201 476.513 212.486 477.095 212.602C477.677 212.718 478.28 212.659 478.828 212.432C479.376 212.204 479.845 211.82 480.174 211.327C480.504 210.833 480.68 210.253 480.68 209.66C480.68 208.864 480.364 208.101 479.801 207.538C479.239 206.976 478.476 206.66 477.68 206.66Z" fill="black"/>
<path d="M302.18 582.66C304.113 582.66 305.68 581.093 305.68 579.16C305.68 577.227 304.113 575.66 302.18 575.66C300.247 575.66 298.68 577.227 298.68 579.16C298.68 581.093 300.247 582.66 302.18 582.66Z" fill="white"/>
<path d="M302.18 583.66C301.29 583.66 300.42 583.396 299.68 582.902C298.94 582.407 298.363 581.704 298.023 580.882C297.682 580.06 297.593 579.155 297.766 578.282C297.94 577.409 298.369 576.607 298.998 575.978C299.627 575.349 300.429 574.92 301.302 574.746C302.175 574.573 303.08 574.662 303.902 575.002C304.724 575.343 305.427 575.92 305.922 576.66C306.416 577.4 306.68 578.27 306.68 579.16C306.677 580.353 306.202 581.496 305.359 582.339C304.516 583.182 303.373 583.657 302.18 583.66ZM302.18 576.66C301.686 576.66 301.202 576.807 300.791 577.081C300.38 577.356 300.06 577.746 299.87 578.203C299.681 578.66 299.632 579.163 299.728 579.648C299.825 580.133 300.063 580.578 300.412 580.928C300.762 581.277 301.207 581.515 301.692 581.612C302.177 581.708 302.68 581.659 303.137 581.47C303.594 581.281 303.984 580.96 304.259 580.549C304.533 580.138 304.68 579.654 304.68 579.16C304.68 578.497 304.417 577.861 303.948 577.392C303.479 576.923 302.843 576.66 302.18 576.66Z" fill="black"/>
<path d="M528.68 214.66C528.526 214.664 528.373 214.633 528.233 214.569C528.092 214.504 527.969 214.408 527.872 214.288C527.775 214.168 527.708 214.027 527.674 213.876C527.641 213.726 527.643 213.57 527.68 213.42L541.29 158.25C541.317 158.118 541.371 157.993 541.447 157.883C541.524 157.772 541.622 157.678 541.736 157.606C541.85 157.534 541.977 157.487 542.11 157.465C542.243 157.444 542.379 157.449 542.509 157.482C542.64 157.514 542.763 157.572 542.87 157.653C542.978 157.734 543.068 157.836 543.135 157.952C543.203 158.069 543.246 158.198 543.262 158.332C543.278 158.465 543.267 158.601 543.23 158.73L529.68 213.9C529.625 214.122 529.496 214.318 529.314 214.457C529.132 214.595 528.908 214.667 528.68 214.66Z" fill="black"/>
<path d="M586.18 211.16C585.709 211.162 585.253 210.997 584.891 210.695C584.529 210.393 584.286 209.974 584.203 209.51C584.121 209.046 584.205 208.568 584.44 208.16C584.675 207.752 585.047 207.441 585.49 207.28L604.49 200.28C604.989 200.097 605.54 200.119 606.021 200.342C606.503 200.566 606.877 200.971 607.06 201.47C607.243 201.968 607.22 202.519 606.997 203.001C606.774 203.483 606.369 203.857 605.87 204.04L586.87 211.04C586.648 211.118 586.415 211.159 586.18 211.16Z" fill="#47CEC0"/>
<path d="M74.68 462.66C74.3821 462.665 74.0867 462.604 73.8155 462.481C73.5443 462.357 73.304 462.175 73.1123 461.947C72.9206 461.719 72.7823 461.451 72.7075 461.162C72.6327 460.874 72.6233 460.573 72.68 460.28L78.68 429.28C78.746 428.914 78.9129 428.573 79.162 428.296C79.4111 428.019 79.7325 427.818 80.0901 427.714C80.4476 427.61 80.827 427.608 81.1856 427.708C81.5443 427.808 81.8679 428.006 82.12 428.28L101.12 449.28C101.367 449.519 101.548 449.817 101.646 450.146C101.744 450.476 101.756 450.825 101.68 451.16C101.607 451.475 101.459 451.768 101.249 452.014C101.038 452.259 100.771 452.45 100.47 452.57L75.47 462.57C75.2147 462.65 74.9466 462.68 74.68 462.66ZM81.88 433.97L77.34 457.44L96.27 449.87L81.88 433.97Z" fill="#47CEC0"/>
<path d="M125.68 438.66C125.404 438.662 125.131 438.604 124.88 438.49C124.401 438.272 124.027 437.873 123.839 437.381C123.652 436.888 123.667 436.342 123.88 435.86L133.88 412.86C133.976 412.606 134.122 412.374 134.31 412.178C134.498 411.982 134.724 411.827 134.974 411.721C135.224 411.615 135.493 411.562 135.765 411.564C136.036 411.565 136.305 411.622 136.553 411.731C136.802 411.84 137.026 411.998 137.212 412.196C137.397 412.394 137.541 412.628 137.633 412.883C137.725 413.139 137.765 413.41 137.749 413.681C137.733 413.952 137.662 414.217 137.54 414.46L127.54 437.46C127.383 437.821 127.122 438.127 126.791 438.341C126.46 438.554 126.074 438.665 125.68 438.66Z" fill="#FCE054"/>
<path d="M585.83 591.51C594.114 591.51 600.83 584.794 600.83 576.51C600.83 568.226 594.114 561.51 585.83 561.51C577.546 561.51 570.83 568.226 570.83 576.51C570.83 584.794 577.546 591.51 585.83 591.51Z" fill="#CB93EE"/>
<path d="M548.68 581.66C548.215 581.67 547.761 581.518 547.396 581.23C547.031 580.941 546.778 580.535 546.68 580.08L537.68 538.08C537.625 537.822 537.621 537.557 537.668 537.298C537.716 537.039 537.814 536.792 537.957 536.571C538.1 536.35 538.285 536.159 538.502 536.01C538.719 535.86 538.963 535.755 539.22 535.7C539.477 535.645 539.743 535.641 540.002 535.689C540.261 535.736 540.508 535.834 540.729 535.977C540.95 536.12 541.141 536.305 541.29 536.522C541.439 536.738 541.545 536.983 541.6 537.24L550.6 579.24C550.656 579.497 550.66 579.763 550.613 580.022C550.566 580.282 550.468 580.529 550.324 580.75C550.181 580.971 549.996 581.162 549.779 581.311C549.562 581.46 549.318 581.565 549.06 581.62C548.935 581.645 548.808 581.659 548.68 581.66Z" fill="#47CEC0"/>
<path d="M236.68 115.58C232.724 115.58 228.858 114.407 225.569 112.209C222.28 110.012 219.716 106.888 218.202 103.234C216.689 99.5791 216.293 95.5578 217.064 91.6782C217.836 87.7986 219.741 84.2348 222.538 81.4378C225.335 78.6407 228.899 76.7358 232.778 75.9641C236.658 75.1924 240.679 75.5886 244.334 77.1023C247.988 78.6161 251.112 81.1795 253.309 84.4685C255.507 87.7575 256.68 91.6242 256.68 95.5798C256.664 100.879 254.552 105.957 250.805 109.705C247.057 113.452 241.979 115.564 236.68 115.58ZM236.68 77.5C233.12 77.5 229.64 78.5556 226.68 80.5335C223.72 82.5113 221.413 85.3225 220.05 88.6116C218.688 91.9007 218.331 95.5198 219.026 99.0115C219.72 102.503 221.435 105.71 223.952 108.228C226.469 110.745 229.677 112.46 233.168 113.154C236.66 113.849 240.279 113.492 243.568 112.13C246.857 110.767 249.669 108.46 251.646 105.5C253.624 102.54 254.68 99.0601 254.68 95.5C254.664 90.731 252.763 86.1618 249.39 82.7896C246.018 79.4173 241.449 77.5158 236.68 77.5Z" fill="black"/>
<path d="M325.68 115.58C321.724 115.58 317.858 114.407 314.569 112.209C311.28 110.012 308.716 106.888 307.202 103.234C305.689 99.5791 305.293 95.5578 306.064 91.6782C306.836 87.7986 308.741 84.2348 311.538 81.4378C314.335 78.6407 317.899 76.7358 321.778 75.9641C325.658 75.1924 329.679 75.5886 333.334 77.1023C336.988 78.6161 340.112 81.1795 342.309 84.4685C344.507 87.7575 345.68 91.6242 345.68 95.5798C345.664 100.879 343.552 105.957 339.805 109.705C336.057 113.452 330.979 115.564 325.68 115.58ZM325.68 77.5C322.12 77.5 318.64 78.5556 315.68 80.5335C312.72 82.5113 310.413 85.3225 309.05 88.6116C307.688 91.9007 307.331 95.5198 308.026 99.0115C308.72 102.503 310.435 105.71 312.952 108.228C315.469 110.745 318.677 112.46 322.168 113.154C325.66 113.849 329.279 113.492 332.568 112.13C335.857 110.767 338.669 108.46 340.646 105.5C342.624 102.54 343.68 99.0601 343.68 95.5C343.664 90.731 341.763 86.1618 338.39 82.7896C335.018 79.4173 330.449 77.5158 325.68 77.5Z" fill="black"/>
<path d="M420.32 115.58C416.364 115.58 412.498 114.407 409.209 112.209C405.92 110.012 403.356 106.888 401.842 103.234C400.329 99.5791 399.933 95.5578 400.704 91.6782C401.476 87.7986 403.381 84.2348 406.178 81.4378C408.975 78.6407 412.539 76.7358 416.418 75.9641C420.298 75.1924 424.319 75.5886 427.974 77.1023C431.628 78.6161 434.752 81.1795 436.949 84.4685C439.147 87.7575 440.32 91.6242 440.32 95.5798C440.304 100.879 438.192 105.957 434.445 109.705C430.697 113.452 425.619 115.564 420.32 115.58ZM420.32 77.5C416.76 77.5 413.28 78.5556 410.32 80.5335C407.36 82.5113 405.053 85.3225 403.69 88.6116C402.328 91.9007 401.971 95.5198 402.666 99.0115C403.36 102.503 405.075 105.71 407.592 108.228C410.109 110.745 413.317 112.46 416.808 113.154C420.3 113.849 423.919 113.492 427.208 112.13C430.497 110.767 433.309 108.46 435.286 105.5C437.264 102.54 438.32 99.0601 438.32 95.5C438.304 90.731 436.403 86.1618 433.03 82.7896C429.658 79.4173 425.089 77.5158 420.32 77.5Z" fill="black"/>
<path d="M124.86 125.66C141.749 125.66 155.44 111.969 155.44 95.0798C155.44 78.191 141.749 64.5 124.86 64.5C107.971 64.5 94.28 78.191 94.28 95.0798C94.28 111.969 107.971 125.66 124.86 125.66Z" fill="#47CEC0"/>
<path d="M535.86 114.66C552.749 114.66 566.44 100.969 566.44 84.0798C566.44 67.191 552.749 53.5 535.86 53.5C518.971 53.5 505.28 67.191 505.28 84.0798C505.28 100.969 518.971 114.66 535.86 114.66Z" fill="#FCE054"/>
<path d="M535.36 125.16C527.136 125.16 519.097 122.721 512.259 118.152C505.422 113.584 500.092 107.09 496.945 99.4921C493.798 91.8943 492.975 83.5339 494.579 75.4681C496.183 67.4024 500.143 59.9937 505.959 54.1786C511.774 48.3635 519.182 44.4033 527.248 42.7989C535.314 41.1946 543.674 42.0181 551.272 45.1652C558.87 48.3123 565.364 53.6416 569.933 60.4794C574.501 67.3172 576.94 75.3562 576.94 83.58C576.929 94.6044 572.545 105.174 564.75 112.97C556.954 120.765 546.384 125.149 535.36 125.16ZM535.36 45.0001C527.73 45.0001 520.271 47.2626 513.926 51.5018C507.582 55.7411 502.637 61.7665 499.717 68.816C496.797 75.8656 496.033 83.6228 497.521 91.1066C499.01 98.5904 502.684 105.465 508.08 110.86C513.475 116.256 520.35 119.93 527.833 121.419C535.317 122.907 543.074 122.143 550.124 119.223C557.173 116.303 563.199 111.358 567.438 105.014C571.677 98.6696 573.94 91.2104 573.94 83.58C573.927 73.352 569.858 63.5469 562.626 56.3146C555.393 49.0823 545.588 45.0134 535.36 45.0001Z" fill="#FCE054"/>
<path d="M202.68 96.6599H169.68C169.415 96.6599 169.16 96.5545 168.973 96.3669C168.785 96.1794 168.68 95.9251 168.68 95.6599C168.68 95.3947 168.785 95.1404 168.973 94.9529C169.16 94.7653 169.415 94.6599 169.68 94.6599H202.68C202.945 94.6599 203.2 94.7653 203.387 94.9529C203.575 95.1404 203.68 95.3947 203.68 95.6599C203.68 95.9251 203.575 96.1794 203.387 96.3669C203.2 96.5545 202.945 96.6599 202.68 96.6599Z" fill="black"/>
<path d="M296.68 95.6599H263.68C263.415 95.6599 263.16 95.5545 262.973 95.3669C262.785 95.1794 262.68 94.9251 262.68 94.6599C262.68 94.3947 262.785 94.1404 262.973 93.9529C263.16 93.7653 263.415 93.6599 263.68 93.6599H296.68C296.945 93.6599 297.2 93.7653 297.387 93.9529C297.575 94.1404 297.68 94.3947 297.68 94.6599C297.68 94.9251 297.575 95.1794 297.387 95.3669C297.2 95.5545 296.945 95.6599 296.68 95.6599Z" fill="black"/>
<path d="M387.68 96.6599H354.68C354.415 96.6599 354.16 96.5545 353.973 96.3669C353.785 96.1794 353.68 95.9251 353.68 95.6599C353.68 95.3947 353.785 95.1404 353.973 94.9529C354.16 94.7653 354.415 94.6599 354.68 94.6599H387.68C387.945 94.6599 388.2 94.7653 388.387 94.9529C388.575 95.1404 388.68 95.3947 388.68 95.6599C388.68 95.9251 388.575 96.1794 388.387 96.3669C388.2 96.5545 387.945 96.6599 387.68 96.6599Z" fill="black"/>
<path d="M492.68 96.6599H459.68C459.415 96.6599 459.16 96.5545 458.973 96.3669C458.785 96.1794 458.68 95.9251 458.68 95.6599C458.68 95.3947 458.785 95.1404 458.973 94.9529C459.16 94.7653 459.415 94.6599 459.68 94.6599H492.68C492.945 94.6599 493.2 94.7653 493.387 94.9529C493.575 95.1404 493.68 95.3947 493.68 95.6599C493.68 95.9251 493.575 96.1794 493.387 96.3669C493.2 96.5545 492.945 96.6599 492.68 96.6599Z" fill="black"/>
<path d="M236.68 102.66C236.351 102.659 236.028 102.578 235.739 102.423C235.449 102.267 235.202 102.043 235.02 101.77L227.02 89.77C226.76 89.3299 226.678 88.8068 226.791 88.3083C226.905 87.8098 227.205 87.3738 227.63 87.0896C228.055 86.8054 228.573 86.6946 229.077 86.7803C229.581 86.8659 230.033 87.1412 230.34 87.5498L236.19 96.3298C239.44 88.4898 248.25 70.69 263.05 65.76C263.554 65.5929 264.104 65.6327 264.578 65.8708C265.053 66.109 265.413 66.5261 265.58 67.03C265.747 67.5339 265.707 68.0834 265.469 68.5578C265.231 69.0323 264.814 69.3927 264.31 69.5598C247.48 75.1698 238.66 101.03 238.58 101.29C238.461 101.646 238.244 101.962 237.954 102.201C237.664 102.439 237.313 102.592 236.94 102.64L236.68 102.66Z" fill="#47CEC0"/>
<path d="M325.68 102.66C325.351 102.659 325.028 102.578 324.739 102.423C324.449 102.267 324.202 102.043 324.02 101.77L316.02 89.77C315.76 89.3299 315.678 88.8068 315.792 88.3083C315.905 87.8098 316.205 87.3738 316.63 87.0896C317.055 86.8054 317.573 86.6946 318.077 86.7803C318.581 86.8659 319.033 87.1412 319.34 87.5498L325.19 96.3298C328.44 88.4898 337.25 70.69 352.05 65.76C352.554 65.5929 353.104 65.6327 353.578 65.8708C354.052 66.109 354.413 66.5261 354.58 67.03C354.747 67.5339 354.707 68.0834 354.469 68.5578C354.231 69.0323 353.814 69.3927 353.31 69.5598C336.48 75.1698 327.66 101.03 327.58 101.29C327.461 101.646 327.244 101.962 326.954 102.201C326.664 102.439 326.313 102.592 325.94 102.64L325.68 102.66Z" fill="#47CEC0"/>
<path d="M420.68 102.66C420.351 102.659 420.028 102.578 419.739 102.423C419.449 102.267 419.202 102.043 419.02 101.77L411.02 89.77C410.76 89.3299 410.678 88.8068 410.791 88.3083C410.905 87.8098 411.205 87.3738 411.63 87.0896C412.055 86.8054 412.573 86.6946 413.077 86.7803C413.581 86.8659 414.033 87.1412 414.34 87.5498L420.19 96.3298C423.44 88.4898 432.25 70.69 447.05 65.76C447.554 65.5929 448.104 65.6327 448.578 65.8708C449.052 66.109 449.413 66.5261 449.58 67.03C449.747 67.5339 449.707 68.0834 449.469 68.5578C449.231 69.0323 448.814 69.3927 448.31 69.5598C431.48 75.1698 422.66 101.03 422.58 101.29C422.461 101.646 422.244 101.962 421.954 102.201C421.664 102.439 421.313 102.592 420.94 102.64L420.68 102.66Z" fill="#47CEC0"/>
<path d="M125.18 84.1599L115.18 104.16H135.18L125.18 84.1599Z" fill="white"/>
<path d="M545.68 74.6599H526.68V93.6599H545.68V74.6599Z" fill="white"/>
</svg>
