<svg width="700" height="700" viewBox="0 0 700 700" fill="none" xmlns="http://www.w3.org/2000/svg">
<rect width="700" height="700" fill="white"/>
<path d="M441.5 434.458H121.5V186.458H441.5V434.458ZM123.5 432.458H439.5V188.458H123.5V432.458Z" fill="black"/>
<path d="M392.58 526.368L216.5 520.458C216.336 520.451 216.175 520.406 216.03 520.328L95.0301 451.328C94.9158 451.263 94.8156 451.175 94.7351 451.071C94.6547 450.966 94.5957 450.847 94.5613 450.72C94.527 450.593 94.518 450.46 94.5349 450.329C94.5519 450.199 94.5943 450.072 94.6599 449.958C94.7256 449.844 94.8131 449.744 94.9175 449.663C95.0219 449.583 95.1411 449.524 95.2683 449.489C95.3956 449.455 95.5283 449.446 95.659 449.463C95.7896 449.48 95.9158 449.523 96.0301 449.588L216.81 518.468L392.64 524.368C392.905 524.368 393.16 524.474 393.347 524.661C393.535 524.849 393.64 525.103 393.64 525.368C393.64 525.633 393.535 525.888 393.347 526.075C393.16 526.263 392.905 526.368 392.64 526.368H392.58Z" fill="black"/>
<path d="M467.5 451.458H95.5C95.2348 451.458 94.9805 451.353 94.793 451.165C94.6054 450.978 94.5 450.723 94.5 450.458V168.458C94.5 168.193 94.6054 167.939 94.793 167.751C94.9805 167.564 95.2348 167.458 95.5 167.458H467.5C467.765 167.458 468.02 167.564 468.207 167.751C468.395 167.939 468.5 168.193 468.5 168.458V450.458C468.5 450.723 468.395 450.978 468.207 451.165C468.02 451.353 467.765 451.458 467.5 451.458ZM96.5 449.458H466.5V169.458H96.5V449.458Z" fill="black"/>
<path d="M330.21 419.458L487.21 497.958L392.12 576.458L184.26 454.838" fill="#CB93EE"/>
<path d="M392.22 577.678L183.76 455.698L184.77 453.978L392.02 575.238L485.39 498.168L329.76 420.348L330.65 418.568L489.03 497.748L392.22 577.678Z" fill="white"/>
<path d="M196.5 253.038C162.5 252.228 124.12 235.898 114.98 219.898C101.98 197.138 101.98 176.988 101.98 176.988C101.98 176.988 28.52 181.538 43.47 257.608C58.42 333.678 35.02 340.178 35.02 340.178C35.02 340.178 76.7899 385.468 126.69 366.178C211.9 333.218 191.32 255.258 196.5 253.038Z" fill="#ED5564"/>
<path d="M249.36 242.218L249.51 242.008L247.66 242.328L249.36 242.218Z" fill="#CB93EE"/>
<path d="M247.73 243.328L247.49 241.338L251.69 240.608L249.91 243.188L247.73 243.328Z" fill="white"/>
<path d="M152.36 293.388C131.92 293.388 114.24 286.298 101.01 278.548C86.2354 269.745 73.0813 258.471 62.1201 245.218L63.71 243.998C74.5214 257.068 87.5008 268.18 102.08 276.848C123.72 289.528 157.54 300.388 195.73 280.128L196.67 281.898C181 290.208 166.06 293.388 152.36 293.388Z" fill="white"/>
<path d="M114.91 323.958C99.0299 323.958 88.0401 319.498 87.5601 319.298L88.3301 317.448C97.6263 320.763 107.467 322.283 117.33 321.928C132.76 321.468 155.39 316.198 175.61 293.658L177.1 294.988C156.38 318.088 133.1 323.478 117.3 323.928L114.91 323.958Z" fill="white"/>
<path d="M327.2 454.838C327.2 453.788 327.27 452.758 327.3 451.718C332.22 451.178 341.91 445.978 358.56 431.448C368.02 423.188 376.74 416.368 385.64 409.108C401.599 396.374 416.517 382.386 430.25 367.278C459.25 335.468 431.65 310.458 372.81 278.128C326.51 252.698 294.39 251.008 283.24 251.378C262.406 250.928 241.563 251.595 220.8 253.378V252.278C206.33 252.798 176.93 257.058 136.97 279.008C78.1299 311.328 50.4999 336.348 79.5199 368.148C99.4599 389.988 114.66 402.358 129.9 414.648L122.12 380.498L156.29 377.628C138.42 366.378 120.51 354.628 115.61 348.768L186.82 307.288C178.33 366.738 183.02 454.798 183.02 454.798L327.2 454.838ZM322.28 307.958L394.17 347.888C389.12 353.968 370.17 366.248 351.78 377.818C343.29 383.148 334.92 388.328 328.05 392.688" fill="#CB93EE"/>
<path d="M156.58 377.828C165.58 383.478 174.51 389.008 181.77 393.618C181.77 397.968 181.77 398.888 181.77 404.618C179.134 404.21 176.627 403.204 174.44 401.678C174.44 401.678 210.44 422.248 208.51 427.748C206.58 433.248 175.51 416.178 175.51 416.178C175.51 416.178 204.81 429.538 202.88 435.048C200.95 440.558 169.88 423.468 169.88 423.468C169.88 423.468 195.47 438.618 193.54 444.118C191.61 449.618 164.23 430.758 164.23 430.758C164.23 430.758 189.02 445.988 186.41 451.208C184.57 454.878 174.96 453.058 151.3 432.408C143.48 425.578 136.17 419.728 128.84 413.808L122.2 380.578L156.58 377.828Z" fill="#CB93EE"/>
<path d="M183.32 453.688C177.32 453.688 166.07 446.628 150.6 433.118C143.48 426.908 136.68 421.418 130.11 416.118L128.17 414.548C127.989 414.402 127.866 414.196 127.82 413.968L121.18 380.738C121.153 380.6 121.155 380.458 121.187 380.32C121.218 380.183 121.279 380.054 121.364 379.942C121.448 379.829 121.556 379.736 121.68 379.668C121.803 379.601 121.94 379.56 122.08 379.548L156.5 376.838C156.717 376.819 156.935 376.872 157.12 376.988C161.12 379.488 165.12 381.988 168.9 384.358C173.7 387.358 178.26 390.208 182.31 392.778C182.451 392.869 182.567 392.993 182.647 393.14C182.728 393.286 182.77 393.451 182.77 393.618C182.77 397.968 182.77 398.888 182.77 404.618C182.769 404.871 182.673 405.114 182.5 405.298C185.55 407.158 189.18 409.428 192.75 411.808C208.85 422.528 210.14 426.128 209.45 428.068C209.33 428.414 209.132 428.728 208.872 428.987C208.612 429.245 208.297 429.44 207.95 429.558C206.24 430.218 202.95 429.558 199.01 428.198C202.39 430.838 204.5 433.388 203.81 435.368C203.684 435.711 203.483 436.022 203.221 436.278C202.96 436.534 202.646 436.729 202.3 436.848C199.3 437.988 191.51 435.088 184.2 431.778C190.2 436.288 195.53 441.348 194.45 444.448C194.324 444.803 194.116 445.122 193.843 445.381C193.57 445.64 193.24 445.831 192.88 445.938C190.88 446.578 187.1 445.248 182.81 443.158C186.2 446.408 188.33 449.518 187.26 451.648C186.999 452.175 186.616 452.631 186.143 452.979C185.67 453.327 185.12 453.556 184.54 453.648C184.135 453.698 183.727 453.712 183.32 453.688ZM129.71 413.218L131.36 414.558C137.96 419.878 144.77 425.378 151.91 431.558C174.15 450.968 181.91 452.018 184.16 451.558C184.435 451.529 184.698 451.433 184.927 451.277C185.155 451.122 185.342 450.913 185.47 450.668C186.53 448.568 179.77 442.468 171.3 436.528C167.77 434.318 164.88 432.358 163.63 431.528C163.52 431.457 163.425 431.364 163.35 431.256C163.276 431.147 163.223 431.025 163.196 430.897C163.168 430.768 163.167 430.636 163.19 430.506C163.214 430.377 163.263 430.254 163.335 430.143C163.407 430.033 163.499 429.938 163.607 429.863C163.716 429.789 163.838 429.736 163.966 429.709C164.095 429.682 164.228 429.68 164.357 429.704C164.486 429.728 164.61 429.777 164.72 429.848C166.48 430.928 169.38 432.768 172.54 434.958C180.63 439.958 189.68 444.828 192.26 443.958C192.329 443.947 192.394 443.916 192.447 443.871C192.499 443.825 192.539 443.765 192.56 443.698C193.56 440.778 181.3 431.328 169.33 424.238C169.099 424.106 168.931 423.887 168.861 423.63C168.792 423.373 168.827 423.099 168.96 422.868C169.093 422.638 169.311 422.469 169.568 422.4C169.825 422.33 170.099 422.366 170.33 422.498C180.44 428.058 197.87 436.328 201.6 434.898C201.87 434.798 201.91 434.678 201.93 434.618C202.6 432.718 196.59 428.328 188.46 423.768C182.03 420.768 176.27 417.658 175.01 416.968C174.782 416.843 174.612 416.635 174.536 416.386C174.459 416.138 174.482 415.87 174.6 415.638C174.716 415.407 174.918 415.23 175.162 415.144C175.406 415.058 175.674 415.07 175.91 415.178C178.79 416.488 184.3 419.088 189.68 422.108C197.46 425.688 204.95 428.488 207.25 427.608C207.52 427.508 207.56 427.388 207.58 427.328C207.67 427.058 208.05 424.328 191.66 413.398C185.78 409.478 179.74 405.848 176.46 403.908C175.536 403.491 174.658 402.978 173.84 402.378C173.636 402.225 173.498 401.999 173.455 401.747C173.413 401.495 173.468 401.236 173.61 401.023C173.752 400.811 173.97 400.661 174.219 400.604C174.468 400.547 174.73 400.588 174.95 400.718L177.35 402.118C178.447 402.641 179.597 403.043 180.78 403.318C180.78 398.898 180.78 397.698 180.78 394.118C176.86 391.628 172.46 388.888 167.85 386.008L156.34 378.808L123.34 381.398L129.71 413.218Z" fill="white"/>
<path d="M234.83 252.418C234.83 252.418 229.48 242.958 219.39 246.628C209.3 250.298 208.02 255.058 208.02 255.058L224.89 271.388L234.83 252.418Z" fill="#ED5564"/>
<path d="M299.83 251.818C299.83 251.818 296 241.638 285.47 243.698C274.94 245.758 272.93 250.278 272.93 250.278L287.08 269.018L299.83 251.818Z" fill="#ED5564"/>
<path d="M223.97 275.978C228.532 275.978 232.23 272.28 232.23 267.718C232.23 263.156 228.532 259.458 223.97 259.458C219.408 259.458 215.71 263.156 215.71 267.718C215.71 272.28 219.408 275.978 223.97 275.978Z" fill="white"/>
<path d="M286.35 274.148C290.912 274.148 294.61 270.45 294.61 265.888C294.61 261.326 290.912 257.628 286.35 257.628C281.788 257.628 278.09 261.326 278.09 265.888C278.09 270.45 281.788 274.148 286.35 274.148Z" fill="white"/>
<path d="M115.74 401.718C115.509 401.724 115.283 401.649 115.101 401.507C114.918 401.365 114.791 401.164 114.74 400.938L108.32 371.588C108.289 371.447 108.289 371.3 108.32 371.158C108.351 371.017 108.412 370.884 108.5 370.768C108.587 370.652 108.698 370.556 108.826 370.487C108.954 370.418 109.095 370.377 109.24 370.368L139.51 368.538C139.765 368.538 140.011 368.635 140.197 368.81C140.383 368.984 140.495 369.224 140.51 369.478C140.524 369.74 140.434 369.997 140.26 370.194C140.086 370.39 139.842 370.51 139.58 370.528L110.5 372.298L116.68 400.508C116.708 400.637 116.71 400.77 116.687 400.899C116.663 401.029 116.614 401.153 116.542 401.263C116.471 401.374 116.378 401.469 116.27 401.544C116.161 401.618 116.039 401.671 115.91 401.698C115.854 401.711 115.797 401.718 115.74 401.718Z" fill="white"/>
<path d="M367.06 368.618L394.58 367.698L396.63 399.958" fill="#CB93EE"/>
<path d="M395.64 400.018L393.65 368.728L367.1 369.618L367.03 367.618L395.52 366.668L397.63 399.888L395.64 400.018Z" fill="white"/>
<path d="M115.74 349.438C115.497 349.438 115.262 349.349 115.08 349.188L106.82 341.848C106.722 341.761 106.641 341.655 106.584 341.537C106.526 341.418 106.492 341.29 106.484 341.158C106.477 341.027 106.495 340.895 106.538 340.771C106.581 340.646 106.648 340.532 106.735 340.433C106.823 340.335 106.928 340.254 107.047 340.197C107.165 340.139 107.294 340.106 107.425 340.098C107.556 340.09 107.688 340.108 107.812 340.151C107.937 340.194 108.052 340.261 108.15 340.348L116.4 347.688C116.552 347.823 116.66 348 116.709 348.197C116.758 348.394 116.746 348.601 116.674 348.791C116.603 348.981 116.475 349.145 116.308 349.26C116.141 349.376 115.943 349.438 115.74 349.438Z" fill="white"/>
<path d="M403.021 340.156L393.848 347.5L395.098 349.061L404.271 341.718L403.021 340.156Z" fill="white"/>
<path d="M208.62 160.878C208.62 160.878 237.06 113.318 256.22 122.678C275.38 132.038 265.59 155.678 265.59 155.678L231.5 225.198C231.5 225.198 228.21 229.808 205.59 241.118C172.59 257.628 144.74 239.118 142.3 222.778C139.86 206.438 169 210.288 161.3 201.248C149.05 186.828 155.01 157.538 208.62 160.878Z" fill="#CB93EE"/>
<path d="M179.78 248.548C172.348 248.602 165.013 246.859 158.4 243.468C149.05 238.608 142.52 230.728 141.35 222.918C139.89 213.158 148.71 210.018 155.16 207.728C158.16 206.658 161.25 205.558 161.6 204.228C161.75 203.658 161.41 202.878 160.6 201.898C157.696 198.6 155.827 194.519 155.228 190.166C154.629 185.812 155.325 181.379 157.23 177.418C160.97 169.948 172.55 157.768 208.1 159.838C211.45 154.368 237.81 112.558 256.69 121.778C276.47 131.438 266.69 155.838 266.55 156.088L232.43 225.708L232.38 225.778C232.24 225.978 228.69 230.728 206.11 242.018C197.96 246.21 188.945 248.446 179.78 248.548ZM200.72 161.628C179.38 161.628 164.37 167.558 158.99 178.318C157.259 181.926 156.631 185.964 157.185 189.927C157.738 193.89 159.448 197.602 162.1 200.598C163.4 202.128 163.87 203.488 163.53 204.748C162.91 207.088 159.78 208.198 155.83 209.608C149.4 211.898 142.11 214.488 143.33 222.608C144.4 229.798 150.53 237.098 159.33 241.668C172.71 248.668 189.42 248.088 205.19 240.208C225.79 229.908 230.24 225.208 230.7 224.638L264.7 155.248C265.06 154.368 273.88 132.388 255.79 123.558C237.7 114.728 209.79 160.898 209.48 161.368L209.17 161.888H208.56C205.86 161.708 203.24 161.628 200.72 161.628Z" fill="white"/>
<path d="M207.77 160.828C207.77 160.828 201.13 168.278 210.55 181.708C219.97 195.138 210.69 182.618 210.69 182.618L214.32 182.068C211.905 178.525 210.322 174.483 209.688 170.242C209.054 166.001 209.387 161.672 210.66 157.578L207.77 160.828Z" fill="white"/>
<path d="M235.21 255.588L231.5 225.198C231.5 225.198 216.84 216.278 215.38 206.498C215.38 206.498 189.64 212.568 183.95 196.758C178.26 180.948 189.95 170.308 200.58 174.288L211.17 178.288C211.17 178.288 229.31 173.358 225.31 153.968C225.31 153.968 252.81 129.878 268.81 155.248C284.81 180.618 292.73 203.878 287.5 213.538C282.27 223.198 268.32 226.398 268.32 226.398L271.02 250.268C271.02 250.268 263.5 281.358 235.21 255.588Z" fill="#CB93EE"/>
<path d="M255.05 266.808C249.05 266.808 242.19 263.298 234.54 256.328L234.27 256.078L230.61 225.788C228.22 224.268 216.73 216.558 214.61 207.688C209.61 208.688 188.35 211.908 183.02 197.098C180.13 189.098 181.34 181.388 186.26 176.538C188.138 174.646 190.523 173.339 193.128 172.773C195.733 172.206 198.446 172.406 200.94 173.348L211.22 177.208C213.57 176.468 227.87 171.208 224.34 154.138L224.22 153.568L224.66 153.188C225.24 152.678 238.98 140.788 253.04 142.828C259.73 143.828 265.32 147.828 269.67 154.688C286.53 181.428 293.67 204.148 288.39 213.988C283.72 222.628 272.64 226.228 269.39 227.118L272.01 250.308V250.478C271.88 250.998 268.79 263.258 259.2 266.188C257.855 266.599 256.456 266.808 255.05 266.808ZM236.16 255.098C244.97 263.048 252.53 266.098 258.64 264.278C266.58 261.858 269.64 251.588 270.05 250.168L267.27 225.588L268.14 225.388C268.28 225.388 281.72 222.178 286.67 213.038C291.62 203.898 284.24 181.488 268.01 155.748C264.01 149.378 258.86 145.748 252.78 144.808C240.97 143.098 228.87 152.348 226.45 154.328C230.1 173.918 211.66 179.168 211.45 179.218L211.14 179.308L200.25 175.218C198.116 174.418 195.797 174.25 193.571 174.736C191.344 175.223 189.306 176.341 187.7 177.958C183.35 182.258 182.31 189.158 184.93 196.418C190.25 211.208 214.93 205.588 215.2 205.528L216.25 205.278L216.41 206.358C217.79 215.548 231.92 224.258 232.06 224.358L232.48 224.608L236.16 255.098Z" fill="white"/>
<path d="M225.5 167.658C228.66 163.438 232.88 162.388 243.42 161.328C253.96 160.268 264.49 149.758 267.66 155.548C270.83 161.338 271.89 169.768 262.4 167.658C252.91 165.548 242.4 182.418 234.99 182.418C227.58 182.418 221.84 172.578 225.5 167.658Z" fill="#ED5564"/>
<path d="M252.41 225.528C252.41 225.528 262.5 229.448 272.13 225.198L252.41 225.528Z" fill="#CB93EE"/>
<path d="M262.24 228.188C258.769 228.198 255.323 227.613 252.05 226.458L252.77 224.598C252.87 224.598 262.61 228.308 271.72 224.278L272.53 226.108C269.282 227.511 265.777 228.22 262.24 228.188Z" fill="white"/>
<path d="M304.62 251.078C304.62 251.078 312.01 293.828 323.04 308.308C323.04 308.308 310.64 243.188 340.41 223.018C340.41 223.018 308.83 228.368 304.62 251.078Z" fill="#ED5564"/>
<path d="M204.59 252.698C204.59 252.698 197.78 295.538 186.94 310.178C186.94 310.178 198.47 244.888 168.43 225.128C168.43 225.128 200.09 230.048 204.59 252.698Z" fill="#ED5564"/>
<path d="M77.6299 220.888L77.24 217.638L74.2 216.448L77.45 216.068L78.6299 213.018L79.01 216.268L82.0601 217.458L78.8101 217.838L77.6299 220.888Z" fill="white"/>
<path d="M92.8201 188.658L94.0801 187.068L93.26 185.208L94.8501 186.468L96.71 185.648L95.45 187.238L96.27 189.098L94.6799 187.838L92.8201 188.658Z" fill="white"/>
<path d="M88.9099 251.078L90.1799 249.478L89.3601 247.618L90.95 248.878L92.8101 248.058L91.55 249.658L92.3701 251.518L90.78 250.258L88.9099 251.078Z" fill="white"/>
<path d="M131.18 251.078L132.44 249.478L131.62 247.618L133.21 248.878L135.07 248.058L133.81 249.658L134.63 251.518L133.04 250.258L131.18 251.078Z" fill="white"/>
<path d="M275.49 313.528H236.18C233.667 313.528 231.63 315.565 231.63 318.078V350.788C231.63 353.301 233.667 355.338 236.18 355.338H275.49C278.003 355.338 280.04 353.301 280.04 350.788V318.078C280.04 315.565 278.003 313.528 275.49 313.528Z" fill="white"/>
<path d="M269.22 315.698L266.22 315.158C266.22 315.048 268.1 304.428 263.62 299.068C261.91 297.018 259.51 296.018 256.3 296.018C254.858 295.948 253.417 296.195 252.08 296.741C250.743 297.287 249.542 298.119 248.56 299.178C243.56 304.598 244.48 315.178 244.49 315.288L241.49 315.558C241.49 315.078 240.49 303.558 246.33 297.158C247.598 295.785 249.148 294.704 250.875 293.989C252.602 293.274 254.463 292.943 256.33 293.018C260.43 293.018 263.67 294.408 265.96 297.148C271.34 303.588 269.31 315.198 269.22 315.698Z" fill="white"/>
<path d="M255.82 347.728C260.095 347.728 263.56 344.263 263.56 339.988C263.56 335.714 260.095 332.248 255.82 332.248C251.545 332.248 248.08 335.714 248.08 339.988C248.08 344.263 251.545 347.728 255.82 347.728Z" fill="#CB93EE"/>
<path d="M258.48 321.128H253.32V334.028H258.48V321.128Z" fill="#CB93EE"/>
<path d="M391.298 449.537L183.043 450.955L183.057 452.955L391.312 451.537L391.298 449.537Z" fill="white"/>
<path d="M448.18 356.278C448.33 356.068 448.4 355.948 448.4 355.948L445.57 356.448L448.18 356.278Z" fill="#ED5564"/>
<path d="M548.72 576.458C548.72 575.318 548.79 574.188 548.83 573.058C554.19 572.478 564.72 566.818 582.83 551.058C593.12 542.058 602.6 534.648 612.29 526.758C629.648 512.899 645.875 497.681 660.82 481.248C692.39 446.648 662.34 419.438 598.33 384.248C547.97 356.578 513.03 354.748 500.9 355.148C483.28 354.648 433.02 356.148 433.02 356.148C417.28 356.708 385.3 361.348 341.83 385.218C277.83 420.388 247.77 447.598 279.34 482.218C301.03 505.968 334.14 532.798 334.14 532.798L362.85 492.528C362.85 492.528 323.92 467.528 318.6 461.138L396.06 415.958C386.83 480.628 391.93 576.418 391.93 576.418L548.72 576.458ZM391.93 576.418L549.65 520.748C551.483 520.458 553.264 519.906 554.94 519.108C553.57 519.908 551.75 520.998 549.65 522.278L391.93 576.418ZM391.72 603.618C398.85 600.238 404.9 596.918 404.9 596.918C404.9 596.918 398.24 600.868 391.68 605.588C549.42 549.308 549.43 548.638 549.44 547.958L391.72 603.618ZM391.45 616.778C395.66 614.608 400.22 611.858 403.89 609.548C399.488 612.493 395.307 615.755 391.38 619.308C549.12 562.838 549.15 561.958 549.17 561.148L391.45 616.778ZM575.5 492.688C566.28 498.488 557.16 504.128 549.69 508.868C549.69 512.558 549.69 513.988 549.69 517.368C549.48 474.888 547.19 441.668 543.42 416.688L621.62 460.128C616.07 466.738 595.5 480.098 575.5 492.688Z" fill="white"/>
<path d="M548.73 577.458C548.465 577.458 548.21 577.353 548.023 577.165C547.835 576.978 547.73 576.723 547.73 576.458L547.83 573.058C547.829 572.811 547.919 572.572 548.083 572.387C548.247 572.203 548.474 572.085 548.72 572.058C552.33 571.668 561.48 568.308 582.18 550.248C589.95 543.468 597.37 537.478 604.54 531.698C606.91 529.778 609.28 527.868 611.66 525.928C628.975 512.095 645.166 496.911 660.08 480.518C669.83 469.848 673.75 459.778 672.08 449.758C668.99 431.108 647.48 412.368 597.84 385.098C547.97 357.708 513.44 355.708 500.92 356.098C483.47 355.608 433.54 357.098 433.04 357.098C417.85 357.638 385.85 362.098 342.31 386.048C292.66 413.318 271.16 432.048 268.06 450.698C266.4 460.698 270.33 470.788 280.06 481.468C299.55 502.828 328.67 526.968 333.92 531.278L361.41 492.728C355.41 488.878 322.78 467.728 317.81 461.728C317.717 461.617 317.649 461.487 317.611 461.347C317.573 461.208 317.566 461.061 317.59 460.918C317.615 460.775 317.671 460.64 317.754 460.52C317.837 460.401 317.945 460.302 318.07 460.228L395.54 415.098C395.699 414.999 395.883 414.946 396.07 414.946C396.257 414.946 396.441 414.999 396.6 415.098C396.761 415.206 396.887 415.357 396.963 415.535C397.039 415.712 397.063 415.908 397.03 416.098C387.92 479.928 392.85 575.408 392.91 576.368C392.923 576.633 392.831 576.893 392.652 577.09C392.474 577.287 392.225 577.405 391.96 577.418C391.695 577.432 391.435 577.339 391.238 577.161C391.041 576.983 390.923 576.733 390.91 576.468C390.91 575.518 386.01 481.858 394.77 417.858L320.16 461.318C327.66 468.688 363 491.398 363.37 491.638C363.484 491.711 363.581 491.807 363.656 491.918C363.732 492.03 363.784 492.156 363.81 492.288C363.837 492.421 363.836 492.557 363.809 492.69C363.781 492.822 363.727 492.947 363.65 493.058L334.93 533.328C334.851 533.439 334.749 533.533 334.632 533.604C334.515 533.674 334.385 533.72 334.25 533.738C334.116 533.757 333.979 533.747 333.848 533.711C333.718 533.675 333.596 533.613 333.49 533.528C333.16 533.258 300.07 506.378 278.59 482.838C268.4 471.678 264.31 461.068 266.08 450.398C269.28 431.068 291.08 411.918 341.33 384.318C385.24 360.198 417.59 355.668 432.96 355.118C433.47 355.118 483.46 353.608 500.91 354.118C513.53 353.688 548.49 355.708 598.79 383.338C649.09 410.968 670.79 430.088 674.05 449.418C675.81 460.088 671.72 470.698 661.54 481.858C646.561 498.323 630.3 513.574 612.91 527.468L605.78 533.238C598.62 539.018 591.22 544.988 583.47 551.748C568.26 565.018 556.65 572.658 549.78 573.908L549.7 576.468C549.697 576.727 549.595 576.974 549.414 577.159C549.233 577.343 548.988 577.451 548.73 577.458ZM549.1 564.678C548.963 564.677 548.827 564.65 548.7 564.598C548.518 564.519 548.364 564.387 548.257 564.22C548.15 564.052 548.095 563.857 548.1 563.658L548.17 561.118C548.175 560.94 548.228 560.766 548.323 560.615C548.418 560.463 548.551 560.34 548.71 560.258C552.23 558.448 556.39 556.028 561.07 553.068C561.291 552.928 561.559 552.88 561.816 552.935C562.072 552.99 562.297 553.143 562.441 553.362C562.586 553.581 562.638 553.848 562.587 554.106C562.537 554.363 562.387 554.59 562.17 554.738C557.818 557.662 553.681 560.893 549.79 564.408C549.603 564.583 549.356 564.68 549.1 564.678ZM549.41 550.958C549.145 550.958 548.89 550.853 548.703 550.665C548.515 550.478 548.41 550.223 548.41 549.958V547.958C548.414 547.773 548.47 547.593 548.57 547.438C548.671 547.282 548.813 547.158 548.98 547.078C555.98 543.748 562.05 540.438 562.11 540.408C562.341 540.276 562.615 540.24 562.872 540.31C563.129 540.379 563.347 540.548 563.48 540.778C563.613 541.009 563.648 541.283 563.579 541.54C563.509 541.797 563.341 542.016 563.11 542.148C563.04 542.148 556.41 546.148 549.97 550.768C549.807 550.887 549.611 550.953 549.41 550.958ZM549.65 523.318C549.478 523.316 549.31 523.271 549.16 523.188C549.005 523.101 548.877 522.975 548.787 522.822C548.698 522.669 548.65 522.495 548.65 522.318V520.798C548.647 520.559 548.73 520.326 548.884 520.142C549.038 519.959 549.253 519.837 549.49 519.798C551.223 519.514 552.906 518.985 554.49 518.228C554.723 518.119 554.989 518.104 555.233 518.186C555.477 518.268 555.68 518.44 555.8 518.668C555.92 518.896 555.948 519.162 555.877 519.41C555.806 519.657 555.642 519.868 555.42 519.998C554.05 520.798 552.23 521.888 550.14 523.158C549.993 523.253 549.824 523.309 549.65 523.318ZM549.65 518.318C549.385 518.318 549.13 518.213 548.943 518.025C548.755 517.838 548.65 517.583 548.65 517.318C548.45 476.808 546.35 442.988 542.39 416.788C542.356 416.599 542.378 416.404 542.453 416.226C542.527 416.049 542.651 415.897 542.81 415.788C542.958 415.693 543.128 415.638 543.303 415.629C543.479 415.62 543.654 415.658 543.81 415.738L622.01 459.168C622.139 459.239 622.251 459.338 622.337 459.457C622.424 459.577 622.482 459.714 622.51 459.858C622.538 460.004 622.535 460.153 622.499 460.297C622.462 460.44 622.394 460.574 622.3 460.688C616.73 467.388 596.73 480.398 575.94 493.458C572.14 495.848 568.35 498.218 564.69 500.458C559.69 503.598 554.87 506.588 550.6 509.298C550.6 512.588 550.6 514.038 550.6 517.238C550.6 517.503 550.495 517.758 550.307 517.945C550.12 518.133 549.865 518.238 549.6 518.238L549.65 518.318ZM544.65 418.498C548.09 442.218 550.07 471.968 550.53 507.058C554.53 504.518 559.01 501.738 563.66 498.838L574.91 491.838C593.69 480.028 613.54 467.178 619.98 460.388L544.65 418.498Z" fill="black"/>
<path d="M363.12 492.688C372.89 498.838 382.62 504.848 390.52 509.858C390.52 514.598 390.52 515.598 390.52 521.788C387.643 521.348 384.906 520.253 382.52 518.588C382.52 518.588 421.71 540.958 419.61 546.958C417.51 552.958 383.69 534.368 383.69 534.368C383.69 534.368 415.57 548.908 413.47 554.888C411.37 560.868 377.55 542.298 377.55 542.298C377.55 542.298 405.38 558.778 403.28 564.768C401.18 570.758 371.4 550.228 371.4 550.228C371.4 550.228 398.4 566.798 395.52 572.478C393.52 576.478 383.07 574.478 357.33 552.018C348.83 544.598 332.9 531.798 332.9 531.798L363.12 492.688Z" fill="white"/>
<path d="M392.26 575.108C385.8 575.108 373.26 567.268 356.67 552.768C348.28 545.438 332.43 532.698 332.27 532.568C332.067 532.403 331.936 532.166 331.906 531.906C331.877 531.646 331.95 531.385 332.11 531.178L362.33 492.078C362.483 491.881 362.704 491.748 362.95 491.705C363.197 491.662 363.45 491.714 363.66 491.848C367.99 494.578 372.33 497.278 376.49 499.848C381.71 503.108 386.67 506.198 391.06 508.988C391.201 509.079 391.317 509.203 391.397 509.35C391.478 509.496 391.52 509.661 391.52 509.828C391.52 514.568 391.52 515.568 391.52 521.758C391.521 521.902 391.492 522.044 391.433 522.175C391.374 522.306 391.288 522.423 391.18 522.518C394.51 524.518 398.5 527.048 402.42 529.658C419.88 541.288 421.28 545.168 420.55 547.248C420.423 547.612 420.215 547.941 419.941 548.212C419.667 548.482 419.335 548.686 418.97 548.808C417.05 549.548 413.27 548.728 408.84 547.178C412.72 550.178 415.18 552.988 414.41 555.178C414.284 555.543 414.076 555.874 413.802 556.146C413.528 556.419 413.196 556.624 412.83 556.748C409.51 558.008 400.61 554.638 392.49 550.908C399.24 555.908 405.43 561.618 404.23 565.058C404.1 565.433 403.882 565.772 403.595 566.047C403.308 566.322 402.96 566.524 402.58 566.638C400.4 567.348 395.91 565.698 390.99 563.228C394.99 566.918 397.6 570.518 396.42 572.888C396.127 573.436 395.711 573.909 395.204 574.268C394.697 574.627 394.114 574.864 393.5 574.958C393.093 575.049 392.677 575.1 392.26 575.108ZM334.26 531.628C337.54 534.268 350.6 544.838 357.96 551.258C382.17 572.388 390.59 573.528 393.1 573.038C393.411 573.001 393.708 572.891 393.969 572.717C394.229 572.543 394.446 572.311 394.6 572.038C395.78 569.688 388.23 562.888 378.83 556.328C374.83 553.808 371.68 551.668 370.83 551.068C370.607 550.924 370.451 550.697 370.396 550.437C370.34 550.177 370.39 549.906 370.535 549.683C370.679 549.46 370.907 549.304 371.166 549.249C371.426 549.194 371.697 549.244 371.92 549.388C373.34 550.268 376.48 552.228 380.07 554.728C388.97 560.278 399.07 565.728 401.95 564.788C402.036 564.767 402.116 564.725 402.183 564.666C402.249 564.607 402.3 564.532 402.33 564.448C403.59 560.848 388.33 549.838 377.03 543.168C376.812 543.03 376.657 542.813 376.595 542.562C376.534 542.312 376.572 542.047 376.701 541.824C376.83 541.601 377.04 541.436 377.288 541.364C377.536 541.292 377.801 541.319 378.03 541.438C389.03 547.438 408.03 556.498 412.11 554.928C412.45 554.798 412.5 554.648 412.53 554.568C413.26 552.468 406.67 547.638 397.78 542.628C390.78 539.388 384.57 536.008 383.21 535.258C382.981 535.135 382.809 534.928 382.73 534.681C382.651 534.433 382.671 534.164 382.787 533.932C382.903 533.699 383.105 533.521 383.35 533.434C383.595 533.347 383.864 533.36 384.1 533.468C387.24 534.898 393.24 537.728 399.1 541.018C407.58 544.918 415.74 547.958 418.25 547.018C418.59 546.888 418.64 546.728 418.67 546.658C419.74 543.658 402.46 531.398 384.9 521.138C383.843 520.67 382.838 520.094 381.9 519.418C381.696 519.265 381.558 519.039 381.515 518.787C381.472 518.535 381.528 518.276 381.67 518.063C381.812 517.851 382.03 517.701 382.279 517.644C382.529 517.587 382.79 517.628 383.01 517.758C383.01 517.758 384.01 518.328 385.62 519.278C386.854 519.866 388.148 520.315 389.48 520.618C389.48 515.698 389.48 514.418 389.48 510.458C385.21 507.748 380.42 504.758 375.39 501.618C371.47 499.168 367.39 496.618 363.32 494.058L334.26 531.628Z" fill="black"/>
<path d="M547.91 574.118C547.484 574.121 547.058 574.081 546.64 573.998C546.027 573.907 545.446 573.67 544.943 573.308C544.441 572.947 544.031 572.47 543.75 571.918C542.56 569.548 545.2 565.918 549.17 562.258C544.25 564.728 539.77 566.378 537.59 565.668C537.208 565.558 536.858 565.357 536.571 565.081C536.283 564.806 536.067 564.465 535.94 564.088C534.73 560.658 540.94 554.948 547.67 549.938C539.55 553.668 530.67 557.038 527.33 555.778C526.967 555.653 526.636 555.448 526.363 555.178C526.089 554.908 525.88 554.58 525.75 554.218C524.98 552.018 527.45 549.158 531.32 546.218C526.89 547.768 523.11 548.588 521.19 547.858C520.825 547.733 520.494 547.526 520.22 547.254C519.947 546.982 519.738 546.652 519.61 546.288C518.88 544.208 520.28 540.288 537.74 528.708C541.67 526.088 545.66 523.588 548.99 521.558C548.882 521.465 548.794 521.35 548.734 521.221C548.674 521.092 548.641 520.951 548.64 520.808C548.64 514.608 548.64 513.608 548.64 508.868C548.641 508.7 548.685 508.535 548.767 508.388C548.85 508.241 548.967 508.117 549.11 508.028C556.5 503.338 574.74 491.968 574.92 491.848C575.107 491.733 575.327 491.682 575.545 491.703C575.764 491.725 575.969 491.818 576.13 491.968L612.97 525.968C613.076 526.066 613.159 526.185 613.214 526.318C613.269 526.451 613.295 526.594 613.29 526.738C613.286 526.883 613.251 527.024 613.187 527.154C613.123 527.283 613.032 527.397 612.92 527.488C612.73 527.638 593.65 542.898 583.49 551.758C566.88 566.268 554.36 574.118 547.91 574.118ZM561.3 555.308C551.91 561.868 544.36 568.668 545.54 571.018C545.69 571.293 545.903 571.527 546.162 571.701C546.422 571.875 546.72 571.984 547.03 572.018C549.53 572.508 557.96 571.378 582.18 550.238C591.09 542.458 606.83 529.798 610.76 526.638L575.33 493.958C572.08 495.958 557.46 505.118 550.64 509.438C550.64 513.438 550.64 514.678 550.64 519.608C551.97 519.298 553.264 518.848 554.5 518.268L557.12 516.738C557.34 516.616 557.598 516.58 557.843 516.64C558.088 516.699 558.301 516.849 558.44 517.058C558.579 517.268 558.633 517.523 558.592 517.771C558.552 518.02 558.419 518.244 558.22 518.398C557.298 519.07 556.309 519.647 555.27 520.118C537.71 530.388 520.43 542.598 521.5 545.638C521.5 545.718 521.58 545.868 521.91 545.998C524.42 546.998 532.59 543.918 541.07 539.998C546.92 536.718 552.93 533.878 556.07 532.448C556.307 532.329 556.582 532.309 556.835 532.392C557.087 532.476 557.296 532.656 557.415 532.893C557.534 533.131 557.555 533.406 557.471 533.658C557.388 533.91 557.208 534.119 556.97 534.238C555.6 534.988 549.37 538.378 542.39 541.618C533.5 546.618 526.91 551.448 527.65 553.558C527.65 553.628 527.73 553.778 528.06 553.908C532.15 555.468 551.14 546.458 562.15 540.418C562.381 540.286 562.655 540.25 562.912 540.32C563.169 540.389 563.387 540.558 563.52 540.788C563.653 541.019 563.688 541.293 563.619 541.55C563.549 541.807 563.381 542.026 563.15 542.158C551.88 548.828 536.58 559.838 537.84 563.428C537.84 563.548 537.95 563.678 538.23 563.768C541.09 564.698 551.23 559.268 560.11 553.708C563.69 551.218 566.84 549.248 568.26 548.368C568.483 548.224 568.754 548.174 569.014 548.229C569.273 548.284 569.501 548.44 569.645 548.663C569.79 548.886 569.84 549.157 569.784 549.417C569.729 549.677 569.573 549.904 569.35 550.048C568.5 550.648 565.32 552.788 561.3 555.308Z" fill="black"/>
<path d="M318.7 461.718C318.453 461.72 318.215 461.631 318.03 461.468L309.03 453.468C308.924 453.383 308.837 453.278 308.773 453.158C308.709 453.038 308.671 452.906 308.659 452.771C308.648 452.636 308.664 452.5 308.708 452.371C308.751 452.242 308.82 452.124 308.91 452.022C309 451.921 309.11 451.839 309.233 451.782C309.356 451.725 309.49 451.693 309.626 451.689C309.761 451.685 309.896 451.708 310.022 451.758C310.149 451.808 310.264 451.883 310.36 451.978L319.36 459.978C319.557 460.155 319.676 460.402 319.691 460.667C319.706 460.931 319.616 461.19 319.44 461.388C319.346 461.492 319.232 461.575 319.105 461.632C318.978 461.688 318.84 461.718 318.7 461.718Z" fill="black"/>
<path d="M622.02 461.718C621.87 461.718 621.721 461.683 621.586 461.617C621.451 461.551 621.333 461.456 621.24 461.338C621.075 461.132 620.999 460.87 621.027 460.607C621.055 460.345 621.185 460.105 621.39 459.938L631.39 451.938C631.492 451.855 631.61 451.793 631.736 451.756C631.862 451.718 631.995 451.706 632.126 451.72C632.257 451.734 632.384 451.774 632.5 451.837C632.615 451.9 632.717 451.985 632.8 452.088C632.882 452.191 632.944 452.309 632.98 452.436C633.017 452.563 633.028 452.695 633.013 452.826C632.999 452.958 632.958 453.084 632.894 453.2C632.83 453.315 632.743 453.416 632.64 453.498L622.64 461.498C622.464 461.639 622.245 461.717 622.02 461.718Z" fill="black"/>
<path d="M419.73 256.688C419.73 256.688 450.66 204.958 471.5 215.138C492.34 225.318 481.69 251.068 481.69 251.068L444.69 326.658C444.69 326.658 441.11 331.658 416.51 343.978C380.59 361.978 350.31 341.788 347.66 323.978C345.01 306.168 376.66 310.408 368.32 300.568C354.93 284.958 361.41 253.058 419.73 256.688Z" fill="#201000"/>
<path d="M448.66 359.718L444.66 326.658C444.66 326.658 428.72 316.958 427.13 306.318C427.13 306.318 399.13 312.918 392.93 295.718C386.73 278.518 399.51 266.958 411.03 271.278L422.55 275.598C422.55 275.598 442.28 270.238 437.93 249.138C437.93 249.138 467.84 222.938 485.25 250.538C502.66 278.138 511.25 303.428 505.58 313.948C499.91 324.468 484.72 327.948 484.72 327.948L487.66 353.948C487.66 353.948 479.42 387.748 448.66 359.718Z" fill="white"/>
<path d="M470.24 371.828C463.75 371.828 456.29 368.018 447.98 360.458C447.806 360.295 447.696 360.075 447.67 359.838L443.73 327.248C441.21 325.648 428.57 317.198 426.34 307.518C421.08 308.518 397.8 312.188 391.99 296.058C388.86 287.368 390.18 279.058 395.5 273.788C397.532 271.742 400.112 270.328 402.93 269.715C405.748 269.103 408.682 269.32 411.38 270.338L422.58 274.548C425.07 273.768 440.82 268.088 436.95 249.348C436.905 249.168 436.912 248.98 436.968 248.803C437.025 248.626 437.129 248.469 437.27 248.348C437.9 247.798 452.82 234.898 468.07 237.108C475.32 238.158 481.38 242.488 486.07 249.958C504.4 279.028 512.21 303.708 506.44 314.378C501.34 323.818 489.18 327.718 485.79 328.638L488.63 353.748C488.645 353.864 488.645 353.982 488.63 354.098C488.49 354.658 485.14 367.948 474.76 371.098C473.298 371.564 471.774 371.81 470.24 371.828ZM449.61 359.228C459.23 367.918 467.5 371.288 474.16 369.228C482.88 366.568 486.23 355.288 486.64 353.798L483.72 328.008C483.702 327.769 483.771 327.531 483.914 327.338C484.058 327.145 484.265 327.01 484.5 326.958C484.65 326.958 499.32 323.448 504.71 313.468C510.1 303.488 502.09 279.088 484.41 251.068C480.03 244.118 474.41 240.068 467.8 239.128C454.86 237.238 441.59 247.448 439.03 249.528C443.03 270.808 423.03 276.528 422.82 276.528C422.622 276.592 422.408 276.592 422.21 276.528L410.69 272.198C408.349 271.322 405.805 271.138 403.363 271.67C400.921 272.203 398.684 273.427 396.92 275.198C392.16 279.898 391.03 287.438 393.92 295.368C399.74 311.528 426.68 305.368 426.92 305.368C427.055 305.337 427.195 305.335 427.331 305.36C427.467 305.386 427.596 305.44 427.71 305.518C427.825 305.596 427.922 305.696 427.996 305.813C428.07 305.93 428.119 306.061 428.14 306.198C429.64 316.198 445.05 325.728 445.2 325.828C445.33 325.906 445.441 326.012 445.524 326.138C445.607 326.265 445.66 326.408 445.68 326.558L449.61 359.228Z" fill="black"/>
<path d="M482.44 289.408C482.237 289.408 482.039 289.346 481.872 289.23C481.705 289.115 481.578 288.951 481.506 288.761C481.434 288.571 481.422 288.364 481.471 288.167C481.52 287.97 481.628 287.793 481.78 287.658C484.78 285.028 486.1 282.158 485.78 279.108C485.02 271.108 473.41 264.038 473.29 263.968C473.09 263.823 472.951 263.608 472.9 263.366C472.849 263.123 472.889 262.871 473.014 262.657C473.138 262.443 473.337 262.283 473.573 262.207C473.809 262.132 474.064 262.146 474.29 262.248C474.8 262.558 486.89 269.858 487.74 278.918C488.09 282.638 486.51 286.078 483.05 289.148C482.882 289.302 482.667 289.394 482.44 289.408Z" fill="black"/>
<path d="M407.44 292.738C407.199 292.741 406.965 292.656 406.781 292.5C406.597 292.344 406.476 292.127 406.44 291.888C406.44 291.748 405.93 288.238 408.28 286.248C410.06 284.748 412.88 284.608 416.67 285.838C416.922 285.922 417.13 286.102 417.25 286.339C417.369 286.577 417.389 286.851 417.305 287.103C417.221 287.355 417.041 287.564 416.804 287.683C416.567 287.802 416.292 287.822 416.04 287.738C413.04 286.738 410.78 286.738 409.57 287.738C408.07 288.988 408.42 291.538 408.42 291.558C408.457 291.821 408.388 292.087 408.229 292.299C408.07 292.511 407.833 292.651 407.57 292.688L407.44 292.738Z" fill="black"/>
<path d="M440.16 260.468C439.944 260.468 439.733 260.398 439.56 260.268C439.455 260.189 439.367 260.091 439.3 259.978C439.233 259.865 439.189 259.74 439.17 259.61C439.152 259.48 439.159 259.347 439.191 259.22C439.224 259.093 439.281 258.973 439.36 258.868C440.938 256.953 443.16 255.68 445.61 255.288C445.873 255.251 446.139 255.32 446.351 255.479C446.563 255.639 446.703 255.876 446.74 256.138C446.758 256.269 446.75 256.402 446.717 256.53C446.684 256.658 446.625 256.777 446.545 256.882C446.465 256.987 446.365 257.076 446.251 257.142C446.137 257.208 446.011 257.251 445.88 257.268C443.957 257.588 442.212 258.585 440.96 260.078C440.866 260.201 440.745 260.3 440.606 260.367C440.467 260.435 440.314 260.469 440.16 260.468Z" fill="black"/>
<path d="M448.69 270.468C449.679 270.468 450.48 269.667 450.48 268.678C450.48 267.69 449.679 266.888 448.69 266.888C447.701 266.888 446.9 267.69 446.9 268.678C446.9 269.667 447.701 270.468 448.69 270.468Z" fill="#201000"/>
<path d="M475.82 257.958C476.809 257.958 477.61 257.157 477.61 256.168C477.61 255.18 476.809 254.378 475.82 254.378C474.831 254.378 474.03 255.18 474.03 256.168C474.03 257.157 474.831 257.958 475.82 257.958Z" fill="#201000"/>
<path d="M475.27 246.418C475.138 246.419 475.008 246.394 474.886 246.344C474.764 246.294 474.653 246.221 474.56 246.128C472.15 243.698 468.7 245.908 468.56 245.998C468.45 246.073 468.327 246.125 468.197 246.152C468.067 246.179 467.933 246.179 467.803 246.154C467.672 246.128 467.549 246.076 467.438 246.002C467.328 245.928 467.234 245.833 467.161 245.722C467.088 245.612 467.038 245.487 467.013 245.357C466.989 245.227 466.99 245.092 467.018 244.963C467.046 244.833 467.099 244.71 467.175 244.601C467.251 244.492 467.348 244.399 467.46 244.328C469.16 243.208 473.12 241.838 475.98 244.718C476.166 244.906 476.271 245.159 476.271 245.423C476.271 245.687 476.166 245.941 475.98 246.128C475.886 246.221 475.776 246.294 475.654 246.344C475.532 246.394 475.402 246.419 475.27 246.418Z" fill="black"/>
<path d="M421.92 294.458C421.741 294.46 421.565 294.413 421.41 294.323C421.256 294.234 421.128 294.104 421.04 293.948C413.28 279.948 401.88 283.248 401.4 283.398C401.149 283.467 400.882 283.436 400.654 283.311C400.426 283.186 400.256 282.978 400.179 282.729C400.102 282.481 400.125 282.213 400.243 281.981C400.361 281.749 400.564 281.573 400.81 281.488C400.94 281.488 414.22 277.538 422.81 292.978C422.874 293.093 422.914 293.219 422.929 293.35C422.944 293.481 422.933 293.613 422.897 293.739C422.861 293.865 422.8 293.983 422.718 294.086C422.636 294.189 422.535 294.275 422.42 294.338C422.267 294.421 422.094 294.463 421.92 294.458Z" fill="black"/>
<path d="M418.8 256.638C418.8 256.638 411.58 264.738 421.8 279.348C432.02 293.958 421.95 280.348 421.95 280.348L425.9 279.758C423.271 275.904 421.545 271.505 420.853 266.891C420.16 262.276 420.518 257.565 421.9 253.108L418.8 256.638Z" fill="white"/>
<path d="M492.31 294.088C492.045 294.088 491.79 293.983 491.603 293.795C491.415 293.608 491.31 293.354 491.31 293.088C491.31 291.748 491.02 291.138 490.74 291.028C489.96 290.698 487.61 292.218 486.03 293.798C485.843 293.985 485.589 294.089 485.325 294.089C485.061 294.089 484.807 293.985 484.62 293.798C484.434 293.611 484.329 293.357 484.329 293.093C484.329 292.829 484.434 292.576 484.62 292.388C485.33 291.668 489.03 288.158 491.51 289.178C492.7 289.678 493.31 290.988 493.31 293.088C493.31 293.354 493.205 293.608 493.017 293.795C492.83 293.983 492.575 294.088 492.31 294.088Z" fill="black"/>
<path d="M478.05 329.828C474.287 329.841 470.55 329.208 467 327.958C466.772 327.85 466.593 327.659 466.5 327.425C466.407 327.191 466.406 326.929 466.497 326.694C466.588 326.459 466.765 326.267 466.992 326.156C467.218 326.046 467.479 326.025 467.72 326.098C467.83 326.098 478.46 330.148 488.41 325.748C488.53 325.695 488.66 325.666 488.791 325.663C488.922 325.66 489.053 325.683 489.176 325.73C489.298 325.777 489.41 325.848 489.505 325.939C489.601 326.03 489.677 326.138 489.73 326.258C489.783 326.378 489.812 326.508 489.816 326.639C489.819 326.771 489.796 326.901 489.748 327.024C489.701 327.146 489.63 327.259 489.539 327.354C489.449 327.449 489.34 327.525 489.22 327.578C485.694 329.098 481.89 329.864 478.05 329.828Z" fill="black"/>
<path d="M470.62 410.508C470.453 410.504 470.289 410.458 470.144 410.374C469.999 410.29 469.877 410.171 469.79 410.028L437.7 356.958C437.631 356.845 437.585 356.72 437.565 356.59C437.545 356.459 437.551 356.326 437.582 356.197C437.614 356.069 437.67 355.948 437.749 355.842C437.828 355.736 437.927 355.646 438.04 355.578C438.267 355.442 438.538 355.402 438.795 355.465C439.052 355.529 439.273 355.692 439.41 355.918L470.66 407.638L505.6 354.588C505.745 354.367 505.972 354.213 506.23 354.159C506.489 354.104 506.758 354.154 506.98 354.298C507.091 354.37 507.186 354.463 507.261 354.572C507.335 354.681 507.388 354.804 507.415 354.933C507.442 355.062 507.443 355.195 507.418 355.325C507.393 355.455 507.343 355.578 507.27 355.688L471.5 410.058C471.405 410.203 471.274 410.321 471.119 410.4C470.965 410.478 470.793 410.516 470.62 410.508Z" fill="black"/>
<path d="M456.1 386.468C455.961 386.469 455.824 386.441 455.696 386.386C455.569 386.331 455.454 386.25 455.36 386.148C455.174 385.961 455.069 385.707 455.069 385.443C455.069 385.179 455.174 384.926 455.36 384.738L469.89 371.188C470.066 371.024 470.295 370.928 470.536 370.919C470.776 370.909 471.012 370.987 471.2 371.138L487.31 384.278C487.501 384.45 487.618 384.688 487.638 384.944C487.658 385.2 487.579 385.454 487.417 385.653C487.255 385.852 487.023 385.981 486.769 386.014C486.514 386.046 486.257 385.98 486.05 385.828L470.62 373.238L456.73 386.238C456.553 386.385 456.33 386.466 456.1 386.468Z" fill="black"/>
<path d="M470.62 410.508C470.355 410.508 470.1 410.403 469.913 410.215C469.725 410.028 469.62 409.773 469.62 409.508V371.958C469.62 371.693 469.725 371.439 469.913 371.251C470.1 371.064 470.355 370.958 470.62 370.958C470.885 370.958 471.14 371.064 471.327 371.251C471.515 371.439 471.62 371.693 471.62 371.958V409.548C471.61 409.806 471.5 410.051 471.313 410.23C471.127 410.409 470.879 410.508 470.62 410.508Z" fill="black"/>
<path d="M628.67 513.958C628.432 513.958 628.201 513.873 628.02 513.718L591.85 482.628C591.649 482.456 591.524 482.21 591.503 481.946C591.482 481.682 591.568 481.42 591.74 481.218C591.913 481.017 592.158 480.892 592.422 480.871C592.687 480.851 592.948 480.936 593.15 481.108L629.33 512.198C629.53 512.372 629.653 512.618 629.672 512.883C629.691 513.147 629.604 513.408 629.43 513.608C629.336 513.718 629.22 513.806 629.088 513.867C628.957 513.927 628.814 513.958 628.67 513.958Z" fill="black"/>
<path d="M319.15 518.858C318.931 518.855 318.718 518.785 318.54 518.658C318.329 518.498 318.191 518.26 318.156 517.998C318.12 517.735 318.19 517.469 318.35 517.258L345.78 481.258C345.945 481.06 346.18 480.934 346.436 480.905C346.692 480.876 346.949 480.947 347.154 481.103C347.359 481.259 347.496 481.488 347.536 481.742C347.576 481.996 347.517 482.257 347.37 482.468L319.95 518.468C319.856 518.591 319.735 518.689 319.596 518.757C319.457 518.825 319.304 518.859 319.15 518.858Z" fill="black"/>
<path d="M349 496.748C348.365 496.748 347.745 496.56 347.217 496.207C346.689 495.855 346.277 495.353 346.035 494.767C345.792 494.18 345.728 493.535 345.852 492.912C345.976 492.289 346.281 491.717 346.73 491.268C347.179 490.819 347.751 490.514 348.374 490.39C348.997 490.266 349.642 490.33 350.229 490.573C350.815 490.816 351.316 491.227 351.669 491.755C352.022 492.283 352.21 492.903 352.21 493.538C352.21 494.39 351.872 495.206 351.27 495.808C350.668 496.41 349.851 496.748 349 496.748ZM349 492.328C348.761 492.328 348.527 492.399 348.328 492.532C348.129 492.665 347.974 492.854 347.882 493.075C347.791 493.296 347.767 493.54 347.813 493.774C347.86 494.009 347.975 494.225 348.144 494.394C348.314 494.563 348.529 494.678 348.764 494.725C348.999 494.772 349.242 494.748 349.463 494.656C349.684 494.565 349.873 494.409 350.006 494.21C350.139 494.012 350.21 493.778 350.21 493.538C350.21 493.217 350.083 492.91 349.856 492.683C349.629 492.456 349.321 492.328 349 492.328Z" fill="black"/>
<path d="M590.58 496.748C589.835 496.748 589.105 496.527 588.485 496.113C587.865 495.699 587.383 495.11 587.097 494.421C586.812 493.732 586.737 492.974 586.882 492.243C587.028 491.511 587.387 490.84 587.914 490.312C588.441 489.785 589.114 489.426 589.845 489.281C590.576 489.135 591.334 489.21 592.023 489.495C592.712 489.781 593.301 490.264 593.715 490.884C594.129 491.504 594.35 492.233 594.35 492.978C594.35 493.978 593.953 494.937 593.246 495.644C592.539 496.351 591.58 496.748 590.58 496.748ZM590.58 491.218C590.23 491.218 589.887 491.322 589.596 491.517C589.305 491.712 589.078 491.989 588.944 492.313C588.81 492.637 588.776 492.994 588.845 493.337C588.914 493.681 589.084 493.996 589.332 494.243C589.581 494.49 589.897 494.658 590.241 494.725C590.585 494.793 590.941 494.756 591.264 494.621C591.588 494.485 591.863 494.257 592.057 493.964C592.25 493.672 592.352 493.329 592.35 492.978C592.35 492.746 592.304 492.517 592.215 492.302C592.126 492.088 591.996 491.894 591.831 491.73C591.667 491.567 591.472 491.437 591.257 491.349C591.042 491.261 590.812 491.217 590.58 491.218Z" fill="black"/>
<path d="M471.73 443.678C470.655 443.68 469.604 443.363 468.71 442.767C467.815 442.171 467.118 441.323 466.705 440.331C466.293 439.338 466.185 438.246 466.394 437.191C466.603 436.137 467.12 435.169 467.88 434.409C468.64 433.649 469.609 433.131 470.663 432.922C471.717 432.713 472.81 432.821 473.803 433.233C474.795 433.646 475.643 434.343 476.239 435.238C476.835 436.132 477.152 437.183 477.15 438.258C477.147 439.695 476.576 441.072 475.56 442.088C474.544 443.104 473.167 443.676 471.73 443.678ZM471.73 434.828C471.051 434.826 470.387 435.026 469.822 435.401C469.256 435.777 468.815 436.312 468.554 436.939C468.293 437.565 468.224 438.255 468.355 438.921C468.486 439.587 468.812 440.199 469.291 440.68C469.77 441.161 470.382 441.488 471.047 441.622C471.713 441.755 472.403 441.687 473.03 441.428C473.658 441.169 474.194 440.729 474.571 440.165C474.949 439.601 475.15 438.937 475.15 438.258C475.147 437.351 474.787 436.482 474.146 435.839C473.506 435.197 472.637 434.833 471.73 434.828Z" fill="black"/>
<path d="M471.73 475.738C470.658 475.738 469.61 475.42 468.719 474.825C467.828 474.229 467.133 473.383 466.723 472.392C466.313 471.402 466.205 470.312 466.414 469.261C466.623 468.209 467.14 467.244 467.898 466.486C468.656 465.728 469.621 465.212 470.673 465.002C471.724 464.793 472.814 464.901 473.804 465.311C474.795 465.721 475.641 466.416 476.237 467.307C476.832 468.198 477.15 469.246 477.15 470.318C477.147 471.755 476.576 473.132 475.56 474.148C474.544 475.164 473.167 475.736 471.73 475.738ZM471.73 466.898C471.054 466.898 470.392 467.099 469.83 467.475C469.268 467.85 468.829 468.385 468.57 469.009C468.312 469.634 468.244 470.322 468.376 470.985C468.508 471.649 468.834 472.258 469.312 472.737C469.79 473.215 470.399 473.541 471.063 473.673C471.726 473.804 472.414 473.737 473.039 473.478C473.664 473.219 474.198 472.781 474.574 472.218C474.95 471.656 475.15 470.995 475.15 470.318C475.147 469.412 474.786 468.544 474.146 467.903C473.505 467.262 472.636 466.901 471.73 466.898Z" fill="black"/>
<path d="M582.5 120.958H372.5V123.958H582.5V120.958Z" fill="#FCCE54"/>
<path d="M625.454 81L581.467 153.007L584.027 154.571L628.015 82.5639L625.454 81Z" fill="#FCCE54"/>
<path d="M662 121.458H622V124.458H662V121.458Z" fill="#FCCE54"/>
<path d="M543 84.4582H333V87.4582H543V84.4582Z" fill="#FCCE54"/>
<path d="M185.624 104.132L184.097 105.424L195.099 118.424L196.625 117.132L185.624 104.132Z" fill="black"/>
<path d="M203.474 81.2113L201.516 81.6165L207.515 110.612L209.474 110.207L203.474 81.2113Z" fill="black"/>
<path d="M628.42 249.398C628.231 249.4 628.044 249.363 627.87 249.288L606.5 240.778C606.132 240.629 605.837 240.34 605.682 239.975C605.526 239.609 605.522 239.197 605.67 238.828L614.18 217.458C614.331 217.092 614.617 216.798 614.98 216.638C615.162 216.561 615.358 216.522 615.555 216.522C615.753 216.522 615.948 216.561 616.13 216.638L637.5 225.148C637.869 225.297 638.163 225.586 638.319 225.952C638.474 226.317 638.478 226.73 638.33 227.098L629.82 248.468C629.709 248.748 629.516 248.988 629.266 249.155C629.016 249.323 628.721 249.411 628.42 249.408V249.398ZM609.01 238.548L627.59 245.948L634.99 227.368L616.41 219.968L609.01 238.548Z" fill="#ED5564"/>
<path d="M93 426.458H50C49.6022 426.458 49.2208 426.3 48.9395 426.019C48.6581 425.738 48.5 425.356 48.5 424.958C48.5 424.56 48.6581 424.179 48.9395 423.898C49.2208 423.616 49.6022 423.458 50 423.458H93C93.3978 423.458 93.7792 423.616 94.0605 423.898C94.3419 424.179 94.5 424.56 94.5 424.958C94.5 425.356 94.3419 425.738 94.0605 426.019C93.7792 426.3 93.3978 426.458 93 426.458Z" fill="#ED5564"/>
<path d="M88 404.458H27.5C27.1022 404.458 26.7208 404.3 26.4395 404.019C26.1581 403.738 26 403.356 26 402.958C26 402.56 26.1581 402.179 26.4395 401.898C26.7208 401.616 27.1022 401.458 27.5 401.458H88C88.3978 401.458 88.7792 401.616 89.0605 401.898C89.3419 402.179 89.5 402.56 89.5 402.958C89.5 403.356 89.3419 403.738 89.0605 404.019C88.7792 404.3 88.3978 404.458 88 404.458Z" fill="#ED5564"/>
<path d="M293.5 181.958C295.985 181.958 298 179.944 298 177.458C298 174.973 295.985 172.958 293.5 172.958C291.015 172.958 289 174.973 289 177.458C289 179.944 291.015 181.958 293.5 181.958Z" fill="#201000"/>
<path d="M661.521 516.373L644.519 531.368L646.503 533.618L663.506 518.623L661.521 516.373Z" fill="#CB93EE"/>
</svg>
