<svg width="700" height="700" viewBox="0 0 700 700" fill="none" xmlns="http://www.w3.org/2000/svg">
<rect width="700" height="700" fill="white"/>
<path d="M604.831 160.153C614.745 111.728 594.93 66.7697 560.572 59.7359C526.215 52.702 490.326 86.2563 480.412 134.681C470.498 183.106 490.314 228.065 524.671 235.099C559.028 242.132 594.917 208.578 604.831 160.153Z" fill="#47CEC0"/>
<path d="M514.023 223.749L494.023 239.749L525.023 248.749L514.023 223.749Z" fill="#47CEC0"/>
<path d="M638.688 255.693C639.655 252.287 639.177 249.168 637.62 248.726C636.063 248.284 634.017 250.687 633.05 254.092C632.083 257.498 632.562 260.617 634.118 261.059C635.675 261.501 637.721 259.098 638.688 255.693Z" fill="white"/>
<path d="M459.783 538.019C459.67 538.028 459.556 538.028 459.443 538.019C458.92 537.928 458.455 537.634 458.15 537.201C457.844 536.768 457.723 536.231 457.813 535.709L512.023 223.409C512.126 222.899 512.425 222.449 512.854 222.156C513.283 221.862 513.81 221.748 514.323 221.836C514.835 221.925 515.293 222.209 515.6 222.63C515.906 223.05 516.036 223.574 515.963 224.089L461.723 536.359C461.644 536.818 461.406 537.235 461.052 537.538C460.698 537.842 460.249 538.011 459.783 538.019Z" fill="#47CEC0"/>
<path d="M591.023 168.249C590.769 168.248 590.52 168.184 590.298 168.061C590.076 167.938 589.889 167.761 589.754 167.546C589.62 167.331 589.541 167.086 589.527 166.833C589.513 166.58 589.563 166.327 589.673 166.099C604.163 136.099 589.823 105.708 589.673 105.398C589.576 105.22 589.517 105.024 589.498 104.822C589.48 104.62 589.503 104.416 589.565 104.223C589.628 104.03 589.729 103.851 589.862 103.698C589.996 103.546 590.159 103.421 590.341 103.333C590.524 103.245 590.723 103.195 590.926 103.186C591.129 103.177 591.331 103.209 591.521 103.281C591.711 103.353 591.884 103.462 592.031 103.603C592.177 103.743 592.294 103.912 592.373 104.099C592.523 104.409 607.513 136.098 592.373 167.398C592.252 167.654 592.06 167.869 591.821 168.02C591.582 168.17 591.305 168.249 591.023 168.249Z" fill="white"/>
<path d="M642.689 266.808C657.054 237.382 651.773 205.265 630.893 195.072C610.014 184.88 581.443 200.471 567.078 229.897C552.713 259.323 557.994 291.44 578.874 301.633C599.753 311.826 628.325 296.234 642.689 266.808Z" fill="#EC87BF"/>
<path d="M573.963 292.799L558.483 299.749L576.883 310.648L573.963 292.799Z" fill="#EC87BF"/>
<path d="M572.197 292.178L485.754 483.54L489.399 485.186L575.843 293.825L572.197 292.178Z" fill="#EC87BF"/>
<path d="M448.293 587.519C447.762 587.519 447.254 587.308 446.879 586.933C446.504 586.558 446.293 586.049 446.293 585.519C446.293 584.988 446.504 584.479 446.879 584.104C447.254 583.729 447.762 583.519 448.293 583.519L519.743 581.979C520.273 581.967 520.787 582.166 521.17 582.532C521.554 582.899 521.776 583.403 521.788 583.934C521.8 584.464 521.601 584.977 521.234 585.361C520.867 585.744 520.363 585.967 519.833 585.979L448.383 587.519H448.293Z" fill="#47CEC0"/>
<path d="M379.023 623.749C377.045 623.749 375.112 623.162 373.467 622.063C371.823 620.964 370.541 619.403 369.784 617.575C369.027 615.748 368.829 613.737 369.215 611.798C369.601 609.858 370.553 608.076 371.952 606.677C373.35 605.279 375.132 604.327 377.072 603.941C379.012 603.555 381.022 603.753 382.85 604.51C384.677 605.267 386.239 606.548 387.338 608.193C388.436 609.837 389.023 611.771 389.023 613.749C389.023 616.401 387.969 618.944 386.094 620.82C384.219 622.695 381.675 623.749 379.023 623.749ZM379.023 606.749C377.638 606.749 376.285 607.159 375.134 607.928C373.983 608.697 373.085 609.791 372.556 611.07C372.026 612.349 371.887 613.756 372.157 615.114C372.427 616.472 373.094 617.719 374.073 618.698C375.052 619.677 376.299 620.344 377.657 620.614C379.015 620.884 380.423 620.745 381.702 620.216C382.981 619.686 384.074 618.789 384.843 617.637C385.612 616.486 386.023 615.133 386.023 613.749C386.023 611.892 385.285 610.112 383.973 608.799C382.66 607.486 380.879 606.749 379.023 606.749Z" fill="#47CEC0"/>
<path d="M112.633 241.388C112.368 241.388 112.113 241.283 111.926 241.096C111.738 240.908 111.633 240.654 111.633 240.388C111.633 240.123 111.738 239.869 111.926 239.681C112.113 239.494 112.368 239.388 112.633 239.388L201.633 237.888C201.898 237.888 202.152 237.994 202.34 238.181C202.528 238.369 202.633 238.623 202.633 238.888C202.633 239.154 202.528 239.408 202.34 239.596C202.152 239.783 201.898 239.888 201.633 239.888L112.633 241.388Z" fill="black"/>
<path d="M121.483 238.509L115.253 238.849L122.253 246.509C123.957 248.372 126.052 249.836 128.387 250.797C130.722 251.758 133.241 252.192 135.763 252.069L175.373 250.158C179.754 249.946 183.889 248.068 186.933 244.908L193.143 238.448H246.743L334.463 635.958L129.783 636.119L42.0629 238.609L121.483 238.509Z" fill="#FCE054"/>
<path d="M195.805 271.604L123.361 419.416L126.054 420.736L198.499 272.924L195.805 271.604Z" fill="white"/>
<path d="M158.844 274.848L125.573 339.949L128.245 341.314L161.515 276.213L158.844 274.848Z" fill="white"/>
<path d="M319.403 653.029L119.023 650.249C118.792 650.254 118.566 650.18 118.383 650.037C118.201 649.895 118.074 649.694 118.023 649.469L32.0228 256.899C31.9946 256.767 31.9925 256.632 32.0167 256.5C32.0409 256.367 32.0908 256.241 32.1637 256.129C32.2366 256.016 32.331 255.918 32.4415 255.842C32.552 255.766 32.6765 255.712 32.8079 255.684C32.9392 255.655 33.0748 255.653 33.2069 255.678C33.339 255.702 33.4651 255.752 33.5779 255.825C33.6907 255.897 33.788 255.992 33.8644 256.102C33.9407 256.213 33.9946 256.337 34.0228 256.469L119.893 648.269L319.513 651.009C319.778 651.009 320.032 651.114 320.22 651.302C320.408 651.489 320.513 651.743 320.513 652.009C320.513 652.274 320.408 652.528 320.22 652.716C320.032 652.903 319.778 653.009 319.513 653.009L319.403 653.029Z" fill="black"/>
<path d="M336.573 632.089C336.513 632.099 336.452 632.099 336.393 632.089C336.133 632.04 335.904 631.891 335.754 631.673C335.604 631.456 335.546 631.188 335.593 630.929L363.593 481.589C363.625 481.412 363.704 481.247 363.822 481.112C363.94 480.976 364.092 480.875 364.263 480.819L428.913 459.989C422.779 437.287 415.316 414.965 406.563 393.138C391.983 356.688 335.923 372.449 335.363 372.609C335.27 372.624 335.176 372.624 335.083 372.609H276.253C275.988 372.609 275.733 372.503 275.546 372.316C275.358 372.128 275.253 371.874 275.253 371.609C275.253 371.343 275.358 371.089 275.546 370.901C275.733 370.714 275.988 370.609 276.253 370.609H334.953C344.975 368.001 355.31 366.796 365.663 367.029C387.313 367.789 402.093 376.539 408.423 392.359C417.335 414.551 424.906 437.258 431.093 460.359C431.153 460.605 431.117 460.865 430.993 461.086C430.868 461.307 430.665 461.472 430.423 461.549L365.423 482.489L337.553 631.249C337.515 631.482 337.396 631.694 337.217 631.848C337.037 632.002 336.809 632.087 336.573 632.089Z" fill="black"/>
<path d="M278.813 231.249C278.813 231.249 347.203 171.029 372.533 195.249C397.863 219.469 370.643 251.678 370.643 251.678L282.463 343.448C282.463 343.448 284.043 360.679 244.463 373.519C191.203 390.809 149.633 345.819 154.003 319.019C158.373 292.219 192.003 288.759 184.483 270.729C172.503 242.019 196.523 199.119 278.813 231.249Z" fill="#201000"/>
<path d="M277.523 373.789L282.463 343.479C282.463 343.479 263.983 322.159 266.593 306.119C266.593 306.119 223.233 302.699 222.243 275.119C221.253 247.539 244.983 236.729 259.573 248.259L274.163 259.789C274.163 259.789 305.053 261.169 308.503 228.789C308.503 228.789 363.653 204.789 375.993 252.609C388.333 300.429 389.063 340.769 375.993 353.289C362.923 365.809 339.503 363.799 339.503 363.799L336.303 383.419C336.303 383.419 308.893 428.319 277.523 373.789Z" fill="white"/>
<path d="M310.123 401.789H309.823C298.223 401.629 287.063 392.379 276.653 374.289C276.538 374.089 276.496 373.856 276.533 373.628L281.403 343.779C278.953 340.869 263.813 322.189 265.473 306.999C258.753 306.229 222.163 300.839 221.243 275.119C220.753 261.369 226.373 250.169 236.243 245.119C240.023 243.153 244.292 242.324 248.533 242.732C252.775 243.14 256.807 244.768 260.143 247.418L274.473 258.738C277.883 258.798 304.293 258.299 307.473 228.619C307.492 228.443 307.558 228.275 307.663 228.132C307.769 227.99 307.91 227.878 308.073 227.809C309.223 227.309 336.463 215.709 357.173 225.809C366.983 230.599 373.633 239.509 376.933 252.289C389.683 301.649 389.593 341.548 376.703 353.938C364.833 365.348 344.933 365.039 340.363 364.789L337.363 383.509C337.34 383.636 337.292 383.759 337.223 383.869C336.753 384.639 326.093 401.789 310.123 401.789ZM278.563 373.599C288.563 390.829 299.063 399.599 309.843 399.789H310.113C324.183 399.789 334.283 384.789 335.403 383.019L338.563 363.609C338.605 363.361 338.738 363.139 338.936 362.985C339.134 362.831 339.383 362.757 339.633 362.779C339.863 362.779 362.813 364.589 375.353 352.539C387.723 340.639 387.603 301.539 375.023 252.829C371.873 240.639 365.593 232.168 356.333 227.648C337.993 218.648 313.333 227.888 309.433 229.458C305.603 261.788 274.433 260.779 274.113 260.759C273.906 260.749 273.707 260.676 273.543 260.549L258.953 249.019C255.915 246.607 252.243 245.126 248.382 244.755C244.521 244.384 240.635 245.139 237.193 246.928C227.993 251.588 222.783 262.099 223.193 275.049C224.133 301.449 266.193 305.049 266.623 305.119C266.761 305.129 266.896 305.168 267.018 305.234C267.14 305.299 267.247 305.389 267.333 305.498C267.419 305.607 267.481 305.733 267.515 305.867C267.549 306.002 267.555 306.142 267.533 306.279C265.023 321.669 282.993 342.609 283.173 342.819C283.269 342.93 283.34 343.061 283.38 343.203C283.419 343.345 283.427 343.493 283.403 343.638L278.563 373.599Z" fill="black"/>
<path d="M354.503 306.809C354.275 306.808 354.054 306.729 353.877 306.585C353.7 306.441 353.578 306.241 353.53 306.018C353.482 305.795 353.512 305.563 353.614 305.359C353.716 305.156 353.885 304.993 354.093 304.898C359.723 302.408 363.093 298.779 364.093 294.089C366.773 281.899 353.093 266.249 352.973 266.089C352.879 265.991 352.806 265.876 352.759 265.75C352.711 265.623 352.689 265.489 352.695 265.354C352.701 265.219 352.733 265.087 352.792 264.965C352.85 264.843 352.932 264.734 353.033 264.645C353.135 264.556 353.253 264.488 353.381 264.446C353.51 264.404 353.645 264.388 353.779 264.399C353.914 264.411 354.045 264.45 354.164 264.513C354.283 264.577 354.388 264.663 354.473 264.769C355.063 265.439 368.933 281.329 366.043 294.509C364.873 299.859 361.113 303.968 354.863 306.728C354.749 306.777 354.627 306.804 354.503 306.809Z" fill="black"/>
<path d="M244.963 277.049H244.803C244.544 277.004 244.313 276.86 244.159 276.647C244.006 276.433 243.942 276.168 243.983 275.908C243.983 275.688 244.873 270.688 248.903 269.018C252.003 267.738 255.963 268.828 260.683 272.238C260.897 272.393 261.041 272.626 261.084 272.886C261.127 273.147 261.066 273.413 260.913 273.628C260.836 273.736 260.739 273.827 260.627 273.897C260.515 273.966 260.391 274.013 260.261 274.035C260.13 274.056 259.997 274.052 259.869 274.021C259.741 273.991 259.62 273.936 259.513 273.859C255.403 270.859 252.093 269.859 249.683 270.859C246.683 272.089 245.963 276.178 245.953 276.218C245.913 276.452 245.791 276.663 245.61 276.815C245.429 276.967 245.199 277.05 244.963 277.049Z" fill="black"/>
<path d="M306.023 248.579C305.864 248.578 305.708 248.539 305.567 248.466C305.426 248.393 305.305 248.288 305.213 248.158C305.06 247.943 304.998 247.677 305.042 247.416C305.085 247.156 305.229 246.923 305.443 246.769C308.459 244.774 312.104 243.959 315.683 244.479C315.944 244.523 316.177 244.668 316.331 244.884C316.484 245.1 316.546 245.367 316.503 245.628C316.459 245.887 316.314 246.119 316.101 246.272C315.888 246.426 315.622 246.489 315.363 246.448C312.305 246.035 309.2 246.723 306.603 248.388C306.436 248.515 306.232 248.582 306.023 248.579Z" fill="black"/>
<path d="M353.523 239.849C353.312 239.847 353.107 239.779 352.937 239.655C352.767 239.53 352.641 239.355 352.577 239.154C352.513 238.953 352.513 238.737 352.579 238.537C352.645 238.337 352.772 238.162 352.943 238.039C355.323 236.329 360.943 234.129 365.193 238.039C365.388 238.219 365.503 238.469 365.513 238.735C365.524 239 365.428 239.259 365.248 239.454C365.067 239.649 364.817 239.764 364.552 239.774C364.286 239.785 364.028 239.689 363.833 239.509C359.713 235.669 354.163 239.579 354.113 239.619C353.946 239.757 353.739 239.838 353.523 239.849Z" fill="black"/>
<path d="M265.023 286.188C264.789 286.193 264.561 286.116 264.378 285.97C264.195 285.824 264.07 285.618 264.023 285.388C259.203 261.248 240.883 260.739 240.103 260.729C239.838 260.729 239.583 260.623 239.396 260.436C239.208 260.248 239.103 259.994 239.103 259.729C239.103 259.463 239.208 259.209 239.396 259.021C239.583 258.834 239.838 258.729 240.103 258.729C240.313 258.729 260.813 259.219 265.963 284.999C266.013 285.258 265.958 285.528 265.81 285.747C265.661 285.966 265.433 286.118 265.173 286.168C265.124 286.181 265.073 286.188 265.023 286.188Z" fill="black"/>
<path d="M364.023 485.519H363.913C363.782 485.504 363.656 485.463 363.54 485.399C363.425 485.335 363.324 485.249 363.242 485.146C363.161 485.043 363.1 484.925 363.064 484.798C363.028 484.672 363.017 484.539 363.033 484.408L368.033 440.918C368.048 440.787 368.089 440.66 368.153 440.545C368.217 440.429 368.303 440.327 368.407 440.245C368.51 440.163 368.629 440.102 368.756 440.066C368.883 440.029 369.016 440.018 369.148 440.033C369.279 440.049 369.406 440.089 369.522 440.154C369.637 440.218 369.739 440.304 369.821 440.408C369.903 440.511 369.964 440.63 370.001 440.757C370.037 440.884 370.048 441.017 370.033 441.148L365.033 484.638C365.003 484.884 364.883 485.11 364.697 485.273C364.51 485.435 364.27 485.523 364.023 485.519Z" fill="black"/>
<path d="M366.023 470.679C365.787 470.673 365.56 470.585 365.383 470.429C365.206 470.273 365.09 470.059 365.055 469.826C365.021 469.593 365.07 469.354 365.194 469.153C365.318 468.953 365.509 468.802 365.733 468.729L427.163 450.138C427.289 450.1 427.421 450.088 427.552 450.101C427.683 450.114 427.811 450.152 427.927 450.215C428.043 450.277 428.145 450.361 428.229 450.463C428.312 450.565 428.375 450.683 428.413 450.809C428.451 450.935 428.464 451.067 428.451 451.198C428.438 451.329 428.399 451.456 428.337 451.572C428.274 451.688 428.19 451.791 428.088 451.875C427.986 451.958 427.869 452.021 427.743 452.059L366.313 470.638C366.219 470.666 366.121 470.68 366.023 470.679Z" fill="black"/>
<path d="M309.023 410.249C302.068 410.338 295.286 408.08 289.773 403.839C280.413 396.619 274.593 383.708 274.593 370.128C274.593 369.863 274.698 369.609 274.886 369.421C275.073 369.234 275.328 369.128 275.593 369.128C275.858 369.128 276.112 369.234 276.3 369.421C276.487 369.609 276.593 369.863 276.593 370.128C276.593 383.128 282.113 395.409 290.993 402.259C298.593 408.119 308.303 409.708 319.083 406.878C328.023 404.528 333.933 400.428 336.633 394.698C340.433 386.628 336.503 377.919 336.463 377.829C336.407 377.709 336.376 377.58 336.371 377.448C336.365 377.317 336.386 377.185 336.432 377.062C336.477 376.938 336.547 376.825 336.636 376.728C336.725 376.631 336.833 376.553 336.953 376.499C337.193 376.39 337.466 376.38 337.714 376.472C337.961 376.564 338.162 376.749 338.273 376.989C338.453 377.379 342.643 386.599 338.443 395.529C335.443 401.829 329.143 406.299 319.593 408.809C316.146 409.741 312.593 410.225 309.023 410.249Z" fill="black"/>
<path d="M304.023 211.749L268.283 132.619L244.023 242.749C244.023 242.749 254.023 234.749 270.083 254.519C270.083 254.519 270.693 232.839 304.023 211.749Z" fill="#EC87BF"/>
<path d="M259.223 173.749L277.553 153.138L276.203 150.148L260.543 167.749L259.223 173.749Z" fill="white"/>
<path d="M297.213 196.668L295.863 193.668L253.213 241.668C254.242 241.945 255.246 242.309 256.213 242.759L297.213 196.668Z" fill="white"/>
<path d="M285.983 171.809L250.983 211.168L249.663 217.168L287.333 174.799L285.983 171.809Z" fill="white"/>
<path d="M268.283 132.619L255.093 116.979L251.963 124.688L268.283 132.619Z" fill="#FCE054"/>
<path d="M250.433 129.819L251.473 135.698L268.283 132.619L250.433 129.819Z" fill="#FCE054"/>
<path d="M383.623 426.309L395.023 570.749H499.023L511.663 431.509L383.623 426.309Z" fill="#ED5564"/>
<path d="M378.373 437.138L377.383 406.319L519.143 407.969L514.903 441.509L378.373 437.138Z" fill="#FCE054"/>
<path d="M435.193 406.989L433.023 570.749H459.023L464.183 407.329L435.193 406.989Z" fill="#FCE054"/>
<path d="M459.243 409.009C459.243 409.009 463.713 404.739 463.103 396.009C463.103 396.009 456.323 389.789 443.503 393.009C443.503 393.009 442.303 404.718 445.693 408.668C449.083 412.618 459.243 409.009 459.243 409.009Z" fill="#FCE054"/>
<path d="M447.463 393.739L421.823 340.099L381.903 374.099L445.413 403.378L445.613 400.178L399.213 369.249L410.333 356.079C410.333 356.079 441.693 384.549 446.083 395.469L447.463 393.739Z" fill="#FCE054"/>
<path d="M455.423 392.599L498.233 359.859L512.833 393.039C512.833 393.039 471.503 405.868 461.103 404.388L460.343 401.908L500.653 390.908L491.503 374.908C491.503 374.908 462.163 387.128 457.503 394.958C452.843 402.788 455.423 392.599 455.423 392.599Z" fill="#FCE054"/>
<path d="M403.663 519.378C421.603 519.278 440.063 519.768 439.383 511.878C438.703 503.988 409.553 504.589 409.553 504.589C409.553 504.589 445.663 499.919 443.753 494.209C441.843 488.499 431.753 489.039 431.753 489.039C431.753 489.039 449.933 484.469 444.603 479.689C439.273 474.909 404.713 471.819 404.713 471.819C404.713 471.819 435.713 459.009 434.893 453.369C434.073 447.729 423.893 450.499 407.893 455.199C391.893 459.899 362.523 464.949 362.083 472.769L360.623 498.449L324.023 510.749C324.623 529.659 324.743 557.749 352.023 575.749C381.383 559.039 393.733 547.389 393.463 541.209C393.023 529.979 385.733 519.488 403.663 519.378Z" fill="white"/>
<path d="M187.473 631.938C172.473 631.938 160.123 629.329 150.413 624.109C138.933 617.949 131.163 608.109 127.303 594.799C116.973 559.209 141.163 484.959 160.603 425.299C162.483 419.519 164.306 413.898 166.073 408.438C172.443 388.658 193.543 375.528 227.073 370.438C243.301 368.15 259.724 367.574 276.073 368.719C276.204 368.73 276.332 368.767 276.449 368.828C276.566 368.889 276.67 368.973 276.755 369.074C276.839 369.175 276.903 369.292 276.942 369.418C276.981 369.545 276.995 369.677 276.983 369.809C276.971 369.94 276.934 370.068 276.873 370.185C276.812 370.302 276.729 370.406 276.627 370.49C276.526 370.575 276.409 370.639 276.283 370.678C276.157 370.717 276.024 370.731 275.893 370.719C274.963 370.629 182.793 362.899 167.893 409.029C166.143 414.469 164.303 420.108 162.423 425.888C143.143 485.318 119.023 559.249 129.223 594.249C132.933 606.999 140.373 616.459 151.353 622.359C173.053 634.019 208.653 632.258 257.163 617.148C290.484 606.655 322.477 592.336 352.503 574.479C380.223 557.839 392.653 545.599 392.503 541.269C392.34 538.802 392.006 536.349 391.503 533.928C390.643 529.248 389.833 524.829 392.293 521.859C394.223 519.529 397.843 518.428 403.693 518.388H407.223C420.413 518.388 434.063 518.288 437.603 514.388C437.908 514.067 438.139 513.684 438.281 513.264C438.422 512.844 438.471 512.399 438.423 511.959C437.983 506.899 420.513 505.349 409.603 505.579C409.338 505.599 409.075 505.512 408.874 505.339C408.672 505.165 408.548 504.919 408.528 504.654C408.508 504.388 408.594 504.126 408.768 503.925C408.941 503.723 409.188 503.599 409.453 503.579C421.183 502.059 440.593 498.368 442.743 494.938C442.793 494.878 442.827 494.806 442.842 494.73C442.858 494.653 442.855 494.574 442.833 494.499C441.183 489.579 431.893 490.019 431.833 490.019C431.592 490.021 431.358 489.937 431.174 489.781C430.99 489.624 430.869 489.407 430.833 489.168C430.795 488.923 430.85 488.673 430.987 488.466C431.124 488.259 431.333 488.11 431.573 488.049C436.653 486.769 444.063 483.948 444.573 481.688C444.573 481.528 444.723 481.098 443.953 480.408C439.783 476.668 414.163 473.649 404.643 472.799C404.42 472.778 404.211 472.683 404.048 472.53C403.886 472.377 403.779 472.173 403.746 471.952C403.712 471.731 403.754 471.505 403.864 471.311C403.974 471.116 404.146 470.964 404.353 470.878C418.903 464.878 434.353 456.499 433.923 453.489C433.894 453.157 433.789 452.836 433.615 452.551C433.442 452.267 433.205 452.026 432.923 451.849C429.723 449.849 418.773 453.018 408.183 456.138C404.473 457.228 400.083 458.329 395.433 459.489C381.903 462.879 363.383 467.489 363.083 472.799L361.623 498.489C361.61 498.695 361.534 498.892 361.406 499.053C361.277 499.214 361.101 499.331 360.903 499.388L211.683 542.469C211.511 542.524 211.327 542.532 211.151 542.491C210.975 542.451 210.813 542.364 210.683 542.239C210.557 542.122 210.464 541.976 210.412 541.813C210.359 541.65 210.349 541.476 210.383 541.309L228.073 456.599C228.099 456.47 228.15 456.348 228.224 456.239C228.297 456.13 228.392 456.037 228.501 455.964C228.611 455.892 228.734 455.842 228.863 455.817C228.992 455.792 229.124 455.792 229.253 455.819C229.511 455.874 229.737 456.029 229.881 456.25C230.025 456.471 230.076 456.74 230.023 456.999L212.673 540.089L359.623 497.668L361.033 472.668C361.423 465.928 378.433 461.669 394.893 457.529C399.523 456.369 403.893 455.278 407.563 454.198C421.463 450.098 430.173 447.718 433.963 450.198C434.477 450.529 434.911 450.97 435.234 451.489C435.557 452.008 435.762 452.591 435.833 453.198C436.563 458.378 418.323 466.998 408.683 471.198C418.203 472.198 440.683 474.888 445.223 478.928C445.719 479.294 446.099 479.795 446.315 480.372C446.532 480.949 446.576 481.577 446.443 482.178C445.783 484.868 441.023 487.069 437.063 488.459C440.123 489.079 443.553 490.528 444.683 493.878C444.797 494.233 444.829 494.609 444.777 494.978C444.725 495.347 444.59 495.699 444.383 496.009C442.243 499.439 429.923 502.228 420.503 503.898C429.223 504.548 439.903 506.449 440.363 511.789C440.438 512.504 440.359 513.227 440.129 513.909C439.9 514.59 439.526 515.215 439.033 515.739C434.893 520.259 421.433 520.309 407.183 520.359H403.653C398.513 520.359 395.283 521.289 393.783 523.109C391.913 525.359 392.613 529.109 393.423 533.539C393.931 536.049 394.265 538.592 394.423 541.148C394.973 553.928 327.623 597.239 257.713 619.029C230.183 627.639 206.693 631.938 187.473 631.938Z" fill="black"/>
<path d="M388.203 506.619C387.938 506.619 387.683 506.513 387.496 506.326C387.308 506.138 387.203 505.884 387.203 505.619C387.203 505.354 387.308 505.099 387.496 504.911C387.683 504.724 387.938 504.619 388.203 504.619L412.783 503.619C412.914 503.613 413.045 503.634 413.169 503.68C413.292 503.725 413.405 503.794 413.502 503.883C413.598 503.972 413.676 504.08 413.731 504.199C413.787 504.318 413.818 504.447 413.823 504.579C413.828 504.71 413.807 504.841 413.762 504.964C413.717 505.088 413.647 505.201 413.558 505.297C413.469 505.394 413.362 505.472 413.242 505.527C413.123 505.582 412.994 505.613 412.863 505.619L388.283 506.619H388.203Z" fill="black"/>
<path d="M389.153 489.869C388.888 489.869 388.633 489.763 388.446 489.576C388.258 489.388 388.153 489.134 388.153 488.869C388.153 488.603 388.258 488.349 388.446 488.161C388.633 487.974 388.888 487.869 389.153 487.869L435.783 486.869C436.048 486.869 436.302 486.974 436.49 487.161C436.678 487.349 436.783 487.603 436.783 487.869C436.783 488.134 436.678 488.388 436.49 488.576C436.302 488.763 436.048 488.869 435.783 488.869L389.153 489.869Z" fill="black"/>
<path d="M408.023 473.149H407.963L386.783 471.819C386.518 471.803 386.27 471.682 386.093 471.483C385.917 471.284 385.827 471.024 385.843 470.759C385.859 470.493 385.979 470.245 386.178 470.069C386.377 469.893 386.638 469.803 386.903 469.819L408.083 471.159C408.348 471.166 408.599 471.28 408.781 471.473C408.963 471.666 409.061 471.923 409.053 472.189C409.045 472.454 408.932 472.705 408.739 472.887C408.546 473.069 408.288 473.166 408.023 473.159V473.149Z" fill="black"/>
<path d="M359.653 516.249H359.593C359.338 516.233 359.099 516.121 358.924 515.935C358.749 515.749 358.652 515.504 358.653 515.249L359.733 496.189C359.749 495.923 359.869 495.675 360.068 495.499C360.167 495.412 360.281 495.345 360.406 495.302C360.53 495.259 360.662 495.241 360.793 495.249C360.924 495.256 361.053 495.29 361.171 495.348C361.289 495.405 361.395 495.485 361.482 495.584C361.57 495.682 361.637 495.797 361.68 495.921C361.723 496.046 361.741 496.177 361.733 496.309L360.653 515.359C360.626 515.604 360.508 515.831 360.324 515.996C360.139 516.16 359.9 516.25 359.653 516.249Z" fill="black"/>
<path d="M183.023 548.759C182.892 548.773 182.759 548.762 182.632 548.725C182.505 548.688 182.387 548.626 182.284 548.543C182.075 548.377 181.942 548.134 181.913 547.869C181.884 547.603 181.961 547.337 182.128 547.129C182.295 546.921 182.538 546.788 182.803 546.759L215.503 539.269C215.761 539.209 216.033 539.254 216.258 539.395C216.483 539.536 216.643 539.76 216.703 540.019C216.763 540.277 216.717 540.549 216.576 540.774C216.436 540.999 216.212 541.159 215.953 541.219L183.253 548.708C183.179 548.735 183.101 548.752 183.023 548.759Z" fill="black"/>
<path d="M513.023 453.468C519.333 452.698 526.323 465.179 517.683 469.359C509.043 473.539 480.683 471.998 484.403 465.148C488.123 458.298 503.463 454.618 513.023 453.468Z" fill="white"/>
<path d="M502.483 472.668C494.613 472.668 486.603 471.348 484.013 468.668C483.475 468.166 483.129 467.493 483.032 466.763C482.936 466.034 483.095 465.294 483.483 464.668C488.403 455.668 510.373 452.768 512.863 452.468C517.093 451.958 521.033 456.159 522.253 460.339C523.473 464.519 521.963 468.339 518.083 470.259C514.783 471.849 508.683 472.668 502.483 472.668ZM513.103 454.458C504.453 455.458 488.843 459.028 485.243 465.628C485.068 465.876 484.993 466.181 485.034 466.482C485.075 466.782 485.228 467.056 485.463 467.248C489.193 471.168 509.963 471.958 517.213 468.458C521.433 466.458 520.803 462.458 520.333 460.898C519.233 457.138 515.853 454.098 513.103 454.458Z" fill="black"/>
<path d="M513.173 466.178C519.353 464.658 527.783 476.178 519.713 481.398C511.643 486.618 483.273 488.469 486.163 481.219C489.053 473.969 503.863 468.468 513.173 466.178Z" fill="white"/>
<path d="M497.333 486.989C492.403 486.989 488.163 486.309 486.233 484.719C485.65 484.284 485.233 483.663 485.052 482.959C484.87 482.256 484.934 481.511 485.233 480.849C489.033 471.319 510.503 465.848 512.933 465.208C517.073 464.208 521.483 467.888 523.203 471.888C524.983 476.038 523.883 479.889 520.203 482.239C515.873 485.049 505.633 486.989 497.333 486.989ZM513.413 467.148C504.943 469.228 489.873 474.609 487.093 481.589C486.949 481.855 486.912 482.166 486.988 482.459C487.064 482.752 487.248 483.005 487.503 483.168C491.683 486.618 512.403 484.909 519.173 480.549C523.113 478.019 522.023 474.208 521.363 472.678C519.813 469.078 516.103 466.488 513.413 467.148Z" fill="black"/>
<path d="M514.223 482.898C520.533 482.168 527.453 494.678 518.803 498.808C510.153 502.938 481.803 501.268 485.533 494.438C489.263 487.608 504.693 483.998 514.223 482.898Z" fill="white"/>
<path d="M504.023 502.049C496.023 502.049 487.823 500.688 485.213 497.918C484.68 497.412 484.339 496.738 484.246 496.009C484.153 495.28 484.314 494.542 484.703 493.918C489.703 484.918 511.653 482.158 514.143 481.918C518.373 481.408 522.293 485.639 523.493 489.829C524.693 494.019 523.163 497.828 519.273 499.728C516.023 501.248 510.023 502.049 504.023 502.049ZM514.373 483.888C505.713 484.888 490.093 488.338 486.453 494.888C486.277 495.135 486.201 495.439 486.24 495.74C486.279 496.04 486.43 496.315 486.663 496.508C490.373 500.458 511.143 501.348 518.413 497.878C522.643 495.878 522.033 491.939 521.573 490.349C520.483 486.579 517.123 483.539 514.373 483.859V483.888Z" fill="black"/>
<path d="M502.763 523.869C502.763 523.869 522.433 513.699 517.973 505.319C513.513 496.939 484.833 498.098 484.323 506.898C483.813 515.698 504.103 512.989 504.103 512.989L502.763 523.869Z" fill="white"/>
<path d="M501.543 525.619L502.953 514.129C499.343 514.469 489.163 515.079 485.103 511.309C484.481 510.751 483.997 510.058 483.689 509.282C483.38 508.507 483.255 507.671 483.323 506.839C483.523 503.439 487.013 500.839 493.143 499.479C502.823 497.359 515.763 499.039 518.853 504.849C519.283 505.658 519.543 506.547 519.615 507.46C519.687 508.374 519.571 509.292 519.273 510.159C516.953 517.589 503.783 524.459 503.273 524.749L501.543 525.619ZM505.253 511.829L504.003 522.029C507.583 519.949 515.753 514.729 517.363 509.559C517.58 508.946 517.668 508.294 517.622 507.645C517.575 506.997 517.395 506.365 517.093 505.789C514.543 500.989 502.353 499.509 493.573 501.429C488.573 502.539 485.453 504.599 485.323 506.959C485.274 507.494 485.351 508.034 485.549 508.535C485.747 509.035 486.06 509.482 486.463 509.839C489.933 513.059 500.283 512.489 503.973 511.999L505.253 511.829Z" fill="black"/>
<path d="M306.023 268.749C305.814 268.747 305.612 268.681 305.443 268.559C305.229 268.404 305.085 268.171 305.042 267.911C304.998 267.651 305.06 267.384 305.213 267.169C308.403 262.699 312.213 260.099 316.613 259.449C323.613 258.449 329.393 262.769 329.613 262.959C329.726 263.035 329.822 263.134 329.895 263.249C329.969 263.365 330.017 263.493 330.039 263.628C330.061 263.763 330.054 263.901 330.021 264.033C329.987 264.165 329.927 264.29 329.843 264.398C329.76 264.506 329.655 264.595 329.536 264.661C329.416 264.728 329.284 264.768 329.148 264.782C329.013 264.795 328.875 264.78 328.745 264.738C328.616 264.697 328.496 264.629 328.393 264.539C328.343 264.539 323.033 260.539 316.863 261.429C313.063 261.999 309.683 264.319 306.863 268.329C306.768 268.462 306.642 268.57 306.495 268.643C306.349 268.717 306.187 268.753 306.023 268.749Z" fill="black"/>
<path d="M357.023 262.748C356.851 262.748 356.682 262.703 356.533 262.619C356.302 262.488 356.133 262.272 356.062 262.017C355.991 261.762 356.023 261.489 356.153 261.258C358.773 256.558 361.973 253.908 365.663 253.388C371.143 252.598 375.543 256.859 375.723 257.039C375.888 257.229 375.976 257.474 375.968 257.726C375.96 257.978 375.857 258.217 375.68 258.397C375.503 258.576 375.265 258.682 375.014 258.694C374.762 258.705 374.515 258.621 374.323 258.458C374.323 258.458 370.423 254.709 365.933 255.369C362.933 255.809 360.203 258.118 357.933 262.238C357.843 262.399 357.71 262.532 357.55 262.622C357.389 262.712 357.207 262.755 357.023 262.748Z" fill="black"/>
<path d="M367.023 328.749C366.899 328.75 366.777 328.726 366.663 328.679C366.417 328.582 366.218 328.393 366.112 328.151C366.005 327.909 365.998 327.635 366.093 327.389C367.593 323.479 367.723 320.609 366.473 319.089C364.843 317.089 361.233 317.729 361.203 317.729C361.072 317.752 360.937 317.75 360.806 317.721C360.676 317.693 360.553 317.639 360.443 317.563C360.333 317.487 360.24 317.39 360.168 317.278C360.096 317.165 360.046 317.04 360.023 316.909C359.999 316.777 360.002 316.643 360.03 316.512C360.058 316.382 360.112 316.258 360.188 316.149C360.265 316.039 360.362 315.946 360.474 315.874C360.586 315.802 360.711 315.752 360.843 315.729C361.043 315.729 365.623 314.889 368.003 317.729C369.783 319.869 369.763 323.339 368.003 328.029C367.941 328.24 367.812 328.425 367.635 328.555C367.458 328.685 367.243 328.753 367.023 328.749Z" fill="black"/>
<path d="M372.193 322.749C371.357 322.754 370.547 322.46 369.909 321.92C369.271 321.381 368.848 320.63 368.715 319.805C368.582 318.98 368.749 318.135 369.185 317.422C369.621 316.709 370.298 316.176 371.093 315.918C428.253 296.918 431.253 295.839 447.903 289.529L451.053 288.329C456.403 286.329 459.303 283.118 459.433 279.128C459.395 277.029 458.773 274.982 457.638 273.216C456.502 271.449 454.897 270.034 453.003 269.128C450.893 268.128 447.683 267.669 444.373 270.749C442.753 272.259 440.213 275.129 441.513 277.329C441.903 277.887 442.4 278.361 442.975 278.725C443.55 279.089 444.192 279.335 444.863 279.449C444.598 278.559 444.697 277.6 445.138 276.783C445.58 275.967 446.328 275.359 447.218 275.094C448.108 274.828 449.066 274.928 449.883 275.369C450.7 275.811 451.308 276.559 451.573 277.449C452.983 281.809 451.013 284.589 448.693 285.739C444.763 287.679 438.783 285.739 435.873 281.479C434.653 279.719 431.313 273.339 439.603 265.619C444.323 261.229 450.263 260.189 455.893 262.749C459.062 264.216 461.741 266.566 463.609 269.517C465.477 272.469 466.454 275.896 466.423 279.388C466.203 286.238 461.503 291.898 453.533 294.918L450.383 296.109C433.613 302.469 430.593 303.609 373.293 322.609C372.936 322.712 372.565 322.759 372.193 322.749Z" fill="#ED5564"/>
<path d="M124.783 175.109C124.051 175.107 123.319 175.06 122.593 174.968C118.343 174.412 114.476 172.225 111.808 168.869C109.141 165.514 107.882 161.254 108.297 156.988C108.713 152.721 110.77 148.784 114.035 146.006C117.299 143.229 121.516 141.829 125.793 142.102C130.071 142.376 134.075 144.301 136.959 147.472C139.844 150.642 141.383 154.81 141.252 159.094C141.12 163.379 139.329 167.444 136.256 170.432C133.183 173.421 129.069 175.097 124.783 175.109ZM124.723 146.109C121.514 146.131 118.44 147.4 116.149 149.647C113.858 151.893 112.53 154.943 112.445 158.15C112.36 161.358 113.524 164.473 115.693 166.838C117.861 169.203 120.864 170.633 124.067 170.826C127.27 171.019 130.422 169.96 132.859 167.872C135.296 165.784 136.826 162.832 137.126 159.637C137.427 156.442 136.474 153.256 134.47 150.75C132.465 148.245 129.565 146.616 126.383 146.208C125.832 146.141 125.278 146.107 124.723 146.109Z" fill="#FCE054"/>
<path d="M596.593 493.339C596.35 493.339 596.11 493.295 595.883 493.209C595.637 493.115 595.412 492.975 595.221 492.794C595.03 492.614 594.876 492.399 594.768 492.159C594.661 491.919 594.601 491.661 594.593 491.398C594.586 491.136 594.63 490.874 594.723 490.628L606.093 460.429C606.28 459.931 606.657 459.529 607.141 459.309C607.624 459.09 608.176 459.072 608.673 459.259C609.17 459.446 609.573 459.822 609.792 460.306C610.012 460.79 610.03 461.341 609.843 461.839L598.463 492.039C598.32 492.42 598.065 492.748 597.731 492.981C597.397 493.213 597 493.338 596.593 493.339Z" fill="#EC87BF"/>
<path d="M574.233 495.079C573.795 495.082 573.357 495.055 572.923 494.998C570.962 494.74 569.122 493.907 567.635 492.602C566.148 491.298 565.081 489.583 564.569 487.672C564.057 485.762 564.123 483.743 564.759 481.87C565.395 479.997 566.571 478.355 568.14 477.151C569.709 475.947 571.6 475.235 573.574 475.105C575.547 474.976 577.515 475.435 579.228 476.424C580.941 477.412 582.322 478.887 583.197 480.661C584.072 482.434 584.401 484.428 584.143 486.388C583.825 488.792 582.645 490.999 580.822 492.597C578.999 494.196 576.657 495.078 574.233 495.079ZM574.233 478.079C572.927 478.079 571.647 478.446 570.538 479.136C569.43 479.826 568.536 480.812 567.959 481.984C567.381 483.155 567.143 484.465 567.271 485.764C567.399 487.064 567.888 488.302 568.683 489.339C569.239 490.072 569.936 490.686 570.732 491.146C571.529 491.607 572.41 491.903 573.323 492.019C575.159 492.26 577.016 491.764 578.487 490.64C579.958 489.515 580.924 487.854 581.173 486.019C581.298 485.107 581.241 484.179 581.004 483.29C580.767 482.4 580.355 481.567 579.793 480.839C579.233 480.109 578.536 479.497 577.739 479.037C576.943 478.577 576.064 478.279 575.153 478.158C574.845 478.112 574.534 478.085 574.223 478.079H574.233Z" fill="#47CEC0"/>
<path d="M402.583 131.119C402.177 131.118 401.789 130.956 401.503 130.669L388.253 117.049C388.071 116.864 387.942 116.634 387.877 116.383C387.812 116.132 387.814 115.869 387.883 115.619C387.95 115.366 388.082 115.135 388.267 114.949C388.451 114.763 388.681 114.628 388.933 114.559L410.933 108.489C411.208 108.415 411.498 108.42 411.77 108.503C412.042 108.586 412.286 108.744 412.473 108.959C412.659 109.174 412.78 109.438 412.82 109.72C412.861 110.002 412.82 110.289 412.703 110.549L403.953 130.229C403.853 130.453 403.7 130.651 403.506 130.802C403.313 130.954 403.085 131.056 402.843 131.099L402.583 131.119ZM392.173 116.779L402.113 126.989L408.673 112.229L392.173 116.779Z" fill="#FCE054"/>
<path d="M350.023 575.749C349.831 575.748 349.644 575.693 349.483 575.589C321.323 557.489 323.483 509.449 323.553 508.969C323.568 508.714 323.68 508.475 323.866 508.3C324.052 508.125 324.298 508.028 324.553 508.029C324.818 508.029 325.072 508.134 325.26 508.322C325.447 508.509 325.553 508.763 325.553 509.029C325.553 509.499 323.383 556.379 350.553 573.859C350.734 573.976 350.872 574.148 350.948 574.35C351.023 574.552 351.03 574.773 350.97 574.98C350.909 575.187 350.783 575.369 350.611 575.498C350.438 575.628 350.228 575.698 350.013 575.698L350.023 575.749Z" fill="black"/>
</svg>
