<svg width="700" height="700" viewBox="0 0 700 700" fill="none" xmlns="http://www.w3.org/2000/svg">
<rect width="700" height="700" fill="white"/>
<path d="M572 532.42H30V544.42H572V532.42Z" fill="#ED5564"/>
<path d="M268.61 486.14H230.61V524.14H268.61V486.14Z" fill="white"/>
<path d="M266.61 488.14V522.14H232.61V488.14H266.61ZM268.61 486.14H230.61V524.14H268.61V486.14Z" fill="black"/>
<path d="M234.61 550.14H207.61V552.14H234.61V550.14Z" fill="white"/>
<path d="M376.9 251.14H120.32C108.882 251.14 99.6101 260.412 99.6101 271.85V476.43C99.6101 487.868 108.882 497.14 120.32 497.14H376.9C388.338 497.14 397.61 487.868 397.61 476.43V271.85C397.61 260.412 388.338 251.14 376.9 251.14Z" fill="white"/>
<path d="M376.89 253.14C381.851 253.145 386.608 255.118 390.118 258.625C393.627 262.133 395.602 266.889 395.61 271.85V476.43C395.602 481.392 393.627 486.147 390.118 489.655C386.608 493.162 381.851 495.135 376.89 495.14H120.32C115.359 495.135 110.604 493.162 107.096 489.654C103.588 486.147 101.615 481.391 101.61 476.43V271.85C101.615 266.89 103.588 262.134 107.096 258.626C110.604 255.118 115.359 253.145 120.32 253.14H376.89ZM376.89 251.14H120.32C114.827 251.14 109.56 253.322 105.676 257.206C101.792 261.09 99.6101 266.357 99.6101 271.85V476.43C99.6101 481.923 101.792 487.19 105.676 491.074C109.56 494.958 114.827 497.14 120.32 497.14H376.89C382.383 497.14 387.652 494.958 391.538 491.075C395.423 487.191 397.607 481.924 397.61 476.43V271.85C397.607 266.357 395.423 261.089 391.538 257.205C387.652 253.322 382.383 251.14 376.89 251.14Z" fill="black"/>
<path d="M199.92 519.14H298.3C301.565 519.14 304.696 520.437 307.004 522.746C309.313 525.054 310.61 528.185 310.61 531.45V532.14H187.61V531.42C187.618 528.16 188.918 525.037 191.226 522.735C193.534 520.433 196.66 519.14 199.92 519.14Z" fill="white"/>
<path d="M298.3 521.14C300.807 521.143 303.227 522.058 305.109 523.714C306.991 525.37 308.207 527.654 308.53 530.14H189.69C190.013 527.654 191.229 525.37 193.111 523.714C194.993 522.058 197.413 521.143 199.92 521.14H298.3ZM298.3 519.14H199.92C196.655 519.14 193.524 520.437 191.216 522.746C188.907 525.054 187.61 528.185 187.61 531.45V532.14H310.61V531.45C310.61 528.185 309.313 525.054 307.004 522.746C304.696 520.437 301.565 519.14 298.3 519.14Z" fill="black"/>
<path d="M379.11 273.64H122.11V466.64H379.11V273.64Z" fill="white"/>
<path d="M377.11 275.64V464.64H124.11V275.64H377.11ZM379.11 273.64H122.11V466.64H379.11V273.64Z" fill="black"/>
<path d="M249 290.42H136V381.42H249V290.42Z" fill="#ED5564"/>
<path d="M249 290.42H136V300.42H249V290.42Z" fill="#FCE054"/>
<path d="M182 296.42H153C152.735 296.42 152.481 296.315 152.293 296.127C152.105 295.94 152 295.685 152 295.42C152 295.155 152.105 294.9 152.293 294.713C152.481 294.525 152.735 294.42 153 294.42H182C182.265 294.42 182.519 294.525 182.707 294.713C182.895 294.9 183 295.155 183 295.42C183 295.685 182.895 295.94 182.707 296.127C182.519 296.315 182.265 296.42 182 296.42Z" fill="black"/>
<path d="M185.73 347.6L179.84 346.82L190.28 356.37L193.23 352.22L197.1 356.37L201.8 346.96L198.4 347.6H185.73Z" fill="white"/>
<path d="M197.1 356.75C196.995 356.749 196.894 356.705 196.82 356.63L193.27 352.82L190.58 356.59C190.549 356.634 190.509 356.67 190.462 356.695C190.415 356.721 190.363 356.737 190.31 356.74C190.258 356.748 190.205 356.744 190.155 356.728C190.105 356.713 190.059 356.686 190.02 356.65L179.59 347.09C179.531 347.037 179.491 346.967 179.474 346.89C179.458 346.813 179.467 346.732 179.5 346.66C179.533 346.587 179.589 346.526 179.659 346.486C179.729 346.447 179.81 346.431 179.89 346.44L185.75 347.22H198.4L201.74 346.59C201.808 346.58 201.878 346.588 201.942 346.614C202.006 346.641 202.062 346.684 202.103 346.74C202.144 346.795 202.169 346.861 202.176 346.93C202.182 346.998 202.17 347.068 202.14 347.13L197.43 356.54C197.403 356.594 197.364 356.64 197.315 356.675C197.266 356.709 197.209 356.732 197.15 356.74L197.1 356.75ZM180.98 347.34L190.21 355.81L192.93 352.01C192.96 351.962 193.001 351.923 193.05 351.895C193.099 351.867 193.154 351.852 193.21 351.85C193.266 351.848 193.321 351.858 193.373 351.878C193.424 351.899 193.471 351.93 193.51 351.97L197 355.72L201.13 347.47L198.47 347.97H185.68L180.98 347.34Z" fill="black"/>
<path d="M151.46 392.74C151.46 392.74 157.13 361.57 162.01 352.8C166.89 344.03 185.73 347.6 185.73 347.6H198.4C198.4 347.6 210.74 344.02 213.99 352.15C215.911 356.92 217.541 361.802 218.87 366.77L207.49 369.69L198.72 403.48" fill="white"/>
<path d="M198.72 403.86H198.63C198.534 403.834 198.451 403.772 198.401 403.685C198.35 403.599 198.336 403.497 198.36 403.4L207.13 369.61C207.148 369.546 207.183 369.487 207.23 369.44C207.277 369.392 207.336 369.358 207.4 369.34L218.4 366.51C217.086 361.685 215.493 356.941 213.63 352.3C210.55 344.59 198.63 347.93 198.49 347.97H185.72C185.46 347.97 167.01 344.54 162.33 352.97C157.54 361.59 151.88 392.48 151.82 392.79C151.814 392.84 151.798 392.887 151.773 392.93C151.748 392.973 151.714 393.01 151.673 393.039C151.633 393.069 151.587 393.089 151.538 393.1C151.489 393.11 151.439 393.11 151.39 393.1C151.292 393.081 151.205 393.024 151.147 392.942C151.089 392.86 151.065 392.759 151.08 392.66C151.32 391.39 156.82 361.33 161.67 352.6C166.67 343.7 185 347.07 185.79 347.22H198.34C199.24 346.98 211.1 343.94 214.34 352.01C216.263 356.798 217.895 361.697 219.23 366.68C219.242 366.727 219.245 366.776 219.237 366.825C219.23 366.873 219.214 366.919 219.189 366.961C219.163 367.003 219.13 367.04 219.091 367.068C219.052 367.097 219.007 367.118 218.96 367.13L207.8 370L199.09 403.58C199.068 403.661 199.02 403.732 198.953 403.783C198.886 403.834 198.804 403.861 198.72 403.86Z" fill="black"/>
<path d="M197.1 314.46C197.1 314.46 203.6 311.86 201.32 306.66C199.04 301.46 193.52 304.06 191.25 306.34C191.25 306.34 187.03 300.49 181.83 303.09C176.63 305.69 178.25 310.23 178.25 310.23C178.25 310.23 169.48 306.66 166.88 311.53C166.115 312.867 165.713 314.38 165.713 315.92C165.713 317.46 166.115 318.973 166.88 320.31C166.88 320.31 161.35 338.15 188.97 334.6C211.72 331.68 197.1 314.46 197.1 314.46Z" fill="#201000"/>
<path d="M185.57 347.56V340.92C185.57 340.92 180.9 337.03 180.9 333.53C180.9 333.53 171.57 334.31 170.4 328.47C169.23 322.63 173.9 319.47 177.4 321.47L180.9 323.41C180.9 323.41 187.52 322.63 187.13 315.63C187.13 315.63 198.02 308.63 202.3 318.36C206.58 328.09 208.14 336.64 205.8 339.75C203.46 342.86 198.41 343.26 198.41 343.26V347.54C198.41 347.54 194.13 358.06 185.57 347.56Z" fill="white"/>
<path d="M192.7 352.6C190.38 352.6 187.88 350.99 185.28 347.79C185.229 347.724 185.201 347.643 185.2 347.56V341.11C184.43 340.45 180.83 337.11 180.55 333.95C178.71 334.03 171.12 334.03 170.03 328.56C169.44 325.56 170.27 322.96 172.25 321.51C173.01 320.945 173.918 320.611 174.863 320.549C175.809 320.487 176.752 320.699 177.58 321.16L180.98 323.04C182.717 322.815 184.295 321.916 185.375 320.537C186.454 319.158 186.948 317.41 186.75 315.67C186.749 315.604 186.765 315.539 186.796 315.481C186.828 315.423 186.874 315.375 186.93 315.34C187.16 315.19 192.6 311.74 197.43 313.19C198.616 313.582 199.7 314.235 200.601 315.1C201.503 315.965 202.199 317.021 202.64 318.19C207.16 328.45 208.48 336.8 206.1 339.97C204.03 342.74 200 343.43 198.79 343.58V347.58C198.799 347.626 198.799 347.674 198.79 347.72C198.72 347.89 196.99 352.04 193.46 352.57C193.208 352.597 192.954 352.607 192.7 352.6ZM185.95 347.42C188.61 350.66 191.1 352.13 193.32 351.8C196.2 351.38 197.81 347.99 198.04 347.48V343.28C198.04 343.186 198.074 343.095 198.137 343.024C198.2 342.954 198.286 342.91 198.38 342.9C198.38 342.9 203.3 342.49 205.5 339.55C207.7 336.61 206.3 328.38 201.96 318.55C201.566 317.473 200.934 316.498 200.112 315.698C199.29 314.898 198.298 314.294 197.21 313.93C193.21 312.72 188.49 315.3 187.51 315.93C187.76 322.99 181.02 323.87 180.95 323.93C180.87 323.934 180.791 323.916 180.72 323.88L177.22 321.94C176.517 321.547 175.715 321.366 174.911 321.42C174.107 321.473 173.335 321.758 172.69 322.24C170.95 323.51 170.23 325.86 170.77 328.54C171.86 333.98 180.77 333.3 180.87 333.3C180.922 333.294 180.975 333.299 181.024 333.315C181.074 333.33 181.12 333.356 181.16 333.39C181.235 333.464 181.279 333.564 181.28 333.67C181.28 336.95 185.77 340.74 185.81 340.77C185.854 340.805 185.889 340.849 185.913 340.899C185.937 340.949 185.95 341.004 185.95 341.06V347.42Z" fill="black"/>
<path d="M198 323.83C198 323.83 204.52 329.16 199.56 332.39L198 323.83Z" fill="white"/>
<path d="M199.58 332.76C199.517 332.759 199.455 332.743 199.4 332.713C199.344 332.684 199.296 332.642 199.26 332.59C199.207 332.506 199.188 332.405 199.209 332.308C199.23 332.21 199.288 332.125 199.37 332.07C199.838 331.822 200.237 331.462 200.532 331.022C200.826 330.583 201.008 330.077 201.06 329.55C201.2 326.94 197.82 324.14 197.79 324.12C197.752 324.089 197.72 324.051 197.697 324.008C197.674 323.965 197.659 323.918 197.654 323.869C197.649 323.82 197.653 323.771 197.667 323.724C197.681 323.677 197.704 323.633 197.735 323.595C197.766 323.557 197.804 323.525 197.847 323.502C197.89 323.479 197.937 323.464 197.986 323.459C198.035 323.454 198.084 323.458 198.131 323.472C198.178 323.486 198.222 323.509 198.26 323.54C198.41 323.66 201.97 326.61 201.81 329.59C201.752 330.231 201.539 330.849 201.191 331.39C200.843 331.931 200.369 332.381 199.81 332.7C199.742 332.746 199.661 332.767 199.58 332.76Z" fill="black"/>
<path d="M189.46 332.77C189.46 332.77 189.85 337.05 193.35 336.66L189.46 332.77Z" fill="white"/>
<path d="M192.91 337.06C192.136 337.076 191.382 336.817 190.78 336.33C189.82 335.388 189.222 334.139 189.09 332.8C189.096 332.709 189.134 332.623 189.198 332.557C189.262 332.492 189.348 332.452 189.439 332.445C189.53 332.437 189.621 332.463 189.695 332.517C189.768 332.572 189.82 332.651 189.84 332.74C189.958 333.872 190.459 334.931 191.26 335.74C191.54 335.96 191.861 336.121 192.205 336.214C192.549 336.306 192.907 336.329 193.26 336.28C193.359 336.269 193.459 336.297 193.538 336.359C193.616 336.421 193.667 336.511 193.68 336.61C193.685 336.659 193.681 336.709 193.667 336.757C193.653 336.805 193.629 336.849 193.597 336.887C193.565 336.925 193.526 336.957 193.482 336.98C193.438 337.003 193.39 337.016 193.34 337.02C193.198 337.041 193.054 337.055 192.91 337.06Z" fill="black"/>
<path d="M175.26 327.92C175.26 327.92 175.26 325.19 178.37 326.75L175.26 327.92Z" fill="white"/>
<path d="M175.26 328.28C175.162 328.28 175.068 328.241 174.998 328.172C174.929 328.102 174.89 328.008 174.89 327.91C174.89 327.567 174.969 327.229 175.122 326.922C175.275 326.615 175.497 326.347 175.77 326.14C176.216 325.944 176.704 325.865 177.189 325.91C177.673 325.956 178.139 326.124 178.54 326.4C178.62 326.45 178.678 326.527 178.704 326.617C178.73 326.707 178.722 326.804 178.681 326.889C178.64 326.973 178.569 327.039 178.482 327.075C178.395 327.11 178.298 327.112 178.21 327.08C177.29 326.62 176.59 326.52 176.21 326.77C176.043 326.909 175.909 327.084 175.818 327.281C175.726 327.478 175.679 327.693 175.68 327.91C175.679 327.963 175.667 328.014 175.645 328.062C175.623 328.11 175.591 328.152 175.551 328.187C175.512 328.222 175.465 328.248 175.415 328.264C175.365 328.28 175.312 328.286 175.26 328.28Z" fill="black"/>
<path d="M190.18 318.44C190.728 317.942 191.44 317.664 192.18 317.66L190.18 318.44Z" fill="white"/>
<path d="M190.18 318.81C190.082 318.808 189.989 318.769 189.92 318.7C189.885 318.666 189.857 318.624 189.837 318.579C189.818 318.533 189.808 318.484 189.808 318.435C189.808 318.386 189.818 318.337 189.837 318.291C189.857 318.246 189.885 318.205 189.92 318.17C190.523 317.613 191.309 317.296 192.13 317.28C192.229 317.283 192.323 317.324 192.392 317.395C192.461 317.466 192.5 317.561 192.5 317.66C192.5 317.758 192.461 317.852 192.392 317.922C192.322 317.991 192.228 318.03 192.13 318.03C191.508 318.048 190.913 318.285 190.45 318.7C190.415 318.736 190.373 318.765 190.327 318.784C190.28 318.803 190.23 318.812 190.18 318.81Z" fill="black"/>
<path d="M193.23 322.39C193.55 322.39 193.81 322.13 193.81 321.81C193.81 321.49 193.55 321.23 193.23 321.23C192.91 321.23 192.65 321.49 192.65 321.81C192.65 322.13 192.91 322.39 193.23 322.39Z" fill="black"/>
<path d="M198.35 320.64C198.67 320.64 198.93 320.38 198.93 320.06C198.93 319.74 198.67 319.48 198.35 319.48C198.03 319.48 197.77 319.74 197.77 320.06C197.77 320.38 198.03 320.64 198.35 320.64Z" fill="black"/>
<path d="M195.43 316.92C195.727 316.616 196.112 316.414 196.531 316.344C196.95 316.274 197.381 316.339 197.76 316.53" fill="white"/>
<path d="M195.42 317.26C195.322 317.258 195.229 317.219 195.16 317.15C195.125 317.116 195.097 317.074 195.077 317.029C195.058 316.983 195.048 316.934 195.048 316.885C195.048 316.836 195.058 316.787 195.077 316.741C195.097 316.696 195.125 316.654 195.16 316.62C195.508 316.237 195.977 315.985 196.488 315.905C196.999 315.825 197.522 315.922 197.97 316.18C198.044 316.239 198.094 316.324 198.108 316.418C198.123 316.512 198.102 316.608 198.049 316.688C197.996 316.767 197.916 316.823 197.823 316.846C197.731 316.869 197.633 316.856 197.55 316.81C196.65 316.21 195.7 317.14 195.69 317.15C195.618 317.22 195.521 317.26 195.42 317.26Z" fill="black"/>
<path d="M173.67 324.61C173.67 324.61 177.89 323.96 179.84 329.16L173.67 324.61Z" fill="white"/>
<path d="M179.84 329.53C179.765 329.529 179.691 329.506 179.629 329.464C179.566 329.421 179.518 329.36 179.49 329.29C177.68 324.45 173.89 324.95 173.72 324.98C173.671 324.987 173.622 324.984 173.574 324.972C173.527 324.96 173.482 324.938 173.443 324.908C173.404 324.878 173.371 324.841 173.347 324.799C173.322 324.756 173.306 324.709 173.3 324.66C173.286 324.563 173.31 324.465 173.368 324.386C173.427 324.307 173.513 324.255 173.61 324.24C173.61 324.24 178.16 323.6 180.19 329.02C180.209 329.067 180.219 329.116 180.218 329.167C180.217 329.217 180.206 329.267 180.185 329.312C180.165 329.358 180.135 329.399 180.098 329.433C180.061 329.467 180.018 329.493 179.97 329.51L179.84 329.53Z" fill="black"/>
<path d="M160.75 405.28H160.65C160.602 405.267 160.558 405.245 160.519 405.215C160.48 405.185 160.448 405.147 160.423 405.105C160.399 405.062 160.384 405.015 160.378 404.966C160.372 404.917 160.376 404.867 160.39 404.82L171.07 367.98C171.083 367.933 171.105 367.888 171.135 367.85C171.165 367.811 171.203 367.779 171.246 367.756C171.289 367.732 171.337 367.718 171.386 367.714C171.434 367.709 171.484 367.715 171.53 367.73C171.578 367.743 171.622 367.765 171.661 367.795C171.7 367.825 171.732 367.863 171.757 367.905C171.781 367.948 171.796 367.996 171.802 368.044C171.808 368.093 171.804 368.143 171.79 368.19L161.11 405.02C161.088 405.097 161.04 405.165 160.975 405.212C160.91 405.259 160.831 405.283 160.75 405.28Z" fill="black"/>
<path d="M169.38 375.52H169.27L155.95 371.52C155.855 371.49 155.776 371.424 155.729 371.336C155.682 371.248 155.672 371.145 155.7 371.05C155.714 371.003 155.736 370.96 155.767 370.922C155.798 370.884 155.835 370.853 155.878 370.83C155.921 370.806 155.968 370.792 156.016 370.787C156.064 370.782 156.113 370.786 156.16 370.8L169.48 374.8C169.577 374.828 169.658 374.893 169.707 374.981C169.756 375.069 169.768 375.173 169.74 375.27C169.713 375.344 169.664 375.407 169.6 375.452C169.535 375.497 169.458 375.521 169.38 375.52Z" fill="black"/>
<path d="M216.14 378.35C216.042 378.35 215.948 378.311 215.878 378.242C215.809 378.172 215.77 378.078 215.77 377.98L215.58 368.63C215.577 368.531 215.613 368.435 215.681 368.362C215.748 368.289 215.841 368.245 215.94 368.24C216.038 368.242 216.132 368.282 216.203 368.35C216.273 368.419 216.315 368.512 216.32 368.61L216.51 377.97C216.511 378.02 216.503 378.069 216.485 378.115C216.467 378.161 216.44 378.203 216.405 378.238C216.371 378.274 216.329 378.302 216.284 378.321C216.238 378.34 216.189 378.35 216.14 378.35Z" fill="black"/>
<path d="M207.65 369.81L215.94 367.74C215.94 367.74 215.36 353.83 215.94 341.43V344.35C215.94 339.48 216.63 337.35 213.4 333.68C210.17 330.01 207.96 327.98 209.29 326.68C210.35 325.6 214.16 328.68 215.66 329.89C216.04 330.21 216.27 330.42 216.27 330.42C216.27 330.42 216.27 319.05 222.12 321.97C227.97 324.89 227.35 332.4 227.35 332.4C227.608 329.604 227.575 326.789 227.25 324C226.74 319.29 228.25 315.43 230.25 320.88C232.25 326.33 232.52 342.79 232.52 342.79V341.47C232.96 350.18 236.1 392.47 223.8 392.61C210.11 392.75 207.53 369.73 207.53 369.73" fill="white"/>
<path d="M223.66 392.92C209.91 392.92 207.26 370.66 207.15 369.71H207.62L207.56 369.47L215.56 367.47C215.48 365.36 215.04 352.69 215.56 341.47C215.62 338.56 215.46 336.76 213.05 333.98C212.56 333.41 212.05 332.89 211.65 332.4C209.12 329.54 207.58 327.82 208.96 326.4C209.9 325.46 212.21 326.53 215.84 329.6C215.93 327.69 216.4 322.97 218.73 321.53C219.262 321.23 219.866 321.08 220.478 321.096C221.089 321.111 221.684 321.293 222.2 321.62C223.38 322.228 224.42 323.076 225.254 324.109C226.087 325.142 226.696 326.338 227.04 327.62C227.04 326.55 226.94 325.33 226.8 324.02C226.49 321.24 226.86 318.14 228.13 317.84C228.96 317.65 229.73 318.6 230.5 320.73C232.15 325.32 232.64 337.37 232.76 341.43C232.76 341.95 232.82 342.58 232.86 343.33C233.47 354.24 235.08 383.24 227.86 391.01C227.348 391.617 226.714 392.109 225.999 392.453C225.283 392.798 224.503 392.988 223.71 393.01L223.66 392.92ZM208 370.12C208.46 373.36 211.68 392.19 223.7 392.19H223.82C224.509 392.18 225.188 392.022 225.811 391.727C226.433 391.432 226.985 391.007 227.43 390.48C234.49 382.94 232.83 353.14 232.28 343.35C232.28 343.14 232.28 342.95 232.28 342.76H232.2C232.2 342.6 231.86 326.29 229.94 320.96C229.04 318.45 228.45 318.55 228.45 318.55C228 318.66 227.34 320.64 227.69 323.92C228.013 326.736 228.05 329.577 227.8 332.4L227.05 332.33C227.05 332.26 227.57 325.04 222.05 322.27C221.647 322.005 221.18 321.853 220.698 321.83C220.216 321.807 219.736 321.914 219.31 322.14C216.77 323.71 216.74 330.31 216.74 330.38V331.22L216.12 330.66C216.12 330.66 215.89 330.45 215.52 330.14C212.13 327.27 210.1 326.45 209.65 326.9C208.81 327.75 209.94 329.1 212.37 331.84L213.78 333.43C216.59 336.67 216.54 338.75 216.45 342.21C216.45 342.87 216.45 343.57 216.45 344.35H216.33C215.96 355.78 216.44 367.6 216.45 367.73V368.03L208 370.12Z" fill="black"/>
<path d="M218.22 321.93L223.41 318.36L226.99 326.8V332.65L218.22 321.93Z" fill="white"/>
<path d="M223.42 331.35C224.053 327.593 224.161 323.767 223.74 319.98C223.09 315.76 228.12 312.46 227.64 318.98C227.5 320.89 227.5 327.54 227.5 327.54" fill="white"/>
<path d="M223.78 331.42L223.05 331.29C223.672 327.572 223.78 323.787 223.37 320.04C223.218 319.166 223.3 318.268 223.609 317.437C223.919 316.605 224.443 315.872 225.13 315.31C225.382 315.109 225.687 314.984 226.007 314.951C226.328 314.917 226.652 314.976 226.94 315.12C227.53 315.46 228.2 316.42 228.01 319.03C227.88 320.91 227.87 327.5 227.87 327.57H227.12C227.12 327.3 227.12 320.88 227.27 318.98C227.39 317.29 227.13 316.09 226.56 315.77C226.394 315.705 226.214 315.686 226.038 315.714C225.863 315.742 225.697 315.817 225.56 315.93C224.991 316.412 224.558 317.036 224.305 317.738C224.053 318.439 223.989 319.196 224.12 319.93C224.551 323.757 224.436 327.625 223.78 331.42Z" fill="black"/>
<path d="M216.28 332.48C216.28 332.48 216.45 325.95 216.58 320.38C216.66 316.58 219.05 313.89 220.18 322.72" fill="white"/>
<path d="M216.65 332.49H215.9C215.9 332.49 216.08 325.96 216.2 320.4C216.25 318.48 216.87 316.52 217.97 316.46C219.07 316.4 220.02 318.46 220.55 322.69L219.8 322.78C219.1 317.27 218.04 317.21 218.01 317.21C217.62 317.21 217.01 318.52 216.95 320.41C216.83 325.92 216.65 332.49 216.65 332.49Z" fill="black"/>
<path d="M219.74 330.05C220.106 326.8 220.193 323.525 220 320.26C219.65 315.34 221.69 313.54 223.74 317.06" fill="white"/>
<path d="M220.11 330.1L219.37 330C219.733 326.773 219.82 323.522 219.63 320.28C219.42 317.34 220.04 315.28 221.26 314.91C221.78 314.74 222.85 314.78 224.06 316.91L223.42 317.29C222.73 316.11 222 315.5 221.48 315.66C220.8 315.87 220.17 317.4 220.38 320.27C220.572 323.548 220.482 326.837 220.11 330.1Z" fill="black"/>
<path d="M216.32 367.74H215.57V378.46H216.32V367.74Z" fill="black"/>
<path d="M209.824 357.997L205.809 375.154L206.54 375.325L210.554 358.168L209.824 357.997Z" fill="black"/>
<path d="M249 381.42H136V410.42H249V381.42Z" fill="white"/>
<path d="M223.5 337.92C223.5 337.92 223.5 331.92 216.5 330.92L223.5 337.92Z" fill="white"/>
<path d="M223.13 337.92C223.13 337.69 223.03 332.23 216.45 331.29L216.55 330.55C223.79 331.55 223.88 337.86 223.88 337.92H223.13Z" fill="black"/>
<path d="M356.5 327.92H239.5V418.92H356.5V327.92Z" fill="#FCE054"/>
<path d="M300.12 346.53C304.01 339.35 292.94 329.31 283.92 348.58C271.85 350.75 278.67 354.22 273.47 358.85C272.068 360.024 271.147 361.673 270.883 363.482C270.619 365.292 271.031 367.135 272.04 368.66C275.93 374.66 268.55 375.43 268.55 379.12C268.55 382.81 279.82 382.4 290.07 380.76C300.32 379.12 309.55 384.04 313.65 381.58C317.75 379.12 308.73 372.97 309.34 369.28C309.95 365.59 313.44 365.18 312.42 360.05C311.92 354.21 304.46 346.37 300.12 346.53Z" fill="black"/>
<path d="M304 357.3C304.89 353.91 307.22 352.47 308.2 356.57C309.18 360.67 305.45 366.11 304.2 364.82" fill="white"/>
<path d="M304.6 365.39C304.466 365.391 304.333 365.365 304.21 365.313C304.086 365.262 303.974 365.186 303.88 365.09C303.811 365.019 303.773 364.924 303.773 364.825C303.773 364.726 303.811 364.631 303.88 364.56C303.914 364.525 303.956 364.496 304.001 364.477C304.047 364.458 304.096 364.448 304.145 364.448C304.194 364.448 304.243 364.458 304.289 364.477C304.334 364.496 304.375 364.525 304.41 364.56C304.41 364.56 304.58 364.73 304.96 364.56C306.34 363.8 308.54 359.86 307.78 356.7C307.45 355.32 306.92 354.49 306.36 354.48C305.72 354.48 304.82 355.48 304.36 357.48C304.349 357.527 304.328 357.572 304.298 357.61C304.269 357.649 304.233 357.682 304.19 357.706C304.148 357.73 304.102 357.746 304.054 357.752C304.006 357.758 303.957 357.754 303.91 357.74C303.863 357.728 303.818 357.707 303.779 357.678C303.74 357.649 303.707 357.613 303.681 357.571C303.656 357.529 303.64 357.483 303.633 357.435C303.626 357.387 303.628 357.337 303.64 357.29C304.2 355.15 305.28 353.77 306.41 353.77C307.08 353.77 308 354.27 308.55 356.56C309.34 359.88 307.16 364.27 305.36 365.26C305.122 365.368 304.86 365.413 304.6 365.39Z" fill="black"/>
<path d="M281.94 357.3C280.94 353.91 278.26 352.47 277.14 356.57C276.02 360.67 280.28 366.11 281.72 364.82" fill="white"/>
<path d="M281.2 365.39C280.821 365.373 280.455 365.252 280.14 365.04C278.14 363.82 275.9 359.68 276.78 356.47C277.44 354.07 278.56 353.7 279.17 353.69C280.4 353.69 281.65 355.1 282.28 357.19C282.295 357.281 282.276 357.374 282.227 357.451C282.179 357.529 282.104 357.587 282.016 357.614C281.928 357.641 281.834 357.635 281.75 357.597C281.666 357.56 281.599 357.493 281.56 357.41C281.05 355.69 280.04 354.41 279.17 354.41C278.49 354.41 277.88 355.23 277.49 356.64C276.71 359.49 278.8 363.29 280.49 364.37C280.73 364.52 281.17 364.74 281.42 364.51C281.492 364.443 281.587 364.406 281.685 364.406C281.783 364.406 281.878 364.443 281.95 364.51C281.985 364.544 282.014 364.586 282.033 364.631C282.052 364.677 282.062 364.726 282.062 364.775C282.062 364.824 282.052 364.873 282.033 364.919C282.014 364.964 281.985 365.006 281.95 365.04C281.755 365.25 281.486 365.375 281.2 365.39Z" fill="black"/>
<path d="M313 428.52L313.08 414.21L326.08 414.08C327.71 376.91 309.28 382.79 279.97 383.67C262.13 384.16 263.08 410.67 263.66 419.92H275.3L275.19 428.08" fill="white"/>
<path d="M313.32 428.52H312.57L312.66 413.84L325.66 413.71C326.18 400.89 324.31 392.82 319.78 388.32C313.78 382.32 303.18 382.91 289.78 383.61C286.62 383.77 283.37 383.94 279.93 384.04C278.088 384.041 276.267 384.427 274.583 385.173C272.899 385.918 271.389 387.007 270.15 388.37C265.15 393.88 263.04 404.37 263.97 419.55H275.63L275.51 428.09H274.76L274.87 420.31H263.26V419.95C262.26 404.37 264.41 393.58 269.61 387.87C270.919 386.434 272.512 385.286 274.289 384.499C276.066 383.712 277.987 383.304 279.93 383.3C283.35 383.2 286.61 383.03 289.76 382.87C303.35 382.16 314.09 381.6 320.34 387.8C325.07 392.5 327.01 400.86 326.43 414.11V414.46L313.49 414.59L313.32 428.52Z" fill="black"/>
<path d="M286.07 383.49C280.67 386.49 292.42 393.03 293.67 388.57C296.29 392.33 305.22 385.47 299.22 383.01" fill="white"/>
<path d="M291.32 390.46H291.25C288.7 390.46 284.94 388.32 284.36 386.01C284.19 385.36 284.17 384.12 285.88 383.16C285.966 383.122 286.064 383.117 286.154 383.147C286.244 383.177 286.319 383.239 286.365 383.322C286.412 383.404 286.425 383.501 286.404 383.593C286.383 383.685 286.328 383.766 286.25 383.82C285.25 384.36 284.88 385.04 285.08 385.82C285.53 387.6 288.82 389.66 291.26 389.7H291.32C292.41 389.7 293.08 389.28 293.32 388.46C293.34 388.391 293.378 388.33 293.431 388.282C293.484 388.234 293.55 388.202 293.62 388.19C293.691 388.181 293.762 388.19 293.827 388.219C293.893 388.247 293.949 388.292 293.99 388.35C294.36 388.786 294.857 389.094 295.411 389.232C295.966 389.37 296.549 389.331 297.08 389.12C299.03 388.56 300.81 386.85 300.89 385.46C300.89 384.57 300.33 383.86 299.09 383.35C299.044 383.332 299.003 383.304 298.968 383.269C298.933 383.234 298.906 383.193 298.887 383.147C298.868 383.101 298.859 383.053 298.859 383.003C298.86 382.954 298.87 382.905 298.89 382.86C298.907 382.815 298.934 382.773 298.968 382.739C299.002 382.704 299.043 382.676 299.087 382.658C299.132 382.639 299.18 382.629 299.229 382.63C299.278 382.63 299.326 382.641 299.37 382.66C301.37 383.46 301.69 384.66 301.64 385.5C301.53 387.5 299.3 389.27 297.29 389.84C296.707 390.057 296.077 390.117 295.463 390.016C294.849 389.914 294.272 389.653 293.79 389.26C293.526 389.666 293.157 389.992 292.722 390.203C292.287 390.415 291.802 390.504 291.32 390.46Z" fill="black"/>
<path d="M327 418.92C327 418.92 330.83 399.8 334.39 391.21C336.598 385.585 339.109 380.084 341.91 374.73C343.48 371.96 345.19 368.63 342.55 368.92C342.55 368.92 342.55 365.4 340.76 366.92C340.76 366.92 340.89 361.22 334.7 370.11C334.7 370.11 337.46 364.11 335.54 363.99C333.62 363.87 327 376.92 327 376.92C329.63 343.79 313.19 418.01 312.48 419.62" fill="white"/>
<path d="M312.49 419.98C312.437 419.991 312.383 419.991 312.33 419.98C312.285 419.961 312.245 419.932 312.211 419.897C312.177 419.862 312.151 419.82 312.133 419.775C312.115 419.729 312.107 419.68 312.108 419.632C312.109 419.583 312.12 419.535 312.14 419.49C312.27 419.18 313.14 415.78 314.14 411.49C321.86 379.16 325.14 368.08 326.8 368.08H326.86C327.45 368.18 327.94 368.82 327.52 375.16C329.66 371.1 333.86 363.53 335.6 363.67C335.767 363.677 335.929 363.725 336.072 363.811C336.216 363.896 336.335 364.016 336.42 364.16C336.85 364.87 336.54 366.34 336.11 367.68C338.45 364.78 339.52 364.68 340.11 364.85C340.395 364.983 340.638 365.191 340.815 365.452C340.991 365.712 341.093 366.016 341.11 366.33C341.252 366.266 341.405 366.233 341.56 366.233C341.715 366.233 341.869 366.266 342.01 366.33C342.74 366.69 342.91 367.93 342.94 368.62C343.164 368.605 343.388 368.648 343.591 368.744C343.794 368.841 343.97 368.987 344.1 369.17C344.75 370.17 343.88 372.17 342.26 375.01C339.465 380.349 336.958 385.833 334.75 391.44C331.26 399.91 327.43 418.89 327.39 419.09C327.38 419.138 327.362 419.184 327.334 419.225C327.307 419.265 327.272 419.3 327.231 419.327C327.19 419.354 327.144 419.373 327.096 419.382C327.048 419.391 326.998 419.39 326.95 419.38C326.854 419.358 326.77 419.301 326.716 419.218C326.662 419.136 326.642 419.037 326.66 418.94C326.66 418.75 330.54 399.69 334.06 391.15C336.277 385.514 338.798 380.003 341.61 374.64C342.26 373.48 344.01 370.39 343.47 369.58C343.35 369.4 343.06 369.33 342.61 369.39C342.558 369.393 342.505 369.386 342.455 369.369C342.405 369.352 342.36 369.325 342.32 369.29C342.281 369.255 342.25 369.212 342.229 369.163C342.208 369.115 342.198 369.063 342.2 369.01C342.2 368.28 342.03 367.18 341.68 367.01C341.49 366.92 341.18 367.14 341.02 367.27C340.96 367.308 340.891 367.329 340.82 367.329C340.749 367.329 340.68 367.308 340.62 367.27C340.555 367.242 340.499 367.194 340.462 367.133C340.424 367.072 340.406 367.001 340.41 366.93C340.41 366.53 340.3 365.67 339.9 365.53C339.5 365.39 338.39 365.53 335.03 370.35C334.974 370.426 334.893 370.478 334.801 370.498C334.709 370.519 334.613 370.505 334.53 370.46C334.449 370.414 334.389 370.338 334.361 370.249C334.333 370.16 334.34 370.064 334.38 369.98C335.22 368.15 336.2 365.25 335.76 364.51C335.739 364.471 335.707 364.438 335.668 364.415C335.629 364.392 335.585 364.38 335.54 364.38C334.48 364.38 330.48 370.96 327.35 377.1C327.312 377.177 327.247 377.237 327.169 377.272C327.091 377.307 327.003 377.313 326.92 377.29C326.836 377.267 326.762 377.216 326.711 377.145C326.66 377.074 326.635 376.987 326.64 376.9C327.13 370.78 326.88 369.25 326.72 368.9C324.63 370.8 317.56 400.41 314.86 411.68C313.61 416.94 312.99 419.48 312.86 419.82C312.821 419.88 312.765 419.926 312.699 419.955C312.633 419.983 312.561 419.992 312.49 419.98Z" fill="black"/>
<path d="M336.19 378.84C336.19 378.84 340.52 370.08 342.67 368.84L336.19 378.84Z" fill="white"/>
<path d="M336.19 379.22C336.137 379.234 336.083 379.234 336.03 379.22C335.985 379.2 335.944 379.171 335.911 379.134C335.877 379.097 335.852 379.054 335.836 379.007C335.82 378.96 335.814 378.91 335.818 378.861C335.822 378.812 335.837 378.764 335.86 378.72C336.03 378.36 340.25 369.84 342.48 368.52C342.567 368.473 342.669 368.461 342.765 368.485C342.861 368.509 342.945 368.568 343 368.65C343.048 368.738 343.06 368.841 343.034 368.938C343.008 369.035 342.946 369.118 342.86 369.17C341.17 370.17 337.72 376.64 336.53 379.05C336.493 379.105 336.442 379.15 336.382 379.179C336.323 379.209 336.256 379.223 336.19 379.22Z" fill="black"/>
<path d="M334.31 377.63C334.31 377.63 337.88 370.38 340.88 366.76L334.31 377.63Z" fill="white"/>
<path d="M334.31 378C334.254 378.014 334.196 378.014 334.14 378C334.052 377.955 333.986 377.878 333.954 377.784C333.922 377.691 333.928 377.589 333.97 377.5C334.12 377.21 337.6 370.17 340.59 366.56C340.658 366.498 340.745 366.463 340.837 366.46C340.929 366.458 341.018 366.489 341.089 366.547C341.16 366.606 341.207 366.688 341.222 366.779C341.237 366.869 341.218 366.962 341.17 367.04C338.23 370.58 334.68 377.76 334.65 377.83C334.614 377.887 334.563 377.932 334.503 377.962C334.443 377.992 334.377 378.005 334.31 378Z" fill="black"/>
<path d="M332 375.69C332.828 373.668 333.784 371.701 334.86 369.8L332 375.69Z" fill="white"/>
<path d="M332 376.07C331.954 376.08 331.906 376.08 331.86 376.07C331.814 376.052 331.773 376.024 331.738 375.989C331.703 375.954 331.676 375.913 331.657 375.867C331.638 375.822 331.629 375.773 331.629 375.723C331.63 375.674 331.64 375.625 331.66 375.58C332.488 373.518 333.453 371.513 334.55 369.58C334.578 369.54 334.614 369.505 334.655 369.479C334.696 369.452 334.743 369.434 334.791 369.426C334.839 369.418 334.889 369.419 334.937 369.43C334.985 369.441 335.03 369.461 335.07 369.49C335.151 369.547 335.207 369.633 335.226 369.73C335.244 369.827 335.224 369.927 335.17 370.01C334.113 371.894 333.171 373.841 332.35 375.84C332.321 375.909 332.272 375.967 332.209 376.008C332.147 376.048 332.074 376.07 332 376.07Z" fill="black"/>
<path d="M329.48 384.07C329.48 384.07 329.2 379 326.4 378.52L327.23 375.89" fill="white"/>
<path d="M329.48 384.44C329.385 384.44 329.294 384.404 329.225 384.339C329.156 384.274 329.115 384.185 329.11 384.09C329.11 384.04 328.81 379.31 326.34 378.89C326.287 378.881 326.237 378.861 326.192 378.832C326.148 378.803 326.109 378.765 326.08 378.72C326.058 378.671 326.047 378.618 326.047 378.565C326.047 378.512 326.058 378.459 326.08 378.41L326.91 375.78C326.94 375.685 327.006 375.606 327.094 375.559C327.182 375.512 327.284 375.502 327.38 375.53C327.475 375.56 327.554 375.626 327.601 375.714C327.648 375.802 327.658 375.904 327.63 376L326.92 378.25C329.59 379.15 329.92 383.84 329.92 384.05C329.923 384.149 329.887 384.245 329.819 384.318C329.752 384.391 329.659 384.435 329.56 384.44H329.48Z" fill="black"/>
<path d="M312.91 416.09C312.811 416.09 312.716 416.051 312.645 415.982C312.574 415.913 312.533 415.819 312.53 415.72C312.53 409.62 310.6 401.17 310.53 401.08C310.509 400.983 310.526 400.882 310.579 400.798C310.631 400.714 310.714 400.654 310.81 400.63C310.858 400.618 310.908 400.616 310.957 400.624C311.005 400.632 311.052 400.649 311.094 400.675C311.136 400.701 311.172 400.735 311.201 400.776C311.229 400.816 311.249 400.862 311.26 400.91C311.26 401 313.26 409.53 313.26 415.72C313.26 415.815 313.224 415.906 313.159 415.975C313.094 416.044 313.005 416.085 312.91 416.09Z" fill="black"/>
<path d="M274.84 419.3C274.75 406.3 276.23 399.67 276.24 399.61L276.97 399.77C276.97 399.84 275.5 406.39 275.59 419.29L274.84 419.3Z" fill="black"/>
<path d="M295.25 396.42C295.25 396.685 295.145 396.94 294.957 397.127C294.769 397.315 294.515 397.42 294.25 397.42C293.985 397.42 293.731 397.315 293.543 397.127C293.355 396.94 293.25 396.685 293.25 396.42C293.25 396.155 293.355 395.9 293.543 395.713C293.731 395.525 293.985 395.42 294.25 395.42C294.515 395.42 294.769 395.525 294.957 395.713C295.145 395.9 295.25 396.155 295.25 396.42Z" fill="black"/>
<path d="M295.25 403.62C295.25 403.885 295.145 404.14 294.957 404.327C294.769 404.515 294.515 404.62 294.25 404.62C293.985 404.62 293.731 404.515 293.543 404.327C293.355 404.14 293.25 403.885 293.25 403.62C293.25 403.355 293.355 403.101 293.543 402.913C293.731 402.725 293.985 402.62 294.25 402.62C294.515 402.62 294.769 402.725 294.957 402.913C295.145 403.101 295.25 403.355 295.25 403.62Z" fill="black"/>
<path d="M287.2 374.92V383.44C287.2 383.44 288.2 386.7 292.94 386.5C297.68 386.3 297.86 383.01 297.86 383.01V375.01L287.2 374.92Z" fill="white"/>
<path d="M292.53 386.92C287.95 386.92 286.86 383.62 286.85 383.59C286.841 383.554 286.841 383.516 286.85 383.48V374.92C286.85 374.872 286.86 374.824 286.878 374.779C286.897 374.734 286.925 374.694 286.96 374.66C286.994 374.623 287.036 374.594 287.083 374.575C287.129 374.556 287.18 374.547 287.23 374.55L297.89 374.64C297.989 374.643 298.083 374.684 298.152 374.755C298.222 374.826 298.26 374.921 298.26 375.02V383.02C298.26 383.08 297.97 386.67 292.98 386.88L292.53 386.92ZM287.53 383.41C287.68 383.82 288.79 386.33 292.88 386.16C297.18 385.98 297.43 383.16 297.44 383.03V375.43L287.53 375.34V383.41Z" fill="black"/>
<path d="M281.09 366.92C281.09 366.92 282.09 376.41 289.59 377.39C308.41 383.48 308.16 347.84 295.15 346.64C280.48 343.7 280.05 360.11 281.09 366.92Z" fill="white"/>
<path d="M291.85 347.06C292.909 347.066 293.964 347.18 295 347.4H295.08C300.87 347.93 303.97 356.18 303.62 363.84C303.33 370.07 300.55 377.35 293.68 377.35C292.367 377.332 291.064 377.11 289.82 376.69C289.777 376.681 289.733 376.681 289.69 376.69C282.85 375.8 281.84 366.98 281.83 366.85C281.19 362.68 281.12 354.45 284.89 350.07C285.753 349.073 286.832 348.284 288.045 347.764C289.257 347.245 290.572 347.007 291.89 347.07L291.85 347.06ZM291.89 346.32C280.46 346.32 280.17 360.68 281.13 366.95C281.13 366.95 282.13 376.44 289.63 377.42C290.948 377.867 292.328 378.103 293.72 378.12C308.33 378.12 307.18 347.78 295.19 346.67C294.104 346.444 292.999 346.327 291.89 346.32Z" fill="black"/>
<path d="M291.92 365.38C291.92 365.38 287.82 366.38 291.39 356.27L291.92 365.38Z" fill="white"/>
<path d="M291.63 365.79C291.372 365.793 291.116 365.742 290.88 365.638C290.644 365.535 290.433 365.382 290.26 365.19C289.11 363.93 289.37 360.88 291.04 356.19C291.055 356.143 291.079 356.1 291.11 356.063C291.142 356.026 291.181 355.995 291.225 355.974C291.269 355.952 291.317 355.94 291.366 355.938C291.415 355.935 291.464 355.943 291.51 355.96C291.557 355.976 291.601 356.001 291.638 356.034C291.675 356.066 291.705 356.107 291.727 356.151C291.748 356.196 291.761 356.245 291.763 356.294C291.765 356.344 291.757 356.394 291.74 356.44C289.74 362.26 290.28 364.13 290.81 364.72C290.934 364.857 291.091 364.96 291.266 365.019C291.441 365.079 291.628 365.093 291.81 365.06C291.907 365.039 292.008 365.056 292.092 365.109C292.176 365.161 292.236 365.244 292.26 365.34C292.272 365.387 292.275 365.437 292.267 365.485C292.26 365.533 292.244 365.579 292.219 365.621C292.193 365.663 292.16 365.699 292.121 365.728C292.082 365.757 292.037 365.778 291.99 365.79C291.87 365.8 291.75 365.8 291.63 365.79Z" fill="black"/>
<path d="M299 367.86C298.99 368.585 298.725 369.283 298.252 369.832C297.778 370.381 297.126 370.745 296.41 370.86" fill="white"/>
<path d="M296.39 371.25C296.302 371.249 296.217 371.218 296.15 371.161C296.082 371.105 296.036 371.027 296.02 370.94C296.005 370.841 296.029 370.74 296.087 370.658C296.145 370.576 296.232 370.519 296.33 370.5C296.96 370.4 297.534 370.08 297.95 369.597C298.366 369.113 298.596 368.498 298.6 367.86C298.6 367.759 298.64 367.663 298.711 367.591C298.783 367.52 298.879 367.48 298.98 367.48C299.03 367.48 299.079 367.49 299.124 367.509C299.17 367.528 299.211 367.556 299.245 367.592C299.28 367.627 299.307 367.669 299.325 367.715C299.343 367.761 299.352 367.811 299.35 367.86C299.353 368.676 299.062 369.466 298.532 370.086C298.002 370.706 297.266 371.116 296.46 371.24L296.39 371.25Z" fill="black"/>
<path d="M290.15 356.65C290.03 363.17 280.34 363.17 280.23 356.65C280.35 350.14 290 350.14 290.15 356.65Z" fill="white"/>
<path d="M285.19 361.92C283.795 361.92 282.457 361.366 281.471 360.379C280.484 359.393 279.93 358.055 279.93 356.66C279.93 355.265 280.484 353.927 281.471 352.941C282.457 351.954 283.795 351.4 285.19 351.4C285.891 351.374 286.59 351.492 287.244 351.746C287.898 352 288.493 352.385 288.992 352.878C289.491 353.371 289.884 353.961 290.147 354.611C290.41 355.261 290.537 355.959 290.52 356.66C290.538 357.362 290.412 358.06 290.15 358.711C289.888 359.362 289.495 359.952 288.995 360.445C288.495 360.938 287.9 361.324 287.246 361.577C286.591 361.831 285.891 361.948 285.19 361.92ZM285.19 352.15C284.301 352.164 283.436 352.44 282.704 352.944C281.971 353.448 281.404 354.157 281.073 354.982C280.743 355.807 280.664 356.712 280.845 357.582C281.027 358.452 281.462 359.249 282.096 359.873C282.729 360.497 283.533 360.919 284.406 361.088C285.278 361.256 286.182 361.163 287.002 360.82C287.822 360.476 288.522 359.898 289.014 359.158C289.507 358.418 289.77 357.549 289.77 356.66C289.786 356.057 289.677 355.457 289.452 354.898C289.226 354.339 288.888 353.832 288.459 353.408C288.03 352.984 287.518 352.653 286.956 352.435C286.394 352.217 285.793 352.117 285.19 352.14V352.15Z" fill="black"/>
<path d="M302.43 356.65C302.31 363.17 292.63 363.17 292.52 356.65C292.63 350.14 302.32 350.14 302.43 356.65Z" fill="white"/>
<path d="M297.47 361.92C296.075 361.92 294.737 361.366 293.751 360.379C292.764 359.393 292.21 358.055 292.21 356.66C292.21 355.265 292.764 353.927 293.751 352.941C294.737 351.954 296.075 351.4 297.47 351.4C298.171 351.372 298.871 351.489 299.526 351.743C300.18 351.996 300.776 352.382 301.275 352.875C301.775 353.368 302.168 353.958 302.43 354.609C302.692 355.26 302.818 355.958 302.8 356.66C302.818 357.362 302.692 358.06 302.43 358.711C302.168 359.362 301.775 359.952 301.275 360.445C300.776 360.938 300.18 361.324 299.526 361.577C298.871 361.831 298.171 361.948 297.47 361.92ZM297.47 352.15C296.581 352.164 295.716 352.44 294.984 352.944C294.251 353.448 293.684 354.157 293.354 354.982C293.023 355.807 292.943 356.712 293.125 357.582C293.307 358.452 293.742 359.249 294.375 359.873C295.009 360.497 295.813 360.919 296.686 361.088C297.558 361.256 298.462 361.163 299.282 360.82C300.102 360.476 300.802 359.898 301.294 359.158C301.787 358.418 302.05 357.549 302.05 356.66C302.066 356.057 301.957 355.457 301.732 354.898C301.506 354.339 301.169 353.831 300.739 353.408C300.31 352.984 299.798 352.653 299.236 352.435C298.674 352.217 298.073 352.117 297.47 352.14V352.15Z" fill="black"/>
<path d="M290.15 356.27C290.15 356.27 291.04 354.78 292.53 356.27H290.15Z" fill="white"/>
<path d="M290.15 356.65C290.079 356.65 290.009 356.629 289.95 356.59C289.867 356.538 289.807 356.456 289.783 356.361C289.758 356.266 289.772 356.165 289.82 356.08C289.96 355.862 290.143 355.675 290.358 355.53C290.573 355.386 290.815 355.287 291.07 355.24C291.397 355.224 291.723 355.283 292.023 355.413C292.323 355.543 292.589 355.741 292.8 355.99C292.867 356.062 292.904 356.157 292.904 356.255C292.904 356.353 292.867 356.448 292.8 356.52C292.729 356.589 292.634 356.628 292.535 356.628C292.436 356.628 292.341 356.589 292.27 356.52C292.136 356.356 291.969 356.223 291.779 356.13C291.589 356.037 291.381 355.986 291.17 355.98C291.026 356.009 290.889 356.067 290.769 356.151C290.648 356.236 290.546 356.344 290.47 356.47C290.435 356.524 290.388 356.568 290.332 356.599C290.276 356.63 290.214 356.648 290.15 356.65Z" fill="black"/>
<path d="M286.27 356.76C286.27 356.903 286.213 357.041 286.112 357.142C286.011 357.243 285.873 357.3 285.73 357.3C285.587 357.3 285.449 357.243 285.348 357.142C285.247 357.041 285.19 356.903 285.19 356.76C285.19 356.617 285.247 356.479 285.348 356.378C285.449 356.277 285.587 356.22 285.73 356.22C285.873 356.22 286.011 356.277 286.112 356.378C286.213 356.479 286.27 356.617 286.27 356.76Z" fill="black"/>
<path d="M297.69 356.76C297.69 356.903 297.633 357.041 297.532 357.142C297.43 357.243 297.293 357.3 297.15 357.3C297.007 357.3 296.869 357.243 296.768 357.142C296.667 357.041 296.61 356.903 296.61 356.76C296.61 356.617 296.667 356.479 296.768 356.378C296.869 356.277 297.007 356.22 297.15 356.22C297.293 356.22 297.43 356.277 297.532 356.378C297.633 356.479 297.69 356.617 297.69 356.76Z" fill="black"/>
<path d="M294.89 349.54C295.355 349.365 295.857 349.313 296.348 349.39C296.839 349.467 297.301 349.671 297.69 349.98" fill="white"/>
<path d="M297.69 350.35C297.589 350.35 297.492 350.31 297.42 350.24C297.082 349.983 296.685 349.816 296.264 349.757C295.844 349.697 295.416 349.747 295.02 349.9C294.927 349.932 294.825 349.927 294.735 349.885C294.646 349.843 294.576 349.768 294.541 349.676C294.506 349.584 294.508 349.481 294.547 349.391C294.586 349.3 294.659 349.228 294.75 349.19C295.282 348.987 295.858 348.928 296.42 349.019C296.982 349.111 297.51 349.349 297.95 349.71C297.985 349.745 298.013 349.786 298.033 349.831C298.052 349.877 298.062 349.926 298.062 349.975C298.062 350.024 298.052 350.073 298.033 350.119C298.013 350.164 297.985 350.205 297.95 350.24C297.881 350.309 297.787 350.348 297.69 350.35Z" fill="black"/>
<path d="M286.48 349.98C286.842 349.673 287.3 349.504 287.775 349.504C288.249 349.504 288.709 349.673 289.07 349.98" fill="white"/>
<path d="M289.07 350.35C288.991 350.352 288.914 350.327 288.85 350.28C288.562 350.021 288.188 349.877 287.8 349.877C287.412 349.877 287.038 350.021 286.75 350.28C286.679 350.349 286.584 350.388 286.485 350.388C286.386 350.388 286.291 350.349 286.22 350.28C286.185 350.246 286.156 350.204 286.137 350.159C286.118 350.113 286.108 350.064 286.108 350.015C286.108 349.966 286.118 349.917 286.137 349.871C286.156 349.826 286.185 349.784 286.22 349.75C286.646 349.38 287.191 349.176 287.755 349.176C288.319 349.176 288.864 349.38 289.29 349.75C289.33 349.779 289.363 349.815 289.389 349.857C289.414 349.899 289.431 349.945 289.438 349.993C289.446 350.042 289.444 350.091 289.432 350.139C289.42 350.186 289.399 350.231 289.37 350.27C289.33 350.306 289.282 350.332 289.23 350.346C289.178 350.36 289.123 350.362 289.07 350.35Z" fill="black"/>
<path d="M349.5 418.92H253.5V436.92H349.5V418.92Z" fill="white"/>
<path d="M357 327.42H239V337.42H357V327.42Z" fill="#CB93EE"/>
<path d="M244.5 334.92C245.605 334.92 246.5 334.025 246.5 332.92C246.5 331.815 245.605 330.92 244.5 330.92C243.395 330.92 242.5 331.815 242.5 332.92C242.5 334.025 243.395 334.92 244.5 334.92Z" fill="white"/>
<path d="M250.5 334.92C251.605 334.92 252.5 334.025 252.5 332.92C252.5 331.815 251.605 330.92 250.5 330.92C249.395 330.92 248.5 331.815 248.5 332.92C248.5 334.025 249.395 334.92 250.5 334.92Z" fill="white"/>
<path d="M257.5 334.92C258.605 334.92 259.5 334.025 259.5 332.92C259.5 331.815 258.605 330.92 257.5 330.92C256.395 330.92 255.5 331.815 255.5 332.92C255.5 334.025 256.395 334.92 257.5 334.92Z" fill="white"/>
<path d="M275 428.42H136V453.42H275V428.42Z" fill="#CB93EE"/>
<path d="M144.02 435.425L144.012 437.425L265.831 437.935L265.839 435.935L144.02 435.425Z" fill="white"/>
<path d="M214 443.42H144V445.42H214V443.42Z" fill="white"/>
<path d="M252.5 268.42C254.985 268.42 257 266.405 257 263.92C257 261.435 254.985 259.42 252.5 259.42C250.015 259.42 248 261.435 248 263.92C248 266.405 250.015 268.42 252.5 268.42Z" fill="black"/>
<path d="M567.08 228.68C567.08 228.68 520.4 171.79 497.08 187.84C473.76 203.89 491.24 233.06 491.24 233.06L549.59 317.66C549.59 317.66 546.09 331.18 575.94 346.56C616.14 367.27 655.12 336.82 655.12 314.89C655.12 292.96 628.76 285.83 637.12 272.44C650.4 251.1 636.84 213.79 567.08 228.68Z" fill="black"/>
<path d="M527 583.42L528 591.42L668.61 586.14C668.61 586.14 650.61 442.14 619.61 405.14C588.61 368.14 546.61 365.14 523.61 417.14C507.09 454.49 486.61 502.3 476.43 526.28C465.92 417.78 469.43 218.94 449.88 356.28C449.88 356.28 433.24 291.28 424.53 289.88C415.82 288.48 422.15 318.13 422.15 318.13C403.39 272.13 398.22 297.74 398.22 297.74C391.45 289.28 388.15 305.09 388.15 305.09C376.65 301.09 380.96 317.78 385.15 331.73C389.34 345.68 395.04 370.98 402.3 413.02C409.56 455.06 416 546.42 416 546.42C416.46 597.42 445 635.42 483.61 630.14C496.13 629.66 507.53 622.06 517 602.42C516.4 598.62 527.53 587.69 527 583.42Z" fill="white"/>
<path d="M568.19 228.45C568.19 228.45 579.11 242.64 563.62 269.45C563.001 270.084 562.217 270.534 561.358 270.749C560.498 270.965 559.595 270.937 558.75 270.67C558.75 270.67 572.28 242.13 563.75 224.78L568.19 228.45Z" fill="white"/>
<path d="M539.11 398.64L520.11 349.64C520.11 349.64 483.11 366.64 486.11 311.64C486.11 311.64 469.11 306.64 479.11 286.64C489.11 266.64 487.11 251.64 488.11 242.64C489.11 233.64 499.11 222.64 499.11 222.64C499.11 222.64 523.11 224.64 523.11 238.64C523.11 238.64 509.11 269.64 535.11 275.64C535.11 275.64 551.11 260.64 564.11 268.64C577.11 276.64 575.11 294.64 567.11 299.64C559.11 304.64 548.61 306.14 548.61 306.14C548.61 306.14 547.61 323.14 565.61 330.14L581.61 379.14L539.11 398.64Z" fill="white"/>
<path d="M539.12 290.14C539.12 290.14 547.12 270.61 563.12 280.37L539.12 290.14Z" fill="white"/>
<path d="M539.12 291.14C538.99 291.137 538.861 291.109 538.74 291.06C538.497 290.958 538.304 290.765 538.202 290.521C538.101 290.278 538.1 290.004 538.2 289.76C538.36 289.36 542.3 279.93 550.31 277.3C554.49 275.93 558.96 276.68 563.61 279.52C563.742 279.574 563.861 279.657 563.959 279.761C564.057 279.865 564.131 279.99 564.177 280.125C564.222 280.26 564.238 280.404 564.224 280.546C564.209 280.688 564.164 280.826 564.092 280.949C564.02 281.073 563.922 281.179 563.805 281.262C563.689 281.344 563.556 281.401 563.415 281.427C563.275 281.454 563.13 281.45 562.991 281.416C562.852 281.382 562.722 281.319 562.61 281.23C558.49 278.71 554.61 278.03 550.98 279.23C543.85 281.56 540.12 290.46 540.09 290.55C540.007 290.735 539.87 290.891 539.697 290.996C539.524 291.101 539.323 291.152 539.12 291.14Z" fill="black"/>
<path d="M556.88 286.59C556.88 286.59 554.54 279.38 545.05 281.65L556.88 286.59Z" fill="white"/>
<path d="M556.88 287.59C556.661 287.601 556.444 287.539 556.263 287.414C556.083 287.29 555.948 287.109 555.88 286.9C555.79 286.64 553.66 280.6 545.24 282.62C545.11 282.66 544.972 282.674 544.837 282.659C544.701 282.644 544.57 282.602 544.451 282.534C544.332 282.467 544.228 282.376 544.146 282.267C544.064 282.158 544.005 282.033 543.973 281.9C543.941 281.767 543.936 281.63 543.959 281.495C543.982 281.36 544.033 281.232 544.108 281.118C544.182 281.003 544.279 280.905 544.393 280.83C544.507 280.755 544.636 280.704 544.77 280.68C555.03 278.22 557.77 286.2 557.77 286.28C557.852 286.532 557.831 286.806 557.711 287.042C557.591 287.279 557.382 287.458 557.13 287.54C557.049 287.566 556.965 287.582 556.88 287.59Z" fill="black"/>
<path d="M499.61 260.14C499.396 260.141 499.183 260.107 498.98 260.04L492.98 258.04C492.476 257.873 492.059 257.513 491.821 257.038C491.583 256.564 491.543 256.014 491.71 255.51C491.877 255.006 492.237 254.589 492.712 254.351C493.186 254.113 493.736 254.073 494.24 254.24L500.24 256.24C500.692 256.389 501.077 256.694 501.324 257.101C501.572 257.507 501.666 257.989 501.59 258.459C501.514 258.929 501.273 259.357 500.91 259.665C500.547 259.973 500.086 260.141 499.61 260.14Z" fill="black"/>
<path d="M499.61 323.14C499.61 323.14 508.61 325.14 509.61 315.14L499.61 323.14Z" fill="white"/>
<path d="M501.42 324.3C500.749 324.3 500.08 324.24 499.42 324.12C499.155 324.063 498.923 323.903 498.776 323.675C498.629 323.447 498.578 323.17 498.635 322.905C498.692 322.64 498.852 322.408 499.08 322.261C499.308 322.114 499.585 322.063 499.85 322.12C501.894 322.51 504.01 322.11 505.77 321C507.4 319.81 508.36 317.79 508.64 315C508.666 314.735 508.797 314.491 509.004 314.322C509.21 314.153 509.475 314.074 509.74 314.1C510.005 314.127 510.249 314.257 510.418 314.464C510.586 314.67 510.666 314.935 510.64 315.2C510.3 318.59 509.06 321.09 506.94 322.63C505.322 323.755 503.39 324.34 501.42 324.3Z" fill="black"/>
<path d="M548.61 306.14H538.61C538.345 306.14 538.09 306.035 537.903 305.847C537.715 305.66 537.61 305.405 537.61 305.14C537.61 304.875 537.715 304.621 537.903 304.433C538.09 304.245 538.345 304.14 538.61 304.14H548.61C548.875 304.14 549.13 304.245 549.317 304.433C549.505 304.621 549.61 304.875 549.61 305.14C549.61 305.405 549.505 305.66 549.317 305.847C549.13 306.035 548.875 306.14 548.61 306.14Z" fill="black"/>
<path d="M482.61 631.14C482.345 631.153 482.085 631.061 481.888 630.882C481.691 630.704 481.573 630.455 481.56 630.19C481.547 629.925 481.639 629.665 481.818 629.468C481.996 629.271 482.245 629.153 482.51 629.14C504.18 627.08 516.97 603.8 525.69 583.74C525.778 583.535 525.933 583.366 526.128 583.259C526.324 583.152 526.55 583.114 526.77 583.15C526.992 583.185 527.196 583.294 527.348 583.459C527.5 583.624 527.593 583.836 527.61 584.06L529.61 609.06C529.621 609.191 529.606 609.324 529.565 609.449C529.525 609.575 529.46 609.691 529.375 609.792C529.289 609.892 529.185 609.974 529.067 610.034C528.95 610.094 528.821 610.13 528.69 610.14C528.559 610.151 528.426 610.136 528.301 610.095C528.175 610.055 528.059 609.99 527.959 609.905C527.858 609.819 527.776 609.715 527.716 609.597C527.656 609.48 527.62 609.352 527.61 609.22L525.93 588.15C517.03 607.79 504.1 629.1 482.7 631.15L482.61 631.14Z" fill="black"/>
<path d="M526.61 585.14C526.446 585.141 526.283 585.101 526.137 585.024C525.992 584.947 525.868 584.835 525.776 584.699C525.684 584.562 525.627 584.405 525.61 584.241C525.593 584.078 525.617 583.912 525.68 583.76L568.68 479.76C568.729 479.637 568.803 479.526 568.895 479.432C568.988 479.338 569.099 479.263 569.22 479.212C569.342 479.161 569.473 479.134 569.605 479.134C569.737 479.134 569.868 479.16 569.99 479.21C570.112 479.26 570.222 479.334 570.315 479.427C570.408 479.521 570.482 479.631 570.532 479.753C570.582 479.875 570.608 480.005 570.607 480.137C570.607 480.268 570.581 480.399 570.53 480.52L527.53 584.52C527.455 584.703 527.328 584.859 527.164 584.969C527 585.08 526.808 585.139 526.61 585.14Z" fill="black"/>
<path d="M486.06 503.92C486.06 503.92 505.61 526.12 548.61 527.12L486.06 503.92Z" fill="white"/>
<path d="M548.61 528.14C505.67 527.14 485.53 504.83 485.34 504.6C485.165 504.401 485.076 504.141 485.093 503.876C485.11 503.612 485.231 503.365 485.43 503.19C485.629 503.015 485.889 502.926 486.154 502.943C486.418 502.96 486.665 503.081 486.84 503.28C487.03 503.5 506.65 525.16 548.66 526.14C548.925 526.14 549.18 526.245 549.367 526.433C549.555 526.62 549.66 526.875 549.66 527.14C549.66 527.405 549.555 527.66 549.367 527.847C549.18 528.035 548.925 528.14 548.66 528.14H548.61Z" fill="black"/>
<path d="M493.61 276.64C494.991 276.64 496.11 275.149 496.11 273.31C496.11 271.471 494.991 269.98 493.61 269.98C492.229 269.98 491.11 271.471 491.11 273.31C491.11 275.149 492.229 276.64 493.61 276.64Z" fill="black"/>
<path d="M545.1 520.07C532.43 520.07 507.68 517.27 490.36 497.58C490.266 497.483 490.194 497.367 490.146 497.241C490.098 497.115 490.076 496.98 490.082 496.845C490.088 496.71 490.12 496.578 490.179 496.456C490.237 496.335 490.319 496.226 490.421 496.137C490.522 496.047 490.64 495.98 490.768 495.937C490.897 495.895 491.032 495.879 491.167 495.891C491.301 495.903 491.432 495.941 491.551 496.005C491.67 496.068 491.775 496.155 491.86 496.26C515.21 522.8 552.59 517.7 552.96 517.65C553.225 517.612 553.495 517.68 553.709 517.84C553.924 518.001 554.066 518.24 554.105 518.505C554.143 518.77 554.075 519.04 553.914 519.255C553.754 519.469 553.515 519.612 553.25 519.65C550.545 519.958 547.823 520.099 545.1 520.07Z" fill="black"/>
<path d="M476.52 631.63C464.202 631.602 452.323 627.051 443.14 618.84C425.53 603.62 415.28 577.23 415 546.43C414.94 545.58 408.52 454.7 401.35 413.19C394.77 375.19 389.01 347.84 384.23 332.02C380.04 318.21 378.01 308.29 381.67 304.77C383 303.49 384.93 303.17 387.42 303.83C388.08 301.25 390 295.19 393.54 294.35C394.3 294.21 395.083 294.265 395.815 294.51C396.548 294.755 397.207 295.182 397.73 295.75C398.49 293.51 400.17 289.94 403.33 289.64C407.93 289.21 413.33 295.86 419.72 309.94C418.72 302.77 418.13 293.25 421.16 290.05C421.6 289.574 422.154 289.217 422.77 289.015C423.386 288.812 424.043 288.769 424.68 288.89C432.68 290.13 445.07 334.14 449.6 351.24C455.91 308.37 458.85 308.51 460.6 308.59C462.6 308.69 464.74 311.08 466.82 338.52C468.17 356.29 469.25 381.08 470.39 407.32C472.66 459.61 475.24 518.87 480.99 555.26C481.011 555.391 481.006 555.526 480.975 555.655C480.944 555.784 480.888 555.906 480.81 556.014C480.732 556.122 480.634 556.213 480.521 556.283C480.407 556.352 480.281 556.399 480.15 556.42C480.019 556.441 479.884 556.436 479.755 556.405C479.626 556.374 479.504 556.318 479.396 556.24C479.288 556.162 479.197 556.064 479.127 555.951C479.058 555.837 479.011 555.711 478.99 555.58C473.23 519.07 470.65 459.75 468.37 407.41C467.26 381.83 466.21 357.67 464.91 340.06C463.17 316.33 461.42 311.37 460.48 310.63C459.38 311.36 456.39 317.52 450.85 356.42C450.818 356.649 450.708 356.859 450.539 357.016C450.369 357.173 450.15 357.266 449.92 357.28C449.693 357.287 449.47 357.217 449.288 357.081C449.107 356.944 448.977 356.75 448.92 356.53C442.55 331.63 430.25 291.78 424.38 290.87C424.066 290.799 423.738 290.812 423.431 290.908C423.123 291.005 422.847 291.182 422.63 291.42C419.18 295.07 421.83 311.79 423.14 317.92C423.191 318.163 423.15 318.417 423.024 318.631C422.898 318.846 422.697 319.006 422.46 319.08C422.22 319.156 421.959 319.139 421.731 319.031C421.503 318.924 421.324 318.734 421.23 318.5C411.48 294.59 405.97 291.41 403.54 291.63C401.11 291.85 399.54 296.26 399.21 297.93C399.173 298.117 399.083 298.289 398.951 298.426C398.82 298.563 398.652 298.66 398.467 298.705C398.282 298.75 398.088 298.742 397.908 298.681C397.728 298.619 397.569 298.508 397.45 298.36C396.16 296.75 395 296.06 394.02 296.29C391.72 296.84 389.81 302.11 389.14 305.29C389.11 305.429 389.051 305.559 388.966 305.673C388.882 305.787 388.774 305.881 388.65 305.95C388.527 306.021 388.39 306.065 388.249 306.078C388.107 306.092 387.965 306.076 387.83 306.03C385.6 305.25 383.99 305.31 383.07 306.2C379.54 309.59 384.01 324.34 386.15 331.43C390.96 347.32 396.74 374.71 403.33 412.84C410.51 454.45 416.94 545.43 417.01 546.34C417.28 576.18 427.54 602.69 444.46 617.34C455.66 627.03 469.16 631.12 483.46 629.16C483.591 629.142 483.725 629.151 483.853 629.184C483.981 629.218 484.101 629.277 484.207 629.358C484.312 629.438 484.401 629.538 484.467 629.653C484.534 629.767 484.577 629.894 484.595 630.025C484.613 630.156 484.604 630.29 484.571 630.418C484.537 630.546 484.478 630.666 484.397 630.772C484.317 630.877 484.217 630.966 484.102 631.032C483.988 631.099 483.861 631.142 483.73 631.16C481.34 631.479 478.931 631.636 476.52 631.63Z" fill="black"/>
<path d="M406.79 355.72C406.79 355.72 396.23 312.16 387.86 304.29L406.79 355.72Z" fill="white"/>
<path d="M406.79 356.72C406.56 356.726 406.335 356.653 406.153 356.513C405.971 356.372 405.843 356.174 405.79 355.95C405.68 355.52 395.2 312.59 387.14 305.02C387.046 304.927 386.972 304.816 386.921 304.695C386.87 304.573 386.844 304.442 386.844 304.31C386.844 304.178 386.87 304.047 386.921 303.925C386.972 303.804 387.046 303.693 387.14 303.6C387.327 303.414 387.581 303.309 387.845 303.309C388.109 303.309 388.363 303.414 388.55 303.6C397.04 311.6 407.34 353.73 407.77 355.52C407.801 355.648 407.807 355.781 407.787 355.911C407.766 356.041 407.72 356.166 407.652 356.279C407.583 356.391 407.492 356.489 407.386 356.567C407.279 356.644 407.158 356.7 407.03 356.73C406.95 356.737 406.869 356.734 406.79 356.72Z" fill="black"/>
<path d="M416.43 352.17C416.43 352.17 407.73 316.17 397.92 296.93L416.43 352.17Z" fill="white"/>
<path d="M416.43 353.17C416.2 353.176 415.975 353.103 415.793 352.963C415.611 352.822 415.483 352.624 415.43 352.4C415.34 352.04 406.64 316.26 397 297.4C396.94 297.283 396.903 297.154 396.893 297.023C396.882 296.891 396.898 296.759 396.939 296.633C396.98 296.508 397.045 296.392 397.131 296.292C397.217 296.191 397.322 296.109 397.44 296.05C397.676 295.931 397.95 295.911 398.201 295.993C398.452 296.076 398.66 296.254 398.78 296.49C408.53 315.57 417.29 351.58 417.37 351.94C417.434 352.197 417.392 352.469 417.255 352.696C417.119 352.923 416.897 353.086 416.64 353.15L416.43 353.17Z" fill="black"/>
<path d="M428.7 345.83C428.7 345.83 424.78 323.83 421.84 316.57L428.7 345.83Z" fill="white"/>
<path d="M428.7 346.83C428.462 346.834 428.23 346.752 428.047 346.6C427.864 346.447 427.74 346.235 427.7 346C427.7 345.79 423.77 324.05 420.9 317C420.851 316.878 420.826 316.747 420.827 316.616C420.829 316.484 420.856 316.354 420.907 316.233C420.959 316.111 421.034 316.002 421.128 315.909C421.222 315.817 421.333 315.744 421.455 315.695C421.577 315.646 421.708 315.621 421.839 315.622C421.971 315.624 422.101 315.651 422.222 315.702C422.344 315.754 422.453 315.829 422.546 315.923C422.638 316.017 422.711 316.128 422.76 316.25C425.71 323.54 429.51 344.8 429.67 345.7C429.693 345.829 429.69 345.962 429.662 346.09C429.634 346.219 429.581 346.34 429.505 346.448C429.43 346.556 429.334 346.647 429.224 346.718C429.113 346.789 428.99 346.837 428.86 346.86L428.7 346.83Z" fill="black"/>
<path d="M450.94 365.1C450.69 365.101 450.448 365.008 450.263 364.84C450.078 364.671 449.962 364.439 449.94 364.19L448.87 351.59C448.848 351.325 448.931 351.061 449.103 350.858C449.274 350.655 449.52 350.527 449.785 350.505C450.05 350.482 450.314 350.566 450.517 350.738C450.721 350.909 450.848 351.155 450.87 351.42L451.94 364.02C451.962 364.284 451.879 364.546 451.708 364.748C451.538 364.951 451.294 365.077 451.03 365.1H450.94Z" fill="black"/>
<path d="M620.38 404.5C603.63 384.5 583.62 374.5 565.49 377.08C547.86 379.57 533.07 393.29 522.69 416.73C506.25 453.9 485.69 501.91 475.5 525.93L475.92 530.05C485.55 507.4 507.29 456.51 524.52 417.54C534.6 394.76 548.86 381.45 565.76 379.06C583.21 376.59 602.55 386.34 618.84 405.78C649.3 442.13 667.44 584.83 667.62 586.26C667.65 586.504 667.768 586.728 667.952 586.891C668.137 587.053 668.374 587.142 668.62 587.14H668.74C669.002 587.108 669.241 586.973 669.404 586.765C669.567 586.557 669.641 586.292 669.61 586.03C668.86 580.12 651.21 441.3 620.38 404.5Z" fill="black"/>
<path d="M539.28 393.56L522 348.92C521.855 348.544 521.6 348.221 521.268 347.992C520.936 347.764 520.543 347.641 520.14 347.64C519.85 347.638 519.564 347.7 519.3 347.82C515.791 349.286 512.033 350.067 508.23 350.12C505.857 350.211 503.492 349.799 501.289 348.911C499.087 348.023 497.097 346.681 495.45 344.97C489.72 338.97 487.26 327.75 488.14 311.75C488.158 311.305 488.028 310.867 487.769 310.504C487.509 310.142 487.137 309.877 486.71 309.75C486.65 309.75 481.13 308.01 478.92 302.89C477.19 298.89 477.86 293.7 480.92 287.56C488.98 271.44 489.42 258.65 489.75 249.31C489.84 246.86 489.91 244.74 490.12 242.89C490.89 235.89 497.77 227.34 499.95 224.77C504.2 225.32 520.7 228.08 521.12 238.27C519.96 241.02 514.22 255.76 519.68 266.79C522.41 272.31 527.46 275.95 534.68 277.62C534.83 277.635 534.98 277.635 535.13 277.62C535.639 277.621 536.129 277.428 536.5 277.08C536.59 276.99 546 268.27 555.7 268.27C558.303 268.248 560.861 268.958 563.08 270.32C565.693 271.918 567.845 274.17 569.323 276.853C570.801 279.535 571.555 282.557 571.51 285.62C571.51 290.93 569.34 295.88 566.07 297.92C558.54 302.63 548.45 304.12 548.35 304.14C547.893 304.204 547.471 304.424 547.158 304.763C546.844 305.102 546.658 305.539 546.63 306C546.614 311.524 548.265 316.925 551.368 321.496C554.47 326.067 558.88 329.595 564.02 331.62L579.17 378.05L576.89 379.05C578.03 379.21 579.17 379.41 580.35 379.66L581.63 379.08L565.63 330.08C547.63 323.08 548.63 306.08 548.63 306.08C548.63 306.08 559.13 304.58 567.13 299.58C575.13 294.58 577.13 276.58 564.13 268.58C561.598 267.017 558.675 266.202 555.7 266.23C545.1 266.23 535.13 275.58 535.13 275.58C509.13 269.58 523.13 238.58 523.13 238.58C523.13 224.58 499.13 222.58 499.13 222.58C499.13 222.58 489.13 233.58 488.13 242.58C487.13 251.58 489.13 266.58 479.13 286.58C469.13 306.58 486.13 311.58 486.13 311.58C484.27 345.58 497.7 352.06 508.22 352.06C512.313 352.008 516.357 351.166 520.13 349.58L537.84 395.25C538.25 394.77 538.73 394.18 539.28 393.56Z" fill="black"/>
<path d="M432 265.42C431.888 265.419 431.776 265.398 431.67 265.36C431.421 265.272 431.218 265.089 431.103 264.851C430.989 264.613 430.974 264.339 431.06 264.09L439.06 241.09C439.163 240.862 439.348 240.681 439.578 240.582C439.808 240.484 440.066 240.475 440.303 240.558C440.539 240.641 440.735 240.809 440.853 241.03C440.971 241.251 441.002 241.508 440.94 241.75L432.94 264.75C432.872 264.945 432.745 265.114 432.577 265.234C432.408 265.354 432.207 265.419 432 265.42Z" fill="black"/>
<path d="M421 262.42C420.735 262.42 420.481 262.315 420.293 262.127C420.105 261.94 420 261.685 420 261.42V235.42C420 235.155 420.105 234.9 420.293 234.713C420.481 234.525 420.735 234.42 421 234.42C421.265 234.42 421.519 234.525 421.707 234.713C421.895 234.9 422 235.155 422 235.42V261.42C422 261.685 421.895 261.94 421.707 262.127C421.519 262.315 421.265 262.42 421 262.42Z" fill="black"/>
<path d="M54 467.42L63.4199 532.42H105L116 467.42H54Z" fill="#FCE054"/>
<path d="M110.72 522.48C109.287 522.5 107.857 522.349 106.46 522.03L108.03 516.24C109.34 516.58 121.16 519.11 126.13 502.56C127.4 498.33 127.13 495.13 125.41 493.05C122.02 489 113.41 489.05 110.35 489.4L109.64 483.4C110.22 483.33 123.82 481.79 129.99 489.14C133.13 492.86 133.76 497.95 131.87 504.24C127.13 520.09 116.63 522.48 110.72 522.48Z" fill="#FCE054"/>
<path d="M74.8799 455.92L73.1202 454.98C73.1902 454.84 80.71 440.44 73.22 431.07C66.42 422.58 66.3801 410.79 73.0901 396.07L74.91 396.89C68.45 411.11 68.4101 421.89 74.7801 429.89C83.1001 440.19 75.2199 455.25 74.8799 455.92Z" fill="black"/>
<path d="M85.8601 453.92L84.1399 452.92C84.1999 452.82 89.8001 443.12 84.0701 428.8L85.9299 428.06C91.9999 443.33 86.1101 453.51 85.8601 453.92Z" fill="black"/>
<path d="M144 298.42C145.657 298.42 147 297.077 147 295.42C147 293.763 145.657 292.42 144 292.42C142.343 292.42 141 293.763 141 295.42C141 297.077 142.343 298.42 144 298.42Z" fill="black"/>
<path d="M316.573 180.769L307.573 198.765L309.362 199.659L318.362 181.664L316.573 180.769Z" fill="#CB93EE"/>
<path d="M115.61 212.64C114.01 212.74 112.417 212.358 111.037 211.542C109.658 210.726 108.555 209.514 107.872 208.064C107.189 206.614 106.958 204.992 107.208 203.409C107.458 201.825 108.177 200.354 109.274 199.184C110.37 198.015 111.792 197.202 113.356 196.85C114.92 196.499 116.553 196.625 118.045 197.213C119.536 197.801 120.816 198.824 121.719 200.148C122.622 201.472 123.107 203.037 123.11 204.64C123.172 206.694 122.418 208.69 121.012 210.189C119.606 211.688 117.664 212.57 115.61 212.64ZM115.61 198.64C114.407 198.539 113.202 198.804 112.152 199.399C111.101 199.995 110.255 200.893 109.723 201.976C109.192 203.06 108.999 204.279 109.171 205.474C109.343 206.669 109.871 207.784 110.687 208.674C111.503 209.563 112.568 210.187 113.743 210.461C114.919 210.736 116.15 210.651 117.275 210.215C118.401 209.779 119.369 209.014 120.053 208.02C120.737 207.025 121.106 205.847 121.11 204.64C121.172 203.116 120.629 201.629 119.598 200.505C118.567 199.381 117.134 198.71 115.61 198.64Z" fill="#CB93EE"/>
<path d="M143.61 112.56V88.36L159.74 108.53L143.61 112.56ZM146.61 96.92V108.72L154.48 106.72L146.61 96.92Z" fill="#47CEC0"/>
<path d="M592.92 157.36C592.595 157.359 592.28 157.254 592.02 157.06L569.24 139.92C569.082 139.802 568.95 139.654 568.849 139.484C568.749 139.315 568.683 139.127 568.655 138.932C568.627 138.737 568.638 138.539 568.687 138.348C568.736 138.157 568.822 137.978 568.94 137.82C569.058 137.663 569.206 137.53 569.376 137.429C569.545 137.329 569.733 137.263 569.928 137.235C570.123 137.207 570.321 137.218 570.512 137.267C570.703 137.316 570.882 137.402 571.04 137.52L593.82 154.64C594.072 154.829 594.258 155.092 594.352 155.393C594.446 155.693 594.442 156.016 594.343 156.314C594.243 156.613 594.052 156.873 593.797 157.057C593.542 157.241 593.235 157.34 592.92 157.34V157.36Z" fill="#ED5564"/>
<path d="M322.81 69H440V131.36H439.81L439.46 173.82L413.8 131.36H322.81V69Z" fill="#FCE054"/>
<path d="M422 87.74H341.36C341.095 87.74 340.84 87.6347 340.653 87.4471C340.465 87.2596 340.36 87.0052 340.36 86.74C340.36 86.4748 340.465 86.2205 340.653 86.033C340.84 85.8454 341.095 85.74 341.36 85.74H422C422.265 85.74 422.519 85.8454 422.707 86.033C422.895 86.2205 423 86.4748 423 86.74C423 87.0052 422.895 87.2596 422.707 87.4471C422.519 87.6347 422.265 87.74 422 87.74Z" fill="black"/>
<path d="M418.77 113.54H375.22C374.955 113.54 374.7 113.435 374.513 113.247C374.325 113.06 374.22 112.805 374.22 112.54C374.22 112.275 374.325 112.02 374.513 111.833C374.7 111.645 374.955 111.54 375.22 111.54H418.77C419.035 111.54 419.29 111.645 419.477 111.833C419.665 112.02 419.77 112.275 419.77 112.54C419.77 112.805 419.665 113.06 419.477 113.247C419.29 113.435 419.035 113.54 418.77 113.54Z" fill="black"/>
</svg>
