<svg width="512" height="256" viewBox="0 0 512 256" fill="none" xmlns="http://www.w3.org/2000/svg">
  <path d="M139.592 43H189.491V50.2339L183.865 50.622C181.255 50.816 178.532 51.823 175.78 53.6153C173.162 55.3153 171.89 57.5048 171.89 60.3042V151.703C172.089 155.75 174.822 158.771 180.031 160.702L180.164 160.748L189.501 162.143V169.294H139.601V162.06L144.829 161.672C147.809 161.653 150.503 160.776 153.141 159.002C155.665 157.302 156.889 154.9 156.889 151.666V116.273H91.1914V152.119C91.5804 155.722 94.408 158.531 99.5886 160.471L99.7025 160.508L108.802 162.171V169.284H58.9024V162.051L64.1969 161.653C67.015 161.459 69.7856 160.452 72.4328 158.669C74.9473 156.969 76.1713 154.669 76.1713 151.648V60.221C75.9815 56.2484 73.3722 53.2458 68.4003 51.3056L68.239 51.241L58.8929 50.1877V43H108.792V50.2339L103.498 50.6312C100.67 50.8252 97.8997 51.8322 95.2619 53.6061C92.7095 55.3245 91.3812 57.5418 91.1819 60.3781V109.288H156.88V60.258C156.69 56.4424 154.061 53.5322 149.061 51.6013L148.919 51.5458L139.592 50.1508V43ZM33.2648 149.504L33.1319 149.467C32.1451 149.236 31.1678 149.116 30.219 149.116C25.2945 149.116 21.8977 151.565 20.37 156.23L20.3321 156.369C20.1044 157.468 20 158.355 20 159.076C20 164.065 22.5144 167.483 27.3061 168.961L27.4389 168.998C28.5301 169.211 29.4979 169.321 30.219 169.321C35.3617 169.321 38.8724 166.753 40.3906 161.866C40.6278 160.933 40.7416 159.99 40.7416 159.066C40.7416 154.308 38.0849 150.918 33.2648 149.504ZM207.064 116.291V117.575C207.054 120.144 207.291 122.795 207.775 125.456C209.464 134.519 213.326 142.575 219.256 149.375C226.164 157.126 234.333 161.164 243.509 161.358C251.261 161.358 258.718 158.965 265.645 154.262C270.199 151.038 274.099 147.056 277.24 142.437L278.018 141.273L284.176 144.959L283.587 145.901C282.923 146.973 282.031 148.285 280.931 149.791C271.177 162.734 258.045 169.303 241.877 169.303H241.858C230.775 169.09 220.66 165.7 211.817 159.242C198.742 149.329 192.119 135.997 192.119 119.617C192.119 108.632 195.478 98.4787 202.111 89.4432C212.092 76.4905 225.452 69.931 241.848 69.931C249.353 69.931 256.403 71.2429 262.827 73.8297C279.052 80.537 288.17 94.4229 289.935 115.09L290.04 116.3H207.054L207.064 116.291ZM241.81 76.2872L241.839 76.9339C236.876 77.1464 231.828 78.7909 226.818 81.8397C217.539 87.8726 211.352 96.5755 208.458 107.69L208.041 109.297H275.798L275.522 107.782C274.782 103.652 273.53 99.6705 271.803 95.9565C265.863 83.1516 256.394 76.9247 242.854 76.9247H241.858L241.82 76.278L241.81 76.2872ZM479.959 141.273L486.117 144.959L485.538 145.901C484.884 146.964 483.992 148.266 482.882 149.791C473.128 162.734 459.996 169.294 443.827 169.303H443.818C432.736 169.09 422.621 165.7 413.778 159.242C400.703 149.329 394.08 135.997 394.08 119.617C394.08 108.632 397.439 98.4787 404.071 89.4432C414.053 76.4905 427.413 69.931 443.808 69.931C451.314 69.931 458.364 71.2429 464.787 73.8297C481.003 80.537 490.131 94.4229 491.896 115.09L492 116.3H409.005V117.584C408.986 120.144 409.233 122.795 409.717 125.465C411.406 134.528 415.267 142.575 421.198 149.384C428.105 157.136 436.275 161.173 445.45 161.367C453.202 161.367 460.66 158.974 467.596 154.271C472.236 150.992 476.192 146.927 479.352 142.196L479.959 141.282V141.273ZM443.742 76.2872L443.771 76.9339C438.818 77.1464 433.76 78.7909 428.76 81.8397C419.48 87.8726 413.294 96.5755 410.39 107.69L409.973 109.297H477.729L477.454 107.782C476.705 103.634 475.452 99.6612 473.725 95.9565C467.786 83.1516 458.316 76.9247 444.776 76.9247H443.789L443.742 76.278V76.2872ZM367.541 69.9494L367.266 69.9032C366.582 69.7092 365.899 69.6168 365.226 69.6168C354.361 69.6168 343.592 73.5433 333.202 81.2946C331.181 82.8929 329.274 84.5928 327.538 86.339L325.612 88.2791L323.885 74.5411L297.27 69.7647L295.049 76.6937L304.177 81.1098L304.253 81.1653C308.903 84.3157 311.265 87.7433 311.265 91.3556V151.675C311.265 154.909 310.041 157.311 307.527 159.011C304.889 160.785 302.185 161.653 299.215 161.681L293.987 162.069V169.303H343.886V162.152L334.758 160.822L334.645 160.785C329.483 159.048 326.674 156.128 326.295 152.119V98.7189L326.56 98.3678C332.13 91.2725 337.861 86.2558 343.592 83.4657C348.232 81.2115 352.824 80.0659 357.255 80.0659C362.028 80.0659 366.791 81.3962 371.403 84.0016L371.469 84.0385C375.018 86.2743 377.978 89.0552 380.284 92.3072L380.986 93.2957L392.543 84.288L391.973 83.438C386.404 75.197 378.196 70.6608 367.569 69.9402M109.049 209.307C109.02 210.637 108.555 211.681 107.654 212.402C106.771 213.085 105.329 213.427 103.242 213.446H94.8729V212.337L95.5845 212.282C95.8217 212.263 96.04 212.189 96.2582 212.032C96.4385 211.912 96.5239 211.755 96.5239 211.542V200.41C96.5239 200.244 96.448 199.985 95.9261 199.782L94.8729 199.625V198.544H101.771C103.839 198.544 105.282 198.885 106.183 199.588C107.046 200.271 107.521 201.223 107.587 202.396C107.606 203.459 107.094 204.392 106.06 205.186C105.898 205.306 105.718 205.408 105.509 205.51C105.614 205.528 105.718 205.537 105.804 205.556C106.202 205.639 106.582 205.759 106.923 205.907H106.933C108.337 206.572 109.049 207.708 109.049 209.297M105.623 201.703C105.234 200.354 103.868 199.689 101.467 199.689H98.4026V205.195H101.467C102.416 205.195 103.27 205.029 104.01 204.706C105.158 204.198 105.718 203.486 105.718 202.544C105.718 202.267 105.69 201.98 105.633 201.694M102.929 212.328C103.82 212.328 104.598 212.198 105.234 211.958C106.534 211.459 107.17 210.6 107.17 209.316C107.17 208.983 107.122 208.66 107.028 208.346C106.676 207.246 105.747 206.637 104.2 206.48C104.153 206.48 104.096 206.47 104.039 206.452L101.325 206.332H98.4026V212.328H102.929ZM127.428 212.189L128.3 212.392V213.455H123.812V212.383L124.391 212.272C124.515 212.254 124.619 212.198 124.714 212.078C124.742 212.051 124.809 211.967 124.761 211.764L123.386 208.392H118.138L116.782 211.718C116.744 211.931 116.801 212.078 116.962 212.208L117.711 212.411V213.464H114.001V212.365L114.58 212.3C114.685 212.291 114.874 212.235 115.15 212.06C115.368 211.921 115.529 211.727 115.652 211.459L119.856 201.223C119.998 200.613 119.827 200.16 119.315 199.855L118.461 199.615V198.562H121.383L126.659 211.459C126.83 211.783 127.086 212.023 127.437 212.198M122.93 207.256L120.776 201.99L118.613 207.256H122.93ZM148.634 212.189L149.507 212.392V213.455H145.019V212.383L145.598 212.272C145.731 212.254 145.826 212.198 145.92 212.078C145.949 212.051 146.015 211.967 145.968 211.764L144.592 208.392H139.345L137.988 211.718C137.95 211.931 138.007 212.078 138.178 212.208L138.927 212.411V213.464H135.218V212.365L135.796 212.3C135.948 212.282 136.147 212.198 136.366 212.06C136.584 211.921 136.745 211.727 136.869 211.459L141.072 201.223C141.205 200.613 141.043 200.16 140.531 199.855L139.677 199.615V198.562H142.6L147.875 211.459C148.046 211.783 148.302 212.023 148.653 212.198M144.137 207.256L141.973 201.99L139.819 207.256H144.137ZM181.768 212.189L182.641 212.392V213.455H178.152V212.383L178.731 212.272C178.864 212.254 178.959 212.198 179.054 212.078C179.082 212.041 179.149 211.967 179.101 211.764L177.726 208.392H172.478L171.122 211.718C171.084 211.931 171.141 212.078 171.311 212.208L172.051 212.411V213.464H168.341V212.365L168.92 212.3C169.072 212.282 169.271 212.198 169.49 212.06C169.708 211.921 169.869 211.727 169.992 211.459L174.196 201.223C174.329 200.613 174.167 200.16 173.655 199.855L172.801 199.615V198.562H175.723L180.999 211.459C181.17 211.783 181.426 212.023 181.777 212.198M177.27 207.256L175.116 201.99L172.962 207.256H177.28H177.27ZM187.034 198.562L185.724 200.151L186.445 200.853L187.878 200.114C188.58 199.828 189.206 199.689 189.747 199.689H191.133V211.561C191.133 211.783 191.047 211.931 190.867 212.051C190.649 212.198 190.421 212.282 190.193 212.3L189.482 212.356V213.464H194.691V212.383L193.638 212.226C193.125 212.023 193.049 211.746 193.04 211.57V199.698H194.425C194.843 199.698 195.307 199.782 195.81 199.957C196.323 200.133 196.731 200.308 197.025 200.474L197.718 200.872L198.458 200.16L197.148 198.571H187.053L187.034 198.562ZM216.4 206.008C216.4 207.902 215.964 209.519 215.1 210.822C213.943 212.568 212.273 213.455 210.147 213.455C208.857 213.436 207.69 213.067 206.684 212.365C204.834 211.053 203.894 208.919 203.894 206.008C203.894 204.115 204.331 202.498 205.194 201.195C206.352 199.449 208.022 198.562 210.147 198.562C211.419 198.562 212.567 198.922 213.582 199.625C215.451 200.936 216.4 203.089 216.4 206.008ZM213.335 211.154C214.578 209.843 214.948 207.838 214.436 205.186C214.199 204.022 213.81 202.978 213.288 202.101C212.311 200.493 211.087 199.717 209.559 199.717C209.388 199.735 209.17 199.763 208.933 199.8C208.183 199.948 207.519 200.299 206.969 200.853C205.726 202.156 205.356 204.152 205.868 206.785C206.191 208.327 206.732 209.602 207.491 210.591C208.591 211.949 209.872 212.476 211.4 212.198C212.149 212.051 212.804 211.7 213.335 211.145M234.172 211.903C233.451 212.18 232.825 212.328 232.293 212.328H225.585V200.428C225.585 200.234 225.67 200.096 225.86 199.966C226.088 199.819 226.316 199.735 226.524 199.717L227.264 199.661V198.553H222.055V199.634L223.09 199.782C223.621 199.966 223.697 200.234 223.706 200.419V211.552C223.706 211.773 223.63 211.921 223.441 212.041C223.222 212.189 222.995 212.272 222.767 212.291L222.055 212.346V213.455H235.035L236.307 211.866L235.586 211.164L234.172 211.903ZM255.379 211.903C254.657 212.18 254.031 212.328 253.5 212.328H246.792V200.428C246.792 200.234 246.877 200.096 247.067 199.966C247.294 199.819 247.522 199.735 247.731 199.717L248.471 199.661V198.553H243.262V199.634L244.296 199.782C244.827 199.966 244.903 200.234 244.913 200.419V211.552C244.913 211.773 244.837 211.921 244.647 212.041C244.429 212.189 244.201 212.272 243.973 212.291L243.262 212.346V213.455H256.242L257.523 211.866L256.802 211.164L255.388 211.903H255.379ZM276.433 206.877H283.132V205.445H276.433V206.877ZM311.142 206.979L305.249 198.562H302.28V199.643L303.333 199.8C303.845 200.003 303.921 200.28 303.931 200.456V211.552C303.931 211.773 303.845 211.921 303.665 212.041C303.447 212.189 303.219 212.272 302.982 212.291L302.27 212.346V213.455H306.73V212.374L305.676 212.217C305.155 211.995 305.079 211.727 305.069 211.561V201.583L310.686 209.713L316.427 201.371V211.561C316.427 211.773 316.341 211.931 316.152 212.051C315.924 212.198 315.696 212.282 315.487 212.3L314.747 212.346V213.455H319.956V212.374L318.913 212.217C318.391 211.995 318.315 211.727 318.306 211.561V200.428C318.306 200.234 318.381 200.086 318.571 199.966C318.789 199.819 319.017 199.735 319.245 199.717L319.956 199.661V198.553H316.987L311.123 206.969L311.142 206.979ZM340.186 212.189L341.059 212.392V213.455H336.571V212.383L337.149 212.272C337.273 212.254 337.377 212.198 337.472 212.078C337.501 212.051 337.567 211.967 337.52 211.764L336.144 208.392H330.897L329.54 211.718C329.502 211.931 329.559 212.078 329.73 212.208L330.479 212.411V213.464H326.769V212.365L327.348 212.3C327.5 212.282 327.699 212.198 327.917 212.06C328.135 211.921 328.297 211.727 328.42 211.459L332.624 201.223C332.756 200.613 332.595 200.16 332.083 199.855L331.229 199.615V198.562H334.151L339.427 211.459C339.597 211.783 339.854 212.023 340.205 212.198M335.688 207.256L333.525 201.99L331.362 207.256H335.679H335.688ZM359.95 211.903C359.229 212.18 358.603 212.328 358.071 212.328H351.363V200.428C351.363 200.234 351.448 200.096 351.638 199.966C351.866 199.819 352.094 199.735 352.302 199.717L353.043 199.661V198.553H347.833V199.634L348.868 199.782C349.399 199.966 349.475 200.234 349.484 200.419V211.552C349.484 211.773 349.408 211.921 349.219 212.041C349 212.189 348.773 212.272 348.545 212.291L347.833 212.346V213.455H360.814L362.085 211.866L361.364 211.164L359.95 211.903ZM382.751 205.066C382.77 205.371 382.789 205.676 382.789 206.008C382.789 206.323 382.779 206.627 382.76 206.942C382.57 208.808 381.925 210.388 380.843 211.644L380.606 211.875C379.572 212.919 377.788 213.455 375.293 213.455H368.641V212.346L369.353 212.291C369.59 212.272 369.808 212.198 370.027 212.041C370.207 211.921 370.292 211.773 370.292 211.579V200.419C370.292 200.253 370.216 199.994 369.695 199.791L368.641 199.634V198.553H375.293C377.893 198.553 379.752 199.163 380.834 200.364C381.916 201.611 382.551 203.181 382.751 205.057M378.443 200.299C378.358 200.244 378.253 200.188 378.13 200.133C377.494 199.837 376.365 199.68 374.761 199.68H372.162V212.319H374.761C376.384 212.319 377.627 212.106 378.471 211.69C378.5 211.672 378.566 211.626 378.642 211.57C379.43 210.988 380.018 210.184 380.36 209.177C381.081 207.071 381.081 204.937 380.36 202.83L380.341 202.729C379.904 201.639 379.268 200.826 378.433 200.299M388.415 199.643L389.468 199.8C389.981 200.003 390.057 200.262 390.066 200.428V211.589C390.066 211.783 389.99 211.931 389.801 212.051C389.582 212.198 389.355 212.282 389.127 212.3L388.415 212.356V213.464H393.624V212.383L392.571 212.226C392.03 212.023 391.954 211.746 391.945 211.57V200.438C391.945 200.244 392.03 200.105 392.22 199.976C392.448 199.828 392.676 199.745 392.884 199.726L393.624 199.671V198.562H388.415V199.643ZM411.111 199.615L411.89 199.819C412.06 199.948 412.108 200.105 412.041 200.308L408.085 210.018L404.28 200.752H404.289L404.128 200.317C404.033 200.059 404.109 199.966 404.138 199.929C404.232 199.809 404.346 199.735 404.441 199.717L405.01 199.652V198.553H400.522V199.615L401.395 199.819C401.756 199.994 402.012 200.225 402.164 200.511L407.667 214L413.161 200.567C413.303 200.29 413.474 200.096 413.702 199.948C413.977 199.772 414.148 199.717 414.243 199.708L414.821 199.643V198.544H411.111V199.597V199.615ZM432.062 199.689C432.479 199.689 432.944 199.772 433.447 199.948C433.959 200.123 434.367 200.299 434.662 200.465L435.345 200.863L436.075 200.151L434.794 198.562H421.814V199.671L422.858 199.754C423.38 199.939 423.456 200.216 423.465 200.438V211.57C423.465 211.792 423.38 211.94 423.2 212.06C422.981 212.208 422.754 212.291 422.526 212.309L421.814 212.365V213.473H434.794L436.075 211.884L435.354 211.182L433.96 211.921C433.238 212.208 432.593 212.356 432.062 212.356H425.354V206.6H428.883C429.168 206.6 429.405 206.692 429.604 206.877C429.823 207.08 429.965 207.283 430.031 207.477L430.231 208.059H431.303V203.985H430.25L429.898 204.854C429.614 205.251 429.272 205.454 428.883 205.473H425.354V199.717H432.062V199.689ZM453.98 206.997C453.192 206.415 451.959 205.879 450.204 205.334C448.467 204.798 447.196 204.327 446.437 203.939C445.27 203.302 444.691 202.572 444.672 201.703C444.672 201.426 444.729 201.177 444.814 200.983C445.099 200.484 445.716 200.105 446.617 199.874C447.395 199.717 448.325 199.661 449.359 199.698C450.574 199.782 451.646 200.04 452.538 200.484C452.936 200.678 453.316 200.899 453.676 201.158C454.037 201.408 454.293 201.611 454.445 201.759L454.891 202.193L455.773 201.602L454.483 199.357L452.519 199.135C452.357 199.098 452.206 199.061 452.054 199.015C451.655 198.913 451.295 198.83 450.972 198.765C450.507 198.682 450.023 198.627 449.568 198.608C448.012 198.497 446.74 198.664 445.668 199.015C444.814 199.301 444.15 199.754 443.695 200.391C443.372 200.881 443.201 201.417 443.173 201.99C443.173 202.452 443.23 202.849 443.344 203.191C443.571 203.81 444.074 204.429 444.862 205.038C445.754 205.694 447.186 206.313 449.255 206.942C450.725 207.404 451.798 207.792 452.433 208.096C453.582 208.725 454.151 209.464 454.17 210.332C454.17 210.609 454.113 210.859 454.018 211.062C453.752 211.561 453.145 211.921 452.215 212.143C451.456 212.319 450.536 212.383 449.483 212.346C448.287 212.272 447.215 212.004 446.304 211.561C445.905 211.367 445.526 211.145 445.165 210.887C444.805 210.637 444.549 210.434 444.397 210.286L443.951 209.852L443.068 210.443L444.359 212.688L446.332 212.91C446.503 212.947 446.655 212.984 446.788 213.03C447.196 213.132 447.566 213.215 447.917 213.279C448.353 213.344 448.809 213.39 449.283 213.436C449.558 213.455 449.834 213.455 450.099 213.455C451.257 213.455 452.282 213.307 453.173 213.021C454.027 212.734 454.692 212.282 455.147 211.653C455.498 211.154 455.669 210.619 455.669 210.046C455.669 209.593 455.612 209.187 455.498 208.845C455.27 208.226 454.768 207.607 453.99 207.006" />
  
  <style>
      path { fill: #11171F; }
      @media (prefers-color-scheme: dark) {
          path { fill: #ffffff; }
      }
  </style>
</svg>
